solid Omnidroid
facet normal 3.18860538981813e-015 -1.0 -5.89590598567015e-015
  outer loop
    vertex 26.5028629658204 -463.125073933705 2.02135197469033e-014
    vertex 8.50286296582027 -463.125073933705 12.0
    vertex 8.50286296582038 -463.125073933705 1.73258740687743e-014
  endloop
endfacet
facet normal 3.18860538981813e-015 -1.0 -5.89590598567015e-015
  outer loop
    vertex 8.50286296582027 -463.125073933705 12.0
    vertex 26.5028629658204 -463.125073933705 2.02135197469033e-014
    vertex 26.5028629658202 -463.125073933705 12.0
  endloop
endfacet
facet normal -1.0 -1.5414268281487e-015 -1.43857280732275e-014
  outer loop
    vertex 8.50286296582028 -440.125073933705 12.0
    vertex 8.50286296582038 -463.125073933705 1.73258740687743e-014
    vertex 8.50286296582027 -463.125073933705 12.0
  endloop
endfacet
facet normal -1.0 -1.5414268281487e-015 -1.43857280732275e-014
  outer loop
    vertex 8.50286296582038 -463.125073933705 1.73258740687743e-014
    vertex 8.50286296582028 -440.125073933705 12.0
    vertex 8.50286296582046 -440.125073933705 2.74326339422259e-014
  endloop
endfacet
facet normal 5.95269947212595e-015 1.0 1.56182159907249e-014
  outer loop
    vertex 8.50286296582046 -440.125073933705 2.74326339422259e-014
    vertex 26.5028629658203 -440.125073933705 3.50000000000001
    vertex 26.5028629658204 -440.125073933705 1.29944055515807e-014
  endloop
endfacet
facet normal 5.95269947212595e-015 1.0 1.56182159907249e-014
  outer loop
    vertex 26.5028629658203 -440.125073933705 3.50000000000001
    vertex 8.50286296582046 -440.125073933705 2.74326339422259e-014
    vertex 25.5028629658203 -440.125073933705 3.50000000000001
  endloop
endfacet
facet normal 5.95269947212595e-015 1.0 1.56182159907249e-014
  outer loop
    vertex 8.50286296582028 -440.125073933705 12.0
    vertex 25.5028629658203 -440.125073933705 3.50000000000001
    vertex 8.50286296582046 -440.125073933705 2.74326339422259e-014
  endloop
endfacet
facet normal 5.95269947212595e-015 1.0 1.56182159907249e-014
  outer loop
    vertex 25.5028629658203 -440.125073933705 3.50000000000001
    vertex 8.50286296582028 -440.125073933705 12.0
    vertex 25.5028629658203 -440.125073933705 8.50000000000002
  endloop
endfacet
facet normal 5.95269947212595e-015 1.0 1.56182159907249e-014
  outer loop
    vertex 25.5028629658203 -440.125073933705 8.50000000000002
    vertex 8.50286296582028 -440.125073933705 12.0
    vertex 26.5028629658202 -440.125073933705 12.0
  endloop
endfacet
facet normal 5.95269947212595e-015 1.0 1.56182159907249e-014
  outer loop
    vertex 26.5028629658202 -440.125073933705 12.0
    vertex 26.5028629658204 -440.125073933705 8.50000000000001
    vertex 25.5028629658203 -440.125073933705 8.50000000000002
  endloop
endfacet
facet normal -2.50999222003427e-016 1.84829929140193e-016 1.0
  outer loop
    vertex 26.5028629658204 -440.125073933705 8.50000000000001
    vertex 25.5028629658204 -438.125073933705 8.50000000000002
    vertex 25.5028629658203 -440.125073933705 8.50000000000002
  endloop
endfacet
facet normal -2.50999222003427e-016 1.84829929140193e-016 1.0
  outer loop
    vertex 25.5028629658204 -438.125073933705 8.50000000000002
    vertex 26.5028629658204 -440.125073933705 8.50000000000001
    vertex 26.5028629658205 -438.125073933705 8.50000000000001
  endloop
endfacet
facet normal -1.0 -1.33516946660716e-015 1.76807901654969e-015
  outer loop
    vertex 25.5028629658204 -438.125073933705 8.50000000000002
    vertex 25.5028629658203 -440.125073933705 3.50000000000001
    vertex 25.5028629658203 -440.125073933705 8.50000000000002
  endloop
endfacet
facet normal -1.0 -1.33516946660716e-015 1.76807901654969e-015
  outer loop
    vertex 25.5028629658203 -440.125073933705 3.50000000000001
    vertex 25.5028629658204 -438.125073933705 8.50000000000002
    vertex 25.5028629658203 -438.125073933705 3.50000000000001
  endloop
endfacet
facet normal 1.87162424991988e-016 -5.99413447560709e-016 1.0
  outer loop
    vertex 26.5028629658202 -463.125073933705 12.0
    vertex 8.50286296582028 -440.125073933705 12.0
    vertex 8.50286296582027 -463.125073933705 12.0
  endloop
endfacet
facet normal 1.87162424991988e-016 -5.99413447560709e-016 1.0
  outer loop
    vertex 8.50286296582028 -440.125073933705 12.0
    vertex 26.5028629658202 -463.125073933705 12.0
    vertex 26.5028629658202 -440.125073933705 12.0
  endloop
endfacet
facet normal 6.43688020382023e-015 1.0 1.8532020362704e-015
  outer loop
    vertex 25.5028629658204 -438.125073933705 8.50000000000002
    vertex 26.5028629658204 -438.125073933705 3.50000000000001
    vertex 25.5028629658203 -438.125073933705 3.50000000000001
  endloop
endfacet
facet normal 6.43688020382023e-015 1.0 1.8532020362704e-015
  outer loop
    vertex 26.5028629658204 -438.125073933705 3.50000000000001
    vertex 25.5028629658204 -438.125073933705 8.50000000000002
    vertex 26.5028629658205 -438.125073933705 8.50000000000001
  endloop
endfacet
facet normal 9.72910641535937e-016 1.76125780625779e-016 -1.0
  outer loop
    vertex 26.5028629658204 -438.125073933705 3.50000000000001
    vertex 25.5028629658203 -440.125073933705 3.50000000000001
    vertex 25.5028629658203 -438.125073933705 3.50000000000001
  endloop
endfacet
facet normal 9.72910641535937e-016 1.76125780625779e-016 -1.0
  outer loop
    vertex 25.5028629658203 -440.125073933705 3.50000000000001
    vertex 26.5028629658204 -438.125073933705 3.50000000000001
    vertex 26.5028629658203 -440.125073933705 3.50000000000001
  endloop
endfacet
facet normal 1.0 -3.91074864292872e-015 1.06983487157755e-014
  outer loop
    vertex 26.5028629658204 -440.125073933705 1.29944055515807e-014
    vertex 26.5028629658202 -463.125073933705 12.0
    vertex 26.5028629658204 -463.125073933705 2.02135197469033e-014
  endloop
endfacet
facet normal 1.0 -3.91074864292872e-015 1.06983487157755e-014
  outer loop
    vertex 26.5028629658202 -463.125073933705 12.0
    vertex 26.5028629658204 -440.125073933705 1.29944055515807e-014
    vertex 26.5028629658203 -440.125073933705 3.50000000000001
  endloop
endfacet
facet normal 1.0 -3.91074864292872e-015 1.06983487157755e-014
  outer loop
    vertex 26.5028629658204 -438.125073933705 3.50000000000001
    vertex 26.5028629658204 -440.125073933705 8.50000000000001
    vertex 26.5028629658203 -440.125073933705 3.50000000000001
  endloop
endfacet
facet normal 1.0 -3.91074864292872e-015 1.06983487157755e-014
  outer loop
    vertex 26.5028629658204 -440.125073933705 8.50000000000001
    vertex 26.5028629658204 -438.125073933705 3.50000000000001
    vertex 26.5028629658205 -438.125073933705 8.50000000000001
  endloop
endfacet
facet normal 1.0 -3.91074864292872e-015 1.06983487157755e-014
  outer loop
    vertex 26.5028629658203 -440.125073933705 3.50000000000001
    vertex 26.5028629658202 -440.125073933705 12.0
    vertex 26.5028629658202 -463.125073933705 12.0
  endloop
endfacet
facet normal 1.0 -3.91074864292872e-015 1.06983487157755e-014
  outer loop
    vertex 26.5028629658202 -440.125073933705 12.0
    vertex 26.5028629658203 -440.125073933705 3.50000000000001
    vertex 26.5028629658204 -440.125073933705 8.50000000000001
  endloop
endfacet
facet normal -3.68717487097325e-016 2.60695676815901e-016 -1.0
  outer loop
    vertex 8.50286296582046 -440.125073933705 2.74326339422259e-014
    vertex 26.5028629658204 -463.125073933705 2.02135197469033e-014
    vertex 8.50286296582038 -463.125073933705 1.73258740687743e-014
  endloop
endfacet
facet normal -3.68717487097325e-016 2.60695676815901e-016 -1.0
  outer loop
    vertex 26.5028629658204 -463.125073933705 2.02135197469033e-014
    vertex 8.50286296582046 -440.125073933705 2.74326339422259e-014
    vertex 26.5028629658204 -440.125073933705 1.29944055515807e-014
  endloop
endfacet
endsolid Omnidroid
