solid Omnidroid
facet normal -2.36304354696491e-015 -2.91286000657332e-015 -1.0
  outer loop
    vertex -72.1827829796307 -216.64636161013 -8.15759904071456e-014
    vertex -72.6386877541187 -221.475990741575 -7.00254076946294e-014
    vertex -73.3886877541182 -217.145863722653 -7.58006990508875e-014
  endloop
endfacet
facet normal -2.36304354696491e-015 -2.91286000657332e-015 -1.0
  outer loop
    vertex -72.6386877541187 -221.475990741575 -7.00254076946294e-014
    vertex -72.1827829796307 -216.64636161013 -8.15759904071456e-014
    vertex -72.5790579501245 -221.023057412646 -7.00254076946294e-014
  endloop
endfacet
facet normal -2.36304354696491e-015 -2.91286000657332e-015 -1.0
  outer loop
    vertex -72.5790579501245 -221.023057412646 -7.00254076946294e-014
    vertex -72.1827829796307 -216.64636161013 -8.15759904071456e-014
    vertex -72.4042322107414 -220.600990741575 -7.00254076946294e-014
  endloop
endfacet
facet normal -2.36304354696491e-015 -2.91286000657332e-015 -1.0
  outer loop
    vertex -72.4042322107414 -220.600990741575 -7.00254076946294e-014
    vertex -72.1827829796307 -216.64636161013 -8.15759904071456e-014
    vertex -72.126124621195 -220.238553874499 -7.00254076946294e-014
  endloop
endfacet
facet normal -2.36304354696491e-015 -2.91286000657332e-015 -1.0
  outer loop
    vertex -72.126124621195 -220.238553874499 -7.00254076946294e-014
    vertex -72.1827829796307 -216.64636161013 -8.15759904071456e-014
    vertex -70.8886877541181 -216.475990741575 -8.44636360852746e-014
  endloop
endfacet
facet normal -2.36304354696491e-015 -2.91286000657332e-015 -1.0
  outer loop
    vertex -72.126124621195 -220.238553874499 -7.00254076946294e-014
    vertex -70.8886877541181 -216.475990741575 -8.44636360852746e-014
    vertex -71.7636877541185 -219.960446284953 -7.00254076946294e-014
  endloop
endfacet
facet normal -2.36304354696491e-015 -2.91286000657332e-015 -1.0
  outer loop
    vertex -71.7636877541185 -219.960446284953 -7.00254076946294e-014
    vertex -70.8886877541181 -216.475990741575 -8.44636360852746e-014
    vertex -71.3416210830479 -219.78562054557 -7.00254076946294e-014
  endloop
endfacet
facet normal -2.36304354696491e-015 -2.91286000657332e-015 -1.0
  outer loop
    vertex -71.3416210830479 -219.78562054557 -7.00254076946294e-014
    vertex -70.8886877541181 -216.475990741575 -8.44636360852746e-014
    vertex -70.888687754119 -219.725990741576 -9.31265731196618e-014
  endloop
endfacet
facet normal -2.36304354696491e-015 -2.91286000657332e-015 -1.0
  outer loop
    vertex -70.888687754119 -219.725990741576 -9.31265731196618e-014
    vertex -70.8886877541181 -216.475990741575 -8.44636360852746e-014
    vertex -70.4357544251891 -219.78562054557 -7.00254076946294e-014
  endloop
endfacet
facet normal -2.36304354696491e-015 -2.91286000657332e-015 -1.0
  outer loop
    vertex -70.4357544251891 -219.78562054557 -7.00254076946294e-014
    vertex -70.8886877541181 -216.475990741575 -8.44636360852746e-014
    vertex -69.5945925286055 -216.64636161013 -8.73512817634037e-014
  endloop
endfacet
facet normal -2.36304354696491e-015 -2.91286000657332e-015 -1.0
  outer loop
    vertex -70.4357544251891 -219.78562054557 -7.00254076946294e-014
    vertex -69.5945925286055 -216.64636161013 -8.73512817634037e-014
    vertex -70.0136877541186 -219.960446284953 -7.00254076946294e-014
  endloop
endfacet
facet normal -2.36304354696491e-015 -2.91286000657332e-015 -1.0
  outer loop
    vertex -70.0136877541186 -219.960446284953 -7.00254076946294e-014
    vertex -69.5945925286055 -216.64636161013 -8.73512817634037e-014
    vertex -69.6512508870422 -220.238553874499 -7.00254076946294e-014
  endloop
endfacet
facet normal -2.36304354696491e-015 -2.91286000657332e-015 -1.0
  outer loop
    vertex -69.6512508870422 -220.238553874499 -7.00254076946294e-014
    vertex -69.5945925286055 -216.64636161013 -8.73512817634037e-014
    vertex -69.3731432974959 -220.600990741576 -7.00254076946294e-014
  endloop
endfacet
facet normal -2.36304354696491e-015 -2.91286000657332e-015 -1.0
  outer loop
    vertex -69.3731432974959 -220.600990741576 -7.00254076946294e-014
    vertex -69.5945925286055 -216.64636161013 -8.73512817634037e-014
    vertex -68.3886877541182 -217.145863722654 -8.73512817634037e-014
  endloop
endfacet
facet normal -2.36304354696491e-015 -2.91286000657332e-015 -1.0
  outer loop
    vertex -69.3731432974959 -220.600990741576 -7.00254076946294e-014
    vertex -68.3886877541182 -217.145863722654 -8.73512817634037e-014
    vertex -69.1983175581129 -221.023057412646 -7.00254076946294e-014
  endloop
endfacet
facet normal -2.36304354696491e-015 -2.91286000657332e-015 -1.0
  outer loop
    vertex -69.1983175581129 -221.023057412646 -7.00254076946294e-014
    vertex -68.3886877541182 -217.145863722654 -8.73512817634037e-014
    vertex -69.1386877541188 -221.475990741576 -7.00254076946294e-014
  endloop
endfacet
facet normal -2.36304354696491e-015 -2.91286000657332e-015 -1.0
  outer loop
    vertex -69.1386877541188 -221.475990741576 -7.00254076946294e-014
    vertex -68.3886877541182 -217.145863722654 -8.73512817634037e-014
    vertex -68.3886877541193 -225.806117760498 -6.42501163383713e-014
  endloop
endfacet
facet normal -2.36304354696491e-015 -2.91286000657332e-015 -1.0
  outer loop
    vertex -68.3886877541193 -225.806117760498 -6.42501163383713e-014
    vertex -68.3886877541182 -217.145863722654 -8.73512817634037e-014
    vertex -67.3531538481865 -225.011524647509 -6.71377620165003e-014
  endloop
endfacet
facet normal -2.36304354696491e-015 -2.91286000657332e-015 -1.0
  outer loop
    vertex -67.3531538481865 -225.011524647509 -6.71377620165003e-014
    vertex -68.3886877541182 -217.145863722654 -8.73512817634037e-014
    vertex -67.3531538481855 -217.940456835643 -9.02389274415327e-014
  endloop
endfacet
facet normal -2.36304354696491e-015 -2.91286000657332e-015 -1.0
  outer loop
    vertex -67.3531538481865 -225.011524647509 -6.71377620165003e-014
    vertex -67.3531538481855 -217.940456835643 -9.02389274415327e-014
    vertex -66.5585607351969 -223.975990741576 -7.29130533727584e-014
  endloop
endfacet
facet normal -2.36304354696491e-015 -2.91286000657332e-015 -1.0
  outer loop
    vertex -66.5585607351969 -223.975990741576 -7.29130533727584e-014
    vertex -67.3531538481855 -217.940456835643 -9.02389274415327e-014
    vertex -66.5585607351962 -218.975990741576 -8.73512817634037e-014
  endloop
endfacet
facet normal -2.36304354696491e-015 -2.91286000657332e-015 -1.0
  outer loop
    vertex -66.5585607351969 -223.975990741576 -7.29130533727584e-014
    vertex -66.5585607351962 -218.975990741576 -8.73512817634037e-014
    vertex -66.0590586226736 -222.770085967089 -7.86883447290165e-014
  endloop
endfacet
facet normal -2.36304354696491e-015 -2.91286000657332e-015 -1.0
  outer loop
    vertex -66.0590586226736 -222.770085967089 -7.86883447290165e-014
    vertex -66.5585607351962 -218.975990741576 -8.73512817634037e-014
    vertex -66.0590586226732 -220.181895516064 -8.44636360852746e-014
  endloop
endfacet
facet normal -2.36304354696491e-015 -2.91286000657332e-015 -1.0
  outer loop
    vertex -66.0590586226736 -222.770085967089 -7.86883447290165e-014
    vertex -66.0590586226732 -220.181895516064 -8.44636360852746e-014
    vertex -65.8886877541187 -221.475990741576 -8.15759904071456e-014
  endloop
endfacet
facet normal -2.36304354696491e-015 -2.91286000657332e-015 -1.0
  outer loop
    vertex -75.718316885564 -220.181895516062 -6.13624706602422e-014
    vertex -75.7183168855643 -222.770085967087 -5.55871793039842e-014
    vertex -75.8886877541188 -221.475990741575 -5.84748249821132e-014
  endloop
endfacet
facet normal -2.36304354696491e-015 -2.91286000657332e-015 -1.0
  outer loop
    vertex -75.7183168855643 -222.770085967087 -5.55871793039842e-014
    vertex -75.718316885564 -220.181895516062 -6.13624706602422e-014
    vertex -75.2188147730413 -223.975990741575 -5.26995336258551e-014
  endloop
endfacet
facet normal -2.36304354696491e-015 -2.91286000657332e-015 -1.0
  outer loop
    vertex -75.2188147730413 -223.975990741575 -5.26995336258551e-014
    vertex -75.718316885564 -220.181895516062 -6.13624706602422e-014
    vertex -75.2188147730406 -218.975990741575 -6.71377620165003e-014
  endloop
endfacet
facet normal -2.36304354696491e-015 -2.91286000657332e-015 -1.0
  outer loop
    vertex -75.2188147730413 -223.975990741575 -5.26995336258551e-014
    vertex -75.2188147730406 -218.975990741575 -6.71377620165003e-014
    vertex -74.424221660052 -225.011524647508 -4.98118879477261e-014
  endloop
endfacet
facet normal -2.36304354696491e-015 -2.91286000657332e-015 -1.0
  outer loop
    vertex -74.424221660052 -225.011524647508 -4.98118879477261e-014
    vertex -75.2188147730406 -218.975990741575 -6.71377620165003e-014
    vertex -74.424221660051 -217.940456835642 -7.29130533727584e-014
  endloop
endfacet
facet normal -2.36304354696491e-015 -2.91286000657332e-015 -1.0
  outer loop
    vertex -74.424221660052 -225.011524647508 -4.98118879477261e-014
    vertex -74.424221660051 -217.940456835642 -7.29130533727584e-014
    vertex -73.3886877541193 -225.806117760497 -5.26995336258551e-014
  endloop
endfacet
facet normal -2.36304354696491e-015 -2.91286000657332e-015 -1.0
  outer loop
    vertex -73.3886877541193 -225.806117760497 -5.26995336258551e-014
    vertex -74.424221660051 -217.940456835642 -7.29130533727584e-014
    vertex -73.3886877541182 -217.145863722653 -7.58006990508875e-014
  endloop
endfacet
facet normal -2.36304354696491e-015 -2.91286000657332e-015 -1.0
  outer loop
    vertex -73.3886877541193 -225.806117760497 -5.26995336258551e-014
    vertex -73.3886877541182 -217.145863722653 -7.58006990508875e-014
    vertex -72.182782979632 -226.305619873021 -5.26995336258551e-014
  endloop
endfacet
facet normal -2.36304354696491e-015 -2.91286000657332e-015 -1.0
  outer loop
    vertex -72.182782979632 -226.305619873021 -5.26995336258551e-014
    vertex -73.3886877541182 -217.145863722653 -7.58006990508875e-014
    vertex -72.6386877541187 -221.475990741575 -7.00254076946294e-014
  endloop
endfacet
facet normal -2.36304354696491e-015 -2.91286000657332e-015 -1.0
  outer loop
    vertex -72.182782979632 -226.305619873021 -5.26995336258551e-014
    vertex -72.6386877541187 -221.475990741575 -7.00254076946294e-014
    vertex -72.5790579501246 -221.928924070505 -7.00254076946294e-014
  endloop
endfacet
facet normal -2.36304354696491e-015 -2.91286000657332e-015 -1.0
  outer loop
    vertex -72.182782979632 -226.305619873021 -5.26995336258551e-014
    vertex -72.5790579501246 -221.928924070505 -7.00254076946294e-014
    vertex -72.4042322107416 -222.350990741575 -7.00254076946294e-014
  endloop
endfacet
facet normal -2.36304354696491e-015 -2.91286000657332e-015 -1.0
  outer loop
    vertex -72.182782979632 -226.305619873021 -5.26995336258551e-014
    vertex -72.4042322107416 -222.350990741575 -7.00254076946294e-014
    vertex -72.1261246211953 -222.713427608652 -7.00254076946294e-014
  endloop
endfacet
facet normal -2.36304354696491e-015 -2.91286000657332e-015 -1.0
  outer loop
    vertex -72.182782979632 -226.305619873021 -5.26995336258551e-014
    vertex -72.1261246211953 -222.713427608652 -7.00254076946294e-014
    vertex -70.8886877541194 -226.475990741576 -5.55871793039842e-014
  endloop
endfacet
facet normal -2.36304354696491e-015 -2.91286000657332e-015 -1.0
  outer loop
    vertex -70.8886877541194 -226.475990741576 -5.55871793039842e-014
    vertex -72.1261246211953 -222.713427608652 -7.00254076946294e-014
    vertex -71.7636877541189 -222.991535198198 -7.00254076946294e-014
  endloop
endfacet
facet normal -2.36304354696491e-015 -2.91286000657332e-015 -1.0
  outer loop
    vertex -70.8886877541194 -226.475990741576 -5.55871793039842e-014
    vertex -71.7636877541189 -222.991535198198 -7.00254076946294e-014
    vertex -71.3416210830484 -223.166360937581 -7.00254076946294e-014
  endloop
endfacet
facet normal -2.36304354696491e-015 -2.91286000657332e-015 -1.0
  outer loop
    vertex -70.8886877541194 -226.475990741576 -5.55871793039842e-014
    vertex -71.3416210830484 -223.166360937581 -7.00254076946294e-014
    vertex -70.888687754119 -223.225990741575 -5.84748249821132e-014
  endloop
endfacet
facet normal -2.36304354696491e-015 -2.91286000657332e-015 -1.0
  outer loop
    vertex -70.8886877541194 -226.475990741576 -5.55871793039842e-014
    vertex -70.888687754119 -223.225990741575 -5.84748249821132e-014
    vertex -69.5945925286068 -226.305619873021 -5.84748249821132e-014
  endloop
endfacet
facet normal -2.36304354696491e-015 -2.91286000657332e-015 -1.0
  outer loop
    vertex -69.5945925286068 -226.305619873021 -5.84748249821132e-014
    vertex -70.888687754119 -223.225990741575 -5.84748249821132e-014
    vertex -70.4357544251896 -223.166360937581 -7.00254076946294e-014
  endloop
endfacet
facet normal -2.36304354696491e-015 -2.91286000657332e-015 -1.0
  outer loop
    vertex -69.5945925286068 -226.305619873021 -5.84748249821132e-014
    vertex -70.4357544251896 -223.166360937581 -7.00254076946294e-014
    vertex -70.013687754119 -222.991535198198 -7.00254076946294e-014
  endloop
endfacet
facet normal -2.36304354696491e-015 -2.91286000657332e-015 -1.0
  outer loop
    vertex -69.5945925286068 -226.305619873021 -5.84748249821132e-014
    vertex -70.013687754119 -222.991535198198 -7.00254076946294e-014
    vertex -69.6512508870425 -222.713427608652 -7.00254076946294e-014
  endloop
endfacet
facet normal -2.36304354696491e-015 -2.91286000657332e-015 -1.0
  outer loop
    vertex -69.5945925286068 -226.305619873021 -5.84748249821132e-014
    vertex -69.6512508870425 -222.713427608652 -7.00254076946294e-014
    vertex -69.3731432974962 -222.350990741576 -7.00254076946294e-014
  endloop
endfacet
facet normal -2.36304354696491e-015 -2.91286000657332e-015 -1.0
  outer loop
    vertex -69.5945925286068 -226.305619873021 -5.84748249821132e-014
    vertex -69.3731432974962 -222.350990741576 -7.00254076946294e-014
    vertex -68.3886877541193 -225.806117760498 -6.42501163383713e-014
  endloop
endfacet
facet normal -2.36304354696491e-015 -2.91286000657332e-015 -1.0
  outer loop
    vertex -68.3886877541193 -225.806117760498 -6.42501163383713e-014
    vertex -69.3731432974962 -222.350990741576 -7.00254076946294e-014
    vertex -69.198317558113 -221.928924070505 -7.00254076946294e-014
  endloop
endfacet
facet normal -2.36304354696491e-015 -2.91286000657332e-015 -1.0
  outer loop
    vertex -68.3886877541193 -225.806117760498 -6.42501163383713e-014
    vertex -69.198317558113 -221.928924070505 -7.00254076946294e-014
    vertex -69.1386877541188 -221.475990741576 -7.00254076946294e-014
  endloop
endfacet
facet normal -0.382683432365197 -0.923879532511242 3.59542935652461e-015
  outer loop
    vertex -72.182782979632 -226.305619873021 1.99999999999995
    vertex -73.3886877541193 -225.806117760497 -5.26995336258551e-014
    vertex -72.182782979632 -226.305619873021 -5.26995336258551e-014
  endloop
endfacet
facet normal -0.382683432365197 -0.923879532511242 3.59542935652461e-015
  outer loop
    vertex -73.3886877541193 -225.806117760497 -5.26995336258551e-014
    vertex -72.182782979632 -226.305619873021 1.99999999999995
    vertex -73.3886877541193 -225.806117760497 1.99999999999995
  endloop
endfacet
facet normal -0.130526192220047 -0.991444861373811 3.19637916165388e-015
  outer loop
    vertex -70.4357544251891 -219.78562054557 -7.00254076946294e-014
    vertex -70.888687754119 -219.725990741576 1.99999999999991
    vertex -70.888687754119 -219.725990741576 -9.31265731196618e-014
  endloop
endfacet
facet normal -0.130526192220047 -0.991444861373811 3.19637916165388e-015
  outer loop
    vertex -70.888687754119 -219.725990741576 1.99999999999991
    vertex -70.4357544251891 -219.78562054557 -7.00254076946294e-014
    vertex -70.4357544251891 -219.78562054557 1.99999999999993
  endloop
endfacet
facet normal -0.382683432364978 0.923879532511333 -1.78683412576347e-015
  outer loop
    vertex -73.3886877541182 -217.145863722653 -7.58006990508875e-014
    vertex -72.1827829796307 -216.64636161013 1.99999999999992
    vertex -72.1827829796307 -216.64636161013 -8.15759904071456e-014
  endloop
endfacet
facet normal -0.382683432364978 0.923879532511333 -1.78683412576347e-015
  outer loop
    vertex -72.1827829796307 -216.64636161013 1.99999999999992
    vertex -73.3886877541182 -217.145863722653 -7.58006990508875e-014
    vertex -73.3886877541182 -217.145863722653 1.99999999999993
  endloop
endfacet
facet normal 0.991444861373792 -0.13052619222019 -1.96262285671237e-015
  outer loop
    vertex -65.8886877541187 -221.475990741576 -8.15759904071456e-014
    vertex -66.0590586226736 -222.770085967089 1.99999999999992
    vertex -66.0590586226736 -222.770085967089 -7.86883447290165e-014
  endloop
endfacet
facet normal 0.991444861373792 -0.13052619222019 -1.96262285671237e-015
  outer loop
    vertex -66.0590586226736 -222.770085967089 1.99999999999992
    vertex -65.8886877541187 -221.475990741576 -8.15759904071456e-014
    vertex -65.8886877541187 -221.475990741576 1.99999999999992
  endloop
endfacet
facet normal 0.923879532511337 0.382683432364969 -3.297870832788e-015
  outer loop
    vertex -66.5585607351962 -218.975990741576 -8.73512817634037e-014
    vertex -66.0590586226732 -220.181895516064 1.99999999999991
    vertex -66.0590586226732 -220.181895516064 -8.44636360852746e-014
  endloop
endfacet
facet normal 0.923879532511337 0.382683432364969 -3.297870832788e-015
  outer loop
    vertex -66.0590586226732 -220.181895516064 1.99999999999991
    vertex -66.5585607351962 -218.975990741576 -8.73512817634037e-014
    vertex -66.5585607351962 -218.975990741576 1.99999999999991
  endloop
endfacet
facet normal -0.130526192219913 0.991444861373829 -2.57950100918328e-015
  outer loop
    vertex -72.1827829796307 -216.64636161013 -8.15759904071456e-014
    vertex -70.8886877541181 -216.475990741575 1.99999999999991
    vertex -70.8886877541181 -216.475990741575 -8.44636360852746e-014
  endloop
endfacet
facet normal -0.130526192219913 0.991444861373829 -2.57950100918328e-015
  outer loop
    vertex -70.8886877541181 -216.475990741575 1.99999999999991
    vertex -72.1827829796307 -216.64636161013 -8.15759904071456e-014
    vertex -72.1827829796307 -216.64636161013 1.99999999999992
  endloop
endfacet
facet normal -0.382683432365208 -0.923879532511238 3.59542935652463e-015
  outer loop
    vertex -70.0136877541186 -219.960446284953 1.99999999999993
    vertex -70.4357544251891 -219.78562054557 -7.00254076946294e-014
    vertex -70.0136877541186 -219.960446284953 -7.00254076946294e-014
  endloop
endfacet
facet normal -0.382683432365208 -0.923879532511238 3.59542935652463e-015
  outer loop
    vertex -70.4357544251891 -219.78562054557 -7.00254076946294e-014
    vertex -70.0136877541186 -219.960446284953 1.99999999999993
    vertex -70.4357544251891 -219.78562054557 1.99999999999993
  endloop
endfacet
facet normal -0.793353340291311 -0.608761429008621 3.64796531134208e-015
  outer loop
    vertex -69.6512508870422 -220.238553874499 1.99999999999993
    vertex -69.3731432974959 -220.600990741576 -7.00254076946294e-014
    vertex -69.3731432974959 -220.600990741576 1.99999999999993
  endloop
endfacet
facet normal -0.793353340291311 -0.608761429008621 3.64796531134208e-015
  outer loop
    vertex -69.3731432974959 -220.600990741576 -7.00254076946294e-014
    vertex -69.6512508870422 -220.238553874499 1.99999999999993
    vertex -69.6512508870422 -220.238553874499 -7.00254076946294e-014
  endloop
endfacet
facet normal 0.382683432364978 -0.923879532511333 1.78683412576347e-015
  outer loop
    vertex -68.3886877541193 -225.806117760498 1.99999999999994
    vertex -69.5945925286068 -226.305619873021 -5.84748249821132e-014
    vertex -68.3886877541193 -225.806117760498 -6.42501163383713e-014
  endloop
endfacet
facet normal 0.382683432364978 -0.923879532511333 1.78683412576347e-015
  outer loop
    vertex -69.5945925286068 -226.305619873021 -5.84748249821132e-014
    vertex -68.3886877541193 -225.806117760498 1.99999999999994
    vertex -69.5945925286068 -226.305619873021 1.99999999999994
  endloop
endfacet
facet normal 0.130526192220196 0.991444861373792 -3.19637916165418e-015
  outer loop
    vertex -70.8886877541181 -216.475990741575 -8.44636360852746e-014
    vertex -69.5945925286055 -216.64636161013 1.99999999999991
    vertex -69.5945925286055 -216.64636161013 -8.73512817634037e-014
  endloop
endfacet
facet normal 0.130526192220196 0.991444861373792 -3.19637916165418e-015
  outer loop
    vertex -69.5945925286055 -216.64636161013 1.99999999999991
    vertex -70.8886877541181 -216.475990741575 -8.44636360852746e-014
    vertex -70.8886877541181 -216.475990741575 1.99999999999991
  endloop
endfacet
facet normal -0.608761429008601 0.793353340291327 -8.72397449556042e-016
  outer loop
    vertex -74.424221660051 -217.940456835642 -7.29130533727584e-014
    vertex -73.3886877541182 -217.145863722653 1.99999999999993
    vertex -73.3886877541182 -217.145863722653 -7.58006990508875e-014
  endloop
endfacet
facet normal -0.608761429008601 0.793353340291327 -8.72397449556042e-016
  outer loop
    vertex -73.3886877541182 -217.145863722653 1.99999999999993
    vertex -74.424221660051 -217.940456835642 -7.29130533727584e-014
    vertex -74.424221660051 -217.940456835642 1.99999999999993
  endloop
endfacet
facet normal 0.382683432365197 0.923879532511242 -3.59542935652461e-015
  outer loop
    vertex -69.5945925286055 -216.64636161013 1.99999999999991
    vertex -68.3886877541182 -217.145863722654 -8.73512817634037e-014
    vertex -69.5945925286055 -216.64636161013 -8.73512817634037e-014
  endloop
endfacet
facet normal 0.382683432365197 0.923879532511242 -3.59542935652461e-015
  outer loop
    vertex -68.3886877541182 -217.145863722654 -8.73512817634037e-014
    vertex -69.5945925286055 -216.64636161013 1.99999999999991
    vertex -68.3886877541182 -217.145863722654 1.99999999999991
  endloop
endfacet
facet normal -0.991444861373793 0.130526192220181 1.9626228567124e-015
  outer loop
    vertex -75.718316885564 -220.181895516062 1.99999999999994
    vertex -75.8886877541188 -221.475990741575 -5.84748249821132e-014
    vertex -75.8886877541188 -221.475990741575 1.99999999999994
  endloop
endfacet
facet normal -0.991444861373793 0.130526192220181 1.9626228567124e-015
  outer loop
    vertex -75.8886877541188 -221.475990741575 -5.84748249821132e-014
    vertex -75.718316885564 -220.181895516062 1.99999999999994
    vertex -75.718316885564 -220.181895516062 -6.13624706602422e-014
  endloop
endfacet
facet normal -0.991444861373829 -0.130526192219911 2.72303190696863e-015
  outer loop
    vertex -75.8886877541188 -221.475990741575 1.99999999999994
    vertex -75.7183168855643 -222.770085967087 -5.55871793039842e-014
    vertex -75.7183168855643 -222.770085967087 1.99999999999994
  endloop
endfacet
facet normal -0.991444861373829 -0.130526192219911 2.72303190696863e-015
  outer loop
    vertex -75.7183168855643 -222.770085967087 -5.55871793039842e-014
    vertex -75.8886877541188 -221.475990741575 1.99999999999994
    vertex -75.8886877541188 -221.475990741575 -5.84748249821132e-014
  endloop
endfacet
facet normal 0.793353340291321 0.60876142900861 -3.64796531134207e-015
  outer loop
    vertex -67.3531538481855 -217.940456835643 -9.02389274415327e-014
    vertex -66.5585607351962 -218.975990741576 1.99999999999991
    vertex -66.5585607351962 -218.975990741576 -8.73512817634037e-014
  endloop
endfacet
facet normal 0.793353340291321 0.60876142900861 -3.64796531134207e-015
  outer loop
    vertex -66.5585607351962 -218.975990741576 1.99999999999991
    vertex -67.3531538481855 -217.940456835643 -9.02389274415327e-014
    vertex -67.3531538481855 -217.940456835643 1.99999999999991
  endloop
endfacet
facet normal -0.923879532511337 -0.382683432364969 3.297870832788e-015
  outer loop
    vertex -75.7183168855643 -222.770085967087 1.99999999999994
    vertex -75.2188147730413 -223.975990741575 -5.26995336258551e-014
    vertex -75.2188147730413 -223.975990741575 1.99999999999995
  endloop
endfacet
facet normal -0.923879532511337 -0.382683432364969 3.297870832788e-015
  outer loop
    vertex -75.2188147730413 -223.975990741575 -5.26995336258551e-014
    vertex -75.7183168855643 -222.770085967087 1.99999999999994
    vertex -75.7183168855643 -222.770085967087 -5.55871793039842e-014
  endloop
endfacet
facet normal -0.793353340291316 -0.608761429008615 3.64796531134207e-015
  outer loop
    vertex -75.2188147730413 -223.975990741575 1.99999999999995
    vertex -74.424221660052 -225.011524647508 -4.98118879477261e-014
    vertex -74.424221660052 -225.011524647508 1.99999999999995
  endloop
endfacet
facet normal -0.793353340291316 -0.608761429008615 3.64796531134207e-015
  outer loop
    vertex -74.424221660052 -225.011524647508 -4.98118879477261e-014
    vertex -75.2188147730413 -223.975990741575 1.99999999999995
    vertex -75.2188147730413 -223.975990741575 -5.26995336258551e-014
  endloop
endfacet
facet normal -0.608761429008834 -0.793353340291148 3.7494569824759e-015
  outer loop
    vertex -73.3886877541193 -225.806117760497 1.99999999999995
    vertex -74.424221660052 -225.011524647508 -4.98118879477261e-014
    vertex -73.3886877541193 -225.806117760497 -5.26995336258551e-014
  endloop
endfacet
facet normal -0.608761429008834 -0.793353340291148 3.7494569824759e-015
  outer loop
    vertex -74.424221660052 -225.011524647508 -4.98118879477261e-014
    vertex -73.3886877541193 -225.806117760497 1.99999999999995
    vertex -74.424221660052 -225.011524647508 1.99999999999995
  endloop
endfacet
facet normal -0.130526192220196 -0.991444861373792 3.19637916165418e-015
  outer loop
    vertex -70.8886877541194 -226.475990741576 1.99999999999994
    vertex -72.182782979632 -226.305619873021 -5.26995336258551e-014
    vertex -70.8886877541194 -226.475990741576 -5.55871793039842e-014
  endloop
endfacet
facet normal -0.130526192220196 -0.991444861373792 3.19637916165418e-015
  outer loop
    vertex -72.182782979632 -226.305619873021 -5.26995336258551e-014
    vertex -70.8886877541194 -226.475990741576 1.99999999999994
    vertex -72.182782979632 -226.305619873021 1.99999999999995
  endloop
endfacet
facet normal 0.991444861373828 0.13052619221992 -2.72303190696865e-015
  outer loop
    vertex -66.0590586226732 -220.181895516064 -8.44636360852746e-014
    vertex -65.8886877541187 -221.475990741576 1.99999999999992
    vertex -65.8886877541187 -221.475990741576 -8.15759904071456e-014
  endloop
endfacet
facet normal 0.991444861373828 0.13052619221992 -2.72303190696865e-015
  outer loop
    vertex -65.8886877541187 -221.475990741576 1.99999999999992
    vertex -66.0590586226732 -220.181895516064 -8.44636360852746e-014
    vertex -66.0590586226732 -220.181895516064 1.99999999999991
  endloop
endfacet
facet normal -0.923879532511233 0.382683432365221 1.06846430215877e-015
  outer loop
    vertex -75.2188147730406 -218.975990741575 1.99999999999993
    vertex -75.718316885564 -220.181895516062 -6.13624706602422e-014
    vertex -75.718316885564 -220.181895516062 1.99999999999994
  endloop
endfacet
facet normal -0.923879532511233 0.382683432365221 1.06846430215877e-015
  outer loop
    vertex -75.718316885564 -220.181895516062 -6.13624706602422e-014
    vertex -75.2188147730406 -218.975990741575 1.99999999999993
    vertex -75.2188147730406 -218.975990741575 -6.71377620165003e-014
  endloop
endfacet
facet normal 0.608761429008601 -0.793353340291327 8.72397449556042e-016
  outer loop
    vertex -67.3531538481865 -225.011524647509 1.99999999999993
    vertex -68.3886877541193 -225.806117760498 -6.42501163383713e-014
    vertex -67.3531538481865 -225.011524647509 -6.71377620165003e-014
  endloop
endfacet
facet normal 0.608761429008601 -0.793353340291327 8.72397449556042e-016
  outer loop
    vertex -68.3886877541193 -225.806117760498 -6.42501163383713e-014
    vertex -67.3531538481865 -225.011524647509 1.99999999999993
    vertex -68.3886877541193 -225.806117760498 1.99999999999994
  endloop
endfacet
facet normal 0.793353340291152 -0.608761429008829 -1.0149167113383e-016
  outer loop
    vertex -66.5585607351969 -223.975990741576 -7.29130533727584e-014
    vertex -67.3531538481865 -225.011524647509 1.99999999999993
    vertex -67.3531538481865 -225.011524647509 -6.71377620165003e-014
  endloop
endfacet
facet normal 0.793353340291152 -0.608761429008829 -1.0149167113383e-016
  outer loop
    vertex -67.3531538481865 -225.011524647509 1.99999999999993
    vertex -66.5585607351969 -223.975990741576 -7.29130533727584e-014
    vertex -66.5585607351969 -223.975990741576 1.99999999999993
  endloop
endfacet
facet normal 0.923879532511239 -0.382683432365206 -1.06846430215883e-015
  outer loop
    vertex -66.0590586226736 -222.770085967089 -7.86883447290165e-014
    vertex -66.5585607351969 -223.975990741576 1.99999999999993
    vertex -66.5585607351969 -223.975990741576 -7.29130533727584e-014
  endloop
endfacet
facet normal 0.923879532511239 -0.382683432365206 -1.06846430215883e-015
  outer loop
    vertex -66.5585607351969 -223.975990741576 1.99999999999993
    vertex -66.0590586226736 -222.770085967089 -7.86883447290165e-014
    vertex -66.0590586226736 -222.770085967089 1.99999999999992
  endloop
endfacet
facet normal -0.608761429008854 -0.793353340291133 3.7494569824759e-015
  outer loop
    vertex -69.6512508870422 -220.238553874499 1.99999999999993
    vertex -70.0136877541186 -219.960446284953 -7.00254076946294e-014
    vertex -69.6512508870422 -220.238553874499 -7.00254076946294e-014
  endloop
endfacet
facet normal -0.608761429008854 -0.793353340291133 3.7494569824759e-015
  outer loop
    vertex -70.0136877541186 -219.960446284953 -7.00254076946294e-014
    vertex -69.6512508870422 -220.238553874499 1.99999999999993
    vertex -70.0136877541186 -219.960446284953 1.99999999999993
  endloop
endfacet
facet normal -0.923879532511326 -0.382683432364996 3.29787083278805e-015
  outer loop
    vertex -69.3731432974959 -220.600990741576 1.99999999999993
    vertex -69.1983175581129 -221.023057412646 -7.00254076946294e-014
    vertex -69.1983175581129 -221.023057412646 1.99999999999993
  endloop
endfacet
facet normal -0.923879532511326 -0.382683432364996 3.29787083278805e-015
  outer loop
    vertex -69.1983175581129 -221.023057412646 -7.00254076946294e-014
    vertex -69.3731432974959 -220.600990741576 1.99999999999993
    vertex -69.3731432974959 -220.600990741576 -7.00254076946294e-014
  endloop
endfacet
facet normal -0.793353340291157 0.608761429008823 1.01491671133856e-016
  outer loop
    vertex -74.424221660051 -217.940456835642 1.99999999999993
    vertex -75.2188147730406 -218.975990741575 -6.71377620165003e-014
    vertex -75.2188147730406 -218.975990741575 1.99999999999993
  endloop
endfacet
facet normal -0.793353340291157 0.608761429008823 1.01491671133856e-016
  outer loop
    vertex -75.2188147730406 -218.975990741575 -6.71377620165003e-014
    vertex -74.424221660051 -217.940456835642 1.99999999999993
    vertex -74.424221660051 -217.940456835642 -7.29130533727584e-014
  endloop
endfacet
facet normal -0.99144486137383 -0.130526192219904 2.72303190696861e-015
  outer loop
    vertex -69.1983175581129 -221.023057412646 1.99999999999993
    vertex -69.1386877541188 -221.475990741576 -7.00254076946294e-014
    vertex -69.1386877541188 -221.475990741576 1.99999999999993
  endloop
endfacet
facet normal -0.99144486137383 -0.130526192219904 2.72303190696861e-015
  outer loop
    vertex -69.1386877541188 -221.475990741576 -7.00254076946294e-014
    vertex -69.1983175581129 -221.023057412646 1.99999999999993
    vertex -69.1983175581129 -221.023057412646 -7.00254076946294e-014
  endloop
endfacet
facet normal 0.130526192219913 -0.991444861373829 2.57950100918328e-015
  outer loop
    vertex -69.5945925286068 -226.305619873021 1.99999999999994
    vertex -70.8886877541194 -226.475990741576 -5.55871793039842e-014
    vertex -69.5945925286068 -226.305619873021 -5.84748249821132e-014
  endloop
endfacet
facet normal 0.130526192219913 -0.991444861373829 2.57950100918328e-015
  outer loop
    vertex -70.8886877541194 -226.475990741576 -5.55871793039842e-014
    vertex -69.5945925286068 -226.305619873021 1.99999999999994
    vertex -70.8886877541194 -226.475990741576 1.99999999999994
  endloop
endfacet
facet normal 2.36304354696491e-015 2.91286000657332e-015 1.0
  outer loop
    vertex -75.7183168855643 -222.770085967087 1.99999999999994
    vertex -75.718316885564 -220.181895516062 1.99999999999994
    vertex -75.8886877541188 -221.475990741575 1.99999999999994
  endloop
endfacet
facet normal 2.36304354696491e-015 2.91286000657332e-015 1.0
  outer loop
    vertex -75.718316885564 -220.181895516062 1.99999999999994
    vertex -75.7183168855643 -222.770085967087 1.99999999999994
    vertex -75.2188147730413 -223.975990741575 1.99999999999995
  endloop
endfacet
facet normal 2.36304354696491e-015 2.91286000657332e-015 1.0
  outer loop
    vertex -75.718316885564 -220.181895516062 1.99999999999994
    vertex -75.2188147730413 -223.975990741575 1.99999999999995
    vertex -75.2188147730406 -218.975990741575 1.99999999999993
  endloop
endfacet
facet normal 2.36304354696491e-015 2.91286000657332e-015 1.0
  outer loop
    vertex -75.2188147730406 -218.975990741575 1.99999999999993
    vertex -75.2188147730413 -223.975990741575 1.99999999999995
    vertex -74.424221660052 -225.011524647508 1.99999999999995
  endloop
endfacet
facet normal 2.36304354696491e-015 2.91286000657332e-015 1.0
  outer loop
    vertex -75.2188147730406 -218.975990741575 1.99999999999993
    vertex -74.424221660052 -225.011524647508 1.99999999999995
    vertex -74.424221660051 -217.940456835642 1.99999999999993
  endloop
endfacet
facet normal 2.36304354696491e-015 2.91286000657332e-015 1.0
  outer loop
    vertex -74.424221660051 -217.940456835642 1.99999999999993
    vertex -74.424221660052 -225.011524647508 1.99999999999995
    vertex -73.3886877541193 -225.806117760497 1.99999999999995
  endloop
endfacet
facet normal 2.36304354696491e-015 2.91286000657332e-015 1.0
  outer loop
    vertex -74.424221660051 -217.940456835642 1.99999999999993
    vertex -73.3886877541193 -225.806117760497 1.99999999999995
    vertex -73.3886877541182 -217.145863722653 1.99999999999993
  endloop
endfacet
facet normal 2.36304354696491e-015 2.91286000657332e-015 1.0
  outer loop
    vertex -73.3886877541182 -217.145863722653 1.99999999999993
    vertex -73.3886877541193 -225.806117760497 1.99999999999995
    vertex -72.182782979632 -226.305619873021 1.99999999999995
  endloop
endfacet
facet normal 2.36304354696491e-015 2.91286000657332e-015 1.0
  outer loop
    vertex -73.3886877541182 -217.145863722653 1.99999999999993
    vertex -72.182782979632 -226.305619873021 1.99999999999995
    vertex -72.6386877541187 -221.475990741575 1.99999999999993
  endloop
endfacet
facet normal 2.36304354696491e-015 2.91286000657332e-015 1.0
  outer loop
    vertex -72.6386877541187 -221.475990741575 1.99999999999993
    vertex -72.182782979632 -226.305619873021 1.99999999999995
    vertex -72.5790579501246 -221.928924070505 1.99999999999993
  endloop
endfacet
facet normal 2.36304354696491e-015 2.91286000657332e-015 1.0
  outer loop
    vertex -72.5790579501246 -221.928924070505 1.99999999999993
    vertex -72.182782979632 -226.305619873021 1.99999999999995
    vertex -72.4042322107416 -222.350990741575 1.99999999999993
  endloop
endfacet
facet normal 2.36304354696491e-015 2.91286000657332e-015 1.0
  outer loop
    vertex -72.4042322107416 -222.350990741575 1.99999999999993
    vertex -72.182782979632 -226.305619873021 1.99999999999995
    vertex -72.1261246211953 -222.713427608652 1.99999999999993
  endloop
endfacet
facet normal 2.36304354696491e-015 2.91286000657332e-015 1.0
  outer loop
    vertex -72.1261246211953 -222.713427608652 1.99999999999993
    vertex -72.182782979632 -226.305619873021 1.99999999999995
    vertex -70.8886877541194 -226.475990741576 1.99999999999994
  endloop
endfacet
facet normal 2.36304354696491e-015 2.91286000657332e-015 1.0
  outer loop
    vertex -72.1261246211953 -222.713427608652 1.99999999999993
    vertex -70.8886877541194 -226.475990741576 1.99999999999994
    vertex -71.7636877541189 -222.991535198198 1.99999999999993
  endloop
endfacet
facet normal 2.36304354696491e-015 2.91286000657332e-015 1.0
  outer loop
    vertex -71.7636877541189 -222.991535198198 1.99999999999993
    vertex -70.8886877541194 -226.475990741576 1.99999999999994
    vertex -71.3416210830484 -223.166360937581 1.99999999999993
  endloop
endfacet
facet normal 2.36304354696491e-015 2.91286000657332e-015 1.0
  outer loop
    vertex -71.3416210830484 -223.166360937581 1.99999999999993
    vertex -70.8886877541194 -226.475990741576 1.99999999999994
    vertex -70.888687754119 -223.225990741575 1.99999999999994
  endloop
endfacet
facet normal 2.36304354696491e-015 2.91286000657332e-015 1.0
  outer loop
    vertex -70.888687754119 -223.225990741575 1.99999999999994
    vertex -70.8886877541194 -226.475990741576 1.99999999999994
    vertex -69.5945925286068 -226.305619873021 1.99999999999994
  endloop
endfacet
facet normal 2.36304354696491e-015 2.91286000657332e-015 1.0
  outer loop
    vertex -70.888687754119 -223.225990741575 1.99999999999994
    vertex -69.5945925286068 -226.305619873021 1.99999999999994
    vertex -70.4357544251896 -223.166360937581 1.99999999999993
  endloop
endfacet
facet normal 2.36304354696491e-015 2.91286000657332e-015 1.0
  outer loop
    vertex -70.4357544251896 -223.166360937581 1.99999999999993
    vertex -69.5945925286068 -226.305619873021 1.99999999999994
    vertex -70.013687754119 -222.991535198198 1.99999999999993
  endloop
endfacet
facet normal 2.36304354696491e-015 2.91286000657332e-015 1.0
  outer loop
    vertex -70.013687754119 -222.991535198198 1.99999999999993
    vertex -69.5945925286068 -226.305619873021 1.99999999999994
    vertex -69.6512508870425 -222.713427608652 1.99999999999993
  endloop
endfacet
facet normal 2.36304354696491e-015 2.91286000657332e-015 1.0
  outer loop
    vertex -69.6512508870425 -222.713427608652 1.99999999999993
    vertex -69.5945925286068 -226.305619873021 1.99999999999994
    vertex -69.3731432974962 -222.350990741576 1.99999999999993
  endloop
endfacet
facet normal 2.36304354696491e-015 2.91286000657332e-015 1.0
  outer loop
    vertex -69.3731432974962 -222.350990741576 1.99999999999993
    vertex -69.5945925286068 -226.305619873021 1.99999999999994
    vertex -68.3886877541193 -225.806117760498 1.99999999999994
  endloop
endfacet
facet normal 2.36304354696491e-015 2.91286000657332e-015 1.0
  outer loop
    vertex -69.3731432974962 -222.350990741576 1.99999999999993
    vertex -68.3886877541193 -225.806117760498 1.99999999999994
    vertex -69.198317558113 -221.928924070505 1.99999999999993
  endloop
endfacet
facet normal 2.36304354696491e-015 2.91286000657332e-015 1.0
  outer loop
    vertex -69.198317558113 -221.928924070505 1.99999999999993
    vertex -68.3886877541193 -225.806117760498 1.99999999999994
    vertex -69.1386877541188 -221.475990741576 1.99999999999993
  endloop
endfacet
facet normal 2.36304354696491e-015 2.91286000657332e-015 1.0
  outer loop
    vertex -72.6386877541187 -221.475990741575 1.99999999999993
    vertex -72.1827829796307 -216.64636161013 1.99999999999992
    vertex -73.3886877541182 -217.145863722653 1.99999999999993
  endloop
endfacet
facet normal 2.36304354696491e-015 2.91286000657332e-015 1.0
  outer loop
    vertex -72.1827829796307 -216.64636161013 1.99999999999992
    vertex -72.6386877541187 -221.475990741575 1.99999999999993
    vertex -72.5790579501245 -221.023057412646 1.99999999999993
  endloop
endfacet
facet normal 2.36304354696491e-015 2.91286000657332e-015 1.0
  outer loop
    vertex -72.1827829796307 -216.64636161013 1.99999999999992
    vertex -72.5790579501245 -221.023057412646 1.99999999999993
    vertex -72.4042322107414 -220.600990741575 1.99999999999993
  endloop
endfacet
facet normal 2.36304354696491e-015 2.91286000657332e-015 1.0
  outer loop
    vertex -72.1827829796307 -216.64636161013 1.99999999999992
    vertex -72.4042322107414 -220.600990741575 1.99999999999993
    vertex -72.126124621195 -220.238553874499 1.99999999999993
  endloop
endfacet
facet normal 2.36304354696491e-015 2.91286000657332e-015 1.0
  outer loop
    vertex -72.1827829796307 -216.64636161013 1.99999999999992
    vertex -72.126124621195 -220.238553874499 1.99999999999993
    vertex -70.8886877541181 -216.475990741575 1.99999999999991
  endloop
endfacet
facet normal 2.36304354696491e-015 2.91286000657332e-015 1.0
  outer loop
    vertex -70.8886877541181 -216.475990741575 1.99999999999991
    vertex -72.126124621195 -220.238553874499 1.99999999999993
    vertex -71.7636877541185 -219.960446284953 1.99999999999993
  endloop
endfacet
facet normal 2.36304354696491e-015 2.91286000657332e-015 1.0
  outer loop
    vertex -70.8886877541181 -216.475990741575 1.99999999999991
    vertex -71.7636877541185 -219.960446284953 1.99999999999993
    vertex -71.3416210830479 -219.78562054557 1.99999999999993
  endloop
endfacet
facet normal 2.36304354696491e-015 2.91286000657332e-015 1.0
  outer loop
    vertex -70.8886877541181 -216.475990741575 1.99999999999991
    vertex -71.3416210830479 -219.78562054557 1.99999999999993
    vertex -70.888687754119 -219.725990741576 1.99999999999991
  endloop
endfacet
facet normal 2.36304354696491e-015 2.91286000657332e-015 1.0
  outer loop
    vertex -70.8886877541181 -216.475990741575 1.99999999999991
    vertex -70.888687754119 -219.725990741576 1.99999999999991
    vertex -70.4357544251891 -219.78562054557 1.99999999999993
  endloop
endfacet
facet normal 2.36304354696491e-015 2.91286000657332e-015 1.0
  outer loop
    vertex -70.8886877541181 -216.475990741575 1.99999999999991
    vertex -70.4357544251891 -219.78562054557 1.99999999999993
    vertex -69.5945925286055 -216.64636161013 1.99999999999991
  endloop
endfacet
facet normal 2.36304354696491e-015 2.91286000657332e-015 1.0
  outer loop
    vertex -69.5945925286055 -216.64636161013 1.99999999999991
    vertex -70.4357544251891 -219.78562054557 1.99999999999993
    vertex -70.0136877541186 -219.960446284953 1.99999999999993
  endloop
endfacet
facet normal 2.36304354696491e-015 2.91286000657332e-015 1.0
  outer loop
    vertex -69.5945925286055 -216.64636161013 1.99999999999991
    vertex -70.0136877541186 -219.960446284953 1.99999999999993
    vertex -69.6512508870422 -220.238553874499 1.99999999999993
  endloop
endfacet
facet normal 2.36304354696491e-015 2.91286000657332e-015 1.0
  outer loop
    vertex -69.5945925286055 -216.64636161013 1.99999999999991
    vertex -69.6512508870422 -220.238553874499 1.99999999999993
    vertex -69.3731432974959 -220.600990741576 1.99999999999993
  endloop
endfacet
facet normal 2.36304354696491e-015 2.91286000657332e-015 1.0
  outer loop
    vertex -69.5945925286055 -216.64636161013 1.99999999999991
    vertex -69.3731432974959 -220.600990741576 1.99999999999993
    vertex -68.3886877541182 -217.145863722654 1.99999999999991
  endloop
endfacet
facet normal 2.36304354696491e-015 2.91286000657332e-015 1.0
  outer loop
    vertex -68.3886877541182 -217.145863722654 1.99999999999991
    vertex -69.3731432974959 -220.600990741576 1.99999999999993
    vertex -69.1983175581129 -221.023057412646 1.99999999999993
  endloop
endfacet
facet normal 2.36304354696491e-015 2.91286000657332e-015 1.0
  outer loop
    vertex -68.3886877541182 -217.145863722654 1.99999999999991
    vertex -69.1983175581129 -221.023057412646 1.99999999999993
    vertex -69.1386877541188 -221.475990741576 1.99999999999993
  endloop
endfacet
facet normal 2.36304354696491e-015 2.91286000657332e-015 1.0
  outer loop
    vertex -68.3886877541182 -217.145863722654 1.99999999999991
    vertex -69.1386877541188 -221.475990741576 1.99999999999993
    vertex -68.3886877541193 -225.806117760498 1.99999999999994
  endloop
endfacet
facet normal 2.36304354696491e-015 2.91286000657332e-015 1.0
  outer loop
    vertex -68.3886877541182 -217.145863722654 1.99999999999991
    vertex -68.3886877541193 -225.806117760498 1.99999999999994
    vertex -67.3531538481865 -225.011524647509 1.99999999999993
  endloop
endfacet
facet normal 2.36304354696491e-015 2.91286000657332e-015 1.0
  outer loop
    vertex -68.3886877541182 -217.145863722654 1.99999999999991
    vertex -67.3531538481865 -225.011524647509 1.99999999999993
    vertex -67.3531538481855 -217.940456835643 1.99999999999991
  endloop
endfacet
facet normal 2.36304354696491e-015 2.91286000657332e-015 1.0
  outer loop
    vertex -67.3531538481855 -217.940456835643 1.99999999999991
    vertex -67.3531538481865 -225.011524647509 1.99999999999993
    vertex -66.5585607351969 -223.975990741576 1.99999999999993
  endloop
endfacet
facet normal 2.36304354696491e-015 2.91286000657332e-015 1.0
  outer loop
    vertex -67.3531538481855 -217.940456835643 1.99999999999991
    vertex -66.5585607351969 -223.975990741576 1.99999999999993
    vertex -66.5585607351962 -218.975990741576 1.99999999999991
  endloop
endfacet
facet normal 2.36304354696491e-015 2.91286000657332e-015 1.0
  outer loop
    vertex -66.5585607351962 -218.975990741576 1.99999999999991
    vertex -66.5585607351969 -223.975990741576 1.99999999999993
    vertex -66.0590586226736 -222.770085967089 1.99999999999992
  endloop
endfacet
facet normal 2.36304354696491e-015 2.91286000657332e-015 1.0
  outer loop
    vertex -66.5585607351962 -218.975990741576 1.99999999999991
    vertex -66.0590586226736 -222.770085967089 1.99999999999992
    vertex -66.0590586226732 -220.181895516064 1.99999999999991
  endloop
endfacet
facet normal 2.36304354696491e-015 2.91286000657332e-015 1.0
  outer loop
    vertex -66.0590586226732 -220.181895516064 1.99999999999991
    vertex -66.0590586226736 -222.770085967089 1.99999999999992
    vertex -65.8886877541187 -221.475990741576 1.99999999999992
  endloop
endfacet
facet normal 0.130526192220023 -0.991444861373814 2.57950100918298e-015
  outer loop
    vertex -70.888687754119 -219.725990741576 1.99999999999991
    vertex -71.3416210830479 -219.78562054557 -7.00254076946294e-014
    vertex -70.888687754119 -219.725990741576 -9.31265731196618e-014
  endloop
endfacet
facet normal 0.130526192220023 -0.991444861373814 2.57950100918298e-015
  outer loop
    vertex -71.3416210830479 -219.78562054557 -7.00254076946294e-014
    vertex -70.888687754119 -219.725990741576 1.99999999999991
    vertex -71.3416210830479 -219.78562054557 1.99999999999993
  endloop
endfacet
facet normal 0.608761429008834 0.793353340291148 -3.7494569824759e-015
  outer loop
    vertex -68.3886877541182 -217.145863722654 -8.73512817634037e-014
    vertex -67.3531538481855 -217.940456835643 1.99999999999991
    vertex -67.3531538481855 -217.940456835643 -9.02389274415327e-014
  endloop
endfacet
facet normal 0.608761429008834 0.793353340291148 -3.7494569824759e-015
  outer loop
    vertex -67.3531538481855 -217.940456835643 1.99999999999991
    vertex -68.3886877541182 -217.145863722654 -8.73512817634037e-014
    vertex -68.3886877541182 -217.145863722654 1.99999999999991
  endloop
endfacet
facet normal -0.991444861373792 0.130526192220191 1.96262285671237e-015
  outer loop
    vertex -69.1386877541188 -221.475990741576 1.99999999999993
    vertex -69.198317558113 -221.928924070505 -7.00254076946294e-014
    vertex -69.198317558113 -221.928924070505 1.99999999999993
  endloop
endfacet
facet normal -0.991444861373792 0.130526192220191 1.96262285671237e-015
  outer loop
    vertex -69.198317558113 -221.928924070505 -7.00254076946294e-014
    vertex -69.1386877541188 -221.475990741576 1.99999999999993
    vertex -69.1386877541188 -221.475990741576 -7.00254076946294e-014
  endloop
endfacet
facet normal -0.923879532511245 0.382683432365191 1.06846430215889e-015
  outer loop
    vertex -69.198317558113 -221.928924070505 1.99999999999993
    vertex -69.3731432974962 -222.350990741576 -7.00254076946294e-014
    vertex -69.3731432974962 -222.350990741576 1.99999999999993
  endloop
endfacet
facet normal -0.923879532511245 0.382683432365191 1.06846430215889e-015
  outer loop
    vertex -69.3731432974962 -222.350990741576 -7.00254076946294e-014
    vertex -69.198317558113 -221.928924070505 1.99999999999993
    vertex -69.198317558113 -221.928924070505 -7.00254076946294e-014
  endloop
endfacet
facet normal -0.130526192219886 0.991444861373832 -2.57950100918336e-015
  outer loop
    vertex -70.888687754119 -223.225990741575 -5.84748249821132e-014
    vertex -70.4357544251896 -223.166360937581 1.99999999999993
    vertex -70.4357544251896 -223.166360937581 -7.00254076946294e-014
  endloop
endfacet
facet normal -0.130526192219886 0.991444861373832 -2.57950100918336e-015
  outer loop
    vertex -70.4357544251896 -223.166360937581 1.99999999999993
    vertex -70.888687754119 -223.225990741575 -5.84748249821132e-014
    vertex -70.888687754119 -223.225990741575 1.99999999999994
  endloop
endfacet
facet normal -0.608761429008629 0.793353340291306 -8.72397449555915e-016
  outer loop
    vertex -70.013687754119 -222.991535198198 1.99999999999993
    vertex -69.6512508870425 -222.713427608652 -7.00254076946294e-014
    vertex -70.013687754119 -222.991535198198 -7.00254076946294e-014
  endloop
endfacet
facet normal -0.608761429008629 0.793353340291306 -8.72397449555915e-016
  outer loop
    vertex -69.6512508870425 -222.713427608652 -7.00254076946294e-014
    vertex -70.013687754119 -222.991535198198 1.99999999999993
    vertex -69.6512508870425 -222.713427608652 1.99999999999993
  endloop
endfacet
facet normal 0.130526192220184 0.991444861373793 -3.19637916165416e-015
  outer loop
    vertex -71.3416210830484 -223.166360937581 1.99999999999993
    vertex -70.888687754119 -223.225990741575 -5.84748249821132e-014
    vertex -71.3416210830484 -223.166360937581 -7.00254076946294e-014
  endloop
endfacet
facet normal 0.130526192220184 0.991444861373793 -3.19637916165416e-015
  outer loop
    vertex -70.888687754119 -223.225990741575 -5.84748249821132e-014
    vertex -71.3416210830484 -223.166360937581 1.99999999999993
    vertex -70.888687754119 -223.225990741575 1.99999999999994
  endloop
endfacet
facet normal 0.382683432365208 0.923879532511238 -3.59542935652463e-015
  outer loop
    vertex -71.7636877541189 -222.991535198198 1.99999999999993
    vertex -71.3416210830484 -223.166360937581 -7.00254076946294e-014
    vertex -71.7636877541189 -222.991535198198 -7.00254076946294e-014
  endloop
endfacet
facet normal 0.382683432365208 0.923879532511238 -3.59542935652463e-015
  outer loop
    vertex -71.3416210830484 -223.166360937581 -7.00254076946294e-014
    vertex -71.7636877541189 -222.991535198198 1.99999999999993
    vertex -71.3416210830484 -223.166360937581 1.99999999999993
  endloop
endfacet
facet normal -0.382683432365 0.923879532511324 -1.78683412576339e-015
  outer loop
    vertex -70.4357544251896 -223.166360937581 1.99999999999993
    vertex -70.013687754119 -222.991535198198 -7.00254076946294e-014
    vertex -70.4357544251896 -223.166360937581 -7.00254076946294e-014
  endloop
endfacet
facet normal -0.382683432365 0.923879532511324 -1.78683412576339e-015
  outer loop
    vertex -70.013687754119 -222.991535198198 -7.00254076946294e-014
    vertex -70.4357544251896 -223.166360937581 1.99999999999993
    vertex -70.013687754119 -222.991535198198 1.99999999999993
  endloop
endfacet
facet normal 0.608761429008854 0.793353340291133 -3.7494569824759e-015
  outer loop
    vertex -72.1261246211953 -222.713427608652 1.99999999999993
    vertex -71.7636877541189 -222.991535198198 -7.00254076946294e-014
    vertex -72.1261246211953 -222.713427608652 -7.00254076946294e-014
  endloop
endfacet
facet normal 0.608761429008854 0.793353340291133 -3.7494569824759e-015
  outer loop
    vertex -71.7636877541189 -222.991535198198 -7.00254076946294e-014
    vertex -72.1261246211953 -222.713427608652 1.99999999999993
    vertex -71.7636877541189 -222.991535198198 1.99999999999993
  endloop
endfacet
facet normal -0.793353340291139 0.608761429008846 1.01491671133746e-016
  outer loop
    vertex -69.3731432974962 -222.350990741576 1.99999999999993
    vertex -69.6512508870425 -222.713427608652 -7.00254076946294e-014
    vertex -69.6512508870425 -222.713427608652 1.99999999999993
  endloop
endfacet
facet normal -0.793353340291139 0.608761429008846 1.01491671133746e-016
  outer loop
    vertex -69.6512508870425 -222.713427608652 -7.00254076946294e-014
    vertex -69.3731432974962 -222.350990741576 1.99999999999993
    vertex -69.3731432974962 -222.350990741576 -7.00254076946294e-014
  endloop
endfacet
facet normal 0.793353340291139 -0.608761429008846 -1.01491671133746e-016
  outer loop
    vertex -72.126124621195 -220.238553874499 -7.00254076946294e-014
    vertex -72.4042322107414 -220.600990741575 1.99999999999993
    vertex -72.4042322107414 -220.600990741575 -7.00254076946294e-014
  endloop
endfacet
facet normal 0.793353340291139 -0.608761429008846 -1.01491671133746e-016
  outer loop
    vertex -72.4042322107414 -220.600990741575 1.99999999999993
    vertex -72.126124621195 -220.238553874499 -7.00254076946294e-014
    vertex -72.126124621195 -220.238553874499 1.99999999999993
  endloop
endfacet
facet normal 0.991444861373792 -0.130526192220191 -1.96262285671237e-015
  outer loop
    vertex -72.5790579501245 -221.023057412646 -7.00254076946294e-014
    vertex -72.6386877541187 -221.475990741575 1.99999999999993
    vertex -72.6386877541187 -221.475990741575 -7.00254076946294e-014
  endloop
endfacet
facet normal 0.991444861373792 -0.130526192220191 -1.96262285671237e-015
  outer loop
    vertex -72.6386877541187 -221.475990741575 1.99999999999993
    vertex -72.5790579501245 -221.023057412646 -7.00254076946294e-014
    vertex -72.5790579501245 -221.023057412646 1.99999999999993
  endloop
endfacet
facet normal 0.923879532511245 -0.382683432365191 -1.06846430215889e-015
  outer loop
    vertex -72.4042322107414 -220.600990741575 -7.00254076946294e-014
    vertex -72.5790579501245 -221.023057412646 1.99999999999993
    vertex -72.5790579501245 -221.023057412646 -7.00254076946294e-014
  endloop
endfacet
facet normal 0.923879532511245 -0.382683432365191 -1.06846430215889e-015
  outer loop
    vertex -72.5790579501245 -221.023057412646 1.99999999999993
    vertex -72.4042322107414 -220.600990741575 -7.00254076946294e-014
    vertex -72.4042322107414 -220.600990741575 1.99999999999993
  endloop
endfacet
facet normal 0.608761429008629 -0.793353340291306 8.72397449555915e-016
  outer loop
    vertex -71.7636877541185 -219.960446284953 1.99999999999993
    vertex -72.126124621195 -220.238553874499 -7.00254076946294e-014
    vertex -71.7636877541185 -219.960446284953 -7.00254076946294e-014
  endloop
endfacet
facet normal 0.608761429008629 -0.793353340291306 8.72397449555915e-016
  outer loop
    vertex -72.126124621195 -220.238553874499 -7.00254076946294e-014
    vertex -71.7636877541185 -219.960446284953 1.99999999999993
    vertex -72.126124621195 -220.238553874499 1.99999999999993
  endloop
endfacet
facet normal 0.923879532511334 0.382683432364975 -3.29787083278801e-015
  outer loop
    vertex -72.5790579501246 -221.928924070505 -7.00254076946294e-014
    vertex -72.4042322107416 -222.350990741575 1.99999999999993
    vertex -72.4042322107416 -222.350990741575 -7.00254076946294e-014
  endloop
endfacet
facet normal 0.923879532511334 0.382683432364975 -3.29787083278801e-015
  outer loop
    vertex -72.4042322107416 -222.350990741575 1.99999999999993
    vertex -72.5790579501246 -221.928924070505 -7.00254076946294e-014
    vertex -72.5790579501246 -221.928924070505 1.99999999999993
  endloop
endfacet
facet normal 0.793353340291311 0.608761429008621 -3.64796531134208e-015
  outer loop
    vertex -72.4042322107416 -222.350990741575 -7.00254076946294e-014
    vertex -72.1261246211953 -222.713427608652 1.99999999999993
    vertex -72.1261246211953 -222.713427608652 -7.00254076946294e-014
  endloop
endfacet
facet normal 0.793353340291311 0.608761429008621 -3.64796531134208e-015
  outer loop
    vertex -72.1261246211953 -222.713427608652 1.99999999999993
    vertex -72.4042322107416 -222.350990741575 -7.00254076946294e-014
    vertex -72.4042322107416 -222.350990741575 1.99999999999993
  endloop
endfacet
facet normal 0.382683432365 -0.923879532511324 1.78683412576339e-015
  outer loop
    vertex -71.3416210830479 -219.78562054557 1.99999999999993
    vertex -71.7636877541185 -219.960446284953 -7.00254076946294e-014
    vertex -71.3416210830479 -219.78562054557 -7.00254076946294e-014
  endloop
endfacet
facet normal 0.382683432365 -0.923879532511324 1.78683412576339e-015
  outer loop
    vertex -71.7636877541185 -219.960446284953 -7.00254076946294e-014
    vertex -71.3416210830479 -219.78562054557 1.99999999999993
    vertex -71.7636877541185 -219.960446284953 1.99999999999993
  endloop
endfacet
facet normal 0.991444861373827 0.130526192219929 -2.72303190696868e-015
  outer loop
    vertex -72.6386877541187 -221.475990741575 -7.00254076946294e-014
    vertex -72.5790579501246 -221.928924070505 1.99999999999993
    vertex -72.5790579501246 -221.928924070505 -7.00254076946294e-014
  endloop
endfacet
facet normal 0.991444861373827 0.130526192219929 -2.72303190696868e-015
  outer loop
    vertex -72.5790579501246 -221.928924070505 1.99999999999993
    vertex -72.6386877541187 -221.475990741575 -7.00254076946294e-014
    vertex -72.6386877541187 -221.475990741575 1.99999999999993
  endloop
endfacet
endsolid Omnidroid
