solid Omnidroid
facet normal -1.0 1.13814485840157e-011 -4.24772518420666e-012
  outer loop
    vertex -74.1386877540835 -406.070370568519 19.5000000000852
    vertex -74.1386877541486 -405.393117814213 15.306168465869
    vertex -74.1386877540693 -406.07037056861 16.0784272242
  endloop
endfacet
facet normal -1.0 1.13814485840157e-011 -4.24772518420666e-012
  outer loop
    vertex -74.1386877541486 -405.393117814213 15.306168465869
    vertex -74.1386877540835 -406.070370568519 19.5000000000852
    vertex -74.1386877540835 -396.070370568519 19.5000000000852
  endloop
endfacet
facet normal -1.0 1.13814485840157e-011 -4.24772518420666e-012
  outer loop
    vertex -74.1386877541486 -405.393117814213 15.306168465869
    vertex -74.1386877540835 -396.070370568519 19.5000000000852
    vertex -74.1386877541486 -404.381491873971 13.792163254041
  endloop
endfacet
facet normal -1.0 1.13814485840157e-011 -4.24772518420666e-012
  outer loop
    vertex -74.1386877541486 -404.381491873971 13.792163254041
    vertex -74.1386877540835 -396.070370568519 19.5000000000852
    vertex -74.1386877541486 -399.994602551199 16.3249349854483
  endloop
endfacet
facet normal -1.0 1.13814485840157e-011 -4.24772518420666e-012
  outer loop
    vertex -74.1386877541486 -399.994602551199 16.3249349854483
    vertex -74.1386877540835 -396.070370568519 19.5000000000852
    vertex -74.1386877540325 -399.094644210363 14.5000000000852
  endloop
endfacet
facet normal -1.0 1.13814485840157e-011 -4.24772518420666e-012
  outer loop
    vertex -74.1386877540325 -399.094644210363 14.5000000000852
    vertex -74.1386877540835 -396.070370568519 19.5000000000852
    vertex -74.1386877539164 -396.070370568682 14.5000000000852
  endloop
endfacet
facet normal 0.554700196225264 0.0 -0.83205029433782
  outer loop
    vertex -59.6386877539582 -396.070370568519 -11.5000000000526
    vertex -62.638687753958 -406.070370568519 -13.5000000000526
    vertex -62.638687753958 -396.070370568519 -13.5000000000526
  endloop
endfacet
facet normal 0.554700196225264 0.0 -0.83205029433782
  outer loop
    vertex -62.638687753958 -406.070370568519 -13.5000000000526
    vertex -59.6386877539582 -396.070370568519 -11.5000000000526
    vertex -59.6386877539582 -406.070370568519 -11.5000000000526
  endloop
endfacet
facet normal 1.3560384104494e-013 5.77529135625802e-016 -1.0
  outer loop
    vertex -47.1386877539582 -396.070370568519 -11.5000000000509
    vertex -59.6386877539582 -406.070370568519 -11.5000000000526
    vertex -59.6386877539582 -396.070370568519 -11.5000000000526
  endloop
endfacet
facet normal 1.3560384104494e-013 5.77529135625802e-016 -1.0
  outer loop
    vertex -59.6386877539582 -406.070370568519 -11.5000000000526
    vertex -47.1386877539582 -396.070370568519 -11.5000000000509
    vertex -47.1386877539582 -406.070370568519 -11.5000000000509
  endloop
endfacet
facet normal 0.0 0.0 1.0
  outer loop
    vertex -74.1386877540787 -406.070370568519 -10.5000000000515
    vertex -82.1386877541011 -396.070370568519 -10.5000000000515
    vertex -82.1386877541011 -406.070370568519 -10.5000000000515
  endloop
endfacet
facet normal 0.0 0.0 1.0
  outer loop
    vertex -82.1386877541011 -396.070370568519 -10.5000000000515
    vertex -74.1386877540787 -406.070370568519 -10.5000000000515
    vertex -74.1386877540787 -396.070370568519 -10.5000000000515
  endloop
endfacet
facet normal 0.382683432365103 0.0 0.923879532511282
  outer loop
    vertex -82.8886877541011 -406.070370568519 -9.2009618943748
    vertex -83.2504591864473 -396.070370568519 -9.05111126061786
    vertex -83.2504591864473 -406.070370568519 -9.05111126061786
  endloop
endfacet
facet normal 0.382683432365103 0.0 0.923879532511282
  outer loop
    vertex -83.2504591864473 -396.070370568519 -9.05111126061786
    vertex -82.8886877541011 -406.070370568519 -9.2009618943748
    vertex -82.8886877541011 -396.070370568519 -9.2009618943748
  endloop
endfacet
facet normal -0.923879532511293 0.0 0.382683432365074
  outer loop
    vertex -84.9377258597778 -396.070370568519 -9.75000000005146
    vertex -85.0875764935347 -406.070370568519 -10.1117714323977
    vertex -84.9377258597778 -406.070370568519 -9.75000000005146
  endloop
endfacet
facet normal -0.923879532511293 0.0 0.382683432365074
  outer loop
    vertex -85.0875764935347 -406.070370568519 -10.1117714323977
    vertex -84.9377258597778 -396.070370568519 -9.75000000005146
    vertex -85.0875764935347 -396.070370568519 -10.1117714323977
  endloop
endfacet
facet normal -0.99144486137381 0.0 0.130526192220056
  outer loop
    vertex -85.0875764935347 -396.070370568519 -10.1117714323977
    vertex -85.1386877541011 -406.070370568519 -10.5000000000515
    vertex -85.0875764935347 -406.070370568519 -10.1117714323977
  endloop
endfacet
facet normal -0.99144486137381 0.0 0.130526192220056
  outer loop
    vertex -85.1386877541011 -406.070370568519 -10.5000000000515
    vertex -85.0875764935347 -396.070370568519 -10.1117714323977
    vertex -85.1386877541011 -396.070370568519 -10.5000000000515
  endloop
endfacet
facet normal -0.130526192220058 0.0 0.99144486137381
  outer loop
    vertex -84.0269163217549 -406.070370568519 -9.05111126061786
    vertex -83.6386877541011 -396.070370568519 -9.00000000005146
    vertex -84.0269163217549 -396.070370568519 -9.05111126061786
  endloop
endfacet
facet normal -0.130526192220058 0.0 0.99144486137381
  outer loop
    vertex -83.6386877541011 -396.070370568519 -9.00000000005146
    vertex -84.0269163217549 -406.070370568519 -9.05111126061786
    vertex -83.6386877541011 -406.070370568519 -9.00000000005146
  endloop
endfacet
facet normal 0.923879532511293 0.0 0.382683432365074
  outer loop
    vertex -82.1897990146675 -396.070370568519 -10.1117714323977
    vertex -82.3396496484244 -406.070370568519 -9.75000000005146
    vertex -82.1897990146675 -406.070370568519 -10.1117714323977
  endloop
endfacet
facet normal 0.923879532511293 0.0 0.382683432365074
  outer loop
    vertex -82.3396496484244 -406.070370568519 -9.75000000005146
    vertex -82.1897990146675 -396.070370568519 -10.1117714323977
    vertex -82.3396496484244 -396.070370568519 -9.75000000005146
  endloop
endfacet
facet normal 0.608761429008714 0.0 0.79335334029124
  outer loop
    vertex -82.5780275823213 -406.070370568519 -9.43933982827164
    vertex -82.8886877541011 -396.070370568519 -9.2009618943748
    vertex -82.8886877541011 -406.070370568519 -9.2009618943748
  endloop
endfacet
facet normal 0.608761429008714 0.0 0.79335334029124
  outer loop
    vertex -82.8886877541011 -396.070370568519 -9.2009618943748
    vertex -82.5780275823213 -406.070370568519 -9.43933982827164
    vertex -82.5780275823213 -396.070370568519 -9.43933982827164
  endloop
endfacet
facet normal 0.99144486137381 0.0 0.130526192220056
  outer loop
    vertex -82.1386877541011 -396.070370568519 -10.5000000000515
    vertex -82.1897990146675 -406.070370568519 -10.1117714323977
    vertex -82.1386877541011 -406.070370568519 -10.5000000000515
  endloop
endfacet
facet normal 0.99144486137381 0.0 0.130526192220056
  outer loop
    vertex -82.1897990146675 -406.070370568519 -10.1117714323977
    vertex -82.1386877541011 -396.070370568519 -10.5000000000515
    vertex -82.1897990146675 -396.070370568519 -10.1117714323977
  endloop
endfacet
facet normal 0.793353340291235 0.0 0.608761429008721
  outer loop
    vertex -82.3396496484244 -396.070370568519 -9.75000000005146
    vertex -82.5780275823213 -406.070370568519 -9.43933982827164
    vertex -82.3396496484244 -406.070370568519 -9.75000000005146
  endloop
endfacet
facet normal 0.793353340291235 0.0 0.608761429008721
  outer loop
    vertex -82.5780275823213 -406.070370568519 -9.43933982827164
    vertex -82.3396496484244 -396.070370568519 -9.75000000005146
    vertex -82.5780275823213 -396.070370568519 -9.43933982827164
  endloop
endfacet
facet normal 0.130526192220052 -7.1078683145045e-031 0.99144486137381
  outer loop
    vertex -83.6386877541011 -406.070370568519 -9.00000000005146
    vertex -83.2504591864473 -396.070370568519 -9.05111126061786
    vertex -83.6386877541011 -396.070370568519 -9.00000000005146
  endloop
endfacet
facet normal 0.130526192220052 -7.1078683145045e-031 0.99144486137381
  outer loop
    vertex -83.2504591864473 -396.070370568519 -9.05111126061786
    vertex -83.6386877541011 -406.070370568519 -9.00000000005146
    vertex -83.2504591864473 -406.070370568519 -9.05111126061786
  endloop
endfacet
facet normal -1.0 4.17631812096913e-012 -1.01179223583861e-011
  outer loop
    vertex -74.1386877541486 -405.393117814213 -6.30616846556735
    vertex -74.1386877540787 -406.070370568519 -10.5000000000515
    vertex -74.1386877540672 -406.07037056861 -7.0784272238985
  endloop
endfacet
facet normal -1.0 4.17631812096913e-012 -1.01179223583861e-011
  outer loop
    vertex -74.1386877540787 -406.070370568519 -10.5000000000515
    vertex -74.1386877541486 -405.393117814213 -6.30616846556735
    vertex -74.1386877540787 -396.070370568519 -10.5000000000515
  endloop
endfacet
facet normal -1.0 4.17631812096913e-012 -1.01179223583861e-011
  outer loop
    vertex -74.1386877540787 -396.070370568519 -10.5000000000515
    vertex -74.1386877541486 -405.393117814213 -6.30616846556735
    vertex -74.1386877541486 -404.381491873971 -4.79216325373949
  endloop
endfacet
facet normal -1.0 4.17631812096913e-012 -1.01179223583861e-011
  outer loop
    vertex -74.1386877540787 -396.070370568519 -10.5000000000515
    vertex -74.1386877541486 -404.381491873971 -4.79216325373949
    vertex -74.1386877541486 -399.994602551199 -7.32493498514728
  endloop
endfacet
facet normal -1.0 4.17631812096913e-012 -1.01179223583861e-011
  outer loop
    vertex -74.1386877540787 -396.070370568519 -10.5000000000515
    vertex -74.1386877541486 -399.994602551199 -7.32493498514728
    vertex -74.1386877541137 -399.094644210494 -5.50000000005146
  endloop
endfacet
facet normal -1.0 4.17631812096913e-012 -1.01179223583861e-011
  outer loop
    vertex -74.1386877540787 -396.070370568519 -10.5000000000515
    vertex -74.1386877541137 -399.094644210494 -5.50000000005146
    vertex -74.1386877540787 -396.070370568519 -5.50000000005146
  endloop
endfacet
facet normal -1.0 0.0 0.0
  outer loop
    vertex -85.1386877541011 -396.070370568519 -10.5000000000515
    vertex -85.1386877541011 -406.070370568519 -13.5000000000515
    vertex -85.1386877541011 -406.070370568519 -10.5000000000515
  endloop
endfacet
facet normal -1.0 0.0 0.0
  outer loop
    vertex -85.1386877541011 -406.070370568519 -13.5000000000515
    vertex -85.1386877541011 -396.070370568519 -10.5000000000515
    vertex -85.1386877541011 -396.070370568519 -13.5000000000515
  endloop
endfacet
facet normal -0.382683432365082 0.0 0.92387953251129
  outer loop
    vertex -84.3886877541011 -406.070370568519 -9.2009618943748
    vertex -84.0269163217549 -396.070370568519 -9.05111126061786
    vertex -84.3886877541011 -396.070370568519 -9.2009618943748
  endloop
endfacet
facet normal -0.382683432365082 0.0 0.92387953251129
  outer loop
    vertex -84.0269163217549 -396.070370568519 -9.05111126061786
    vertex -84.3886877541011 -406.070370568519 -9.2009618943748
    vertex -84.0269163217549 -406.070370568519 -9.05111126061786
  endloop
endfacet
facet normal -0.608761429008722 3.31504045184185e-030 0.793353340291235
  outer loop
    vertex -84.3886877541011 -406.070370568519 -9.2009618943748
    vertex -84.6993479258809 -396.070370568519 -9.43933982827164
    vertex -84.6993479258809 -406.070370568519 -9.43933982827164
  endloop
endfacet
facet normal -0.608761429008722 3.31504045184185e-030 0.793353340291235
  outer loop
    vertex -84.6993479258809 -396.070370568519 -9.43933982827164
    vertex -84.3886877541011 -406.070370568519 -9.2009618943748
    vertex -84.3886877541011 -396.070370568519 -9.2009618943748
  endloop
endfacet
facet normal -0.793353340291235 0.0 0.608761429008721
  outer loop
    vertex -84.6993479258809 -396.070370568519 -9.43933982827164
    vertex -84.9377258597778 -406.070370568519 -9.75000000005146
    vertex -84.6993479258809 -406.070370568519 -9.43933982827164
  endloop
endfacet
facet normal -0.793353340291235 0.0 0.608761429008721
  outer loop
    vertex -84.9377258597778 -406.070370568519 -9.75000000005146
    vertex -84.6993479258809 -396.070370568519 -9.43933982827164
    vertex -84.9377258597778 -396.070370568519 -9.75000000005146
  endloop
endfacet
facet normal -1.34275524033001e-013 0.0 1.0
  outer loop
    vertex -47.1386877539625 -406.070370568519 20.5000000000859
    vertex -59.6386877539625 -396.070370568519 20.5000000000842
    vertex -59.6386877539625 -406.070370568519 20.5000000000842
  endloop
endfacet
facet normal -1.34275524033001e-013 0.0 1.0
  outer loop
    vertex -59.6386877539625 -396.070370568519 20.5000000000842
    vertex -47.1386877539625 -406.070370568519 20.5000000000859
    vertex -47.1386877539625 -396.070370568519 20.5000000000859
  endloop
endfacet
facet normal 0.554700196225196 0.0 0.832050294337866
  outer loop
    vertex -59.6386877539625 -406.070370568519 20.5000000000842
    vertex -62.6386877539628 -396.070370568519 22.5000000000842
    vertex -62.6386877539628 -406.070370568519 22.5000000000842
  endloop
endfacet
facet normal 0.554700196225196 0.0 0.832050294337866
  outer loop
    vertex -62.6386877539628 -396.070370568519 22.5000000000842
    vertex -59.6386877539625 -406.070370568519 20.5000000000842
    vertex -59.6386877539625 -396.070370568519 20.5000000000842
  endloop
endfacet
facet normal 0.382683432365094 0.0 -0.923879532511285
  outer loop
    vertex -82.8886877541059 -396.070370568519 18.2009618944086
    vertex -83.2504591864521 -406.070370568519 18.0511112606516
    vertex -83.2504591864521 -396.070370568519 18.0511112606516
  endloop
endfacet
facet normal 0.382683432365094 0.0 -0.923879532511285
  outer loop
    vertex -83.2504591864521 -406.070370568519 18.0511112606516
    vertex -82.8886877541059 -396.070370568519 18.2009618944086
    vertex -82.8886877541059 -406.070370568519 18.2009618944086
  endloop
endfacet
facet normal -0.923879532511293 0.0 -0.382683432365074
  outer loop
    vertex -85.0875764935395 -396.070370568519 19.1117714324315
    vertex -84.9377258597826 -406.070370568519 18.7500000000852
    vertex -85.0875764935395 -406.070370568519 19.1117714324314
  endloop
endfacet
facet normal -0.923879532511293 0.0 -0.382683432365074
  outer loop
    vertex -84.9377258597826 -406.070370568519 18.7500000000852
    vertex -85.0875764935395 -396.070370568519 19.1117714324315
    vertex -84.9377258597826 -396.070370568519 18.7500000000852
  endloop
endfacet
facet normal -0.99144486137381 0.0 -0.130526192220056
  outer loop
    vertex -85.1386877541059 -396.070370568519 19.5000000000852
    vertex -85.0875764935395 -406.070370568519 19.1117714324314
    vertex -85.1386877541059 -406.070370568519 19.5000000000852
  endloop
endfacet
facet normal -0.99144486137381 0.0 -0.130526192220056
  outer loop
    vertex -85.0875764935395 -406.070370568519 19.1117714324314
    vertex -85.1386877541059 -396.070370568519 19.5000000000852
    vertex -85.0875764935395 -396.070370568519 19.1117714324315
  endloop
endfacet
facet normal 0.793353340291235 0.0 -0.608761429008722
  outer loop
    vertex -82.5780275823261 -396.070370568519 18.4393398283054
    vertex -82.3396496484292 -406.070370568519 18.7500000000852
    vertex -82.5780275823261 -406.070370568519 18.4393398283054
  endloop
endfacet
facet normal 0.793353340291235 0.0 -0.608761429008722
  outer loop
    vertex -82.3396496484292 -406.070370568519 18.7500000000852
    vertex -82.5780275823261 -396.070370568519 18.4393398283054
    vertex -82.3396496484292 -396.070370568519 18.7500000000852
  endloop
endfacet
facet normal -1.0 0.0 0.0
  outer loop
    vertex -85.1386877541059 -396.070370568519 22.5000000000852
    vertex -85.1386877541059 -406.070370568519 19.5000000000852
    vertex -85.1386877541059 -406.070370568519 22.5000000000852
  endloop
endfacet
facet normal -1.0 0.0 0.0
  outer loop
    vertex -85.1386877541059 -406.070370568519 19.5000000000852
    vertex -85.1386877541059 -396.070370568519 22.5000000000852
    vertex -85.1386877541059 -396.070370568519 19.5000000000852
  endloop
endfacet
facet normal 0.130526192220045 0.0 -0.991444861373811
  outer loop
    vertex -83.2504591864521 -396.070370568519 18.0511112606516
    vertex -83.6386877541059 -406.070370568519 18.0000000000852
    vertex -83.6386877541059 -396.070370568519 18.0000000000852
  endloop
endfacet
facet normal 0.130526192220045 0.0 -0.991444861373811
  outer loop
    vertex -83.6386877541059 -406.070370568519 18.0000000000852
    vertex -83.2504591864521 -396.070370568519 18.0511112606516
    vertex -83.2504591864521 -406.070370568519 18.0511112606516
  endloop
endfacet
facet normal -0.13052619222005 0.0 -0.991444861373811
  outer loop
    vertex -83.6386877541059 -396.070370568519 18.0000000000852
    vertex -84.0269163217597 -406.070370568519 18.0511112606516
    vertex -84.0269163217597 -396.070370568519 18.0511112606516
  endloop
endfacet
facet normal -0.13052619222005 0.0 -0.991444861373811
  outer loop
    vertex -84.0269163217597 -406.070370568519 18.0511112606516
    vertex -83.6386877541059 -396.070370568519 18.0000000000852
    vertex -83.6386877541059 -406.070370568519 18.0000000000852
  endloop
endfacet
facet normal 0.99144486137381 0.0 -0.130526192220056
  outer loop
    vertex -82.1897990146723 -396.070370568519 19.1117714324315
    vertex -82.1386877541059 -406.070370568519 19.5000000000852
    vertex -82.1897990146723 -406.070370568519 19.1117714324314
  endloop
endfacet
facet normal 0.99144486137381 0.0 -0.130526192220056
  outer loop
    vertex -82.1386877541059 -406.070370568519 19.5000000000852
    vertex -82.1897990146723 -396.070370568519 19.1117714324315
    vertex -82.1386877541059 -396.070370568519 19.5000000000852
  endloop
endfacet
facet normal 0.923879532511293 0.0 -0.382683432365074
  outer loop
    vertex -82.3396496484292 -396.070370568519 18.7500000000852
    vertex -82.1897990146723 -406.070370568519 19.1117714324314
    vertex -82.3396496484292 -406.070370568519 18.7500000000852
  endloop
endfacet
facet normal 0.923879532511293 0.0 -0.382683432365074
  outer loop
    vertex -82.1897990146723 -406.070370568519 19.1117714324314
    vertex -82.3396496484292 -396.070370568519 18.7500000000852
    vertex -82.1897990146723 -396.070370568519 19.1117714324315
  endloop
endfacet
facet normal -0.382683432365102 0.0 -0.923879532511282
  outer loop
    vertex -84.0269163217597 -396.070370568519 18.0511112606516
    vertex -84.3886877541059 -406.070370568519 18.2009618944086
    vertex -84.3886877541059 -396.070370568519 18.2009618944086
  endloop
endfacet
facet normal -0.382683432365102 0.0 -0.923879532511282
  outer loop
    vertex -84.3886877541059 -406.070370568519 18.2009618944086
    vertex -84.0269163217597 -396.070370568519 18.0511112606516
    vertex -84.0269163217597 -406.070370568519 18.0511112606516
  endloop
endfacet
facet normal -0.793353340291235 0.0 -0.608761429008721
  outer loop
    vertex -84.9377258597826 -396.070370568519 18.7500000000852
    vertex -84.6993479258857 -406.070370568519 18.4393398283054
    vertex -84.9377258597826 -406.070370568519 18.7500000000852
  endloop
endfacet
facet normal -0.793353340291235 0.0 -0.608761429008721
  outer loop
    vertex -84.6993479258857 -406.070370568519 18.4393398283054
    vertex -84.9377258597826 -396.070370568519 18.7500000000852
    vertex -84.6993479258857 -396.070370568519 18.4393398283054
  endloop
endfacet
facet normal 0.608761429008714 0.0 -0.79335334029124
  outer loop
    vertex -82.5780275823261 -396.070370568519 18.4393398283054
    vertex -82.8886877541059 -406.070370568519 18.2009618944086
    vertex -82.8886877541059 -396.070370568519 18.2009618944086
  endloop
endfacet
facet normal 0.608761429008714 0.0 -0.79335334029124
  outer loop
    vertex -82.8886877541059 -406.070370568519 18.2009618944086
    vertex -82.5780275823261 -396.070370568519 18.4393398283054
    vertex -82.5780275823261 -406.070370568519 18.4393398283054
  endloop
endfacet
facet normal -0.608761429008722 0.0 -0.793353340291235
  outer loop
    vertex -84.3886877541059 -396.070370568519 18.2009618944086
    vertex -84.6993479258857 -406.070370568519 18.4393398283054
    vertex -84.6993479258857 -396.070370568519 18.4393398283054
  endloop
endfacet
facet normal -0.608761429008722 0.0 -0.793353340291235
  outer loop
    vertex -84.6993479258857 -406.070370568519 18.4393398283054
    vertex -84.3886877541059 -396.070370568519 18.2009618944086
    vertex -84.3886877541059 -406.070370568519 18.2009618944086
  endloop
endfacet
facet normal 0.0 0.0 -1.0
  outer loop
    vertex -74.1386877540835 -396.070370568519 19.5000000000852
    vertex -82.1386877541059 -406.070370568519 19.5000000000852
    vertex -82.1386877541059 -396.070370568519 19.5000000000852
  endloop
endfacet
facet normal 0.0 0.0 -1.0
  outer loop
    vertex -82.1386877541059 -406.070370568519 19.5000000000852
    vertex -74.1386877540835 -396.070370568519 19.5000000000852
    vertex -74.1386877540835 -406.070370568519 19.5000000000852
  endloop
endfacet
facet normal 4.46622531547785e-014 0.0 1.0
  outer loop
    vertex -62.6386877539628 -406.070370568519 22.5000000000842
    vertex -85.1386877541059 -396.070370568519 22.5000000000852
    vertex -85.1386877541059 -406.070370568519 22.5000000000852
  endloop
endfacet
facet normal 4.46622531547785e-014 0.0 1.0
  outer loop
    vertex -85.1386877541059 -396.070370568519 22.5000000000852
    vertex -62.6386877539628 -406.070370568519 22.5000000000842
    vertex -62.6386877539628 -396.070370568519 22.5000000000842
  endloop
endfacet
facet normal -4.92824862397556e-014 -3.43868294909824e-030 -1.0
  outer loop
    vertex -62.638687753958 -396.070370568519 -13.5000000000526
    vertex -85.1386877541011 -406.070370568519 -13.5000000000515
    vertex -85.1386877541011 -396.070370568519 -13.5000000000515
  endloop
endfacet
facet normal -4.92824862397556e-014 -3.43868294909824e-030 -1.0
  outer loop
    vertex -85.1386877541011 -406.070370568519 -13.5000000000515
    vertex -62.638687753958 -396.070370568519 -13.5000000000526
    vertex -62.638687753958 -406.070370568519 -13.5000000000526
  endloop
endfacet
facet normal -9.56851144208746e-014 -1.0 -2.42147861152156e-024
  outer loop
    vertex -83.2504591864521 -406.070370568519 18.0511112606516
    vertex -84.0269163217597 -406.070370568519 18.0511112606516
    vertex -83.6386877541059 -406.070370568519 18.0000000000852
  endloop
endfacet
facet normal -9.56851144208746e-014 -1.0 -2.42147861152156e-024
  outer loop
    vertex -84.0269163217597 -406.070370568519 18.0511112606516
    vertex -83.2504591864521 -406.070370568519 18.0511112606516
    vertex -82.8886877541059 -406.070370568519 18.2009618944086
  endloop
endfacet
facet normal -9.56851144208746e-014 -1.0 -2.42147861152156e-024
  outer loop
    vertex -84.0269163217597 -406.070370568519 18.0511112606516
    vertex -82.8886877541059 -406.070370568519 18.2009618944086
    vertex -84.3886877541059 -406.070370568519 18.2009618944086
  endloop
endfacet
facet normal -9.56851144208746e-014 -1.0 -2.42147861152156e-024
  outer loop
    vertex -84.3886877541059 -406.070370568519 18.2009618944086
    vertex -82.8886877541059 -406.070370568519 18.2009618944086
    vertex -82.5780275823261 -406.070370568519 18.4393398283054
  endloop
endfacet
facet normal -9.56851144208746e-014 -1.0 -2.42147861152156e-024
  outer loop
    vertex -84.3886877541059 -406.070370568519 18.2009618944086
    vertex -82.5780275823261 -406.070370568519 18.4393398283054
    vertex -84.6993479258857 -406.070370568519 18.4393398283054
  endloop
endfacet
facet normal -9.56851144208746e-014 -1.0 -2.42147861152156e-024
  outer loop
    vertex -84.6993479258857 -406.070370568519 18.4393398283054
    vertex -82.5780275823261 -406.070370568519 18.4393398283054
    vertex -82.3396496484292 -406.070370568519 18.7500000000852
  endloop
endfacet
facet normal -9.56851144208746e-014 -1.0 -2.42147861152156e-024
  outer loop
    vertex -84.6993479258857 -406.070370568519 18.4393398283054
    vertex -82.3396496484292 -406.070370568519 18.7500000000852
    vertex -84.9377258597826 -406.070370568519 18.7500000000852
  endloop
endfacet
facet normal -9.56851144208746e-014 -1.0 -2.42147861152156e-024
  outer loop
    vertex -84.9377258597826 -406.070370568519 18.7500000000852
    vertex -82.3396496484292 -406.070370568519 18.7500000000852
    vertex -82.1897990146723 -406.070370568519 19.1117714324314
  endloop
endfacet
facet normal -9.56851144208746e-014 -1.0 -2.42147861152156e-024
  outer loop
    vertex -84.9377258597826 -406.070370568519 18.7500000000852
    vertex -82.1897990146723 -406.070370568519 19.1117714324314
    vertex -85.0875764935395 -406.070370568519 19.1117714324314
  endloop
endfacet
facet normal -9.56851144208746e-014 -1.0 -2.42147861152156e-024
  outer loop
    vertex -85.0875764935395 -406.070370568519 19.1117714324314
    vertex -82.1897990146723 -406.070370568519 19.1117714324314
    vertex -82.1386877541059 -406.070370568519 19.5000000000852
  endloop
endfacet
facet normal -9.56851144208746e-014 -1.0 -2.42147861152156e-024
  outer loop
    vertex -85.0875764935395 -406.070370568519 19.1117714324314
    vertex -82.1386877541059 -406.070370568519 19.5000000000852
    vertex -85.1386877541059 -406.070370568519 19.5000000000852
  endloop
endfacet
facet normal -9.56851144208746e-014 -1.0 -2.42147861152156e-024
  outer loop
    vertex -74.1386877540835 -406.070370568519 19.5000000000852
    vertex -74.1386877540693 -406.07037056861 16.0784272242
    vertex -51.1386877540418 -406.07037056852 16.0784272242019
  endloop
endfacet
facet normal -9.56851144208746e-014 -1.0 -2.42147861152156e-024
  outer loop
    vertex -59.6386877539582 -406.070370568519 -11.5000000000526
    vertex -85.1386877541011 -406.070370568519 -13.5000000000515
    vertex -62.638687753958 -406.070370568519 -13.5000000000526
  endloop
endfacet
facet normal -9.56851144208746e-014 -1.0 -2.42147861152156e-024
  outer loop
    vertex -85.1386877541011 -406.070370568519 -13.5000000000515
    vertex -59.6386877539582 -406.070370568519 -11.5000000000526
    vertex -85.1386877541011 -406.070370568519 -10.5000000000515
  endloop
endfacet
facet normal -9.56851144208746e-014 -1.0 -2.42147861152156e-024
  outer loop
    vertex -85.1386877541011 -406.070370568519 -10.5000000000515
    vertex -59.6386877539582 -406.070370568519 -11.5000000000526
    vertex -47.1386877539582 -406.070370568519 -11.5000000000509
  endloop
endfacet
facet normal -9.56851144208746e-014 -1.0 -2.42147861152156e-024
  outer loop
    vertex -85.1386877541011 -406.070370568519 -10.5000000000515
    vertex -47.1386877539582 -406.070370568519 -11.5000000000509
    vertex -74.1386877540787 -406.070370568519 -10.5000000000515
  endloop
endfacet
facet normal -9.56851144208746e-014 -1.0 -2.42147861152156e-024
  outer loop
    vertex -85.1386877541011 -406.070370568519 -10.5000000000515
    vertex -74.1386877540787 -406.070370568519 -10.5000000000515
    vertex -82.1386877541011 -406.070370568519 -10.5000000000515
  endloop
endfacet
facet normal -9.56851144208746e-014 -1.0 -2.42147861152156e-024
  outer loop
    vertex -85.1386877541011 -406.070370568519 -10.5000000000515
    vertex -82.1386877541011 -406.070370568519 -10.5000000000515
    vertex -82.1897990146675 -406.070370568519 -10.1117714323977
  endloop
endfacet
facet normal -9.56851144208746e-014 -1.0 -2.42147861152156e-024
  outer loop
    vertex -85.1386877541011 -406.070370568519 -10.5000000000515
    vertex -82.1897990146675 -406.070370568519 -10.1117714323977
    vertex -85.0875764935347 -406.070370568519 -10.1117714323977
  endloop
endfacet
facet normal -9.56851144208746e-014 -1.0 -2.42147861152156e-024
  outer loop
    vertex -85.0875764935347 -406.070370568519 -10.1117714323977
    vertex -82.1897990146675 -406.070370568519 -10.1117714323977
    vertex -82.3396496484244 -406.070370568519 -9.75000000005146
  endloop
endfacet
facet normal -9.56851144208746e-014 -1.0 -2.42147861152156e-024
  outer loop
    vertex -85.0875764935347 -406.070370568519 -10.1117714323977
    vertex -82.3396496484244 -406.070370568519 -9.75000000005146
    vertex -84.9377258597778 -406.070370568519 -9.75000000005146
  endloop
endfacet
facet normal -9.56851144208746e-014 -1.0 -2.42147861152156e-024
  outer loop
    vertex -84.9377258597778 -406.070370568519 -9.75000000005146
    vertex -82.3396496484244 -406.070370568519 -9.75000000005146
    vertex -82.5780275823213 -406.070370568519 -9.43933982827164
  endloop
endfacet
facet normal -9.56851144208746e-014 -1.0 -2.42147861152156e-024
  outer loop
    vertex -84.9377258597778 -406.070370568519 -9.75000000005146
    vertex -82.5780275823213 -406.070370568519 -9.43933982827164
    vertex -84.6993479258809 -406.070370568519 -9.43933982827164
  endloop
endfacet
facet normal -9.56851144208746e-014 -1.0 -2.42147861152156e-024
  outer loop
    vertex -84.6993479258809 -406.070370568519 -9.43933982827164
    vertex -82.5780275823213 -406.070370568519 -9.43933982827164
    vertex -82.8886877541011 -406.070370568519 -9.2009618943748
  endloop
endfacet
facet normal -9.56851144208746e-014 -1.0 -2.42147861152156e-024
  outer loop
    vertex -84.6993479258809 -406.070370568519 -9.43933982827164
    vertex -82.8886877541011 -406.070370568519 -9.2009618943748
    vertex -84.3886877541011 -406.070370568519 -9.2009618943748
  endloop
endfacet
facet normal -9.56851144208746e-014 -1.0 -2.42147861152156e-024
  outer loop
    vertex -84.3886877541011 -406.070370568519 -9.2009618943748
    vertex -82.8886877541011 -406.070370568519 -9.2009618943748
    vertex -83.2504591864473 -406.070370568519 -9.05111126061786
  endloop
endfacet
facet normal -9.56851144208746e-014 -1.0 -2.42147861152156e-024
  outer loop
    vertex -84.3886877541011 -406.070370568519 -9.2009618943748
    vertex -83.2504591864473 -406.070370568519 -9.05111126061786
    vertex -84.0269163217549 -406.070370568519 -9.05111126061786
  endloop
endfacet
facet normal -9.56851144208746e-014 -1.0 -2.42147861152156e-024
  outer loop
    vertex -84.0269163217549 -406.070370568519 -9.05111126061786
    vertex -83.2504591864473 -406.070370568519 -9.05111126061786
    vertex -83.6386877541011 -406.070370568519 -9.00000000005146
  endloop
endfacet
facet normal -9.56851144208746e-014 -1.0 -2.42147861152156e-024
  outer loop
    vertex -47.1386877539582 -406.070370568519 -11.5000000000509
    vertex -51.1386877540396 -406.07037056852 -7.07842722389655
    vertex -74.1386877540787 -406.070370568519 -10.5000000000515
  endloop
endfacet
facet normal -9.56851144208746e-014 -1.0 -2.42147861152156e-024
  outer loop
    vertex -51.1386877540396 -406.07037056852 -7.07842722389655
    vertex -47.1386877539582 -406.070370568519 -11.5000000000509
    vertex -47.1386877539625 -406.070370568519 20.5000000000859
  endloop
endfacet
facet normal -9.56851144208746e-014 -1.0 -2.42147861152156e-024
  outer loop
    vertex -74.1386877540787 -406.070370568519 -10.5000000000515
    vertex -51.1386877540396 -406.07037056852 -7.07842722389655
    vertex -74.1386877540672 -406.07037056861 -7.0784272238985
  endloop
endfacet
facet normal -9.56851144208746e-014 -1.0 -2.42147861152156e-024
  outer loop
    vertex -51.1386877540396 -406.07037056852 -7.07842722389655
    vertex -47.1386877539625 -406.070370568519 20.5000000000859
    vertex -51.1386877540418 -406.07037056852 16.0784272242019
  endloop
endfacet
facet normal -9.56851144208746e-014 -1.0 -2.42147861152156e-024
  outer loop
    vertex -51.1386877540418 -406.07037056852 16.0784272242019
    vertex -47.1386877539625 -406.070370568519 20.5000000000859
    vertex -74.1386877540835 -406.070370568519 19.5000000000852
  endloop
endfacet
facet normal -9.56851144208746e-014 -1.0 -2.42147861152156e-024
  outer loop
    vertex -74.1386877540835 -406.070370568519 19.5000000000852
    vertex -47.1386877539625 -406.070370568519 20.5000000000859
    vertex -82.1386877541059 -406.070370568519 19.5000000000852
  endloop
endfacet
facet normal -9.56851144208746e-014 -1.0 -2.42147861152156e-024
  outer loop
    vertex -82.1386877541059 -406.070370568519 19.5000000000852
    vertex -47.1386877539625 -406.070370568519 20.5000000000859
    vertex -85.1386877541059 -406.070370568519 19.5000000000852
  endloop
endfacet
facet normal -9.56851144208746e-014 -1.0 -2.42147861152156e-024
  outer loop
    vertex -85.1386877541059 -406.070370568519 19.5000000000852
    vertex -47.1386877539625 -406.070370568519 20.5000000000859
    vertex -59.6386877539625 -406.070370568519 20.5000000000842
  endloop
endfacet
facet normal -9.56851144208746e-014 -1.0 -2.42147861152156e-024
  outer loop
    vertex -59.6386877539625 -406.070370568519 20.5000000000842
    vertex -85.1386877541059 -406.070370568519 22.5000000000852
    vertex -85.1386877541059 -406.070370568519 19.5000000000852
  endloop
endfacet
facet normal -9.56851144208746e-014 -1.0 -2.42147861152156e-024
  outer loop
    vertex -85.1386877541059 -406.070370568519 22.5000000000852
    vertex -59.6386877539625 -406.070370568519 20.5000000000842
    vertex -62.6386877539628 -406.070370568519 22.5000000000842
  endloop
endfacet
facet normal 2.9633491584302e-012 -0.751839807478918 0.659345815100137
  outer loop
    vertex -51.1386877540396 -406.07037056852 -7.07842722389655
    vertex -74.1386877541486 -405.393117814213 -6.30616846556735
    vertex -74.1386877540672 -406.07037056861 -7.0784272238985
  endloop
endfacet
facet normal 2.9633491584302e-012 -0.751839807478918 0.659345815100137
  outer loop
    vertex -74.1386877541486 -405.393117814213 -6.30616846556735
    vertex -51.1386877540396 -406.07037056852 -7.07842722389655
    vertex -51.138687754121 -405.393117814124 -6.30616846556539
  endloop
endfacet
facet normal 3.29917595475126e-012 -0.831469612302592 0.555570233019532
  outer loop
    vertex -51.138687754121 -405.393117814124 -6.30616846556539
    vertex -74.1386877541486 -404.381491873971 -4.79216325373949
    vertex -74.1386877541486 -405.393117814213 -6.30616846556735
  endloop
endfacet
facet normal 3.29917595475126e-012 -0.831469612302592 0.555570233019532
  outer loop
    vertex -74.1386877541486 -404.381491873971 -4.79216325373949
    vertex -51.138687754121 -405.393117814124 -6.30616846556539
    vertex -51.1386877541211 -404.381491873882 -4.79216325373753
  endloop
endfacet
facet normal -2.13580744773974e-012 0.500000000000021 0.866025403784426
  outer loop
    vertex -51.1386877541211 -404.381491873882 -4.79216325373753
    vertex -74.1386877541486 -399.994602551199 -7.32493498514728
    vertex -74.1386877541486 -404.381491873971 -4.79216325373949
  endloop
endfacet
facet normal -2.13580744773974e-012 0.500000000000021 0.866025403784426
  outer loop
    vertex -74.1386877541486 -399.994602551199 -7.32493498514728
    vertex -51.1386877541211 -404.381491873882 -4.79216325373753
    vertex -51.138687754121 -399.99460255111 -7.32493498514533
  endloop
endfacet
facet normal 3.56881291832989e-012 -0.896872741532673 0.442288690219032
  outer loop
    vertex -51.138687754121 -399.99460255111 -7.32493498514533
    vertex -74.1386877541137 -399.094644210494 -5.50000000005146
    vertex -74.1386877541486 -399.994602551199 -7.32493498514728
  endloop
endfacet
facet normal 3.56881291832989e-012 -0.896872741532673 0.442288690219032
  outer loop
    vertex -74.1386877541137 -399.094644210494 -5.50000000005146
    vertex -51.138687754121 -399.99460255111 -7.32493498514533
    vertex -51.1386877541451 -399.094644210869 -5.50000000013818
  endloop
endfacet
facet normal 3.68097093352516e-012 -0.896872741532674 -0.442288690219031
  outer loop
    vertex -51.138687754121 -399.994602551109 16.3249349854503
    vertex -74.1386877540325 -399.094644210363 14.5000000000852
    vertex -51.1386877540639 -399.094644210737 14.4999999999985
  endloop
endfacet
facet normal 3.68097093352516e-012 -0.896872741532674 -0.442288690219031
  outer loop
    vertex -74.1386877540325 -399.094644210363 14.5000000000852
    vertex -51.138687754121 -399.994602551109 16.3249349854503
    vertex -74.1386877541486 -399.994602551199 16.3249349854483
  endloop
endfacet
facet normal -1.91663036247752e-012 0.499999999999949 -0.866025403784468
  outer loop
    vertex -74.1386877541486 -399.994602551199 16.3249349854483
    vertex -51.1386877541211 -404.381491873882 13.792163254043
    vertex -74.1386877541486 -404.381491873971 13.792163254041
  endloop
endfacet
facet normal -1.91663036247752e-012 0.499999999999949 -0.866025403784468
  outer loop
    vertex -51.1386877541211 -404.381491873882 13.792163254043
    vertex -74.1386877541486 -399.994602551199 16.3249349854483
    vertex -51.138687754121 -399.994602551109 16.3249349854503
  endloop
endfacet
facet normal 3.43978183513215e-012 -0.831469612302537 -0.555570233019614
  outer loop
    vertex -51.1386877541211 -404.381491873882 13.792163254043
    vertex -74.1386877541486 -405.393117814213 15.306168465869
    vertex -74.1386877541486 -404.381491873971 13.792163254041
  endloop
endfacet
facet normal 3.43978183513215e-012 -0.831469612302537 -0.555570233019614
  outer loop
    vertex -74.1386877541486 -405.393117814213 15.306168465869
    vertex -51.1386877541211 -404.381491873882 13.792163254043
    vertex -51.138687754121 -405.393117814124 15.306168465871
  endloop
endfacet
facet normal 3.13021896767825e-012 -0.751839807478971 -0.659345815100076
  outer loop
    vertex -51.138687754121 -405.393117814124 15.306168465871
    vertex -74.1386877540693 -406.07037056861 16.0784272242
    vertex -74.1386877541486 -405.393117814213 15.306168465869
  endloop
endfacet
facet normal 3.13021896767825e-012 -0.751839807478971 -0.659345815100076
  outer loop
    vertex -74.1386877540693 -406.07037056861 16.0784272242
    vertex -51.138687754121 -405.393117814124 15.306168465871
    vertex -51.1386877540418 -406.07037056852 16.0784272242019
  endloop
endfacet
facet normal -1.0 5.40845839006799e-012 1.95913307541119e-012
  outer loop
    vertex -51.138687754121 -405.393117814124 15.306168465871
    vertex -51.1386877540396 -406.07037056852 -7.07842722389655
    vertex -51.1386877540418 -406.07037056852 16.0784272242019
  endloop
endfacet
facet normal -1.0 5.40845839006799e-012 1.95913307541119e-012
  outer loop
    vertex -51.1386877540396 -406.07037056852 -7.07842722389655
    vertex -51.138687754121 -405.393117814124 15.306168465871
    vertex -51.138687754121 -405.393117814124 -6.30616846556539
  endloop
endfacet
facet normal -1.0 5.40845839006799e-012 1.95913307541119e-012
  outer loop
    vertex -51.138687754121 -405.393117814124 -6.30616846556539
    vertex -51.138687754121 -405.393117814124 15.306168465871
    vertex -51.1386877541211 -404.381491873882 13.792163254043
  endloop
endfacet
facet normal -1.0 5.40845839006799e-012 1.95913307541119e-012
  outer loop
    vertex -51.138687754121 -405.393117814124 -6.30616846556539
    vertex -51.1386877541211 -404.381491873882 13.792163254043
    vertex -51.1386877541211 -404.381491873882 -4.79216325373753
  endloop
endfacet
facet normal -1.0 5.40845839006799e-012 1.95913307541119e-012
  outer loop
    vertex -51.1386877541211 -404.381491873882 -4.79216325373753
    vertex -51.1386877541211 -404.381491873882 13.792163254043
    vertex -51.138687754121 -399.99460255111 -7.32493498514533
  endloop
endfacet
facet normal -1.0 5.40845839006799e-012 1.95913307541119e-012
  outer loop
    vertex -51.138687754121 -399.99460255111 -7.32493498514533
    vertex -51.1386877541211 -404.381491873882 13.792163254043
    vertex -51.138687754121 -399.994602551109 16.3249349854503
  endloop
endfacet
facet normal -1.0 5.40845839006799e-012 1.95913307541119e-012
  outer loop
    vertex -51.138687754121 -399.99460255111 -7.32493498514533
    vertex -51.138687754121 -399.994602551109 16.3249349854503
    vertex -51.1386877541451 -399.094644210869 -5.50000000013818
  endloop
endfacet
facet normal -1.0 5.40845839006799e-012 1.95913307541119e-012
  outer loop
    vertex -51.1386877541451 -399.094644210869 -5.50000000013818
    vertex -51.138687754121 -399.994602551109 16.3249349854503
    vertex -51.1386877540639 -399.094644210737 14.4999999999985
  endloop
endfacet
facet normal -1.0 5.40845839006799e-012 1.95913307541119e-012
  outer loop
    vertex -51.1386877541451 -399.094644210869 -5.50000000013818
    vertex -51.1386877540639 -399.094644210737 14.4999999999985
    vertex -51.1386877541102 -396.070370568893 -5.50000000013818
  endloop
endfacet
facet normal -1.0 5.40845839006799e-012 1.95913307541119e-012
  outer loop
    vertex -51.1386877541102 -396.070370568893 -5.50000000013818
    vertex -51.1386877540639 -399.094644210737 14.4999999999985
    vertex -51.1386877539478 -396.070370569057 14.4999999999985
  endloop
endfacet
facet normal 3.8146329534411e-012 -4.40499621055418e-023 1.0
  outer loop
    vertex -51.1386877541451 -399.094644210869 -5.50000000013818
    vertex -74.1386877540787 -396.070370568519 -5.50000000005146
    vertex -74.1386877541137 -399.094644210494 -5.50000000005146
  endloop
endfacet
facet normal 3.8146329534411e-012 -4.40499621055418e-023 1.0
  outer loop
    vertex -74.1386877540787 -396.070370568519 -5.50000000005146
    vertex -51.1386877541451 -399.094644210869 -5.50000000013818
    vertex -51.1386877541102 -396.070370568893 -5.50000000013818
  endloop
endfacet
facet normal -3.8146329534411e-012 1.46464120750872e-022 -1.0
  outer loop
    vertex -74.1386877539164 -396.070370568682 14.5000000000852
    vertex -51.1386877540639 -399.094644210737 14.4999999999985
    vertex -74.1386877540325 -399.094644210363 14.5000000000852
  endloop
endfacet
facet normal -3.8146329534411e-012 1.46464120750872e-022 -1.0
  outer loop
    vertex -51.1386877540639 -399.094644210737 14.4999999999985
    vertex -74.1386877539164 -396.070370568682 14.5000000000852
    vertex -51.1386877539478 -396.070370569057 14.4999999999985
  endloop
endfacet
facet normal -2.6550683410941e-013 -1.0 -3.39626395216355e-013
  outer loop
    vertex -37.0765099274053 -400.07037056852 1.00000000001613
    vertex -43.1386877538089 -400.070370568517 0.499999999947525
    vertex -38.1889402855906 -400.070370568519 -0.449747468289704
  endloop
endfacet
facet normal -2.6550683410941e-013 -1.0 -3.39626395216355e-013
  outer loop
    vertex -43.1386877538089 -400.070370568517 0.499999999947525
    vertex -37.0765099274053 -400.07037056852 1.00000000001613
    vertex -42.1034115733841 -400.070370568518 0.636296694816205
  endloop
endfacet
facet normal -2.6550683410941e-013 -1.0 -3.39626395216355e-013
  outer loop
    vertex -42.1034115733841 -400.070370568518 0.636296694816205
    vertex -37.0765099274053 -400.07037056852 1.00000000001613
    vertex -41.1386877537863 -400.070370568518 1.03589838486263
  endloop
endfacet
facet normal -2.6550683410941e-013 -1.0 -3.39626395216355e-013
  outer loop
    vertex -41.1386877537863 -400.070370568518 1.03589838486263
    vertex -37.0765099274053 -400.07037056852 1.00000000001613
    vertex -36.3772069698729 -400.070370568521 2.68826668429848
  endloop
endfacet
facet normal -2.6550683410941e-013 -1.0 -3.39626395216355e-013
  outer loop
    vertex -41.1386877537863 -400.070370568518 1.03589838486263
    vertex -36.3772069698729 -400.070370568521 2.68826668429848
    vertex -40.3102606290398 -400.070370568519 1.67157287528319
  endloop
endfacet
facet normal -2.6550683410941e-013 -1.0 -3.39626395216355e-013
  outer loop
    vertex -40.3102606290398 -400.070370568519 1.67157287528319
    vertex -36.3772069698729 -400.070370568521 2.68826668429848
    vertex -39.6745861386554 -400.070370568519 2.50000000005746
  endloop
endfacet
facet normal -2.6550683410941e-013 -1.0 -3.39626395216355e-013
  outer loop
    vertex -39.6745861386554 -400.070370568519 2.50000000005746
    vertex -36.3772069698729 -400.070370568521 2.68826668429848
    vertex -39.2749844486511 -400.07037056852 3.46472381967264
  endloop
endfacet
facet normal -2.6550683410941e-013 -1.0 -3.39626395216355e-013
  outer loop
    vertex -39.2749844486511 -400.07037056852 3.46472381967264
    vertex -36.3772069698729 -400.070370568521 2.68826668429848
    vertex -36.1386877538964 -400.070370568521 4.50000000001613
  endloop
endfacet
facet normal -2.6550683410941e-013 -1.0 -3.39626395216355e-013
  outer loop
    vertex -39.2749844486511 -400.07037056852 3.46472381967264
    vertex -36.1386877538964 -400.070370568521 4.50000000001613
    vertex -39.1386877538277 -400.07037056852 4.50000000010346
  endloop
endfacet
facet normal -2.6550683410941e-013 -1.0 -3.39626395216355e-013
  outer loop
    vertex -39.1386877538277 -400.07037056852 4.50000000010346
    vertex -36.1386877538964 -400.070370568521 4.50000000001613
    vertex -36.3772069698729 -400.070370568522 6.31173331573378
  endloop
endfacet
facet normal -2.6550683410941e-013 -1.0 -3.39626395216355e-013
  outer loop
    vertex -39.1386877538277 -400.07037056852 4.50000000010346
    vertex -36.3772069698729 -400.070370568522 6.31173331573378
    vertex -39.2749844486964 -400.070370568521 5.53527618052831
  endloop
endfacet
facet normal -2.6550683410941e-013 -1.0 -3.39626395216355e-013
  outer loop
    vertex -39.2749844486964 -400.070370568521 5.53527618052831
    vertex -36.3772069698729 -400.070370568522 6.31173331573378
    vertex -39.6745861387428 -400.070370568521 6.50000000012604
  endloop
endfacet
facet normal -2.6550683410941e-013 -1.0 -3.39626395216355e-013
  outer loop
    vertex -39.6745861387428 -400.070370568521 6.50000000012604
    vertex -36.3772069698729 -400.070370568522 6.31173331573378
    vertex -37.0765099274053 -400.070370568522 8.00000000001612
  endloop
endfacet
facet normal -2.6550683410941e-013 -1.0 -3.39626395216355e-013
  outer loop
    vertex -39.6745861387428 -400.070370568521 6.50000000012604
    vertex -37.0765099274053 -400.070370568522 8.00000000001612
    vertex -40.3102606291633 -400.070370568521 7.32842712487256
  endloop
endfacet
facet normal -2.6550683410941e-013 -1.0 -3.39626395216355e-013
  outer loop
    vertex -40.3102606291633 -400.070370568521 7.32842712487256
    vertex -37.0765099274053 -400.070370568522 8.00000000001612
    vertex -41.1386877539376 -400.070370568521 7.96410161525693
  endloop
endfacet
facet normal -2.6550683410941e-013 -1.0 -3.39626395216355e-013
  outer loop
    vertex -41.1386877539376 -400.070370568521 7.96410161525693
    vertex -37.0765099274053 -400.070370568522 8.00000000001612
    vertex -42.1034115735528 -400.07037056852 8.36370330526125
  endloop
endfacet
facet normal -2.6550683410941e-013 -1.0 -3.39626395216355e-013
  outer loop
    vertex -42.1034115735528 -400.07037056852 8.36370330526125
    vertex -37.0765099274053 -400.070370568522 8.00000000001612
    vertex -38.1889402855906 -400.070370568522 9.44974746832196
  endloop
endfacet
facet normal -2.6550683410941e-013 -1.0 -3.39626395216355e-013
  outer loop
    vertex -42.1034115735528 -400.07037056852 8.36370330526125
    vertex -38.1889402855906 -400.070370568522 9.44974746832196
    vertex -43.1386877539836 -400.07037056852 8.5000000000847
  endloop
endfacet
facet normal -2.6550683410941e-013 -1.0 -3.39626395216355e-013
  outer loop
    vertex -43.1386877539836 -400.07037056852 8.5000000000847
    vertex -38.1889402855906 -400.070370568522 9.44974746832196
    vertex -47.1386877539615 -400.07037056852 8.5000000000847
  endloop
endfacet
facet normal -2.6550683410941e-013 -1.0 -3.39626395216355e-013
  outer loop
    vertex -47.1386877539615 -400.07037056852 8.5000000000847
    vertex -38.1889402855906 -400.070370568522 9.44974746832196
    vertex -47.1386877539619 -400.07037056852 11.5000000000161
  endloop
endfacet
facet normal -2.6550683410941e-013 -1.0 -3.39626395216355e-013
  outer loop
    vertex -47.1386877539619 -400.07037056852 11.5000000000161
    vertex -38.1889402855906 -400.070370568522 9.44974746832196
    vertex -39.6386877538964 -400.070370568522 10.5621778265072
  endloop
endfacet
facet normal -2.6550683410941e-013 -1.0 -3.39626395216355e-013
  outer loop
    vertex -47.1386877539619 -400.07037056852 11.5000000000161
    vertex -39.6386877538964 -400.070370568522 10.5621778265072
    vertex -41.3269544381788 -400.070370568521 11.2614807840396
  endloop
endfacet
facet normal -2.6550683410941e-013 -1.0 -3.39626395216355e-013
  outer loop
    vertex -47.1386877539619 -400.07037056852 11.5000000000161
    vertex -41.3269544381788 -400.070370568521 11.2614807840396
    vertex -43.1386877538964 -400.070370568521 11.5000000000161
  endloop
endfacet
facet normal -2.6550683410941e-013 -1.0 -3.39626395216355e-013
  outer loop
    vertex -41.3269544381788 -400.070370568517 -2.26148078400735
    vertex -47.1386877539615 -400.070370568516 -2.49999999998387
    vertex -43.1386877538964 -400.070370568516 -2.49999999998387
  endloop
endfacet
facet normal -2.6550683410941e-013 -1.0 -3.39626395216355e-013
  outer loop
    vertex -47.1386877539615 -400.070370568516 -2.49999999998387
    vertex -41.3269544381788 -400.070370568517 -2.26148078400735
    vertex -47.1386877539615 -400.070370568517 0.499999999947525
  endloop
endfacet
facet normal -2.6550683410941e-013 -1.0 -3.39626395216355e-013
  outer loop
    vertex -47.1386877539615 -400.070370568517 0.499999999947525
    vertex -41.3269544381788 -400.070370568517 -2.26148078400735
    vertex -39.6386877538964 -400.070370568518 -1.56217782647494
  endloop
endfacet
facet normal -2.6550683410941e-013 -1.0 -3.39626395216355e-013
  outer loop
    vertex -47.1386877539615 -400.070370568517 0.499999999947525
    vertex -39.6386877538964 -400.070370568518 -1.56217782647494
    vertex -38.1889402855906 -400.070370568519 -0.449747468289704
  endloop
endfacet
facet normal -2.6550683410941e-013 -1.0 -3.39626395216355e-013
  outer loop
    vertex -47.1386877539615 -400.070370568517 0.499999999947525
    vertex -38.1889402855906 -400.070370568519 -0.449747468289704
    vertex -43.1386877538089 -400.070370568517 0.499999999947525
  endloop
endfacet
facet normal 0.130526192220052 2.98995918003787e-013 -0.99144486137381
  outer loop
    vertex -43.1386877538951 -396.070370568516 -2.49999999998249
    vertex -41.3269544381788 -400.070370568517 -2.26148078400735
    vertex -43.1386877538964 -400.070370568516 -2.49999999998387
  endloop
endfacet
facet normal 0.130526192220052 2.98995918003787e-013 -0.99144486137381
  outer loop
    vertex -41.3269544381788 -400.070370568517 -2.26148078400735
    vertex -43.1386877538951 -396.070370568516 -2.49999999998249
    vertex -41.3269544381775 -396.070370568517 -2.26148078400597
  endloop
endfacet
facet normal -1.9875939522374e-026 3.44154749892571e-013 -1.0
  outer loop
    vertex -47.1386877539602 -396.070370568516 -2.49999999998249
    vertex -43.1386877538964 -400.070370568516 -2.49999999998387
    vertex -47.1386877539615 -400.070370568516 -2.49999999998387
  endloop
endfacet
facet normal -1.9875939522374e-026 3.44154749892571e-013 -1.0
  outer loop
    vertex -43.1386877538964 -400.070370568516 -2.49999999998387
    vertex -47.1386877539602 -396.070370568516 -2.49999999998249
    vertex -43.1386877538951 -396.070370568516 -2.49999999998249
  endloop
endfacet
facet normal -1.98759395223718e-026 -3.44154749892571e-013 1.0
  outer loop
    vertex -43.1386877538964 -400.070370568521 11.5000000000161
    vertex -47.1386877539606 -396.070370568521 11.5000000000175
    vertex -47.1386877539619 -400.07037056852 11.5000000000161
  endloop
endfacet
facet normal -1.98759395223718e-026 -3.44154749892571e-013 1.0
  outer loop
    vertex -47.1386877539606 -396.070370568521 11.5000000000175
    vertex -43.1386877538964 -400.070370568521 11.5000000000161
    vertex -43.1386877538951 -396.070370568521 11.5000000000175
  endloop
endfacet
facet normal 0.130526192220052 -3.8342499859297e-013 0.99144486137381
  outer loop
    vertex -41.3269544381788 -400.070370568521 11.2614807840396
    vertex -43.1386877538951 -396.070370568521 11.5000000000175
    vertex -43.1386877538964 -400.070370568521 11.5000000000161
  endloop
endfacet
facet normal 0.130526192220052 -3.8342499859297e-013 0.99144486137381
  outer loop
    vertex -43.1386877538951 -396.070370568521 11.5000000000175
    vertex -41.3269544381788 -400.070370568521 11.2614807840396
    vertex -41.3269544381775 -396.070370568522 11.261480784041
  endloop
endfacet
facet normal 0.382683432365092 -4.41724299167812e-013 0.923879532511286
  outer loop
    vertex -39.6386877538964 -400.070370568522 10.5621778265072
    vertex -41.3269544381775 -396.070370568522 11.261480784041
    vertex -41.3269544381788 -400.070370568521 11.2614807840396
  endloop
endfacet
facet normal 0.382683432365092 -4.41724299167812e-013 0.923879532511286
  outer loop
    vertex -41.3269544381775 -396.070370568522 11.261480784041
    vertex -39.6386877538964 -400.070370568522 10.5621778265072
    vertex -39.6386877538951 -396.070370568522 10.5621778265086
  endloop
endfacet
facet normal 0.60876142900872 -4.69920818738286e-013 0.793353340291236
  outer loop
    vertex -38.1889402855906 -400.070370568522 9.44974746832196
    vertex -39.6386877538951 -396.070370568522 10.5621778265086
    vertex -39.6386877538964 -400.070370568522 10.5621778265072
  endloop
endfacet
facet normal 0.60876142900872 -4.69920818738286e-013 0.793353340291236
  outer loop
    vertex -39.6386877538951 -396.070370568522 10.5621778265086
    vertex -38.1889402855906 -400.070370568522 9.44974746832196
    vertex -38.1889402855893 -396.070370568523 9.44974746832334
  endloop
endfacet
facet normal 0.793353340291236 -4.66093011092617e-013 0.60876142900872
  outer loop
    vertex -37.076509927404 -396.070370568523 8.0000000000175
    vertex -38.1889402855906 -400.070370568522 9.44974746832196
    vertex -37.0765099274053 -400.070370568522 8.00000000001612
  endloop
endfacet
facet normal 0.793353340291236 -4.66093011092617e-013 0.60876142900872
  outer loop
    vertex -38.1889402855906 -400.070370568522 9.44974746832196
    vertex -37.076509927404 -396.070370568523 8.0000000000175
    vertex -38.1889402855893 -396.070370568523 9.44974746832334
  endloop
endfacet
facet normal 0.923879532511287 -4.30501734996105e-013 0.382683432365088
  outer loop
    vertex -36.3772069698729 -400.070370568522 6.31173331573378
    vertex -37.076509927404 -396.070370568523 8.0000000000175
    vertex -37.0765099274053 -400.070370568522 8.00000000001612
  endloop
endfacet
facet normal 0.923879532511287 -4.30501734996105e-013 0.382683432365088
  outer loop
    vertex -37.076509927404 -396.070370568523 8.0000000000175
    vertex -36.3772069698729 -400.070370568522 6.31173331573378
    vertex -36.3772069698716 -396.070370568522 6.31173331573515
  endloop
endfacet
facet normal 0.99144486137381 -3.65572477097366e-013 0.130526192220053
  outer loop
    vertex -36.1386877538964 -400.070370568521 4.50000000001613
    vertex -36.3772069698716 -396.070370568522 6.31173331573515
    vertex -36.3772069698729 -400.070370568522 6.31173331573378
  endloop
endfacet
facet normal 0.99144486137381 -3.65572477097366e-013 0.130526192220053
  outer loop
    vertex -36.3772069698716 -396.070370568522 6.31173331573515
    vertex -36.1386877538964 -400.070370568521 4.50000000001613
    vertex -36.1386877538951 -396.070370568522 4.50000000001751
  endloop
endfacet
facet normal 0.99144486137381 -2.75730059021522e-013 -0.130526192220053
  outer loop
    vertex -36.3772069698729 -400.070370568521 2.68826668429848
    vertex -36.1386877538951 -396.070370568522 4.50000000001751
    vertex -36.1386877538964 -400.070370568521 4.50000000001613
  endloop
endfacet
facet normal 0.99144486137381 -2.75730059021522e-013 -0.130526192220053
  outer loop
    vertex -36.1386877538951 -396.070370568522 4.50000000001751
    vertex -36.3772069698729 -400.070370568521 2.68826668429848
    vertex -36.3772069698716 -396.070370568521 2.68826668429986
  endloop
endfacet
facet normal 0.923879532511286 -1.67097093088829e-013 -0.382683432365091
  outer loop
    vertex -37.0765099274053 -400.07037056852 1.00000000001613
    vertex -36.3772069698716 -396.070370568521 2.68826668429986
    vertex -36.3772069698729 -400.070370568521 2.68826668429848
  endloop
endfacet
facet normal 0.923879532511286 -1.67097093088829e-013 -0.382683432365091
  outer loop
    vertex -36.3772069698716 -396.070370568521 2.68826668429986
    vertex -37.0765099274053 -400.07037056852 1.00000000001613
    vertex -37.076509927404 -396.07037056852 1.00000000001751
  endloop
endfacet
facet normal 0.793353340291235 -4.7076736403136e-014 -0.608761429008721
  outer loop
    vertex -38.1889402855906 -400.070370568519 -0.449747468289704
    vertex -37.076509927404 -396.07037056852 1.00000000001751
    vertex -37.0765099274053 -400.07037056852 1.00000000001613
  endloop
endfacet
facet normal 0.793353340291235 -4.7076736403136e-014 -0.608761429008721
  outer loop
    vertex -37.076509927404 -396.07037056852 1.00000000001751
    vertex -38.1889402855906 -400.070370568519 -0.449747468289704
    vertex -38.1889402855893 -396.070370568519 -0.449747468288327
  endloop
endfacet
facet normal 0.608761429008719 7.61518220704467e-014 -0.793353340291236
  outer loop
    vertex -39.6386877538951 -396.070370568518 -1.56217782647356
    vertex -38.1889402855906 -400.070370568519 -0.449747468289704
    vertex -39.6386877538964 -400.070370568518 -1.56217782647494
  endloop
endfacet
facet normal 0.608761429008719 7.61518220704467e-014 -0.793353340291236
  outer loop
    vertex -38.1889402855906 -400.070370568519 -0.449747468289704
    vertex -39.6386877538951 -396.070370568518 -1.56217782647356
    vertex -38.1889402855893 -396.070370568519 -0.449747468288327
  endloop
endfacet
facet normal 0.38268343236509 1.94190759716763e-013 -0.923879532511287
  outer loop
    vertex -41.3269544381775 -396.070370568517 -2.26148078400597
    vertex -39.6386877538964 -400.070370568518 -1.56217782647494
    vertex -41.3269544381788 -400.070370568517 -2.26148078400735
  endloop
endfacet
facet normal 0.38268343236509 1.94190759716763e-013 -0.923879532511287
  outer loop
    vertex -39.6386877538964 -400.070370568518 -1.56217782647494
    vertex -41.3269544381775 -396.070370568517 -2.26148078400597
    vertex -39.6386877538951 -396.070370568518 -1.56217782647356
  endloop
endfacet
facet normal -0.130526192241709 -3.08474217246284e-013 0.991444861370959
  outer loop
    vertex -42.1034115733841 -400.070370568518 0.636296694816205
    vertex -43.1386877538078 -396.070370568517 0.499999999948919
    vertex -43.1386877538089 -400.070370568517 0.499999999947525
  endloop
endfacet
facet normal -0.130526192241709 -3.08474217246284e-013 0.991444861370959
  outer loop
    vertex -43.1386877538078 -396.070370568517 0.499999999948919
    vertex -42.1034115733841 -400.070370568518 0.636296694816205
    vertex -42.1034115733829 -396.070370568518 0.6362966948176
  endloop
endfacet
facet normal -0.382683432344932 4.32979249143808e-013 -0.923879532519636
  outer loop
    vertex -42.1034115735516 -396.07037056852 8.36370330526265
    vertex -41.1386877539376 -400.070370568521 7.96410161525693
    vertex -42.1034115735528 -400.07037056852 8.36370330526125
  endloop
endfacet
facet normal -0.382683432344932 4.32979249143808e-013 -0.923879532519636
  outer loop
    vertex -41.1386877539376 -400.070370568521 7.96410161525693
    vertex -42.1034115735516 -396.07037056852 8.36370330526265
    vertex -41.1386877539365 -396.070370568521 7.96410161525833
  endloop
endfacet
facet normal -0.923879532502936 4.00203256318375e-013 -0.38268343238525
  outer loop
    vertex -39.6745861387416 -396.070370568521 6.50000000012744
    vertex -39.2749844486964 -400.070370568521 5.53527618052831
    vertex -39.6745861387428 -400.070370568521 6.50000000012604
  endloop
endfacet
facet normal -0.923879532502936 4.00203256318375e-013 -0.38268343238525
  outer loop
    vertex -39.2749844486964 -400.070370568521 5.53527618052831
    vertex -39.6745861387416 -396.070370568521 6.50000000012744
    vertex -39.2749844486952 -396.070370568521 5.53527618052971
  endloop
endfacet
facet normal -0.991444861376662 2.40525251625518e-013 0.130526192198393
  outer loop
    vertex -39.1386877538265 -396.07037056852 4.50000000010485
    vertex -39.2749844486511 -400.07037056852 3.46472381967264
    vertex -39.1386877538277 -400.07037056852 4.50000000010346
  endloop
endfacet
facet normal -0.991444861376662 2.40525251625518e-013 0.130526192198393
  outer loop
    vertex -39.2749844486511 -400.07037056852 3.46472381967264
    vertex -39.1386877538265 -396.07037056852 4.50000000010485
    vertex -39.27498444865 -396.07037056852 3.46472381967404
  endloop
endfacet
facet normal -0.923879532519644 1.32993623647521e-013 0.382683432344914
  outer loop
    vertex -39.27498444865 -396.07037056852 3.46472381967404
    vertex -39.6745861386554 -400.070370568519 2.50000000005746
    vertex -39.2749844486511 -400.07037056852 3.46472381967264
  endloop
endfacet
facet normal -0.923879532519644 1.32993623647521e-013 0.382683432344914
  outer loop
    vertex -39.6745861386554 -400.070370568519 2.50000000005746
    vertex -39.27498444865 -396.07037056852 3.46472381967404
    vertex -39.6745861386543 -396.070370568519 2.50000000005885
  endloop
endfacet
facet normal -0.130526192198392 3.83804556318073e-013 -0.991444861376662
  outer loop
    vertex -43.1386877539825 -396.07037056852 8.5000000000861
    vertex -42.1034115735528 -400.07037056852 8.36370330526125
    vertex -43.1386877539836 -400.07037056852 8.5000000000847
  endloop
endfacet
facet normal -0.130526192198392 3.83804556318073e-013 -0.991444861376662
  outer loop
    vertex -42.1034115735528 -400.07037056852 8.36370330526125
    vertex -43.1386877539825 -396.07037056852 8.5000000000861
    vertex -42.1034115735516 -396.07037056852 8.36370330526265
  endloop
endfacet
facet normal -0.382683432385257 -2.12121870046914e-013 0.923879532502933
  outer loop
    vertex -41.1386877537863 -400.070370568518 1.03589838486263
    vertex -42.1034115733829 -396.070370568518 0.6362966948176
    vertex -42.1034115733841 -400.070370568518 0.636296694816205
  endloop
endfacet
facet normal -0.382683432385257 -2.12121870046914e-013 0.923879532502933
  outer loop
    vertex -42.1034115733829 -396.070370568518 0.6362966948176
    vertex -41.1386877537863 -400.070370568518 1.03589838486263
    vertex -41.1386877537852 -396.070370568518 1.03589838486403
  endloop
endfacet
facet normal -0.60876142902605 -1.013137679518e-013 0.793353340277938
  outer loop
    vertex -40.3102606290398 -400.070370568519 1.67157287528319
    vertex -41.1386877537852 -396.070370568518 1.03589838486403
    vertex -41.1386877537863 -400.070370568518 1.03589838486263
  endloop
endfacet
facet normal -0.60876142902605 -1.013137679518e-013 0.793353340277938
  outer loop
    vertex -41.1386877537852 -396.070370568518 1.03589838486403
    vertex -40.3102606290398 -400.070370568519 1.67157287528319
    vertex -40.3102606290387 -396.070370568519 1.67157287528458
  endloop
endfacet
facet normal -0.793353340277937 4.41467840893808e-013 -0.608761429026052
  outer loop
    vertex -40.3102606291622 -396.070370568521 7.32842712487395
    vertex -39.6745861387428 -400.070370568521 6.50000000012604
    vertex -40.3102606291633 -400.070370568521 7.32842712487256
  endloop
endfacet
facet normal -0.793353340277937 4.41467840893808e-013 -0.608761429026052
  outer loop
    vertex -39.6745861387428 -400.070370568521 6.50000000012604
    vertex -40.3102606291622 -396.070370568521 7.32842712487395
    vertex -39.6745861387416 -396.070370568521 6.50000000012744
  endloop
endfacet
facet normal -0.991444861370959 3.31665481192006e-013 -0.130526192241711
  outer loop
    vertex -39.2749844486952 -396.070370568521 5.53527618052971
    vertex -39.1386877538277 -400.07037056852 4.50000000010346
    vertex -39.2749844486964 -400.070370568521 5.53527618052831
  endloop
endfacet
facet normal -0.991444861370959 3.31665481192006e-013 -0.130526192241711
  outer loop
    vertex -39.1386877538277 -400.07037056852 4.50000000010346
    vertex -39.2749844486952 -396.070370568521 5.53527618052971
    vertex -39.1386877538265 -396.07037056852 4.50000000010485
  endloop
endfacet
facet normal -0.608761428991401 4.52647121672426e-013 -0.793353340304525
  outer loop
    vertex -41.1386877539365 -396.070370568521 7.96410161525833
    vertex -40.3102606291633 -400.070370568521 7.32842712487256
    vertex -41.1386877539376 -400.070370568521 7.96410161525693
  endloop
endfacet
facet normal -0.608761428991401 4.52647121672426e-013 -0.793353340304525
  outer loop
    vertex -40.3102606291633 -400.070370568521 7.32842712487256
    vertex -41.1386877539365 -396.070370568521 7.96410161525833
    vertex -40.3102606291622 -396.070370568521 7.32842712487395
  endloop
endfacet
facet normal -0.793353340304519 1.63987000002957e-014 0.608761428991408
  outer loop
    vertex -39.6745861386543 -396.070370568519 2.50000000005885
    vertex -40.3102606290398 -400.070370568519 1.67157287528319
    vertex -39.6745861386554 -400.070370568519 2.50000000005746
  endloop
endfacet
facet normal -0.793353340304519 1.63987000002957e-014 0.608761428991408
  outer loop
    vertex -40.3102606290398 -400.070370568519 1.67157287528319
    vertex -39.6745861386543 -396.070370568519 2.50000000005885
    vertex -40.3102606290387 -396.070370568519 1.67157287528458
  endloop
endfacet
facet normal 1.0 -3.85019423750001e-014 1.05631381602825e-013
  outer loop
    vertex -47.1386877539582 -406.070370568519 -11.5000000000509
    vertex -47.1386877539615 -400.070370568516 -2.49999999998387
    vertex -47.1386877539625 -406.070370568519 20.5000000000859
  endloop
endfacet
facet normal 1.0 -3.85019423750001e-014 1.05631381602825e-013
  outer loop
    vertex -47.1386877539615 -400.070370568516 -2.49999999998387
    vertex -47.1386877539582 -406.070370568519 -11.5000000000509
    vertex -47.1386877539582 -396.070370568519 -11.5000000000509
  endloop
endfacet
facet normal 1.0 -3.85019423750001e-014 1.05631381602825e-013
  outer loop
    vertex -47.1386877539625 -406.070370568519 20.5000000000859
    vertex -47.1386877539615 -400.070370568516 -2.49999999998387
    vertex -47.1386877539615 -400.070370568517 0.499999999947525
  endloop
endfacet
facet normal 1.0 -3.85019423750001e-014 1.05631381602825e-013
  outer loop
    vertex -47.1386877539625 -406.070370568519 20.5000000000859
    vertex -47.1386877539615 -400.070370568517 0.499999999947525
    vertex -47.1386877539615 -400.07037056852 8.5000000000847
  endloop
endfacet
facet normal 1.0 -3.85019423750001e-014 1.05631381602825e-013
  outer loop
    vertex -47.1386877539625 -406.070370568519 20.5000000000859
    vertex -47.1386877539615 -400.07037056852 8.5000000000847
    vertex -47.1386877539619 -400.07037056852 11.5000000000161
  endloop
endfacet
facet normal 1.0 -3.85019423750001e-014 1.05631381602825e-013
  outer loop
    vertex -47.1386877539615 -400.070370568516 -2.49999999998387
    vertex -47.1386877539582 -396.070370568519 -11.5000000000509
    vertex -47.1386877539602 -396.070370568516 -2.49999999998249
  endloop
endfacet
facet normal 1.0 -3.85019423750001e-014 1.05631381602825e-013
  outer loop
    vertex -47.1386877539615 -400.070370568517 0.499999999947525
    vertex -47.1386877539604 -396.07037056852 8.5000000000861
    vertex -47.1386877539615 -400.07037056852 8.5000000000847
  endloop
endfacet
facet normal 1.0 -3.85019423750001e-014 1.05631381602825e-013
  outer loop
    vertex -47.1386877539604 -396.07037056852 8.5000000000861
    vertex -47.1386877539615 -400.070370568517 0.499999999947525
    vertex -47.1386877539604 -396.070370568517 0.499999999948919
  endloop
endfacet
facet normal 1.0 -3.85019423750001e-014 1.05631381602825e-013
  outer loop
    vertex -47.1386877539619 -400.07037056852 11.5000000000161
    vertex -47.1386877539625 -396.070370568519 20.5000000000859
    vertex -47.1386877539625 -406.070370568519 20.5000000000859
  endloop
endfacet
facet normal 1.0 -3.85019423750001e-014 1.05631381602825e-013
  outer loop
    vertex -47.1386877539625 -396.070370568519 20.5000000000859
    vertex -47.1386877539619 -400.07037056852 11.5000000000161
    vertex -47.1386877539606 -396.070370568521 11.5000000000175
  endloop
endfacet
facet normal 0.0 3.49126209912264e-013 -1.0
  outer loop
    vertex -47.1386877539604 -396.07037056852 8.5000000000861
    vertex -43.1386877539836 -400.07037056852 8.5000000000847
    vertex -47.1386877539615 -400.07037056852 8.5000000000847
  endloop
endfacet
facet normal 0.0 3.49126209912264e-013 -1.0
  outer loop
    vertex -43.1386877539836 -400.07037056852 8.5000000000847
    vertex -47.1386877539604 -396.07037056852 8.5000000000861
    vertex -43.1386877539825 -396.07037056852 8.5000000000861
  endloop
endfacet
facet normal 0.0 -3.49126209912264e-013 1.0
  outer loop
    vertex -43.1386877538089 -400.070370568517 0.499999999947525
    vertex -47.1386877539604 -396.070370568517 0.499999999948919
    vertex -47.1386877539615 -400.070370568517 0.499999999947525
  endloop
endfacet
facet normal 0.0 -3.49126209912264e-013 1.0
  outer loop
    vertex -47.1386877539604 -396.070370568517 0.499999999948919
    vertex -43.1386877538089 -400.070370568517 0.499999999947525
    vertex -43.1386877538078 -396.070370568517 0.499999999948919
  endloop
endfacet
facet normal 6.81963766907019e-013 1.0 3.89777720029804e-013
  outer loop
    vertex -38.1889402855893 -396.070370568519 -0.449747468288327
    vertex -43.1386877538078 -396.070370568517 0.499999999948919
    vertex -37.076509927404 -396.07037056852 1.00000000001751
  endloop
endfacet
facet normal 6.81963766907019e-013 1.0 3.89777720029804e-013
  outer loop
    vertex -43.1386877538078 -396.070370568517 0.499999999948919
    vertex -38.1889402855893 -396.070370568519 -0.449747468288327
    vertex -47.1386877539604 -396.070370568517 0.499999999948919
  endloop
endfacet
facet normal 6.81963766907019e-013 1.0 3.89777720029804e-013
  outer loop
    vertex -37.076509927404 -396.07037056852 1.00000000001751
    vertex -43.1386877538078 -396.070370568517 0.499999999948919
    vertex -42.1034115733829 -396.070370568518 0.6362966948176
  endloop
endfacet
facet normal 6.81963766907019e-013 1.0 3.89777720029804e-013
  outer loop
    vertex -37.076509927404 -396.07037056852 1.00000000001751
    vertex -42.1034115733829 -396.070370568518 0.6362966948176
    vertex -41.1386877537852 -396.070370568518 1.03589838486403
  endloop
endfacet
facet normal 6.81963766907019e-013 1.0 3.89777720029804e-013
  outer loop
    vertex -37.076509927404 -396.07037056852 1.00000000001751
    vertex -41.1386877537852 -396.070370568518 1.03589838486403
    vertex -36.3772069698716 -396.070370568521 2.68826668429986
  endloop
endfacet
facet normal 6.81963766907019e-013 1.0 3.89777720029804e-013
  outer loop
    vertex -36.3772069698716 -396.070370568521 2.68826668429986
    vertex -41.1386877537852 -396.070370568518 1.03589838486403
    vertex -40.3102606290387 -396.070370568519 1.67157287528458
  endloop
endfacet
facet normal 6.81963766907019e-013 1.0 3.89777720029804e-013
  outer loop
    vertex -36.3772069698716 -396.070370568521 2.68826668429986
    vertex -40.3102606290387 -396.070370568519 1.67157287528458
    vertex -39.6745861386543 -396.070370568519 2.50000000005885
  endloop
endfacet
facet normal 6.81963766907019e-013 1.0 3.89777720029804e-013
  outer loop
    vertex -36.3772069698716 -396.070370568521 2.68826668429986
    vertex -39.6745861386543 -396.070370568519 2.50000000005885
    vertex -39.27498444865 -396.07037056852 3.46472381967404
  endloop
endfacet
facet normal 6.81963766907019e-013 1.0 3.89777720029804e-013
  outer loop
    vertex -36.3772069698716 -396.070370568521 2.68826668429986
    vertex -39.27498444865 -396.07037056852 3.46472381967404
    vertex -36.1386877538951 -396.070370568522 4.50000000001751
  endloop
endfacet
facet normal 6.81963766907019e-013 1.0 3.89777720029804e-013
  outer loop
    vertex -36.1386877538951 -396.070370568522 4.50000000001751
    vertex -39.27498444865 -396.07037056852 3.46472381967404
    vertex -39.1386877538265 -396.07037056852 4.50000000010485
  endloop
endfacet
facet normal 6.81963766907019e-013 1.0 3.89777720029804e-013
  outer loop
    vertex -36.1386877538951 -396.070370568522 4.50000000001751
    vertex -39.1386877538265 -396.07037056852 4.50000000010485
    vertex -36.3772069698716 -396.070370568522 6.31173331573515
  endloop
endfacet
facet normal 6.81963766907019e-013 1.0 3.89777720029804e-013
  outer loop
    vertex -36.3772069698716 -396.070370568522 6.31173331573515
    vertex -39.1386877538265 -396.07037056852 4.50000000010485
    vertex -39.2749844486952 -396.070370568521 5.53527618052971
  endloop
endfacet
facet normal 6.81963766907019e-013 1.0 3.89777720029804e-013
  outer loop
    vertex -36.3772069698716 -396.070370568522 6.31173331573515
    vertex -39.2749844486952 -396.070370568521 5.53527618052971
    vertex -39.6745861387416 -396.070370568521 6.50000000012744
  endloop
endfacet
facet normal 6.81963766907019e-013 1.0 3.89777720029804e-013
  outer loop
    vertex -36.3772069698716 -396.070370568522 6.31173331573515
    vertex -39.6745861387416 -396.070370568521 6.50000000012744
    vertex -37.076509927404 -396.070370568523 8.0000000000175
  endloop
endfacet
facet normal 6.81963766907019e-013 1.0 3.89777720029804e-013
  outer loop
    vertex -37.076509927404 -396.070370568523 8.0000000000175
    vertex -39.6745861387416 -396.070370568521 6.50000000012744
    vertex -40.3102606291622 -396.070370568521 7.32842712487395
  endloop
endfacet
facet normal 6.81963766907019e-013 1.0 3.89777720029804e-013
  outer loop
    vertex -37.076509927404 -396.070370568523 8.0000000000175
    vertex -40.3102606291622 -396.070370568521 7.32842712487395
    vertex -41.1386877539365 -396.070370568521 7.96410161525833
  endloop
endfacet
facet normal 6.81963766907019e-013 1.0 3.89777720029804e-013
  outer loop
    vertex -37.076509927404 -396.070370568523 8.0000000000175
    vertex -41.1386877539365 -396.070370568521 7.96410161525833
    vertex -42.1034115735516 -396.07037056852 8.36370330526265
  endloop
endfacet
facet normal 6.81963766907019e-013 1.0 3.89777720029804e-013
  outer loop
    vertex -37.076509927404 -396.070370568523 8.0000000000175
    vertex -42.1034115735516 -396.07037056852 8.36370330526265
    vertex -38.1889402855893 -396.070370568523 9.44974746832334
  endloop
endfacet
facet normal 6.81963766907019e-013 1.0 3.89777720029804e-013
  outer loop
    vertex -38.1889402855893 -396.070370568523 9.44974746832334
    vertex -42.1034115735516 -396.07037056852 8.36370330526265
    vertex -43.1386877539825 -396.07037056852 8.5000000000861
  endloop
endfacet
facet normal 6.81963766907019e-013 1.0 3.89777720029804e-013
  outer loop
    vertex -85.0875764935347 -396.070370568519 -10.1117714323977
    vertex -82.1386877541011 -396.070370568519 -10.5000000000515
    vertex -85.1386877541011 -396.070370568519 -10.5000000000515
  endloop
endfacet
facet normal 6.81963766907019e-013 1.0 3.89777720029804e-013
  outer loop
    vertex -82.1386877541011 -396.070370568519 -10.5000000000515
    vertex -85.0875764935347 -396.070370568519 -10.1117714323977
    vertex -82.1897990146675 -396.070370568519 -10.1117714323977
  endloop
endfacet
facet normal 6.81963766907019e-013 1.0 3.89777720029804e-013
  outer loop
    vertex -82.1897990146675 -396.070370568519 -10.1117714323977
    vertex -85.0875764935347 -396.070370568519 -10.1117714323977
    vertex -84.9377258597778 -396.070370568519 -9.75000000005146
  endloop
endfacet
facet normal 6.81963766907019e-013 1.0 3.89777720029804e-013
  outer loop
    vertex -82.1897990146675 -396.070370568519 -10.1117714323977
    vertex -84.9377258597778 -396.070370568519 -9.75000000005146
    vertex -82.3396496484244 -396.070370568519 -9.75000000005146
  endloop
endfacet
facet normal 6.81963766907019e-013 1.0 3.89777720029804e-013
  outer loop
    vertex -82.3396496484244 -396.070370568519 -9.75000000005146
    vertex -84.9377258597778 -396.070370568519 -9.75000000005146
    vertex -84.6993479258809 -396.070370568519 -9.43933982827164
  endloop
endfacet
facet normal 6.81963766907019e-013 1.0 3.89777720029804e-013
  outer loop
    vertex -82.3396496484244 -396.070370568519 -9.75000000005146
    vertex -84.6993479258809 -396.070370568519 -9.43933982827164
    vertex -82.5780275823213 -396.070370568519 -9.43933982827164
  endloop
endfacet
facet normal 6.81963766907019e-013 1.0 3.89777720029804e-013
  outer loop
    vertex -82.5780275823213 -396.070370568519 -9.43933982827164
    vertex -84.6993479258809 -396.070370568519 -9.43933982827164
    vertex -84.3886877541011 -396.070370568519 -9.2009618943748
  endloop
endfacet
facet normal 6.81963766907019e-013 1.0 3.89777720029804e-013
  outer loop
    vertex -82.5780275823213 -396.070370568519 -9.43933982827164
    vertex -84.3886877541011 -396.070370568519 -9.2009618943748
    vertex -82.8886877541011 -396.070370568519 -9.2009618943748
  endloop
endfacet
facet normal 6.81963766907019e-013 1.0 3.89777720029804e-013
  outer loop
    vertex -82.8886877541011 -396.070370568519 -9.2009618943748
    vertex -84.3886877541011 -396.070370568519 -9.2009618943748
    vertex -84.0269163217549 -396.070370568519 -9.05111126061786
  endloop
endfacet
facet normal 6.81963766907019e-013 1.0 3.89777720029804e-013
  outer loop
    vertex -82.8886877541011 -396.070370568519 -9.2009618943748
    vertex -84.0269163217549 -396.070370568519 -9.05111126061786
    vertex -83.2504591864473 -396.070370568519 -9.05111126061786
  endloop
endfacet
facet normal 6.81963766907019e-013 1.0 3.89777720029804e-013
  outer loop
    vertex -83.2504591864473 -396.070370568519 -9.05111126061786
    vertex -84.0269163217549 -396.070370568519 -9.05111126061786
    vertex -83.6386877541011 -396.070370568519 -9.00000000005146
  endloop
endfacet
facet normal 6.81963766907019e-013 1.0 3.89777720029804e-013
  outer loop
    vertex -74.1386877540787 -396.070370568519 -5.50000000005146
    vertex -51.1386877541102 -396.070370568893 -5.50000000013818
    vertex -74.1386877540787 -396.070370568519 -10.5000000000515
  endloop
endfacet
facet normal 6.81963766907019e-013 1.0 3.89777720029804e-013
  outer loop
    vertex -84.0269163217597 -396.070370568519 18.0511112606516
    vertex -83.2504591864521 -396.070370568519 18.0511112606516
    vertex -83.6386877541059 -396.070370568519 18.0000000000852
  endloop
endfacet
facet normal 6.81963766907019e-013 1.0 3.89777720029804e-013
  outer loop
    vertex -83.2504591864521 -396.070370568519 18.0511112606516
    vertex -84.0269163217597 -396.070370568519 18.0511112606516
    vertex -82.8886877541059 -396.070370568519 18.2009618944086
  endloop
endfacet
facet normal 6.81963766907019e-013 1.0 3.89777720029804e-013
  outer loop
    vertex -82.8886877541059 -396.070370568519 18.2009618944086
    vertex -84.0269163217597 -396.070370568519 18.0511112606516
    vertex -84.3886877541059 -396.070370568519 18.2009618944086
  endloop
endfacet
facet normal 6.81963766907019e-013 1.0 3.89777720029804e-013
  outer loop
    vertex -82.8886877541059 -396.070370568519 18.2009618944086
    vertex -84.3886877541059 -396.070370568519 18.2009618944086
    vertex -84.6993479258857 -396.070370568519 18.4393398283054
  endloop
endfacet
facet normal 6.81963766907019e-013 1.0 3.89777720029804e-013
  outer loop
    vertex -82.8886877541059 -396.070370568519 18.2009618944086
    vertex -84.6993479258857 -396.070370568519 18.4393398283054
    vertex -82.5780275823261 -396.070370568519 18.4393398283054
  endloop
endfacet
facet normal 6.81963766907019e-013 1.0 3.89777720029804e-013
  outer loop
    vertex -82.5780275823261 -396.070370568519 18.4393398283054
    vertex -84.6993479258857 -396.070370568519 18.4393398283054
    vertex -84.9377258597826 -396.070370568519 18.7500000000852
  endloop
endfacet
facet normal 6.81963766907019e-013 1.0 3.89777720029804e-013
  outer loop
    vertex -82.5780275823261 -396.070370568519 18.4393398283054
    vertex -84.9377258597826 -396.070370568519 18.7500000000852
    vertex -82.3396496484292 -396.070370568519 18.7500000000852
  endloop
endfacet
facet normal 6.81963766907019e-013 1.0 3.89777720029804e-013
  outer loop
    vertex -82.3396496484292 -396.070370568519 18.7500000000852
    vertex -84.9377258597826 -396.070370568519 18.7500000000852
    vertex -85.0875764935395 -396.070370568519 19.1117714324315
  endloop
endfacet
facet normal 6.81963766907019e-013 1.0 3.89777720029804e-013
  outer loop
    vertex -82.3396496484292 -396.070370568519 18.7500000000852
    vertex -85.0875764935395 -396.070370568519 19.1117714324315
    vertex -82.1897990146723 -396.070370568519 19.1117714324315
  endloop
endfacet
facet normal 6.81963766907019e-013 1.0 3.89777720029804e-013
  outer loop
    vertex -82.1897990146723 -396.070370568519 19.1117714324315
    vertex -85.0875764935395 -396.070370568519 19.1117714324315
    vertex -85.1386877541059 -396.070370568519 19.5000000000852
  endloop
endfacet
facet normal 6.81963766907019e-013 1.0 3.89777720029804e-013
  outer loop
    vertex -82.1897990146723 -396.070370568519 19.1117714324315
    vertex -85.1386877541059 -396.070370568519 19.5000000000852
    vertex -82.1386877541059 -396.070370568519 19.5000000000852
  endloop
endfacet
facet normal 6.81963766907019e-013 1.0 3.89777720029804e-013
  outer loop
    vertex -82.1386877541059 -396.070370568519 19.5000000000852
    vertex -85.1386877541059 -396.070370568519 19.5000000000852
    vertex -85.1386877541059 -396.070370568519 22.5000000000852
  endloop
endfacet
facet normal 6.81963766907019e-013 1.0 3.89777720029804e-013
  outer loop
    vertex -82.1386877541059 -396.070370568519 19.5000000000852
    vertex -85.1386877541059 -396.070370568519 22.5000000000852
    vertex -74.1386877540835 -396.070370568519 19.5000000000852
  endloop
endfacet
facet normal 6.81963766907019e-013 1.0 3.89777720029804e-013
  outer loop
    vertex -74.1386877540835 -396.070370568519 19.5000000000852
    vertex -85.1386877541059 -396.070370568519 22.5000000000852
    vertex -59.6386877539625 -396.070370568519 20.5000000000842
  endloop
endfacet
facet normal 6.81963766907019e-013 1.0 3.89777720029804e-013
  outer loop
    vertex -59.6386877539625 -396.070370568519 20.5000000000842
    vertex -85.1386877541059 -396.070370568519 22.5000000000852
    vertex -62.6386877539628 -396.070370568519 22.5000000000842
  endloop
endfacet
facet normal 6.81963766907019e-013 1.0 3.89777720029804e-013
  outer loop
    vertex -85.1386877541011 -396.070370568519 -13.5000000000515
    vertex -59.6386877539582 -396.070370568519 -11.5000000000526
    vertex -62.638687753958 -396.070370568519 -13.5000000000526
  endloop
endfacet
facet normal 6.81963766907019e-013 1.0 3.89777720029804e-013
  outer loop
    vertex -59.6386877539582 -396.070370568519 -11.5000000000526
    vertex -85.1386877541011 -396.070370568519 -13.5000000000515
    vertex -85.1386877541011 -396.070370568519 -10.5000000000515
  endloop
endfacet
facet normal 6.81963766907019e-013 1.0 3.89777720029804e-013
  outer loop
    vertex -59.6386877539582 -396.070370568519 -11.5000000000526
    vertex -85.1386877541011 -396.070370568519 -10.5000000000515
    vertex -47.1386877539582 -396.070370568519 -11.5000000000509
  endloop
endfacet
facet normal 6.81963766907019e-013 1.0 3.89777720029804e-013
  outer loop
    vertex -47.1386877539582 -396.070370568519 -11.5000000000509
    vertex -85.1386877541011 -396.070370568519 -10.5000000000515
    vertex -74.1386877540787 -396.070370568519 -10.5000000000515
  endloop
endfacet
facet normal 6.81963766907019e-013 1.0 3.89777720029804e-013
  outer loop
    vertex -47.1386877539582 -396.070370568519 -11.5000000000509
    vertex -74.1386877540787 -396.070370568519 -10.5000000000515
    vertex -51.1386877541102 -396.070370568893 -5.50000000013818
  endloop
endfacet
facet normal 6.81963766907019e-013 1.0 3.89777720029804e-013
  outer loop
    vertex -47.1386877539582 -396.070370568519 -11.5000000000509
    vertex -51.1386877541102 -396.070370568893 -5.50000000013818
    vertex -47.1386877539602 -396.070370568516 -2.49999999998249
  endloop
endfacet
facet normal 6.81963766907019e-013 1.0 3.89777720029804e-013
  outer loop
    vertex -74.1386877540787 -396.070370568519 -10.5000000000515
    vertex -85.1386877541011 -396.070370568519 -10.5000000000515
    vertex -82.1386877541011 -396.070370568519 -10.5000000000515
  endloop
endfacet
facet normal 6.81963766907019e-013 1.0 3.89777720029804e-013
  outer loop
    vertex -47.1386877539602 -396.070370568516 -2.49999999998249
    vertex -51.1386877541102 -396.070370568893 -5.50000000013818
    vertex -51.1386877539478 -396.070370569057 14.4999999999985
  endloop
endfacet
facet normal 6.81963766907019e-013 1.0 3.89777720029804e-013
  outer loop
    vertex -47.1386877539602 -396.070370568516 -2.49999999998249
    vertex -51.1386877539478 -396.070370569057 14.4999999999985
    vertex -47.1386877539604 -396.070370568517 0.499999999948919
  endloop
endfacet
facet normal 6.81963766907019e-013 1.0 3.89777720029804e-013
  outer loop
    vertex -47.1386877539602 -396.070370568516 -2.49999999998249
    vertex -47.1386877539604 -396.070370568517 0.499999999948919
    vertex -43.1386877538951 -396.070370568516 -2.49999999998249
  endloop
endfacet
facet normal 6.81963766907019e-013 1.0 3.89777720029804e-013
  outer loop
    vertex -43.1386877538951 -396.070370568516 -2.49999999998249
    vertex -47.1386877539604 -396.070370568517 0.499999999948919
    vertex -41.3269544381775 -396.070370568517 -2.26148078400597
  endloop
endfacet
facet normal 6.81963766907019e-013 1.0 3.89777720029804e-013
  outer loop
    vertex -41.3269544381775 -396.070370568517 -2.26148078400597
    vertex -47.1386877539604 -396.070370568517 0.499999999948919
    vertex -39.6386877538951 -396.070370568518 -1.56217782647356
  endloop
endfacet
facet normal 6.81963766907019e-013 1.0 3.89777720029804e-013
  outer loop
    vertex -39.6386877538951 -396.070370568518 -1.56217782647356
    vertex -47.1386877539604 -396.070370568517 0.499999999948919
    vertex -38.1889402855893 -396.070370568519 -0.449747468288327
  endloop
endfacet
facet normal 6.81963766907019e-013 1.0 3.89777720029804e-013
  outer loop
    vertex -47.1386877539604 -396.070370568517 0.499999999948919
    vertex -51.1386877539478 -396.070370569057 14.4999999999985
    vertex -47.1386877539604 -396.07037056852 8.5000000000861
  endloop
endfacet
facet normal 6.81963766907019e-013 1.0 3.89777720029804e-013
  outer loop
    vertex -47.1386877539604 -396.07037056852 8.5000000000861
    vertex -51.1386877539478 -396.070370569057 14.4999999999985
    vertex -47.1386877539606 -396.070370568521 11.5000000000175
  endloop
endfacet
facet normal 6.81963766907019e-013 1.0 3.89777720029804e-013
  outer loop
    vertex -47.1386877539604 -396.07037056852 8.5000000000861
    vertex -47.1386877539606 -396.070370568521 11.5000000000175
    vertex -43.1386877539825 -396.07037056852 8.5000000000861
  endloop
endfacet
facet normal 6.81963766907019e-013 1.0 3.89777720029804e-013
  outer loop
    vertex -43.1386877539825 -396.07037056852 8.5000000000861
    vertex -47.1386877539606 -396.070370568521 11.5000000000175
    vertex -38.1889402855893 -396.070370568523 9.44974746832334
  endloop
endfacet
facet normal 6.81963766907019e-013 1.0 3.89777720029804e-013
  outer loop
    vertex -38.1889402855893 -396.070370568523 9.44974746832334
    vertex -47.1386877539606 -396.070370568521 11.5000000000175
    vertex -39.6386877538951 -396.070370568522 10.5621778265086
  endloop
endfacet
facet normal 6.81963766907019e-013 1.0 3.89777720029804e-013
  outer loop
    vertex -39.6386877538951 -396.070370568522 10.5621778265086
    vertex -47.1386877539606 -396.070370568521 11.5000000000175
    vertex -41.3269544381775 -396.070370568522 11.261480784041
  endloop
endfacet
facet normal 6.81963766907019e-013 1.0 3.89777720029804e-013
  outer loop
    vertex -47.1386877539606 -396.070370568521 11.5000000000175
    vertex -51.1386877539478 -396.070370569057 14.4999999999985
    vertex -47.1386877539625 -396.070370568519 20.5000000000859
  endloop
endfacet
facet normal 6.81963766907019e-013 1.0 3.89777720029804e-013
  outer loop
    vertex -47.1386877539625 -396.070370568519 20.5000000000859
    vertex -51.1386877539478 -396.070370569057 14.4999999999985
    vertex -74.1386877539164 -396.070370568682 14.5000000000852
  endloop
endfacet
facet normal 6.81963766907019e-013 1.0 3.89777720029804e-013
  outer loop
    vertex -47.1386877539625 -396.070370568519 20.5000000000859
    vertex -74.1386877539164 -396.070370568682 14.5000000000852
    vertex -74.1386877540835 -396.070370568519 19.5000000000852
  endloop
endfacet
facet normal 6.81963766907019e-013 1.0 3.89777720029804e-013
  outer loop
    vertex -47.1386877539625 -396.070370568519 20.5000000000859
    vertex -74.1386877540835 -396.070370568519 19.5000000000852
    vertex -59.6386877539625 -396.070370568519 20.5000000000842
  endloop
endfacet
facet normal 6.81963766907019e-013 1.0 3.89777720029804e-013
  outer loop
    vertex -43.1386877538951 -396.070370568521 11.5000000000175
    vertex -41.3269544381775 -396.070370568522 11.261480784041
    vertex -47.1386877539606 -396.070370568521 11.5000000000175
  endloop
endfacet
endsolid Omnidroid
