solid Omnidroid
facet normal -1.0 -1.54285947697324e-015 -1.70745013557759e-013
  outer loop
    vertex -51.6386877539628 -404.598062198729 15.9162360964389
    vertex -51.638687753958 -406.070370568519 -8.59508203118131
    vertex -51.6386877539628 -406.070370568519 17.5950820312151
  endloop
endfacet
facet normal -1.0 -1.54285947697324e-015 -1.70745013557759e-013
  outer loop
    vertex -51.638687753958 -406.070370568519 -8.59508203118131
    vertex -51.6386877539628 -404.598062198729 15.9162360964389
    vertex -51.638687753958 -404.598062198729 -6.91623609640516
  endloop
endfacet
facet normal -1.0 -1.54285947697324e-015 -1.70745013557759e-013
  outer loop
    vertex -51.638687753958 -404.598062198729 -6.91623609640516
    vertex -51.6386877539628 -404.598062198729 15.9162360964389
    vertex -51.6386877539628 -404.070370568519 15.1264897617559
  endloop
endfacet
facet normal -1.0 -1.54285947697324e-015 -1.70745013557759e-013
  outer loop
    vertex -51.638687753958 -404.598062198729 -6.91623609640516
    vertex -51.6386877539628 -404.070370568519 15.1264897617559
    vertex -51.638687753958 -404.070370568519 -6.12648976172219
  endloop
endfacet
facet normal -1.0 -1.54285947697324e-015 -1.70745013557759e-013
  outer loop
    vertex -51.638687753958 -404.070370568519 -6.12648976172219
    vertex -51.6386877539628 -404.070370568519 15.1264897617559
    vertex -51.6386877539628 -399.569956638046 17.7248049559787
  endloop
endfacet
facet normal -1.0 -1.54285947697324e-015 -1.70745013557759e-013
  outer loop
    vertex -51.638687753958 -404.070370568519 -6.12648976172219
    vertex -51.6386877539628 -399.569956638046 17.7248049559787
    vertex -51.6386877539579 -399.569956638046 -8.72480495594498
  endloop
endfacet
facet normal -1.0 -1.54285947697324e-015 -1.70745013557759e-013
  outer loop
    vertex -51.6386877539579 -399.569956638046 -8.72480495594498
    vertex -51.6386877539628 -399.569956638046 17.7248049559787
    vertex -51.6386877539628 -399.070370568519 16.7117446229482
  endloop
endfacet
facet normal -1.0 -1.54285947697324e-015 -1.70745013557759e-013
  outer loop
    vertex -51.6386877539579 -399.569956638046 -8.72480495594498
    vertex -51.6386877539628 -399.070370568519 16.7117446229482
    vertex -51.638687753958 -399.070370568519 -7.71174462291448
  endloop
endfacet
facet normal 1.0 2.42250711703739e-029 1.33914568322662e-013
  outer loop
    vertex -47.6386877539583 -399.070370568519 -11.500000000051
    vertex -47.6386877539626 -406.070370568519 20.5000000000858
    vertex -47.6386877539583 -406.070370568519 -11.500000000051
  endloop
endfacet
facet normal 1.0 2.42250711703739e-029 1.33914568322662e-013
  outer loop
    vertex -47.6386877539626 -406.070370568519 20.5000000000858
    vertex -47.6386877539583 -399.070370568519 -11.500000000051
    vertex -47.6386877539626 -399.070370568519 20.5000000000858
  endloop
endfacet
facet normal -1.0 2.99912784526343e-015 -3.08119970503141e-015
  outer loop
    vertex -74.1386877540835 -399.070370568519 19.5000000000852
    vertex -74.1386877540835 -406.070370568519 17.595082031215
    vertex -74.1386877540835 -406.070370568519 19.5000000000852
  endloop
endfacet
facet normal -1.0 2.99912784526343e-015 -3.08119970503141e-015
  outer loop
    vertex -74.1386877540835 -406.070370568519 17.595082031215
    vertex -74.1386877540835 -399.070370568519 19.5000000000852
    vertex -74.1386877540835 -404.598062198729 15.9162360964389
  endloop
endfacet
facet normal -1.0 2.99912784526343e-015 -3.08119970503141e-015
  outer loop
    vertex -74.1386877540835 -404.598062198729 15.9162360964389
    vertex -74.1386877540835 -399.070370568519 19.5000000000852
    vertex -74.1386877540835 -404.070370568519 15.1264897617559
  endloop
endfacet
facet normal -1.0 2.99912784526343e-015 -3.08119970503141e-015
  outer loop
    vertex -74.1386877540835 -404.070370568519 15.1264897617559
    vertex -74.1386877540835 -399.070370568519 19.5000000000852
    vertex -74.1386877540835 -399.569956638046 17.7248049559787
  endloop
endfacet
facet normal -1.0 2.99912784526343e-015 -3.08119970503141e-015
  outer loop
    vertex -74.1386877540835 -399.569956638046 17.7248049559787
    vertex -74.1386877540835 -399.070370568519 19.5000000000852
    vertex -74.1386877540835 -399.070370568519 16.7117446229482
  endloop
endfacet
facet normal 1.48112620369124e-015 -0.751839807478992 -0.659345815100052
  outer loop
    vertex -51.6386877539628 -404.598062198729 15.9162360964389
    vertex -74.1386877540835 -406.070370568519 17.595082031215
    vertex -74.1386877540835 -404.598062198729 15.9162360964389
  endloop
endfacet
facet normal 1.48112620369124e-015 -0.751839807478992 -0.659345815100052
  outer loop
    vertex -74.1386877540835 -406.070370568519 17.595082031215
    vertex -51.6386877539628 -404.598062198729 15.9162360964389
    vertex -51.6386877539628 -406.070370568519 17.5950820312151
  endloop
endfacet
facet normal 9.34818548633281e-016 -0.896872741532684 -0.442288690219009
  outer loop
    vertex -51.6386877539628 -399.070370568519 16.7117446229482
    vertex -74.1386877540835 -399.569956638046 17.7248049559787
    vertex -74.1386877540835 -399.070370568519 16.7117446229482
  endloop
endfacet
facet normal 9.34818548633281e-016 -0.896872741532684 -0.442288690219009
  outer loop
    vertex -74.1386877540835 -399.569956638046 17.7248049559787
    vertex -51.6386877539628 -399.070370568519 16.7117446229482
    vertex -51.6386877539628 -399.569956638046 17.7248049559787
  endloop
endfacet
facet normal 1.21127533329308e-015 -0.831469612302502 -0.555570233019667
  outer loop
    vertex -51.6386877539628 -404.070370568519 15.1264897617559
    vertex -74.1386877540835 -404.598062198729 15.9162360964389
    vertex -74.1386877540835 -404.070370568519 15.1264897617559
  endloop
endfacet
facet normal 1.21127533329308e-015 -0.831469612302502 -0.555570233019667
  outer loop
    vertex -74.1386877540835 -404.598062198729 15.9162360964389
    vertex -51.6386877539628 -404.070370568519 15.1264897617559
    vertex -51.6386877539628 -404.598062198729 15.9162360964389
  endloop
endfacet
facet normal 1.8431165145803e-015 0.499999999999985 -0.866025403784447
  outer loop
    vertex -74.1386877540835 -399.569956638046 17.7248049559787
    vertex -51.6386877539628 -404.070370568519 15.1264897617559
    vertex -74.1386877540835 -404.070370568519 15.1264897617559
  endloop
endfacet
facet normal 1.8431165145803e-015 0.499999999999985 -0.866025403784447
  outer loop
    vertex -51.6386877539628 -404.070370568519 15.1264897617559
    vertex -74.1386877540835 -399.569956638046 17.7248049559787
    vertex -51.6386877539628 -399.569956638046 17.7248049559787
  endloop
endfacet
facet normal 0.554700196225264 0.0 -0.83205029433782
  outer loop
    vertex -59.6386877539582 -399.070370568519 -11.5000000000526
    vertex -62.638687753958 -406.070370568519 -13.5000000000526
    vertex -62.638687753958 -399.070370568519 -13.5000000000526
  endloop
endfacet
facet normal 0.554700196225264 0.0 -0.83205029433782
  outer loop
    vertex -62.638687753958 -406.070370568519 -13.5000000000526
    vertex -59.6386877539582 -399.070370568519 -11.5000000000526
    vertex -59.6386877539582 -406.070370568519 -11.5000000000526
  endloop
endfacet
facet normal 1.35719346872065e-013 0.0 -1.0
  outer loop
    vertex -47.6386877539583 -399.070370568519 -11.500000000051
    vertex -59.6386877539582 -406.070370568519 -11.5000000000526
    vertex -59.6386877539582 -399.070370568519 -11.5000000000526
  endloop
endfacet
facet normal 1.35719346872065e-013 0.0 -1.0
  outer loop
    vertex -59.6386877539582 -406.070370568519 -11.5000000000526
    vertex -47.6386877539583 -399.070370568519 -11.500000000051
    vertex -47.6386877539583 -406.070370568519 -11.500000000051
  endloop
endfacet
facet normal 0.0 0.0 1.0
  outer loop
    vertex -74.1386877540787 -406.070370568519 -10.5000000000515
    vertex -82.1386877541011 -399.070370568519 -10.5000000000515
    vertex -82.1386877541011 -406.070370568519 -10.5000000000515
  endloop
endfacet
facet normal 0.0 0.0 1.0
  outer loop
    vertex -82.1386877541011 -399.070370568519 -10.5000000000515
    vertex -74.1386877540787 -406.070370568519 -10.5000000000515
    vertex -74.1386877540787 -399.070370568519 -10.5000000000515
  endloop
endfacet
facet normal 0.382683432365103 0.0 0.923879532511282
  outer loop
    vertex -82.8886877541011 -406.070370568519 -9.2009618943748
    vertex -83.2504591864473 -399.070370568519 -9.05111126061786
    vertex -83.2504591864473 -406.070370568519 -9.05111126061786
  endloop
endfacet
facet normal 0.382683432365103 0.0 0.923879532511282
  outer loop
    vertex -83.2504591864473 -399.070370568519 -9.05111126061786
    vertex -82.8886877541011 -406.070370568519 -9.2009618943748
    vertex -82.8886877541011 -399.070370568519 -9.2009618943748
  endloop
endfacet
facet normal 1.43661485324027e-015 -0.751839807478981 0.659345815100065
  outer loop
    vertex -51.638687753958 -404.598062198729 -6.91623609640516
    vertex -74.1386877540787 -406.070370568519 -8.59508203118126
    vertex -51.638687753958 -406.070370568519 -8.59508203118131
  endloop
endfacet
facet normal 1.43661485324027e-015 -0.751839807478981 0.659345815100065
  outer loop
    vertex -74.1386877540787 -406.070370568519 -8.59508203118126
    vertex -51.638687753958 -404.598062198729 -6.91623609640516
    vertex -74.1386877540787 -404.598062198729 -6.91623609640511
  endloop
endfacet
facet normal -0.923879532511293 0.0 0.382683432365074
  outer loop
    vertex -84.9377258597778 -399.070370568519 -9.75000000005146
    vertex -85.0875764935347 -406.070370568519 -10.1117714323977
    vertex -84.9377258597778 -406.070370568519 -9.75000000005146
  endloop
endfacet
facet normal -0.923879532511293 0.0 0.382683432365074
  outer loop
    vertex -85.0875764935347 -406.070370568519 -10.1117714323977
    vertex -84.9377258597778 -399.070370568519 -9.75000000005146
    vertex -85.0875764935347 -399.070370568519 -10.1117714323977
  endloop
endfacet
facet normal -0.99144486137381 0.0 0.130526192220056
  outer loop
    vertex -85.0875764935347 -399.070370568519 -10.1117714323977
    vertex -85.1386877541011 -406.070370568519 -10.5000000000515
    vertex -85.0875764935347 -406.070370568519 -10.1117714323977
  endloop
endfacet
facet normal -0.99144486137381 0.0 0.130526192220056
  outer loop
    vertex -85.1386877541011 -406.070370568519 -10.5000000000515
    vertex -85.0875764935347 -399.070370568519 -10.1117714323977
    vertex -85.1386877541011 -399.070370568519 -10.5000000000515
  endloop
endfacet
facet normal 1.88632829383599e-015 0.499999999999984 0.866025403784448
  outer loop
    vertex -51.638687753958 -404.070370568519 -6.12648976172219
    vertex -74.1386877540787 -399.569956638046 -8.72480495594493
    vertex -74.1386877540787 -404.070370568519 -6.12648976172214
  endloop
endfacet
facet normal 1.88632829383599e-015 0.499999999999984 0.866025403784448
  outer loop
    vertex -74.1386877540787 -399.569956638046 -8.72480495594493
    vertex -51.638687753958 -404.070370568519 -6.12648976172219
    vertex -51.6386877539579 -399.569956638046 -8.72480495594498
  endloop
endfacet
facet normal -0.130526192220058 0.0 0.99144486137381
  outer loop
    vertex -83.6386877541011 -406.070370568519 -9.00000000005146
    vertex -84.0269163217549 -399.070370568519 -9.05111126061786
    vertex -84.0269163217549 -406.070370568519 -9.05111126061786
  endloop
endfacet
facet normal -0.130526192220058 0.0 0.99144486137381
  outer loop
    vertex -84.0269163217549 -399.070370568519 -9.05111126061786
    vertex -83.6386877541011 -406.070370568519 -9.00000000005146
    vertex -83.6386877541011 -399.070370568519 -9.00000000005146
  endloop
endfacet
facet normal 0.923879532511293 0.0 0.382683432365074
  outer loop
    vertex -82.1897990146675 -399.070370568519 -10.1117714323977
    vertex -82.3396496484244 -406.070370568519 -9.75000000005146
    vertex -82.1897990146675 -406.070370568519 -10.1117714323977
  endloop
endfacet
facet normal 0.923879532511293 0.0 0.382683432365074
  outer loop
    vertex -82.3396496484244 -406.070370568519 -9.75000000005146
    vertex -82.1897990146675 -399.070370568519 -10.1117714323977
    vertex -82.3396496484244 -399.070370568519 -9.75000000005146
  endloop
endfacet
facet normal 0.608761429008714 0.0 0.79335334029124
  outer loop
    vertex -82.5780275823213 -406.070370568519 -9.43933982827164
    vertex -82.8886877541011 -399.070370568519 -9.2009618943748
    vertex -82.8886877541011 -406.070370568519 -9.2009618943748
  endloop
endfacet
facet normal 0.608761429008714 0.0 0.79335334029124
  outer loop
    vertex -82.8886877541011 -399.070370568519 -9.2009618943748
    vertex -82.5780275823213 -406.070370568519 -9.43933982827164
    vertex -82.5780275823213 -399.070370568519 -9.43933982827164
  endloop
endfacet
facet normal 9.65519655480919e-016 -0.896872741532684 0.442288690219011
  outer loop
    vertex -51.638687753958 -399.070370568519 -7.71174462291448
    vertex -74.1386877540787 -399.569956638046 -8.72480495594493
    vertex -51.6386877539579 -399.569956638046 -8.72480495594498
  endloop
endfacet
facet normal 9.65519655480919e-016 -0.896872741532684 0.442288690219011
  outer loop
    vertex -74.1386877540787 -399.569956638046 -8.72480495594493
    vertex -51.638687753958 -399.070370568519 -7.71174462291448
    vertex -74.1386877540787 -399.070370568519 -7.71174462291443
  endloop
endfacet
facet normal 0.99144486137381 0.0 0.130526192220056
  outer loop
    vertex -82.1386877541011 -399.070370568519 -10.5000000000515
    vertex -82.1897990146675 -406.070370568519 -10.1117714323977
    vertex -82.1386877541011 -406.070370568519 -10.5000000000515
  endloop
endfacet
facet normal 0.99144486137381 0.0 0.130526192220056
  outer loop
    vertex -82.1897990146675 -406.070370568519 -10.1117714323977
    vertex -82.1386877541011 -399.070370568519 -10.5000000000515
    vertex -82.1897990146675 -399.070370568519 -10.1117714323977
  endloop
endfacet
facet normal 1.21288298330336e-015 -0.831469612302502 0.555570233019667
  outer loop
    vertex -51.638687753958 -404.070370568519 -6.12648976172219
    vertex -74.1386877540787 -404.598062198729 -6.91623609640511
    vertex -51.638687753958 -404.598062198729 -6.91623609640516
  endloop
endfacet
facet normal 1.21288298330336e-015 -0.831469612302502 0.555570233019667
  outer loop
    vertex -74.1386877540787 -404.598062198729 -6.91623609640511
    vertex -51.638687753958 -404.070370568519 -6.12648976172219
    vertex -74.1386877540787 -404.070370568519 -6.12648976172214
  endloop
endfacet
facet normal 0.793353340291235 0.0 0.608761429008721
  outer loop
    vertex -82.3396496484244 -399.070370568519 -9.75000000005146
    vertex -82.5780275823213 -406.070370568519 -9.43933982827164
    vertex -82.3396496484244 -406.070370568519 -9.75000000005146
  endloop
endfacet
facet normal 0.793353340291235 0.0 0.608761429008721
  outer loop
    vertex -82.5780275823213 -406.070370568519 -9.43933982827164
    vertex -82.3396496484244 -399.070370568519 -9.75000000005146
    vertex -82.5780275823213 -399.070370568519 -9.43933982827164
  endloop
endfacet
facet normal 0.130526192220052 -7.1078683145045e-031 0.99144486137381
  outer loop
    vertex -83.2504591864473 -406.070370568519 -9.05111126061786
    vertex -83.6386877541011 -399.070370568519 -9.00000000005146
    vertex -83.6386877541011 -406.070370568519 -9.00000000005146
  endloop
endfacet
facet normal 0.130526192220052 -7.1078683145045e-031 0.99144486137381
  outer loop
    vertex -83.6386877541011 -399.070370568519 -9.00000000005146
    vertex -83.2504591864473 -406.070370568519 -9.05111126061786
    vertex -83.2504591864473 -399.070370568519 -9.05111126061786
  endloop
endfacet
facet normal -1.0 2.99912784526341e-015 3.08119970503139e-015
  outer loop
    vertex -74.1386877540787 -404.598062198729 -6.91623609640511
    vertex -74.1386877540787 -406.070370568519 -10.5000000000515
    vertex -74.1386877540787 -406.070370568519 -8.59508203118126
  endloop
endfacet
facet normal -1.0 2.99912784526341e-015 3.08119970503139e-015
  outer loop
    vertex -74.1386877540787 -406.070370568519 -10.5000000000515
    vertex -74.1386877540787 -404.598062198729 -6.91623609640511
    vertex -74.1386877540787 -399.070370568519 -10.5000000000515
  endloop
endfacet
facet normal -1.0 2.99912784526341e-015 3.08119970503139e-015
  outer loop
    vertex -74.1386877540787 -399.070370568519 -10.5000000000515
    vertex -74.1386877540787 -404.598062198729 -6.91623609640511
    vertex -74.1386877540787 -404.070370568519 -6.12648976172214
  endloop
endfacet
facet normal -1.0 2.99912784526341e-015 3.08119970503139e-015
  outer loop
    vertex -74.1386877540787 -399.070370568519 -10.5000000000515
    vertex -74.1386877540787 -404.070370568519 -6.12648976172214
    vertex -74.1386877540787 -399.569956638046 -8.72480495594493
  endloop
endfacet
facet normal -1.0 2.99912784526341e-015 3.08119970503139e-015
  outer loop
    vertex -74.1386877540787 -399.070370568519 -10.5000000000515
    vertex -74.1386877540787 -399.569956638046 -8.72480495594493
    vertex -74.1386877540787 -399.070370568519 -7.71174462291443
  endloop
endfacet
facet normal -1.0 0.0 0.0
  outer loop
    vertex -85.1386877541011 -399.070370568519 -10.5000000000515
    vertex -85.1386877541011 -406.070370568519 -13.5000000000515
    vertex -85.1386877541011 -406.070370568519 -10.5000000000515
  endloop
endfacet
facet normal -1.0 0.0 0.0
  outer loop
    vertex -85.1386877541011 -406.070370568519 -13.5000000000515
    vertex -85.1386877541011 -399.070370568519 -10.5000000000515
    vertex -85.1386877541011 -399.070370568519 -13.5000000000515
  endloop
endfacet
facet normal -0.382683432365082 0.0 0.92387953251129
  outer loop
    vertex -84.0269163217549 -406.070370568519 -9.05111126061786
    vertex -84.3886877541011 -399.070370568519 -9.2009618943748
    vertex -84.3886877541011 -406.070370568519 -9.2009618943748
  endloop
endfacet
facet normal -0.382683432365082 0.0 0.92387953251129
  outer loop
    vertex -84.3886877541011 -399.070370568519 -9.2009618943748
    vertex -84.0269163217549 -406.070370568519 -9.05111126061786
    vertex -84.0269163217549 -399.070370568519 -9.05111126061786
  endloop
endfacet
facet normal -0.608761429008722 3.31504045184185e-030 0.793353340291235
  outer loop
    vertex -84.3886877541011 -406.070370568519 -9.2009618943748
    vertex -84.6993479258809 -399.070370568519 -9.43933982827164
    vertex -84.6993479258809 -406.070370568519 -9.43933982827164
  endloop
endfacet
facet normal -0.608761429008722 3.31504045184185e-030 0.793353340291235
  outer loop
    vertex -84.6993479258809 -399.070370568519 -9.43933982827164
    vertex -84.3886877541011 -406.070370568519 -9.2009618943748
    vertex -84.3886877541011 -399.070370568519 -9.2009618943748
  endloop
endfacet
facet normal -0.793353340291235 0.0 0.608761429008721
  outer loop
    vertex -84.6993479258809 -399.070370568519 -9.43933982827164
    vertex -84.9377258597778 -406.070370568519 -9.75000000005146
    vertex -84.6993479258809 -406.070370568519 -9.43933982827164
  endloop
endfacet
facet normal -0.793353340291235 0.0 0.608761429008721
  outer loop
    vertex -84.9377258597778 -406.070370568519 -9.75000000005146
    vertex -84.6993479258809 -399.070370568519 -9.43933982827164
    vertex -84.9377258597778 -399.070370568519 -9.75000000005146
  endloop
endfacet
facet normal -1.34275524033001e-013 0.0 1.0
  outer loop
    vertex -47.6386877539626 -406.070370568519 20.5000000000858
    vertex -59.6386877539625 -399.070370568519 20.5000000000842
    vertex -59.6386877539625 -406.070370568519 20.5000000000842
  endloop
endfacet
facet normal -1.34275524033001e-013 0.0 1.0
  outer loop
    vertex -59.6386877539625 -399.070370568519 20.5000000000842
    vertex -47.6386877539626 -406.070370568519 20.5000000000858
    vertex -47.6386877539626 -399.070370568519 20.5000000000858
  endloop
endfacet
facet normal 0.554700196225196 0.0 0.832050294337866
  outer loop
    vertex -59.6386877539625 -406.070370568519 20.5000000000842
    vertex -62.6386877539628 -399.070370568519 22.5000000000842
    vertex -62.6386877539628 -406.070370568519 22.5000000000842
  endloop
endfacet
facet normal 0.554700196225196 0.0 0.832050294337866
  outer loop
    vertex -62.6386877539628 -399.070370568519 22.5000000000842
    vertex -59.6386877539625 -406.070370568519 20.5000000000842
    vertex -59.6386877539625 -399.070370568519 20.5000000000842
  endloop
endfacet
facet normal 0.382683432365094 0.0 -0.923879532511285
  outer loop
    vertex -82.8886877541059 -399.070370568519 18.2009618944086
    vertex -83.2504591864521 -406.070370568519 18.0511112606516
    vertex -83.2504591864521 -399.070370568519 18.0511112606516
  endloop
endfacet
facet normal 0.382683432365094 0.0 -0.923879532511285
  outer loop
    vertex -83.2504591864521 -406.070370568519 18.0511112606516
    vertex -82.8886877541059 -399.070370568519 18.2009618944086
    vertex -82.8886877541059 -406.070370568519 18.2009618944086
  endloop
endfacet
facet normal -0.923879532511293 0.0 -0.382683432365074
  outer loop
    vertex -85.0875764935395 -399.070370568519 19.1117714324314
    vertex -84.9377258597826 -406.070370568519 18.7500000000852
    vertex -85.0875764935395 -406.070370568519 19.1117714324314
  endloop
endfacet
facet normal -0.923879532511293 0.0 -0.382683432365074
  outer loop
    vertex -84.9377258597826 -406.070370568519 18.7500000000852
    vertex -85.0875764935395 -399.070370568519 19.1117714324314
    vertex -84.9377258597826 -399.070370568519 18.7500000000852
  endloop
endfacet
facet normal -0.99144486137381 0.0 -0.130526192220056
  outer loop
    vertex -85.1386877541059 -399.070370568519 19.5000000000852
    vertex -85.0875764935395 -406.070370568519 19.1117714324314
    vertex -85.1386877541059 -406.070370568519 19.5000000000852
  endloop
endfacet
facet normal -0.99144486137381 0.0 -0.130526192220056
  outer loop
    vertex -85.0875764935395 -406.070370568519 19.1117714324314
    vertex -85.1386877541059 -399.070370568519 19.5000000000852
    vertex -85.0875764935395 -399.070370568519 19.1117714324314
  endloop
endfacet
facet normal 0.793353340291235 0.0 -0.608761429008722
  outer loop
    vertex -82.5780275823261 -399.070370568519 18.4393398283054
    vertex -82.3396496484292 -406.070370568519 18.7500000000852
    vertex -82.5780275823261 -406.070370568519 18.4393398283054
  endloop
endfacet
facet normal 0.793353340291235 0.0 -0.608761429008722
  outer loop
    vertex -82.3396496484292 -406.070370568519 18.7500000000852
    vertex -82.5780275823261 -399.070370568519 18.4393398283054
    vertex -82.3396496484292 -399.070370568519 18.7500000000852
  endloop
endfacet
facet normal -1.0 0.0 0.0
  outer loop
    vertex -85.1386877541059 -399.070370568519 22.5000000000852
    vertex -85.1386877541059 -406.070370568519 19.5000000000852
    vertex -85.1386877541059 -406.070370568519 22.5000000000852
  endloop
endfacet
facet normal -1.0 0.0 0.0
  outer loop
    vertex -85.1386877541059 -406.070370568519 19.5000000000852
    vertex -85.1386877541059 -399.070370568519 22.5000000000852
    vertex -85.1386877541059 -399.070370568519 19.5000000000852
  endloop
endfacet
facet normal 0.130526192220045 0.0 -0.991444861373811
  outer loop
    vertex -83.2504591864521 -399.070370568519 18.0511112606516
    vertex -83.6386877541059 -406.070370568519 18.0000000000852
    vertex -83.6386877541059 -399.070370568519 18.0000000000852
  endloop
endfacet
facet normal 0.130526192220045 0.0 -0.991444861373811
  outer loop
    vertex -83.6386877541059 -406.070370568519 18.0000000000852
    vertex -83.2504591864521 -399.070370568519 18.0511112606516
    vertex -83.2504591864521 -406.070370568519 18.0511112606516
  endloop
endfacet
facet normal -0.13052619222005 0.0 -0.991444861373811
  outer loop
    vertex -83.6386877541059 -399.070370568519 18.0000000000852
    vertex -84.0269163217597 -406.070370568519 18.0511112606516
    vertex -84.0269163217597 -399.070370568519 18.0511112606516
  endloop
endfacet
facet normal -0.13052619222005 0.0 -0.991444861373811
  outer loop
    vertex -84.0269163217597 -406.070370568519 18.0511112606516
    vertex -83.6386877541059 -399.070370568519 18.0000000000852
    vertex -83.6386877541059 -406.070370568519 18.0000000000852
  endloop
endfacet
facet normal 0.99144486137381 0.0 -0.130526192220056
  outer loop
    vertex -82.1897990146723 -399.070370568519 19.1117714324314
    vertex -82.1386877541059 -406.070370568519 19.5000000000852
    vertex -82.1897990146723 -406.070370568519 19.1117714324314
  endloop
endfacet
facet normal 0.99144486137381 0.0 -0.130526192220056
  outer loop
    vertex -82.1386877541059 -406.070370568519 19.5000000000852
    vertex -82.1897990146723 -399.070370568519 19.1117714324314
    vertex -82.1386877541059 -399.070370568519 19.5000000000852
  endloop
endfacet
facet normal 0.923879532511293 0.0 -0.382683432365074
  outer loop
    vertex -82.3396496484292 -399.070370568519 18.7500000000852
    vertex -82.1897990146723 -406.070370568519 19.1117714324314
    vertex -82.3396496484292 -406.070370568519 18.7500000000852
  endloop
endfacet
facet normal 0.923879532511293 0.0 -0.382683432365074
  outer loop
    vertex -82.1897990146723 -406.070370568519 19.1117714324314
    vertex -82.3396496484292 -399.070370568519 18.7500000000852
    vertex -82.1897990146723 -399.070370568519 19.1117714324314
  endloop
endfacet
facet normal -0.382683432365102 0.0 -0.923879532511282
  outer loop
    vertex -84.0269163217597 -399.070370568519 18.0511112606516
    vertex -84.3886877541059 -406.070370568519 18.2009618944086
    vertex -84.3886877541059 -399.070370568519 18.2009618944086
  endloop
endfacet
facet normal -0.382683432365102 0.0 -0.923879532511282
  outer loop
    vertex -84.3886877541059 -406.070370568519 18.2009618944086
    vertex -84.0269163217597 -399.070370568519 18.0511112606516
    vertex -84.0269163217597 -406.070370568519 18.0511112606516
  endloop
endfacet
facet normal -0.793353340291235 0.0 -0.608761429008721
  outer loop
    vertex -84.9377258597826 -399.070370568519 18.7500000000852
    vertex -84.6993479258857 -406.070370568519 18.4393398283054
    vertex -84.9377258597826 -406.070370568519 18.7500000000852
  endloop
endfacet
facet normal -0.793353340291235 0.0 -0.608761429008721
  outer loop
    vertex -84.6993479258857 -406.070370568519 18.4393398283054
    vertex -84.9377258597826 -399.070370568519 18.7500000000852
    vertex -84.6993479258857 -399.070370568519 18.4393398283054
  endloop
endfacet
facet normal 0.608761429008714 0.0 -0.79335334029124
  outer loop
    vertex -82.5780275823261 -399.070370568519 18.4393398283054
    vertex -82.8886877541059 -406.070370568519 18.2009618944086
    vertex -82.8886877541059 -399.070370568519 18.2009618944086
  endloop
endfacet
facet normal 0.608761429008714 0.0 -0.79335334029124
  outer loop
    vertex -82.8886877541059 -406.070370568519 18.2009618944086
    vertex -82.5780275823261 -399.070370568519 18.4393398283054
    vertex -82.5780275823261 -406.070370568519 18.4393398283054
  endloop
endfacet
facet normal -0.608761429008722 0.0 -0.793353340291235
  outer loop
    vertex -84.3886877541059 -399.070370568519 18.2009618944086
    vertex -84.6993479258857 -406.070370568519 18.4393398283054
    vertex -84.6993479258857 -399.070370568519 18.4393398283054
  endloop
endfacet
facet normal -0.608761429008722 0.0 -0.793353340291235
  outer loop
    vertex -84.6993479258857 -406.070370568519 18.4393398283054
    vertex -84.3886877541059 -399.070370568519 18.2009618944086
    vertex -84.3886877541059 -406.070370568519 18.2009618944086
  endloop
endfacet
facet normal 0.0 0.0 -1.0
  outer loop
    vertex -74.1386877540835 -399.070370568519 19.5000000000852
    vertex -82.1386877541059 -406.070370568519 19.5000000000852
    vertex -82.1386877541059 -399.070370568519 19.5000000000852
  endloop
endfacet
facet normal 0.0 0.0 -1.0
  outer loop
    vertex -82.1386877541059 -406.070370568519 19.5000000000852
    vertex -74.1386877540835 -399.070370568519 19.5000000000852
    vertex -74.1386877540835 -406.070370568519 19.5000000000852
  endloop
endfacet
facet normal -5.74004074329257e-016 1.0 1.80785990338442e-015
  outer loop
    vertex -85.0875764935347 -399.070370568519 -10.1117714323977
    vertex -82.1386877541011 -399.070370568519 -10.5000000000515
    vertex -85.1386877541011 -399.070370568519 -10.5000000000515
  endloop
endfacet
facet normal -5.74004074329257e-016 1.0 1.80785990338442e-015
  outer loop
    vertex -82.1386877541011 -399.070370568519 -10.5000000000515
    vertex -85.0875764935347 -399.070370568519 -10.1117714323977
    vertex -82.1897990146675 -399.070370568519 -10.1117714323977
  endloop
endfacet
facet normal -5.74004074329257e-016 1.0 1.80785990338442e-015
  outer loop
    vertex -82.1897990146675 -399.070370568519 -10.1117714323977
    vertex -85.0875764935347 -399.070370568519 -10.1117714323977
    vertex -84.9377258597778 -399.070370568519 -9.75000000005146
  endloop
endfacet
facet normal -5.74004074329257e-016 1.0 1.80785990338442e-015
  outer loop
    vertex -82.1897990146675 -399.070370568519 -10.1117714323977
    vertex -84.9377258597778 -399.070370568519 -9.75000000005146
    vertex -82.3396496484244 -399.070370568519 -9.75000000005146
  endloop
endfacet
facet normal -5.74004074329257e-016 1.0 1.80785990338442e-015
  outer loop
    vertex -82.3396496484244 -399.070370568519 -9.75000000005146
    vertex -84.9377258597778 -399.070370568519 -9.75000000005146
    vertex -84.6993479258809 -399.070370568519 -9.43933982827164
  endloop
endfacet
facet normal -5.74004074329257e-016 1.0 1.80785990338442e-015
  outer loop
    vertex -82.3396496484244 -399.070370568519 -9.75000000005146
    vertex -84.6993479258809 -399.070370568519 -9.43933982827164
    vertex -82.5780275823213 -399.070370568519 -9.43933982827164
  endloop
endfacet
facet normal -5.74004074329257e-016 1.0 1.80785990338442e-015
  outer loop
    vertex -82.5780275823213 -399.070370568519 -9.43933982827164
    vertex -84.6993479258809 -399.070370568519 -9.43933982827164
    vertex -84.3886877541011 -399.070370568519 -9.2009618943748
  endloop
endfacet
facet normal -5.74004074329257e-016 1.0 1.80785990338442e-015
  outer loop
    vertex -82.5780275823213 -399.070370568519 -9.43933982827164
    vertex -84.3886877541011 -399.070370568519 -9.2009618943748
    vertex -82.8886877541011 -399.070370568519 -9.2009618943748
  endloop
endfacet
facet normal -5.74004074329257e-016 1.0 1.80785990338442e-015
  outer loop
    vertex -82.8886877541011 -399.070370568519 -9.2009618943748
    vertex -84.3886877541011 -399.070370568519 -9.2009618943748
    vertex -84.0269163217549 -399.070370568519 -9.05111126061786
  endloop
endfacet
facet normal -5.74004074329257e-016 1.0 1.80785990338442e-015
  outer loop
    vertex -82.8886877541011 -399.070370568519 -9.2009618943748
    vertex -84.0269163217549 -399.070370568519 -9.05111126061786
    vertex -83.2504591864473 -399.070370568519 -9.05111126061786
  endloop
endfacet
facet normal -5.74004074329257e-016 1.0 1.80785990338442e-015
  outer loop
    vertex -83.2504591864473 -399.070370568519 -9.05111126061786
    vertex -84.0269163217549 -399.070370568519 -9.05111126061786
    vertex -83.6386877541011 -399.070370568519 -9.00000000005146
  endloop
endfacet
facet normal -5.74004074329257e-016 1.0 1.80785990338442e-015
  outer loop
    vertex -74.1386877540787 -399.070370568519 -7.71174462291443
    vertex -51.638687753958 -399.070370568519 -7.71174462291448
    vertex -74.1386877540787 -399.070370568519 -10.5000000000515
  endloop
endfacet
facet normal -5.74004074329257e-016 1.0 1.80785990338442e-015
  outer loop
    vertex -74.1386877540835 -399.070370568519 19.5000000000852
    vertex -51.6386877539628 -399.070370568519 16.7117446229482
    vertex -74.1386877540835 -399.070370568519 16.7117446229482
  endloop
endfacet
facet normal -5.74004074329257e-016 1.0 1.80785990338442e-015
  outer loop
    vertex -84.0269163217597 -399.070370568519 18.0511112606516
    vertex -83.2504591864521 -399.070370568519 18.0511112606516
    vertex -83.6386877541059 -399.070370568519 18.0000000000852
  endloop
endfacet
facet normal -5.74004074329257e-016 1.0 1.80785990338442e-015
  outer loop
    vertex -83.2504591864521 -399.070370568519 18.0511112606516
    vertex -84.0269163217597 -399.070370568519 18.0511112606516
    vertex -82.8886877541059 -399.070370568519 18.2009618944086
  endloop
endfacet
facet normal -5.74004074329257e-016 1.0 1.80785990338442e-015
  outer loop
    vertex -82.8886877541059 -399.070370568519 18.2009618944086
    vertex -84.0269163217597 -399.070370568519 18.0511112606516
    vertex -84.3886877541059 -399.070370568519 18.2009618944086
  endloop
endfacet
facet normal -5.74004074329257e-016 1.0 1.80785990338442e-015
  outer loop
    vertex -82.8886877541059 -399.070370568519 18.2009618944086
    vertex -84.3886877541059 -399.070370568519 18.2009618944086
    vertex -84.6993479258857 -399.070370568519 18.4393398283054
  endloop
endfacet
facet normal -5.74004074329257e-016 1.0 1.80785990338442e-015
  outer loop
    vertex -82.8886877541059 -399.070370568519 18.2009618944086
    vertex -84.6993479258857 -399.070370568519 18.4393398283054
    vertex -82.5780275823261 -399.070370568519 18.4393398283054
  endloop
endfacet
facet normal -5.74004074329257e-016 1.0 1.80785990338442e-015
  outer loop
    vertex -82.5780275823261 -399.070370568519 18.4393398283054
    vertex -84.6993479258857 -399.070370568519 18.4393398283054
    vertex -84.9377258597826 -399.070370568519 18.7500000000852
  endloop
endfacet
facet normal -5.74004074329257e-016 1.0 1.80785990338442e-015
  outer loop
    vertex -82.5780275823261 -399.070370568519 18.4393398283054
    vertex -84.9377258597826 -399.070370568519 18.7500000000852
    vertex -82.3396496484292 -399.070370568519 18.7500000000852
  endloop
endfacet
facet normal -5.74004074329257e-016 1.0 1.80785990338442e-015
  outer loop
    vertex -82.3396496484292 -399.070370568519 18.7500000000852
    vertex -84.9377258597826 -399.070370568519 18.7500000000852
    vertex -85.0875764935395 -399.070370568519 19.1117714324314
  endloop
endfacet
facet normal -5.74004074329257e-016 1.0 1.80785990338442e-015
  outer loop
    vertex -82.3396496484292 -399.070370568519 18.7500000000852
    vertex -85.0875764935395 -399.070370568519 19.1117714324314
    vertex -82.1897990146723 -399.070370568519 19.1117714324314
  endloop
endfacet
facet normal -5.74004074329257e-016 1.0 1.80785990338442e-015
  outer loop
    vertex -82.1897990146723 -399.070370568519 19.1117714324314
    vertex -85.0875764935395 -399.070370568519 19.1117714324314
    vertex -85.1386877541059 -399.070370568519 19.5000000000852
  endloop
endfacet
facet normal -5.74004074329257e-016 1.0 1.80785990338442e-015
  outer loop
    vertex -82.1897990146723 -399.070370568519 19.1117714324314
    vertex -85.1386877541059 -399.070370568519 19.5000000000852
    vertex -82.1386877541059 -399.070370568519 19.5000000000852
  endloop
endfacet
facet normal -5.74004074329257e-016 1.0 1.80785990338442e-015
  outer loop
    vertex -82.1386877541059 -399.070370568519 19.5000000000852
    vertex -85.1386877541059 -399.070370568519 19.5000000000852
    vertex -85.1386877541059 -399.070370568519 22.5000000000852
  endloop
endfacet
facet normal -5.74004074329257e-016 1.0 1.80785990338442e-015
  outer loop
    vertex -82.1386877541059 -399.070370568519 19.5000000000852
    vertex -85.1386877541059 -399.070370568519 22.5000000000852
    vertex -74.1386877540835 -399.070370568519 19.5000000000852
  endloop
endfacet
facet normal -5.74004074329257e-016 1.0 1.80785990338442e-015
  outer loop
    vertex -74.1386877540835 -399.070370568519 19.5000000000852
    vertex -85.1386877541059 -399.070370568519 22.5000000000852
    vertex -59.6386877539625 -399.070370568519 20.5000000000842
  endloop
endfacet
facet normal -5.74004074329257e-016 1.0 1.80785990338442e-015
  outer loop
    vertex -59.6386877539625 -399.070370568519 20.5000000000842
    vertex -85.1386877541059 -399.070370568519 22.5000000000852
    vertex -62.6386877539628 -399.070370568519 22.5000000000842
  endloop
endfacet
facet normal -5.74004074329257e-016 1.0 1.80785990338442e-015
  outer loop
    vertex -85.1386877541011 -399.070370568519 -13.5000000000515
    vertex -59.6386877539582 -399.070370568519 -11.5000000000526
    vertex -62.638687753958 -399.070370568519 -13.5000000000526
  endloop
endfacet
facet normal -5.74004074329257e-016 1.0 1.80785990338442e-015
  outer loop
    vertex -59.6386877539582 -399.070370568519 -11.5000000000526
    vertex -85.1386877541011 -399.070370568519 -13.5000000000515
    vertex -85.1386877541011 -399.070370568519 -10.5000000000515
  endloop
endfacet
facet normal -5.74004074329257e-016 1.0 1.80785990338442e-015
  outer loop
    vertex -59.6386877539582 -399.070370568519 -11.5000000000526
    vertex -85.1386877541011 -399.070370568519 -10.5000000000515
    vertex -47.6386877539583 -399.070370568519 -11.500000000051
  endloop
endfacet
facet normal -5.74004074329257e-016 1.0 1.80785990338442e-015
  outer loop
    vertex -47.6386877539583 -399.070370568519 -11.500000000051
    vertex -85.1386877541011 -399.070370568519 -10.5000000000515
    vertex -74.1386877540787 -399.070370568519 -10.5000000000515
  endloop
endfacet
facet normal -5.74004074329257e-016 1.0 1.80785990338442e-015
  outer loop
    vertex -47.6386877539583 -399.070370568519 -11.500000000051
    vertex -74.1386877540787 -399.070370568519 -10.5000000000515
    vertex -51.638687753958 -399.070370568519 -7.71174462291448
  endloop
endfacet
facet normal -5.74004074329257e-016 1.0 1.80785990338442e-015
  outer loop
    vertex -47.6386877539583 -399.070370568519 -11.500000000051
    vertex -51.638687753958 -399.070370568519 -7.71174462291448
    vertex -47.6386877539626 -399.070370568519 20.5000000000858
  endloop
endfacet
facet normal -5.74004074329257e-016 1.0 1.80785990338442e-015
  outer loop
    vertex -74.1386877540787 -399.070370568519 -10.5000000000515
    vertex -85.1386877541011 -399.070370568519 -10.5000000000515
    vertex -82.1386877541011 -399.070370568519 -10.5000000000515
  endloop
endfacet
facet normal -5.74004074329257e-016 1.0 1.80785990338442e-015
  outer loop
    vertex -47.6386877539626 -399.070370568519 20.5000000000858
    vertex -51.638687753958 -399.070370568519 -7.71174462291448
    vertex -51.6386877539628 -399.070370568519 16.7117446229482
  endloop
endfacet
facet normal -5.74004074329257e-016 1.0 1.80785990338442e-015
  outer loop
    vertex -47.6386877539626 -399.070370568519 20.5000000000858
    vertex -51.6386877539628 -399.070370568519 16.7117446229482
    vertex -74.1386877540835 -399.070370568519 19.5000000000852
  endloop
endfacet
facet normal -5.74004074329257e-016 1.0 1.80785990338442e-015
  outer loop
    vertex -47.6386877539626 -399.070370568519 20.5000000000858
    vertex -74.1386877540835 -399.070370568519 19.5000000000852
    vertex -59.6386877539625 -399.070370568519 20.5000000000842
  endloop
endfacet
facet normal 4.46622531547785e-014 0.0 1.0
  outer loop
    vertex -62.6386877539628 -406.070370568519 22.5000000000842
    vertex -85.1386877541059 -399.070370568519 22.5000000000852
    vertex -85.1386877541059 -406.070370568519 22.5000000000852
  endloop
endfacet
facet normal 4.46622531547785e-014 0.0 1.0
  outer loop
    vertex -85.1386877541059 -399.070370568519 22.5000000000852
    vertex -62.6386877539628 -406.070370568519 22.5000000000842
    vertex -62.6386877539628 -399.070370568519 22.5000000000842
  endloop
endfacet
facet normal -4.92824862397556e-014 -3.43868294909824e-030 -1.0
  outer loop
    vertex -62.638687753958 -399.070370568519 -13.5000000000526
    vertex -85.1386877541011 -406.070370568519 -13.5000000000515
    vertex -85.1386877541011 -399.070370568519 -13.5000000000515
  endloop
endfacet
facet normal -4.92824862397556e-014 -3.43868294909824e-030 -1.0
  outer loop
    vertex -85.1386877541011 -406.070370568519 -13.5000000000515
    vertex -62.638687753958 -399.070370568519 -13.5000000000526
    vertex -62.638687753958 -406.070370568519 -13.5000000000526
  endloop
endfacet
facet normal 0.0 -1.0 0.0
  outer loop
    vertex -59.6386877539582 -406.070370568519 -11.5000000000526
    vertex -85.1386877541011 -406.070370568519 -13.5000000000515
    vertex -62.638687753958 -406.070370568519 -13.5000000000526
  endloop
endfacet
facet normal 0.0 -1.0 0.0
  outer loop
    vertex -85.1386877541011 -406.070370568519 -13.5000000000515
    vertex -59.6386877539582 -406.070370568519 -11.5000000000526
    vertex -85.1386877541011 -406.070370568519 -10.5000000000515
  endloop
endfacet
facet normal 0.0 -1.0 0.0
  outer loop
    vertex -85.1386877541011 -406.070370568519 -10.5000000000515
    vertex -59.6386877539582 -406.070370568519 -11.5000000000526
    vertex -47.6386877539583 -406.070370568519 -11.500000000051
  endloop
endfacet
facet normal 0.0 -1.0 0.0
  outer loop
    vertex -85.1386877541011 -406.070370568519 -10.5000000000515
    vertex -47.6386877539583 -406.070370568519 -11.500000000051
    vertex -74.1386877540787 -406.070370568519 -10.5000000000515
  endloop
endfacet
facet normal 0.0 -1.0 0.0
  outer loop
    vertex -85.1386877541011 -406.070370568519 -10.5000000000515
    vertex -74.1386877540787 -406.070370568519 -10.5000000000515
    vertex -82.1386877541011 -406.070370568519 -10.5000000000515
  endloop
endfacet
facet normal 0.0 -1.0 0.0
  outer loop
    vertex -85.1386877541011 -406.070370568519 -10.5000000000515
    vertex -82.1386877541011 -406.070370568519 -10.5000000000515
    vertex -82.1897990146675 -406.070370568519 -10.1117714323977
  endloop
endfacet
facet normal 0.0 -1.0 0.0
  outer loop
    vertex -85.1386877541011 -406.070370568519 -10.5000000000515
    vertex -82.1897990146675 -406.070370568519 -10.1117714323977
    vertex -85.0875764935347 -406.070370568519 -10.1117714323977
  endloop
endfacet
facet normal 0.0 -1.0 0.0
  outer loop
    vertex -85.0875764935347 -406.070370568519 -10.1117714323977
    vertex -82.1897990146675 -406.070370568519 -10.1117714323977
    vertex -82.3396496484244 -406.070370568519 -9.75000000005146
  endloop
endfacet
facet normal 0.0 -1.0 0.0
  outer loop
    vertex -85.0875764935347 -406.070370568519 -10.1117714323977
    vertex -82.3396496484244 -406.070370568519 -9.75000000005146
    vertex -84.9377258597778 -406.070370568519 -9.75000000005146
  endloop
endfacet
facet normal 0.0 -1.0 0.0
  outer loop
    vertex -84.9377258597778 -406.070370568519 -9.75000000005146
    vertex -82.3396496484244 -406.070370568519 -9.75000000005146
    vertex -82.5780275823213 -406.070370568519 -9.43933982827164
  endloop
endfacet
facet normal 0.0 -1.0 0.0
  outer loop
    vertex -84.9377258597778 -406.070370568519 -9.75000000005146
    vertex -82.5780275823213 -406.070370568519 -9.43933982827164
    vertex -84.6993479258809 -406.070370568519 -9.43933982827164
  endloop
endfacet
facet normal 0.0 -1.0 0.0
  outer loop
    vertex -84.6993479258809 -406.070370568519 -9.43933982827164
    vertex -82.5780275823213 -406.070370568519 -9.43933982827164
    vertex -82.8886877541011 -406.070370568519 -9.2009618943748
  endloop
endfacet
facet normal 0.0 -1.0 0.0
  outer loop
    vertex -84.6993479258809 -406.070370568519 -9.43933982827164
    vertex -82.8886877541011 -406.070370568519 -9.2009618943748
    vertex -84.3886877541011 -406.070370568519 -9.2009618943748
  endloop
endfacet
facet normal 0.0 -1.0 0.0
  outer loop
    vertex -84.3886877541011 -406.070370568519 -9.2009618943748
    vertex -82.8886877541011 -406.070370568519 -9.2009618943748
    vertex -83.2504591864473 -406.070370568519 -9.05111126061786
  endloop
endfacet
facet normal 0.0 -1.0 0.0
  outer loop
    vertex -84.3886877541011 -406.070370568519 -9.2009618943748
    vertex -83.2504591864473 -406.070370568519 -9.05111126061786
    vertex -84.0269163217549 -406.070370568519 -9.05111126061786
  endloop
endfacet
facet normal 0.0 -1.0 0.0
  outer loop
    vertex -84.0269163217549 -406.070370568519 -9.05111126061786
    vertex -83.2504591864473 -406.070370568519 -9.05111126061786
    vertex -83.6386877541011 -406.070370568519 -9.00000000005146
  endloop
endfacet
facet normal 0.0 -1.0 0.0
  outer loop
    vertex -83.2504591864521 -406.070370568519 18.0511112606516
    vertex -84.0269163217597 -406.070370568519 18.0511112606516
    vertex -83.6386877541059 -406.070370568519 18.0000000000852
  endloop
endfacet
facet normal 0.0 -1.0 0.0
  outer loop
    vertex -84.0269163217597 -406.070370568519 18.0511112606516
    vertex -83.2504591864521 -406.070370568519 18.0511112606516
    vertex -82.8886877541059 -406.070370568519 18.2009618944086
  endloop
endfacet
facet normal 0.0 -1.0 0.0
  outer loop
    vertex -84.0269163217597 -406.070370568519 18.0511112606516
    vertex -82.8886877541059 -406.070370568519 18.2009618944086
    vertex -84.3886877541059 -406.070370568519 18.2009618944086
  endloop
endfacet
facet normal 0.0 -1.0 0.0
  outer loop
    vertex -84.3886877541059 -406.070370568519 18.2009618944086
    vertex -82.8886877541059 -406.070370568519 18.2009618944086
    vertex -82.5780275823261 -406.070370568519 18.4393398283054
  endloop
endfacet
facet normal 0.0 -1.0 0.0
  outer loop
    vertex -84.3886877541059 -406.070370568519 18.2009618944086
    vertex -82.5780275823261 -406.070370568519 18.4393398283054
    vertex -84.6993479258857 -406.070370568519 18.4393398283054
  endloop
endfacet
facet normal 0.0 -1.0 0.0
  outer loop
    vertex -84.6993479258857 -406.070370568519 18.4393398283054
    vertex -82.5780275823261 -406.070370568519 18.4393398283054
    vertex -82.3396496484292 -406.070370568519 18.7500000000852
  endloop
endfacet
facet normal 0.0 -1.0 0.0
  outer loop
    vertex -84.6993479258857 -406.070370568519 18.4393398283054
    vertex -82.3396496484292 -406.070370568519 18.7500000000852
    vertex -84.9377258597826 -406.070370568519 18.7500000000852
  endloop
endfacet
facet normal 0.0 -1.0 0.0
  outer loop
    vertex -84.9377258597826 -406.070370568519 18.7500000000852
    vertex -82.3396496484292 -406.070370568519 18.7500000000852
    vertex -82.1897990146723 -406.070370568519 19.1117714324314
  endloop
endfacet
facet normal 0.0 -1.0 0.0
  outer loop
    vertex -84.9377258597826 -406.070370568519 18.7500000000852
    vertex -82.1897990146723 -406.070370568519 19.1117714324314
    vertex -85.0875764935395 -406.070370568519 19.1117714324314
  endloop
endfacet
facet normal 0.0 -1.0 0.0
  outer loop
    vertex -85.0875764935395 -406.070370568519 19.1117714324314
    vertex -82.1897990146723 -406.070370568519 19.1117714324314
    vertex -82.1386877541059 -406.070370568519 19.5000000000852
  endloop
endfacet
facet normal 0.0 -1.0 0.0
  outer loop
    vertex -85.0875764935395 -406.070370568519 19.1117714324314
    vertex -82.1386877541059 -406.070370568519 19.5000000000852
    vertex -85.1386877541059 -406.070370568519 19.5000000000852
  endloop
endfacet
facet normal 0.0 -1.0 0.0
  outer loop
    vertex -74.1386877540835 -406.070370568519 19.5000000000852
    vertex -74.1386877540835 -406.070370568519 17.595082031215
    vertex -51.6386877539628 -406.070370568519 17.5950820312151
  endloop
endfacet
facet normal 0.0 -1.0 0.0
  outer loop
    vertex -47.6386877539583 -406.070370568519 -11.500000000051
    vertex -51.638687753958 -406.070370568519 -8.59508203118131
    vertex -74.1386877540787 -406.070370568519 -10.5000000000515
  endloop
endfacet
facet normal 0.0 -1.0 0.0
  outer loop
    vertex -51.638687753958 -406.070370568519 -8.59508203118131
    vertex -47.6386877539583 -406.070370568519 -11.500000000051
    vertex -47.6386877539626 -406.070370568519 20.5000000000858
  endloop
endfacet
facet normal 0.0 -1.0 0.0
  outer loop
    vertex -51.638687753958 -406.070370568519 -8.59508203118131
    vertex -47.6386877539626 -406.070370568519 20.5000000000858
    vertex -51.6386877539628 -406.070370568519 17.5950820312151
  endloop
endfacet
facet normal 0.0 -1.0 0.0
  outer loop
    vertex -51.6386877539628 -406.070370568519 17.5950820312151
    vertex -47.6386877539626 -406.070370568519 20.5000000000858
    vertex -74.1386877540835 -406.070370568519 19.5000000000852
  endloop
endfacet
facet normal 0.0 -1.0 0.0
  outer loop
    vertex -74.1386877540835 -406.070370568519 19.5000000000852
    vertex -47.6386877539626 -406.070370568519 20.5000000000858
    vertex -82.1386877541059 -406.070370568519 19.5000000000852
  endloop
endfacet
facet normal 0.0 -1.0 0.0
  outer loop
    vertex -82.1386877541059 -406.070370568519 19.5000000000852
    vertex -47.6386877539626 -406.070370568519 20.5000000000858
    vertex -85.1386877541059 -406.070370568519 19.5000000000852
  endloop
endfacet
facet normal 0.0 -1.0 0.0
  outer loop
    vertex -85.1386877541059 -406.070370568519 19.5000000000852
    vertex -47.6386877539626 -406.070370568519 20.5000000000858
    vertex -59.6386877539625 -406.070370568519 20.5000000000842
  endloop
endfacet
facet normal 0.0 -1.0 0.0
  outer loop
    vertex -59.6386877539625 -406.070370568519 20.5000000000842
    vertex -85.1386877541059 -406.070370568519 22.5000000000852
    vertex -85.1386877541059 -406.070370568519 19.5000000000852
  endloop
endfacet
facet normal 0.0 -1.0 0.0
  outer loop
    vertex -85.1386877541059 -406.070370568519 22.5000000000852
    vertex -59.6386877539625 -406.070370568519 20.5000000000842
    vertex -62.6386877539628 -406.070370568519 22.5000000000842
  endloop
endfacet
facet normal 0.0 -1.0 0.0
  outer loop
    vertex -74.1386877540787 -406.070370568519 -8.59508203118126
    vertex -74.1386877540787 -406.070370568519 -10.5000000000515
    vertex -51.638687753958 -406.070370568519 -8.59508203118131
  endloop
endfacet
endsolid Omnidroid
