solid Omnidroid
facet normal 3.43593756458403e-014 -1.0 1.19521023416127e-013
  outer loop
    vertex -76.2983129254365 -208.475990741574 10.8086923795875
    vertex -67.1446537271535 -208.475990741574 11.8999999999992
    vertex -74.6327217810875 -208.475990741573 11.9000000000009
  endloop
endfacet
facet normal 3.43593756458403e-014 -1.0 1.19521023416127e-013
  outer loop
    vertex -67.1446537271535 -208.475990741574 11.8999999999992
    vertex -76.2983129254365 -208.475990741574 10.8086923795875
    vertex -65.4790625828042 -208.475990741574 10.8086923795868
  endloop
endfacet
facet normal 3.43593756458403e-014 -1.0 1.19521023416127e-013
  outer loop
    vertex -65.4790625828042 -208.475990741574 10.8086923795868
    vertex -76.2983129254365 -208.475990741574 10.8086923795875
    vertex -76.781343328701 -208.475990741573 10.3494417962361
  endloop
endfacet
facet normal 3.43593756458403e-014 -1.0 1.19521023416127e-013
  outer loop
    vertex -65.4790625828042 -208.475990741574 10.8086923795868
    vertex -76.781343328701 -208.475990741573 10.3494417962361
    vertex -64.9960321795379 -208.475990741575 10.3494417962337
  endloop
endfacet
facet normal 3.43593756458403e-014 -1.0 1.19521023416127e-013
  outer loop
    vertex -64.9960321795379 -208.475990741575 10.3494417962337
    vertex -76.781343328701 -208.475990741573 10.3494417962361
    vertex -77.3643658578514 -208.475990741574 9.79512174762272
  endloop
endfacet
facet normal 3.43593756458403e-014 -1.0 1.19521023416127e-013
  outer loop
    vertex -64.9960321795379 -208.475990741575 10.3494417962337
    vertex -77.3643658578514 -208.475990741574 9.79512174762272
    vertex -74.0358665388711 -208.475990741573 9.90000000000077
  endloop
endfacet
facet normal 3.43593756458403e-014 -1.0 1.19521023416127e-013
  outer loop
    vertex -74.0358665388711 -208.475990741573 9.90000000000077
    vertex -77.3643658578514 -208.475990741574 9.79512174762272
    vertex -75.0511331355842 -208.475990741574 9.23478982672191
  endloop
endfacet
facet normal 3.43593756458403e-014 -1.0 1.19521023416127e-013
  outer loop
    vertex -75.0511331355842 -208.475990741574 9.23478982672191
    vertex -77.3643658578514 -208.475990741574 9.79512174762272
    vertex -78.2315700561191 -208.475990741575 8.60695039668131
  endloop
endfacet
facet normal 3.43593756458403e-014 -1.0 1.19521023416127e-013
  outer loop
    vertex -75.0511331355842 -208.475990741574 9.23478982672191
    vertex -78.2315700561191 -208.475990741575 8.60695039668131
    vertex -75.4032582517453 -208.475990741573 8.9000000000014
  endloop
endfacet
facet normal 3.43593756458403e-014 -1.0 1.19521023416127e-013
  outer loop
    vertex -75.4032582517453 -208.475990741573 8.9000000000014
    vertex -78.2315700561191 -208.475990741575 8.60695039668131
    vertex -75.8553754937918 -208.475990741574 8.47014070801939
  endloop
endfacet
facet normal 3.43593756458403e-014 -1.0 1.19521023416127e-013
  outer loop
    vertex -75.8553754937918 -208.475990741574 8.47014070801939
    vertex -78.2315700561191 -208.475990741575 8.60695039668131
    vertex -78.8718604489408 -208.475990741575 7.282630762472
  endloop
endfacet
facet normal 3.43593756458403e-014 -1.0 1.19521023416127e-013
  outer loop
    vertex -75.8553754937918 -208.475990741574 8.47014070801939
    vertex -78.8718604489408 -208.475990741575 7.282630762472
    vertex -76.5096041237739 -208.475990741575 7.57377083727481
  endloop
endfacet
facet normal 3.43593756458403e-014 -1.0 1.19521023416127e-013
  outer loop
    vertex -76.5096041237739 -208.475990741575 7.57377083727481
    vertex -78.8718604489408 -208.475990741575 7.282630762472
    vertex -76.9926464191448 -208.475990741575 6.57468916576302
  endloop
endfacet
facet normal 3.43593756458403e-014 -1.0 1.19521023416127e-013
  outer loop
    vertex -76.9926464191448 -208.475990741575 6.57468916576302
    vertex -78.8718604489408 -208.475990741575 7.282630762472
    vertex -82.8886877541191 -208.475990741575 7.2826307624719
  endloop
endfacet
facet normal 3.43593756458403e-014 -1.0 1.19521023416127e-013
  outer loop
    vertex -76.9926464191448 -208.475990741575 6.57468916576302
    vertex -82.8886877541191 -208.475990741575 7.2826307624719
    vertex -82.8886877541191 -208.475990741575 4.99999999999994
  endloop
endfacet
facet normal 3.43593756458403e-014 -1.0 1.19521023416127e-013
  outer loop
    vertex -76.9926464191448 -208.475990741575 6.57468916576302
    vertex -82.8886877541191 -208.475990741575 4.99999999999994
    vertex -77.2888698259019 -208.475990741575 5.5052286761907
  endloop
endfacet
facet normal 3.43593756458403e-014 -1.0 1.19521023416127e-013
  outer loop
    vertex -77.2888698259019 -208.475990741575 5.5052286761907
    vertex -82.8886877541191 -208.475990741575 4.99999999999994
    vertex -77.3344991882409 -208.475990741575 5.00000000000002
  endloop
endfacet
facet normal 3.43593756458403e-014 -1.0 1.19521023416127e-013
  outer loop
    vertex -64.9960321795379 -208.475990741575 10.3494417962337
    vertex -67.7415089693697 -208.475990741575 9.89999999999935
    vertex -64.4130096503896 -208.475990741574 9.79512174762243
  endloop
endfacet
facet normal 3.43593756458403e-014 -1.0 1.19521023416127e-013
  outer loop
    vertex -67.7415089693697 -208.475990741575 9.89999999999935
    vertex -64.9960321795379 -208.475990741575 10.3494417962337
    vertex -74.0358665388711 -208.475990741573 9.90000000000077
  endloop
endfacet
facet normal 3.43593756458403e-014 -1.0 1.19521023416127e-013
  outer loop
    vertex -64.4130096503896 -208.475990741574 9.79512174762243
    vertex -67.7415089693697 -208.475990741575 9.89999999999935
    vertex -66.726242372656 -208.475990741574 9.23478982672073
  endloop
endfacet
facet normal 3.43593756458403e-014 -1.0 1.19521023416127e-013
  outer loop
    vertex -64.4130096503896 -208.475990741574 9.79512174762243
    vertex -66.726242372656 -208.475990741574 9.23478982672073
    vertex -63.5458054521214 -208.475990741574 8.6069503966817
  endloop
endfacet
facet normal 3.43593756458403e-014 -1.0 1.19521023416127e-013
  outer loop
    vertex -63.5458054521214 -208.475990741574 8.6069503966817
    vertex -66.726242372656 -208.475990741574 9.23478982672073
    vertex -66.3741172564933 -208.475990741575 8.89999999999882
  endloop
endfacet
facet normal 3.43593756458403e-014 -1.0 1.19521023416127e-013
  outer loop
    vertex -63.5458054521214 -208.475990741574 8.6069503966817
    vertex -66.3741172564933 -208.475990741575 8.89999999999882
    vertex -65.9220000144486 -208.475990741574 8.47014070801862
  endloop
endfacet
facet normal 3.43593756458403e-014 -1.0 1.19521023416127e-013
  outer loop
    vertex -63.5458054521214 -208.475990741574 8.6069503966817
    vertex -65.9220000144486 -208.475990741574 8.47014070801862
    vertex -62.9055150592993 -208.475990741574 7.28263076247255
  endloop
endfacet
facet normal 3.43593756458403e-014 -1.0 1.19521023416127e-013
  outer loop
    vertex -62.9055150592993 -208.475990741574 7.28263076247255
    vertex -65.9220000144486 -208.475990741574 8.47014070801862
    vertex -65.2677713844661 -208.475990741574 7.57377083727449
  endloop
endfacet
facet normal 3.43593756458403e-014 -1.0 1.19521023416127e-013
  outer loop
    vertex -62.9055150592993 -208.475990741574 7.28263076247255
    vertex -65.2677713844661 -208.475990741574 7.57377083727449
    vertex -64.784729089095 -208.475990741574 6.57468916576284
  endloop
endfacet
facet normal 3.43593756458403e-014 -1.0 1.19521023416127e-013
  outer loop
    vertex -62.9055150592993 -208.475990741574 7.28263076247255
    vertex -64.784729089095 -208.475990741574 6.57468916576284
    vertex -58.8886877541193 -208.475990741573 7.2826307624723
  endloop
endfacet
facet normal 3.43593756458403e-014 -1.0 1.19521023416127e-013
  outer loop
    vertex -58.8886877541193 -208.475990741573 7.2826307624723
    vertex -64.784729089095 -208.475990741574 6.57468916576284
    vertex -58.8886877541193 -208.475990741574 4.89999999999999
  endloop
endfacet
facet normal 3.43593756458403e-014 -1.0 1.19521023416127e-013
  outer loop
    vertex -58.8886877541193 -208.475990741574 4.89999999999999
    vertex -64.784729089095 -208.475990741574 6.57468916576284
    vertex -64.4885056823371 -208.475990741575 5.50522867619026
  endloop
endfacet
facet normal 3.43593756458403e-014 -1.0 1.19521023416127e-013
  outer loop
    vertex -58.8886877541193 -208.475990741574 4.89999999999999
    vertex -64.4885056823371 -208.475990741575 5.50522867619026
    vertex -64.4338448923513 -208.475990741574 4.9
  endloop
endfacet
facet normal -0.548046724311449 -1.94301418222074e-013 -0.836447719807694
  outer loop
    vertex -66.726242372656 -208.475990741574 9.23478982672073
    vertex -67.7415089693696 -197.475990741576 9.89999999999671
    vertex -66.7262423726559 -197.475990741576 9.2347898267181
  endloop
endfacet
facet normal -0.548046724311449 -1.94301418222074e-013 -0.836447719807694
  outer loop
    vertex -67.7415089693696 -197.475990741576 9.89999999999671
    vertex -66.726242372656 -208.475990741574 9.23478982672073
    vertex -67.7415089693697 -208.475990741575 9.89999999999935
  endloop
endfacet
facet normal -0.963714928210677 -5.25105144505507e-014 -0.266933581896116
  outer loop
    vertex -64.7847290890948 -197.475990741576 6.5746891657602
    vertex -64.4885056823371 -208.475990741575 5.50522867619026
    vertex -64.784729089095 -208.475990741574 6.57468916576284
  endloop
endfacet
facet normal -0.963714928210677 -5.25105144505507e-014 -0.266933581896116
  outer loop
    vertex -64.4885056823371 -208.475990741575 5.50522867619026
    vertex -64.7847290890948 -197.475990741576 6.5746891657602
    vertex -64.488505682337 -197.475990741576 5.50522867618762
  endloop
endfacet
facet normal 1.0 7.26036627643977e-014 -1.64763460816724e-026
  outer loop
    vertex -56.8886877541199 -199.475990741574 4.89999999999789
    vertex -56.8886877541194 -206.475990741573 7.28263076247183
    vertex -56.8886877541194 -206.475990741574 4.89999999999952
  endloop
endfacet
facet normal 1.0 7.26036627643977e-014 -1.64763460816724e-026
  outer loop
    vertex -56.8886877541194 -206.475990741573 7.28263076247183
    vertex -56.8886877541199 -199.475990741574 4.89999999999789
    vertex -56.8886877541199 -199.475990741574 7.28263076247022
  endloop
endfacet
facet normal 0.96371492821083 -7.17296042722765e-014 -0.266933581895561
  outer loop
    vertex -77.2888698259018 -197.475990741577 5.50522867618806
    vertex -76.9926464191448 -208.475990741575 6.57468916576302
    vertex -77.2888698259019 -208.475990741575 5.5052286761907
  endloop
endfacet
facet normal 0.96371492821083 -7.17296042722765e-014 -0.266933581895561
  outer loop
    vertex -76.9926464191448 -208.475990741575 6.57468916576302
    vertex -77.2888698259018 -197.475990741577 5.50522867618806
    vertex -76.9926464191447 -197.475990741576 6.57468916576038
  endloop
endfacet
facet normal 0.995946446565108 -1.99517030267138e-014 -0.0899481827183534
  outer loop
    vertex -77.3344991882409 -208.475990741575 5.00000000000002
    vertex -77.2888698259018 -197.475990741577 5.50522867618806
    vertex -77.2888698259019 -208.475990741575 5.5052286761907
  endloop
endfacet
facet normal 0.995946446565108 -1.99517030267138e-014 -0.0899481827183534
  outer loop
    vertex -77.2888698259018 -197.475990741577 5.50522867618806
    vertex -77.3344991882409 -208.475990741575 5.00000000000002
    vertex -77.3344991882409 -197.475990741576 4.99999999999742
  endloop
endfacet
facet normal -0.995946446564995 3.86289878001321e-014 -0.0899481827196054
  outer loop
    vertex -64.488505682337 -197.475990741576 5.50522867618762
    vertex -64.4338448923513 -208.475990741574 4.9
    vertex -64.4885056823371 -208.475990741575 5.50522867619026
  endloop
endfacet
facet normal -0.995946446564995 3.86289878001321e-014 -0.0899481827196054
  outer loop
    vertex -64.4338448923513 -208.475990741574 4.9
    vertex -64.488505682337 -197.475990741576 5.50522867618762
    vertex -64.4338448923506 -197.475990741575 4.89999999999741
  endloop
endfacet
facet normal 0.900294990535294 -1.11672768290038e-013 -0.435280289028868
  outer loop
    vertex -76.9926464191447 -197.475990741576 6.57468916576038
    vertex -76.5096041237739 -208.475990741575 7.57377083727481
    vertex -76.9926464191448 -208.475990741575 6.57468916576302
  endloop
endfacet
facet normal 0.900294990535294 -1.11672768290038e-013 -0.435280289028868
  outer loop
    vertex -76.5096041237739 -208.475990741575 7.57377083727481
    vertex -76.9926464191447 -197.475990741576 6.57468916576038
    vertex -76.5096041237738 -197.475990741576 7.57377083727217
  endloop
endfacet
facet normal 0.608761429008817 -0.793353340291161 3.52007630243374e-013
  outer loop
    vertex -61.3457945353068 -202.268883960387 7.28263076247026
    vertex -61.1386877541193 -202.10996533779 4.89999999999842
    vertex -61.1386877541203 -202.109965337789 7.28263076247024
  endloop
endfacet
facet normal 0.608761429008817 -0.793353340291161 3.52007630243374e-013
  outer loop
    vertex -61.1386877541193 -202.10996533779 4.89999999999842
    vertex -61.3457945353068 -202.268883960387 7.28263076247026
    vertex -61.3457945353058 -202.268883960388 4.89999999999845
  endloop
endfacet
facet normal -0.13052619222005 0.991444861373811 -1.90260897262745e-013
  outer loop
    vertex -60.3798687090166 -203.941916567863 4.89999999999899
    vertex -60.6386877541201 -203.975990741574 7.28263076247078
    vertex -60.3798687090176 -203.941916567863 7.2826307624708
  endloop
endfacet
facet normal -0.13052619222005 0.991444861373811 -1.90260897262745e-013
  outer loop
    vertex -60.6386877541201 -203.975990741574 7.28263076247078
    vertex -60.3798687090166 -203.941916567863 4.89999999999899
    vertex -60.6386877541191 -203.975990741574 4.89999999999897
  endloop
endfacet
facet normal 0.548046724311832 -2.05229831332896e-013 -0.836447719807443
  outer loop
    vertex -74.0358665388711 -208.475990741573 9.90000000000077
    vertex -75.0511331355841 -197.475990741575 9.23478982671927
    vertex -74.0358665388711 -197.475990741574 9.89999999999812
  endloop
endfacet
facet normal 0.548046724311832 -2.05229831332896e-013 -0.836447719807443
  outer loop
    vertex -75.0511331355841 -197.475990741575 9.23478982671927
    vertex -74.0358665388711 -208.475990741573 9.90000000000077
    vertex -75.0511331355842 -208.475990741574 9.23478982672191
  endloop
endfacet
facet normal -0.689042538477732 -1.65809641812316e-013 -0.72472089811745
  outer loop
    vertex -65.9220000144486 -208.475990741574 8.47014070801862
    vertex -66.3741172564932 -197.475990741576 8.89999999999617
    vertex -65.9220000144485 -197.475990741575 8.47014070801598
  endloop
endfacet
facet normal -0.689042538477732 -1.65809641812316e-013 -0.72472089811745
  outer loop
    vertex -66.3741172564932 -197.475990741576 8.89999999999617
    vertex -65.9220000144486 -208.475990741574 8.47014070801862
    vertex -66.3741172564933 -208.475990741575 8.89999999999882
  endloop
endfacet
facet normal -0.689042538477732 -1.65809641812316e-013 -0.72472089811745
  outer loop
    vertex -66.3741172564932 -197.475990741576 8.89999999999617
    vertex -66.3741172564933 -208.475990741575 8.89999999999882
    vertex -66.7262423726559 -197.475990741576 9.2347898267181
  endloop
endfacet
facet normal -0.689042538477732 -1.65809641812316e-013 -0.72472089811745
  outer loop
    vertex -66.7262423726559 -197.475990741576 9.2347898267181
    vertex -66.3741172564933 -208.475990741575 8.89999999999882
    vertex -66.726242372656 -208.475990741574 9.23478982672073
  endloop
endfacet
facet normal 0.793353340291378 -0.608761429008535 4.21079476188044e-013
  outer loop
    vertex -61.5047131579037 -202.475990741574 4.89999999999848
    vertex -61.3457945353068 -202.268883960387 7.28263076247026
    vertex -61.5047131579047 -202.475990741574 7.28263076247029
  endloop
endfacet
facet normal 0.793353340291378 -0.608761429008535 4.21079476188044e-013
  outer loop
    vertex -61.3457945353068 -202.268883960387 7.28263076247026
    vertex -61.5047131579037 -202.475990741574 4.89999999999848
    vertex -61.3457945353058 -202.268883960388 4.89999999999845
  endloop
endfacet
facet normal -0.807739074100943 -1.31900760695327e-013 -0.589540149752797
  outer loop
    vertex -65.9220000144485 -197.475990741575 8.47014070801598
    vertex -65.2677713844661 -208.475990741574 7.57377083727449
    vertex -65.9220000144486 -208.475990741574 8.47014070801862
  endloop
endfacet
facet normal -0.807739074100943 -1.31900760695327e-013 -0.589540149752797
  outer loop
    vertex -65.2677713844661 -208.475990741574 7.57377083727449
    vertex -65.9220000144485 -197.475990741575 8.47014070801598
    vertex -65.267771384466 -197.475990741575 7.57377083727185
  endloop
endfacet
facet normal -0.608761429008706 -0.793353340291247 -1.21247402926515e-013
  outer loop
    vertex -60.1386877541203 -202.109965337789 7.28263076247035
    vertex -59.9315809729327 -202.268883960387 4.8999999999986
    vertex -59.9315809729337 -202.268883960387 7.28263076247041
  endloop
endfacet
facet normal -0.608761429008706 -0.793353340291247 -1.21247402926515e-013
  outer loop
    vertex -59.9315809729327 -202.268883960387 4.8999999999986
    vertex -60.1386877541203 -202.109965337789 7.28263076247035
    vertex -60.1386877541193 -202.10996533779 4.89999999999853
  endloop
endfacet
facet normal -0.900294990535171 -9.37147844184658e-014 -0.435280289029122
  outer loop
    vertex -65.267771384466 -197.475990741575 7.57377083727185
    vertex -64.784729089095 -208.475990741574 6.57468916576284
    vertex -65.2677713844661 -208.475990741574 7.57377083727449
  endloop
endfacet
facet normal -0.900294990535171 -9.37147844184658e-014 -0.435280289029122
  outer loop
    vertex -64.784729089095 -208.475990741574 6.57468916576284
    vertex -65.267771384466 -197.475990741575 7.57377083727185
    vertex -64.7847290890948 -197.475990741576 6.5746891657602
  endloop
endfacet
facet normal -0.991444861373854 0.130526192219725 -4.38145987355288e-013
  outer loop
    vertex -59.6386877541203 -202.975990741574 7.28263076247063
    vertex -59.6727619278301 -203.234809786676 4.89999999999888
    vertex -59.6727619278311 -203.234809786676 7.28263076247069
  endloop
endfacet
facet normal -0.991444861373854 0.130526192219725 -4.38145987355288e-013
  outer loop
    vertex -59.6727619278301 -203.234809786676 4.89999999999888
    vertex -59.6386877541203 -202.975990741574 7.28263076247063
    vertex -59.6386877541193 -202.975990741574 4.89999999999881
  endloop
endfacet
facet normal 0.991444861373785 -0.130526192220247 4.43207752308687e-013
  outer loop
    vertex -61.6386877541193 -202.975990741574 4.89999999999859
    vertex -61.6046135804093 -202.717171696471 7.28263076247035
    vertex -61.6386877541203 -202.975990741574 7.28263076247041
  endloop
endfacet
facet normal 0.991444861373785 -0.130526192220247 4.43207752308687e-013
  outer loop
    vertex -61.6046135804093 -202.717171696471 7.28263076247035
    vertex -61.6386877541193 -202.975990741574 4.89999999999859
    vertex -61.6046135804083 -202.717171696472 4.89999999999853
  endloop
endfacet
facet normal 0.707106781186583 -0.707106781186512 1.92449000112892e-013
  outer loop
    vertex -58.8886877541193 -208.475990741573 7.2826307624723
    vertex -56.8886877541194 -206.475990741574 4.89999999999952
    vertex -56.8886877541194 -206.475990741573 7.28263076247183
  endloop
endfacet
facet normal 0.707106781186583 -0.707106781186512 1.92449000112892e-013
  outer loop
    vertex -56.8886877541194 -206.475990741574 4.89999999999952
    vertex -58.8886877541193 -208.475990741573 7.2826307624723
    vertex -58.8886877541193 -208.475990741574 4.89999999999999
  endloop
endfacet
facet normal 0.923879532511359 -0.382683432364914 4.535028678403e-013
  outer loop
    vertex -61.6046135804083 -202.717171696472 4.89999999999853
    vertex -61.5047131579047 -202.475990741574 7.28263076247029
    vertex -61.6046135804093 -202.717171696471 7.28263076247035
  endloop
endfacet
facet normal 0.923879532511359 -0.382683432364914 4.535028678403e-013
  outer loop
    vertex -61.5047131579047 -202.475990741574 7.28263076247029
    vertex -61.6046135804083 -202.717171696472 4.89999999999853
    vertex -61.5047131579037 -202.475990741574 4.89999999999848
  endloop
endfacet
facet normal -0.79335334029101 0.608761429009014 -4.09282117828638e-013
  outer loop
    vertex -59.7726623503357 -203.475990741574 7.28263076247074
    vertex -59.9315809729327 -203.683097522761 4.89999999999897
    vertex -59.9315809729337 -203.68309752276 7.28263076247078
  endloop
endfacet
facet normal -0.79335334029101 0.608761429009014 -4.09282117828638e-013
  outer loop
    vertex -59.9315809729327 -203.683097522761 4.89999999999897
    vertex -59.7726623503357 -203.475990741574 7.28263076247074
    vertex -59.7726623503347 -203.475990741574 4.89999999999893
  endloop
endfacet
facet normal 0.923879532511308 0.382683432365039 3.34770073283983e-013
  outer loop
    vertex -61.5047131579036 -203.475990741574 4.89999999999874
    vertex -61.6046135804093 -203.234809786676 7.28263076247048
    vertex -61.5047131579046 -203.475990741574 7.28263076247055
  endloop
endfacet
facet normal 0.923879532511308 0.382683432365039 3.34770073283983e-013
  outer loop
    vertex -61.6046135804093 -203.234809786676 7.28263076247048
    vertex -61.5047131579036 -203.475990741574 4.89999999999874
    vertex -61.6046135804082 -203.234809786677 4.89999999999866
  endloop
endfacet
facet normal 0.807739074101242 -1.48006815057915e-013 -0.589540149752388
  outer loop
    vertex -76.5096041237738 -197.475990741576 7.57377083727217
    vertex -75.8553754937918 -208.475990741574 8.47014070801939
    vertex -76.5096041237739 -208.475990741575 7.57377083727481
  endloop
endfacet
facet normal 0.807739074101242 -1.48006815057915e-013 -0.589540149752388
  outer loop
    vertex -75.8553754937918 -208.475990741574 8.47014070801939
    vertex -76.5096041237738 -197.475990741576 7.57377083727217
    vertex -75.8553754937917 -197.475990741575 8.47014070801675
  endloop
endfacet
facet normal -0.130526192219702 -0.991444861373856 7.88946079890676e-014
  outer loop
    vertex -60.6386877541203 -201.975990741574 7.28263076247026
    vertex -60.3798687090167 -202.010064915285 4.89999999999848
    vertex -60.3798687090178 -202.010064915285 7.2826307624703
  endloop
endfacet
facet normal -0.130526192219702 -0.991444861373856 7.88946079890676e-014
  outer loop
    vertex -60.3798687090167 -202.010064915285 4.89999999999848
    vertex -60.6386877541203 -201.975990741574 7.28263076247026
    vertex -60.6386877541193 -201.975990741574 4.89999999999845
  endloop
endfacet
facet normal -0.793353340291141 -0.608761429008843 -2.67624370538258e-013
  outer loop
    vertex -59.9315809729337 -202.268883960387 7.28263076247041
    vertex -59.7726623503348 -202.475990741574 4.89999999999867
    vertex -59.7726623503358 -202.475990741574 7.28263076247048
  endloop
endfacet
facet normal -0.793353340291141 -0.608761429008843 -2.67624370538258e-013
  outer loop
    vertex -59.7726623503348 -202.475990741574 4.89999999999867
    vertex -59.9315809729337 -202.268883960387 7.28263076247041
    vertex -59.9315809729327 -202.268883960387 4.8999999999986
  endloop
endfacet
facet normal -0.923879532511308 -0.38268343236504 -3.49611203073592e-013
  outer loop
    vertex -59.7726623503358 -202.475990741574 7.28263076247048
    vertex -59.6727619278301 -202.717171696472 4.89999999999874
    vertex -59.6727619278312 -202.717171696471 7.28263076247056
  endloop
endfacet
facet normal -0.923879532511308 -0.38268343236504 -3.49611203073592e-013
  outer loop
    vertex -59.6727619278301 -202.717171696472 4.89999999999874
    vertex -59.7726623503358 -202.475990741574 7.28263076247048
    vertex -59.7726623503348 -202.475990741574 4.89999999999867
  endloop
endfacet
facet normal -0.608761429009099 0.793353340290945 -3.98159586785649e-013
  outer loop
    vertex -59.9315809729327 -203.683097522761 4.89999999999897
    vertex -60.1386877541201 -203.842016145358 7.2826307624708
    vertex -59.9315809729337 -203.68309752276 7.28263076247078
  endloop
endfacet
facet normal -0.608761429009099 0.793353340290945 -3.98159586785649e-013
  outer loop
    vertex -60.1386877541201 -203.842016145358 7.2826307624708
    vertex -59.9315809729327 -203.683097522761 4.89999999999897
    vertex -60.1386877541191 -203.842016145359 4.89999999999899
  endloop
endfacet
facet normal 0.991444861373762 0.130526192220421 4.02710605346189e-013
  outer loop
    vertex -61.6046135804082 -203.234809786677 4.89999999999866
    vertex -61.6386877541203 -202.975990741574 7.28263076247041
    vertex -61.6046135804093 -203.234809786676 7.28263076247048
  endloop
endfacet
facet normal 0.991444861373762 0.130526192220421 4.02710605346189e-013
  outer loop
    vertex -61.6386877541203 -202.975990741574 7.28263076247041
    vertex -61.6046135804082 -203.234809786677 4.89999999999866
    vertex -61.6386877541193 -202.975990741574 4.89999999999859
  endloop
endfacet
facet normal 0.68904253847784 -1.79551460868474e-013 -0.724720898117348
  outer loop
    vertex -75.0511331355842 -208.475990741574 9.23478982672191
    vertex -75.4032582517452 -197.475990741574 8.89999999999876
    vertex -75.0511331355841 -197.475990741575 9.23478982671927
  endloop
endfacet
facet normal 0.68904253847784 -1.79551460868474e-013 -0.724720898117348
  outer loop
    vertex -75.4032582517452 -197.475990741574 8.89999999999876
    vertex -75.0511331355842 -208.475990741574 9.23478982672191
    vertex -75.4032582517453 -208.475990741573 8.9000000000014
  endloop
endfacet
facet normal 0.68904253847784 -1.79551460868474e-013 -0.724720898117348
  outer loop
    vertex -75.4032582517452 -197.475990741574 8.89999999999876
    vertex -75.4032582517453 -208.475990741573 8.9000000000014
    vertex -75.8553754937917 -197.475990741575 8.47014070801675
  endloop
endfacet
facet normal 0.68904253847784 -1.79551460868474e-013 -0.724720898117348
  outer loop
    vertex -75.8553754937917 -197.475990741575 8.47014070801675
    vertex -75.4032582517453 -208.475990741573 8.9000000000014
    vertex -75.8553754937918 -208.475990741574 8.47014070801939
  endloop
endfacet
facet normal -0.707106781186485 -0.70710678118661 1.70488943043578e-013
  outer loop
    vertex -84.8886877541192 -206.475990741575 4.99999999999947
    vertex -82.8886877541191 -208.475990741575 7.2826307624719
    vertex -84.8886877541192 -206.475990741575 7.28263076247144
  endloop
endfacet
facet normal -0.707106781186485 -0.70710678118661 1.70488943043578e-013
  outer loop
    vertex -82.8886877541191 -208.475990741575 7.2826307624719
    vertex -84.8886877541192 -206.475990741575 4.99999999999947
    vertex -82.8886877541191 -208.475990741575 4.99999999999994
  endloop
endfacet
facet normal -0.382683432365493 0.92387953251112 -3.42407185819829e-013
  outer loop
    vertex -60.1386877541191 -203.842016145359 4.89999999999899
    vertex -60.3798687090176 -203.941916567863 7.2826307624708
    vertex -60.1386877541201 -203.842016145358 7.2826307624708
  endloop
endfacet
facet normal -0.382683432365493 0.92387953251112 -3.42407185819829e-013
  outer loop
    vertex -60.3798687090176 -203.941916567863 7.2826307624708
    vertex -60.1386877541191 -203.842016145359 4.89999999999899
    vertex -60.3798687090166 -203.941916567863 4.89999999999899
  endloop
endfacet
facet normal 0.608761429008646 0.793353340291292 1.67396911111587e-013
  outer loop
    vertex -61.1386877541191 -203.842016145359 4.89999999999887
    vertex -61.3457945353068 -203.68309752276 7.28263076247063
    vertex -61.1386877541201 -203.842016145358 7.28263076247069
  endloop
endfacet
facet normal 0.608761429008646 0.793353340291292 1.67396911111587e-013
  outer loop
    vertex -61.3457945353068 -203.68309752276 7.28263076247063
    vertex -61.1386877541191 -203.842016145359 4.89999999999887
    vertex -61.3457945353058 -203.683097522761 4.89999999999881
  endloop
endfacet
facet normal -0.382683432364888 -0.92387953251137 1.58961649378775e-014
  outer loop
    vertex -60.3798687090178 -202.010064915285 7.2826307624703
    vertex -60.1386877541193 -202.10996533779 4.89999999999853
    vertex -60.1386877541203 -202.109965337789 7.28263076247035
  endloop
endfacet
facet normal -0.382683432364888 -0.92387953251137 1.58961649378775e-014
  outer loop
    vertex -60.1386877541193 -202.10996533779 4.89999999999853
    vertex -60.3798687090178 -202.010064915285 7.2826307624703
    vertex -60.3798687090167 -202.010064915285 4.89999999999848
  endloop
endfacet
facet normal 0.130526192219528 -0.991444861373879 1.7103581629868e-013
  outer loop
    vertex -60.8975067992228 -202.010064915285 7.28263076247024
    vertex -60.6386877541193 -201.975990741574 4.89999999999845
    vertex -60.6386877541203 -201.975990741574 7.28263076247026
  endloop
endfacet
facet normal 0.130526192219528 -0.991444861373879 1.7103581629868e-013
  outer loop
    vertex -60.6386877541193 -201.975990741574 4.89999999999845
    vertex -60.8975067992228 -202.010064915285 7.28263076247024
    vertex -60.8975067992218 -202.010064915285 4.89999999999843
  endloop
endfacet
facet normal 0.382683432365191 0.923879532511245 5.57639166970434e-014
  outer loop
    vertex -60.8975067992217 -203.941916567863 4.89999999999893
    vertex -61.1386877541201 -203.842016145358 7.28263076247069
    vertex -60.8975067992227 -203.941916567863 7.28263076247074
  endloop
endfacet
facet normal 0.382683432365191 0.923879532511245 5.57639166970434e-014
  outer loop
    vertex -61.1386877541201 -203.842016145358 7.28263076247069
    vertex -60.8975067992217 -203.941916567863 4.89999999999893
    vertex -61.1386877541191 -203.842016145359 4.89999999999887
  endloop
endfacet
facet normal 0.130526192220224 0.991444861373788 -5.96685391711013e-014
  outer loop
    vertex -60.6386877541191 -203.975990741574 4.89999999999897
    vertex -60.8975067992227 -203.941916567863 7.28263076247074
    vertex -60.6386877541201 -203.975990741574 7.28263076247078
  endloop
endfacet
facet normal 0.130526192220224 0.991444861373788 -5.96685391711013e-014
  outer loop
    vertex -60.8975067992227 -203.941916567863 7.28263076247074
    vertex -60.6386877541191 -203.975990741574 4.89999999999897
    vertex -60.8975067992217 -203.941916567863 4.89999999999893
  endloop
endfacet
facet normal 0.991444861373762 0.130526192220421 -6.84436283698921e-013
  outer loop
    vertex -82.1386877541191 -202.975990741576 4.99999999999836
    vertex -82.1046135804066 -203.234809786678 7.28263076247428
    vertex -82.104613580408 -203.234809786678 4.99999999999842
  endloop
endfacet
facet normal 0.991444861373762 0.130526192220421 -6.84436283698921e-013
  outer loop
    vertex -82.1046135804066 -203.234809786678 7.28263076247428
    vertex -82.1386877541191 -202.975990741576 4.99999999999836
    vertex -82.1386877541176 -202.975990741575 7.28263076247423
  endloop
endfacet
facet normal -0.79335334029101 0.608761429009014 3.4135349766483e-013
  outer loop
    vertex -80.431580972931 -203.683097522761 7.28263076247413
    vertex -80.2726623503345 -203.475990741576 4.9999999999982
    vertex -80.4315809729325 -203.683097522762 4.99999999999826
  endloop
endfacet
facet normal -0.79335334029101 0.608761429009014 3.4135349766483e-013
  outer loop
    vertex -80.2726623503345 -203.475990741576 4.9999999999982
    vertex -80.431580972931 -203.683097522761 7.28263076247413
    vertex -80.272662350333 -203.475990741575 7.28263076247407
  endloop
endfacet
facet normal -0.991444861373831 -0.130526192219899 -4.07772744818011e-013
  outer loop
    vertex -59.6727619278312 -202.717171696471 7.28263076247056
    vertex -59.6386877541193 -202.975990741574 4.89999999999881
    vertex -59.6386877541203 -202.975990741574 7.28263076247063
  endloop
endfacet
facet normal -0.991444861373831 -0.130526192219899 -4.07772744818011e-013
  outer loop
    vertex -59.6386877541193 -202.975990741574 4.89999999999881
    vertex -59.6727619278312 -202.717171696471 7.28263076247056
    vertex -59.6727619278301 -202.717171696472 4.89999999999874
  endloop
endfacet
facet normal 0.707106781186512 0.707106781186583 -1.9242714208573e-013
  outer loop
    vertex -58.8886877541201 -197.475990741575 4.89999999999742
    vertex -56.8886877541199 -199.475990741574 7.28263076247022
    vertex -56.8886877541199 -199.475990741574 4.89999999999789
  endloop
endfacet
facet normal 0.707106781186512 0.707106781186583 -1.9242714208573e-013
  outer loop
    vertex -56.8886877541199 -199.475990741574 7.28263076247022
    vertex -58.8886877541201 -197.475990741575 4.89999999999742
    vertex -58.8886877541201 -197.475990741574 7.28263076246975
  endloop
endfacet
facet normal 0.793353340291115 0.608761429008877 2.55814250237805e-013
  outer loop
    vertex -61.3457945353058 -203.683097522761 4.89999999999881
    vertex -61.5047131579046 -203.475990741574 7.28263076247055
    vertex -61.3457945353068 -203.68309752276 7.28263076247063
  endloop
endfacet
facet normal 0.793353340291115 0.608761429008877 2.55814250237805e-013
  outer loop
    vertex -61.5047131579046 -203.475990741574 7.28263076247055
    vertex -61.3457945353058 -203.683097522761 4.89999999999881
    vertex -61.5047131579036 -203.475990741574 4.89999999999874
  endloop
endfacet
facet normal 0.608761429008817 -0.793353340291161 -1.69487764530684e-013
  outer loop
    vertex -81.8457945353056 -202.268883960389 4.99999999999816
    vertex -81.6386877541176 -202.10996533779 7.28263076247396
    vertex -81.8457945353041 -202.268883960388 7.28263076247403
  endloop
endfacet
facet normal 0.608761429008817 -0.793353340291161 -1.69487764530684e-013
  outer loop
    vertex -81.6386877541176 -202.10996533779 7.28263076247396
    vertex -81.8457945353056 -202.268883960389 4.99999999999816
    vertex -81.6386877541191 -202.109965337791 4.99999999999809
  endloop
endfacet
facet normal -0.793353340291141 -0.608761429008843 6.86364859009865e-013
  outer loop
    vertex -80.2726623503331 -202.475990741575 7.28263076247384
    vertex -80.4315809729325 -202.268883960389 4.99999999999795
    vertex -80.2726623503346 -202.475990741576 4.99999999999797
  endloop
endfacet
facet normal -0.793353340291141 -0.608761429008843 6.86364859009865e-013
  outer loop
    vertex -80.4315809729325 -202.268883960389 4.99999999999795
    vertex -80.2726623503331 -202.475990741575 7.28263076247384
    vertex -80.431580972931 -202.268883960388 7.28263076247382
  endloop
endfacet
facet normal -0.923879532511359 0.382683432364914 -4.38659690059404e-013
  outer loop
    vertex -59.6727619278311 -203.234809786676 7.28263076247069
    vertex -59.7726623503347 -203.475990741574 4.89999999999893
    vertex -59.7726623503357 -203.475990741574 7.28263076247074
  endloop
endfacet
facet normal -0.923879532511359 0.382683432364914 -4.38659690059404e-013
  outer loop
    vertex -59.7726623503347 -203.475990741574 4.89999999999893
    vertex -59.6727619278311 -203.234809786676 7.28263076247069
    vertex -59.6727619278301 -203.234809786676 4.89999999999888
  endloop
endfacet
facet normal 0.923879532511385 -0.382683432364852 -4.66724099826332e-013
  outer loop
    vertex -82.0047131579035 -202.475990741576 4.99999999999823
    vertex -82.1046135804066 -202.717171696473 7.28263076247417
    vertex -82.1046135804081 -202.717171696473 4.9999999999983
  endloop
endfacet
facet normal 0.923879532511385 -0.382683432364852 -4.66724099826332e-013
  outer loop
    vertex -82.1046135804066 -202.717171696473 7.28263076247417
    vertex -82.0047131579035 -202.475990741576 4.99999999999823
    vertex -82.004713157902 -202.475990741575 7.2826307624741
  endloop
endfacet
facet normal 0.382683432365191 -0.923879532511245 2.70745999880276e-013
  outer loop
    vertex -61.1386877541203 -202.109965337789 7.28263076247024
    vertex -60.8975067992218 -202.010064915285 4.89999999999843
    vertex -60.8975067992228 -202.010064915285 7.28263076247024
  endloop
endfacet
facet normal 0.382683432365191 -0.923879532511245 2.70745999880276e-013
  outer loop
    vertex -60.8975067992218 -202.010064915285 4.89999999999843
    vertex -61.1386877541203 -202.109965337789 7.28263076247024
    vertex -61.1386877541193 -202.10996533779 4.89999999999842
  endloop
endfacet
facet normal -0.991444861373854 0.130526192219725 6.05178275101383e-013
  outer loop
    vertex -80.1727619278284 -203.234809786677 7.282630762474
    vertex -80.1386877541191 -202.975990741576 4.99999999999807
    vertex -80.1727619278299 -203.234809786678 4.99999999999813
  endloop
endfacet
facet normal -0.991444861373854 0.130526192219725 6.05178275101383e-013
  outer loop
    vertex -80.1386877541191 -202.975990741576 4.99999999999807
    vertex -80.1727619278284 -203.234809786677 7.282630762474
    vertex -80.1386877541176 -202.975990741575 7.28263076247393
  endloop
endfacet
facet normal -0.900294990535297 6.14067739459515e-014 0.435280289028861
  outer loop
    vertex -78.2315700561194 -197.475990741576 8.60695039667908
    vertex -78.8718604489408 -208.475990741575 7.282630762472
    vertex -78.2315700561191 -208.475990741575 8.60695039668131
  endloop
endfacet
facet normal -0.900294990535297 6.14067739459515e-014 0.435280289028861
  outer loop
    vertex -78.8718604489408 -208.475990741575 7.282630762472
    vertex -78.2315700561194 -197.475990741576 8.60695039667908
    vertex -78.8718604489411 -197.475990741576 7.28263076246978
  endloop
endfacet
facet normal 0.900294990535173 1.12421418822019e-013 0.435280289029118
  outer loop
    vertex -62.9055150592993 -208.475990741574 7.28263076247255
    vertex -63.5458054521217 -197.475990741575 8.60695039667948
    vertex -63.5458054521214 -208.475990741574 8.6069503966817
  endloop
endfacet
facet normal 0.900294990535173 1.12421418822019e-013 0.435280289029118
  outer loop
    vertex -63.5458054521217 -197.475990741575 8.60695039667948
    vertex -62.9055150592993 -208.475990741574 7.28263076247255
    vertex -62.9055150592996 -197.475990741575 7.28263076247033
  endloop
endfacet
facet normal 0.689042538477752 1.65153376526195e-013 0.72472089811743
  outer loop
    vertex -65.4790625828045 -197.475990741575 10.8086923795845
    vertex -64.9960321795379 -208.475990741575 10.3494417962337
    vertex -64.9960321795381 -197.475990741576 10.3494417962314
  endloop
endfacet
facet normal 0.689042538477752 1.65153376526195e-013 0.72472089811743
  outer loop
    vertex -64.9960321795379 -208.475990741575 10.3494417962337
    vertex -65.4790625828045 -197.475990741575 10.8086923795845
    vertex -65.4790625828042 -208.475990741574 10.8086923795868
  endloop
endfacet
facet normal -0.689042538477833 1.27160222766559e-013 0.724720898117354
  outer loop
    vertex -77.3643658578517 -197.475990741575 9.7951217476205
    vertex -76.781343328701 -208.475990741573 10.3494417962361
    vertex -76.7813433287013 -197.475990741574 10.3494417962339
  endloop
endfacet
facet normal -0.689042538477833 1.27160222766559e-013 0.724720898117354
  outer loop
    vertex -76.781343328701 -208.475990741573 10.3494417962361
    vertex -77.3643658578517 -197.475990741575 9.7951217476205
    vertex -77.3643658578514 -208.475990741574 9.79512174762272
  endloop
endfacet
facet normal -0.548046724311837 1.53579718953738e-013 0.83644771980744
  outer loop
    vertex -76.2983129254368 -197.475990741575 10.8086923795853
    vertex -74.6327217810875 -208.475990741573 11.9000000000009
    vertex -74.6327217810878 -197.475990741574 11.8999999999987
  endloop
endfacet
facet normal -0.548046724311837 1.53579718953738e-013 0.83644771980744
  outer loop
    vertex -74.6327217810875 -208.475990741573 11.9000000000009
    vertex -76.2983129254368 -197.475990741575 10.8086923795853
    vertex -76.2983129254365 -208.475990741574 10.8086923795875
  endloop
endfacet
facet normal -0.807739074101244 9.66254781458207e-014 0.589540149752386
  outer loop
    vertex -77.3643658578514 -208.475990741574 9.79512174762272
    vertex -78.2315700561194 -197.475990741576 8.60695039667908
    vertex -78.2315700561191 -208.475990741575 8.60695039668131
  endloop
endfacet
facet normal -0.807739074101244 9.66254781458207e-014 0.589540149752386
  outer loop
    vertex -78.2315700561194 -197.475990741576 8.60695039667908
    vertex -77.3643658578514 -208.475990741574 9.79512174762272
    vertex -77.3643658578517 -197.475990741575 9.7951217476205
  endloop
endfacet
facet normal 0.548046724311452 1.83798496897787e-013 0.836447719807692
  outer loop
    vertex -67.1446537271538 -197.475990741575 11.899999999997
    vertex -65.4790625828042 -208.475990741574 10.8086923795868
    vertex -65.4790625828045 -197.475990741575 10.8086923795845
  endloop
endfacet
facet normal 0.548046724311452 1.83798496897787e-013 0.836447719807692
  outer loop
    vertex -65.4790625828042 -208.475990741574 10.8086923795868
    vertex -67.1446537271538 -197.475990741575 11.899999999997
    vertex -67.1446537271535 -208.475990741574 11.8999999999992
  endloop
endfacet
facet normal 2.24748098505923e-013 2.01673223479624e-013 1.0
  outer loop
    vertex -74.6327217810878 -197.475990741574 11.8999999999987
    vertex -67.1446537271535 -208.475990741574 11.8999999999992
    vertex -67.1446537271538 -197.475990741575 11.899999999997
  endloop
endfacet
facet normal 2.24748098505923e-013 2.01673223479624e-013 1.0
  outer loop
    vertex -67.1446537271535 -208.475990741574 11.8999999999992
    vertex -74.6327217810878 -197.475990741574 11.8999999999987
    vertex -74.6327217810875 -208.475990741573 11.9000000000009
  endloop
endfacet
facet normal 0.80773907410094 1.41163446596695e-013 0.589540149752802
  outer loop
    vertex -63.5458054521217 -197.475990741575 8.60695039667948
    vertex -64.4130096503896 -208.475990741574 9.79512174762243
    vertex -63.5458054521214 -208.475990741574 8.6069503966817
  endloop
endfacet
facet normal 0.80773907410094 1.41163446596695e-013 0.589540149752802
  outer loop
    vertex -64.4130096503896 -208.475990741574 9.79512174762243
    vertex -63.5458054521217 -197.475990741575 8.60695039667948
    vertex -64.4130096503898 -197.475990741575 9.79512174762021
  endloop
endfacet
facet normal 0.689042538477719 1.65153376526201e-013 0.724720898117463
  outer loop
    vertex -64.9960321795381 -197.475990741576 10.3494417962314
    vertex -64.4130096503896 -208.475990741574 9.79512174762243
    vertex -64.4130096503898 -197.475990741575 9.79512174762021
  endloop
endfacet
facet normal 0.689042538477719 1.65153376526201e-013 0.724720898117463
  outer loop
    vertex -64.4130096503896 -208.475990741574 9.79512174762243
    vertex -64.9960321795381 -197.475990741576 10.3494417962314
    vertex -64.9960321795379 -208.475990741575 10.3494417962337
  endloop
endfacet
facet normal -0.689042538477846 1.27160222766556e-013 0.724720898117341
  outer loop
    vertex -76.7813433287013 -197.475990741574 10.3494417962339
    vertex -76.2983129254365 -208.475990741574 10.8086923795875
    vertex -76.2983129254368 -197.475990741575 10.8086923795853
  endloop
endfacet
facet normal -0.689042538477846 1.27160222766556e-013 0.724720898117341
  outer loop
    vertex -76.2983129254365 -208.475990741574 10.8086923795875
    vertex -76.7813433287013 -197.475990741574 10.3494417962339
    vertex -76.781343328701 -208.475990741573 10.3494417962361
  endloop
endfacet
facet normal -2.2476664025907e-013 -2.40136892375295e-013 -1.0
  outer loop
    vertex -67.7415089693697 -208.475990741575 9.89999999999935
    vertex -74.0358665388711 -197.475990741574 9.89999999999812
    vertex -67.7415089693696 -197.475990741576 9.89999999999671
  endloop
endfacet
facet normal -2.2476664025907e-013 -2.40136892375295e-013 -1.0
  outer loop
    vertex -74.0358665388711 -197.475990741574 9.89999999999812
    vertex -67.7415089693697 -208.475990741575 9.89999999999935
    vertex -74.0358665388711 -208.475990741573 9.90000000000077
  endloop
endfacet
facet normal 7.3774836881082e-014 2.19312223822466e-013 1.0
  outer loop
    vertex -58.8886877541201 -197.475990741574 7.28263076246975
    vertex -56.8886877541194 -206.475990741573 7.28263076247183
    vertex -56.8886877541199 -199.475990741574 7.28263076247022
  endloop
endfacet
facet normal 7.3774836881082e-014 2.19312223822466e-013 1.0
  outer loop
    vertex -56.8886877541194 -206.475990741573 7.28263076247183
    vertex -58.8886877541201 -197.475990741574 7.28263076246975
    vertex -58.8886877541193 -208.475990741573 7.2826307624723
  endloop
endfacet
facet normal 7.3774836881082e-014 2.19312223822466e-013 1.0
  outer loop
    vertex -58.8886877541193 -208.475990741573 7.2826307624723
    vertex -58.8886877541201 -197.475990741574 7.28263076246975
    vertex -59.6727619278312 -202.717171696471 7.28263076247056
  endloop
endfacet
facet normal 7.3774836881082e-014 2.19312223822466e-013 1.0
  outer loop
    vertex -59.6727619278312 -202.717171696471 7.28263076247056
    vertex -58.8886877541201 -197.475990741574 7.28263076246975
    vertex -59.7726623503358 -202.475990741574 7.28263076247048
  endloop
endfacet
facet normal 7.3774836881082e-014 2.19312223822466e-013 1.0
  outer loop
    vertex -59.7726623503358 -202.475990741574 7.28263076247048
    vertex -58.8886877541201 -197.475990741574 7.28263076246975
    vertex -62.9055150592996 -197.475990741575 7.28263076247033
  endloop
endfacet
facet normal 7.3774836881082e-014 2.19312223822466e-013 1.0
  outer loop
    vertex -58.8886877541193 -208.475990741573 7.2826307624723
    vertex -59.6727619278312 -202.717171696471 7.28263076247056
    vertex -59.6386877541203 -202.975990741574 7.28263076247063
  endloop
endfacet
facet normal 7.3774836881082e-014 2.19312223822466e-013 1.0
  outer loop
    vertex -59.7726623503358 -202.475990741574 7.28263076247048
    vertex -62.9055150592996 -197.475990741575 7.28263076247033
    vertex -59.9315809729337 -202.268883960387 7.28263076247041
  endloop
endfacet
facet normal 7.3774836881082e-014 2.19312223822466e-013 1.0
  outer loop
    vertex -59.9315809729337 -202.268883960387 7.28263076247041
    vertex -62.9055150592996 -197.475990741575 7.28263076247033
    vertex -60.1386877541203 -202.109965337789 7.28263076247035
  endloop
endfacet
facet normal 7.3774836881082e-014 2.19312223822466e-013 1.0
  outer loop
    vertex -60.1386877541203 -202.109965337789 7.28263076247035
    vertex -62.9055150592996 -197.475990741575 7.28263076247033
    vertex -60.3798687090178 -202.010064915285 7.2826307624703
  endloop
endfacet
facet normal 7.3774836881082e-014 2.19312223822466e-013 1.0
  outer loop
    vertex -60.3798687090178 -202.010064915285 7.2826307624703
    vertex -62.9055150592996 -197.475990741575 7.28263076247033
    vertex -60.6386877541203 -201.975990741574 7.28263076247026
  endloop
endfacet
facet normal 7.3774836881082e-014 2.19312223822466e-013 1.0
  outer loop
    vertex -60.6386877541203 -201.975990741574 7.28263076247026
    vertex -62.9055150592996 -197.475990741575 7.28263076247033
    vertex -60.8975067992228 -202.010064915285 7.28263076247024
  endloop
endfacet
facet normal 7.3774836881082e-014 2.19312223822466e-013 1.0
  outer loop
    vertex -60.8975067992228 -202.010064915285 7.28263076247024
    vertex -62.9055150592996 -197.475990741575 7.28263076247033
    vertex -61.1386877541203 -202.109965337789 7.28263076247024
  endloop
endfacet
facet normal 7.3774836881082e-014 2.19312223822466e-013 1.0
  outer loop
    vertex -61.1386877541203 -202.109965337789 7.28263076247024
    vertex -62.9055150592996 -197.475990741575 7.28263076247033
    vertex -61.3457945353068 -202.268883960387 7.28263076247026
  endloop
endfacet
facet normal 7.3774836881082e-014 2.19312223822466e-013 1.0
  outer loop
    vertex -61.3457945353068 -202.268883960387 7.28263076247026
    vertex -62.9055150592996 -197.475990741575 7.28263076247033
    vertex -61.5047131579047 -202.475990741574 7.28263076247029
  endloop
endfacet
facet normal 7.3774836881082e-014 2.19312223822466e-013 1.0
  outer loop
    vertex -61.5047131579047 -202.475990741574 7.28263076247029
    vertex -62.9055150592996 -197.475990741575 7.28263076247033
    vertex -61.6046135804093 -202.717171696471 7.28263076247035
  endloop
endfacet
facet normal 7.3774836881082e-014 2.19312223822466e-013 1.0
  outer loop
    vertex -61.6046135804093 -202.717171696471 7.28263076247035
    vertex -62.9055150592996 -197.475990741575 7.28263076247033
    vertex -61.6386877541203 -202.975990741574 7.28263076247041
  endloop
endfacet
facet normal 7.3774836881082e-014 2.19312223822466e-013 1.0
  outer loop
    vertex -58.8886877541193 -208.475990741573 7.2826307624723
    vertex -59.7726623503357 -203.475990741574 7.28263076247074
    vertex -62.9055150592993 -208.475990741574 7.28263076247255
  endloop
endfacet
facet normal 7.3774836881082e-014 2.19312223822466e-013 1.0
  outer loop
    vertex -59.7726623503357 -203.475990741574 7.28263076247074
    vertex -58.8886877541193 -208.475990741573 7.2826307624723
    vertex -59.6727619278311 -203.234809786676 7.28263076247069
  endloop
endfacet
facet normal 7.3774836881082e-014 2.19312223822466e-013 1.0
  outer loop
    vertex -59.6727619278311 -203.234809786676 7.28263076247069
    vertex -58.8886877541193 -208.475990741573 7.2826307624723
    vertex -59.6386877541203 -202.975990741574 7.28263076247063
  endloop
endfacet
facet normal 7.3774836881082e-014 2.19312223822466e-013 1.0
  outer loop
    vertex -62.9055150592993 -208.475990741574 7.28263076247255
    vertex -59.7726623503357 -203.475990741574 7.28263076247074
    vertex -59.9315809729337 -203.68309752276 7.28263076247078
  endloop
endfacet
facet normal 7.3774836881082e-014 2.19312223822466e-013 1.0
  outer loop
    vertex -62.9055150592993 -208.475990741574 7.28263076247255
    vertex -59.9315809729337 -203.68309752276 7.28263076247078
    vertex -60.1386877541201 -203.842016145358 7.2826307624708
  endloop
endfacet
facet normal 7.3774836881082e-014 2.19312223822466e-013 1.0
  outer loop
    vertex -62.9055150592993 -208.475990741574 7.28263076247255
    vertex -60.1386877541201 -203.842016145358 7.2826307624708
    vertex -60.3798687090176 -203.941916567863 7.2826307624708
  endloop
endfacet
facet normal 7.3774836881082e-014 2.19312223822466e-013 1.0
  outer loop
    vertex -62.9055150592993 -208.475990741574 7.28263076247255
    vertex -60.3798687090176 -203.941916567863 7.2826307624708
    vertex -60.6386877541201 -203.975990741574 7.28263076247078
  endloop
endfacet
facet normal 7.3774836881082e-014 2.19312223822466e-013 1.0
  outer loop
    vertex -62.9055150592993 -208.475990741574 7.28263076247255
    vertex -60.6386877541201 -203.975990741574 7.28263076247078
    vertex -60.8975067992227 -203.941916567863 7.28263076247074
  endloop
endfacet
facet normal 7.3774836881082e-014 2.19312223822466e-013 1.0
  outer loop
    vertex -62.9055150592993 -208.475990741574 7.28263076247255
    vertex -60.8975067992227 -203.941916567863 7.28263076247074
    vertex -61.1386877541201 -203.842016145358 7.28263076247069
  endloop
endfacet
facet normal 7.3774836881082e-014 2.19312223822466e-013 1.0
  outer loop
    vertex -62.9055150592993 -208.475990741574 7.28263076247255
    vertex -61.1386877541201 -203.842016145358 7.28263076247069
    vertex -61.3457945353068 -203.68309752276 7.28263076247063
  endloop
endfacet
facet normal 7.3774836881082e-014 2.19312223822466e-013 1.0
  outer loop
    vertex -62.9055150592993 -208.475990741574 7.28263076247255
    vertex -61.3457945353068 -203.68309752276 7.28263076247063
    vertex -61.5047131579046 -203.475990741574 7.28263076247055
  endloop
endfacet
facet normal 7.3774836881082e-014 2.19312223822466e-013 1.0
  outer loop
    vertex -62.9055150592993 -208.475990741574 7.28263076247255
    vertex -61.5047131579046 -203.475990741574 7.28263076247055
    vertex -61.6046135804093 -203.234809786676 7.28263076247048
  endloop
endfacet
facet normal 7.3774836881082e-014 2.19312223822466e-013 1.0
  outer loop
    vertex -62.9055150592993 -208.475990741574 7.28263076247255
    vertex -61.6046135804093 -203.234809786676 7.28263076247048
    vertex -61.6386877541203 -202.975990741574 7.28263076247041
  endloop
endfacet
facet normal 7.3774836881082e-014 2.19312223822466e-013 1.0
  outer loop
    vertex -62.9055150592993 -208.475990741574 7.28263076247255
    vertex -61.6386877541203 -202.975990741574 7.28263076247041
    vertex -62.9055150592996 -197.475990741575 7.28263076247033
  endloop
endfacet
facet normal -4.80842172140721e-014 2.19743882197027e-013 1.0
  outer loop
    vertex -78.8718604489411 -197.475990741576 7.28263076246978
    vertex -80.1727619278285 -202.717171696472 7.28263076247388
    vertex -78.8718604489408 -208.475990741575 7.282630762472
  endloop
endfacet
facet normal -4.80842172140721e-014 2.19743882197027e-013 1.0
  outer loop
    vertex -80.1727619278285 -202.717171696472 7.28263076247388
    vertex -78.8718604489411 -197.475990741576 7.28263076246978
    vertex -80.2726623503331 -202.475990741575 7.28263076247384
  endloop
endfacet
facet normal -4.80842172140721e-014 2.19743882197027e-013 1.0
  outer loop
    vertex -80.2726623503331 -202.475990741575 7.28263076247384
    vertex -78.8718604489411 -197.475990741576 7.28263076246978
    vertex -82.88868775412 -197.475990741576 7.28263076246935
  endloop
endfacet
facet normal -4.80842172140721e-014 2.19743882197027e-013 1.0
  outer loop
    vertex -78.8718604489408 -208.475990741575 7.282630762472
    vertex -80.1727619278285 -202.717171696472 7.28263076247388
    vertex -80.1386877541176 -202.975990741575 7.28263076247393
  endloop
endfacet
facet normal -4.80842172140721e-014 2.19743882197027e-013 1.0
  outer loop
    vertex -80.2726623503331 -202.475990741575 7.28263076247384
    vertex -82.88868775412 -197.475990741576 7.28263076246935
    vertex -80.431580972931 -202.268883960388 7.28263076247382
  endloop
endfacet
facet normal -4.80842172140721e-014 2.19743882197027e-013 1.0
  outer loop
    vertex -80.431580972931 -202.268883960388 7.28263076247382
    vertex -82.88868775412 -197.475990741576 7.28263076246935
    vertex -80.6386877541176 -202.10996533779 7.28263076247381
  endloop
endfacet
facet normal -4.80842172140721e-014 2.19743882197027e-013 1.0
  outer loop
    vertex -80.6386877541176 -202.10996533779 7.28263076247381
    vertex -82.88868775412 -197.475990741576 7.28263076246935
    vertex -80.879868709015 -202.010064915286 7.28263076247383
  endloop
endfacet
facet normal -4.80842172140721e-014 2.19743882197027e-013 1.0
  outer loop
    vertex -80.879868709015 -202.010064915286 7.28263076247383
    vertex -82.88868775412 -197.475990741576 7.28263076246935
    vertex -81.1386877541176 -201.975990741575 7.28263076247386
  endloop
endfacet
facet normal -4.80842172140721e-014 2.19743882197027e-013 1.0
  outer loop
    vertex -81.1386877541176 -201.975990741575 7.28263076247386
    vertex -82.88868775412 -197.475990741576 7.28263076246935
    vertex -81.3975067992201 -202.010064915286 7.2826307624739
  endloop
endfacet
facet normal -4.80842172140721e-014 2.19743882197027e-013 1.0
  outer loop
    vertex -81.3975067992201 -202.010064915286 7.2826307624739
    vertex -82.88868775412 -197.475990741576 7.28263076246935
    vertex -81.6386877541176 -202.10996533779 7.28263076247396
  endloop
endfacet
facet normal -4.80842172140721e-014 2.19743882197027e-013 1.0
  outer loop
    vertex -81.6386877541176 -202.10996533779 7.28263076247396
    vertex -82.88868775412 -197.475990741576 7.28263076246935
    vertex -81.8457945353041 -202.268883960388 7.28263076247403
  endloop
endfacet
facet normal -4.80842172140721e-014 2.19743882197027e-013 1.0
  outer loop
    vertex -81.8457945353041 -202.268883960388 7.28263076247403
    vertex -82.88868775412 -197.475990741576 7.28263076246935
    vertex -82.004713157902 -202.475990741575 7.2826307624741
  endloop
endfacet
facet normal -4.80842172140721e-014 2.19743882197027e-013 1.0
  outer loop
    vertex -82.004713157902 -202.475990741575 7.2826307624741
    vertex -82.88868775412 -197.475990741576 7.28263076246935
    vertex -82.1046135804066 -202.717171696473 7.28263076247417
  endloop
endfacet
facet normal -4.80842172140721e-014 2.19743882197027e-013 1.0
  outer loop
    vertex -82.1046135804066 -202.717171696473 7.28263076247417
    vertex -82.88868775412 -197.475990741576 7.28263076246935
    vertex -82.1386877541176 -202.975990741575 7.28263076247423
  endloop
endfacet
facet normal -4.80842172140721e-014 2.19743882197027e-013 1.0
  outer loop
    vertex -82.1386877541176 -202.975990741575 7.28263076247423
    vertex -82.88868775412 -197.475990741576 7.28263076246935
    vertex -82.8886877541191 -208.475990741575 7.2826307624719
  endloop
endfacet
facet normal -4.80842172140721e-014 2.19743882197027e-013 1.0
  outer loop
    vertex -82.8886877541191 -208.475990741575 7.2826307624719
    vertex -82.88868775412 -197.475990741576 7.28263076246935
    vertex -84.8886877541192 -206.475990741575 7.28263076247144
  endloop
endfacet
facet normal -4.80842172140721e-014 2.19743882197027e-013 1.0
  outer loop
    vertex -84.8886877541192 -206.475990741575 7.28263076247144
    vertex -82.88868775412 -197.475990741576 7.28263076246935
    vertex -84.8886877541198 -199.475990741576 7.2826307624698
  endloop
endfacet
facet normal -4.80842172140721e-014 2.19743882197027e-013 1.0
  outer loop
    vertex -78.8718604489408 -208.475990741575 7.282630762472
    vertex -80.272662350333 -203.475990741575 7.28263076247407
    vertex -82.8886877541191 -208.475990741575 7.2826307624719
  endloop
endfacet
facet normal -4.80842172140721e-014 2.19743882197027e-013 1.0
  outer loop
    vertex -80.272662350333 -203.475990741575 7.28263076247407
    vertex -78.8718604489408 -208.475990741575 7.282630762472
    vertex -80.1727619278284 -203.234809786677 7.282630762474
  endloop
endfacet
facet normal -4.80842172140721e-014 2.19743882197027e-013 1.0
  outer loop
    vertex -80.1727619278284 -203.234809786677 7.282630762474
    vertex -78.8718604489408 -208.475990741575 7.282630762472
    vertex -80.1386877541176 -202.975990741575 7.28263076247393
  endloop
endfacet
facet normal -4.80842172140721e-014 2.19743882197027e-013 1.0
  outer loop
    vertex -82.8886877541191 -208.475990741575 7.2826307624719
    vertex -80.272662350333 -203.475990741575 7.28263076247407
    vertex -80.431580972931 -203.683097522761 7.28263076247413
  endloop
endfacet
facet normal -4.80842172140721e-014 2.19743882197027e-013 1.0
  outer loop
    vertex -82.8886877541191 -208.475990741575 7.2826307624719
    vertex -80.431580972931 -203.683097522761 7.28263076247413
    vertex -80.6386877541174 -203.842016145359 7.2826307624742
  endloop
endfacet
facet normal -4.80842172140721e-014 2.19743882197027e-013 1.0
  outer loop
    vertex -82.8886877541191 -208.475990741575 7.2826307624719
    vertex -80.6386877541174 -203.842016145359 7.2826307624742
    vertex -80.8798687090149 -203.941916567864 7.28263076247426
  endloop
endfacet
facet normal -4.80842172140721e-014 2.19743882197027e-013 1.0
  outer loop
    vertex -82.8886877541191 -208.475990741575 7.2826307624719
    vertex -80.8798687090149 -203.941916567864 7.28263076247426
    vertex -81.1386877541174 -203.975990741575 7.28263076247431
  endloop
endfacet
facet normal -4.80842172140721e-014 2.19743882197027e-013 1.0
  outer loop
    vertex -82.8886877541191 -208.475990741575 7.2826307624719
    vertex -81.1386877541174 -203.975990741575 7.28263076247431
    vertex -81.39750679922 -203.941916567864 7.28263076247434
  endloop
endfacet
facet normal -4.80842172140721e-014 2.19743882197027e-013 1.0
  outer loop
    vertex -82.8886877541191 -208.475990741575 7.2826307624719
    vertex -81.39750679922 -203.941916567864 7.28263076247434
    vertex -81.6386877541175 -203.842016145359 7.28263076247435
  endloop
endfacet
facet normal -4.80842172140721e-014 2.19743882197027e-013 1.0
  outer loop
    vertex -82.8886877541191 -208.475990741575 7.2826307624719
    vertex -81.6386877541175 -203.842016145359 7.28263076247435
    vertex -81.8457945353041 -203.683097522761 7.28263076247435
  endloop
endfacet
facet normal -4.80842172140721e-014 2.19743882197027e-013 1.0
  outer loop
    vertex -82.8886877541191 -208.475990741575 7.2826307624719
    vertex -81.8457945353041 -203.683097522761 7.28263076247435
    vertex -82.0047131579019 -203.475990741575 7.28263076247432
  endloop
endfacet
facet normal -4.80842172140721e-014 2.19743882197027e-013 1.0
  outer loop
    vertex -82.8886877541191 -208.475990741575 7.2826307624719
    vertex -82.0047131579019 -203.475990741575 7.28263076247432
    vertex -82.1046135804066 -203.234809786678 7.28263076247428
  endloop
endfacet
facet normal -4.80842172140721e-014 2.19743882197027e-013 1.0
  outer loop
    vertex -82.8886877541191 -208.475990741575 7.2826307624719
    vertex -82.1046135804066 -203.234809786678 7.28263076247428
    vertex -82.1386877541176 -202.975990741575 7.28263076247423
  endloop
endfacet
facet normal 0.923879532511282 0.382683432365102 -7.30081604750639e-013
  outer loop
    vertex -82.104613580408 -203.234809786678 4.99999999999842
    vertex -82.0047131579019 -203.475990741575 7.28263076247432
    vertex -82.0047131579034 -203.475990741576 4.99999999999845
  endloop
endfacet
facet normal 0.923879532511282 0.382683432365102 -7.30081604750639e-013
  outer loop
    vertex -82.0047131579019 -203.475990741575 7.28263076247432
    vertex -82.104613580408 -203.234809786678 4.99999999999842
    vertex -82.1046135804066 -203.234809786678 7.28263076247428
  endloop
endfacet
facet normal 0.991444861373785 -0.130526192220247 -5.99893909724135e-013
  outer loop
    vertex -82.1046135804081 -202.717171696473 4.9999999999983
    vertex -82.1386877541176 -202.975990741575 7.28263076247423
    vertex -82.1386877541191 -202.975990741576 4.99999999999836
  endloop
endfacet
facet normal 0.991444861373785 -0.130526192220247 -5.99893909724135e-013
  outer loop
    vertex -82.1386877541176 -202.975990741575 7.28263076247423
    vertex -82.1046135804081 -202.717171696473 4.9999999999983
    vertex -82.1046135804066 -202.717171696473 7.28263076247417
  endloop
endfacet
facet normal 0.793353340291181 0.608761429008791 -7.11009338244532e-013
  outer loop
    vertex -82.0047131579034 -203.475990741576 4.99999999999845
    vertex -81.8457945353041 -203.683097522761 7.28263076247435
    vertex -81.8457945353056 -203.683097522762 4.99999999999848
  endloop
endfacet
facet normal 0.793353340291181 0.608761429008791 -7.11009338244532e-013
  outer loop
    vertex -81.8457945353041 -203.683097522761 7.28263076247435
    vertex -82.0047131579034 -203.475990741576 4.99999999999845
    vertex -82.0047131579019 -203.475990741575 7.28263076247432
  endloop
endfacet
facet normal -0.923879532511359 0.382683432364914 4.89960590457545e-013
  outer loop
    vertex -80.272662350333 -203.475990741575 7.28263076247407
    vertex -80.1727619278299 -203.234809786678 4.99999999999813
    vertex -80.2726623503345 -203.475990741576 4.9999999999982
  endloop
endfacet
facet normal -0.923879532511359 0.382683432364914 4.89960590457545e-013
  outer loop
    vertex -80.1727619278299 -203.234809786678 4.99999999999813
    vertex -80.272662350333 -203.475990741575 7.28263076247407
    vertex -80.1727619278284 -203.234809786677 7.282630762474
  endloop
endfacet
facet normal 0.608761429008646 0.793353340291292 -6.19109807724381e-013
  outer loop
    vertex -81.6386877541175 -203.842016145359 7.28263076247435
    vertex -81.8457945353056 -203.683097522762 4.99999999999848
    vertex -81.8457945353041 -203.683097522761 7.28263076247435
  endloop
endfacet
facet normal 0.608761429008646 0.793353340291292 -6.19109807724381e-013
  outer loop
    vertex -81.8457945353056 -203.683097522762 4.99999999999848
    vertex -81.6386877541175 -203.842016145359 7.28263076247435
    vertex -81.6386877541189 -203.84201614536 4.99999999999848
  endloop
endfacet
facet normal 0.793353340291312 -0.60876142900862 -3.16710386768471e-013
  outer loop
    vertex -81.8457945353056 -202.268883960389 4.99999999999816
    vertex -82.004713157902 -202.475990741575 7.2826307624741
    vertex -82.0047131579035 -202.475990741576 4.99999999999823
  endloop
endfacet
facet normal 0.793353340291312 -0.60876142900862 -3.16710386768471e-013
  outer loop
    vertex -82.004713157902 -202.475990741575 7.2826307624741
    vertex -81.8457945353056 -202.268883960389 4.99999999999816
    vertex -81.8457945353041 -202.268883960388 7.28263076247403
  endloop
endfacet
facet normal -0.382683432365644 0.923879532511057 -3.26339051247585e-014
  outer loop
    vertex -80.6386877541174 -203.842016145359 7.2826307624742
    vertex -80.8798687090164 -203.941916567865 4.99999999999839
    vertex -80.8798687090149 -203.941916567864 7.28263076247426
  endloop
endfacet
facet normal -0.382683432365644 0.923879532511057 -3.26339051247585e-014
  outer loop
    vertex -80.8798687090164 -203.941916567865 4.99999999999839
    vertex -80.6386877541174 -203.842016145359 7.2826307624742
    vertex -80.6386877541189 -203.84201614536 4.99999999999833
  endloop
endfacet
facet normal 0.130526192219528 -0.991444861373879 1.96404361133056e-013
  outer loop
    vertex -81.3975067992216 -202.010064915287 4.99999999999803
    vertex -81.1386877541176 -201.975990741575 7.28263076247386
    vertex -81.3975067992201 -202.010064915286 7.2826307624739
  endloop
endfacet
facet normal 0.130526192219528 -0.991444861373879 1.96404361133056e-013
  outer loop
    vertex -81.1386877541176 -201.975990741575 7.28263076247386
    vertex -81.3975067992216 -202.010064915287 4.99999999999803
    vertex -81.1386877541191 -201.975990741576 4.99999999999799
  endloop
endfacet
facet normal -0.382683432364737 -0.923879532511433 5.2836954994753e-013
  outer loop
    vertex -80.8798687090165 -202.010064915287 4.99999999999796
    vertex -80.6386877541176 -202.10996533779 7.28263076247381
    vertex -80.879868709015 -202.010064915286 7.28263076247383
  endloop
endfacet
facet normal -0.382683432364737 -0.923879532511433 5.2836954994753e-013
  outer loop
    vertex -80.6386877541176 -202.10996533779 7.28263076247381
    vertex -80.8798687090165 -202.010064915287 4.99999999999796
    vertex -80.638687754119 -202.109965337791 4.99999999999794
  endloop
endfacet
facet normal 0.130526192220224 0.991444861373788 -3.6549039794169e-013
  outer loop
    vertex -81.1386877541174 -203.975990741575 7.28263076247431
    vertex -81.3975067992215 -203.941916567865 4.99999999999847
    vertex -81.39750679922 -203.941916567864 7.28263076247434
  endloop
endfacet
facet normal 0.130526192220224 0.991444861373788 -3.6549039794169e-013
  outer loop
    vertex -81.3975067992215 -203.941916567865 4.99999999999847
    vertex -81.1386877541174 -203.975990741575 7.28263076247431
    vertex -81.1386877541189 -203.975990741576 4.99999999999844
  endloop
endfacet
facet normal -3.7651183607415e-014 1.0 -1.40759176645147e-013
  outer loop
    vertex -64.9960321795381 -197.475990741576 10.3494417962314
    vertex -67.7415089693696 -197.475990741576 9.89999999999671
    vertex -74.0358665388711 -197.475990741574 9.89999999999812
  endloop
endfacet
facet normal -3.7651183607415e-014 1.0 -1.40759176645147e-013
  outer loop
    vertex -67.7415089693696 -197.475990741576 9.89999999999671
    vertex -64.9960321795381 -197.475990741576 10.3494417962314
    vertex -64.4130096503898 -197.475990741575 9.79512174762021
  endloop
endfacet
facet normal -3.7651183607415e-014 1.0 -1.40759176645147e-013
  outer loop
    vertex -67.7415089693696 -197.475990741576 9.89999999999671
    vertex -64.4130096503898 -197.475990741575 9.79512174762021
    vertex -66.7262423726559 -197.475990741576 9.2347898267181
  endloop
endfacet
facet normal -3.7651183607415e-014 1.0 -1.40759176645147e-013
  outer loop
    vertex -66.7262423726559 -197.475990741576 9.2347898267181
    vertex -64.4130096503898 -197.475990741575 9.79512174762021
    vertex -63.5458054521217 -197.475990741575 8.60695039667948
  endloop
endfacet
facet normal -3.7651183607415e-014 1.0 -1.40759176645147e-013
  outer loop
    vertex -66.7262423726559 -197.475990741576 9.2347898267181
    vertex -63.5458054521217 -197.475990741575 8.60695039667948
    vertex -66.3741172564932 -197.475990741576 8.89999999999617
  endloop
endfacet
facet normal -3.7651183607415e-014 1.0 -1.40759176645147e-013
  outer loop
    vertex -66.3741172564932 -197.475990741576 8.89999999999617
    vertex -63.5458054521217 -197.475990741575 8.60695039667948
    vertex -65.9220000144485 -197.475990741575 8.47014070801598
  endloop
endfacet
facet normal -3.7651183607415e-014 1.0 -1.40759176645147e-013
  outer loop
    vertex -65.9220000144485 -197.475990741575 8.47014070801598
    vertex -63.5458054521217 -197.475990741575 8.60695039667948
    vertex -62.9055150592996 -197.475990741575 7.28263076247033
  endloop
endfacet
facet normal -3.7651183607415e-014 1.0 -1.40759176645147e-013
  outer loop
    vertex -65.9220000144485 -197.475990741575 8.47014070801598
    vertex -62.9055150592996 -197.475990741575 7.28263076247033
    vertex -65.267771384466 -197.475990741575 7.57377083727185
  endloop
endfacet
facet normal -3.7651183607415e-014 1.0 -1.40759176645147e-013
  outer loop
    vertex -65.267771384466 -197.475990741575 7.57377083727185
    vertex -62.9055150592996 -197.475990741575 7.28263076247033
    vertex -64.7847290890948 -197.475990741576 6.5746891657602
  endloop
endfacet
facet normal -3.7651183607415e-014 1.0 -1.40759176645147e-013
  outer loop
    vertex -64.7847290890948 -197.475990741576 6.5746891657602
    vertex -62.9055150592996 -197.475990741575 7.28263076247033
    vertex -58.8886877541201 -197.475990741574 7.28263076246975
  endloop
endfacet
facet normal -3.7651183607415e-014 1.0 -1.40759176645147e-013
  outer loop
    vertex -64.7847290890948 -197.475990741576 6.5746891657602
    vertex -58.8886877541201 -197.475990741574 7.28263076246975
    vertex -58.8886877541201 -197.475990741575 4.89999999999742
  endloop
endfacet
facet normal -3.7651183607415e-014 1.0 -1.40759176645147e-013
  outer loop
    vertex -64.7847290890948 -197.475990741576 6.5746891657602
    vertex -58.8886877541201 -197.475990741575 4.89999999999742
    vertex -64.488505682337 -197.475990741576 5.50522867618762
  endloop
endfacet
facet normal -3.7651183607415e-014 1.0 -1.40759176645147e-013
  outer loop
    vertex -64.488505682337 -197.475990741576 5.50522867618762
    vertex -58.8886877541201 -197.475990741575 4.89999999999742
    vertex -64.4338448923506 -197.475990741575 4.89999999999741
  endloop
endfacet
facet normal -3.7651183607415e-014 1.0 -1.40759176645147e-013
  outer loop
    vertex -67.1446537271538 -197.475990741575 11.899999999997
    vertex -76.2983129254368 -197.475990741575 10.8086923795853
    vertex -74.6327217810878 -197.475990741574 11.8999999999987
  endloop
endfacet
facet normal -3.7651183607415e-014 1.0 -1.40759176645147e-013
  outer loop
    vertex -76.2983129254368 -197.475990741575 10.8086923795853
    vertex -67.1446537271538 -197.475990741575 11.899999999997
    vertex -65.4790625828045 -197.475990741575 10.8086923795845
  endloop
endfacet
facet normal -3.7651183607415e-014 1.0 -1.40759176645147e-013
  outer loop
    vertex -76.2983129254368 -197.475990741575 10.8086923795853
    vertex -65.4790625828045 -197.475990741575 10.8086923795845
    vertex -76.7813433287013 -197.475990741574 10.3494417962339
  endloop
endfacet
facet normal -3.7651183607415e-014 1.0 -1.40759176645147e-013
  outer loop
    vertex -76.7813433287013 -197.475990741574 10.3494417962339
    vertex -65.4790625828045 -197.475990741575 10.8086923795845
    vertex -64.9960321795381 -197.475990741576 10.3494417962314
  endloop
endfacet
facet normal -3.7651183607415e-014 1.0 -1.40759176645147e-013
  outer loop
    vertex -76.7813433287013 -197.475990741574 10.3494417962339
    vertex -64.9960321795381 -197.475990741576 10.3494417962314
    vertex -77.3643658578517 -197.475990741575 9.7951217476205
  endloop
endfacet
facet normal -3.7651183607415e-014 1.0 -1.40759176645147e-013
  outer loop
    vertex -77.3643658578517 -197.475990741575 9.7951217476205
    vertex -64.9960321795381 -197.475990741576 10.3494417962314
    vertex -74.0358665388711 -197.475990741574 9.89999999999812
  endloop
endfacet
facet normal -3.7651183607415e-014 1.0 -1.40759176645147e-013
  outer loop
    vertex -77.3643658578517 -197.475990741575 9.7951217476205
    vertex -74.0358665388711 -197.475990741574 9.89999999999812
    vertex -75.0511331355841 -197.475990741575 9.23478982671927
  endloop
endfacet
facet normal -3.7651183607415e-014 1.0 -1.40759176645147e-013
  outer loop
    vertex -77.3643658578517 -197.475990741575 9.7951217476205
    vertex -75.0511331355841 -197.475990741575 9.23478982671927
    vertex -78.2315700561194 -197.475990741576 8.60695039667908
  endloop
endfacet
facet normal -3.7651183607415e-014 1.0 -1.40759176645147e-013
  outer loop
    vertex -78.2315700561194 -197.475990741576 8.60695039667908
    vertex -75.0511331355841 -197.475990741575 9.23478982671927
    vertex -75.4032582517452 -197.475990741574 8.89999999999876
  endloop
endfacet
facet normal -3.7651183607415e-014 1.0 -1.40759176645147e-013
  outer loop
    vertex -78.2315700561194 -197.475990741576 8.60695039667908
    vertex -75.4032582517452 -197.475990741574 8.89999999999876
    vertex -75.8553754937917 -197.475990741575 8.47014070801675
  endloop
endfacet
facet normal -3.7651183607415e-014 1.0 -1.40759176645147e-013
  outer loop
    vertex -78.2315700561194 -197.475990741576 8.60695039667908
    vertex -75.8553754937917 -197.475990741575 8.47014070801675
    vertex -78.8718604489411 -197.475990741576 7.28263076246978
  endloop
endfacet
facet normal -3.7651183607415e-014 1.0 -1.40759176645147e-013
  outer loop
    vertex -78.8718604489411 -197.475990741576 7.28263076246978
    vertex -75.8553754937917 -197.475990741575 8.47014070801675
    vertex -76.5096041237738 -197.475990741576 7.57377083727217
  endloop
endfacet
facet normal -3.7651183607415e-014 1.0 -1.40759176645147e-013
  outer loop
    vertex -78.8718604489411 -197.475990741576 7.28263076246978
    vertex -76.5096041237738 -197.475990741576 7.57377083727217
    vertex -76.9926464191447 -197.475990741576 6.57468916576038
  endloop
endfacet
facet normal -3.7651183607415e-014 1.0 -1.40759176645147e-013
  outer loop
    vertex -78.8718604489411 -197.475990741576 7.28263076246978
    vertex -76.9926464191447 -197.475990741576 6.57468916576038
    vertex -82.88868775412 -197.475990741576 7.28263076246935
  endloop
endfacet
facet normal -3.7651183607415e-014 1.0 -1.40759176645147e-013
  outer loop
    vertex -82.88868775412 -197.475990741576 7.28263076246935
    vertex -76.9926464191447 -197.475990741576 6.57468916576038
    vertex -82.88868775412 -197.475990741576 4.99999999999739
  endloop
endfacet
facet normal -3.7651183607415e-014 1.0 -1.40759176645147e-013
  outer loop
    vertex -82.88868775412 -197.475990741576 4.99999999999739
    vertex -76.9926464191447 -197.475990741576 6.57468916576038
    vertex -77.2888698259018 -197.475990741577 5.50522867618806
  endloop
endfacet
facet normal -3.7651183607415e-014 1.0 -1.40759176645147e-013
  outer loop
    vertex -82.88868775412 -197.475990741576 4.99999999999739
    vertex -77.2888698259018 -197.475990741577 5.50522867618806
    vertex -77.3344991882409 -197.475990741576 4.99999999999742
  endloop
endfacet
facet normal -1.0 -8.58043287215632e-014 2.16776018526339e-026
  outer loop
    vertex -84.8886877541192 -206.475990741575 7.28263076247144
    vertex -84.8886877541198 -199.475990741577 4.99999999999783
    vertex -84.8886877541192 -206.475990741575 4.99999999999947
  endloop
endfacet
facet normal -1.0 -8.58043287215632e-014 2.16776018526339e-026
  outer loop
    vertex -84.8886877541198 -199.475990741577 4.99999999999783
    vertex -84.8886877541192 -206.475990741575 7.28263076247144
    vertex -84.8886877541198 -199.475990741576 7.2826307624698
  endloop
endfacet
facet normal -0.991444861373831 -0.130526192219899 6.79152785723787e-013
  outer loop
    vertex -80.1386877541176 -202.975990741575 7.28263076247393
    vertex -80.1727619278299 -202.717171696473 4.99999999999801
    vertex -80.1386877541191 -202.975990741576 4.99999999999807
  endloop
endfacet
facet normal -0.991444861373831 -0.130526192219899 6.79152785723787e-013
  outer loop
    vertex -80.1727619278299 -202.717171696473 4.99999999999801
    vertex -80.1386877541176 -202.975990741575 7.28263076247393
    vertex -80.1727619278285 -202.717171696472 7.28263076247388
  endloop
endfacet
facet normal -0.923879532511308 -0.382683432365039 7.06843488452165e-013
  outer loop
    vertex -80.1727619278285 -202.717171696472 7.28263076247388
    vertex -80.2726623503346 -202.475990741576 4.99999999999797
    vertex -80.1727619278299 -202.717171696473 4.99999999999801
  endloop
endfacet
facet normal -0.923879532511308 -0.382683432365039 7.06843488452165e-013
  outer loop
    vertex -80.2726623503346 -202.475990741576 4.99999999999797
    vertex -80.1727619278285 -202.717171696472 7.28263076247388
    vertex -80.2726623503331 -202.475990741575 7.28263076247384
  endloop
endfacet
facet normal 0.382683432365191 0.923879532511245 -5.09667308274253e-013
  outer loop
    vertex -81.39750679922 -203.941916567864 7.28263076247434
    vertex -81.6386877541189 -203.84201614536 4.99999999999848
    vertex -81.6386877541175 -203.842016145359 7.28263076247435
  endloop
endfacet
facet normal 0.382683432365191 0.923879532511245 -5.09667308274253e-013
  outer loop
    vertex -81.6386877541189 -203.84201614536 4.99999999999848
    vertex -81.39750679922 -203.941916567864 7.28263076247434
    vertex -81.3975067992215 -203.941916567865 4.99999999999847
  endloop
endfacet
facet normal -0.608761429008988 0.79335334029103 1.69485622166029e-013
  outer loop
    vertex -80.431580972931 -203.683097522761 7.28263076247413
    vertex -80.6386877541189 -203.84201614536 4.99999999999833
    vertex -80.6386877541174 -203.842016145359 7.2826307624742
  endloop
endfacet
facet normal -0.608761429008988 0.79335334029103 1.69485622166029e-013
  outer loop
    vertex -80.6386877541189 -203.84201614536 4.99999999999833
    vertex -80.431580972931 -203.683097522761 7.28263076247413
    vertex -80.4315809729325 -203.683097522762 4.99999999999826
  endloop
endfacet
facet normal -0.130526192219702 -0.991444861373856 3.85557462629322e-013
  outer loop
    vertex -81.1386877541191 -201.975990741576 4.99999999999799
    vertex -80.879868709015 -202.010064915286 7.28263076247383
    vertex -81.1386877541176 -201.975990741575 7.28263076247386
  endloop
endfacet
facet normal -0.130526192219702 -0.991444861373856 3.85557462629322e-013
  outer loop
    vertex -80.879868709015 -202.010064915286 7.28263076247383
    vertex -81.1386877541191 -201.975990741576 4.99999999999799
    vertex -80.8798687090165 -202.010064915287 4.99999999999796
  endloop
endfacet
facet normal -0.608761429008817 -0.793353340291161 6.19108950807331e-013
  outer loop
    vertex -80.638687754119 -202.109965337791 4.99999999999794
    vertex -80.431580972931 -202.268883960388 7.28263076247382
    vertex -80.6386877541176 -202.10996533779 7.28263076247381
  endloop
endfacet
facet normal -0.608761429008817 -0.793353340291161 6.19108950807331e-013
  outer loop
    vertex -80.431580972931 -202.268883960388 7.28263076247382
    vertex -80.638687754119 -202.109965337791 4.99999999999794
    vertex -80.4315809729325 -202.268883960389 4.99999999999795
  endloop
endfacet
facet normal -0.70710678118661 0.707106781186485 -1.70500152784071e-013
  outer loop
    vertex -84.8886877541198 -199.475990741576 7.2826307624698
    vertex -82.88868775412 -197.475990741576 4.99999999999739
    vertex -84.8886877541198 -199.475990741577 4.99999999999783
  endloop
endfacet
facet normal -0.70710678118661 0.707106781186485 -1.70500152784071e-013
  outer loop
    vertex -82.88868775412 -197.475990741576 4.99999999999739
    vertex -84.8886877541198 -199.475990741576 7.2826307624698
    vertex -82.88868775412 -197.475990741576 7.28263076246935
  endloop
endfacet
facet normal 0.382683432365191 -0.923879532511245 1.39331141194091e-014
  outer loop
    vertex -81.6386877541191 -202.109965337791 4.99999999999809
    vertex -81.3975067992201 -202.010064915286 7.2826307624739
    vertex -81.6386877541176 -202.10996533779 7.28263076247396
  endloop
endfacet
facet normal 0.382683432365191 -0.923879532511245 1.39331141194091e-014
  outer loop
    vertex -81.3975067992201 -202.010064915286 7.2826307624739
    vertex -81.6386877541191 -202.109965337791 4.99999999999809
    vertex -81.3975067992216 -202.010064915287 4.99999999999803
  endloop
endfacet
facet normal -0.13052619222005 0.991444861373811 -2.16472626764657e-013
  outer loop
    vertex -80.8798687090149 -203.941916567864 7.28263076247426
    vertex -81.1386877541189 -203.975990741576 4.99999999999844
    vertex -81.1386877541174 -203.975990741575 7.28263076247431
  endloop
endfacet
facet normal -0.13052619222005 0.991444861373811 -2.16472626764657e-013
  outer loop
    vertex -81.1386877541189 -203.975990741576 4.99999999999844
    vertex -80.8798687090149 -203.941916567864 7.28263076247426
    vertex -80.8798687090164 -203.941916567865 4.99999999999839
  endloop
endfacet
facet normal 9.0252199769316e-015 -2.33646258812355e-013 -1.0
  outer loop
    vertex -77.3344991882409 -208.475990741575 5.00000000000002
    vertex -80.1727619278299 -203.234809786678 4.99999999999813
    vertex -80.1386877541191 -202.975990741576 4.99999999999807
  endloop
endfacet
facet normal 9.0252199769316e-015 -2.33646258812355e-013 -1.0
  outer loop
    vertex -80.1727619278299 -203.234809786678 4.99999999999813
    vertex -77.3344991882409 -208.475990741575 5.00000000000002
    vertex -80.2726623503345 -203.475990741576 4.9999999999982
  endloop
endfacet
facet normal 9.0252199769316e-015 -2.33646258812355e-013 -1.0
  outer loop
    vertex -80.2726623503345 -203.475990741576 4.9999999999982
    vertex -77.3344991882409 -208.475990741575 5.00000000000002
    vertex -82.8886877541191 -208.475990741575 4.99999999999994
  endloop
endfacet
facet normal 9.0252199769316e-015 -2.33646258812355e-013 -1.0
  outer loop
    vertex -80.2726623503345 -203.475990741576 4.9999999999982
    vertex -82.8886877541191 -208.475990741575 4.99999999999994
    vertex -80.4315809729325 -203.683097522762 4.99999999999826
  endloop
endfacet
facet normal 9.0252199769316e-015 -2.33646258812355e-013 -1.0
  outer loop
    vertex -80.4315809729325 -203.683097522762 4.99999999999826
    vertex -82.8886877541191 -208.475990741575 4.99999999999994
    vertex -80.6386877541189 -203.84201614536 4.99999999999833
  endloop
endfacet
facet normal 9.0252199769316e-015 -2.33646258812355e-013 -1.0
  outer loop
    vertex -80.6386877541189 -203.84201614536 4.99999999999833
    vertex -82.8886877541191 -208.475990741575 4.99999999999994
    vertex -80.8798687090164 -203.941916567865 4.99999999999839
  endloop
endfacet
facet normal 9.0252199769316e-015 -2.33646258812355e-013 -1.0
  outer loop
    vertex -80.8798687090164 -203.941916567865 4.99999999999839
    vertex -82.8886877541191 -208.475990741575 4.99999999999994
    vertex -81.1386877541189 -203.975990741576 4.99999999999844
  endloop
endfacet
facet normal 9.0252199769316e-015 -2.33646258812355e-013 -1.0
  outer loop
    vertex -81.1386877541189 -203.975990741576 4.99999999999844
    vertex -82.8886877541191 -208.475990741575 4.99999999999994
    vertex -81.3975067992215 -203.941916567865 4.99999999999847
  endloop
endfacet
facet normal 9.0252199769316e-015 -2.33646258812355e-013 -1.0
  outer loop
    vertex -81.3975067992215 -203.941916567865 4.99999999999847
    vertex -82.8886877541191 -208.475990741575 4.99999999999994
    vertex -81.6386877541189 -203.84201614536 4.99999999999848
  endloop
endfacet
facet normal 9.0252199769316e-015 -2.33646258812355e-013 -1.0
  outer loop
    vertex -81.6386877541189 -203.84201614536 4.99999999999848
    vertex -82.8886877541191 -208.475990741575 4.99999999999994
    vertex -81.8457945353056 -203.683097522762 4.99999999999848
  endloop
endfacet
facet normal 9.0252199769316e-015 -2.33646258812355e-013 -1.0
  outer loop
    vertex -81.8457945353056 -203.683097522762 4.99999999999848
    vertex -82.8886877541191 -208.475990741575 4.99999999999994
    vertex -82.0047131579034 -203.475990741576 4.99999999999845
  endloop
endfacet
facet normal 9.0252199769316e-015 -2.33646258812355e-013 -1.0
  outer loop
    vertex -82.0047131579034 -203.475990741576 4.99999999999845
    vertex -82.8886877541191 -208.475990741575 4.99999999999994
    vertex -82.104613580408 -203.234809786678 4.99999999999842
  endloop
endfacet
facet normal 9.0252199769316e-015 -2.33646258812355e-013 -1.0
  outer loop
    vertex -82.104613580408 -203.234809786678 4.99999999999842
    vertex -82.8886877541191 -208.475990741575 4.99999999999994
    vertex -82.1386877541191 -202.975990741576 4.99999999999836
  endloop
endfacet
facet normal 9.0252199769316e-015 -2.33646258812355e-013 -1.0
  outer loop
    vertex -77.3344991882409 -197.475990741576 4.99999999999742
    vertex -80.2726623503346 -202.475990741576 4.99999999999797
    vertex -82.88868775412 -197.475990741576 4.99999999999739
  endloop
endfacet
facet normal 9.0252199769316e-015 -2.33646258812355e-013 -1.0
  outer loop
    vertex -80.2726623503346 -202.475990741576 4.99999999999797
    vertex -77.3344991882409 -197.475990741576 4.99999999999742
    vertex -77.3344991882409 -208.475990741575 5.00000000000002
  endloop
endfacet
facet normal 9.0252199769316e-015 -2.33646258812355e-013 -1.0
  outer loop
    vertex -80.2726623503346 -202.475990741576 4.99999999999797
    vertex -77.3344991882409 -208.475990741575 5.00000000000002
    vertex -80.1727619278299 -202.717171696473 4.99999999999801
  endloop
endfacet
facet normal 9.0252199769316e-015 -2.33646258812355e-013 -1.0
  outer loop
    vertex -80.1727619278299 -202.717171696473 4.99999999999801
    vertex -77.3344991882409 -208.475990741575 5.00000000000002
    vertex -80.1386877541191 -202.975990741576 4.99999999999807
  endloop
endfacet
facet normal 9.0252199769316e-015 -2.33646258812355e-013 -1.0
  outer loop
    vertex -82.88868775412 -197.475990741576 4.99999999999739
    vertex -80.2726623503346 -202.475990741576 4.99999999999797
    vertex -80.4315809729325 -202.268883960389 4.99999999999795
  endloop
endfacet
facet normal 9.0252199769316e-015 -2.33646258812355e-013 -1.0
  outer loop
    vertex -82.88868775412 -197.475990741576 4.99999999999739
    vertex -80.4315809729325 -202.268883960389 4.99999999999795
    vertex -80.638687754119 -202.109965337791 4.99999999999794
  endloop
endfacet
facet normal 9.0252199769316e-015 -2.33646258812355e-013 -1.0
  outer loop
    vertex -82.88868775412 -197.475990741576 4.99999999999739
    vertex -80.638687754119 -202.109965337791 4.99999999999794
    vertex -80.8798687090165 -202.010064915287 4.99999999999796
  endloop
endfacet
facet normal 9.0252199769316e-015 -2.33646258812355e-013 -1.0
  outer loop
    vertex -82.88868775412 -197.475990741576 4.99999999999739
    vertex -80.8798687090165 -202.010064915287 4.99999999999796
    vertex -81.1386877541191 -201.975990741576 4.99999999999799
  endloop
endfacet
facet normal 9.0252199769316e-015 -2.33646258812355e-013 -1.0
  outer loop
    vertex -82.88868775412 -197.475990741576 4.99999999999739
    vertex -81.1386877541191 -201.975990741576 4.99999999999799
    vertex -81.3975067992216 -202.010064915287 4.99999999999803
  endloop
endfacet
facet normal 9.0252199769316e-015 -2.33646258812355e-013 -1.0
  outer loop
    vertex -82.88868775412 -197.475990741576 4.99999999999739
    vertex -81.3975067992216 -202.010064915287 4.99999999999803
    vertex -81.6386877541191 -202.109965337791 4.99999999999809
  endloop
endfacet
facet normal 9.0252199769316e-015 -2.33646258812355e-013 -1.0
  outer loop
    vertex -82.88868775412 -197.475990741576 4.99999999999739
    vertex -81.6386877541191 -202.109965337791 4.99999999999809
    vertex -81.8457945353056 -202.268883960389 4.99999999999816
  endloop
endfacet
facet normal 9.0252199769316e-015 -2.33646258812355e-013 -1.0
  outer loop
    vertex -82.88868775412 -197.475990741576 4.99999999999739
    vertex -81.8457945353056 -202.268883960389 4.99999999999816
    vertex -82.0047131579035 -202.475990741576 4.99999999999823
  endloop
endfacet
facet normal 9.0252199769316e-015 -2.33646258812355e-013 -1.0
  outer loop
    vertex -82.88868775412 -197.475990741576 4.99999999999739
    vertex -82.0047131579035 -202.475990741576 4.99999999999823
    vertex -82.1046135804081 -202.717171696473 4.9999999999983
  endloop
endfacet
facet normal 9.0252199769316e-015 -2.33646258812355e-013 -1.0
  outer loop
    vertex -82.88868775412 -197.475990741576 4.99999999999739
    vertex -82.1046135804081 -202.717171696473 4.9999999999983
    vertex -82.1386877541191 -202.975990741576 4.99999999999836
  endloop
endfacet
facet normal 9.0252199769316e-015 -2.33646258812355e-013 -1.0
  outer loop
    vertex -82.88868775412 -197.475990741576 4.99999999999739
    vertex -82.1386877541191 -202.975990741576 4.99999999999836
    vertex -82.8886877541191 -208.475990741575 4.99999999999994
  endloop
endfacet
facet normal 9.0252199769316e-015 -2.33646258812355e-013 -1.0
  outer loop
    vertex -82.88868775412 -197.475990741576 4.99999999999739
    vertex -82.8886877541191 -208.475990741575 4.99999999999994
    vertex -84.8886877541192 -206.475990741575 4.99999999999947
  endloop
endfacet
facet normal 9.0252199769316e-015 -2.33646258812355e-013 -1.0
  outer loop
    vertex -82.88868775412 -197.475990741576 4.99999999999739
    vertex -84.8886877541192 -206.475990741575 4.99999999999947
    vertex -84.8886877541198 -199.475990741577 4.99999999999783
  endloop
endfacet
facet normal 5.43308505511951e-016 -2.34484767608924e-013 -1.0
  outer loop
    vertex -58.8886877541193 -208.475990741574 4.89999999999999
    vertex -56.8886877541199 -199.475990741574 4.89999999999789
    vertex -56.8886877541194 -206.475990741574 4.89999999999952
  endloop
endfacet
facet normal 5.43308505511951e-016 -2.34484767608924e-013 -1.0
  outer loop
    vertex -56.8886877541199 -199.475990741574 4.89999999999789
    vertex -58.8886877541193 -208.475990741574 4.89999999999999
    vertex -58.8886877541201 -197.475990741575 4.89999999999742
  endloop
endfacet
facet normal 5.43308505511951e-016 -2.34484767608924e-013 -1.0
  outer loop
    vertex -58.8886877541201 -197.475990741575 4.89999999999742
    vertex -58.8886877541193 -208.475990741574 4.89999999999999
    vertex -59.6727619278301 -203.234809786676 4.89999999999888
  endloop
endfacet
facet normal 5.43308505511951e-016 -2.34484767608924e-013 -1.0
  outer loop
    vertex -59.6727619278301 -203.234809786676 4.89999999999888
    vertex -58.8886877541193 -208.475990741574 4.89999999999999
    vertex -59.7726623503347 -203.475990741574 4.89999999999893
  endloop
endfacet
facet normal 5.43308505511951e-016 -2.34484767608924e-013 -1.0
  outer loop
    vertex -59.7726623503347 -203.475990741574 4.89999999999893
    vertex -58.8886877541193 -208.475990741574 4.89999999999999
    vertex -59.9315809729327 -203.683097522761 4.89999999999897
  endloop
endfacet
facet normal 5.43308505511951e-016 -2.34484767608924e-013 -1.0
  outer loop
    vertex -59.9315809729327 -203.683097522761 4.89999999999897
    vertex -58.8886877541193 -208.475990741574 4.89999999999999
    vertex -64.4338448923513 -208.475990741574 4.9
  endloop
endfacet
facet normal 5.43308505511951e-016 -2.34484767608924e-013 -1.0
  outer loop
    vertex -58.8886877541201 -197.475990741575 4.89999999999742
    vertex -59.6727619278301 -203.234809786676 4.89999999999888
    vertex -59.6386877541193 -202.975990741574 4.89999999999881
  endloop
endfacet
facet normal 5.43308505511951e-016 -2.34484767608924e-013 -1.0
  outer loop
    vertex -59.9315809729327 -203.683097522761 4.89999999999897
    vertex -64.4338448923513 -208.475990741574 4.9
    vertex -60.1386877541191 -203.842016145359 4.89999999999899
  endloop
endfacet
facet normal 5.43308505511951e-016 -2.34484767608924e-013 -1.0
  outer loop
    vertex -60.1386877541191 -203.842016145359 4.89999999999899
    vertex -64.4338448923513 -208.475990741574 4.9
    vertex -60.3798687090166 -203.941916567863 4.89999999999899
  endloop
endfacet
facet normal 5.43308505511951e-016 -2.34484767608924e-013 -1.0
  outer loop
    vertex -60.3798687090166 -203.941916567863 4.89999999999899
    vertex -64.4338448923513 -208.475990741574 4.9
    vertex -60.6386877541191 -203.975990741574 4.89999999999897
  endloop
endfacet
facet normal 5.43308505511951e-016 -2.34484767608924e-013 -1.0
  outer loop
    vertex -60.6386877541191 -203.975990741574 4.89999999999897
    vertex -64.4338448923513 -208.475990741574 4.9
    vertex -60.8975067992217 -203.941916567863 4.89999999999893
  endloop
endfacet
facet normal 5.43308505511951e-016 -2.34484767608924e-013 -1.0
  outer loop
    vertex -60.8975067992217 -203.941916567863 4.89999999999893
    vertex -64.4338448923513 -208.475990741574 4.9
    vertex -61.1386877541191 -203.842016145359 4.89999999999887
  endloop
endfacet
facet normal 5.43308505511951e-016 -2.34484767608924e-013 -1.0
  outer loop
    vertex -61.1386877541191 -203.842016145359 4.89999999999887
    vertex -64.4338448923513 -208.475990741574 4.9
    vertex -61.3457945353058 -203.683097522761 4.89999999999881
  endloop
endfacet
facet normal 5.43308505511951e-016 -2.34484767608924e-013 -1.0
  outer loop
    vertex -61.3457945353058 -203.683097522761 4.89999999999881
    vertex -64.4338448923513 -208.475990741574 4.9
    vertex -61.5047131579036 -203.475990741574 4.89999999999874
  endloop
endfacet
facet normal 5.43308505511951e-016 -2.34484767608924e-013 -1.0
  outer loop
    vertex -61.5047131579036 -203.475990741574 4.89999999999874
    vertex -64.4338448923513 -208.475990741574 4.9
    vertex -61.6046135804082 -203.234809786677 4.89999999999866
  endloop
endfacet
facet normal 5.43308505511951e-016 -2.34484767608924e-013 -1.0
  outer loop
    vertex -61.6046135804082 -203.234809786677 4.89999999999866
    vertex -64.4338448923513 -208.475990741574 4.9
    vertex -61.6386877541193 -202.975990741574 4.89999999999859
  endloop
endfacet
facet normal 5.43308505511951e-016 -2.34484767608924e-013 -1.0
  outer loop
    vertex -61.6386877541193 -202.975990741574 4.89999999999859
    vertex -64.4338448923513 -208.475990741574 4.9
    vertex -64.4338448923506 -197.475990741575 4.89999999999741
  endloop
endfacet
facet normal 5.43308505511951e-016 -2.34484767608924e-013 -1.0
  outer loop
    vertex -58.8886877541201 -197.475990741575 4.89999999999742
    vertex -59.9315809729327 -202.268883960387 4.8999999999986
    vertex -64.4338448923506 -197.475990741575 4.89999999999741
  endloop
endfacet
facet normal 5.43308505511951e-016 -2.34484767608924e-013 -1.0
  outer loop
    vertex -59.9315809729327 -202.268883960387 4.8999999999986
    vertex -58.8886877541201 -197.475990741575 4.89999999999742
    vertex -59.7726623503348 -202.475990741574 4.89999999999867
  endloop
endfacet
facet normal 5.43308505511951e-016 -2.34484767608924e-013 -1.0
  outer loop
    vertex -59.7726623503348 -202.475990741574 4.89999999999867
    vertex -58.8886877541201 -197.475990741575 4.89999999999742
    vertex -59.6727619278301 -202.717171696472 4.89999999999874
  endloop
endfacet
facet normal 5.43308505511951e-016 -2.34484767608924e-013 -1.0
  outer loop
    vertex -59.6727619278301 -202.717171696472 4.89999999999874
    vertex -58.8886877541201 -197.475990741575 4.89999999999742
    vertex -59.6386877541193 -202.975990741574 4.89999999999881
  endloop
endfacet
facet normal 5.43308505511951e-016 -2.34484767608924e-013 -1.0
  outer loop
    vertex -64.4338448923506 -197.475990741575 4.89999999999741
    vertex -59.9315809729327 -202.268883960387 4.8999999999986
    vertex -60.1386877541193 -202.10996533779 4.89999999999853
  endloop
endfacet
facet normal 5.43308505511951e-016 -2.34484767608924e-013 -1.0
  outer loop
    vertex -64.4338448923506 -197.475990741575 4.89999999999741
    vertex -60.1386877541193 -202.10996533779 4.89999999999853
    vertex -60.3798687090167 -202.010064915285 4.89999999999848
  endloop
endfacet
facet normal 5.43308505511951e-016 -2.34484767608924e-013 -1.0
  outer loop
    vertex -64.4338448923506 -197.475990741575 4.89999999999741
    vertex -60.3798687090167 -202.010064915285 4.89999999999848
    vertex -60.6386877541193 -201.975990741574 4.89999999999845
  endloop
endfacet
facet normal 5.43308505511951e-016 -2.34484767608924e-013 -1.0
  outer loop
    vertex -64.4338448923506 -197.475990741575 4.89999999999741
    vertex -60.6386877541193 -201.975990741574 4.89999999999845
    vertex -60.8975067992218 -202.010064915285 4.89999999999843
  endloop
endfacet
facet normal 5.43308505511951e-016 -2.34484767608924e-013 -1.0
  outer loop
    vertex -64.4338448923506 -197.475990741575 4.89999999999741
    vertex -60.8975067992218 -202.010064915285 4.89999999999843
    vertex -61.1386877541193 -202.10996533779 4.89999999999842
  endloop
endfacet
facet normal 5.43308505511951e-016 -2.34484767608924e-013 -1.0
  outer loop
    vertex -64.4338448923506 -197.475990741575 4.89999999999741
    vertex -61.1386877541193 -202.10996533779 4.89999999999842
    vertex -61.3457945353058 -202.268883960388 4.89999999999845
  endloop
endfacet
facet normal 5.43308505511951e-016 -2.34484767608924e-013 -1.0
  outer loop
    vertex -64.4338448923506 -197.475990741575 4.89999999999741
    vertex -61.3457945353058 -202.268883960388 4.89999999999845
    vertex -61.5047131579037 -202.475990741574 4.89999999999848
  endloop
endfacet
facet normal 5.43308505511951e-016 -2.34484767608924e-013 -1.0
  outer loop
    vertex -64.4338448923506 -197.475990741575 4.89999999999741
    vertex -61.5047131579037 -202.475990741574 4.89999999999848
    vertex -61.6046135804083 -202.717171696472 4.89999999999853
  endloop
endfacet
facet normal 5.43308505511951e-016 -2.34484767608924e-013 -1.0
  outer loop
    vertex -64.4338448923506 -197.475990741575 4.89999999999741
    vertex -61.6046135804083 -202.717171696472 4.89999999999853
    vertex -61.6386877541193 -202.975990741574 4.89999999999859
  endloop
endfacet
endsolid Omnidroid
