solid Omnidroid
facet normal -0.793353340291263 0.608761429008684 -1.84596859975736e-014
  outer loop
    vertex -121.67091495704 82.5991050705096 129.939369549222
    vertex -121.988752202236 82.1848915081365 120.184853448415
    vertex -121.988752202236 82.1848915081365 129.939369549222
  endloop
endfacet
facet normal -0.793353340291263 0.608761429008684 -1.84596859975736e-014
  outer loop
    vertex -121.988752202236 82.1848915081365 120.184853448415
    vertex -121.67091495704 82.5991050705096 129.939369549222
    vertex -121.67091495704 82.5991050705096 120.184853448415
  endloop
endfacet
facet normal -0.608761429008683 -0.793353340291264 -1.41646152555542e-014
  outer loop
    vertex -121.256701394667 79.4528407005676 129.939369549222
    vertex -121.67091495704 79.7706779457634 120.184853448415
    vertex -121.256701394667 79.4528407005676 120.184853448415
  endloop
endfacet
facet normal -0.608761429008683 -0.793353340291264 -1.41646152555542e-014
  outer loop
    vertex -121.67091495704 79.7706779457634 120.184853448415
    vertex -121.256701394667 79.4528407005676 129.939369549222
    vertex -121.67091495704 79.7706779457634 129.939369549222
  endloop
endfacet
facet normal -0.130526192220062 -0.991444861373809 -3.03707364735703e-015
  outer loop
    vertex -120.256701394667 79.1848915081365 129.939369549222
    vertex -120.774339484872 79.2530398555583 120.184853448415
    vertex -120.256701394667 79.1848915081365 120.184853448415
  endloop
endfacet
facet normal -0.130526192220062 -0.991444861373809 -3.03707364735703e-015
  outer loop
    vertex -120.774339484872 79.2530398555583 120.184853448415
    vertex -120.256701394667 79.1848915081365 129.939369549222
    vertex -120.774339484872 79.2530398555583 129.939369549222
  endloop
endfacet
facet normal 0.382683432365081 -0.923879532511291 8.90424939200431e-015
  outer loop
    vertex -119.256701394667 79.4528407005676 129.939369549222
    vertex -119.739063304462 79.2530398555583 120.184853448415
    vertex -119.256701394667 79.4528407005676 120.184853448415
  endloop
endfacet
facet normal 0.382683432365081 -0.923879532511291 8.90424939200431e-015
  outer loop
    vertex -119.739063304462 79.2530398555583 120.184853448415
    vertex -119.256701394667 79.4528407005676 129.939369549222
    vertex -119.739063304462 79.2530398555583 129.939369549222
  endloop
endfacet
facet normal 0.793353340291199 -0.608761429008768 1.84596859975721e-014
  outer loop
    vertex -118.524650587098 80.1848915081365 120.184853448415
    vertex -118.842487832294 79.7706779457634 129.939369549222
    vertex -118.842487832294 79.7706779457634 120.184853448415
  endloop
endfacet
facet normal 0.793353340291199 -0.608761429008768 1.84596859975721e-014
  outer loop
    vertex -118.842487832294 79.7706779457634 129.939369549222
    vertex -118.524650587098 80.1848915081365 120.184853448415
    vertex -118.524650587098 80.1848915081365 129.939369549222
  endloop
endfacet
facet normal 0.923879532511295 -0.38268343236507 2.14967596449299e-014
  outer loop
    vertex -118.324849742089 80.6672534179314 120.184853448415
    vertex -118.524650587098 80.1848915081365 129.939369549222
    vertex -118.524650587098 80.1848915081365 120.184853448415
  endloop
endfacet
facet normal 0.923879532511295 -0.38268343236507 2.14967596449299e-014
  outer loop
    vertex -118.524650587098 80.1848915081365 129.939369549222
    vertex -118.324849742089 80.6672534179314 120.184853448415
    vertex -118.324849742089 80.6672534179314 129.939369549222
  endloop
endfacet
facet normal 0.608761429008726 0.793353340291231 1.41646152555552e-014
  outer loop
    vertex -119.256701394667 82.9169423157054 129.939369549222
    vertex -118.842487832294 82.5991050705096 120.184853448415
    vertex -119.256701394667 82.9169423157054 120.184853448415
  endloop
endfacet
facet normal 0.608761429008726 0.793353340291231 1.41646152555552e-014
  outer loop
    vertex -118.842487832294 82.5991050705096 120.184853448415
    vertex -119.256701394667 82.9169423157054 129.939369549222
    vertex -118.842487832294 82.5991050705096 129.939369549222
  endloop
endfacet
facet normal 0.382683432365081 0.923879532511291 8.90424939200432e-015
  outer loop
    vertex -119.739063304462 83.1167431607146 129.939369549222
    vertex -119.256701394667 82.9169423157054 120.184853448415
    vertex -119.739063304462 83.1167431607146 120.184853448415
  endloop
endfacet
facet normal 0.382683432365081 0.923879532511291 8.90424939200432e-015
  outer loop
    vertex -119.256701394667 82.9169423157054 120.184853448415
    vertex -119.739063304462 83.1167431607146 129.939369549222
    vertex -119.256701394667 82.9169423157054 129.939369549222
  endloop
endfacet
facet normal -0.382683432365081 0.923879532511291 -8.90424939200431e-015
  outer loop
    vertex -121.256701394667 82.9169423157054 129.939369549222
    vertex -120.774339484872 83.1167431607146 120.184853448415
    vertex -121.256701394667 82.9169423157054 120.184853448415
  endloop
endfacet
facet normal -0.382683432365081 0.923879532511291 -8.90424939200431e-015
  outer loop
    vertex -120.774339484872 83.1167431607146 120.184853448415
    vertex -121.256701394667 82.9169423157054 129.939369549222
    vertex -120.774339484872 83.1167431607146 129.939369549222
  endloop
endfacet
facet normal 0.608761429008726 -0.793353340291231 1.41646152555551e-014
  outer loop
    vertex -118.842487832294 79.7706779457634 129.939369549222
    vertex -119.256701394667 79.4528407005676 120.184853448415
    vertex -118.842487832294 79.7706779457634 120.184853448415
  endloop
endfacet
facet normal 0.608761429008726 -0.793353340291231 1.41646152555551e-014
  outer loop
    vertex -119.256701394667 79.4528407005676 120.184853448415
    vertex -118.842487832294 79.7706779457634 129.939369549222
    vertex -119.256701394667 79.4528407005676 129.939369549222
  endloop
endfacet
facet normal 0.130526192220062 -0.991444861373809 3.03707364735703e-015
  outer loop
    vertex -119.739063304462 79.2530398555583 120.184853448415
    vertex -120.256701394667 79.1848915081365 129.939369549222
    vertex -120.256701394667 79.1848915081365 120.184853448415
  endloop
endfacet
facet normal 0.130526192220062 -0.991444861373809 3.03707364735703e-015
  outer loop
    vertex -120.256701394667 79.1848915081365 129.939369549222
    vertex -119.739063304462 79.2530398555583 120.184853448415
    vertex -119.739063304462 79.2530398555583 129.939369549222
  endloop
endfacet
facet normal 0.923879532511298 0.382683432365062 2.149675964493e-014
  outer loop
    vertex -118.524650587098 82.1848915081365 120.184853448415
    vertex -118.324849742089 81.7025295983415 129.939369549222
    vertex -118.324849742089 81.7025295983415 120.184853448415
  endloop
endfacet
facet normal 0.923879532511298 0.382683432365062 2.149675964493e-014
  outer loop
    vertex -118.324849742089 81.7025295983415 129.939369549222
    vertex -118.524650587098 82.1848915081365 120.184853448415
    vertex -118.524650587098 82.1848915081365 129.939369549222
  endloop
endfacet
facet normal -0.923879532511314 -0.382683432365024 -2.14967596449304e-014
  outer loop
    vertex -122.188553047245 80.6672534179314 129.939369549222
    vertex -121.988752202236 80.1848915081365 120.184853448415
    vertex -121.988752202236 80.1848915081365 129.939369549222
  endloop
endfacet
facet normal -0.923879532511314 -0.382683432365024 -2.14967596449304e-014
  outer loop
    vertex -121.988752202236 80.1848915081365 120.184853448415
    vertex -122.188553047245 80.6672534179314 129.939369549222
    vertex -122.188553047245 80.6672534179314 120.184853448415
  endloop
endfacet
facet normal -0.130526192220062 0.991444861373809 -3.03707364735703e-015
  outer loop
    vertex -120.774339484872 83.1167431607146 129.939369549222
    vertex -120.256701394667 83.1848915081365 120.184853448415
    vertex -120.774339484872 83.1167431607146 120.184853448415
  endloop
endfacet
facet normal -0.130526192220062 0.991444861373809 -3.03707364735703e-015
  outer loop
    vertex -120.256701394667 83.1848915081365 120.184853448415
    vertex -120.774339484872 83.1167431607146 129.939369549222
    vertex -120.256701394667 83.1848915081365 129.939369549222
  endloop
endfacet
facet normal -0.793353340291255 -0.608761429008695 -1.84596859975734e-014
  outer loop
    vertex -121.988752202236 80.1848915081365 129.939369549222
    vertex -121.67091495704 79.7706779457634 120.184853448415
    vertex -121.67091495704 79.7706779457634 129.939369549222
  endloop
endfacet
facet normal -0.793353340291255 -0.608761429008695 -1.84596859975734e-014
  outer loop
    vertex -121.67091495704 79.7706779457634 120.184853448415
    vertex -121.988752202236 80.1848915081365 129.939369549222
    vertex -121.988752202236 80.1848915081365 120.184853448415
  endloop
endfacet
facet normal -0.382683432365081 -0.923879532511291 -8.90424939200432e-015
  outer loop
    vertex -120.774339484872 79.2530398555583 120.184853448415
    vertex -121.256701394667 79.4528407005676 129.939369549222
    vertex -121.256701394667 79.4528407005676 120.184853448415
  endloop
endfacet
facet normal -0.382683432365081 -0.923879532511291 -8.90424939200432e-015
  outer loop
    vertex -121.256701394667 79.4528407005676 129.939369549222
    vertex -120.774339484872 79.2530398555583 120.184853448415
    vertex -120.774339484872 79.2530398555583 129.939369549222
  endloop
endfacet
facet normal 0.99144486137381 -0.130526192220056 2.30688646475595e-014
  outer loop
    vertex -118.256701394667 81.1848915081365 120.184853448415
    vertex -118.324849742089 80.6672534179314 129.939369549222
    vertex -118.324849742089 80.6672534179314 120.184853448415
  endloop
endfacet
facet normal 0.99144486137381 -0.130526192220056 2.30688646475595e-014
  outer loop
    vertex -118.324849742089 80.6672534179314 129.939369549222
    vertex -118.256701394667 81.1848915081365 120.184853448415
    vertex -118.256701394667 81.1848915081365 129.939369549222
  endloop
endfacet
facet normal -0.991444861373799 -0.130526192220143 -2.30688646475593e-014
  outer loop
    vertex -122.256701394667 81.1848915081365 129.939369549222
    vertex -122.188553047245 80.6672534179314 120.184853448415
    vertex -122.188553047245 80.6672534179314 129.939369549222
  endloop
endfacet
facet normal -0.991444861373799 -0.130526192220143 -2.30688646475593e-014
  outer loop
    vertex -122.188553047245 80.6672534179314 120.184853448415
    vertex -122.256701394667 81.1848915081365 129.939369549222
    vertex -122.256701394667 81.1848915081365 120.184853448415
  endloop
endfacet
facet normal -0.608761429008683 0.793353340291264 -1.41646152555542e-014
  outer loop
    vertex -121.67091495704 82.5991050705096 120.184853448415
    vertex -121.256701394667 82.9169423157054 129.939369549222
    vertex -121.256701394667 82.9169423157054 120.184853448415
  endloop
endfacet
facet normal -0.608761429008683 0.793353340291264 -1.41646152555542e-014
  outer loop
    vertex -121.256701394667 82.9169423157054 129.939369549222
    vertex -121.67091495704 82.5991050705096 120.184853448415
    vertex -121.67091495704 82.5991050705096 129.939369549222
  endloop
endfacet
facet normal -0.923879532511311 0.382683432365032 -2.14967596449303e-014
  outer loop
    vertex -121.988752202236 82.1848915081365 129.939369549222
    vertex -122.188553047245 81.7025295983415 120.184853448415
    vertex -122.188553047245 81.7025295983415 129.939369549222
  endloop
endfacet
facet normal -0.923879532511311 0.382683432365032 -2.14967596449303e-014
  outer loop
    vertex -122.188553047245 81.7025295983415 120.184853448415
    vertex -121.988752202236 82.1848915081365 129.939369549222
    vertex -121.988752202236 82.1848915081365 120.184853448415
  endloop
endfacet
facet normal -0.991444861373799 0.130526192220143 -2.30688646475593e-014
  outer loop
    vertex -122.188553047245 81.7025295983415 129.939369549222
    vertex -122.256701394667 81.1848915081365 120.184853448415
    vertex -122.256701394667 81.1848915081365 129.939369549222
  endloop
endfacet
facet normal -0.991444861373799 0.130526192220143 -2.30688646475593e-014
  outer loop
    vertex -122.256701394667 81.1848915081365 120.184853448415
    vertex -122.188553047245 81.7025295983415 129.939369549222
    vertex -122.188553047245 81.7025295983415 120.184853448415
  endloop
endfacet
facet normal 0.99144486137381 0.130526192220056 2.30688646475595e-014
  outer loop
    vertex -118.324849742089 81.7025295983415 120.184853448415
    vertex -118.256701394667 81.1848915081365 129.939369549222
    vertex -118.256701394667 81.1848915081365 120.184853448415
  endloop
endfacet
facet normal 0.99144486137381 0.130526192220056 2.30688646475595e-014
  outer loop
    vertex -118.256701394667 81.1848915081365 129.939369549222
    vertex -118.324849742089 81.7025295983415 120.184853448415
    vertex -118.324849742089 81.7025295983415 129.939369549222
  endloop
endfacet
facet normal 0.793353340291191 0.608761429008779 1.84596859975719e-014
  outer loop
    vertex -118.842487832294 82.5991050705096 120.184853448415
    vertex -118.524650587098 82.1848915081365 129.939369549222
    vertex -118.524650587098 82.1848915081365 120.184853448415
  endloop
endfacet
facet normal 0.793353340291191 0.608761429008779 1.84596859975719e-014
  outer loop
    vertex -118.524650587098 82.1848915081365 129.939369549222
    vertex -118.842487832294 82.5991050705096 120.184853448415
    vertex -118.842487832294 82.5991050705096 129.939369549222
  endloop
endfacet
facet normal 0.130526192220062 0.991444861373809 3.03707364735703e-015
  outer loop
    vertex -120.256701394667 83.1848915081365 129.939369549222
    vertex -119.739063304462 83.1167431607146 120.184853448415
    vertex -120.256701394667 83.1848915081365 120.184853448415
  endloop
endfacet
facet normal 0.130526192220062 0.991444861373809 3.03707364735703e-015
  outer loop
    vertex -119.739063304462 83.1167431607146 120.184853448415
    vertex -120.256701394667 83.1848915081365 129.939369549222
    vertex -119.739063304462 83.1167431607146 129.939369549222
  endloop
endfacet
facet normal -2.43907086598106e-014 -8.64602602823844e-016 1.0
  outer loop
    vertex -122.188553047245 80.6672534179314 129.939369549222
    vertex -122.188553047245 81.7025295983415 129.939369549222
    vertex -122.256701394667 81.1848915081365 129.939369549222
  endloop
endfacet
facet normal -2.43907086598106e-014 -8.64602602823844e-016 1.0
  outer loop
    vertex -122.188553047245 81.7025295983415 129.939369549222
    vertex -122.188553047245 80.6672534179314 129.939369549222
    vertex -121.988752202236 80.1848915081365 129.939369549222
  endloop
endfacet
facet normal -2.43907086598106e-014 -8.64602602823844e-016 1.0
  outer loop
    vertex -122.188553047245 81.7025295983415 129.939369549222
    vertex -121.988752202236 80.1848915081365 129.939369549222
    vertex -121.988752202236 82.1848915081365 129.939369549222
  endloop
endfacet
facet normal -2.43907086598106e-014 -8.64602602823844e-016 1.0
  outer loop
    vertex -121.988752202236 82.1848915081365 129.939369549222
    vertex -121.988752202236 80.1848915081365 129.939369549222
    vertex -121.67091495704 79.7706779457634 129.939369549222
  endloop
endfacet
facet normal -2.43907086598106e-014 -8.64602602823844e-016 1.0
  outer loop
    vertex -121.988752202236 82.1848915081365 129.939369549222
    vertex -121.67091495704 79.7706779457634 129.939369549222
    vertex -121.67091495704 82.5991050705096 129.939369549222
  endloop
endfacet
facet normal -2.43907086598106e-014 -8.64602602823844e-016 1.0
  outer loop
    vertex -121.67091495704 82.5991050705096 129.939369549222
    vertex -121.67091495704 79.7706779457634 129.939369549222
    vertex -121.256701394667 79.4528407005676 129.939369549222
  endloop
endfacet
facet normal -2.43907086598106e-014 -8.64602602823844e-016 1.0
  outer loop
    vertex -121.67091495704 82.5991050705096 129.939369549222
    vertex -121.256701394667 79.4528407005676 129.939369549222
    vertex -121.256701394667 82.9169423157054 129.939369549222
  endloop
endfacet
facet normal -2.43907086598106e-014 -8.64602602823844e-016 1.0
  outer loop
    vertex -121.256701394667 82.9169423157054 129.939369549222
    vertex -121.256701394667 79.4528407005676 129.939369549222
    vertex -120.774339484872 79.2530398555583 129.939369549222
  endloop
endfacet
facet normal -2.43907086598106e-014 -8.64602602823844e-016 1.0
  outer loop
    vertex -121.256701394667 82.9169423157054 129.939369549222
    vertex -120.774339484872 79.2530398555583 129.939369549222
    vertex -121.006701394667 81.1848915081365 129.939369549222
  endloop
endfacet
facet normal -2.43907086598106e-014 -8.64602602823844e-016 1.0
  outer loop
    vertex -121.006701394667 81.1848915081365 129.939369549222
    vertex -120.774339484872 79.2530398555583 129.939369549222
    vertex -120.981145764384 80.9907772243096 129.939369549222
  endloop
endfacet
facet normal -2.43907086598106e-014 -8.64602602823844e-016 1.0
  outer loop
    vertex -120.981145764384 80.9907772243096 129.939369549222
    vertex -120.774339484872 79.2530398555583 129.939369549222
    vertex -120.906220447505 80.8098915081365 129.939369549222
  endloop
endfacet
facet normal -2.43907086598106e-014 -8.64602602823844e-016 1.0
  outer loop
    vertex -120.906220447505 80.8098915081365 129.939369549222
    vertex -120.774339484872 79.2530398555583 129.939369549222
    vertex -120.787031480557 80.6545614222466 129.939369549222
  endloop
endfacet
facet normal -2.43907086598106e-014 -8.64602602823844e-016 1.0
  outer loop
    vertex -120.787031480557 80.6545614222466 129.939369549222
    vertex -120.774339484872 79.2530398555583 129.939369549222
    vertex -120.631701394667 80.5353724552981 129.939369549222
  endloop
endfacet
facet normal -2.43907086598106e-014 -8.64602602823844e-016 1.0
  outer loop
    vertex -120.631701394667 80.5353724552981 129.939369549222
    vertex -120.774339484872 79.2530398555583 129.939369549222
    vertex -120.256701394667 79.1848915081365 129.939369549222
  endloop
endfacet
facet normal -2.43907086598106e-014 -8.64602602823844e-016 1.0
  outer loop
    vertex -120.631701394667 80.5353724552981 129.939369549222
    vertex -120.256701394667 79.1848915081365 129.939369549222
    vertex -120.450815678494 80.4604471384197 129.939369549222
  endloop
endfacet
facet normal -2.43907086598106e-014 -8.64602602823844e-016 1.0
  outer loop
    vertex -120.450815678494 80.4604471384197 129.939369549222
    vertex -120.256701394667 79.1848915081365 129.939369549222
    vertex -120.256701394667 80.4348915081365 129.939369549222
  endloop
endfacet
facet normal -2.43907086598106e-014 -8.64602602823844e-016 1.0
  outer loop
    vertex -120.256701394667 80.4348915081365 129.939369549222
    vertex -120.256701394667 79.1848915081365 129.939369549222
    vertex -119.739063304462 79.2530398555583 129.939369549222
  endloop
endfacet
facet normal -2.43907086598106e-014 -8.64602602823844e-016 1.0
  outer loop
    vertex -120.256701394667 80.4348915081365 129.939369549222
    vertex -119.739063304462 79.2530398555583 129.939369549222
    vertex -120.06258711084 80.4604471384197 129.939369549222
  endloop
endfacet
facet normal -2.43907086598106e-014 -8.64602602823844e-016 1.0
  outer loop
    vertex -120.06258711084 80.4604471384197 129.939369549222
    vertex -119.739063304462 79.2530398555583 129.939369549222
    vertex -119.881701394667 80.5353724552981 129.939369549222
  endloop
endfacet
facet normal -2.43907086598106e-014 -8.64602602823844e-016 1.0
  outer loop
    vertex -119.881701394667 80.5353724552981 129.939369549222
    vertex -119.739063304462 79.2530398555583 129.939369549222
    vertex -119.726371308777 80.6545614222466 129.939369549222
  endloop
endfacet
facet normal -2.43907086598106e-014 -8.64602602823844e-016 1.0
  outer loop
    vertex -119.726371308777 80.6545614222466 129.939369549222
    vertex -119.739063304462 79.2530398555583 129.939369549222
    vertex -119.256701394667 79.4528407005676 129.939369549222
  endloop
endfacet
facet normal -2.43907086598106e-014 -8.64602602823844e-016 1.0
  outer loop
    vertex -119.726371308777 80.6545614222466 129.939369549222
    vertex -119.256701394667 79.4528407005676 129.939369549222
    vertex -119.607182341829 80.8098915081365 129.939369549222
  endloop
endfacet
facet normal -2.43907086598106e-014 -8.64602602823844e-016 1.0
  outer loop
    vertex -119.607182341829 80.8098915081365 129.939369549222
    vertex -119.256701394667 79.4528407005676 129.939369549222
    vertex -119.53225702495 80.9907772243096 129.939369549222
  endloop
endfacet
facet normal -2.43907086598106e-014 -8.64602602823844e-016 1.0
  outer loop
    vertex -119.53225702495 80.9907772243096 129.939369549222
    vertex -119.256701394667 79.4528407005676 129.939369549222
    vertex -119.506701394667 81.1848915081365 129.939369549222
  endloop
endfacet
facet normal -2.43907086598106e-014 -8.64602602823844e-016 1.0
  outer loop
    vertex -121.006701394667 81.1848915081365 129.939369549222
    vertex -120.774339484872 83.1167431607146 129.939369549222
    vertex -121.256701394667 82.9169423157054 129.939369549222
  endloop
endfacet
facet normal -2.43907086598106e-014 -8.64602602823844e-016 1.0
  outer loop
    vertex -120.774339484872 83.1167431607146 129.939369549222
    vertex -121.006701394667 81.1848915081365 129.939369549222
    vertex -120.981145764384 81.3790057919634 129.939369549222
  endloop
endfacet
facet normal -2.43907086598106e-014 -8.64602602823844e-016 1.0
  outer loop
    vertex -120.774339484872 83.1167431607146 129.939369549222
    vertex -120.981145764384 81.3790057919634 129.939369549222
    vertex -120.906220447505 81.5598915081365 129.939369549222
  endloop
endfacet
facet normal -2.43907086598106e-014 -8.64602602823844e-016 1.0
  outer loop
    vertex -120.774339484872 83.1167431607146 129.939369549222
    vertex -120.906220447505 81.5598915081365 129.939369549222
    vertex -120.787031480557 81.7152215940264 129.939369549222
  endloop
endfacet
facet normal -2.43907086598106e-014 -8.64602602823844e-016 1.0
  outer loop
    vertex -120.774339484872 83.1167431607146 129.939369549222
    vertex -120.787031480557 81.7152215940264 129.939369549222
    vertex -120.631701394667 81.8344105609748 129.939369549222
  endloop
endfacet
facet normal -2.43907086598106e-014 -8.64602602823844e-016 1.0
  outer loop
    vertex -120.774339484872 83.1167431607146 129.939369549222
    vertex -120.631701394667 81.8344105609748 129.939369549222
    vertex -120.256701394667 83.1848915081365 129.939369549222
  endloop
endfacet
facet normal -2.43907086598106e-014 -8.64602602823844e-016 1.0
  outer loop
    vertex -120.256701394667 83.1848915081365 129.939369549222
    vertex -120.631701394667 81.8344105609748 129.939369549222
    vertex -120.450815678494 81.9093358778533 129.939369549222
  endloop
endfacet
facet normal -2.43907086598106e-014 -8.64602602823844e-016 1.0
  outer loop
    vertex -120.256701394667 83.1848915081365 129.939369549222
    vertex -120.450815678494 81.9093358778533 129.939369549222
    vertex -120.256701394667 81.9348915081365 129.939369549222
  endloop
endfacet
facet normal -2.43907086598106e-014 -8.64602602823844e-016 1.0
  outer loop
    vertex -120.256701394667 83.1848915081365 129.939369549222
    vertex -120.256701394667 81.9348915081365 129.939369549222
    vertex -120.06258711084 81.9093358778533 129.939369549222
  endloop
endfacet
facet normal -2.43907086598106e-014 -8.64602602823844e-016 1.0
  outer loop
    vertex -120.256701394667 83.1848915081365 129.939369549222
    vertex -120.06258711084 81.9093358778533 129.939369549222
    vertex -119.739063304462 83.1167431607146 129.939369549222
  endloop
endfacet
facet normal -2.43907086598106e-014 -8.64602602823844e-016 1.0
  outer loop
    vertex -119.739063304462 83.1167431607146 129.939369549222
    vertex -120.06258711084 81.9093358778533 129.939369549222
    vertex -119.881701394667 81.8344105609748 129.939369549222
  endloop
endfacet
facet normal -2.43907086598106e-014 -8.64602602823844e-016 1.0
  outer loop
    vertex -119.739063304462 83.1167431607146 129.939369549222
    vertex -119.881701394667 81.8344105609748 129.939369549222
    vertex -119.726371308777 81.7152215940264 129.939369549222
  endloop
endfacet
facet normal -2.43907086598106e-014 -8.64602602823844e-016 1.0
  outer loop
    vertex -119.739063304462 83.1167431607146 129.939369549222
    vertex -119.726371308777 81.7152215940264 129.939369549222
    vertex -119.256701394667 82.9169423157054 129.939369549222
  endloop
endfacet
facet normal -2.43907086598106e-014 -8.64602602823844e-016 1.0
  outer loop
    vertex -119.256701394667 82.9169423157054 129.939369549222
    vertex -119.726371308777 81.7152215940264 129.939369549222
    vertex -119.607182341829 81.5598915081365 129.939369549222
  endloop
endfacet
facet normal -2.43907086598106e-014 -8.64602602823844e-016 1.0
  outer loop
    vertex -119.256701394667 82.9169423157054 129.939369549222
    vertex -119.607182341829 81.5598915081365 129.939369549222
    vertex -119.53225702495 81.3790057919634 129.939369549222
  endloop
endfacet
facet normal -2.43907086598106e-014 -8.64602602823844e-016 1.0
  outer loop
    vertex -119.256701394667 82.9169423157054 129.939369549222
    vertex -119.53225702495 81.3790057919634 129.939369549222
    vertex -119.506701394667 81.1848915081365 129.939369549222
  endloop
endfacet
facet normal -2.43907086598106e-014 -8.64602602823844e-016 1.0
  outer loop
    vertex -119.256701394667 82.9169423157054 129.939369549222
    vertex -119.506701394667 81.1848915081365 129.939369549222
    vertex -119.256701394667 79.4528407005676 129.939369549222
  endloop
endfacet
facet normal -2.43907086598106e-014 -8.64602602823844e-016 1.0
  outer loop
    vertex -119.256701394667 82.9169423157054 129.939369549222
    vertex -119.256701394667 79.4528407005676 129.939369549222
    vertex -118.842487832294 79.7706779457634 129.939369549222
  endloop
endfacet
facet normal -2.43907086598106e-014 -8.64602602823844e-016 1.0
  outer loop
    vertex -119.256701394667 82.9169423157054 129.939369549222
    vertex -118.842487832294 79.7706779457634 129.939369549222
    vertex -118.842487832294 82.5991050705096 129.939369549222
  endloop
endfacet
facet normal -2.43907086598106e-014 -8.64602602823844e-016 1.0
  outer loop
    vertex -118.842487832294 82.5991050705096 129.939369549222
    vertex -118.842487832294 79.7706779457634 129.939369549222
    vertex -118.524650587098 80.1848915081365 129.939369549222
  endloop
endfacet
facet normal -2.43907086598106e-014 -8.64602602823844e-016 1.0
  outer loop
    vertex -118.842487832294 82.5991050705096 129.939369549222
    vertex -118.524650587098 80.1848915081365 129.939369549222
    vertex -118.524650587098 82.1848915081365 129.939369549222
  endloop
endfacet
facet normal -2.43907086598106e-014 -8.64602602823844e-016 1.0
  outer loop
    vertex -118.524650587098 82.1848915081365 129.939369549222
    vertex -118.524650587098 80.1848915081365 129.939369549222
    vertex -118.324849742089 80.6672534179314 129.939369549222
  endloop
endfacet
facet normal -2.43907086598106e-014 -8.64602602823844e-016 1.0
  outer loop
    vertex -118.524650587098 82.1848915081365 129.939369549222
    vertex -118.324849742089 80.6672534179314 129.939369549222
    vertex -118.324849742089 81.7025295983415 129.939369549222
  endloop
endfacet
facet normal -2.43907086598106e-014 -8.64602602823844e-016 1.0
  outer loop
    vertex -118.324849742089 81.7025295983415 129.939369549222
    vertex -118.324849742089 80.6672534179314 129.939369549222
    vertex -118.256701394667 81.1848915081365 129.939369549222
  endloop
endfacet
facet normal 0.130526192220058 0.99144486137381 3.70948319043539e-015
  outer loop
    vertex -120.450815678494 80.4604471384197 129.939369549222
    vertex -120.256701394667 80.4348915081365 120.184853448415
    vertex -120.450815678494 80.4604471384197 120.184853448415
  endloop
endfacet
facet normal 0.130526192220058 0.99144486137381 3.70948319043539e-015
  outer loop
    vertex -120.256701394667 80.4348915081365 120.184853448415
    vertex -120.450815678494 80.4604471384197 129.939369549222
    vertex -120.256701394667 80.4348915081365 129.939369549222
  endloop
endfacet
facet normal -0.991444861373817 -0.13052619222 -2.8175940075468e-014
  outer loop
    vertex -119.53225702495 81.3790057919634 129.939369549222
    vertex -119.506701394667 81.1848915081365 120.184853448415
    vertex -119.506701394667 81.1848915081365 129.939369549222
  endloop
endfacet
facet normal -0.991444861373817 -0.13052619222 -2.8175940075468e-014
  outer loop
    vertex -119.506701394667 81.1848915081365 120.184853448415
    vertex -119.53225702495 81.3790057919634 129.939369549222
    vertex -119.53225702495 81.3790057919634 120.184853448415
  endloop
endfacet
facet normal 0.923879532511254 0.38268343236517 2.62560913112655e-014
  outer loop
    vertex -120.981145764384 80.9907772243096 120.184853448415
    vertex -120.906220447505 80.8098915081365 129.939369549222
    vertex -120.906220447505 80.8098915081365 120.184853448415
  endloop
endfacet
facet normal 0.923879532511254 0.38268343236517 2.62560913112655e-014
  outer loop
    vertex -120.906220447505 80.8098915081365 129.939369549222
    vertex -120.981145764384 80.9907772243096 120.184853448415
    vertex -120.981145764384 80.9907772243096 129.939369549222
  endloop
endfacet
facet normal 0.991444861373817 0.13052619222 2.8175940075468e-014
  outer loop
    vertex -121.006701394667 81.1848915081365 120.184853448415
    vertex -120.981145764384 80.9907772243096 129.939369549222
    vertex -120.981145764384 80.9907772243096 120.184853448415
  endloop
endfacet
facet normal 0.991444861373817 0.13052619222 2.8175940075468e-014
  outer loop
    vertex -120.981145764384 80.9907772243096 129.939369549222
    vertex -121.006701394667 81.1848915081365 120.184853448415
    vertex -121.006701394667 81.1848915081365 129.939369549222
  endloop
endfacet
facet normal -0.991444861373817 0.13052619222 -2.8175940075468e-014
  outer loop
    vertex -119.506701394667 81.1848915081365 129.939369549222
    vertex -119.53225702495 80.9907772243096 120.184853448415
    vertex -119.53225702495 80.9907772243096 129.939369549222
  endloop
endfacet
facet normal -0.991444861373817 0.13052619222 -2.8175940075468e-014
  outer loop
    vertex -119.53225702495 80.9907772243096 120.184853448415
    vertex -119.506701394667 81.1848915081365 129.939369549222
    vertex -119.506701394667 81.1848915081365 120.184853448415
  endloop
endfacet
facet normal 0.79335334029124 0.608761429008714 2.25463119760272e-014
  outer loop
    vertex -120.906220447505 80.8098915081365 120.184853448415
    vertex -120.787031480557 80.6545614222466 129.939369549222
    vertex -120.787031480557 80.6545614222466 120.184853448415
  endloop
endfacet
facet normal 0.79335334029124 0.608761429008714 2.25463119760272e-014
  outer loop
    vertex -120.787031480557 80.6545614222466 129.939369549222
    vertex -120.906220447505 80.8098915081365 120.184853448415
    vertex -120.906220447505 80.8098915081365 129.939369549222
  endloop
endfacet
facet normal -0.608761429008743 0.793353340291218 -1.80210329288968e-014
  outer loop
    vertex -119.881701394667 80.5353724552981 129.939369549222
    vertex -119.726371308777 80.6545614222466 120.184853448415
    vertex -119.881701394667 80.5353724552981 120.184853448415
  endloop
endfacet
facet normal -0.608761429008743 0.793353340291218 -1.80210329288968e-014
  outer loop
    vertex -119.726371308777 80.6545614222466 120.184853448415
    vertex -119.881701394667 80.5353724552981 129.939369549222
    vertex -119.726371308777 80.6545614222466 129.939369549222
  endloop
endfacet
facet normal 0.923879532511254 -0.38268343236517 2.62555013332671e-014
  outer loop
    vertex -120.906220447505 81.5598915081365 120.184853448415
    vertex -120.981145764384 81.3790057919634 129.939369549222
    vertex -120.981145764384 81.3790057919634 120.184853448415
  endloop
endfacet
facet normal 0.923879532511254 -0.38268343236517 2.62555013332671e-014
  outer loop
    vertex -120.981145764384 81.3790057919634 129.939369549222
    vertex -120.906220447505 81.5598915081365 120.184853448415
    vertex -120.906220447505 81.5598915081365 129.939369549222
  endloop
endfacet
facet normal 0.991444861373817 -0.13052619222 2.8175940075468e-014
  outer loop
    vertex -120.981145764384 81.3790057919634 120.184853448415
    vertex -121.006701394667 81.1848915081365 129.939369549222
    vertex -121.006701394667 81.1848915081365 120.184853448415
  endloop
endfacet
facet normal 0.991444861373817 -0.13052619222 2.8175940075468e-014
  outer loop
    vertex -121.006701394667 81.1848915081365 129.939369549222
    vertex -120.981145764384 81.3790057919634 120.184853448415
    vertex -120.981145764384 81.3790057919634 129.939369549222
  endloop
endfacet
facet normal -0.382683432365069 -0.923879532511295 -1.1328106452621e-014
  outer loop
    vertex -119.881701394667 81.8344105609748 129.939369549222
    vertex -120.06258711084 81.9093358778533 120.184853448415
    vertex -119.881701394667 81.8344105609748 120.184853448415
  endloop
endfacet
facet normal -0.382683432365069 -0.923879532511295 -1.1328106452621e-014
  outer loop
    vertex -120.06258711084 81.9093358778533 120.184853448415
    vertex -119.881701394667 81.8344105609748 129.939369549222
    vertex -120.06258711084 81.9093358778533 129.939369549222
  endloop
endfacet
facet normal 0.608761429008743 0.793353340291218 1.80213387044911e-014
  outer loop
    vertex -120.787031480557 80.6545614222466 129.939369549222
    vertex -120.631701394667 80.5353724552981 120.184853448415
    vertex -120.787031480557 80.6545614222466 120.184853448415
  endloop
endfacet
facet normal 0.608761429008743 0.793353340291218 1.80213387044911e-014
  outer loop
    vertex -120.631701394667 80.5353724552981 120.184853448415
    vertex -120.787031480557 80.6545614222466 129.939369549222
    vertex -120.631701394667 80.5353724552981 129.939369549222
  endloop
endfacet
facet normal -0.608761429008743 -0.793353340291218 -1.8021338704491e-014
  outer loop
    vertex -119.726371308777 81.7152215940264 129.939369549222
    vertex -119.881701394667 81.8344105609748 120.184853448415
    vertex -119.726371308777 81.7152215940264 120.184853448415
  endloop
endfacet
facet normal -0.608761429008743 -0.793353340291218 -1.8021338704491e-014
  outer loop
    vertex -119.881701394667 81.8344105609748 120.184853448415
    vertex -119.726371308777 81.7152215940264 129.939369549222
    vertex -119.881701394667 81.8344105609748 129.939369549222
  endloop
endfacet
facet normal -0.79335334029124 0.608761429008714 -2.25460062004329e-014
  outer loop
    vertex -119.607182341829 80.8098915081365 129.939369549222
    vertex -119.726371308777 80.6545614222466 120.184853448415
    vertex -119.726371308777 80.6545614222466 129.939369549222
  endloop
endfacet
facet normal -0.79335334029124 0.608761429008714 -2.25460062004329e-014
  outer loop
    vertex -119.726371308777 80.6545614222466 120.184853448415
    vertex -119.607182341829 80.8098915081365 129.939369549222
    vertex -119.607182341829 80.8098915081365 120.184853448415
  endloop
endfacet
facet normal -0.79335334029124 -0.608761429008714 -2.25464754601643e-014
  outer loop
    vertex -119.726371308777 81.7152215940264 129.939369549222
    vertex -119.607182341829 81.5598915081365 120.184853448415
    vertex -119.607182341829 81.5598915081365 129.939369549222
  endloop
endfacet
facet normal -0.79335334029124 -0.608761429008714 -2.25464754601643e-014
  outer loop
    vertex -119.607182341829 81.5598915081365 120.184853448415
    vertex -119.726371308777 81.7152215940264 129.939369549222
    vertex -119.726371308777 81.7152215940264 120.184853448415
  endloop
endfacet
facet normal 0.382683432365069 0.923879532511295 1.13291136080628e-014
  outer loop
    vertex -120.631701394667 80.5353724552981 129.939369549222
    vertex -120.450815678494 80.4604471384197 120.184853448415
    vertex -120.631701394667 80.5353724552981 120.184853448415
  endloop
endfacet
facet normal 0.382683432365069 0.923879532511295 1.13291136080628e-014
  outer loop
    vertex -120.450815678494 80.4604471384197 120.184853448415
    vertex -120.631701394667 80.5353724552981 129.939369549222
    vertex -120.450815678494 80.4604471384197 129.939369549222
  endloop
endfacet
facet normal -0.923879532511254 0.38268343236517 -2.62560913112655e-014
  outer loop
    vertex -119.53225702495 80.9907772243096 129.939369549222
    vertex -119.607182341829 80.8098915081365 120.184853448415
    vertex -119.607182341829 80.8098915081365 129.939369549222
  endloop
endfacet
facet normal -0.923879532511254 0.38268343236517 -2.62560913112655e-014
  outer loop
    vertex -119.607182341829 80.8098915081365 120.184853448415
    vertex -119.53225702495 80.9907772243096 129.939369549222
    vertex -119.53225702495 80.9907772243096 120.184853448415
  endloop
endfacet
facet normal -0.130526192220058 0.99144486137381 -3.70948319043539e-015
  outer loop
    vertex -120.256701394667 80.4348915081365 129.939369549222
    vertex -120.06258711084 80.4604471384197 120.184853448415
    vertex -120.256701394667 80.4348915081365 120.184853448415
  endloop
endfacet
facet normal -0.130526192220058 0.99144486137381 -3.70948319043539e-015
  outer loop
    vertex -120.06258711084 80.4604471384197 120.184853448415
    vertex -120.256701394667 80.4348915081365 129.939369549222
    vertex -120.06258711084 80.4604471384197 129.939369549222
  endloop
endfacet
facet normal 0.79335334029124 -0.608761429008714 2.25463119760272e-014
  outer loop
    vertex -120.787031480557 81.7152215940264 120.184853448415
    vertex -120.906220447505 81.5598915081365 129.939369549222
    vertex -120.906220447505 81.5598915081365 120.184853448415
  endloop
endfacet
facet normal 0.79335334029124 -0.608761429008714 2.25463119760272e-014
  outer loop
    vertex -120.906220447505 81.5598915081365 129.939369549222
    vertex -120.787031480557 81.7152215940264 120.184853448415
    vertex -120.787031480557 81.7152215940264 129.939369549222
  endloop
endfacet
facet normal 0.382683432365069 -0.923879532511295 1.13284625358423e-014
  outer loop
    vertex -120.450815678494 81.9093358778533 129.939369549222
    vertex -120.631701394667 81.8344105609748 120.184853448415
    vertex -120.450815678494 81.9093358778533 120.184853448415
  endloop
endfacet
facet normal 0.382683432365069 -0.923879532511295 1.13284625358423e-014
  outer loop
    vertex -120.631701394667 81.8344105609748 120.184853448415
    vertex -120.450815678494 81.9093358778533 129.939369549222
    vertex -120.631701394667 81.8344105609748 129.939369549222
  endloop
endfacet
facet normal -0.130526192220058 -0.99144486137381 -3.70948319043539e-015
  outer loop
    vertex -120.06258711084 81.9093358778533 129.939369549222
    vertex -120.256701394667 81.9348915081365 120.184853448415
    vertex -120.06258711084 81.9093358778533 120.184853448415
  endloop
endfacet
facet normal -0.130526192220058 -0.99144486137381 -3.70948319043539e-015
  outer loop
    vertex -120.256701394667 81.9348915081365 120.184853448415
    vertex -120.06258711084 81.9093358778533 129.939369549222
    vertex -120.256701394667 81.9348915081365 129.939369549222
  endloop
endfacet
facet normal 0.130526192220058 -0.99144486137381 3.70948319043539e-015
  outer loop
    vertex -120.256701394667 81.9348915081365 129.939369549222
    vertex -120.450815678494 81.9093358778533 120.184853448415
    vertex -120.256701394667 81.9348915081365 120.184853448415
  endloop
endfacet
facet normal 0.130526192220058 -0.99144486137381 3.70948319043539e-015
  outer loop
    vertex -120.450815678494 81.9093358778533 120.184853448415
    vertex -120.256701394667 81.9348915081365 129.939369549222
    vertex -120.450815678494 81.9093358778533 129.939369549222
  endloop
endfacet
facet normal -0.382683432365069 0.923879532511295 -1.13284625358423e-014
  outer loop
    vertex -120.06258711084 80.4604471384197 129.939369549222
    vertex -119.881701394667 80.5353724552981 120.184853448415
    vertex -120.06258711084 80.4604471384197 120.184853448415
  endloop
endfacet
facet normal -0.382683432365069 0.923879532511295 -1.13284625358423e-014
  outer loop
    vertex -119.881701394667 80.5353724552981 120.184853448415
    vertex -120.06258711084 80.4604471384197 129.939369549222
    vertex -119.881701394667 80.5353724552981 129.939369549222
  endloop
endfacet
facet normal 0.608761429008743 -0.793353340291218 1.80210329288969e-014
  outer loop
    vertex -120.631701394667 81.8344105609748 129.939369549222
    vertex -120.787031480557 81.7152215940264 120.184853448415
    vertex -120.631701394667 81.8344105609748 120.184853448415
  endloop
endfacet
facet normal 0.608761429008743 -0.793353340291218 1.80210329288969e-014
  outer loop
    vertex -120.787031480557 81.7152215940264 120.184853448415
    vertex -120.631701394667 81.8344105609748 129.939369549222
    vertex -120.787031480557 81.7152215940264 129.939369549222
  endloop
endfacet
facet normal -0.923879532511254 -0.38268343236517 -2.62555013332671e-014
  outer loop
    vertex -119.607182341829 81.5598915081365 129.939369549222
    vertex -119.53225702495 81.3790057919634 120.184853448415
    vertex -119.53225702495 81.3790057919634 129.939369549222
  endloop
endfacet
facet normal -0.923879532511254 -0.38268343236517 -2.62555013332671e-014
  outer loop
    vertex -119.53225702495 81.3790057919634 120.184853448415
    vertex -119.607182341829 81.5598915081365 129.939369549222
    vertex -119.607182341829 81.5598915081365 120.184853448415
  endloop
endfacet
facet normal 2.35442532781236e-014 5.73149419362441e-017 -1.0
  outer loop
    vertex -122.188553047245 81.7025295983415 120.184853448415
    vertex -122.188553047245 80.6672534179314 120.184853448415
    vertex -122.256701394667 81.1848915081365 120.184853448415
  endloop
endfacet
facet normal 2.35442532781236e-014 5.73149419362441e-017 -1.0
  outer loop
    vertex -122.188553047245 80.6672534179314 120.184853448415
    vertex -122.188553047245 81.7025295983415 120.184853448415
    vertex -121.988752202236 82.1848915081365 120.184853448415
  endloop
endfacet
facet normal 2.35442532781236e-014 5.73149419362441e-017 -1.0
  outer loop
    vertex -122.188553047245 80.6672534179314 120.184853448415
    vertex -121.988752202236 82.1848915081365 120.184853448415
    vertex -121.988752202236 80.1848915081365 120.184853448415
  endloop
endfacet
facet normal 2.35442532781236e-014 5.73149419362441e-017 -1.0
  outer loop
    vertex -121.988752202236 80.1848915081365 120.184853448415
    vertex -121.988752202236 82.1848915081365 120.184853448415
    vertex -121.67091495704 82.5991050705096 120.184853448415
  endloop
endfacet
facet normal 2.35442532781236e-014 5.73149419362441e-017 -1.0
  outer loop
    vertex -121.988752202236 80.1848915081365 120.184853448415
    vertex -121.67091495704 82.5991050705096 120.184853448415
    vertex -121.67091495704 79.7706779457634 120.184853448415
  endloop
endfacet
facet normal 2.35442532781236e-014 5.73149419362441e-017 -1.0
  outer loop
    vertex -121.67091495704 79.7706779457634 120.184853448415
    vertex -121.67091495704 82.5991050705096 120.184853448415
    vertex -121.256701394667 82.9169423157054 120.184853448415
  endloop
endfacet
facet normal 2.35442532781236e-014 5.73149419362441e-017 -1.0
  outer loop
    vertex -121.67091495704 79.7706779457634 120.184853448415
    vertex -121.256701394667 82.9169423157054 120.184853448415
    vertex -121.256701394667 79.4528407005676 120.184853448415
  endloop
endfacet
facet normal 2.35442532781236e-014 5.73149419362441e-017 -1.0
  outer loop
    vertex -121.256701394667 79.4528407005676 120.184853448415
    vertex -121.256701394667 82.9169423157054 120.184853448415
    vertex -120.774339484872 83.1167431607146 120.184853448415
  endloop
endfacet
facet normal 2.35442532781236e-014 5.73149419362441e-017 -1.0
  outer loop
    vertex -121.256701394667 79.4528407005676 120.184853448415
    vertex -120.774339484872 83.1167431607146 120.184853448415
    vertex -121.006701394667 81.1848915081365 120.184853448415
  endloop
endfacet
facet normal 2.35442532781236e-014 5.73149419362441e-017 -1.0
  outer loop
    vertex -121.006701394667 81.1848915081365 120.184853448415
    vertex -120.774339484872 83.1167431607146 120.184853448415
    vertex -120.981145764384 81.3790057919634 120.184853448415
  endloop
endfacet
facet normal 2.35442532781236e-014 5.73149419362441e-017 -1.0
  outer loop
    vertex -120.981145764384 81.3790057919634 120.184853448415
    vertex -120.774339484872 83.1167431607146 120.184853448415
    vertex -120.906220447505 81.5598915081365 120.184853448415
  endloop
endfacet
facet normal 2.35442532781236e-014 5.73149419362441e-017 -1.0
  outer loop
    vertex -120.906220447505 81.5598915081365 120.184853448415
    vertex -120.774339484872 83.1167431607146 120.184853448415
    vertex -120.787031480557 81.7152215940264 120.184853448415
  endloop
endfacet
facet normal 2.35442532781236e-014 5.73149419362441e-017 -1.0
  outer loop
    vertex -120.787031480557 81.7152215940264 120.184853448415
    vertex -120.774339484872 83.1167431607146 120.184853448415
    vertex -120.631701394667 81.8344105609748 120.184853448415
  endloop
endfacet
facet normal 2.35442532781236e-014 5.73149419362441e-017 -1.0
  outer loop
    vertex -120.631701394667 81.8344105609748 120.184853448415
    vertex -120.774339484872 83.1167431607146 120.184853448415
    vertex -120.256701394667 83.1848915081365 120.184853448415
  endloop
endfacet
facet normal 2.35442532781236e-014 5.73149419362441e-017 -1.0
  outer loop
    vertex -120.631701394667 81.8344105609748 120.184853448415
    vertex -120.256701394667 83.1848915081365 120.184853448415
    vertex -120.450815678494 81.9093358778533 120.184853448415
  endloop
endfacet
facet normal 2.35442532781236e-014 5.73149419362441e-017 -1.0
  outer loop
    vertex -120.450815678494 81.9093358778533 120.184853448415
    vertex -120.256701394667 83.1848915081365 120.184853448415
    vertex -120.256701394667 81.9348915081365 120.184853448415
  endloop
endfacet
facet normal 2.35442532781236e-014 5.73149419362441e-017 -1.0
  outer loop
    vertex -120.256701394667 81.9348915081365 120.184853448415
    vertex -120.256701394667 83.1848915081365 120.184853448415
    vertex -119.739063304462 83.1167431607146 120.184853448415
  endloop
endfacet
facet normal 2.35442532781236e-014 5.73149419362441e-017 -1.0
  outer loop
    vertex -120.256701394667 81.9348915081365 120.184853448415
    vertex -119.739063304462 83.1167431607146 120.184853448415
    vertex -120.06258711084 81.9093358778533 120.184853448415
  endloop
endfacet
facet normal 2.35442532781236e-014 5.73149419362441e-017 -1.0
  outer loop
    vertex -120.06258711084 81.9093358778533 120.184853448415
    vertex -119.739063304462 83.1167431607146 120.184853448415
    vertex -119.881701394667 81.8344105609748 120.184853448415
  endloop
endfacet
facet normal 2.35442532781236e-014 5.73149419362441e-017 -1.0
  outer loop
    vertex -119.881701394667 81.8344105609748 120.184853448415
    vertex -119.739063304462 83.1167431607146 120.184853448415
    vertex -119.726371308777 81.7152215940264 120.184853448415
  endloop
endfacet
facet normal 2.35442532781236e-014 5.73149419362441e-017 -1.0
  outer loop
    vertex -119.726371308777 81.7152215940264 120.184853448415
    vertex -119.739063304462 83.1167431607146 120.184853448415
    vertex -119.256701394667 82.9169423157054 120.184853448415
  endloop
endfacet
facet normal 2.35442532781236e-014 5.73149419362441e-017 -1.0
  outer loop
    vertex -119.726371308777 81.7152215940264 120.184853448415
    vertex -119.256701394667 82.9169423157054 120.184853448415
    vertex -119.607182341829 81.5598915081365 120.184853448415
  endloop
endfacet
facet normal 2.35442532781236e-014 5.73149419362441e-017 -1.0
  outer loop
    vertex -119.607182341829 81.5598915081365 120.184853448415
    vertex -119.256701394667 82.9169423157054 120.184853448415
    vertex -119.53225702495 81.3790057919634 120.184853448415
  endloop
endfacet
facet normal 2.35442532781236e-014 5.73149419362441e-017 -1.0
  outer loop
    vertex -119.53225702495 81.3790057919634 120.184853448415
    vertex -119.256701394667 82.9169423157054 120.184853448415
    vertex -119.506701394667 81.1848915081365 120.184853448415
  endloop
endfacet
facet normal 2.35442532781236e-014 5.73149419362441e-017 -1.0
  outer loop
    vertex -121.006701394667 81.1848915081365 120.184853448415
    vertex -120.774339484872 79.2530398555583 120.184853448415
    vertex -121.256701394667 79.4528407005676 120.184853448415
  endloop
endfacet
facet normal 2.35442532781236e-014 5.73149419362441e-017 -1.0
  outer loop
    vertex -120.774339484872 79.2530398555583 120.184853448415
    vertex -121.006701394667 81.1848915081365 120.184853448415
    vertex -120.981145764384 80.9907772243096 120.184853448415
  endloop
endfacet
facet normal 2.35442532781236e-014 5.73149419362441e-017 -1.0
  outer loop
    vertex -120.774339484872 79.2530398555583 120.184853448415
    vertex -120.981145764384 80.9907772243096 120.184853448415
    vertex -120.906220447505 80.8098915081365 120.184853448415
  endloop
endfacet
facet normal 2.35442532781236e-014 5.73149419362441e-017 -1.0
  outer loop
    vertex -120.774339484872 79.2530398555583 120.184853448415
    vertex -120.906220447505 80.8098915081365 120.184853448415
    vertex -120.787031480557 80.6545614222466 120.184853448415
  endloop
endfacet
facet normal 2.35442532781236e-014 5.73149419362441e-017 -1.0
  outer loop
    vertex -120.774339484872 79.2530398555583 120.184853448415
    vertex -120.787031480557 80.6545614222466 120.184853448415
    vertex -120.631701394667 80.5353724552981 120.184853448415
  endloop
endfacet
facet normal 2.35442532781236e-014 5.73149419362441e-017 -1.0
  outer loop
    vertex -120.774339484872 79.2530398555583 120.184853448415
    vertex -120.631701394667 80.5353724552981 120.184853448415
    vertex -120.256701394667 79.1848915081365 120.184853448415
  endloop
endfacet
facet normal 2.35442532781236e-014 5.73149419362441e-017 -1.0
  outer loop
    vertex -120.256701394667 79.1848915081365 120.184853448415
    vertex -120.631701394667 80.5353724552981 120.184853448415
    vertex -120.450815678494 80.4604471384197 120.184853448415
  endloop
endfacet
facet normal 2.35442532781236e-014 5.73149419362441e-017 -1.0
  outer loop
    vertex -120.256701394667 79.1848915081365 120.184853448415
    vertex -120.450815678494 80.4604471384197 120.184853448415
    vertex -120.256701394667 80.4348915081365 120.184853448415
  endloop
endfacet
facet normal 2.35442532781236e-014 5.73149419362441e-017 -1.0
  outer loop
    vertex -120.256701394667 79.1848915081365 120.184853448415
    vertex -120.256701394667 80.4348915081365 120.184853448415
    vertex -120.06258711084 80.4604471384197 120.184853448415
  endloop
endfacet
facet normal 2.35442532781236e-014 5.73149419362441e-017 -1.0
  outer loop
    vertex -120.256701394667 79.1848915081365 120.184853448415
    vertex -120.06258711084 80.4604471384197 120.184853448415
    vertex -119.739063304462 79.2530398555583 120.184853448415
  endloop
endfacet
facet normal 2.35442532781236e-014 5.73149419362441e-017 -1.0
  outer loop
    vertex -119.739063304462 79.2530398555583 120.184853448415
    vertex -120.06258711084 80.4604471384197 120.184853448415
    vertex -119.881701394667 80.5353724552981 120.184853448415
  endloop
endfacet
facet normal 2.35442532781236e-014 5.73149419362441e-017 -1.0
  outer loop
    vertex -119.739063304462 79.2530398555583 120.184853448415
    vertex -119.881701394667 80.5353724552981 120.184853448415
    vertex -119.726371308777 80.6545614222466 120.184853448415
  endloop
endfacet
facet normal 2.35442532781236e-014 5.73149419362441e-017 -1.0
  outer loop
    vertex -119.739063304462 79.2530398555583 120.184853448415
    vertex -119.726371308777 80.6545614222466 120.184853448415
    vertex -119.256701394667 79.4528407005676 120.184853448415
  endloop
endfacet
facet normal 2.35442532781236e-014 5.73149419362441e-017 -1.0
  outer loop
    vertex -119.256701394667 79.4528407005676 120.184853448415
    vertex -119.726371308777 80.6545614222466 120.184853448415
    vertex -119.607182341829 80.8098915081365 120.184853448415
  endloop
endfacet
facet normal 2.35442532781236e-014 5.73149419362441e-017 -1.0
  outer loop
    vertex -119.256701394667 79.4528407005676 120.184853448415
    vertex -119.607182341829 80.8098915081365 120.184853448415
    vertex -119.53225702495 80.9907772243096 120.184853448415
  endloop
endfacet
facet normal 2.35442532781236e-014 5.73149419362441e-017 -1.0
  outer loop
    vertex -119.256701394667 79.4528407005676 120.184853448415
    vertex -119.53225702495 80.9907772243096 120.184853448415
    vertex -119.506701394667 81.1848915081365 120.184853448415
  endloop
endfacet
facet normal 2.35442532781236e-014 5.73149419362441e-017 -1.0
  outer loop
    vertex -119.256701394667 79.4528407005676 120.184853448415
    vertex -119.506701394667 81.1848915081365 120.184853448415
    vertex -119.256701394667 82.9169423157054 120.184853448415
  endloop
endfacet
facet normal 2.35442532781236e-014 5.73149419362441e-017 -1.0
  outer loop
    vertex -119.256701394667 79.4528407005676 120.184853448415
    vertex -119.256701394667 82.9169423157054 120.184853448415
    vertex -118.842487832294 82.5991050705096 120.184853448415
  endloop
endfacet
facet normal 2.35442532781236e-014 5.73149419362441e-017 -1.0
  outer loop
    vertex -119.256701394667 79.4528407005676 120.184853448415
    vertex -118.842487832294 82.5991050705096 120.184853448415
    vertex -118.842487832294 79.7706779457634 120.184853448415
  endloop
endfacet
facet normal 2.35442532781236e-014 5.73149419362441e-017 -1.0
  outer loop
    vertex -118.842487832294 79.7706779457634 120.184853448415
    vertex -118.842487832294 82.5991050705096 120.184853448415
    vertex -118.524650587098 82.1848915081365 120.184853448415
  endloop
endfacet
facet normal 2.35442532781236e-014 5.73149419362441e-017 -1.0
  outer loop
    vertex -118.842487832294 79.7706779457634 120.184853448415
    vertex -118.524650587098 82.1848915081365 120.184853448415
    vertex -118.524650587098 80.1848915081365 120.184853448415
  endloop
endfacet
facet normal 2.35442532781236e-014 5.73149419362441e-017 -1.0
  outer loop
    vertex -118.524650587098 80.1848915081365 120.184853448415
    vertex -118.524650587098 82.1848915081365 120.184853448415
    vertex -118.324849742089 81.7025295983415 120.184853448415
  endloop
endfacet
facet normal 2.35442532781236e-014 5.73149419362441e-017 -1.0
  outer loop
    vertex -118.524650587098 80.1848915081365 120.184853448415
    vertex -118.324849742089 81.7025295983415 120.184853448415
    vertex -118.324849742089 80.6672534179314 120.184853448415
  endloop
endfacet
facet normal 2.35442532781236e-014 5.73149419362441e-017 -1.0
  outer loop
    vertex -118.324849742089 80.6672534179314 120.184853448415
    vertex -118.324849742089 81.7025295983415 120.184853448415
    vertex -118.256701394667 81.1848915081365 120.184853448415
  endloop
endfacet
endsolid Omnidroid
