solid Omnidroid
facet normal 0.866025403785865 0.49999999999753 -4.6127465732852e-013
  outer loop
    vertex -70.8886877541401 -255.702488049687 -13.000000000064
    vertex -65.8886877541611 -264.362742087551 -12.0000000000639
    vertex -65.8886877541615 -264.362742087551 -13.0000000000639
  endloop
endfacet
facet normal 0.866025403785865 0.49999999999753 -4.6127465732852e-013
  outer loop
    vertex -65.8886877541611 -264.362742087551 -12.0000000000639
    vertex -70.8886877541401 -255.702488049687 -13.000000000064
    vertex -70.8886877541397 -255.702488049686 -12.000000000064
  endloop
endfacet
facet normal -0.866025403784008 0.500000000000747 2.33190425316977e-013
  outer loop
    vertex -75.8886877541611 -264.362742087551 -12.0000000000579
    vertex -70.8886877541401 -255.702488049687 -13.000000000064
    vertex -75.8886877541615 -264.362742087551 -13.0000000000579
  endloop
endfacet
facet normal -0.866025403784008 0.500000000000747 2.33190425316977e-013
  outer loop
    vertex -70.8886877541401 -255.702488049687 -13.000000000064
    vertex -75.8886877541611 -264.362742087551 -12.0000000000579
    vertex -70.8886877541397 -255.702488049686 -12.000000000064
  endloop
endfacet
facet normal 1.0 -1.09134451260862e-025 -4.00949602408367e-013
  outer loop
    vertex -65.8886877541615 -264.362742087551 -13.0000000000639
    vertex -65.8886877541611 -295.475990741669 -12.0000000000554
    vertex -65.8886877541615 -295.475990741669 -13.0000000000554
  endloop
endfacet
facet normal 1.0 -1.09134451260862e-025 -4.00949602408367e-013
  outer loop
    vertex -65.8886877541611 -295.475990741669 -12.0000000000554
    vertex -65.8886877541615 -264.362742087551 -13.0000000000639
    vertex -65.8886877541611 -264.362742087551 -12.0000000000639
  endloop
endfacet
facet normal 4.69600656580164e-026 -1.0 2.28084232011191e-013
  outer loop
    vertex -65.8886877541611 -295.475990741669 -12.0000000000554
    vertex -75.8886877541615 -295.475990741669 -13.0000000000533
    vertex -65.8886877541615 -295.475990741669 -13.0000000000554
  endloop
endfacet
facet normal 4.69600656580164e-026 -1.0 2.28084232011191e-013
  outer loop
    vertex -75.8886877541615 -295.475990741669 -13.0000000000533
    vertex -65.8886877541611 -295.475990741669 -12.0000000000554
    vertex -75.8886877541611 -295.475990741669 -12.0000000000533
  endloop
endfacet
facet normal -1.0 6.04259465851353e-026 4.00949602408367e-013
  outer loop
    vertex -75.8886877541611 -295.475990741669 -12.0000000000533
    vertex -75.8886877541615 -264.362742087551 -13.0000000000579
    vertex -75.8886877541615 -295.475990741669 -13.0000000000533
  endloop
endfacet
facet normal -1.0 6.04259465851353e-026 4.00949602408367e-013
  outer loop
    vertex -75.8886877541615 -264.362742087551 -13.0000000000579
    vertex -75.8886877541611 -295.475990741669 -12.0000000000533
    vertex -75.8886877541611 -264.362742087551 -12.0000000000579
  endloop
endfacet
facet normal 4.00805220124458e-013 2.28133429578865e-013 1.0
  outer loop
    vertex -65.8886877541611 -295.475990741669 -12.0000000000554
    vertex -75.8886877541611 -264.362742087551 -12.0000000000579
    vertex -75.8886877541611 -295.475990741669 -12.0000000000533
  endloop
endfacet
facet normal 4.00805220124458e-013 2.28133429578865e-013 1.0
  outer loop
    vertex -75.8886877541611 -264.362742087551 -12.0000000000579
    vertex -65.8886877541611 -295.475990741669 -12.0000000000554
    vertex -70.8886877541397 -255.702488049686 -12.000000000064
  endloop
endfacet
facet normal 4.00805220124458e-013 2.28133429578865e-013 1.0
  outer loop
    vertex -70.8886877541397 -255.702488049686 -12.000000000064
    vertex -65.8886877541611 -295.475990741669 -12.0000000000554
    vertex -65.8886877541611 -264.362742087551 -12.0000000000639
  endloop
endfacet
facet normal -4.00949602408367e-013 -2.28131367123733e-013 -1.0
  outer loop
    vertex -70.8886877541401 -255.702488049687 -13.000000000064
    vertex -75.8886877541615 -295.475990741669 -13.0000000000533
    vertex -75.8886877541615 -264.362742087551 -13.0000000000579
  endloop
endfacet
facet normal -4.00949602408367e-013 -2.28131367123733e-013 -1.0
  outer loop
    vertex -75.8886877541615 -295.475990741669 -13.0000000000533
    vertex -70.8886877541401 -255.702488049687 -13.000000000064
    vertex -65.8886877541615 -295.475990741669 -13.0000000000554
  endloop
endfacet
facet normal -4.00949602408367e-013 -2.28131367123733e-013 -1.0
  outer loop
    vertex -65.8886877541615 -295.475990741669 -13.0000000000554
    vertex -70.8886877541401 -255.702488049687 -13.000000000064
    vertex -65.8886877541615 -264.362742087551 -13.0000000000639
  endloop
endfacet
endsolid Omnidroid
