solid Omnidroid
facet normal 0.130526192220092 0.991444861373805 0.0
  outer loop
    vertex -70.8886877541189 -216.475990741575 1.99999999999993
    vertex -69.5945925286062 -216.64636161013 -6.93034962750971e-014
    vertex -70.8886877541189 -216.475990741575 -6.93034962750971e-014
  endloop
endfacet
facet normal 0.130526192220092 0.991444861373805 0.0
  outer loop
    vertex -69.5945925286062 -216.64636161013 -6.93034962750971e-014
    vertex -70.8886877541189 -216.475990741575 1.99999999999993
    vertex -69.5945925286062 -216.64636161013 1.99999999999993
  endloop
endfacet
facet normal -0.991444861373814 -0.130526192220029 -0.0
  outer loop
    vertex -69.198317558113 -221.023057412646 1.99999999999993
    vertex -69.1386877541189 -221.475990741575 -6.93034962750971e-014
    vertex -69.1386877541189 -221.475990741575 1.99999999999993
  endloop
endfacet
facet normal -0.991444861373814 -0.130526192220029 -0.0
  outer loop
    vertex -69.1386877541189 -221.475990741575 -6.93034962750971e-014
    vertex -69.198317558113 -221.023057412646 1.99999999999993
    vertex -69.198317558113 -221.023057412646 -6.93034962750971e-014
  endloop
endfacet
facet normal -0.99144486137381 0.130526192220055 0.0
  outer loop
    vertex -75.7183168855642 -220.181895516063 1.99999999999993
    vertex -75.8886877541188 -221.475990741575 -6.93034962750971e-014
    vertex -75.8886877541188 -221.475990741575 1.99999999999993
  endloop
endfacet
facet normal -0.99144486137381 0.130526192220055 0.0
  outer loop
    vertex -75.8886877541188 -221.475990741575 -6.93034962750971e-014
    vertex -75.7183168855642 -220.181895516063 1.99999999999993
    vertex -75.7183168855642 -220.181895516063 -6.93034962750971e-014
  endloop
endfacet
facet normal 0.608761429008711 -0.793353340291243 0.0
  outer loop
    vertex -67.3531538481862 -225.011524647508 1.99999999999993
    vertex -68.3886877541189 -225.806117760497 -6.93034962750971e-014
    vertex -67.3531538481862 -225.011524647508 -6.93034962750971e-014
  endloop
endfacet
facet normal 0.608761429008711 -0.793353340291243 0.0
  outer loop
    vertex -68.3886877541189 -225.806117760497 -6.93034962750971e-014
    vertex -67.3531538481862 -225.011524647508 1.99999999999993
    vertex -68.3886877541189 -225.806117760497 1.99999999999993
  endloop
endfacet
facet normal 0.99144486137381 -0.130526192220055 0.0
  outer loop
    vertex -65.8886877541189 -221.475990741575 -6.93034962750971e-014
    vertex -66.0590586226735 -222.770085967088 1.99999999999993
    vertex -66.0590586226735 -222.770085967088 -6.93034962750971e-014
  endloop
endfacet
facet normal 0.99144486137381 -0.130526192220055 0.0
  outer loop
    vertex -66.0590586226735 -222.770085967088 1.99999999999993
    vertex -65.8886877541189 -221.475990741575 -6.93034962750971e-014
    vertex -65.8886877541189 -221.475990741575 1.99999999999993
  endloop
endfacet
facet normal -0.130526192220057 -0.99144486137381 -0.0
  outer loop
    vertex -70.8886877541189 -226.475990741575 1.99999999999993
    vertex -72.1827829796315 -226.305619873021 -6.93034962750971e-014
    vertex -70.8886877541189 -226.475990741575 -6.93034962750971e-014
  endloop
endfacet
facet normal -0.130526192220057 -0.99144486137381 -0.0
  outer loop
    vertex -72.1827829796315 -226.305619873021 -6.93034962750971e-014
    vertex -70.8886877541189 -226.475990741575 1.99999999999993
    vertex -72.1827829796315 -226.305619873021 1.99999999999993
  endloop
endfacet
facet normal -0.923879532511283 -0.3826834323651 -0.0
  outer loop
    vertex -75.7183168855642 -222.770085967088 1.99999999999993
    vertex -75.218814773041 -223.975990741575 -6.93034962750971e-014
    vertex -75.218814773041 -223.975990741575 1.99999999999993
  endloop
endfacet
facet normal -0.923879532511283 -0.3826834323651 -0.0
  outer loop
    vertex -75.218814773041 -223.975990741575 -6.93034962750971e-014
    vertex -75.7183168855642 -222.770085967088 1.99999999999993
    vertex -75.7183168855642 -222.770085967088 -6.93034962750971e-014
  endloop
endfacet
facet normal 0.130526192220085 -0.991444861373806 0.0
  outer loop
    vertex -70.8886877541189 -219.725990741575 1.99999999999993
    vertex -71.3416210830483 -219.785620545569 -6.93034962750971e-014
    vertex -70.8886877541189 -219.725990741575 -6.93034962750971e-014
  endloop
endfacet
facet normal 0.130526192220085 -0.991444861373806 0.0
  outer loop
    vertex -71.3416210830483 -219.785620545569 -6.93034962750971e-014
    vertex -70.8886877541189 -219.725990741575 1.99999999999993
    vertex -71.3416210830483 -219.785620545569 1.99999999999993
  endloop
endfacet
facet normal 0.991444861373814 0.130526192220029 0.0
  outer loop
    vertex -72.6386877541188 -221.475990741575 -6.93034962750971e-014
    vertex -72.5790579501247 -221.928924070505 1.99999999999993
    vertex -72.5790579501247 -221.928924070505 -6.93034962750971e-014
  endloop
endfacet
facet normal 0.991444861373814 0.130526192220029 0.0
  outer loop
    vertex -72.5790579501247 -221.928924070505 1.99999999999993
    vertex -72.6386877541188 -221.475990741575 -6.93034962750971e-014
    vertex -72.6386877541188 -221.475990741575 1.99999999999993
  endloop
endfacet
facet normal 0.991444861373814 -0.130526192220029 0.0
  outer loop
    vertex -72.5790579501247 -221.023057412646 -6.93034962750971e-014
    vertex -72.6386877541188 -221.475990741575 1.99999999999993
    vertex -72.6386877541188 -221.475990741575 -6.93034962750971e-014
  endloop
endfacet
facet normal 0.991444861373814 -0.130526192220029 0.0
  outer loop
    vertex -72.6386877541188 -221.475990741575 1.99999999999993
    vertex -72.5790579501247 -221.023057412646 -6.93034962750971e-014
    vertex -72.5790579501247 -221.023057412646 1.99999999999993
  endloop
endfacet
facet normal -0.130526192220085 0.991444861373806 0.0
  outer loop
    vertex -70.8886877541189 -223.225990741575 1.99999999999993
    vertex -70.4357544251894 -223.166360937581 -6.93034962750971e-014
    vertex -70.8886877541189 -223.225990741575 -6.93034962750971e-014
  endloop
endfacet
facet normal -0.130526192220085 0.991444861373806 0.0
  outer loop
    vertex -70.4357544251894 -223.166360937581 -6.93034962750971e-014
    vertex -70.8886877541189 -223.225990741575 1.99999999999993
    vertex -70.4357544251894 -223.166360937581 1.99999999999993
  endloop
endfacet
facet normal -0.793353340291238 -0.608761429008717 -0.0
  outer loop
    vertex -69.6512508870424 -220.238553874499 1.99999999999993
    vertex -69.3731432974961 -220.600990741575 -6.93034962750971e-014
    vertex -69.3731432974961 -220.600990741575 1.99999999999993
  endloop
endfacet
facet normal -0.793353340291238 -0.608761429008717 -0.0
  outer loop
    vertex -69.3731432974961 -220.600990741575 -6.93034962750971e-014
    vertex -69.6512508870424 -220.238553874499 1.99999999999993
    vertex -69.6512508870424 -220.238553874499 -6.93034962750971e-014
  endloop
endfacet
facet normal -0.608761429008711 0.793353340291243 0.0
  outer loop
    vertex -74.4242216600515 -217.940456835643 1.99999999999993
    vertex -73.3886877541188 -217.145863722653 -6.93034962750971e-014
    vertex -74.4242216600515 -217.940456835643 -6.93034962750971e-014
  endloop
endfacet
facet normal -0.608761429008711 0.793353340291243 0.0
  outer loop
    vertex -73.3886877541188 -217.145863722653 -6.93034962750971e-014
    vertex -74.4242216600515 -217.940456835643 1.99999999999993
    vertex -73.3886877541188 -217.145863722653 1.99999999999993
  endloop
endfacet
facet normal 0.382683432365087 0.923879532511288 0.0
  outer loop
    vertex -69.5945925286062 -216.64636161013 1.99999999999993
    vertex -68.3886877541189 -217.145863722653 -6.93034962750971e-014
    vertex -69.5945925286062 -216.64636161013 -6.93034962750971e-014
  endloop
endfacet
facet normal 0.382683432365087 0.923879532511288 0.0
  outer loop
    vertex -68.3886877541189 -217.145863722653 -6.93034962750971e-014
    vertex -69.5945925286062 -216.64636161013 1.99999999999993
    vertex -68.3886877541189 -217.145863722653 1.99999999999993
  endloop
endfacet
facet normal 0.923879532511288 -0.382683432365087 0.0
  outer loop
    vertex -66.0590586226735 -222.770085967088 -6.93034962750971e-014
    vertex -66.5585607351967 -223.975990741575 1.99999999999993
    vertex -66.5585607351967 -223.975990741575 -6.93034962750971e-014
  endloop
endfacet
facet normal 0.923879532511288 -0.382683432365087 0.0
  outer loop
    vertex -66.5585607351967 -223.975990741575 1.99999999999993
    vertex -66.0590586226735 -222.770085967088 -6.93034962750971e-014
    vertex -66.0590586226735 -222.770085967088 1.99999999999993
  endloop
endfacet
facet normal -0.793353340291247 -0.608761429008705 -0.0
  outer loop
    vertex -75.218814773041 -223.975990741575 1.99999999999993
    vertex -74.4242216600515 -225.011524647508 -6.93034962750971e-014
    vertex -74.4242216600515 -225.011524647508 1.99999999999993
  endloop
endfacet
facet normal -0.793353340291247 -0.608761429008705 -0.0
  outer loop
    vertex -74.4242216600515 -225.011524647508 -6.93034962750971e-014
    vertex -75.218814773041 -223.975990741575 1.99999999999993
    vertex -75.218814773041 -223.975990741575 -6.93034962750971e-014
  endloop
endfacet
facet normal -0.130526192220085 -0.991444861373806 -0.0
  outer loop
    vertex -70.4357544251894 -219.785620545569 1.99999999999993
    vertex -70.8886877541189 -219.725990741575 -6.93034962750971e-014
    vertex -70.4357544251894 -219.785620545569 -6.93034962750971e-014
  endloop
endfacet
facet normal -0.130526192220085 -0.991444861373806 -0.0
  outer loop
    vertex -70.8886877541189 -219.725990741575 -6.93034962750971e-014
    vertex -70.4357544251894 -219.785620545569 1.99999999999993
    vertex -70.8886877541189 -219.725990741575 1.99999999999993
  endloop
endfacet
facet normal -0.382683432365087 0.923879532511288 0.0
  outer loop
    vertex -73.3886877541188 -217.145863722653 1.99999999999993
    vertex -72.1827829796315 -216.64636161013 -6.93034962750971e-014
    vertex -73.3886877541188 -217.145863722653 -6.93034962750971e-014
  endloop
endfacet
facet normal -0.382683432365087 0.923879532511288 0.0
  outer loop
    vertex -72.1827829796315 -216.64636161013 -6.93034962750971e-014
    vertex -73.3886877541188 -217.145863722653 1.99999999999993
    vertex -72.1827829796315 -216.64636161013 1.99999999999993
  endloop
endfacet
facet normal -0.923879532511288 0.382683432365087 0.0
  outer loop
    vertex -75.218814773041 -218.975990741575 1.99999999999993
    vertex -75.7183168855642 -220.181895516063 -6.93034962750971e-014
    vertex -75.7183168855642 -220.181895516063 1.99999999999993
  endloop
endfacet
facet normal -0.923879532511288 0.382683432365087 0.0
  outer loop
    vertex -75.7183168855642 -220.181895516063 -6.93034962750971e-014
    vertex -75.218814773041 -218.975990741575 1.99999999999993
    vertex -75.218814773041 -218.975990741575 -6.93034962750971e-014
  endloop
endfacet
facet normal -0.382683432365087 -0.923879532511288 -0.0
  outer loop
    vertex -72.1827829796315 -226.305619873021 1.99999999999993
    vertex -73.3886877541188 -225.806117760497 -6.93034962750971e-014
    vertex -72.1827829796315 -226.305619873021 -6.93034962750971e-014
  endloop
endfacet
facet normal -0.382683432365087 -0.923879532511288 -0.0
  outer loop
    vertex -73.3886877541188 -225.806117760497 -6.93034962750971e-014
    vertex -72.1827829796315 -226.305619873021 1.99999999999993
    vertex -73.3886877541188 -225.806117760497 1.99999999999993
  endloop
endfacet
facet normal -0.793353340291234 0.608761429008722 0.0
  outer loop
    vertex -74.4242216600515 -217.940456835643 1.99999999999993
    vertex -75.218814773041 -218.975990741575 -6.93034962750971e-014
    vertex -75.218814773041 -218.975990741575 1.99999999999993
  endloop
endfacet
facet normal -0.793353340291234 0.608761429008722 0.0
  outer loop
    vertex -75.218814773041 -218.975990741575 -6.93034962750971e-014
    vertex -74.4242216600515 -217.940456835643 1.99999999999993
    vertex -74.4242216600515 -217.940456835643 -6.93034962750971e-014
  endloop
endfacet
facet normal 0.99144486137381 0.130526192220055 0.0
  outer loop
    vertex -66.0590586226735 -220.181895516063 -6.93034962750971e-014
    vertex -65.8886877541189 -221.475990741575 1.99999999999993
    vertex -65.8886877541189 -221.475990741575 -6.93034962750971e-014
  endloop
endfacet
facet normal 0.99144486137381 0.130526192220055 0.0
  outer loop
    vertex -65.8886877541189 -221.475990741575 1.99999999999993
    vertex -66.0590586226735 -220.181895516063 -6.93034962750971e-014
    vertex -66.0590586226735 -220.181895516063 1.99999999999993
  endloop
endfacet
facet normal -0.608761429008677 -0.793353340291268 -0.0
  outer loop
    vertex -69.6512508870424 -220.238553874499 1.99999999999993
    vertex -70.0136877541189 -219.960446284953 -6.93034962750971e-014
    vertex -69.6512508870424 -220.238553874499 -6.93034962750971e-014
  endloop
endfacet
facet normal -0.608761429008677 -0.793353340291268 -0.0
  outer loop
    vertex -70.0136877541189 -219.960446284953 -6.93034962750971e-014
    vertex -69.6512508870424 -220.238553874499 1.99999999999993
    vertex -70.0136877541189 -219.960446284953 1.99999999999993
  endloop
endfacet
facet normal -0.608761429008711 -0.793353340291243 -0.0
  outer loop
    vertex -73.3886877541188 -225.806117760497 1.99999999999993
    vertex -74.4242216600515 -225.011524647508 -6.93034962750971e-014
    vertex -73.3886877541188 -225.806117760497 -6.93034962750971e-014
  endloop
endfacet
facet normal -0.608761429008711 -0.793353340291243 -0.0
  outer loop
    vertex -74.4242216600515 -225.011524647508 -6.93034962750971e-014
    vertex -73.3886877541188 -225.806117760497 1.99999999999993
    vertex -74.4242216600515 -225.011524647508 1.99999999999993
  endloop
endfacet
facet normal 0.793353340291234 -0.608761429008722 0.0
  outer loop
    vertex -66.5585607351967 -223.975990741575 -6.93034962750971e-014
    vertex -67.3531538481862 -225.011524647508 1.99999999999993
    vertex -67.3531538481862 -225.011524647508 -6.93034962750971e-014
  endloop
endfacet
facet normal 0.793353340291234 -0.608761429008722 0.0
  outer loop
    vertex -67.3531538481862 -225.011524647508 1.99999999999993
    vertex -66.5585607351967 -223.975990741575 -6.93034962750971e-014
    vertex -66.5585607351967 -223.975990741575 1.99999999999993
  endloop
endfacet
facet normal -0.991444861373814 0.130526192220029 0.0
  outer loop
    vertex -69.1386877541189 -221.475990741575 1.99999999999993
    vertex -69.198317558113 -221.928924070505 -6.93034962750971e-014
    vertex -69.198317558113 -221.928924070505 1.99999999999993
  endloop
endfacet
facet normal -0.991444861373814 0.130526192220029 0.0
  outer loop
    vertex -69.198317558113 -221.928924070505 -6.93034962750971e-014
    vertex -69.1386877541189 -221.475990741575 1.99999999999993
    vertex -69.1386877541189 -221.475990741575 -6.93034962750971e-014
  endloop
endfacet
facet normal -0.130526192220092 0.991444861373805 0.0
  outer loop
    vertex -72.1827829796315 -216.64636161013 1.99999999999993
    vertex -70.8886877541189 -216.475990741575 -6.93034962750971e-014
    vertex -72.1827829796315 -216.64636161013 -6.93034962750971e-014
  endloop
endfacet
facet normal -0.130526192220092 0.991444861373805 0.0
  outer loop
    vertex -70.8886877541189 -216.475990741575 -6.93034962750971e-014
    vertex -72.1827829796315 -216.64636161013 1.99999999999993
    vertex -70.8886877541189 -216.475990741575 1.99999999999993
  endloop
endfacet
facet normal -0.382683432365086 -0.923879532511288 -0.0
  outer loop
    vertex -70.0136877541189 -219.960446284953 1.99999999999993
    vertex -70.4357544251894 -219.785620545569 -6.93034962750971e-014
    vertex -70.0136877541189 -219.960446284953 -6.93034962750971e-014
  endloop
endfacet
facet normal -0.382683432365086 -0.923879532511288 -0.0
  outer loop
    vertex -70.4357544251894 -219.785620545569 -6.93034962750971e-014
    vertex -70.0136877541189 -219.960446284953 1.99999999999993
    vertex -70.4357544251894 -219.785620545569 1.99999999999993
  endloop
endfacet
facet normal 0.608761429008711 0.793353340291243 0.0
  outer loop
    vertex -68.3886877541189 -217.145863722653 1.99999999999993
    vertex -67.3531538481862 -217.940456835643 -6.93034962750971e-014
    vertex -68.3886877541189 -217.145863722653 -6.93034962750971e-014
  endloop
endfacet
facet normal 0.608761429008711 0.793353340291243 0.0
  outer loop
    vertex -67.3531538481862 -217.940456835643 -6.93034962750971e-014
    vertex -68.3886877541189 -217.145863722653 1.99999999999993
    vertex -67.3531538481862 -217.940456835643 1.99999999999993
  endloop
endfacet
facet normal -0.923879532511281 -0.382683432365104 -0.0
  outer loop
    vertex -69.3731432974961 -220.600990741575 1.99999999999993
    vertex -69.198317558113 -221.023057412646 -6.93034962750971e-014
    vertex -69.198317558113 -221.023057412646 1.99999999999993
  endloop
endfacet
facet normal -0.923879532511281 -0.382683432365104 -0.0
  outer loop
    vertex -69.198317558113 -221.023057412646 -6.93034962750971e-014
    vertex -69.3731432974961 -220.600990741575 1.99999999999993
    vertex -69.3731432974961 -220.600990741575 -6.93034962750971e-014
  endloop
endfacet
facet normal -0.923879532511281 0.382683432365104 0.0
  outer loop
    vertex -69.198317558113 -221.928924070505 1.99999999999993
    vertex -69.3731432974961 -222.350990741575 -6.93034962750971e-014
    vertex -69.3731432974961 -222.350990741575 1.99999999999993
  endloop
endfacet
facet normal -0.923879532511281 0.382683432365104 0.0
  outer loop
    vertex -69.3731432974961 -222.350990741575 -6.93034962750971e-014
    vertex -69.198317558113 -221.928924070505 1.99999999999993
    vertex -69.198317558113 -221.928924070505 -6.93034962750971e-014
  endloop
endfacet
facet normal -0.99144486137381 -0.130526192220055 -0.0
  outer loop
    vertex -75.8886877541188 -221.475990741575 1.99999999999993
    vertex -75.7183168855642 -222.770085967088 -6.93034962750971e-014
    vertex -75.7183168855642 -222.770085967088 1.99999999999993
  endloop
endfacet
facet normal -0.99144486137381 -0.130526192220055 -0.0
  outer loop
    vertex -75.7183168855642 -222.770085967088 -6.93034962750971e-014
    vertex -75.8886877541188 -221.475990741575 1.99999999999993
    vertex -75.8886877541188 -221.475990741575 -6.93034962750971e-014
  endloop
endfacet
facet normal -0.382683432365086 0.923879532511288 0.0
  outer loop
    vertex -70.4357544251894 -223.166360937581 1.99999999999993
    vertex -70.0136877541189 -222.991535198198 -6.93034962750971e-014
    vertex -70.4357544251894 -223.166360937581 -6.93034962750971e-014
  endloop
endfacet
facet normal -0.382683432365086 0.923879532511288 0.0
  outer loop
    vertex -70.0136877541189 -222.991535198198 -6.93034962750971e-014
    vertex -70.4357544251894 -223.166360937581 1.99999999999993
    vertex -70.0136877541189 -222.991535198198 1.99999999999993
  endloop
endfacet
facet normal 0.382683432365087 -0.923879532511288 0.0
  outer loop
    vertex -68.3886877541189 -225.806117760497 1.99999999999993
    vertex -69.5945925286062 -226.305619873021 -6.93034962750971e-014
    vertex -68.3886877541189 -225.806117760497 -6.93034962750971e-014
  endloop
endfacet
facet normal 0.382683432365087 -0.923879532511288 0.0
  outer loop
    vertex -69.5945925286062 -226.305619873021 -6.93034962750971e-014
    vertex -68.3886877541189 -225.806117760497 1.99999999999993
    vertex -69.5945925286062 -226.305619873021 1.99999999999993
  endloop
endfacet
facet normal 0.0 0.0 -1.0
  outer loop
    vertex -75.7183168855642 -220.181895516063 -6.93034962750971e-014
    vertex -75.7183168855642 -222.770085967088 -6.93034962750971e-014
    vertex -75.8886877541188 -221.475990741575 -6.93034962750971e-014
  endloop
endfacet
facet normal 0.0 0.0 -1.0
  outer loop
    vertex -75.7183168855642 -222.770085967088 -6.93034962750971e-014
    vertex -75.7183168855642 -220.181895516063 -6.93034962750971e-014
    vertex -75.218814773041 -218.975990741575 -6.93034962750971e-014
  endloop
endfacet
facet normal 0.0 0.0 -1.0
  outer loop
    vertex -75.7183168855642 -222.770085967088 -6.93034962750971e-014
    vertex -75.218814773041 -218.975990741575 -6.93034962750971e-014
    vertex -75.218814773041 -223.975990741575 -6.93034962750971e-014
  endloop
endfacet
facet normal 0.0 0.0 -1.0
  outer loop
    vertex -75.218814773041 -223.975990741575 -6.93034962750971e-014
    vertex -75.218814773041 -218.975990741575 -6.93034962750971e-014
    vertex -74.4242216600515 -217.940456835643 -6.93034962750971e-014
  endloop
endfacet
facet normal 0.0 0.0 -1.0
  outer loop
    vertex -75.218814773041 -223.975990741575 -6.93034962750971e-014
    vertex -74.4242216600515 -217.940456835643 -6.93034962750971e-014
    vertex -74.4242216600515 -225.011524647508 -6.93034962750971e-014
  endloop
endfacet
facet normal 0.0 0.0 -1.0
  outer loop
    vertex -74.4242216600515 -225.011524647508 -6.93034962750971e-014
    vertex -74.4242216600515 -217.940456835643 -6.93034962750971e-014
    vertex -73.3886877541188 -217.145863722653 -6.93034962750971e-014
  endloop
endfacet
facet normal 0.0 0.0 -1.0
  outer loop
    vertex -74.4242216600515 -225.011524647508 -6.93034962750971e-014
    vertex -73.3886877541188 -217.145863722653 -6.93034962750971e-014
    vertex -73.3886877541188 -225.806117760497 -6.93034962750971e-014
  endloop
endfacet
facet normal 0.0 0.0 -1.0
  outer loop
    vertex -73.3886877541188 -225.806117760497 -6.93034962750971e-014
    vertex -73.3886877541188 -217.145863722653 -6.93034962750971e-014
    vertex -72.1827829796315 -216.64636161013 -6.93034962750971e-014
  endloop
endfacet
facet normal 0.0 0.0 -1.0
  outer loop
    vertex -73.3886877541188 -225.806117760497 -6.93034962750971e-014
    vertex -72.1827829796315 -216.64636161013 -6.93034962750971e-014
    vertex -72.6386877541188 -221.475990741575 -6.93034962750971e-014
  endloop
endfacet
facet normal 0.0 0.0 -1.0
  outer loop
    vertex -72.6386877541188 -221.475990741575 -6.93034962750971e-014
    vertex -72.1827829796315 -216.64636161013 -6.93034962750971e-014
    vertex -72.5790579501247 -221.023057412646 -6.93034962750971e-014
  endloop
endfacet
facet normal 0.0 0.0 -1.0
  outer loop
    vertex -72.5790579501247 -221.023057412646 -6.93034962750971e-014
    vertex -72.1827829796315 -216.64636161013 -6.93034962750971e-014
    vertex -72.4042322107416 -220.600990741575 -6.93034962750971e-014
  endloop
endfacet
facet normal 0.0 0.0 -1.0
  outer loop
    vertex -72.4042322107416 -220.600990741575 -6.93034962750971e-014
    vertex -72.1827829796315 -216.64636161013 -6.93034962750971e-014
    vertex -72.1261246211953 -220.238553874499 -6.93034962750971e-014
  endloop
endfacet
facet normal 0.0 0.0 -1.0
  outer loop
    vertex -72.1261246211953 -220.238553874499 -6.93034962750971e-014
    vertex -72.1827829796315 -216.64636161013 -6.93034962750971e-014
    vertex -70.8886877541189 -216.475990741575 -6.93034962750971e-014
  endloop
endfacet
facet normal 0.0 0.0 -1.0
  outer loop
    vertex -72.1261246211953 -220.238553874499 -6.93034962750971e-014
    vertex -70.8886877541189 -216.475990741575 -6.93034962750971e-014
    vertex -71.7636877541188 -219.960446284953 -6.93034962750971e-014
  endloop
endfacet
facet normal 0.0 0.0 -1.0
  outer loop
    vertex -71.7636877541188 -219.960446284953 -6.93034962750971e-014
    vertex -70.8886877541189 -216.475990741575 -6.93034962750971e-014
    vertex -71.3416210830483 -219.785620545569 -6.93034962750971e-014
  endloop
endfacet
facet normal 0.0 0.0 -1.0
  outer loop
    vertex -71.3416210830483 -219.785620545569 -6.93034962750971e-014
    vertex -70.8886877541189 -216.475990741575 -6.93034962750971e-014
    vertex -70.8886877541189 -219.725990741575 -6.93034962750971e-014
  endloop
endfacet
facet normal 0.0 0.0 -1.0
  outer loop
    vertex -70.8886877541189 -219.725990741575 -6.93034962750971e-014
    vertex -70.8886877541189 -216.475990741575 -6.93034962750971e-014
    vertex -69.5945925286062 -216.64636161013 -6.93034962750971e-014
  endloop
endfacet
facet normal 0.0 0.0 -1.0
  outer loop
    vertex -70.8886877541189 -219.725990741575 -6.93034962750971e-014
    vertex -69.5945925286062 -216.64636161013 -6.93034962750971e-014
    vertex -70.4357544251894 -219.785620545569 -6.93034962750971e-014
  endloop
endfacet
facet normal 0.0 0.0 -1.0
  outer loop
    vertex -70.4357544251894 -219.785620545569 -6.93034962750971e-014
    vertex -69.5945925286062 -216.64636161013 -6.93034962750971e-014
    vertex -70.0136877541189 -219.960446284953 -6.93034962750971e-014
  endloop
endfacet
facet normal 0.0 0.0 -1.0
  outer loop
    vertex -70.0136877541189 -219.960446284953 -6.93034962750971e-014
    vertex -69.5945925286062 -216.64636161013 -6.93034962750971e-014
    vertex -69.6512508870424 -220.238553874499 -6.93034962750971e-014
  endloop
endfacet
facet normal 0.0 0.0 -1.0
  outer loop
    vertex -69.6512508870424 -220.238553874499 -6.93034962750971e-014
    vertex -69.5945925286062 -216.64636161013 -6.93034962750971e-014
    vertex -69.3731432974961 -220.600990741575 -6.93034962750971e-014
  endloop
endfacet
facet normal 0.0 0.0 -1.0
  outer loop
    vertex -69.3731432974961 -220.600990741575 -6.93034962750971e-014
    vertex -69.5945925286062 -216.64636161013 -6.93034962750971e-014
    vertex -68.3886877541189 -217.145863722653 -6.93034962750971e-014
  endloop
endfacet
facet normal 0.0 0.0 -1.0
  outer loop
    vertex -69.3731432974961 -220.600990741575 -6.93034962750971e-014
    vertex -68.3886877541189 -217.145863722653 -6.93034962750971e-014
    vertex -69.198317558113 -221.023057412646 -6.93034962750971e-014
  endloop
endfacet
facet normal 0.0 0.0 -1.0
  outer loop
    vertex -69.198317558113 -221.023057412646 -6.93034962750971e-014
    vertex -68.3886877541189 -217.145863722653 -6.93034962750971e-014
    vertex -69.1386877541189 -221.475990741575 -6.93034962750971e-014
  endloop
endfacet
facet normal 0.0 0.0 -1.0
  outer loop
    vertex -72.6386877541188 -221.475990741575 -6.93034962750971e-014
    vertex -72.1827829796315 -226.305619873021 -6.93034962750971e-014
    vertex -73.3886877541188 -225.806117760497 -6.93034962750971e-014
  endloop
endfacet
facet normal 0.0 0.0 -1.0
  outer loop
    vertex -72.1827829796315 -226.305619873021 -6.93034962750971e-014
    vertex -72.6386877541188 -221.475990741575 -6.93034962750971e-014
    vertex -72.5790579501247 -221.928924070505 -6.93034962750971e-014
  endloop
endfacet
facet normal 0.0 0.0 -1.0
  outer loop
    vertex -72.1827829796315 -226.305619873021 -6.93034962750971e-014
    vertex -72.5790579501247 -221.928924070505 -6.93034962750971e-014
    vertex -72.4042322107416 -222.350990741575 -6.93034962750971e-014
  endloop
endfacet
facet normal 0.0 0.0 -1.0
  outer loop
    vertex -72.1827829796315 -226.305619873021 -6.93034962750971e-014
    vertex -72.4042322107416 -222.350990741575 -6.93034962750971e-014
    vertex -72.1261246211953 -222.713427608652 -6.93034962750971e-014
  endloop
endfacet
facet normal 0.0 0.0 -1.0
  outer loop
    vertex -72.1827829796315 -226.305619873021 -6.93034962750971e-014
    vertex -72.1261246211953 -222.713427608652 -6.93034962750971e-014
    vertex -70.8886877541189 -226.475990741575 -6.93034962750971e-014
  endloop
endfacet
facet normal 0.0 0.0 -1.0
  outer loop
    vertex -70.8886877541189 -226.475990741575 -6.93034962750971e-014
    vertex -72.1261246211953 -222.713427608652 -6.93034962750971e-014
    vertex -71.7636877541188 -222.991535198198 -6.93034962750971e-014
  endloop
endfacet
facet normal 0.0 0.0 -1.0
  outer loop
    vertex -70.8886877541189 -226.475990741575 -6.93034962750971e-014
    vertex -71.7636877541188 -222.991535198198 -6.93034962750971e-014
    vertex -71.3416210830483 -223.166360937581 -6.93034962750971e-014
  endloop
endfacet
facet normal 0.0 0.0 -1.0
  outer loop
    vertex -70.8886877541189 -226.475990741575 -6.93034962750971e-014
    vertex -71.3416210830483 -223.166360937581 -6.93034962750971e-014
    vertex -70.8886877541189 -223.225990741575 -6.93034962750971e-014
  endloop
endfacet
facet normal 0.0 0.0 -1.0
  outer loop
    vertex -70.8886877541189 -226.475990741575 -6.93034962750971e-014
    vertex -70.8886877541189 -223.225990741575 -6.93034962750971e-014
    vertex -70.4357544251894 -223.166360937581 -6.93034962750971e-014
  endloop
endfacet
facet normal 0.0 0.0 -1.0
  outer loop
    vertex -70.8886877541189 -226.475990741575 -6.93034962750971e-014
    vertex -70.4357544251894 -223.166360937581 -6.93034962750971e-014
    vertex -69.5945925286062 -226.305619873021 -6.93034962750971e-014
  endloop
endfacet
facet normal 0.0 0.0 -1.0
  outer loop
    vertex -69.5945925286062 -226.305619873021 -6.93034962750971e-014
    vertex -70.4357544251894 -223.166360937581 -6.93034962750971e-014
    vertex -70.0136877541189 -222.991535198198 -6.93034962750971e-014
  endloop
endfacet
facet normal 0.0 0.0 -1.0
  outer loop
    vertex -69.5945925286062 -226.305619873021 -6.93034962750971e-014
    vertex -70.0136877541189 -222.991535198198 -6.93034962750971e-014
    vertex -69.6512508870424 -222.713427608652 -6.93034962750971e-014
  endloop
endfacet
facet normal 0.0 0.0 -1.0
  outer loop
    vertex -69.5945925286062 -226.305619873021 -6.93034962750971e-014
    vertex -69.6512508870424 -222.713427608652 -6.93034962750971e-014
    vertex -69.3731432974961 -222.350990741575 -6.93034962750971e-014
  endloop
endfacet
facet normal 0.0 0.0 -1.0
  outer loop
    vertex -69.5945925286062 -226.305619873021 -6.93034962750971e-014
    vertex -69.3731432974961 -222.350990741575 -6.93034962750971e-014
    vertex -68.3886877541189 -225.806117760497 -6.93034962750971e-014
  endloop
endfacet
facet normal 0.0 0.0 -1.0
  outer loop
    vertex -68.3886877541189 -225.806117760497 -6.93034962750971e-014
    vertex -69.3731432974961 -222.350990741575 -6.93034962750971e-014
    vertex -69.198317558113 -221.928924070505 -6.93034962750971e-014
  endloop
endfacet
facet normal 0.0 0.0 -1.0
  outer loop
    vertex -68.3886877541189 -225.806117760497 -6.93034962750971e-014
    vertex -69.198317558113 -221.928924070505 -6.93034962750971e-014
    vertex -69.1386877541189 -221.475990741575 -6.93034962750971e-014
  endloop
endfacet
facet normal 0.0 0.0 -1.0
  outer loop
    vertex -68.3886877541189 -225.806117760497 -6.93034962750971e-014
    vertex -69.1386877541189 -221.475990741575 -6.93034962750971e-014
    vertex -68.3886877541189 -217.145863722653 -6.93034962750971e-014
  endloop
endfacet
facet normal 0.0 0.0 -1.0
  outer loop
    vertex -68.3886877541189 -225.806117760497 -6.93034962750971e-014
    vertex -68.3886877541189 -217.145863722653 -6.93034962750971e-014
    vertex -67.3531538481862 -217.940456835643 -6.93034962750971e-014
  endloop
endfacet
facet normal 0.0 0.0 -1.0
  outer loop
    vertex -68.3886877541189 -225.806117760497 -6.93034962750971e-014
    vertex -67.3531538481862 -217.940456835643 -6.93034962750971e-014
    vertex -67.3531538481862 -225.011524647508 -6.93034962750971e-014
  endloop
endfacet
facet normal 0.0 0.0 -1.0
  outer loop
    vertex -67.3531538481862 -225.011524647508 -6.93034962750971e-014
    vertex -67.3531538481862 -217.940456835643 -6.93034962750971e-014
    vertex -66.5585607351967 -218.975990741575 -6.93034962750971e-014
  endloop
endfacet
facet normal 0.0 0.0 -1.0
  outer loop
    vertex -67.3531538481862 -225.011524647508 -6.93034962750971e-014
    vertex -66.5585607351967 -218.975990741575 -6.93034962750971e-014
    vertex -66.5585607351967 -223.975990741575 -6.93034962750971e-014
  endloop
endfacet
facet normal 0.0 0.0 -1.0
  outer loop
    vertex -66.5585607351967 -223.975990741575 -6.93034962750971e-014
    vertex -66.5585607351967 -218.975990741575 -6.93034962750971e-014
    vertex -66.0590586226735 -220.181895516063 -6.93034962750971e-014
  endloop
endfacet
facet normal 0.0 0.0 -1.0
  outer loop
    vertex -66.5585607351967 -223.975990741575 -6.93034962750971e-014
    vertex -66.0590586226735 -220.181895516063 -6.93034962750971e-014
    vertex -66.0590586226735 -222.770085967088 -6.93034962750971e-014
  endloop
endfacet
facet normal 0.0 0.0 -1.0
  outer loop
    vertex -66.0590586226735 -222.770085967088 -6.93034962750971e-014
    vertex -66.0590586226735 -220.181895516063 -6.93034962750971e-014
    vertex -65.8886877541189 -221.475990741575 -6.93034962750971e-014
  endloop
endfacet
facet normal 0.793353340291238 -0.608761429008717 0.0
  outer loop
    vertex -72.1261246211953 -220.238553874499 -6.93034962750971e-014
    vertex -72.4042322107416 -220.600990741575 1.99999999999993
    vertex -72.4042322107416 -220.600990741575 -6.93034962750971e-014
  endloop
endfacet
facet normal 0.793353340291238 -0.608761429008717 0.0
  outer loop
    vertex -72.4042322107416 -220.600990741575 1.99999999999993
    vertex -72.1261246211953 -220.238553874499 -6.93034962750971e-014
    vertex -72.1261246211953 -220.238553874499 1.99999999999993
  endloop
endfacet
facet normal 0.382683432365086 0.923879532511288 0.0
  outer loop
    vertex -71.7636877541188 -222.991535198198 1.99999999999993
    vertex -71.3416210830483 -223.166360937581 -6.93034962750971e-014
    vertex -71.7636877541188 -222.991535198198 -6.93034962750971e-014
  endloop
endfacet
facet normal 0.382683432365086 0.923879532511288 0.0
  outer loop
    vertex -71.3416210830483 -223.166360937581 -6.93034962750971e-014
    vertex -71.7636877541188 -222.991535198198 1.99999999999993
    vertex -71.3416210830483 -223.166360937581 1.99999999999993
  endloop
endfacet
facet normal 0.793353340291247 0.608761429008705 0.0
  outer loop
    vertex -67.3531538481862 -217.940456835643 -6.93034962750971e-014
    vertex -66.5585607351967 -218.975990741575 1.99999999999993
    vertex -66.5585607351967 -218.975990741575 -6.93034962750971e-014
  endloop
endfacet
facet normal 0.793353340291247 0.608761429008705 0.0
  outer loop
    vertex -66.5585607351967 -218.975990741575 1.99999999999993
    vertex -67.3531538481862 -217.940456835643 -6.93034962750971e-014
    vertex -67.3531538481862 -217.940456835643 1.99999999999993
  endloop
endfacet
facet normal 0.382683432365086 -0.923879532511288 0.0
  outer loop
    vertex -71.3416210830483 -219.785620545569 1.99999999999993
    vertex -71.7636877541188 -219.960446284953 -6.93034962750971e-014
    vertex -71.3416210830483 -219.785620545569 -6.93034962750971e-014
  endloop
endfacet
facet normal 0.382683432365086 -0.923879532511288 0.0
  outer loop
    vertex -71.7636877541188 -219.960446284953 -6.93034962750971e-014
    vertex -71.3416210830483 -219.785620545569 1.99999999999993
    vertex -71.7636877541188 -219.960446284953 1.99999999999993
  endloop
endfacet
facet normal 0.923879532511281 -0.382683432365104 0.0
  outer loop
    vertex -72.4042322107416 -220.600990741575 -6.93034962750971e-014
    vertex -72.5790579501247 -221.023057412646 1.99999999999993
    vertex -72.5790579501247 -221.023057412646 -6.93034962750971e-014
  endloop
endfacet
facet normal 0.923879532511281 -0.382683432365104 0.0
  outer loop
    vertex -72.5790579501247 -221.023057412646 1.99999999999993
    vertex -72.4042322107416 -220.600990741575 -6.93034962750971e-014
    vertex -72.4042322107416 -220.600990741575 1.99999999999993
  endloop
endfacet
facet normal 0.0 0.0 1.0
  outer loop
    vertex -75.7183168855642 -222.770085967088 1.99999999999993
    vertex -75.7183168855642 -220.181895516063 1.99999999999993
    vertex -75.8886877541188 -221.475990741575 1.99999999999993
  endloop
endfacet
facet normal 0.0 0.0 1.0
  outer loop
    vertex -75.7183168855642 -220.181895516063 1.99999999999993
    vertex -75.7183168855642 -222.770085967088 1.99999999999993
    vertex -75.218814773041 -223.975990741575 1.99999999999993
  endloop
endfacet
facet normal 0.0 0.0 1.0
  outer loop
    vertex -75.7183168855642 -220.181895516063 1.99999999999993
    vertex -75.218814773041 -223.975990741575 1.99999999999993
    vertex -75.218814773041 -218.975990741575 1.99999999999993
  endloop
endfacet
facet normal 0.0 0.0 1.0
  outer loop
    vertex -75.218814773041 -218.975990741575 1.99999999999993
    vertex -75.218814773041 -223.975990741575 1.99999999999993
    vertex -74.4242216600515 -225.011524647508 1.99999999999993
  endloop
endfacet
facet normal 0.0 0.0 1.0
  outer loop
    vertex -75.218814773041 -218.975990741575 1.99999999999993
    vertex -74.4242216600515 -225.011524647508 1.99999999999993
    vertex -74.4242216600515 -217.940456835643 1.99999999999993
  endloop
endfacet
facet normal 0.0 0.0 1.0
  outer loop
    vertex -74.4242216600515 -217.940456835643 1.99999999999993
    vertex -74.4242216600515 -225.011524647508 1.99999999999993
    vertex -73.3886877541188 -225.806117760497 1.99999999999993
  endloop
endfacet
facet normal 0.0 0.0 1.0
  outer loop
    vertex -74.4242216600515 -217.940456835643 1.99999999999993
    vertex -73.3886877541188 -225.806117760497 1.99999999999993
    vertex -73.3886877541188 -217.145863722653 1.99999999999993
  endloop
endfacet
facet normal 0.0 0.0 1.0
  outer loop
    vertex -73.3886877541188 -217.145863722653 1.99999999999993
    vertex -73.3886877541188 -225.806117760497 1.99999999999993
    vertex -72.1827829796315 -226.305619873021 1.99999999999993
  endloop
endfacet
facet normal 0.0 0.0 1.0
  outer loop
    vertex -73.3886877541188 -217.145863722653 1.99999999999993
    vertex -72.1827829796315 -226.305619873021 1.99999999999993
    vertex -72.6386877541188 -221.475990741575 1.99999999999993
  endloop
endfacet
facet normal 0.0 0.0 1.0
  outer loop
    vertex -72.6386877541188 -221.475990741575 1.99999999999993
    vertex -72.1827829796315 -226.305619873021 1.99999999999993
    vertex -72.5790579501247 -221.928924070505 1.99999999999993
  endloop
endfacet
facet normal 0.0 0.0 1.0
  outer loop
    vertex -72.5790579501247 -221.928924070505 1.99999999999993
    vertex -72.1827829796315 -226.305619873021 1.99999999999993
    vertex -72.4042322107416 -222.350990741575 1.99999999999993
  endloop
endfacet
facet normal 0.0 0.0 1.0
  outer loop
    vertex -72.4042322107416 -222.350990741575 1.99999999999993
    vertex -72.1827829796315 -226.305619873021 1.99999999999993
    vertex -72.1261246211953 -222.713427608652 1.99999999999993
  endloop
endfacet
facet normal 0.0 0.0 1.0
  outer loop
    vertex -72.1261246211953 -222.713427608652 1.99999999999993
    vertex -72.1827829796315 -226.305619873021 1.99999999999993
    vertex -70.8886877541189 -226.475990741575 1.99999999999993
  endloop
endfacet
facet normal 0.0 0.0 1.0
  outer loop
    vertex -72.1261246211953 -222.713427608652 1.99999999999993
    vertex -70.8886877541189 -226.475990741575 1.99999999999993
    vertex -71.7636877541188 -222.991535198198 1.99999999999993
  endloop
endfacet
facet normal 0.0 0.0 1.0
  outer loop
    vertex -71.7636877541188 -222.991535198198 1.99999999999993
    vertex -70.8886877541189 -226.475990741575 1.99999999999993
    vertex -71.3416210830483 -223.166360937581 1.99999999999993
  endloop
endfacet
facet normal 0.0 0.0 1.0
  outer loop
    vertex -71.3416210830483 -223.166360937581 1.99999999999993
    vertex -70.8886877541189 -226.475990741575 1.99999999999993
    vertex -70.8886877541189 -223.225990741575 1.99999999999993
  endloop
endfacet
facet normal 0.0 0.0 1.0
  outer loop
    vertex -70.8886877541189 -223.225990741575 1.99999999999993
    vertex -70.8886877541189 -226.475990741575 1.99999999999993
    vertex -69.5945925286062 -226.305619873021 1.99999999999993
  endloop
endfacet
facet normal 0.0 0.0 1.0
  outer loop
    vertex -70.8886877541189 -223.225990741575 1.99999999999993
    vertex -69.5945925286062 -226.305619873021 1.99999999999993
    vertex -70.4357544251894 -223.166360937581 1.99999999999993
  endloop
endfacet
facet normal 0.0 0.0 1.0
  outer loop
    vertex -70.4357544251894 -223.166360937581 1.99999999999993
    vertex -69.5945925286062 -226.305619873021 1.99999999999993
    vertex -70.0136877541189 -222.991535198198 1.99999999999993
  endloop
endfacet
facet normal 0.0 0.0 1.0
  outer loop
    vertex -70.0136877541189 -222.991535198198 1.99999999999993
    vertex -69.5945925286062 -226.305619873021 1.99999999999993
    vertex -69.6512508870424 -222.713427608652 1.99999999999993
  endloop
endfacet
facet normal 0.0 0.0 1.0
  outer loop
    vertex -69.6512508870424 -222.713427608652 1.99999999999993
    vertex -69.5945925286062 -226.305619873021 1.99999999999993
    vertex -69.3731432974961 -222.350990741575 1.99999999999993
  endloop
endfacet
facet normal 0.0 0.0 1.0
  outer loop
    vertex -69.3731432974961 -222.350990741575 1.99999999999993
    vertex -69.5945925286062 -226.305619873021 1.99999999999993
    vertex -68.3886877541189 -225.806117760497 1.99999999999993
  endloop
endfacet
facet normal 0.0 0.0 1.0
  outer loop
    vertex -69.3731432974961 -222.350990741575 1.99999999999993
    vertex -68.3886877541189 -225.806117760497 1.99999999999993
    vertex -69.198317558113 -221.928924070505 1.99999999999993
  endloop
endfacet
facet normal 0.0 0.0 1.0
  outer loop
    vertex -69.198317558113 -221.928924070505 1.99999999999993
    vertex -68.3886877541189 -225.806117760497 1.99999999999993
    vertex -69.1386877541189 -221.475990741575 1.99999999999993
  endloop
endfacet
facet normal 0.0 0.0 1.0
  outer loop
    vertex -72.6386877541188 -221.475990741575 1.99999999999993
    vertex -72.1827829796315 -216.64636161013 1.99999999999993
    vertex -73.3886877541188 -217.145863722653 1.99999999999993
  endloop
endfacet
facet normal 0.0 0.0 1.0
  outer loop
    vertex -72.1827829796315 -216.64636161013 1.99999999999993
    vertex -72.6386877541188 -221.475990741575 1.99999999999993
    vertex -72.5790579501247 -221.023057412646 1.99999999999993
  endloop
endfacet
facet normal 0.0 0.0 1.0
  outer loop
    vertex -72.1827829796315 -216.64636161013 1.99999999999993
    vertex -72.5790579501247 -221.023057412646 1.99999999999993
    vertex -72.4042322107416 -220.600990741575 1.99999999999993
  endloop
endfacet
facet normal 0.0 0.0 1.0
  outer loop
    vertex -72.1827829796315 -216.64636161013 1.99999999999993
    vertex -72.4042322107416 -220.600990741575 1.99999999999993
    vertex -72.1261246211953 -220.238553874499 1.99999999999993
  endloop
endfacet
facet normal 0.0 0.0 1.0
  outer loop
    vertex -72.1827829796315 -216.64636161013 1.99999999999993
    vertex -72.1261246211953 -220.238553874499 1.99999999999993
    vertex -70.8886877541189 -216.475990741575 1.99999999999993
  endloop
endfacet
facet normal 0.0 0.0 1.0
  outer loop
    vertex -70.8886877541189 -216.475990741575 1.99999999999993
    vertex -72.1261246211953 -220.238553874499 1.99999999999993
    vertex -71.7636877541188 -219.960446284953 1.99999999999993
  endloop
endfacet
facet normal 0.0 0.0 1.0
  outer loop
    vertex -70.8886877541189 -216.475990741575 1.99999999999993
    vertex -71.7636877541188 -219.960446284953 1.99999999999993
    vertex -71.3416210830483 -219.785620545569 1.99999999999993
  endloop
endfacet
facet normal 0.0 0.0 1.0
  outer loop
    vertex -70.8886877541189 -216.475990741575 1.99999999999993
    vertex -71.3416210830483 -219.785620545569 1.99999999999993
    vertex -70.8886877541189 -219.725990741575 1.99999999999993
  endloop
endfacet
facet normal 0.0 0.0 1.0
  outer loop
    vertex -70.8886877541189 -216.475990741575 1.99999999999993
    vertex -70.8886877541189 -219.725990741575 1.99999999999993
    vertex -70.4357544251894 -219.785620545569 1.99999999999993
  endloop
endfacet
facet normal 0.0 0.0 1.0
  outer loop
    vertex -70.8886877541189 -216.475990741575 1.99999999999993
    vertex -70.4357544251894 -219.785620545569 1.99999999999993
    vertex -69.5945925286062 -216.64636161013 1.99999999999993
  endloop
endfacet
facet normal 0.0 0.0 1.0
  outer loop
    vertex -69.5945925286062 -216.64636161013 1.99999999999993
    vertex -70.4357544251894 -219.785620545569 1.99999999999993
    vertex -70.0136877541189 -219.960446284953 1.99999999999993
  endloop
endfacet
facet normal 0.0 0.0 1.0
  outer loop
    vertex -69.5945925286062 -216.64636161013 1.99999999999993
    vertex -70.0136877541189 -219.960446284953 1.99999999999993
    vertex -69.6512508870424 -220.238553874499 1.99999999999993
  endloop
endfacet
facet normal 0.0 0.0 1.0
  outer loop
    vertex -69.5945925286062 -216.64636161013 1.99999999999993
    vertex -69.6512508870424 -220.238553874499 1.99999999999993
    vertex -69.3731432974961 -220.600990741575 1.99999999999993
  endloop
endfacet
facet normal 0.0 0.0 1.0
  outer loop
    vertex -69.5945925286062 -216.64636161013 1.99999999999993
    vertex -69.3731432974961 -220.600990741575 1.99999999999993
    vertex -68.3886877541189 -217.145863722653 1.99999999999993
  endloop
endfacet
facet normal 0.0 0.0 1.0
  outer loop
    vertex -68.3886877541189 -217.145863722653 1.99999999999993
    vertex -69.3731432974961 -220.600990741575 1.99999999999993
    vertex -69.198317558113 -221.023057412646 1.99999999999993
  endloop
endfacet
facet normal 0.0 0.0 1.0
  outer loop
    vertex -68.3886877541189 -217.145863722653 1.99999999999993
    vertex -69.198317558113 -221.023057412646 1.99999999999993
    vertex -69.1386877541189 -221.475990741575 1.99999999999993
  endloop
endfacet
facet normal 0.0 0.0 1.0
  outer loop
    vertex -68.3886877541189 -217.145863722653 1.99999999999993
    vertex -69.1386877541189 -221.475990741575 1.99999999999993
    vertex -68.3886877541189 -225.806117760497 1.99999999999993
  endloop
endfacet
facet normal 0.0 0.0 1.0
  outer loop
    vertex -68.3886877541189 -217.145863722653 1.99999999999993
    vertex -68.3886877541189 -225.806117760497 1.99999999999993
    vertex -67.3531538481862 -225.011524647508 1.99999999999993
  endloop
endfacet
facet normal 0.0 0.0 1.0
  outer loop
    vertex -68.3886877541189 -217.145863722653 1.99999999999993
    vertex -67.3531538481862 -225.011524647508 1.99999999999993
    vertex -67.3531538481862 -217.940456835643 1.99999999999993
  endloop
endfacet
facet normal 0.0 0.0 1.0
  outer loop
    vertex -67.3531538481862 -217.940456835643 1.99999999999993
    vertex -67.3531538481862 -225.011524647508 1.99999999999993
    vertex -66.5585607351967 -223.975990741575 1.99999999999993
  endloop
endfacet
facet normal 0.0 0.0 1.0
  outer loop
    vertex -67.3531538481862 -217.940456835643 1.99999999999993
    vertex -66.5585607351967 -223.975990741575 1.99999999999993
    vertex -66.5585607351967 -218.975990741575 1.99999999999993
  endloop
endfacet
facet normal 0.0 0.0 1.0
  outer loop
    vertex -66.5585607351967 -218.975990741575 1.99999999999993
    vertex -66.5585607351967 -223.975990741575 1.99999999999993
    vertex -66.0590586226735 -222.770085967088 1.99999999999993
  endloop
endfacet
facet normal 0.0 0.0 1.0
  outer loop
    vertex -66.5585607351967 -218.975990741575 1.99999999999993
    vertex -66.0590586226735 -222.770085967088 1.99999999999993
    vertex -66.0590586226735 -220.181895516063 1.99999999999993
  endloop
endfacet
facet normal 0.0 0.0 1.0
  outer loop
    vertex -66.0590586226735 -220.181895516063 1.99999999999993
    vertex -66.0590586226735 -222.770085967088 1.99999999999993
    vertex -65.8886877541189 -221.475990741575 1.99999999999993
  endloop
endfacet
facet normal 0.608761429008677 -0.793353340291268 0.0
  outer loop
    vertex -71.7636877541188 -219.960446284953 1.99999999999993
    vertex -72.1261246211953 -220.238553874499 -6.93034962750971e-014
    vertex -71.7636877541188 -219.960446284953 -6.93034962750971e-014
  endloop
endfacet
facet normal 0.608761429008677 -0.793353340291268 0.0
  outer loop
    vertex -72.1261246211953 -220.238553874499 -6.93034962750971e-014
    vertex -71.7636877541188 -219.960446284953 1.99999999999993
    vertex -72.1261246211953 -220.238553874499 1.99999999999993
  endloop
endfacet
facet normal -0.793353340291238 0.608761429008717 0.0
  outer loop
    vertex -69.3731432974961 -222.350990741575 1.99999999999993
    vertex -69.6512508870424 -222.713427608652 -6.93034962750971e-014
    vertex -69.6512508870424 -222.713427608652 1.99999999999993
  endloop
endfacet
facet normal -0.793353340291238 0.608761429008717 0.0
  outer loop
    vertex -69.6512508870424 -222.713427608652 -6.93034962750971e-014
    vertex -69.3731432974961 -222.350990741575 1.99999999999993
    vertex -69.3731432974961 -222.350990741575 -6.93034962750971e-014
  endloop
endfacet
facet normal 0.130526192220057 -0.99144486137381 0.0
  outer loop
    vertex -69.5945925286062 -226.305619873021 1.99999999999993
    vertex -70.8886877541189 -226.475990741575 -6.93034962750971e-014
    vertex -69.5945925286062 -226.305619873021 -6.93034962750971e-014
  endloop
endfacet
facet normal 0.130526192220057 -0.99144486137381 0.0
  outer loop
    vertex -70.8886877541189 -226.475990741575 -6.93034962750971e-014
    vertex -69.5945925286062 -226.305619873021 1.99999999999993
    vertex -70.8886877541189 -226.475990741575 1.99999999999993
  endloop
endfacet
facet normal 0.130526192220085 0.991444861373806 0.0
  outer loop
    vertex -71.3416210830483 -223.166360937581 1.99999999999993
    vertex -70.8886877541189 -223.225990741575 -6.93034962750971e-014
    vertex -71.3416210830483 -223.166360937581 -6.93034962750971e-014
  endloop
endfacet
facet normal 0.130526192220085 0.991444861373806 0.0
  outer loop
    vertex -70.8886877541189 -223.225990741575 -6.93034962750971e-014
    vertex -71.3416210830483 -223.166360937581 1.99999999999993
    vertex -70.8886877541189 -223.225990741575 1.99999999999993
  endloop
endfacet
facet normal 0.923879532511281 0.382683432365104 0.0
  outer loop
    vertex -72.5790579501247 -221.928924070505 -6.93034962750971e-014
    vertex -72.4042322107416 -222.350990741575 1.99999999999993
    vertex -72.4042322107416 -222.350990741575 -6.93034962750971e-014
  endloop
endfacet
facet normal 0.923879532511281 0.382683432365104 0.0
  outer loop
    vertex -72.4042322107416 -222.350990741575 1.99999999999993
    vertex -72.5790579501247 -221.928924070505 -6.93034962750971e-014
    vertex -72.5790579501247 -221.928924070505 1.99999999999993
  endloop
endfacet
facet normal 0.923879532511283 0.3826834323651 0.0
  outer loop
    vertex -66.5585607351967 -218.975990741575 -6.93034962750971e-014
    vertex -66.0590586226735 -220.181895516063 1.99999999999993
    vertex -66.0590586226735 -220.181895516063 -6.93034962750971e-014
  endloop
endfacet
facet normal 0.923879532511283 0.3826834323651 0.0
  outer loop
    vertex -66.0590586226735 -220.181895516063 1.99999999999993
    vertex -66.5585607351967 -218.975990741575 -6.93034962750971e-014
    vertex -66.5585607351967 -218.975990741575 1.99999999999993
  endloop
endfacet
facet normal 0.608761429008677 0.793353340291268 0.0
  outer loop
    vertex -72.1261246211953 -222.713427608652 1.99999999999993
    vertex -71.7636877541188 -222.991535198198 -6.93034962750971e-014
    vertex -72.1261246211953 -222.713427608652 -6.93034962750971e-014
  endloop
endfacet
facet normal 0.608761429008677 0.793353340291268 0.0
  outer loop
    vertex -71.7636877541188 -222.991535198198 -6.93034962750971e-014
    vertex -72.1261246211953 -222.713427608652 1.99999999999993
    vertex -71.7636877541188 -222.991535198198 1.99999999999993
  endloop
endfacet
facet normal 0.793353340291238 0.608761429008717 0.0
  outer loop
    vertex -72.4042322107416 -222.350990741575 -6.93034962750971e-014
    vertex -72.1261246211953 -222.713427608652 1.99999999999993
    vertex -72.1261246211953 -222.713427608652 -6.93034962750971e-014
  endloop
endfacet
facet normal 0.793353340291238 0.608761429008717 0.0
  outer loop
    vertex -72.1261246211953 -222.713427608652 1.99999999999993
    vertex -72.4042322107416 -222.350990741575 -6.93034962750971e-014
    vertex -72.4042322107416 -222.350990741575 1.99999999999993
  endloop
endfacet
facet normal -0.608761429008677 0.793353340291268 0.0
  outer loop
    vertex -70.0136877541189 -222.991535198198 1.99999999999993
    vertex -69.6512508870424 -222.713427608652 -6.93034962750971e-014
    vertex -70.0136877541189 -222.991535198198 -6.93034962750971e-014
  endloop
endfacet
facet normal -0.608761429008677 0.793353340291268 0.0
  outer loop
    vertex -69.6512508870424 -222.713427608652 -6.93034962750971e-014
    vertex -70.0136877541189 -222.991535198198 1.99999999999993
    vertex -69.6512508870424 -222.713427608652 1.99999999999993
  endloop
endfacet
endsolid Omnidroid
