solid Omnidroid
facet normal -0.608761429008711 -0.793353340291243 -0.0
  outer loop
    vertex -73.3886877541188 -225.806117760497 15.9999999999901
    vertex -74.4242216600516 -225.011524647508 3.59999999999994
    vertex -73.3886877541188 -225.806117760497 3.59999999999994
  endloop
endfacet
facet normal -0.608761429008711 -0.793353340291243 -0.0
  outer loop
    vertex -74.4242216600516 -225.011524647508 3.59999999999994
    vertex -73.3886877541188 -225.806117760497 15.9999999999901
    vertex -74.4242216600516 -225.011524647508 15.9999999999901
  endloop
endfacet
facet normal 0.608761429008711 0.793353340291243 0.0
  outer loop
    vertex -68.3886877541189 -217.145863722653 15.9999999999901
    vertex -67.3531538481861 -217.940456835643 3.59999999999994
    vertex -68.3886877541189 -217.145863722653 3.59999999999994
  endloop
endfacet
facet normal 0.608761429008711 0.793353340291243 0.0
  outer loop
    vertex -67.3531538481861 -217.940456835643 3.59999999999994
    vertex -68.3886877541189 -217.145863722653 15.9999999999901
    vertex -67.3531538481861 -217.940456835643 15.9999999999901
  endloop
endfacet
facet normal 0.130526192220092 0.991444861373805 0.0
  outer loop
    vertex -70.8886877541189 -216.475990741575 15.9999999999901
    vertex -69.5945925286063 -216.64636161013 3.59999999999994
    vertex -70.8886877541189 -216.475990741575 3.59999999999994
  endloop
endfacet
facet normal 0.130526192220092 0.991444861373805 0.0
  outer loop
    vertex -69.5945925286063 -216.64636161013 3.59999999999994
    vertex -70.8886877541189 -216.475990741575 15.9999999999901
    vertex -69.5945925286063 -216.64636161013 15.9999999999901
  endloop
endfacet
facet normal -0.793353340291247 -0.608761429008705 -0.0
  outer loop
    vertex -75.218814773041 -223.975990741575 15.9999999999901
    vertex -74.4242216600516 -225.011524647508 3.59999999999994
    vertex -74.4242216600516 -225.011524647508 15.9999999999901
  endloop
endfacet
facet normal -0.793353340291247 -0.608761429008705 -0.0
  outer loop
    vertex -74.4242216600516 -225.011524647508 3.59999999999994
    vertex -75.218814773041 -223.975990741575 15.9999999999901
    vertex -75.218814773041 -223.975990741575 3.59999999999994
  endloop
endfacet
facet normal 0.99144486137381 0.130526192220055 0.0
  outer loop
    vertex -66.0590586226735 -220.181895516063 3.59999999999994
    vertex -65.8886877541189 -221.475990741575 15.9999999999901
    vertex -65.8886877541189 -221.475990741575 3.59999999999994
  endloop
endfacet
facet normal 0.99144486137381 0.130526192220055 0.0
  outer loop
    vertex -65.8886877541189 -221.475990741575 15.9999999999901
    vertex -66.0590586226735 -220.181895516063 3.59999999999994
    vertex -66.0590586226735 -220.181895516063 15.9999999999901
  endloop
endfacet
facet normal 0.99144486137381 -0.130526192220055 0.0
  outer loop
    vertex -65.8886877541189 -221.475990741575 3.59999999999994
    vertex -66.0590586226735 -222.770085967088 15.9999999999901
    vertex -66.0590586226735 -222.770085967088 3.59999999999994
  endloop
endfacet
facet normal 0.99144486137381 -0.130526192220055 0.0
  outer loop
    vertex -66.0590586226735 -222.770085967088 15.9999999999901
    vertex -65.8886877541189 -221.475990741575 3.59999999999994
    vertex -65.8886877541189 -221.475990741575 15.9999999999901
  endloop
endfacet
facet normal 0.991444861373814 0.130526192220029 0.0
  outer loop
    vertex -72.6386877541188 -221.475990741575 3.59999999999994
    vertex -72.5790579501247 -221.928924070505 15.9999999999901
    vertex -72.5790579501247 -221.928924070505 3.59999999999994
  endloop
endfacet
facet normal 0.991444861373814 0.130526192220029 0.0
  outer loop
    vertex -72.5790579501247 -221.928924070505 15.9999999999901
    vertex -72.6386877541188 -221.475990741575 3.59999999999994
    vertex -72.6386877541188 -221.475990741575 15.9999999999901
  endloop
endfacet
facet normal 0.923879532511281 0.382683432365104 0.0
  outer loop
    vertex -72.5790579501247 -221.928924070505 3.59999999999994
    vertex -72.4042322107416 -222.350990741575 15.9999999999901
    vertex -72.4042322107416 -222.350990741575 3.59999999999994
  endloop
endfacet
facet normal 0.923879532511281 0.382683432365104 0.0
  outer loop
    vertex -72.4042322107416 -222.350990741575 15.9999999999901
    vertex -72.5790579501247 -221.928924070505 3.59999999999994
    vertex -72.5790579501247 -221.928924070505 15.9999999999901
  endloop
endfacet
facet normal -0.991444861373814 0.130526192220029 0.0
  outer loop
    vertex -69.1386877541189 -221.475990741575 15.9999999999901
    vertex -69.198317558113 -221.928924070505 3.59999999999994
    vertex -69.198317558113 -221.928924070505 15.9999999999901
  endloop
endfacet
facet normal -0.991444861373814 0.130526192220029 0.0
  outer loop
    vertex -69.198317558113 -221.928924070505 3.59999999999994
    vertex -69.1386877541189 -221.475990741575 15.9999999999901
    vertex -69.1386877541189 -221.475990741575 3.59999999999994
  endloop
endfacet
facet normal 0.382683432365086 -0.923879532511288 0.0
  outer loop
    vertex -71.3416210830483 -219.785620545569 15.9999999999901
    vertex -71.7636877541188 -219.960446284953 3.59999999999994
    vertex -71.3416210830483 -219.785620545569 3.59999999999994
  endloop
endfacet
facet normal 0.382683432365086 -0.923879532511288 0.0
  outer loop
    vertex -71.7636877541188 -219.960446284953 3.59999999999994
    vertex -71.3416210830483 -219.785620545569 15.9999999999901
    vertex -71.7636877541188 -219.960446284953 15.9999999999901
  endloop
endfacet
facet normal 0.793353340291234 -0.608761429008722 0.0
  outer loop
    vertex -66.5585607351967 -223.975990741575 3.59999999999994
    vertex -67.3531538481861 -225.011524647508 15.9999999999901
    vertex -67.3531538481861 -225.011524647508 3.59999999999994
  endloop
endfacet
facet normal 0.793353340291234 -0.608761429008722 0.0
  outer loop
    vertex -67.3531538481861 -225.011524647508 15.9999999999901
    vertex -66.5585607351967 -223.975990741575 3.59999999999994
    vertex -66.5585607351967 -223.975990741575 15.9999999999901
  endloop
endfacet
facet normal 0.793353340291238 0.608761429008717 0.0
  outer loop
    vertex -72.4042322107416 -222.350990741575 3.59999999999994
    vertex -72.1261246211953 -222.713427608652 15.9999999999901
    vertex -72.1261246211953 -222.713427608652 3.59999999999994
  endloop
endfacet
facet normal 0.793353340291238 0.608761429008717 0.0
  outer loop
    vertex -72.1261246211953 -222.713427608652 15.9999999999901
    vertex -72.4042322107416 -222.350990741575 3.59999999999994
    vertex -72.4042322107416 -222.350990741575 15.9999999999901
  endloop
endfacet
facet normal 0.991444861373814 -0.130526192220029 0.0
  outer loop
    vertex -72.5790579501247 -221.023057412646 3.59999999999994
    vertex -72.6386877541188 -221.475990741575 15.9999999999901
    vertex -72.6386877541188 -221.475990741575 3.59999999999994
  endloop
endfacet
facet normal 0.991444861373814 -0.130526192220029 0.0
  outer loop
    vertex -72.6386877541188 -221.475990741575 15.9999999999901
    vertex -72.5790579501247 -221.023057412646 3.59999999999994
    vertex -72.5790579501247 -221.023057412646 15.9999999999901
  endloop
endfacet
facet normal 0.382683432365086 0.923879532511288 0.0
  outer loop
    vertex -71.7636877541188 -222.991535198198 15.9999999999901
    vertex -71.3416210830483 -223.166360937581 3.59999999999994
    vertex -71.7636877541188 -222.991535198198 3.59999999999994
  endloop
endfacet
facet normal 0.382683432365086 0.923879532511288 0.0
  outer loop
    vertex -71.3416210830483 -223.166360937581 3.59999999999994
    vertex -71.7636877541188 -222.991535198198 15.9999999999901
    vertex -71.3416210830483 -223.166360937581 15.9999999999901
  endloop
endfacet
facet normal -0.608761429008711 0.793353340291243 0.0
  outer loop
    vertex -74.4242216600516 -217.940456835643 15.9999999999901
    vertex -73.3886877541188 -217.145863722653 3.59999999999994
    vertex -74.4242216600516 -217.940456835643 3.59999999999994
  endloop
endfacet
facet normal -0.608761429008711 0.793353340291243 0.0
  outer loop
    vertex -73.3886877541188 -217.145863722653 3.59999999999994
    vertex -74.4242216600516 -217.940456835643 15.9999999999901
    vertex -73.3886877541188 -217.145863722653 15.9999999999901
  endloop
endfacet
facet normal -0.99144486137381 -0.130526192220055 -0.0
  outer loop
    vertex -75.8886877541188 -221.475990741575 15.9999999999901
    vertex -75.7183168855642 -222.770085967088 3.59999999999994
    vertex -75.7183168855642 -222.770085967088 15.9999999999901
  endloop
endfacet
facet normal -0.99144486137381 -0.130526192220055 -0.0
  outer loop
    vertex -75.7183168855642 -222.770085967088 3.59999999999994
    vertex -75.8886877541188 -221.475990741575 15.9999999999901
    vertex -75.8886877541188 -221.475990741575 3.59999999999994
  endloop
endfacet
facet normal 0.923879532511288 -0.382683432365087 0.0
  outer loop
    vertex -66.0590586226735 -222.770085967088 3.59999999999994
    vertex -66.5585607351967 -223.975990741575 15.9999999999901
    vertex -66.5585607351967 -223.975990741575 3.59999999999994
  endloop
endfacet
facet normal 0.923879532511288 -0.382683432365087 0.0
  outer loop
    vertex -66.5585607351967 -223.975990741575 15.9999999999901
    vertex -66.0590586226735 -222.770085967088 3.59999999999994
    vertex -66.0590586226735 -222.770085967088 15.9999999999901
  endloop
endfacet
facet normal 0.793353340291247 0.608761429008705 0.0
  outer loop
    vertex -67.3531538481861 -217.940456835643 3.59999999999994
    vertex -66.5585607351967 -218.975990741575 15.9999999999901
    vertex -66.5585607351967 -218.975990741575 3.59999999999994
  endloop
endfacet
facet normal 0.793353340291247 0.608761429008705 0.0
  outer loop
    vertex -66.5585607351967 -218.975990741575 15.9999999999901
    vertex -67.3531538481861 -217.940456835643 3.59999999999994
    vertex -67.3531538481861 -217.940456835643 15.9999999999901
  endloop
endfacet
facet normal -0.923879532511281 0.382683432365104 0.0
  outer loop
    vertex -69.198317558113 -221.928924070505 15.9999999999901
    vertex -69.3731432974961 -222.350990741575 3.59999999999994
    vertex -69.3731432974961 -222.350990741575 15.9999999999901
  endloop
endfacet
facet normal -0.923879532511281 0.382683432365104 0.0
  outer loop
    vertex -69.3731432974961 -222.350990741575 3.59999999999994
    vertex -69.198317558113 -221.928924070505 15.9999999999901
    vertex -69.198317558113 -221.928924070505 3.59999999999994
  endloop
endfacet
facet normal -0.130526192220085 0.991444861373806 0.0
  outer loop
    vertex -70.8886877541189 -223.225990741575 15.9999999999901
    vertex -70.4357544251895 -223.166360937581 3.59999999999994
    vertex -70.8886877541189 -223.225990741575 3.59999999999994
  endloop
endfacet
facet normal -0.130526192220085 0.991444861373806 0.0
  outer loop
    vertex -70.4357544251895 -223.166360937581 3.59999999999994
    vertex -70.8886877541189 -223.225990741575 15.9999999999901
    vertex -70.4357544251895 -223.166360937581 15.9999999999901
  endloop
endfacet
facet normal -0.923879532511281 -0.382683432365104 -0.0
  outer loop
    vertex -69.3731432974961 -220.600990741575 15.9999999999901
    vertex -69.198317558113 -221.023057412646 3.59999999999994
    vertex -69.198317558113 -221.023057412646 15.9999999999901
  endloop
endfacet
facet normal -0.923879532511281 -0.382683432365104 -0.0
  outer loop
    vertex -69.198317558113 -221.023057412646 3.59999999999994
    vertex -69.3731432974961 -220.600990741575 15.9999999999901
    vertex -69.3731432974961 -220.600990741575 3.59999999999994
  endloop
endfacet
facet normal 0.923879532511281 -0.382683432365104 0.0
  outer loop
    vertex -72.4042322107416 -220.600990741575 3.59999999999994
    vertex -72.5790579501247 -221.023057412646 15.9999999999901
    vertex -72.5790579501247 -221.023057412646 3.59999999999994
  endloop
endfacet
facet normal 0.923879532511281 -0.382683432365104 0.0
  outer loop
    vertex -72.5790579501247 -221.023057412646 15.9999999999901
    vertex -72.4042322107416 -220.600990741575 3.59999999999994
    vertex -72.4042322107416 -220.600990741575 15.9999999999901
  endloop
endfacet
facet normal -0.382683432365086 0.923879532511288 0.0
  outer loop
    vertex -70.4357544251895 -223.166360937581 15.9999999999901
    vertex -70.0136877541189 -222.991535198198 3.59999999999994
    vertex -70.4357544251895 -223.166360937581 3.59999999999994
  endloop
endfacet
facet normal -0.382683432365086 0.923879532511288 0.0
  outer loop
    vertex -70.0136877541189 -222.991535198198 3.59999999999994
    vertex -70.4357544251895 -223.166360937581 15.9999999999901
    vertex -70.0136877541189 -222.991535198198 15.9999999999901
  endloop
endfacet
facet normal -0.793353340291238 0.608761429008717 0.0
  outer loop
    vertex -69.3731432974961 -222.350990741575 15.9999999999901
    vertex -69.6512508870424 -222.713427608652 3.59999999999994
    vertex -69.6512508870424 -222.713427608652 15.9999999999901
  endloop
endfacet
facet normal -0.793353340291238 0.608761429008717 0.0
  outer loop
    vertex -69.6512508870424 -222.713427608652 3.59999999999994
    vertex -69.3731432974961 -222.350990741575 15.9999999999901
    vertex -69.3731432974961 -222.350990741575 3.59999999999994
  endloop
endfacet
facet normal -0.608761429008677 0.793353340291268 0.0
  outer loop
    vertex -70.0136877541189 -222.991535198198 15.9999999999901
    vertex -69.6512508870424 -222.713427608652 3.59999999999994
    vertex -70.0136877541189 -222.991535198198 3.59999999999994
  endloop
endfacet
facet normal -0.608761429008677 0.793353340291268 0.0
  outer loop
    vertex -69.6512508870424 -222.713427608652 3.59999999999994
    vertex -70.0136877541189 -222.991535198198 15.9999999999901
    vertex -69.6512508870424 -222.713427608652 15.9999999999901
  endloop
endfacet
facet normal 0.130526192220085 0.991444861373806 0.0
  outer loop
    vertex -71.3416210830483 -223.166360937581 15.9999999999901
    vertex -70.8886877541189 -223.225990741575 3.59999999999994
    vertex -71.3416210830483 -223.166360937581 3.59999999999994
  endloop
endfacet
facet normal 0.130526192220085 0.991444861373806 0.0
  outer loop
    vertex -70.8886877541189 -223.225990741575 3.59999999999994
    vertex -71.3416210830483 -223.166360937581 15.9999999999901
    vertex -70.8886877541189 -223.225990741575 15.9999999999901
  endloop
endfacet
facet normal 0.608761429008677 0.793353340291268 0.0
  outer loop
    vertex -72.1261246211953 -222.713427608652 15.9999999999901
    vertex -71.7636877541188 -222.991535198198 3.59999999999994
    vertex -72.1261246211953 -222.713427608652 3.59999999999994
  endloop
endfacet
facet normal 0.608761429008677 0.793353340291268 0.0
  outer loop
    vertex -71.7636877541188 -222.991535198198 3.59999999999994
    vertex -72.1261246211953 -222.713427608652 15.9999999999901
    vertex -71.7636877541188 -222.991535198198 15.9999999999901
  endloop
endfacet
facet normal -0.793353340291238 -0.608761429008717 -0.0
  outer loop
    vertex -69.6512508870424 -220.238553874499 15.9999999999901
    vertex -69.3731432974961 -220.600990741575 3.59999999999994
    vertex -69.3731432974961 -220.600990741575 15.9999999999901
  endloop
endfacet
facet normal -0.793353340291238 -0.608761429008717 -0.0
  outer loop
    vertex -69.3731432974961 -220.600990741575 3.59999999999994
    vertex -69.6512508870424 -220.238553874499 15.9999999999901
    vertex -69.6512508870424 -220.238553874499 3.59999999999994
  endloop
endfacet
facet normal 0.608761429008677 -0.793353340291268 0.0
  outer loop
    vertex -71.7636877541188 -219.960446284953 15.9999999999901
    vertex -72.1261246211953 -220.238553874499 3.59999999999994
    vertex -71.7636877541188 -219.960446284953 3.59999999999994
  endloop
endfacet
facet normal 0.608761429008677 -0.793353340291268 0.0
  outer loop
    vertex -72.1261246211953 -220.238553874499 3.59999999999994
    vertex -71.7636877541188 -219.960446284953 15.9999999999901
    vertex -72.1261246211953 -220.238553874499 15.9999999999901
  endloop
endfacet
facet normal 0.793353340291238 -0.608761429008717 0.0
  outer loop
    vertex -72.1261246211953 -220.238553874499 3.59999999999994
    vertex -72.4042322107416 -220.600990741575 15.9999999999901
    vertex -72.4042322107416 -220.600990741575 3.59999999999994
  endloop
endfacet
facet normal 0.793353340291238 -0.608761429008717 0.0
  outer loop
    vertex -72.4042322107416 -220.600990741575 15.9999999999901
    vertex -72.1261246211953 -220.238553874499 3.59999999999994
    vertex -72.1261246211953 -220.238553874499 15.9999999999901
  endloop
endfacet
facet normal -0.991444861373814 -0.130526192220029 -0.0
  outer loop
    vertex -69.198317558113 -221.023057412646 15.9999999999901
    vertex -69.1386877541189 -221.475990741575 3.59999999999994
    vertex -69.1386877541189 -221.475990741575 15.9999999999901
  endloop
endfacet
facet normal -0.991444861373814 -0.130526192220029 -0.0
  outer loop
    vertex -69.1386877541189 -221.475990741575 3.59999999999994
    vertex -69.198317558113 -221.023057412646 15.9999999999901
    vertex -69.198317558113 -221.023057412646 3.59999999999994
  endloop
endfacet
facet normal 0.130526192220085 -0.991444861373806 0.0
  outer loop
    vertex -70.8886877541189 -219.725990741575 15.9999999999901
    vertex -71.3416210830483 -219.785620545569 3.59999999999994
    vertex -70.8886877541189 -219.725990741575 3.59999999999994
  endloop
endfacet
facet normal 0.130526192220085 -0.991444861373806 0.0
  outer loop
    vertex -71.3416210830483 -219.785620545569 3.59999999999994
    vertex -70.8886877541189 -219.725990741575 15.9999999999901
    vertex -71.3416210830483 -219.785620545569 15.9999999999901
  endloop
endfacet
facet normal -0.608761429008677 -0.793353340291268 -0.0
  outer loop
    vertex -69.6512508870424 -220.238553874499 15.9999999999901
    vertex -70.0136877541189 -219.960446284953 3.59999999999994
    vertex -69.6512508870424 -220.238553874499 3.59999999999994
  endloop
endfacet
facet normal -0.608761429008677 -0.793353340291268 -0.0
  outer loop
    vertex -70.0136877541189 -219.960446284953 3.59999999999994
    vertex -69.6512508870424 -220.238553874499 15.9999999999901
    vertex -70.0136877541189 -219.960446284953 15.9999999999901
  endloop
endfacet
facet normal -0.382683432365086 -0.923879532511288 -0.0
  outer loop
    vertex -70.0136877541189 -219.960446284953 15.9999999999901
    vertex -70.4357544251895 -219.785620545569 3.59999999999994
    vertex -70.0136877541189 -219.960446284953 3.59999999999994
  endloop
endfacet
facet normal -0.382683432365086 -0.923879532511288 -0.0
  outer loop
    vertex -70.4357544251895 -219.785620545569 3.59999999999994
    vertex -70.0136877541189 -219.960446284953 15.9999999999901
    vertex -70.4357544251895 -219.785620545569 15.9999999999901
  endloop
endfacet
facet normal 0.0 0.0 -1.0
  outer loop
    vertex -75.7183168855642 -220.181895516063 3.59999999999994
    vertex -75.7183168855642 -222.770085967088 3.59999999999994
    vertex -75.8886877541188 -221.475990741575 3.59999999999994
  endloop
endfacet
facet normal 0.0 0.0 -1.0
  outer loop
    vertex -75.7183168855642 -222.770085967088 3.59999999999994
    vertex -75.7183168855642 -220.181895516063 3.59999999999994
    vertex -75.218814773041 -218.975990741575 3.59999999999994
  endloop
endfacet
facet normal 0.0 0.0 -1.0
  outer loop
    vertex -75.7183168855642 -222.770085967088 3.59999999999994
    vertex -75.218814773041 -218.975990741575 3.59999999999994
    vertex -75.218814773041 -223.975990741575 3.59999999999994
  endloop
endfacet
facet normal 0.0 0.0 -1.0
  outer loop
    vertex -75.218814773041 -223.975990741575 3.59999999999994
    vertex -75.218814773041 -218.975990741575 3.59999999999994
    vertex -74.4242216600516 -217.940456835643 3.59999999999994
  endloop
endfacet
facet normal 0.0 0.0 -1.0
  outer loop
    vertex -75.218814773041 -223.975990741575 3.59999999999994
    vertex -74.4242216600516 -217.940456835643 3.59999999999994
    vertex -74.4242216600516 -225.011524647508 3.59999999999994
  endloop
endfacet
facet normal 0.0 0.0 -1.0
  outer loop
    vertex -74.4242216600516 -225.011524647508 3.59999999999994
    vertex -74.4242216600516 -217.940456835643 3.59999999999994
    vertex -73.3886877541188 -217.145863722653 3.59999999999994
  endloop
endfacet
facet normal 0.0 0.0 -1.0
  outer loop
    vertex -74.4242216600516 -225.011524647508 3.59999999999994
    vertex -73.3886877541188 -217.145863722653 3.59999999999994
    vertex -73.3886877541188 -225.806117760497 3.59999999999994
  endloop
endfacet
facet normal 0.0 0.0 -1.0
  outer loop
    vertex -73.3886877541188 -225.806117760497 3.59999999999994
    vertex -73.3886877541188 -217.145863722653 3.59999999999994
    vertex -72.1827829796315 -216.64636161013 3.59999999999994
  endloop
endfacet
facet normal 0.0 0.0 -1.0
  outer loop
    vertex -73.3886877541188 -225.806117760497 3.59999999999994
    vertex -72.1827829796315 -216.64636161013 3.59999999999994
    vertex -72.6386877541188 -221.475990741575 3.59999999999994
  endloop
endfacet
facet normal 0.0 0.0 -1.0
  outer loop
    vertex -72.6386877541188 -221.475990741575 3.59999999999994
    vertex -72.1827829796315 -216.64636161013 3.59999999999994
    vertex -72.5790579501247 -221.023057412646 3.59999999999994
  endloop
endfacet
facet normal 0.0 0.0 -1.0
  outer loop
    vertex -72.5790579501247 -221.023057412646 3.59999999999994
    vertex -72.1827829796315 -216.64636161013 3.59999999999994
    vertex -72.4042322107416 -220.600990741575 3.59999999999994
  endloop
endfacet
facet normal 0.0 0.0 -1.0
  outer loop
    vertex -72.4042322107416 -220.600990741575 3.59999999999994
    vertex -72.1827829796315 -216.64636161013 3.59999999999994
    vertex -72.1261246211953 -220.238553874499 3.59999999999994
  endloop
endfacet
facet normal 0.0 0.0 -1.0
  outer loop
    vertex -72.1261246211953 -220.238553874499 3.59999999999994
    vertex -72.1827829796315 -216.64636161013 3.59999999999994
    vertex -70.8886877541189 -216.475990741575 3.59999999999994
  endloop
endfacet
facet normal 0.0 0.0 -1.0
  outer loop
    vertex -72.1261246211953 -220.238553874499 3.59999999999994
    vertex -70.8886877541189 -216.475990741575 3.59999999999994
    vertex -71.7636877541188 -219.960446284953 3.59999999999994
  endloop
endfacet
facet normal 0.0 0.0 -1.0
  outer loop
    vertex -71.7636877541188 -219.960446284953 3.59999999999994
    vertex -70.8886877541189 -216.475990741575 3.59999999999994
    vertex -71.3416210830483 -219.785620545569 3.59999999999994
  endloop
endfacet
facet normal 0.0 0.0 -1.0
  outer loop
    vertex -71.3416210830483 -219.785620545569 3.59999999999994
    vertex -70.8886877541189 -216.475990741575 3.59999999999994
    vertex -70.8886877541189 -219.725990741575 3.59999999999994
  endloop
endfacet
facet normal 0.0 0.0 -1.0
  outer loop
    vertex -70.8886877541189 -219.725990741575 3.59999999999994
    vertex -70.8886877541189 -216.475990741575 3.59999999999994
    vertex -69.5945925286063 -216.64636161013 3.59999999999994
  endloop
endfacet
facet normal 0.0 0.0 -1.0
  outer loop
    vertex -70.8886877541189 -219.725990741575 3.59999999999994
    vertex -69.5945925286063 -216.64636161013 3.59999999999994
    vertex -70.4357544251895 -219.785620545569 3.59999999999994
  endloop
endfacet
facet normal 0.0 0.0 -1.0
  outer loop
    vertex -70.4357544251895 -219.785620545569 3.59999999999994
    vertex -69.5945925286063 -216.64636161013 3.59999999999994
    vertex -70.0136877541189 -219.960446284953 3.59999999999994
  endloop
endfacet
facet normal 0.0 0.0 -1.0
  outer loop
    vertex -70.0136877541189 -219.960446284953 3.59999999999994
    vertex -69.5945925286063 -216.64636161013 3.59999999999994
    vertex -69.6512508870424 -220.238553874499 3.59999999999994
  endloop
endfacet
facet normal 0.0 0.0 -1.0
  outer loop
    vertex -69.6512508870424 -220.238553874499 3.59999999999994
    vertex -69.5945925286063 -216.64636161013 3.59999999999994
    vertex -69.3731432974961 -220.600990741575 3.59999999999994
  endloop
endfacet
facet normal 0.0 0.0 -1.0
  outer loop
    vertex -69.3731432974961 -220.600990741575 3.59999999999994
    vertex -69.5945925286063 -216.64636161013 3.59999999999994
    vertex -68.3886877541189 -217.145863722653 3.59999999999994
  endloop
endfacet
facet normal 0.0 0.0 -1.0
  outer loop
    vertex -69.3731432974961 -220.600990741575 3.59999999999994
    vertex -68.3886877541189 -217.145863722653 3.59999999999994
    vertex -69.198317558113 -221.023057412646 3.59999999999994
  endloop
endfacet
facet normal 0.0 0.0 -1.0
  outer loop
    vertex -69.198317558113 -221.023057412646 3.59999999999994
    vertex -68.3886877541189 -217.145863722653 3.59999999999994
    vertex -69.1386877541189 -221.475990741575 3.59999999999994
  endloop
endfacet
facet normal 0.0 0.0 -1.0
  outer loop
    vertex -72.6386877541188 -221.475990741575 3.59999999999994
    vertex -72.1827829796315 -226.305619873021 3.59999999999994
    vertex -73.3886877541188 -225.806117760497 3.59999999999994
  endloop
endfacet
facet normal 0.0 0.0 -1.0
  outer loop
    vertex -72.1827829796315 -226.305619873021 3.59999999999994
    vertex -72.6386877541188 -221.475990741575 3.59999999999994
    vertex -72.5790579501247 -221.928924070505 3.59999999999994
  endloop
endfacet
facet normal 0.0 0.0 -1.0
  outer loop
    vertex -72.1827829796315 -226.305619873021 3.59999999999994
    vertex -72.5790579501247 -221.928924070505 3.59999999999994
    vertex -72.4042322107416 -222.350990741575 3.59999999999994
  endloop
endfacet
facet normal 0.0 0.0 -1.0
  outer loop
    vertex -72.1827829796315 -226.305619873021 3.59999999999994
    vertex -72.4042322107416 -222.350990741575 3.59999999999994
    vertex -72.1261246211953 -222.713427608652 3.59999999999994
  endloop
endfacet
facet normal 0.0 0.0 -1.0
  outer loop
    vertex -72.1827829796315 -226.305619873021 3.59999999999994
    vertex -72.1261246211953 -222.713427608652 3.59999999999994
    vertex -70.8886877541189 -226.475990741575 3.59999999999994
  endloop
endfacet
facet normal 0.0 0.0 -1.0
  outer loop
    vertex -70.8886877541189 -226.475990741575 3.59999999999994
    vertex -72.1261246211953 -222.713427608652 3.59999999999994
    vertex -71.7636877541188 -222.991535198198 3.59999999999994
  endloop
endfacet
facet normal 0.0 0.0 -1.0
  outer loop
    vertex -70.8886877541189 -226.475990741575 3.59999999999994
    vertex -71.7636877541188 -222.991535198198 3.59999999999994
    vertex -71.3416210830483 -223.166360937581 3.59999999999994
  endloop
endfacet
facet normal 0.0 0.0 -1.0
  outer loop
    vertex -70.8886877541189 -226.475990741575 3.59999999999994
    vertex -71.3416210830483 -223.166360937581 3.59999999999994
    vertex -70.8886877541189 -223.225990741575 3.59999999999994
  endloop
endfacet
facet normal 0.0 0.0 -1.0
  outer loop
    vertex -70.8886877541189 -226.475990741575 3.59999999999994
    vertex -70.8886877541189 -223.225990741575 3.59999999999994
    vertex -70.4357544251895 -223.166360937581 3.59999999999994
  endloop
endfacet
facet normal 0.0 0.0 -1.0
  outer loop
    vertex -70.8886877541189 -226.475990741575 3.59999999999994
    vertex -70.4357544251895 -223.166360937581 3.59999999999994
    vertex -69.5945925286063 -226.305619873021 3.59999999999994
  endloop
endfacet
facet normal 0.0 0.0 -1.0
  outer loop
    vertex -69.5945925286063 -226.305619873021 3.59999999999994
    vertex -70.4357544251895 -223.166360937581 3.59999999999994
    vertex -70.0136877541189 -222.991535198198 3.59999999999994
  endloop
endfacet
facet normal 0.0 0.0 -1.0
  outer loop
    vertex -69.5945925286063 -226.305619873021 3.59999999999994
    vertex -70.0136877541189 -222.991535198198 3.59999999999994
    vertex -69.6512508870424 -222.713427608652 3.59999999999994
  endloop
endfacet
facet normal 0.0 0.0 -1.0
  outer loop
    vertex -69.5945925286063 -226.305619873021 3.59999999999994
    vertex -69.6512508870424 -222.713427608652 3.59999999999994
    vertex -69.3731432974961 -222.350990741575 3.59999999999994
  endloop
endfacet
facet normal 0.0 0.0 -1.0
  outer loop
    vertex -69.5945925286063 -226.305619873021 3.59999999999994
    vertex -69.3731432974961 -222.350990741575 3.59999999999994
    vertex -68.3886877541189 -225.806117760497 3.59999999999994
  endloop
endfacet
facet normal 0.0 0.0 -1.0
  outer loop
    vertex -68.3886877541189 -225.806117760497 3.59999999999994
    vertex -69.3731432974961 -222.350990741575 3.59999999999994
    vertex -69.198317558113 -221.928924070505 3.59999999999994
  endloop
endfacet
facet normal 0.0 0.0 -1.0
  outer loop
    vertex -68.3886877541189 -225.806117760497 3.59999999999994
    vertex -69.198317558113 -221.928924070505 3.59999999999994
    vertex -69.1386877541189 -221.475990741575 3.59999999999994
  endloop
endfacet
facet normal 0.0 0.0 -1.0
  outer loop
    vertex -68.3886877541189 -225.806117760497 3.59999999999994
    vertex -69.1386877541189 -221.475990741575 3.59999999999994
    vertex -68.3886877541189 -217.145863722653 3.59999999999994
  endloop
endfacet
facet normal 0.0 0.0 -1.0
  outer loop
    vertex -68.3886877541189 -225.806117760497 3.59999999999994
    vertex -68.3886877541189 -217.145863722653 3.59999999999994
    vertex -67.3531538481861 -217.940456835643 3.59999999999994
  endloop
endfacet
facet normal 0.0 0.0 -1.0
  outer loop
    vertex -68.3886877541189 -225.806117760497 3.59999999999994
    vertex -67.3531538481861 -217.940456835643 3.59999999999994
    vertex -67.3531538481861 -225.011524647508 3.59999999999994
  endloop
endfacet
facet normal 0.0 0.0 -1.0
  outer loop
    vertex -67.3531538481861 -225.011524647508 3.59999999999994
    vertex -67.3531538481861 -217.940456835643 3.59999999999994
    vertex -66.5585607351967 -218.975990741575 3.59999999999994
  endloop
endfacet
facet normal 0.0 0.0 -1.0
  outer loop
    vertex -67.3531538481861 -225.011524647508 3.59999999999994
    vertex -66.5585607351967 -218.975990741575 3.59999999999994
    vertex -66.5585607351967 -223.975990741575 3.59999999999994
  endloop
endfacet
facet normal 0.0 0.0 -1.0
  outer loop
    vertex -66.5585607351967 -223.975990741575 3.59999999999994
    vertex -66.5585607351967 -218.975990741575 3.59999999999994
    vertex -66.0590586226735 -220.181895516063 3.59999999999994
  endloop
endfacet
facet normal 0.0 0.0 -1.0
  outer loop
    vertex -66.5585607351967 -223.975990741575 3.59999999999994
    vertex -66.0590586226735 -220.181895516063 3.59999999999994
    vertex -66.0590586226735 -222.770085967088 3.59999999999994
  endloop
endfacet
facet normal 0.0 0.0 -1.0
  outer loop
    vertex -66.0590586226735 -222.770085967088 3.59999999999994
    vertex -66.0590586226735 -220.181895516063 3.59999999999994
    vertex -65.8886877541189 -221.475990741575 3.59999999999994
  endloop
endfacet
facet normal -0.793353340291234 0.608761429008722 0.0
  outer loop
    vertex -74.4242216600516 -217.940456835643 15.9999999999901
    vertex -75.218814773041 -218.975990741575 3.59999999999994
    vertex -75.218814773041 -218.975990741575 15.9999999999901
  endloop
endfacet
facet normal -0.793353340291234 0.608761429008722 0.0
  outer loop
    vertex -75.218814773041 -218.975990741575 3.59999999999994
    vertex -74.4242216600516 -217.940456835643 15.9999999999901
    vertex -74.4242216600516 -217.940456835643 3.59999999999994
  endloop
endfacet
facet normal -0.99144486137381 0.130526192220055 0.0
  outer loop
    vertex -75.7183168855642 -220.181895516063 15.9999999999901
    vertex -75.8886877541188 -221.475990741575 3.59999999999994
    vertex -75.8886877541188 -221.475990741575 15.9999999999901
  endloop
endfacet
facet normal -0.99144486137381 0.130526192220055 0.0
  outer loop
    vertex -75.8886877541188 -221.475990741575 3.59999999999994
    vertex -75.7183168855642 -220.181895516063 15.9999999999901
    vertex -75.7183168855642 -220.181895516063 3.59999999999994
  endloop
endfacet
facet normal 0.0 0.0 1.0
  outer loop
    vertex -75.7183168855642 -222.770085967088 15.9999999999901
    vertex -75.7183168855642 -220.181895516063 15.9999999999901
    vertex -75.8886877541188 -221.475990741575 15.9999999999901
  endloop
endfacet
facet normal 0.0 0.0 1.0
  outer loop
    vertex -75.7183168855642 -220.181895516063 15.9999999999901
    vertex -75.7183168855642 -222.770085967088 15.9999999999901
    vertex -75.218814773041 -223.975990741575 15.9999999999901
  endloop
endfacet
facet normal 0.0 0.0 1.0
  outer loop
    vertex -75.7183168855642 -220.181895516063 15.9999999999901
    vertex -75.218814773041 -223.975990741575 15.9999999999901
    vertex -75.218814773041 -218.975990741575 15.9999999999901
  endloop
endfacet
facet normal 0.0 0.0 1.0
  outer loop
    vertex -75.218814773041 -218.975990741575 15.9999999999901
    vertex -75.218814773041 -223.975990741575 15.9999999999901
    vertex -74.4242216600516 -225.011524647508 15.9999999999901
  endloop
endfacet
facet normal 0.0 0.0 1.0
  outer loop
    vertex -75.218814773041 -218.975990741575 15.9999999999901
    vertex -74.4242216600516 -225.011524647508 15.9999999999901
    vertex -74.4242216600516 -217.940456835643 15.9999999999901
  endloop
endfacet
facet normal 0.0 0.0 1.0
  outer loop
    vertex -74.4242216600516 -217.940456835643 15.9999999999901
    vertex -74.4242216600516 -225.011524647508 15.9999999999901
    vertex -73.3886877541188 -225.806117760497 15.9999999999901
  endloop
endfacet
facet normal 0.0 0.0 1.0
  outer loop
    vertex -74.4242216600516 -217.940456835643 15.9999999999901
    vertex -73.3886877541188 -225.806117760497 15.9999999999901
    vertex -73.3886877541188 -217.145863722653 15.9999999999901
  endloop
endfacet
facet normal 0.0 0.0 1.0
  outer loop
    vertex -73.3886877541188 -217.145863722653 15.9999999999901
    vertex -73.3886877541188 -225.806117760497 15.9999999999901
    vertex -72.1827829796315 -226.305619873021 15.9999999999901
  endloop
endfacet
facet normal 0.0 0.0 1.0
  outer loop
    vertex -73.3886877541188 -217.145863722653 15.9999999999901
    vertex -72.1827829796315 -226.305619873021 15.9999999999901
    vertex -72.6386877541188 -221.475990741575 15.9999999999901
  endloop
endfacet
facet normal 0.0 0.0 1.0
  outer loop
    vertex -72.6386877541188 -221.475990741575 15.9999999999901
    vertex -72.1827829796315 -226.305619873021 15.9999999999901
    vertex -72.5790579501247 -221.928924070505 15.9999999999901
  endloop
endfacet
facet normal 0.0 0.0 1.0
  outer loop
    vertex -72.5790579501247 -221.928924070505 15.9999999999901
    vertex -72.1827829796315 -226.305619873021 15.9999999999901
    vertex -72.4042322107416 -222.350990741575 15.9999999999901
  endloop
endfacet
facet normal 0.0 0.0 1.0
  outer loop
    vertex -72.4042322107416 -222.350990741575 15.9999999999901
    vertex -72.1827829796315 -226.305619873021 15.9999999999901
    vertex -72.1261246211953 -222.713427608652 15.9999999999901
  endloop
endfacet
facet normal 0.0 0.0 1.0
  outer loop
    vertex -72.1261246211953 -222.713427608652 15.9999999999901
    vertex -72.1827829796315 -226.305619873021 15.9999999999901
    vertex -70.8886877541189 -226.475990741575 15.9999999999901
  endloop
endfacet
facet normal 0.0 0.0 1.0
  outer loop
    vertex -72.1261246211953 -222.713427608652 15.9999999999901
    vertex -70.8886877541189 -226.475990741575 15.9999999999901
    vertex -71.7636877541188 -222.991535198198 15.9999999999901
  endloop
endfacet
facet normal 0.0 0.0 1.0
  outer loop
    vertex -71.7636877541188 -222.991535198198 15.9999999999901
    vertex -70.8886877541189 -226.475990741575 15.9999999999901
    vertex -71.3416210830483 -223.166360937581 15.9999999999901
  endloop
endfacet
facet normal 0.0 0.0 1.0
  outer loop
    vertex -71.3416210830483 -223.166360937581 15.9999999999901
    vertex -70.8886877541189 -226.475990741575 15.9999999999901
    vertex -70.8886877541189 -223.225990741575 15.9999999999901
  endloop
endfacet
facet normal 0.0 0.0 1.0
  outer loop
    vertex -70.8886877541189 -223.225990741575 15.9999999999901
    vertex -70.8886877541189 -226.475990741575 15.9999999999901
    vertex -69.5945925286063 -226.305619873021 15.9999999999901
  endloop
endfacet
facet normal 0.0 0.0 1.0
  outer loop
    vertex -70.8886877541189 -223.225990741575 15.9999999999901
    vertex -69.5945925286063 -226.305619873021 15.9999999999901
    vertex -70.4357544251895 -223.166360937581 15.9999999999901
  endloop
endfacet
facet normal 0.0 0.0 1.0
  outer loop
    vertex -70.4357544251895 -223.166360937581 15.9999999999901
    vertex -69.5945925286063 -226.305619873021 15.9999999999901
    vertex -70.0136877541189 -222.991535198198 15.9999999999901
  endloop
endfacet
facet normal 0.0 0.0 1.0
  outer loop
    vertex -70.0136877541189 -222.991535198198 15.9999999999901
    vertex -69.5945925286063 -226.305619873021 15.9999999999901
    vertex -69.6512508870424 -222.713427608652 15.9999999999901
  endloop
endfacet
facet normal 0.0 0.0 1.0
  outer loop
    vertex -69.6512508870424 -222.713427608652 15.9999999999901
    vertex -69.5945925286063 -226.305619873021 15.9999999999901
    vertex -69.3731432974961 -222.350990741575 15.9999999999901
  endloop
endfacet
facet normal 0.0 0.0 1.0
  outer loop
    vertex -69.3731432974961 -222.350990741575 15.9999999999901
    vertex -69.5945925286063 -226.305619873021 15.9999999999901
    vertex -68.3886877541189 -225.806117760497 15.9999999999901
  endloop
endfacet
facet normal 0.0 0.0 1.0
  outer loop
    vertex -69.3731432974961 -222.350990741575 15.9999999999901
    vertex -68.3886877541189 -225.806117760497 15.9999999999901
    vertex -69.198317558113 -221.928924070505 15.9999999999901
  endloop
endfacet
facet normal 0.0 0.0 1.0
  outer loop
    vertex -69.198317558113 -221.928924070505 15.9999999999901
    vertex -68.3886877541189 -225.806117760497 15.9999999999901
    vertex -69.1386877541189 -221.475990741575 15.9999999999901
  endloop
endfacet
facet normal 0.0 0.0 1.0
  outer loop
    vertex -72.6386877541188 -221.475990741575 15.9999999999901
    vertex -72.1827829796315 -216.64636161013 15.9999999999901
    vertex -73.3886877541188 -217.145863722653 15.9999999999901
  endloop
endfacet
facet normal 0.0 0.0 1.0
  outer loop
    vertex -72.1827829796315 -216.64636161013 15.9999999999901
    vertex -72.6386877541188 -221.475990741575 15.9999999999901
    vertex -72.5790579501247 -221.023057412646 15.9999999999901
  endloop
endfacet
facet normal 0.0 0.0 1.0
  outer loop
    vertex -72.1827829796315 -216.64636161013 15.9999999999901
    vertex -72.5790579501247 -221.023057412646 15.9999999999901
    vertex -72.4042322107416 -220.600990741575 15.9999999999901
  endloop
endfacet
facet normal 0.0 0.0 1.0
  outer loop
    vertex -72.1827829796315 -216.64636161013 15.9999999999901
    vertex -72.4042322107416 -220.600990741575 15.9999999999901
    vertex -72.1261246211953 -220.238553874499 15.9999999999901
  endloop
endfacet
facet normal 0.0 0.0 1.0
  outer loop
    vertex -72.1827829796315 -216.64636161013 15.9999999999901
    vertex -72.1261246211953 -220.238553874499 15.9999999999901
    vertex -70.8886877541189 -216.475990741575 15.9999999999901
  endloop
endfacet
facet normal 0.0 0.0 1.0
  outer loop
    vertex -70.8886877541189 -216.475990741575 15.9999999999901
    vertex -72.1261246211953 -220.238553874499 15.9999999999901
    vertex -71.7636877541188 -219.960446284953 15.9999999999901
  endloop
endfacet
facet normal 0.0 0.0 1.0
  outer loop
    vertex -70.8886877541189 -216.475990741575 15.9999999999901
    vertex -71.7636877541188 -219.960446284953 15.9999999999901
    vertex -71.3416210830483 -219.785620545569 15.9999999999901
  endloop
endfacet
facet normal 0.0 0.0 1.0
  outer loop
    vertex -70.8886877541189 -216.475990741575 15.9999999999901
    vertex -71.3416210830483 -219.785620545569 15.9999999999901
    vertex -70.8886877541189 -219.725990741575 15.9999999999901
  endloop
endfacet
facet normal 0.0 0.0 1.0
  outer loop
    vertex -70.8886877541189 -216.475990741575 15.9999999999901
    vertex -70.8886877541189 -219.725990741575 15.9999999999901
    vertex -70.4357544251895 -219.785620545569 15.9999999999901
  endloop
endfacet
facet normal 0.0 0.0 1.0
  outer loop
    vertex -70.8886877541189 -216.475990741575 15.9999999999901
    vertex -70.4357544251895 -219.785620545569 15.9999999999901
    vertex -69.5945925286063 -216.64636161013 15.9999999999901
  endloop
endfacet
facet normal 0.0 0.0 1.0
  outer loop
    vertex -69.5945925286063 -216.64636161013 15.9999999999901
    vertex -70.4357544251895 -219.785620545569 15.9999999999901
    vertex -70.0136877541189 -219.960446284953 15.9999999999901
  endloop
endfacet
facet normal 0.0 0.0 1.0
  outer loop
    vertex -69.5945925286063 -216.64636161013 15.9999999999901
    vertex -70.0136877541189 -219.960446284953 15.9999999999901
    vertex -69.6512508870424 -220.238553874499 15.9999999999901
  endloop
endfacet
facet normal 0.0 0.0 1.0
  outer loop
    vertex -69.5945925286063 -216.64636161013 15.9999999999901
    vertex -69.6512508870424 -220.238553874499 15.9999999999901
    vertex -69.3731432974961 -220.600990741575 15.9999999999901
  endloop
endfacet
facet normal 0.0 0.0 1.0
  outer loop
    vertex -69.5945925286063 -216.64636161013 15.9999999999901
    vertex -69.3731432974961 -220.600990741575 15.9999999999901
    vertex -68.3886877541189 -217.145863722653 15.9999999999901
  endloop
endfacet
facet normal 0.0 0.0 1.0
  outer loop
    vertex -68.3886877541189 -217.145863722653 15.9999999999901
    vertex -69.3731432974961 -220.600990741575 15.9999999999901
    vertex -69.198317558113 -221.023057412646 15.9999999999901
  endloop
endfacet
facet normal 0.0 0.0 1.0
  outer loop
    vertex -68.3886877541189 -217.145863722653 15.9999999999901
    vertex -69.198317558113 -221.023057412646 15.9999999999901
    vertex -69.1386877541189 -221.475990741575 15.9999999999901
  endloop
endfacet
facet normal 0.0 0.0 1.0
  outer loop
    vertex -68.3886877541189 -217.145863722653 15.9999999999901
    vertex -69.1386877541189 -221.475990741575 15.9999999999901
    vertex -68.3886877541189 -225.806117760497 15.9999999999901
  endloop
endfacet
facet normal 0.0 0.0 1.0
  outer loop
    vertex -68.3886877541189 -217.145863722653 15.9999999999901
    vertex -68.3886877541189 -225.806117760497 15.9999999999901
    vertex -67.3531538481861 -225.011524647508 15.9999999999901
  endloop
endfacet
facet normal 0.0 0.0 1.0
  outer loop
    vertex -68.3886877541189 -217.145863722653 15.9999999999901
    vertex -67.3531538481861 -225.011524647508 15.9999999999901
    vertex -67.3531538481861 -217.940456835643 15.9999999999901
  endloop
endfacet
facet normal 0.0 0.0 1.0
  outer loop
    vertex -67.3531538481861 -217.940456835643 15.9999999999901
    vertex -67.3531538481861 -225.011524647508 15.9999999999901
    vertex -66.5585607351967 -223.975990741575 15.9999999999901
  endloop
endfacet
facet normal 0.0 0.0 1.0
  outer loop
    vertex -67.3531538481861 -217.940456835643 15.9999999999901
    vertex -66.5585607351967 -223.975990741575 15.9999999999901
    vertex -66.5585607351967 -218.975990741575 15.9999999999901
  endloop
endfacet
facet normal 0.0 0.0 1.0
  outer loop
    vertex -66.5585607351967 -218.975990741575 15.9999999999901
    vertex -66.5585607351967 -223.975990741575 15.9999999999901
    vertex -66.0590586226735 -222.770085967088 15.9999999999901
  endloop
endfacet
facet normal 0.0 0.0 1.0
  outer loop
    vertex -66.5585607351967 -218.975990741575 15.9999999999901
    vertex -66.0590586226735 -222.770085967088 15.9999999999901
    vertex -66.0590586226735 -220.181895516063 15.9999999999901
  endloop
endfacet
facet normal 0.0 0.0 1.0
  outer loop
    vertex -66.0590586226735 -220.181895516063 15.9999999999901
    vertex -66.0590586226735 -222.770085967088 15.9999999999901
    vertex -65.8886877541189 -221.475990741575 15.9999999999901
  endloop
endfacet
facet normal -0.923879532511288 0.382683432365087 0.0
  outer loop
    vertex -75.218814773041 -218.975990741575 15.9999999999901
    vertex -75.7183168855642 -220.181895516063 3.59999999999994
    vertex -75.7183168855642 -220.181895516063 15.9999999999901
  endloop
endfacet
facet normal -0.923879532511288 0.382683432365087 0.0
  outer loop
    vertex -75.7183168855642 -220.181895516063 3.59999999999994
    vertex -75.218814773041 -218.975990741575 15.9999999999901
    vertex -75.218814773041 -218.975990741575 3.59999999999994
  endloop
endfacet
facet normal -0.130526192220085 -0.991444861373806 -0.0
  outer loop
    vertex -70.4357544251895 -219.785620545569 15.9999999999901
    vertex -70.8886877541189 -219.725990741575 3.59999999999994
    vertex -70.4357544251895 -219.785620545569 3.59999999999994
  endloop
endfacet
facet normal -0.130526192220085 -0.991444861373806 -0.0
  outer loop
    vertex -70.8886877541189 -219.725990741575 3.59999999999994
    vertex -70.4357544251895 -219.785620545569 15.9999999999901
    vertex -70.8886877541189 -219.725990741575 15.9999999999901
  endloop
endfacet
facet normal -0.382683432365087 0.923879532511288 0.0
  outer loop
    vertex -73.3886877541188 -217.145863722653 15.9999999999901
    vertex -72.1827829796315 -216.64636161013 3.59999999999994
    vertex -73.3886877541188 -217.145863722653 3.59999999999994
  endloop
endfacet
facet normal -0.382683432365087 0.923879532511288 0.0
  outer loop
    vertex -72.1827829796315 -216.64636161013 3.59999999999994
    vertex -73.3886877541188 -217.145863722653 15.9999999999901
    vertex -72.1827829796315 -216.64636161013 15.9999999999901
  endloop
endfacet
facet normal 0.130526192220057 -0.99144486137381 0.0
  outer loop
    vertex -69.5945925286063 -226.305619873021 15.9999999999901
    vertex -70.8886877541189 -226.475990741575 3.59999999999994
    vertex -69.5945925286063 -226.305619873021 3.59999999999994
  endloop
endfacet
facet normal 0.130526192220057 -0.99144486137381 0.0
  outer loop
    vertex -70.8886877541189 -226.475990741575 3.59999999999994
    vertex -69.5945925286063 -226.305619873021 15.9999999999901
    vertex -70.8886877541189 -226.475990741575 15.9999999999901
  endloop
endfacet
facet normal -0.923879532511283 -0.3826834323651 -0.0
  outer loop
    vertex -75.7183168855642 -222.770085967088 15.9999999999901
    vertex -75.218814773041 -223.975990741575 3.59999999999994
    vertex -75.218814773041 -223.975990741575 15.9999999999901
  endloop
endfacet
facet normal -0.923879532511283 -0.3826834323651 -0.0
  outer loop
    vertex -75.218814773041 -223.975990741575 3.59999999999994
    vertex -75.7183168855642 -222.770085967088 15.9999999999901
    vertex -75.7183168855642 -222.770085967088 3.59999999999994
  endloop
endfacet
facet normal 0.382683432365087 0.923879532511288 0.0
  outer loop
    vertex -69.5945925286063 -216.64636161013 15.9999999999901
    vertex -68.3886877541189 -217.145863722653 3.59999999999994
    vertex -69.5945925286063 -216.64636161013 3.59999999999994
  endloop
endfacet
facet normal 0.382683432365087 0.923879532511288 0.0
  outer loop
    vertex -68.3886877541189 -217.145863722653 3.59999999999994
    vertex -69.5945925286063 -216.64636161013 15.9999999999901
    vertex -68.3886877541189 -217.145863722653 15.9999999999901
  endloop
endfacet
facet normal -0.130526192220092 0.991444861373805 0.0
  outer loop
    vertex -72.1827829796315 -216.64636161013 15.9999999999901
    vertex -70.8886877541189 -216.475990741575 3.59999999999994
    vertex -72.1827829796315 -216.64636161013 3.59999999999994
  endloop
endfacet
facet normal -0.130526192220092 0.991444861373805 0.0
  outer loop
    vertex -70.8886877541189 -216.475990741575 3.59999999999994
    vertex -72.1827829796315 -216.64636161013 15.9999999999901
    vertex -70.8886877541189 -216.475990741575 15.9999999999901
  endloop
endfacet
facet normal -0.382683432365087 -0.923879532511288 -0.0
  outer loop
    vertex -72.1827829796315 -226.305619873021 15.9999999999901
    vertex -73.3886877541188 -225.806117760497 3.59999999999994
    vertex -72.1827829796315 -226.305619873021 3.59999999999994
  endloop
endfacet
facet normal -0.382683432365087 -0.923879532511288 -0.0
  outer loop
    vertex -73.3886877541188 -225.806117760497 3.59999999999994
    vertex -72.1827829796315 -226.305619873021 15.9999999999901
    vertex -73.3886877541188 -225.806117760497 15.9999999999901
  endloop
endfacet
facet normal 0.608761429008711 -0.793353340291243 0.0
  outer loop
    vertex -67.3531538481861 -225.011524647508 15.9999999999901
    vertex -68.3886877541189 -225.806117760497 3.59999999999994
    vertex -67.3531538481861 -225.011524647508 3.59999999999994
  endloop
endfacet
facet normal 0.608761429008711 -0.793353340291243 0.0
  outer loop
    vertex -68.3886877541189 -225.806117760497 3.59999999999994
    vertex -67.3531538481861 -225.011524647508 15.9999999999901
    vertex -68.3886877541189 -225.806117760497 15.9999999999901
  endloop
endfacet
facet normal -0.130526192220057 -0.99144486137381 -0.0
  outer loop
    vertex -70.8886877541189 -226.475990741575 15.9999999999901
    vertex -72.1827829796315 -226.305619873021 3.59999999999994
    vertex -70.8886877541189 -226.475990741575 3.59999999999994
  endloop
endfacet
facet normal -0.130526192220057 -0.99144486137381 -0.0
  outer loop
    vertex -72.1827829796315 -226.305619873021 3.59999999999994
    vertex -70.8886877541189 -226.475990741575 15.9999999999901
    vertex -72.1827829796315 -226.305619873021 15.9999999999901
  endloop
endfacet
facet normal 0.923879532511283 0.3826834323651 0.0
  outer loop
    vertex -66.5585607351967 -218.975990741575 3.59999999999994
    vertex -66.0590586226735 -220.181895516063 15.9999999999901
    vertex -66.0590586226735 -220.181895516063 3.59999999999994
  endloop
endfacet
facet normal 0.923879532511283 0.3826834323651 0.0
  outer loop
    vertex -66.0590586226735 -220.181895516063 15.9999999999901
    vertex -66.5585607351967 -218.975990741575 3.59999999999994
    vertex -66.5585607351967 -218.975990741575 15.9999999999901
  endloop
endfacet
facet normal 0.382683432365087 -0.923879532511288 0.0
  outer loop
    vertex -68.3886877541189 -225.806117760497 15.9999999999901
    vertex -69.5945925286063 -226.305619873021 3.59999999999994
    vertex -68.3886877541189 -225.806117760497 3.59999999999994
  endloop
endfacet
facet normal 0.382683432365087 -0.923879532511288 0.0
  outer loop
    vertex -69.5945925286063 -226.305619873021 3.59999999999994
    vertex -68.3886877541189 -225.806117760497 15.9999999999901
    vertex -69.5945925286063 -226.305619873021 15.9999999999901
  endloop
endfacet
endsolid Omnidroid
