M48
; DRILL file {KiCad 7.0.8} date Thu Feb 22 19:19:42 2024
; FORMAT={-:-/ absolute / metric / decimal}
; #@! TF.CreationDate,2024-02-22T19:19:42-05:00
; #@! TF.GenerationSoftware,Kicad,Pcbnew,7.0.8
; #@! TF.FileFunction,Plated,1,2,PTH
FMAT,2
METRIC
; #@! TA.AperFunction,Plated,PTH,ComponentDrill
T1C0.600
; #@! TA.AperFunction,Plated,PTH,ComponentDrill
T2C0.762
; #@! TA.AperFunction,Plated,PTH,ComponentDrill
T3C0.800
; #@! TA.AperFunction,Plated,PTH,ComponentDrill
T4C0.900
; #@! TA.AperFunction,Plated,PTH,ViaDrill
T5C1.000
; #@! TA.AperFunction,Plated,PTH,ComponentDrill
T6C1.000
; #@! TA.AperFunction,Plated,PTH,ComponentDrill
T7C1.020
; #@! TA.AperFunction,Plated,PTH,ComponentDrill
T8C1.100
%
G90
G05
T1
X2.794Y68.11
X2.794Y66.11
X2.794Y64.11
X2.794Y62.11
X2.794Y60.11
X2.794Y58.11
X2.794Y56.11
X2.794Y54.11
X20.066Y68.11
X20.066Y66.11
X20.066Y64.11
X20.066Y62.11
X20.066Y60.11
X20.066Y58.11
X20.066Y56.11
X20.066Y54.11
X54.925Y93.904
X54.925Y76.632
X56.925Y93.904
X56.925Y76.632
X58.925Y93.904
X58.925Y76.632
X60.925Y93.904
X60.925Y76.632
X62.925Y93.904
X62.925Y76.632
X64.925Y93.904
X64.925Y76.632
X66.925Y93.904
X66.925Y76.632
X68.925Y93.904
X68.925Y76.632
T2
X8.89Y24.28
X8.89Y6.5
X20.645Y89.84
X20.645Y80.696
X35.885Y89.84
X35.885Y80.696
X49.53Y24.28
X49.53Y6.5
X52.705Y23.772
X52.705Y14.628
X67.945Y23.772
X67.945Y14.628
T3
X1.905Y24.28
X1.905Y16.66
X35.56Y54.76
X43.18Y54.76
T4
X2.87Y92.888
X2.87Y77.648
X5.41Y92.888
X5.41Y77.648
X7.95Y92.888
X7.95Y77.648
X10.49Y92.888
X10.49Y77.648
X13.03Y92.888
X13.03Y77.648
X15.57Y92.888
X15.57Y77.648
X18.11Y92.888
X18.11Y77.648
X20.65Y92.888
X20.65Y77.648
X23.19Y92.888
X23.19Y77.648
X25.73Y92.888
X25.73Y77.648
X28.27Y92.888
X28.27Y77.648
X30.81Y92.888
X30.81Y77.648
X33.35Y92.888
X33.35Y77.648
X35.89Y92.888
X35.89Y77.648
X38.43Y92.888
X38.43Y77.648
X40.97Y92.888
X40.97Y77.648
X43.51Y92.888
X43.51Y77.648
X46.05Y92.888
X46.05Y77.648
X48.26Y66.825
X48.26Y64.285
X48.26Y61.745
X48.26Y59.205
X48.26Y56.665
X48.26Y54.125
X48.59Y92.888
X48.59Y77.648
X51.13Y92.888
X51.13Y77.648
X53.34Y46.505
X53.34Y31.265
X55.88Y46.505
X55.88Y31.265
X58.42Y46.505
X58.42Y31.265
X60.96Y46.505
X60.96Y31.265
X63.5Y66.825
X63.5Y64.285
X63.5Y61.745
X63.5Y59.205
X63.5Y56.665
X63.5Y54.125
X63.5Y46.505
X63.5Y31.265
X66.04Y46.505
X66.04Y31.265
T5
X33.02Y53.236
T6
X7.945Y97.46
X10.485Y97.46
X10.8Y2.69
X13.025Y97.46
X13.34Y2.69
X15.565Y97.46
X19.68Y2.69
X22.22Y2.69
X29.845Y2.69
X32.385Y2.69
X40.005Y2.69
X42.545Y2.69
X53.335Y27.455
X53.34Y10.945
X53.34Y8.405
X53.34Y5.865
X55.875Y50.315
X55.875Y27.455
X57.15Y10.93
X57.15Y8.39
X57.15Y5.85
X58.415Y50.315
X60.96Y10.93
X60.96Y8.39
X60.96Y5.85
X67.31Y64.92
X67.31Y62.38
X67.31Y58.575
X67.31Y56.035
T7
X12.7Y50.315
X12.7Y27.455
X15.24Y50.315
X15.24Y27.455
X17.78Y50.315
X17.78Y27.455
X20.32Y50.315
X20.32Y27.455
X22.86Y50.315
X22.86Y27.455
X25.4Y50.315
X25.4Y27.455
X27.94Y50.315
X27.94Y27.455
X30.48Y50.315
X30.48Y27.455
X33.02Y50.315
X33.02Y27.455
X35.56Y50.315
X35.56Y27.455
X38.1Y50.315
X38.1Y27.455
X40.64Y50.315
X40.64Y27.455
X43.18Y50.315
X43.18Y27.455
T8
X5.715Y24.28
X5.715Y16.66
T0
M30
