solid Omnidroid
facet normal -0.500000000000001 0.866025403784438 2.74870755107247e-016
  outer loop
    vertex -118.689957943343 -278.681762107567 3.00000000000041
    vertex -79.8886877541207 -256.27983831892 4.10045686294325e-013
    vertex -118.689957943343 -278.681762107567 4.10045686294325e-013
  endloop
endfacet
facet normal -0.500000000000001 0.866025403784438 2.74870755107247e-016
  outer loop
    vertex -79.8886877541207 -256.27983831892 4.10045686294325e-013
    vertex -118.689957943343 -278.681762107567 3.00000000000041
    vertex -79.8886877541207 -256.27983831892 3.00000000000041
  endloop
endfacet
facet normal -0.866025403784367 -0.500000000000124 -1.59992855064319e-016
  outer loop
    vertex -118.689957943343 -278.681762107567 3.00000000000041
    vertex -115.931231515286 -283.460016445142 1.17815943667665e-012
    vertex -115.931231515286 -283.460016445142 3.00000000000118
  endloop
endfacet
facet normal -0.866025403784367 -0.500000000000124 -1.59992855064319e-016
  outer loop
    vertex -115.931231515286 -283.460016445142 1.17815943667665e-012
    vertex -118.689957943343 -278.681762107567 3.00000000000041
    vertex -118.689957943343 -278.681762107567 4.10045686294325e-013
  endloop
endfacet
facet normal 0.866025403784433 -0.500000000000009 -2.20243336501908e-017
  outer loop
    vertex -23.0874175648987 -278.681762107567 4.10045686294325e-013
    vertex -32.0874175648987 -294.270219375687 3.00000000000041
    vertex -32.0874175648987 -294.270219375687 4.10045686294325e-013
  endloop
endfacet
facet normal 0.866025403784433 -0.500000000000009 -2.20243336501908e-017
  outer loop
    vertex -32.0874175648987 -294.270219375687 3.00000000000041
    vertex -23.0874175648987 -278.681762107567 4.10045686294325e-013
    vertex -27.5874175648987 -286.475990741627 3.00000000000041
  endloop
endfacet
facet normal 0.866025403784433 -0.500000000000009 -2.20243336501908e-017
  outer loop
    vertex -27.5874175648987 -286.475990741627 3.00000000000041
    vertex -23.0874175648987 -278.681762107567 4.10045686294325e-013
    vertex -23.0874175648987 -278.681762107567 3.00000000000041
  endloop
endfacet
facet normal -0.500000000000001 -0.866025403784438 -3.16066984439958e-016
  outer loop
    vertex -32.0874175648987 -294.270219375687 3.00000000000041
    vertex -70.8886877541206 -271.86829558704 4.10045686294325e-013
    vertex -32.0874175648987 -294.270219375687 4.10045686294325e-013
  endloop
endfacet
facet normal -0.500000000000001 -0.866025403784438 -3.16066984439958e-016
  outer loop
    vertex -70.8886877541206 -271.86829558704 4.10045686294325e-013
    vertex -32.0874175648987 -294.270219375687 3.00000000000041
    vertex -70.8886877541206 -271.86829558704 3.00000000000041
  endloop
endfacet
facet normal -1.0 -1.03121346376243e-015 -1.12249935604529e-018
  outer loop
    vertex -79.8886877541207 -211.475990741627 3.00000000000043
    vertex -79.8886877541207 -256.27983831892 4.10045686294325e-013
    vertex -79.8886877541207 -256.27983831892 3.00000000000041
  endloop
endfacet
facet normal -1.0 -1.03121346376243e-015 -1.12249935604529e-018
  outer loop
    vertex -79.8886877541207 -256.27983831892 4.10045686294325e-013
    vertex -79.8886877541207 -211.475990741627 3.00000000000043
    vertex -79.8886877541207 -211.475990741627 4.33146851719357e-013
  endloop
endfacet
facet normal 0.500000000000002 0.866025403784438 2.75993254463291e-016
  outer loop
    vertex -61.8886877541205 -256.27983831892 3.00000000000041
    vertex -23.0874175648987 -278.681762107567 4.10045686294325e-013
    vertex -61.8886877541205 -256.27983831892 4.10045686294325e-013
  endloop
endfacet
facet normal 0.500000000000002 0.866025403784438 2.75993254463291e-016
  outer loop
    vertex -23.0874175648987 -278.681762107567 4.10045686294325e-013
    vertex -61.8886877541205 -256.27983831892 3.00000000000041
    vertex -23.0874175648987 -278.681762107567 3.00000000000041
  endloop
endfacet
facet normal 1.0 5.15606731881218e-015 1.12249935604661e-018
  outer loop
    vertex -61.8886877541207 -211.475990741627 4.33146851719357e-013
    vertex -61.8886877541205 -256.27983831892 3.00000000000041
    vertex -61.8886877541205 -256.27983831892 4.10045686294325e-013
  endloop
endfacet
facet normal 1.0 5.15606731881218e-015 1.12249935604661e-018
  outer loop
    vertex -61.8886877541205 -256.27983831892 3.00000000000041
    vertex -61.8886877541207 -211.475990741627 4.33146851719357e-013
    vertex -61.8886877541207 -211.475990741627 3.00000000000043
  endloop
endfacet
facet normal -0.866025403784559 -0.499999999999792 -1.59992855064214e-016
  outer loop
    vertex -114.189957943348 -286.475990741617 3.00000000000051
    vertex -112.782017704733 -288.91461476892 0.0
    vertex -112.782017704733 -288.91461476892 3.0
  endloop
endfacet
facet normal -0.866025403784559 -0.499999999999792 -1.59992855064214e-016
  outer loop
    vertex -112.782017704733 -288.91461476892 0.0
    vertex -114.189957943348 -286.475990741617 3.00000000000051
    vertex -115.931231515286 -283.460016445142 1.17815943667665e-012
  endloop
endfacet
facet normal -0.866025403784559 -0.499999999999792 -1.59992855064214e-016
  outer loop
    vertex -115.931231515286 -283.460016445142 1.17815943667665e-012
    vertex -114.189957943348 -286.475990741617 3.00000000000051
    vertex -115.931231515286 -283.460016445142 3.00000000000118
  endloop
endfacet
facet normal 5.89370966860299e-015 -1.21905989770655e-014 1.0
  outer loop
    vertex -112.782017704733 -288.91461476892 3.0
    vertex -107.045248362126 -282.350990741619 3.0000000000005
    vertex -114.189957943348 -286.475990741617 3.00000000000051
  endloop
endfacet
facet normal 5.89370966860299e-015 -1.21905989770655e-014 1.0
  outer loop
    vertex -107.045248362126 -282.350990741619 3.0000000000005
    vertex -112.782017704733 -288.91461476892 3.0
    vertex -109.689957943343 -294.270219375687 3.00000000000041
  endloop
endfacet
facet normal 5.89370966860299e-015 -1.21905989770655e-014 1.0
  outer loop
    vertex -107.045248362126 -282.350990741619 3.0000000000005
    vertex -109.689957943343 -294.270219375687 3.00000000000041
    vertex -106.767140772579 -282.713427608696 3.00000000000051
  endloop
endfacet
facet normal 5.89370966860299e-015 -1.21905989770655e-014 1.0
  outer loop
    vertex -106.767140772579 -282.713427608696 3.00000000000051
    vertex -109.689957943343 -294.270219375687 3.00000000000041
    vertex -106.404703905503 -282.991535198242 3.00000000000051
  endloop
endfacet
facet normal 5.89370966860299e-015 -1.21905989770655e-014 1.0
  outer loop
    vertex -106.404703905503 -282.991535198242 3.00000000000051
    vertex -109.689957943343 -294.270219375687 3.00000000000041
    vertex -105.982637234432 -283.166360937625 3.00000000000051
  endloop
endfacet
facet normal 5.89370966860299e-015 -1.21905989770655e-014 1.0
  outer loop
    vertex -105.982637234432 -283.166360937625 3.00000000000051
    vertex -109.689957943343 -294.270219375687 3.00000000000041
    vertex -105.529703905503 -283.225990741619 3.00000000000051
  endloop
endfacet
facet normal 5.89370966860299e-015 -1.21905989770655e-014 1.0
  outer loop
    vertex -105.529703905503 -283.225990741619 3.00000000000051
    vertex -109.689957943343 -294.270219375687 3.00000000000041
    vertex -105.076770576574 -283.166360937625 3.00000000000051
  endloop
endfacet
facet normal 5.89370966860299e-015 -1.21905989770655e-014 1.0
  outer loop
    vertex -105.076770576574 -283.166360937625 3.00000000000051
    vertex -109.689957943343 -294.270219375687 3.00000000000041
    vertex -70.8886877541206 -271.86829558704 3.00000000000041
  endloop
endfacet
facet normal 5.89370966860299e-015 -1.21905989770655e-014 1.0
  outer loop
    vertex -105.076770576574 -283.166360937625 3.00000000000051
    vertex -70.8886877541206 -271.86829558704 3.00000000000041
    vertex -104.654703905503 -282.991535198242 3.00000000000051
  endloop
endfacet
facet normal 5.89370966860299e-015 -1.21905989770655e-014 1.0
  outer loop
    vertex -104.654703905503 -282.991535198242 3.00000000000051
    vertex -70.8886877541206 -271.86829558704 3.00000000000041
    vertex -104.292267038426 -282.713427608696 3.00000000000051
  endloop
endfacet
facet normal 5.89370966860299e-015 -1.21905989770655e-014 1.0
  outer loop
    vertex -104.292267038426 -282.713427608696 3.00000000000051
    vertex -70.8886877541206 -271.86829558704 3.00000000000041
    vertex -104.01415944888 -282.35099074162 3.0000000000005
  endloop
endfacet
facet normal 5.89370966860299e-015 -1.21905989770655e-014 1.0
  outer loop
    vertex -104.01415944888 -282.35099074162 3.0000000000005
    vertex -70.8886877541206 -271.86829558704 3.00000000000041
    vertex -103.839333709497 -281.928924070549 3.0000000000005
  endloop
endfacet
facet normal 5.89370966860299e-015 -1.21905989770655e-014 1.0
  outer loop
    vertex -103.839333709497 -281.928924070549 3.0000000000005
    vertex -70.8886877541206 -271.86829558704 3.00000000000041
    vertex -103.779703905503 -281.47599074162 3.00000000000049
  endloop
endfacet
facet normal 5.89370966860299e-015 -1.21905989770655e-014 1.0
  outer loop
    vertex -103.779703905503 -281.47599074162 3.00000000000049
    vertex -70.8886877541206 -271.86829558704 3.00000000000041
    vertex -75.3886877541207 -264.07406695298 3.00000000000041
  endloop
endfacet
facet normal 5.89370966860299e-015 -1.21905989770655e-014 1.0
  outer loop
    vertex -103.839333709497 -281.02305741269 3.00000000000048
    vertex -75.3886877541207 -264.07406695298 3.00000000000041
    vertex -104.01415944888 -280.60099074162 3.00000000000048
  endloop
endfacet
facet normal 5.89370966860299e-015 -1.21905989770655e-014 1.0
  outer loop
    vertex -75.3886877541207 -264.07406695298 3.00000000000041
    vertex -103.839333709497 -281.02305741269 3.00000000000048
    vertex -103.779703905503 -281.47599074162 3.00000000000049
  endloop
endfacet
facet normal -0.866025403784381 -0.500000000000099 -1.59992855064312e-016
  outer loop
    vertex -112.782017704733 -288.91461476892 3.0
    vertex -109.689957943343 -294.270219375687 4.10045686294325e-013
    vertex -109.689957943343 -294.270219375687 3.00000000000041
  endloop
endfacet
facet normal -0.866025403784381 -0.500000000000099 -1.59992855064312e-016
  outer loop
    vertex -109.689957943343 -294.270219375687 4.10045686294325e-013
    vertex -112.782017704733 -288.91461476892 3.0
    vertex -112.782017704733 -288.91461476892 0.0
  endloop
endfacet
facet normal 0.500000000000002 -0.866025403784437 2.52853587551964e-016
  outer loop
    vertex -70.8886877541206 -271.86829558704 3.00000000000041
    vertex -109.689957943343 -294.270219375687 4.10045686294325e-013
    vertex -70.8886877541206 -271.86829558704 4.10045686294325e-013
  endloop
endfacet
facet normal 0.500000000000002 -0.866025403784437 2.52853587551964e-016
  outer loop
    vertex -109.689957943343 -294.270219375687 4.10045686294325e-013
    vertex -70.8886877541206 -271.86829558704 3.00000000000041
    vertex -109.689957943343 -294.270219375687 3.00000000000041
  endloop
endfacet
facet normal 2.42008956370326e-013 1.0 1.26290620539784e-015
  outer loop
    vertex -73.7045682313405 -211.475990741626 3.00000000000003
    vertex -67.4061406102323 -211.475990741628 1.20414824777981e-012
    vertex -73.7045682313405 -211.475990741626 2.59888111031614e-014
  endloop
endfacet
facet normal 2.42008956370326e-013 1.0 1.26290620539784e-015
  outer loop
    vertex -67.4061406102323 -211.475990741628 1.20414824777981e-012
    vertex -73.7045682313405 -211.475990741626 3.00000000000003
    vertex -70.8886877541207 -211.475990741627 3.00000000000043
  endloop
endfacet
facet normal 2.42008956370326e-013 1.0 1.26290620539784e-015
  outer loop
    vertex -67.4061406102323 -211.475990741628 1.20414824777981e-012
    vertex -70.8886877541207 -211.475990741627 3.00000000000043
    vertex -67.4061406102323 -211.475990741628 3.0000000000012
  endloop
endfacet
facet normal -1.1206687713555e-013 1.0 -6.24017105971967e-030
  outer loop
    vertex -79.8886877541207 -211.475990741627 4.33146851719357e-013
    vertex -73.7045682313405 -211.475990741626 3.00000000000003
    vertex -73.7045682313405 -211.475990741626 2.59888111031614e-014
  endloop
endfacet
facet normal -1.1206687713555e-013 1.0 -6.24017105971967e-030
  outer loop
    vertex -73.7045682313405 -211.475990741626 3.00000000000003
    vertex -79.8886877541207 -211.475990741627 4.33146851719357e-013
    vertex -79.8886877541207 -211.475990741627 3.00000000000043
  endloop
endfacet
facet normal -1.50729326917577e-013 1.0 3.18041484212427e-016
  outer loop
    vertex -67.4061406102323 -211.475990741628 1.20414824777981e-012
    vertex -61.8886877541207 -211.475990741627 3.00000000000043
    vertex -61.8886877541207 -211.475990741627 4.33146851719357e-013
  endloop
endfacet
facet normal -1.50729326917577e-013 1.0 3.18041484212427e-016
  outer loop
    vertex -61.8886877541207 -211.475990741627 3.00000000000043
    vertex -67.4061406102323 -211.475990741628 1.20414824777981e-012
    vertex -67.4061406102323 -211.475990741628 3.0000000000012
  endloop
endfacet
facet normal 1.12249935604497e-018 3.18041484212427e-016 -1.0
  outer loop
    vertex -73.7045682313405 -211.475990741626 2.59888111031614e-014
    vertex -79.8886877541207 -256.27983831892 4.10045686294325e-013
    vertex -79.8886877541207 -211.475990741627 4.33146851719357e-013
  endloop
endfacet
facet normal 1.12249935604497e-018 3.18041484212427e-016 -1.0
  outer loop
    vertex -79.8886877541207 -256.27983831892 4.10045686294325e-013
    vertex -115.931231515286 -283.460016445142 1.17815943667665e-012
    vertex -118.689957943343 -278.681762107567 4.10045686294325e-013
  endloop
endfacet
facet normal 1.12249935604497e-018 3.18041484212427e-016 -1.0
  outer loop
    vertex -115.931231515286 -283.460016445142 1.17815943667665e-012
    vertex -79.8886877541207 -256.27983831892 4.10045686294325e-013
    vertex -112.782017704733 -288.91461476892 0.0
  endloop
endfacet
facet normal 1.12249935604497e-018 3.18041484212427e-016 -1.0
  outer loop
    vertex -112.782017704733 -288.91461476892 0.0
    vertex -79.8886877541207 -256.27983831892 4.10045686294325e-013
    vertex -109.689957943343 -294.270219375687 4.10045686294325e-013
  endloop
endfacet
facet normal 1.12249935604497e-018 3.18041484212427e-016 -1.0
  outer loop
    vertex -109.689957943343 -294.270219375687 4.10045686294325e-013
    vertex -79.8886877541207 -256.27983831892 4.10045686294325e-013
    vertex -70.8886877541206 -271.86829558704 4.10045686294325e-013
  endloop
endfacet
facet normal 1.12249935604497e-018 3.18041484212427e-016 -1.0
  outer loop
    vertex -70.8886877541206 -271.86829558704 4.10045686294325e-013
    vertex -79.8886877541207 -256.27983831892 4.10045686294325e-013
    vertex -73.7045682313405 -211.475990741626 2.59888111031614e-014
  endloop
endfacet
facet normal 1.12249935604497e-018 3.18041484212427e-016 -1.0
  outer loop
    vertex -70.8886877541206 -271.86829558704 4.10045686294325e-013
    vertex -73.7045682313405 -211.475990741626 2.59888111031614e-014
    vertex -67.4061406102323 -211.475990741628 1.20414824777981e-012
  endloop
endfacet
facet normal 1.12249935604497e-018 3.18041484212427e-016 -1.0
  outer loop
    vertex -70.8886877541206 -271.86829558704 4.10045686294325e-013
    vertex -67.4061406102323 -211.475990741628 1.20414824777981e-012
    vertex -61.8886877541205 -256.27983831892 4.10045686294325e-013
  endloop
endfacet
facet normal 1.12249935604497e-018 3.18041484212427e-016 -1.0
  outer loop
    vertex -70.8886877541206 -271.86829558704 4.10045686294325e-013
    vertex -61.8886877541205 -256.27983831892 4.10045686294325e-013
    vertex -32.0874175648987 -294.270219375687 4.10045686294325e-013
  endloop
endfacet
facet normal 1.12249935604497e-018 3.18041484212427e-016 -1.0
  outer loop
    vertex -61.8886877541205 -256.27983831892 4.10045686294325e-013
    vertex -67.4061406102323 -211.475990741628 1.20414824777981e-012
    vertex -61.8886877541207 -211.475990741627 4.33146851719357e-013
  endloop
endfacet
facet normal 1.12249935604497e-018 3.18041484212427e-016 -1.0
  outer loop
    vertex -32.0874175648987 -294.270219375687 4.10045686294325e-013
    vertex -61.8886877541205 -256.27983831892 4.10045686294325e-013
    vertex -23.0874175648987 -278.681762107567 4.10045686294325e-013
  endloop
endfacet
facet normal -1.35207975751284e-014 -4.60540400357914e-015 1.0
  outer loop
    vertex -70.8886877541206 -256.27983831892 3.00000000000041
    vertex -70.4357544251913 -223.166360937633 3.00000000000042
    vertex -70.8886877541207 -223.225990741627 3.00000000000042
  endloop
endfacet
facet normal -1.35207975751284e-014 -4.60540400357914e-015 1.0
  outer loop
    vertex -70.4357544251913 -223.166360937633 3.00000000000042
    vertex -70.8886877541206 -256.27983831892 3.00000000000041
    vertex -61.8886877541205 -256.27983831892 3.00000000000041
  endloop
endfacet
facet normal -1.35207975751284e-014 -4.60540400357914e-015 1.0
  outer loop
    vertex -70.4357544251913 -223.166360937633 3.00000000000042
    vertex -61.8886877541205 -256.27983831892 3.00000000000041
    vertex -70.0136877541207 -222.991535198249 3.00000000000041
  endloop
endfacet
facet normal -1.35207975751284e-014 -4.60540400357914e-015 1.0
  outer loop
    vertex -70.0136877541207 -222.991535198249 3.00000000000041
    vertex -61.8886877541205 -256.27983831892 3.00000000000041
    vertex -69.6512508870442 -222.713427608703 3.00000000000041
  endloop
endfacet
facet normal -1.35207975751284e-014 -4.60540400357914e-015 1.0
  outer loop
    vertex -69.6512508870442 -222.713427608703 3.00000000000041
    vertex -61.8886877541205 -256.27983831892 3.00000000000041
    vertex -69.3731432974979 -222.350990741627 3.00000000000041
  endloop
endfacet
facet normal -1.35207975751284e-014 -4.60540400357914e-015 1.0
  outer loop
    vertex -69.3731432974979 -222.350990741627 3.00000000000041
    vertex -61.8886877541205 -256.27983831892 3.00000000000041
    vertex -69.1983175581148 -221.928924070556 3.00000000000041
  endloop
endfacet
facet normal -1.35207975751284e-014 -4.60540400357914e-015 1.0
  outer loop
    vertex -69.1983175581148 -221.928924070556 3.00000000000041
    vertex -61.8886877541205 -256.27983831892 3.00000000000041
    vertex -69.1386877541207 -221.475990741627 3.00000000000042
  endloop
endfacet
facet normal -1.35207975751284e-014 -4.60540400357914e-015 1.0
  outer loop
    vertex -69.1386877541207 -221.475990741627 3.00000000000042
    vertex -61.8886877541205 -256.27983831892 3.00000000000041
    vertex -67.4061406102323 -211.475990741628 3.0000000000012
  endloop
endfacet
facet normal -1.35207975751284e-014 -4.60540400357914e-015 1.0
  outer loop
    vertex -67.4061406102323 -211.475990741628 3.0000000000012
    vertex -61.8886877541205 -256.27983831892 3.00000000000041
    vertex -61.8886877541207 -211.475990741627 3.00000000000043
  endloop
endfacet
facet normal -1.35207975751284e-014 -4.60540400357914e-015 1.0
  outer loop
    vertex -70.8886877541207 -219.725990741627 3.00000000000044
    vertex -67.4061406102323 -211.475990741628 3.0000000000012
    vertex -70.8886877541207 -211.475990741627 3.00000000000043
  endloop
endfacet
facet normal -1.35207975751284e-014 -4.60540400357914e-015 1.0
  outer loop
    vertex -67.4061406102323 -211.475990741628 3.0000000000012
    vertex -70.8886877541207 -219.725990741627 3.00000000000044
    vertex -70.4357544251913 -219.785620545621 3.00000000000044
  endloop
endfacet
facet normal -1.35207975751284e-014 -4.60540400357914e-015 1.0
  outer loop
    vertex -67.4061406102323 -211.475990741628 3.0000000000012
    vertex -70.4357544251913 -219.785620545621 3.00000000000044
    vertex -70.0136877541207 -219.960446285004 3.00000000000043
  endloop
endfacet
facet normal -1.35207975751284e-014 -4.60540400357914e-015 1.0
  outer loop
    vertex -67.4061406102323 -211.475990741628 3.0000000000012
    vertex -70.0136877541207 -219.960446285004 3.00000000000043
    vertex -69.6512508870443 -220.23855387455 3.00000000000043
  endloop
endfacet
facet normal -1.35207975751284e-014 -4.60540400357914e-015 1.0
  outer loop
    vertex -67.4061406102323 -211.475990741628 3.0000000000012
    vertex -69.6512508870443 -220.23855387455 3.00000000000043
    vertex -69.3731432974979 -220.600990741627 3.00000000000042
  endloop
endfacet
facet normal -1.35207975751284e-014 -4.60540400357914e-015 1.0
  outer loop
    vertex -67.4061406102323 -211.475990741628 3.0000000000012
    vertex -69.3731432974979 -220.600990741627 3.00000000000042
    vertex -69.1983175581148 -221.023057412697 3.00000000000042
  endloop
endfacet
facet normal -1.35207975751284e-014 -4.60540400357914e-015 1.0
  outer loop
    vertex -67.4061406102323 -211.475990741628 3.0000000000012
    vertex -69.1983175581148 -221.023057412697 3.00000000000042
    vertex -69.1386877541207 -221.475990741627 3.00000000000042
  endloop
endfacet
facet normal 7.13191272707822e-015 -2.33491890123215e-015 1.0
  outer loop
    vertex -114.189957943348 -286.475990741617 3.00000000000051
    vertex -107.220074101509 -281.928924070548 3.00000000000049
    vertex -107.279703905503 -281.475990741619 3.00000000000049
  endloop
endfacet
facet normal 7.13191272707822e-015 -2.33491890123215e-015 1.0
  outer loop
    vertex -107.220074101509 -281.928924070548 3.00000000000049
    vertex -114.189957943348 -286.475990741617 3.00000000000051
    vertex -107.045248362126 -282.350990741619 3.0000000000005
  endloop
endfacet
facet normal 7.13191272707822e-015 -2.33491890123215e-015 1.0
  outer loop
    vertex -115.931231515286 -283.460016445142 3.00000000000118
    vertex -79.8886877541207 -256.27983831892 3.00000000000041
    vertex -118.689957943343 -278.681762107567 3.00000000000041
  endloop
endfacet
facet normal 7.13191272707822e-015 -2.33491890123215e-015 1.0
  outer loop
    vertex -79.8886877541207 -256.27983831892 3.00000000000041
    vertex -115.931231515286 -283.460016445142 3.00000000000118
    vertex -114.189957943348 -286.475990741617 3.00000000000051
  endloop
endfacet
facet normal 7.13191272707822e-015 -2.33491890123215e-015 1.0
  outer loop
    vertex -79.8886877541207 -256.27983831892 3.00000000000041
    vertex -114.189957943348 -286.475990741617 3.00000000000051
    vertex -106.767140772579 -280.238553874543 3.00000000000047
  endloop
endfacet
facet normal 7.13191272707822e-015 -2.33491890123215e-015 1.0
  outer loop
    vertex -106.767140772579 -280.238553874543 3.00000000000047
    vertex -114.189957943348 -286.475990741617 3.00000000000051
    vertex -107.045248362125 -280.600990741619 3.00000000000048
  endloop
endfacet
facet normal 7.13191272707822e-015 -2.33491890123215e-015 1.0
  outer loop
    vertex -107.045248362125 -280.600990741619 3.00000000000048
    vertex -114.189957943348 -286.475990741617 3.00000000000051
    vertex -107.220074101508 -281.02305741269 3.00000000000048
  endloop
endfacet
facet normal 7.13191272707822e-015 -2.33491890123215e-015 1.0
  outer loop
    vertex -107.220074101508 -281.02305741269 3.00000000000048
    vertex -114.189957943348 -286.475990741617 3.00000000000051
    vertex -107.279703905503 -281.475990741619 3.00000000000049
  endloop
endfacet
facet normal 7.13191272707822e-015 -2.33491890123215e-015 1.0
  outer loop
    vertex -79.8886877541207 -256.27983831892 3.00000000000041
    vertex -106.767140772579 -280.238553874543 3.00000000000047
    vertex -106.404703905502 -279.960446284997 3.00000000000047
  endloop
endfacet
facet normal 7.13191272707822e-015 -2.33491890123215e-015 1.0
  outer loop
    vertex -79.8886877541207 -256.27983831892 3.00000000000041
    vertex -106.404703905502 -279.960446284997 3.00000000000047
    vertex -105.982637234432 -279.785620545613 3.00000000000047
  endloop
endfacet
facet normal 7.13191272707822e-015 -2.33491890123215e-015 1.0
  outer loop
    vertex -79.8886877541207 -256.27983831892 3.00000000000041
    vertex -105.982637234432 -279.785620545613 3.00000000000047
    vertex -105.529703905502 -279.72599074162 3.00000000000047
  endloop
endfacet
facet normal 7.13191272707822e-015 -2.33491890123215e-015 1.0
  outer loop
    vertex -79.8886877541207 -256.27983831892 3.00000000000041
    vertex -105.529703905502 -279.72599074162 3.00000000000047
    vertex -105.076770576573 -279.785620545614 3.00000000000047
  endloop
endfacet
facet normal 7.13191272707822e-015 -2.33491890123215e-015 1.0
  outer loop
    vertex -79.8886877541207 -256.27983831892 3.00000000000041
    vertex -105.076770576573 -279.785620545614 3.00000000000047
    vertex -104.654703905502 -279.960446284997 3.00000000000047
  endloop
endfacet
facet normal 7.13191272707822e-015 -2.33491890123215e-015 1.0
  outer loop
    vertex -79.8886877541207 -256.27983831892 3.00000000000041
    vertex -104.654703905502 -279.960446284997 3.00000000000047
    vertex -104.292267038426 -280.238553874543 3.00000000000047
  endloop
endfacet
facet normal 7.13191272707822e-015 -2.33491890123215e-015 1.0
  outer loop
    vertex -79.8886877541207 -256.27983831892 3.00000000000041
    vertex -104.292267038426 -280.238553874543 3.00000000000047
    vertex -104.01415944888 -280.60099074162 3.00000000000048
  endloop
endfacet
facet normal 7.13191272707822e-015 -2.33491890123215e-015 1.0
  outer loop
    vertex -79.8886877541207 -256.27983831892 3.00000000000041
    vertex -104.01415944888 -280.60099074162 3.00000000000048
    vertex -75.3886877541207 -264.07406695298 3.00000000000041
  endloop
endfacet
facet normal 4.79926817363021e-018 8.50239700532789e-017 1.0
  outer loop
    vertex -32.0874175648987 -294.270219375687 3.00000000000041
    vertex -66.3886877541212 -264.074066952981 3.00000000000041
    vertex -70.8886877541206 -271.86829558704 3.00000000000041
  endloop
endfacet
facet normal 4.79926817363021e-018 8.50239700532789e-017 1.0
  outer loop
    vertex -66.3886877541212 -264.074066952981 3.00000000000041
    vertex -32.0874175648987 -294.270219375687 3.00000000000041
    vertex -37.7632160593659 -282.350990741627 3.00000000000041
  endloop
endfacet
facet normal 4.79926817363021e-018 8.50239700532789e-017 1.0
  outer loop
    vertex -66.3886877541212 -264.074066952981 3.00000000000041
    vertex -37.7632160593659 -282.350990741627 3.00000000000041
    vertex -37.938041798749 -281.928924070556 3.00000000000041
  endloop
endfacet
facet normal 4.79926817363021e-018 8.50239700532789e-017 1.0
  outer loop
    vertex -66.3886877541212 -264.074066952981 3.00000000000041
    vertex -37.938041798749 -281.928924070556 3.00000000000041
    vertex -37.9976716027432 -281.475990741627 3.00000000000041
  endloop
endfacet
facet normal 4.79926817363021e-018 8.50239700532789e-017 1.0
  outer loop
    vertex -37.7632160593659 -282.350990741627 3.00000000000041
    vertex -32.0874175648987 -294.270219375687 3.00000000000041
    vertex -37.4851084698196 -282.713427608703 3.00000000000041
  endloop
endfacet
facet normal 4.79926817363021e-018 8.50239700532789e-017 1.0
  outer loop
    vertex -37.4851084698196 -282.713427608703 3.00000000000041
    vertex -32.0874175648987 -294.270219375687 3.00000000000041
    vertex -37.1226716027432 -282.99153519825 3.00000000000041
  endloop
endfacet
facet normal 4.79926817363021e-018 8.50239700532789e-017 1.0
  outer loop
    vertex -37.1226716027432 -282.99153519825 3.00000000000041
    vertex -32.0874175648987 -294.270219375687 3.00000000000041
    vertex -36.7006049316726 -283.166360937633 3.00000000000041
  endloop
endfacet
facet normal 4.79926817363021e-018 8.50239700532789e-017 1.0
  outer loop
    vertex -36.7006049316726 -283.166360937633 3.00000000000041
    vertex -32.0874175648987 -294.270219375687 3.00000000000041
    vertex -36.2476716027432 -283.225990741627 3.00000000000041
  endloop
endfacet
facet normal 4.79926817363021e-018 8.50239700532789e-017 1.0
  outer loop
    vertex -36.2476716027432 -283.225990741627 3.00000000000041
    vertex -32.0874175648987 -294.270219375687 3.00000000000041
    vertex -35.7947382738138 -283.166360937633 3.00000000000041
  endloop
endfacet
facet normal 4.79926817363021e-018 8.50239700532789e-017 1.0
  outer loop
    vertex -35.7947382738138 -283.166360937633 3.00000000000041
    vertex -32.0874175648987 -294.270219375687 3.00000000000041
    vertex -35.3726716027432 -282.99153519825 3.00000000000041
  endloop
endfacet
facet normal 4.79926817363021e-018 8.50239700532789e-017 1.0
  outer loop
    vertex -35.3726716027432 -282.99153519825 3.00000000000041
    vertex -32.0874175648987 -294.270219375687 3.00000000000041
    vertex -35.0102347356667 -282.713427608703 3.00000000000041
  endloop
endfacet
facet normal 4.79926817363021e-018 8.50239700532789e-017 1.0
  outer loop
    vertex -35.0102347356667 -282.713427608703 3.00000000000041
    vertex -32.0874175648987 -294.270219375687 3.00000000000041
    vertex -34.7321271461204 -282.350990741627 3.00000000000041
  endloop
endfacet
facet normal 4.79926817363021e-018 8.50239700532789e-017 1.0
  outer loop
    vertex -34.7321271461204 -282.350990741627 3.00000000000041
    vertex -32.0874175648987 -294.270219375687 3.00000000000041
    vertex -27.5874175648987 -286.475990741627 3.00000000000041
  endloop
endfacet
facet normal 4.79926817363021e-018 8.50239700532789e-017 1.0
  outer loop
    vertex -66.3886877541212 -264.074066952981 3.00000000000041
    vertex -37.9380417987491 -281.023057412697 3.00000000000041
    vertex -37.763216059366 -280.600990741627 3.00000000000041
  endloop
endfacet
facet normal 4.79926817363021e-018 8.50239700532789e-017 1.0
  outer loop
    vertex -37.9380417987491 -281.023057412697 3.00000000000041
    vertex -66.3886877541212 -264.074066952981 3.00000000000041
    vertex -37.9976716027432 -281.475990741627 3.00000000000041
  endloop
endfacet
facet normal 3.20849519792085e-016 -1.85242556621427e-016 1.0
  outer loop
    vertex -75.3886877541207 -264.07406695298 3.00000000000041
    vertex -70.8886877541206 -256.27983831892 3.00000000000041
    vertex -79.8886877541207 -256.27983831892 3.00000000000041
  endloop
endfacet
facet normal 3.20849519792085e-016 -1.85242556621427e-016 1.0
  outer loop
    vertex -70.8886877541206 -256.27983831892 3.00000000000041
    vertex -75.3886877541207 -264.07406695298 3.00000000000041
    vertex -70.8886877541206 -261.475990741628 3.0000000000004
  endloop
endfacet
facet normal -4.01061899740202e-016 5.55727669864103e-016 1.0
  outer loop
    vertex -66.3886877541212 -264.074066952981 3.00000000000041
    vertex -70.8886877541206 -261.475990741628 3.0000000000004
    vertex -70.8886877541206 -271.86829558704 3.00000000000041
  endloop
endfacet
facet normal 9.62548559376468e-016 5.55727669864098e-016 1.0
  outer loop
    vertex -70.8886877541206 -261.475990741628 3.0000000000004
    vertex -75.3886877541207 -264.07406695298 3.00000000000041
    vertex -70.8886877541206 -271.86829558704 3.00000000000041
  endloop
endfacet
facet normal -2.27268409852711e-016 -4.55387951694084e-016 1.0
  outer loop
    vertex -66.3886877541212 -264.074066952981 3.00000000000041
    vertex -70.8886877541206 -256.27983831892 3.00000000000041
    vertex -70.8886877541206 -261.475990741628 3.0000000000004
  endloop
endfacet
facet normal -2.27268409852711e-016 -4.55387951694084e-016 1.0
  outer loop
    vertex -70.8886877541206 -256.27983831892 3.00000000000041
    vertex -66.3886877541212 -264.074066952981 3.00000000000041
    vertex -61.8886877541205 -256.27983831892 3.00000000000041
  endloop
endfacet
facet normal -6.85078803819599e-017 -5.0197739479487e-017 1.0
  outer loop
    vertex -27.5874175648987 -286.475990741627 3.00000000000041
    vertex -34.5573014067373 -281.928924070556 3.00000000000041
    vertex -34.7321271461204 -282.350990741627 3.00000000000041
  endloop
endfacet
facet normal -6.85078803819599e-017 -5.0197739479487e-017 1.0
  outer loop
    vertex -34.5573014067373 -281.928924070556 3.00000000000041
    vertex -27.5874175648987 -286.475990741627 3.00000000000041
    vertex -34.4976716027432 -281.475990741627 3.00000000000041
  endloop
endfacet
facet normal -6.85078803819599e-017 -5.0197739479487e-017 1.0
  outer loop
    vertex -37.763216059366 -280.600990741627 3.00000000000041
    vertex -61.8886877541205 -256.27983831892 3.00000000000041
    vertex -66.3886877541212 -264.074066952981 3.00000000000041
  endloop
endfacet
facet normal -6.85078803819599e-017 -5.0197739479487e-017 1.0
  outer loop
    vertex -61.8886877541205 -256.27983831892 3.00000000000041
    vertex -37.763216059366 -280.600990741627 3.00000000000041
    vertex -37.4851084698196 -280.23855387455 3.00000000000041
  endloop
endfacet
facet normal -6.85078803819599e-017 -5.0197739479487e-017 1.0
  outer loop
    vertex -61.8886877541205 -256.27983831892 3.00000000000041
    vertex -37.4851084698196 -280.23855387455 3.00000000000041
    vertex -37.1226716027432 -279.960446285004 3.00000000000041
  endloop
endfacet
facet normal -6.85078803819599e-017 -5.0197739479487e-017 1.0
  outer loop
    vertex -61.8886877541205 -256.27983831892 3.00000000000041
    vertex -37.1226716027432 -279.960446285004 3.00000000000041
    vertex -36.7006049316726 -279.785620545621 3.00000000000041
  endloop
endfacet
facet normal -6.85078803819599e-017 -5.0197739479487e-017 1.0
  outer loop
    vertex -61.8886877541205 -256.27983831892 3.00000000000041
    vertex -36.7006049316726 -279.785620545621 3.00000000000041
    vertex -36.2476716027432 -279.725990741627 3.00000000000041
  endloop
endfacet
facet normal -6.85078803819599e-017 -5.0197739479487e-017 1.0
  outer loop
    vertex -61.8886877541205 -256.27983831892 3.00000000000041
    vertex -36.2476716027432 -279.725990741627 3.00000000000041
    vertex -23.0874175648987 -278.681762107567 3.00000000000041
  endloop
endfacet
facet normal -6.85078803819599e-017 -5.0197739479487e-017 1.0
  outer loop
    vertex -23.0874175648987 -278.681762107567 3.00000000000041
    vertex -36.2476716027432 -279.725990741627 3.00000000000041
    vertex -35.7947382738138 -279.785620545621 3.00000000000041
  endloop
endfacet
facet normal -6.85078803819599e-017 -5.0197739479487e-017 1.0
  outer loop
    vertex -23.0874175648987 -278.681762107567 3.00000000000041
    vertex -35.7947382738138 -279.785620545621 3.00000000000041
    vertex -35.3726716027432 -279.960446285004 3.00000000000041
  endloop
endfacet
facet normal -6.85078803819599e-017 -5.0197739479487e-017 1.0
  outer loop
    vertex -23.0874175648987 -278.681762107567 3.00000000000041
    vertex -35.3726716027432 -279.960446285004 3.00000000000041
    vertex -35.0102347356667 -280.23855387455 3.00000000000041
  endloop
endfacet
facet normal -6.85078803819599e-017 -5.0197739479487e-017 1.0
  outer loop
    vertex -23.0874175648987 -278.681762107567 3.00000000000041
    vertex -35.0102347356667 -280.23855387455 3.00000000000041
    vertex -34.7321271461204 -280.600990741627 3.00000000000041
  endloop
endfacet
facet normal -6.85078803819599e-017 -5.0197739479487e-017 1.0
  outer loop
    vertex -23.0874175648987 -278.681762107567 3.00000000000041
    vertex -34.7321271461204 -280.600990741627 3.00000000000041
    vertex -34.5573014067373 -281.023057412697 3.00000000000041
  endloop
endfacet
facet normal -6.85078803819599e-017 -5.0197739479487e-017 1.0
  outer loop
    vertex -23.0874175648987 -278.681762107567 3.00000000000041
    vertex -34.5573014067373 -281.023057412697 3.00000000000041
    vertex -34.4976716027432 -281.475990741627 3.00000000000041
  endloop
endfacet
facet normal -6.85078803819599e-017 -5.0197739479487e-017 1.0
  outer loop
    vertex -23.0874175648987 -278.681762107567 3.00000000000041
    vertex -34.4976716027432 -281.475990741627 3.00000000000041
    vertex -27.5874175648987 -286.475990741627 3.00000000000041
  endloop
endfacet
facet normal 1.07095306780436e-016 1.85494512595891e-016 1.0
  outer loop
    vertex -36.2476716027432 -281.475990741627 3.00000000000041
    vertex -37.4851084698196 -280.23855387455 3.00000000000041
    vertex -37.763216059366 -280.600990741627 3.00000000000041
  endloop
endfacet
facet normal 1.07095306780436e-016 1.85494512595891e-016 1.0
  outer loop
    vertex -37.4851084698196 -280.23855387455 3.00000000000041
    vertex -36.2476716027432 -281.475990741627 3.00000000000041
    vertex -37.1226716027432 -279.960446285004 3.00000000000041
  endloop
endfacet
facet normal 1.07095306780436e-016 1.85494512595891e-016 1.0
  outer loop
    vertex -37.1226716027432 -279.960446285004 3.00000000000041
    vertex -36.2476716027432 -281.475990741627 3.00000000000041
    vertex -36.7006049316726 -279.785620545621 3.00000000000041
  endloop
endfacet
facet normal 1.07095306780436e-016 1.85494512595891e-016 1.0
  outer loop
    vertex -36.7006049316726 -279.785620545621 3.00000000000041
    vertex -36.2476716027432 -281.475990741627 3.00000000000041
    vertex -36.2476716027432 -279.725990741627 3.00000000000041
  endloop
endfacet
facet normal 1.07095306780436e-016 1.85494512595891e-016 1.0
  outer loop
    vertex -36.2476716027432 -279.725990741627 3.00000000000041
    vertex -36.2476716027432 -281.475990741627 3.00000000000041
    vertex -35.7947382738138 -279.785620545621 3.00000000000041
  endloop
endfacet
facet normal 1.07095306780436e-016 1.85494512595891e-016 1.0
  outer loop
    vertex -35.7947382738138 -279.785620545621 3.00000000000041
    vertex -36.2476716027432 -281.475990741627 3.00000000000041
    vertex -34.7321271461204 -282.350990741627 3.00000000000041
  endloop
endfacet
facet normal 1.07095306780436e-016 1.85494512595891e-016 1.0
  outer loop
    vertex -35.7947382738138 -279.785620545621 3.00000000000041
    vertex -34.7321271461204 -282.350990741627 3.00000000000041
    vertex -35.3726716027432 -279.960446285004 3.00000000000041
  endloop
endfacet
facet normal 1.07095306780436e-016 1.85494512595891e-016 1.0
  outer loop
    vertex -35.3726716027432 -279.960446285004 3.00000000000041
    vertex -34.7321271461204 -282.350990741627 3.00000000000041
    vertex -35.0102347356667 -280.23855387455 3.00000000000041
  endloop
endfacet
facet normal 1.07095306780436e-016 1.85494512595891e-016 1.0
  outer loop
    vertex -35.0102347356667 -280.23855387455 3.00000000000041
    vertex -34.7321271461204 -282.350990741627 3.00000000000041
    vertex -34.7321271461204 -280.600990741627 3.00000000000041
  endloop
endfacet
facet normal 1.07095306780436e-016 1.85494512595891e-016 1.0
  outer loop
    vertex -34.7321271461204 -280.600990741627 3.00000000000041
    vertex -34.7321271461204 -282.350990741627 3.00000000000041
    vertex -34.5573014067373 -281.023057412697 3.00000000000041
  endloop
endfacet
facet normal 1.07095306780436e-016 1.85494512595891e-016 1.0
  outer loop
    vertex -34.5573014067373 -281.023057412697 3.00000000000041
    vertex -34.7321271461204 -282.350990741627 3.00000000000041
    vertex -34.5573014067373 -281.928924070556 3.00000000000041
  endloop
endfacet
facet normal 1.07095306780436e-016 1.85494512595891e-016 1.0
  outer loop
    vertex -34.5573014067373 -281.023057412697 3.00000000000041
    vertex -34.5573014067373 -281.928924070556 3.00000000000041
    vertex -34.4976716027432 -281.475990741627 3.00000000000041
  endloop
endfacet
facet normal 1.07095306780436e-016 1.85494512595891e-016 1.0
  outer loop
    vertex -37.938041798749 -281.928924070556 3.00000000000041
    vertex -37.9380417987491 -281.023057412697 3.00000000000041
    vertex -37.9976716027432 -281.475990741627 3.00000000000041
  endloop
endfacet
facet normal 1.07095306780436e-016 1.85494512595891e-016 1.0
  outer loop
    vertex -37.9380417987491 -281.023057412697 3.00000000000041
    vertex -37.938041798749 -281.928924070556 3.00000000000041
    vertex -37.763216059366 -280.600990741627 3.00000000000041
  endloop
endfacet
facet normal 1.07095306780436e-016 1.85494512595891e-016 1.0
  outer loop
    vertex -37.763216059366 -280.600990741627 3.00000000000041
    vertex -37.938041798749 -281.928924070556 3.00000000000041
    vertex -37.7632160593659 -282.350990741627 3.00000000000041
  endloop
endfacet
facet normal 1.07095306780436e-016 1.85494512595891e-016 1.0
  outer loop
    vertex -37.763216059366 -280.600990741627 3.00000000000041
    vertex -37.7632160593659 -282.350990741627 3.00000000000041
    vertex -36.2476716027432 -281.475990741627 3.00000000000041
  endloop
endfacet
facet normal 1.07095306780436e-016 1.85494512595891e-016 1.0
  outer loop
    vertex -36.2476716027432 -281.475990741627 3.00000000000041
    vertex -37.7632160593659 -282.350990741627 3.00000000000041
    vertex -37.4851084698196 -282.713427608703 3.00000000000041
  endloop
endfacet
facet normal 1.07095306780436e-016 1.85494512595891e-016 1.0
  outer loop
    vertex -36.2476716027432 -281.475990741627 3.00000000000041
    vertex -37.4851084698196 -282.713427608703 3.00000000000041
    vertex -37.1226716027432 -282.99153519825 3.00000000000041
  endloop
endfacet
facet normal 1.07095306780436e-016 1.85494512595891e-016 1.0
  outer loop
    vertex -36.2476716027432 -281.475990741627 3.00000000000041
    vertex -37.1226716027432 -282.99153519825 3.00000000000041
    vertex -36.7006049316726 -283.166360937633 3.00000000000041
  endloop
endfacet
facet normal 1.07095306780436e-016 1.85494512595891e-016 1.0
  outer loop
    vertex -36.2476716027432 -281.475990741627 3.00000000000041
    vertex -36.7006049316726 -283.166360937633 3.00000000000041
    vertex -36.2476716027432 -283.225990741627 3.00000000000041
  endloop
endfacet
facet normal 1.07095306780436e-016 1.85494512595891e-016 1.0
  outer loop
    vertex -36.2476716027432 -281.475990741627 3.00000000000041
    vertex -36.2476716027432 -283.225990741627 3.00000000000041
    vertex -34.7321271461204 -282.350990741627 3.00000000000041
  endloop
endfacet
facet normal 1.07095306780436e-016 1.85494512595891e-016 1.0
  outer loop
    vertex -34.7321271461204 -282.350990741627 3.00000000000041
    vertex -36.2476716027432 -283.225990741627 3.00000000000041
    vertex -35.7947382738138 -283.166360937633 3.00000000000041
  endloop
endfacet
facet normal 1.07095306780436e-016 1.85494512595891e-016 1.0
  outer loop
    vertex -34.7321271461204 -282.350990741627 3.00000000000041
    vertex -35.7947382738138 -283.166360937633 3.00000000000041
    vertex -35.3726716027432 -282.99153519825 3.00000000000041
  endloop
endfacet
facet normal 1.07095306780436e-016 1.85494512595891e-016 1.0
  outer loop
    vertex -34.7321271461204 -282.350990741627 3.00000000000041
    vertex -35.3726716027432 -282.99153519825 3.00000000000041
    vertex -35.0102347356667 -282.713427608703 3.00000000000041
  endloop
endfacet
facet normal -3.97126091960396e-016 1.30990447742926e-014 1.0
  outer loop
    vertex -106.767140772579 -282.713427608696 3.00000000000051
    vertex -105.529703905503 -281.475990741619 3.00000000000049
    vertex -107.045248362126 -282.350990741619 3.0000000000005
  endloop
endfacet
facet normal -3.97126091960396e-016 1.30990447742926e-014 1.0
  outer loop
    vertex -105.529703905503 -281.475990741619 3.00000000000049
    vertex -106.767140772579 -282.713427608696 3.00000000000051
    vertex -106.404703905503 -282.991535198242 3.00000000000051
  endloop
endfacet
facet normal -3.97126091960396e-016 1.30990447742926e-014 1.0
  outer loop
    vertex -105.529703905503 -281.475990741619 3.00000000000049
    vertex -106.404703905503 -282.991535198242 3.00000000000051
    vertex -105.982637234432 -283.166360937625 3.00000000000051
  endloop
endfacet
facet normal -3.97126091960396e-016 1.30990447742926e-014 1.0
  outer loop
    vertex -105.529703905503 -281.475990741619 3.00000000000049
    vertex -105.982637234432 -283.166360937625 3.00000000000051
    vertex -105.529703905503 -283.225990741619 3.00000000000051
  endloop
endfacet
facet normal -3.97126091960396e-016 1.30990447742926e-014 1.0
  outer loop
    vertex -105.529703905503 -281.475990741619 3.00000000000049
    vertex -105.529703905503 -283.225990741619 3.00000000000051
    vertex -105.076770576574 -283.166360937625 3.00000000000051
  endloop
endfacet
facet normal -3.97126091960396e-016 1.30990447742926e-014 1.0
  outer loop
    vertex -105.529703905503 -281.475990741619 3.00000000000049
    vertex -105.076770576574 -283.166360937625 3.00000000000051
    vertex -104.01415944888 -280.60099074162 3.00000000000048
  endloop
endfacet
facet normal -3.97126091960396e-016 1.30990447742926e-014 1.0
  outer loop
    vertex -104.01415944888 -280.60099074162 3.00000000000048
    vertex -105.076770576574 -283.166360937625 3.00000000000051
    vertex -104.654703905503 -282.991535198242 3.00000000000051
  endloop
endfacet
facet normal -3.97126091960396e-016 1.30990447742926e-014 1.0
  outer loop
    vertex -104.01415944888 -280.60099074162 3.00000000000048
    vertex -104.654703905503 -282.991535198242 3.00000000000051
    vertex -104.292267038426 -282.713427608696 3.00000000000051
  endloop
endfacet
facet normal -3.97126091960396e-016 1.30990447742926e-014 1.0
  outer loop
    vertex -104.01415944888 -280.60099074162 3.00000000000048
    vertex -104.292267038426 -282.713427608696 3.00000000000051
    vertex -104.01415944888 -282.35099074162 3.0000000000005
  endloop
endfacet
facet normal -3.97126091960396e-016 1.30990447742926e-014 1.0
  outer loop
    vertex -104.01415944888 -280.60099074162 3.00000000000048
    vertex -104.01415944888 -282.35099074162 3.0000000000005
    vertex -103.839333709497 -281.928924070549 3.0000000000005
  endloop
endfacet
facet normal -3.97126091960396e-016 1.30990447742926e-014 1.0
  outer loop
    vertex -104.01415944888 -280.60099074162 3.00000000000048
    vertex -103.839333709497 -281.928924070549 3.0000000000005
    vertex -103.839333709497 -281.02305741269 3.00000000000048
  endloop
endfacet
facet normal -3.97126091960396e-016 1.30990447742926e-014 1.0
  outer loop
    vertex -103.839333709497 -281.02305741269 3.00000000000048
    vertex -103.839333709497 -281.928924070549 3.0000000000005
    vertex -103.779703905503 -281.47599074162 3.00000000000049
  endloop
endfacet
facet normal -3.97126091960396e-016 1.30990447742926e-014 1.0
  outer loop
    vertex -107.220074101509 -281.928924070548 3.00000000000049
    vertex -107.220074101508 -281.02305741269 3.00000000000048
    vertex -107.279703905503 -281.475990741619 3.00000000000049
  endloop
endfacet
facet normal -3.97126091960396e-016 1.30990447742926e-014 1.0
  outer loop
    vertex -107.220074101508 -281.02305741269 3.00000000000048
    vertex -107.220074101509 -281.928924070548 3.00000000000049
    vertex -107.045248362126 -282.350990741619 3.0000000000005
  endloop
endfacet
facet normal -3.97126091960396e-016 1.30990447742926e-014 1.0
  outer loop
    vertex -107.220074101508 -281.02305741269 3.00000000000048
    vertex -107.045248362126 -282.350990741619 3.0000000000005
    vertex -107.045248362125 -280.600990741619 3.00000000000048
  endloop
endfacet
facet normal -3.97126091960396e-016 1.30990447742926e-014 1.0
  outer loop
    vertex -107.045248362125 -280.600990741619 3.00000000000048
    vertex -107.045248362126 -282.350990741619 3.0000000000005
    vertex -105.529703905503 -281.475990741619 3.00000000000049
  endloop
endfacet
facet normal -3.97126091960396e-016 1.30990447742926e-014 1.0
  outer loop
    vertex -107.045248362125 -280.600990741619 3.00000000000048
    vertex -105.529703905503 -281.475990741619 3.00000000000049
    vertex -106.767140772579 -280.238553874543 3.00000000000047
  endloop
endfacet
facet normal -3.97126091960396e-016 1.30990447742926e-014 1.0
  outer loop
    vertex -106.767140772579 -280.238553874543 3.00000000000047
    vertex -105.529703905503 -281.475990741619 3.00000000000049
    vertex -106.404703905502 -279.960446284997 3.00000000000047
  endloop
endfacet
facet normal -3.97126091960396e-016 1.30990447742926e-014 1.0
  outer loop
    vertex -106.404703905502 -279.960446284997 3.00000000000047
    vertex -105.529703905503 -281.475990741619 3.00000000000049
    vertex -105.982637234432 -279.785620545613 3.00000000000047
  endloop
endfacet
facet normal -3.97126091960396e-016 1.30990447742926e-014 1.0
  outer loop
    vertex -105.982637234432 -279.785620545613 3.00000000000047
    vertex -105.529703905503 -281.475990741619 3.00000000000049
    vertex -105.529703905502 -279.72599074162 3.00000000000047
  endloop
endfacet
facet normal -3.97126091960396e-016 1.30990447742926e-014 1.0
  outer loop
    vertex -105.529703905502 -279.72599074162 3.00000000000047
    vertex -105.529703905503 -281.475990741619 3.00000000000049
    vertex -104.01415944888 -280.60099074162 3.00000000000048
  endloop
endfacet
facet normal -3.97126091960396e-016 1.30990447742926e-014 1.0
  outer loop
    vertex -105.529703905502 -279.72599074162 3.00000000000047
    vertex -104.01415944888 -280.60099074162 3.00000000000048
    vertex -105.076770576573 -279.785620545614 3.00000000000047
  endloop
endfacet
facet normal -3.97126091960396e-016 1.30990447742926e-014 1.0
  outer loop
    vertex -105.076770576573 -279.785620545614 3.00000000000047
    vertex -104.01415944888 -280.60099074162 3.00000000000048
    vertex -104.654703905502 -279.960446284997 3.00000000000047
  endloop
endfacet
facet normal -3.97126091960396e-016 1.30990447742926e-014 1.0
  outer loop
    vertex -104.654703905502 -279.960446284997 3.00000000000047
    vertex -104.01415944888 -280.60099074162 3.00000000000048
    vertex -104.292267038426 -280.238553874543 3.00000000000047
  endloop
endfacet
facet normal -5.35929588270566e-015 1.47507700158709e-015 1.0
  outer loop
    vertex -79.8886877541207 -256.27983831892 3.00000000000041
    vertex -73.7045682313405 -211.475990741626 3.00000000000003
    vertex -79.8886877541207 -211.475990741627 3.00000000000043
  endloop
endfacet
facet normal -5.35929588270566e-015 1.47507700158709e-015 1.0
  outer loop
    vertex -73.7045682313405 -211.475990741626 3.00000000000003
    vertex -79.8886877541207 -256.27983831892 3.00000000000041
    vertex -70.8886877541206 -256.27983831892 3.00000000000041
  endloop
endfacet
facet normal -5.35929588270566e-015 1.47507700158709e-015 1.0
  outer loop
    vertex -73.7045682313405 -211.475990741626 3.00000000000003
    vertex -70.8886877541206 -256.27983831892 3.00000000000041
    vertex -72.6386877541207 -221.475990741627 3.00000000000044
  endloop
endfacet
facet normal -5.35929588270566e-015 1.47507700158709e-015 1.0
  outer loop
    vertex -72.6386877541207 -221.475990741627 3.00000000000044
    vertex -70.8886877541206 -256.27983831892 3.00000000000041
    vertex -72.5790579501265 -221.928924070556 3.00000000000044
  endloop
endfacet
facet normal -5.35929588270566e-015 1.47507700158709e-015 1.0
  outer loop
    vertex -72.5790579501265 -221.928924070556 3.00000000000044
    vertex -70.8886877541206 -256.27983831892 3.00000000000041
    vertex -72.4042322107434 -222.350990741627 3.00000000000043
  endloop
endfacet
facet normal -5.35929588270566e-015 1.47507700158709e-015 1.0
  outer loop
    vertex -72.4042322107434 -222.350990741627 3.00000000000043
    vertex -70.8886877541206 -256.27983831892 3.00000000000041
    vertex -72.1261246211971 -222.713427608703 3.00000000000043
  endloop
endfacet
facet normal -5.35929588270566e-015 1.47507700158709e-015 1.0
  outer loop
    vertex -72.1261246211971 -222.713427608703 3.00000000000043
    vertex -70.8886877541206 -256.27983831892 3.00000000000041
    vertex -71.7636877541207 -222.991535198249 3.00000000000043
  endloop
endfacet
facet normal -5.35929588270566e-015 1.47507700158709e-015 1.0
  outer loop
    vertex -71.7636877541207 -222.991535198249 3.00000000000043
    vertex -70.8886877541206 -256.27983831892 3.00000000000041
    vertex -71.3416210830501 -223.166360937633 3.00000000000042
  endloop
endfacet
facet normal -5.35929588270566e-015 1.47507700158709e-015 1.0
  outer loop
    vertex -71.3416210830501 -223.166360937633 3.00000000000042
    vertex -70.8886877541206 -256.27983831892 3.00000000000041
    vertex -70.8886877541207 -223.225990741627 3.00000000000042
  endloop
endfacet
facet normal -5.35929588270566e-015 1.47507700158709e-015 1.0
  outer loop
    vertex -73.7045682313405 -211.475990741626 3.00000000000003
    vertex -72.5790579501265 -221.023057412697 3.00000000000044
    vertex -70.8886877541207 -211.475990741627 3.00000000000043
  endloop
endfacet
facet normal -5.35929588270566e-015 1.47507700158709e-015 1.0
  outer loop
    vertex -72.5790579501265 -221.023057412697 3.00000000000044
    vertex -73.7045682313405 -211.475990741626 3.00000000000003
    vertex -72.6386877541207 -221.475990741627 3.00000000000044
  endloop
endfacet
facet normal -5.35929588270566e-015 1.47507700158709e-015 1.0
  outer loop
    vertex -70.8886877541207 -211.475990741627 3.00000000000043
    vertex -72.5790579501265 -221.023057412697 3.00000000000044
    vertex -72.4042322107435 -220.600990741627 3.00000000000044
  endloop
endfacet
facet normal -5.35929588270566e-015 1.47507700158709e-015 1.0
  outer loop
    vertex -70.8886877541207 -211.475990741627 3.00000000000043
    vertex -72.4042322107435 -220.600990741627 3.00000000000044
    vertex -72.1261246211972 -220.23855387455 3.00000000000044
  endloop
endfacet
facet normal -5.35929588270566e-015 1.47507700158709e-015 1.0
  outer loop
    vertex -70.8886877541207 -211.475990741627 3.00000000000043
    vertex -72.1261246211972 -220.23855387455 3.00000000000044
    vertex -71.7636877541207 -219.960446285004 3.00000000000044
  endloop
endfacet
facet normal -5.35929588270566e-015 1.47507700158709e-015 1.0
  outer loop
    vertex -70.8886877541207 -211.475990741627 3.00000000000043
    vertex -71.7636877541207 -219.960446285004 3.00000000000044
    vertex -71.3416210830501 -219.785620545621 3.00000000000044
  endloop
endfacet
facet normal -5.35929588270566e-015 1.47507700158709e-015 1.0
  outer loop
    vertex -70.8886877541207 -211.475990741627 3.00000000000043
    vertex -71.3416210830501 -219.785620545621 3.00000000000044
    vertex -70.8886877541207 -219.725990741627 3.00000000000044
  endloop
endfacet
facet normal 6.4145231018329e-015 -6.15924754835673e-015 1.0
  outer loop
    vertex -70.8886877541207 -221.475990741627 3.00000000000043
    vertex -70.4357544251913 -219.785620545621 3.00000000000044
    vertex -70.8886877541207 -219.725990741627 3.00000000000044
  endloop
endfacet
facet normal 6.4145231018329e-015 -6.15924754835673e-015 1.0
  outer loop
    vertex -70.4357544251913 -219.785620545621 3.00000000000044
    vertex -70.8886877541207 -221.475990741627 3.00000000000043
    vertex -70.8886877541207 -223.225990741627 3.00000000000042
  endloop
endfacet
facet normal 6.4145231018329e-015 -6.15924754835673e-015 1.0
  outer loop
    vertex -70.4357544251913 -219.785620545621 3.00000000000044
    vertex -70.8886877541207 -223.225990741627 3.00000000000042
    vertex -70.4357544251913 -223.166360937633 3.00000000000042
  endloop
endfacet
facet normal 6.4145231018329e-015 -6.15924754835673e-015 1.0
  outer loop
    vertex -70.4357544251913 -219.785620545621 3.00000000000044
    vertex -70.4357544251913 -223.166360937633 3.00000000000042
    vertex -70.0136877541207 -219.960446285004 3.00000000000043
  endloop
endfacet
facet normal 6.4145231018329e-015 -6.15924754835673e-015 1.0
  outer loop
    vertex -70.0136877541207 -219.960446285004 3.00000000000043
    vertex -70.4357544251913 -223.166360937633 3.00000000000042
    vertex -70.0136877541207 -222.991535198249 3.00000000000041
  endloop
endfacet
facet normal 6.4145231018329e-015 -6.15924754835673e-015 1.0
  outer loop
    vertex -70.0136877541207 -219.960446285004 3.00000000000043
    vertex -70.0136877541207 -222.991535198249 3.00000000000041
    vertex -69.6512508870443 -220.23855387455 3.00000000000043
  endloop
endfacet
facet normal 6.4145231018329e-015 -6.15924754835673e-015 1.0
  outer loop
    vertex -69.6512508870443 -220.23855387455 3.00000000000043
    vertex -70.0136877541207 -222.991535198249 3.00000000000041
    vertex -69.6512508870442 -222.713427608703 3.00000000000041
  endloop
endfacet
facet normal 6.4145231018329e-015 -6.15924754835673e-015 1.0
  outer loop
    vertex -69.6512508870443 -220.23855387455 3.00000000000043
    vertex -69.6512508870442 -222.713427608703 3.00000000000041
    vertex -69.3731432974979 -220.600990741627 3.00000000000042
  endloop
endfacet
facet normal 6.4145231018329e-015 -6.15924754835673e-015 1.0
  outer loop
    vertex -69.3731432974979 -220.600990741627 3.00000000000042
    vertex -69.6512508870442 -222.713427608703 3.00000000000041
    vertex -69.3731432974979 -222.350990741627 3.00000000000041
  endloop
endfacet
facet normal 6.4145231018329e-015 -6.15924754835673e-015 1.0
  outer loop
    vertex -69.3731432974979 -220.600990741627 3.00000000000042
    vertex -69.3731432974979 -222.350990741627 3.00000000000041
    vertex -69.1983175581148 -221.023057412697 3.00000000000042
  endloop
endfacet
facet normal 6.4145231018329e-015 -6.15924754835673e-015 1.0
  outer loop
    vertex -69.1983175581148 -221.023057412697 3.00000000000042
    vertex -69.3731432974979 -222.350990741627 3.00000000000041
    vertex -69.1983175581148 -221.928924070556 3.00000000000041
  endloop
endfacet
facet normal 6.4145231018329e-015 -6.15924754835673e-015 1.0
  outer loop
    vertex -69.1983175581148 -221.023057412697 3.00000000000042
    vertex -69.1983175581148 -221.928924070556 3.00000000000041
    vertex -69.1386877541207 -221.475990741627 3.00000000000042
  endloop
endfacet
facet normal 6.4145231018329e-015 -6.15924754835673e-015 1.0
  outer loop
    vertex -72.5790579501265 -221.928924070556 3.00000000000044
    vertex -72.5790579501265 -221.023057412697 3.00000000000044
    vertex -72.6386877541207 -221.475990741627 3.00000000000044
  endloop
endfacet
facet normal 6.4145231018329e-015 -6.15924754835673e-015 1.0
  outer loop
    vertex -72.5790579501265 -221.023057412697 3.00000000000044
    vertex -72.5790579501265 -221.928924070556 3.00000000000044
    vertex -72.4042322107434 -222.350990741627 3.00000000000043
  endloop
endfacet
facet normal 6.4145231018329e-015 -6.15924754835673e-015 1.0
  outer loop
    vertex -72.5790579501265 -221.023057412697 3.00000000000044
    vertex -72.4042322107434 -222.350990741627 3.00000000000043
    vertex -72.4042322107435 -220.600990741627 3.00000000000044
  endloop
endfacet
facet normal 6.4145231018329e-015 -6.15924754835673e-015 1.0
  outer loop
    vertex -72.4042322107435 -220.600990741627 3.00000000000044
    vertex -72.4042322107434 -222.350990741627 3.00000000000043
    vertex -72.1261246211972 -220.23855387455 3.00000000000044
  endloop
endfacet
facet normal 6.4145231018329e-015 -6.15924754835673e-015 1.0
  outer loop
    vertex -72.1261246211972 -220.23855387455 3.00000000000044
    vertex -72.4042322107434 -222.350990741627 3.00000000000043
    vertex -72.1261246211971 -222.713427608703 3.00000000000043
  endloop
endfacet
facet normal 6.4145231018329e-015 -6.15924754835673e-015 1.0
  outer loop
    vertex -72.1261246211972 -220.23855387455 3.00000000000044
    vertex -72.1261246211971 -222.713427608703 3.00000000000043
    vertex -71.7636877541207 -219.960446285004 3.00000000000044
  endloop
endfacet
facet normal 6.4145231018329e-015 -6.15924754835673e-015 1.0
  outer loop
    vertex -71.7636877541207 -219.960446285004 3.00000000000044
    vertex -72.1261246211971 -222.713427608703 3.00000000000043
    vertex -71.7636877541207 -222.991535198249 3.00000000000043
  endloop
endfacet
facet normal 6.4145231018329e-015 -6.15924754835673e-015 1.0
  outer loop
    vertex -71.7636877541207 -219.960446285004 3.00000000000044
    vertex -71.7636877541207 -222.991535198249 3.00000000000043
    vertex -71.3416210830501 -219.785620545621 3.00000000000044
  endloop
endfacet
facet normal 6.4145231018329e-015 -6.15924754835673e-015 1.0
  outer loop
    vertex -71.3416210830501 -219.785620545621 3.00000000000044
    vertex -71.7636877541207 -222.991535198249 3.00000000000043
    vertex -71.3416210830501 -223.166360937633 3.00000000000042
  endloop
endfacet
facet normal 6.4145231018329e-015 -6.15924754835673e-015 1.0
  outer loop
    vertex -71.3416210830501 -219.785620545621 3.00000000000044
    vertex -71.3416210830501 -223.166360937633 3.00000000000042
    vertex -70.8886877541207 -219.725990741627 3.00000000000044
  endloop
endfacet
facet normal 6.4145231018329e-015 -6.15924754835673e-015 1.0
  outer loop
    vertex -70.8886877541207 -219.725990741627 3.00000000000044
    vertex -71.3416210830501 -223.166360937633 3.00000000000042
    vertex -70.8886877541207 -223.225990741627 3.00000000000042
  endloop
endfacet
facet normal 6.4145231018329e-015 -6.15924754835673e-015 1.0
  outer loop
    vertex -70.8886877541207 -219.725990741627 3.00000000000044
    vertex -70.8886877541207 -223.225990741627 3.00000000000042
    vertex -70.8886877541207 -221.475990741627 3.00000000000043
  endloop
endfacet
endsolid Omnidroid
