M48
; DRILL file {KiCad 7.0.8} date Thu Feb 22 16:14:14 2024
; FORMAT={-:-/ absolute / inch / decimal}
; #@! TF.CreationDate,2024-02-22T16:14:14-05:00
; #@! TF.GenerationSoftware,Kicad,Pcbnew,7.0.8
; #@! TF.FileFunction,Plated,1,2,PTH
FMAT,2
INCH
; #@! TA.AperFunction,Plated,PTH,ComponentDrill
T1C0.0236
; #@! TA.AperFunction,Plated,PTH,ComponentDrill
T2C0.0300
; #@! TA.AperFunction,Plated,PTH,ComponentDrill
T3C0.0354
; #@! TA.AperFunction,Plated,PTH,ComponentDrill
T4C0.0394
%
G90
G05
T1
X2.1624Y0.9411
X2.1624Y0.2611
X2.2411Y0.9411
X2.2411Y0.2611
X2.3199Y0.9411
X2.3199Y0.2611
X2.3986Y0.9411
X2.3986Y0.2611
X2.4774Y0.9411
X2.4774Y0.2611
X2.5561Y0.9411
X2.5561Y0.2611
X2.6348Y0.9411
X2.6348Y0.2611
X2.7136Y0.9411
X2.7136Y0.2611
T2
X0.8128Y0.7811
X0.8128Y0.4211
X1.4128Y0.7811
X1.4128Y0.4211
T3
X0.113Y0.9011
X0.113Y0.3011
X0.213Y0.9011
X0.213Y0.3011
X0.313Y0.9011
X0.313Y0.3011
X0.413Y0.9011
X0.413Y0.3011
X0.513Y0.9011
X0.513Y0.3011
X0.613Y0.9011
X0.613Y0.3011
X0.713Y0.9011
X0.713Y0.3011
X0.813Y0.9011
X0.813Y0.3011
X0.913Y0.9011
X0.913Y0.3011
X1.013Y0.9011
X1.013Y0.3011
X1.113Y0.9011
X1.113Y0.3011
X1.213Y0.9011
X1.213Y0.3011
X1.313Y0.9011
X1.313Y0.3011
X1.413Y0.9011
X1.413Y0.3011
X1.513Y0.9011
X1.513Y0.3011
X1.613Y0.9011
X1.613Y0.3011
X1.713Y0.9011
X1.713Y0.3011
X1.813Y0.9011
X1.813Y0.3011
X1.913Y0.9011
X1.913Y0.3011
X2.013Y0.9011
X2.013Y0.3011
T4
X0.3128Y1.0811
X0.4128Y1.0811
X0.5128Y1.0811
X0.6128Y1.0811
T0
M30
