%TF.GenerationSoftware,KiCad,Pcbnew,7.0.8*%
%TF.CreationDate,2024-02-22T16:14:18-05:00*%
%TF.ProjectId,Transmitter,5472616e-736d-4697-9474-65722e6b6963,rev?*%
%TF.SameCoordinates,PX6a45cf8PY6a7cfc8*%
%TF.FileFunction,Copper,L2,Bot*%
%TF.FilePolarity,Positive*%
%FSLAX46Y46*%
G04 Gerber Fmt 4.6, Leading zero omitted, Abs format (unit mm)*
G04 Created by KiCad (PCBNEW 7.0.8) date 2024-02-22 16:14:18*
%MOMM*%
%LPD*%
G01*
G04 APERTURE LIST*
%TA.AperFunction,ComponentPad*%
%ADD10R,1.000000X2.500000*%
%TD*%
%TA.AperFunction,ComponentPad*%
%ADD11R,1.700000X1.700000*%
%TD*%
%TA.AperFunction,ComponentPad*%
%ADD12O,1.700000X1.700000*%
%TD*%
%TA.AperFunction,ComponentPad*%
%ADD13C,1.524000*%
%TD*%
%TA.AperFunction,Conductor*%
%ADD14C,0.750000*%
%TD*%
G04 APERTURE END LIST*
D10*
%TO.P,U2,1,RESET*%
%TO.N,/RESET*%
X68925000Y24412000D03*
%TO.P,U2,2,DIO0*%
%TO.N,/INTER*%
X66925000Y24412000D03*
%TO.P,U2,3,DIO1*%
%TO.N,unconnected-(U2-DIO1-Pad3)*%
X64925000Y24412000D03*
%TO.P,U2,4,DIO2*%
%TO.N,unconnected-(U2-DIO2-Pad4)*%
X62925000Y24412000D03*
%TO.P,U2,5,DIO3*%
%TO.N,unconnected-(U2-DIO3-Pad5)*%
X60925000Y24412000D03*
%TO.P,U2,6,DIO4*%
%TO.N,/AUX*%
X58925000Y24412000D03*
%TO.P,U2,7,DIO5*%
%TO.N,unconnected-(U2-DIO5-Pad7)*%
X56925000Y24412000D03*
%TO.P,U2,8,3.3V*%
%TO.N,+3V3*%
X54925000Y24412000D03*
%TO.P,U2,9,GND*%
%TO.N,GND*%
X54925000Y6124000D03*
%TO.P,U2,10,ANA*%
%TO.N,unconnected-(U2-ANA-Pad10)*%
X56925000Y6124000D03*
%TO.P,U2,11,GND*%
%TO.N,GND*%
X58925000Y6124000D03*
%TO.P,U2,12,SCK*%
%TO.N,/SCK*%
X60925000Y6124000D03*
%TO.P,U2,13,MISO*%
%TO.N,/MISO*%
X62925000Y6124000D03*
%TO.P,U2,14,MOSI*%
%TO.N,/MOSI*%
X64925000Y6124000D03*
%TO.P,U2,15,NSS*%
%TO.N,/NSS*%
X66925000Y6124000D03*
%TO.P,U2,16,NC*%
%TO.N,unconnected-(U2-NC-Pad16)*%
X68925000Y6124000D03*
%TD*%
D11*
%TO.P,J2,1,Pin_1*%
%TO.N,/PPM OUT*%
X15565000Y27460000D03*
D12*
%TO.P,J2,2,Pin_2*%
%TO.N,/PPM IN*%
X13025000Y27460000D03*
%TO.P,J2,3,Pin_3*%
%TO.N,+BATT*%
X10485000Y27460000D03*
%TO.P,J2,4,Pin_4*%
%TO.N,GND*%
X7945000Y27460000D03*
%TD*%
D13*
%TO.P,U3,3V3,3.3V*%
%TO.N,+3V3*%
X51130000Y7648000D03*
X7950000Y22888000D03*
%TO.P,U3,5V,5V*%
%TO.N,unconnected-(U3-Pad5V)*%
X46050000Y7648000D03*
%TO.P,U3,G,GND*%
%TO.N,GND*%
X48590000Y7648000D03*
X2870000Y22888000D03*
X5410000Y22888000D03*
%TO.P,U3,NRST,RESET*%
%TO.N,unconnected-(U3-RESET-PadNRST)*%
X10490000Y22888000D03*
%TO.P,U3,PA0,PA0*%
%TO.N,unconnected-(U3-PadPA0)*%
X40970000Y22888000D03*
%TO.P,U3,PA1,PA1*%
%TO.N,unconnected-(U3-PadPA1)*%
X38430000Y22888000D03*
%TO.P,U3,PA2,PA2*%
%TO.N,unconnected-(U3-PadPA2)*%
X35890000Y22888000D03*
%TO.P,U3,PA3,PA3*%
%TO.N,unconnected-(U3-PadPA3)*%
X33350000Y22888000D03*
%TO.P,U3,PA4,PA4*%
%TO.N,unconnected-(U3-PadPA4)*%
X30810000Y22888000D03*
%TO.P,U3,PA5,PA5*%
%TO.N,unconnected-(U3-PadPA5)*%
X28270000Y22888000D03*
%TO.P,U3,PA6,PA6*%
%TO.N,unconnected-(U3-PadPA6)*%
X25730000Y22888000D03*
%TO.P,U3,PA7,PA7*%
%TO.N,unconnected-(U3-PadPA7)*%
X23190000Y22888000D03*
%TO.P,U3,PA8,PA8*%
%TO.N,unconnected-(U3-PadPA8)*%
X13030000Y7648000D03*
%TO.P,U3,PA9,PA9*%
%TO.N,unconnected-(U3-PadPA9)*%
X15570000Y7648000D03*
%TO.P,U3,PA10,PA10*%
%TO.N,unconnected-(U3-PadPA10)*%
X18110000Y7648000D03*
%TO.P,U3,PA11,PA11*%
%TO.N,unconnected-(U3-PadPA11)*%
X20650000Y7648000D03*
%TO.P,U3,PA12,PA12*%
%TO.N,unconnected-(U3-PadPA12)*%
X23190000Y7648000D03*
%TO.P,U3,PA15,PA15*%
%TO.N,/NSS*%
X25730000Y7648000D03*
%TO.P,U3,PB0,PB0*%
%TO.N,unconnected-(U3-PadPB0)*%
X20650000Y22888000D03*
%TO.P,U3,PB1,PB1*%
%TO.N,unconnected-(U3-PadPB1)*%
X18110000Y22888000D03*
%TO.P,U3,PB3,PB3*%
%TO.N,/SCK*%
X28270000Y7648000D03*
%TO.P,U3,PB4,PB4*%
%TO.N,/MISO*%
X30810000Y7648000D03*
%TO.P,U3,PB5,PB5*%
%TO.N,/MOSI*%
X33350000Y7648000D03*
%TO.P,U3,PB6,PB6*%
%TO.N,unconnected-(U3-PadPB6)*%
X35890000Y7648000D03*
%TO.P,U3,PB7,PB7*%
%TO.N,unconnected-(U3-PadPB7)*%
X38430000Y7648000D03*
%TO.P,U3,PB8,PB8*%
%TO.N,unconnected-(U3-PadPB8)*%
X40970000Y7648000D03*
%TO.P,U3,PB9,PB9*%
%TO.N,unconnected-(U3-PadPB9)*%
X43510000Y7648000D03*
%TO.P,U3,PB10,PB10*%
%TO.N,/PPM OUT*%
X15570000Y22888000D03*
%TO.P,U3,PB11,PB11*%
%TO.N,/PPM IN*%
X13030000Y22888000D03*
%TO.P,U3,PB12,PB12*%
%TO.N,unconnected-(U3-PadPB12)*%
X2870000Y7648000D03*
%TO.P,U3,PB13,PB13*%
%TO.N,unconnected-(U3-PadPB13)*%
X5410000Y7648000D03*
%TO.P,U3,PB14,PB14*%
%TO.N,unconnected-(U3-PadPB14)*%
X7950000Y7648000D03*
%TO.P,U3,PB15,PB15*%
%TO.N,unconnected-(U3-PadPB15)*%
X10490000Y7648000D03*
%TO.P,U3,PC13,PC13*%
%TO.N,/AUX*%
X48590000Y22888000D03*
%TO.P,U3,PC14,PC14*%
%TO.N,/INTER*%
X46050000Y22888000D03*
%TO.P,U3,PC15,PC15*%
%TO.N,/RESET*%
X43510000Y22888000D03*
%TO.P,U3,VBAT,Vbat*%
%TO.N,unconnected-(U3-Vbat-PadVBAT)*%
X51130000Y22888000D03*
%TD*%
%TO.P,U1,1,GND*%
%TO.N,GND*%
X20645000Y19840000D03*
%TO.P,U1,2,IN*%
%TO.N,+BATT*%
X20645000Y10696000D03*
%TO.P,U1,3,GND*%
%TO.N,GND*%
X35885000Y19840000D03*
%TO.P,U1,4,OUT*%
%TO.N,+3V3*%
X35885000Y10696000D03*
%TD*%
D14*
%TO.N,/PPM OUT*%
X15565000Y27460000D02*
X15565000Y22893000D01*
X15565000Y22893000D02*
X15570000Y22888000D01*
%TO.N,/PPM IN*%
X13030000Y22888000D02*
X13030000Y27455000D01*
X13030000Y27455000D02*
X13025000Y27460000D01*
%TO.N,GND*%
X5410000Y22888000D02*
X5410000Y24925000D01*
X54500000Y5743000D02*
X50495000Y5743000D01*
X54925000Y6168000D02*
X54500000Y5743000D01*
X20645000Y19840000D02*
X8458000Y19840000D01*
X2870000Y22888000D02*
X5410000Y22888000D01*
X5410000Y24925000D02*
X7945000Y27460000D01*
X50495000Y5743000D02*
X48590000Y7648000D01*
X8458000Y19840000D02*
X5410000Y22888000D01*
%TO.N,+3V3*%
X35885000Y10696000D02*
X48082000Y10696000D01*
X48082000Y10696000D02*
X51130000Y7648000D01*
%TO.N,/RESET*%
X63190000Y16665000D02*
X46045000Y16665000D01*
X46045000Y16665000D02*
X43510000Y19200000D01*
X68925000Y24368000D02*
X68925000Y22400000D01*
X68925000Y22400000D02*
X63190000Y16665000D01*
X43510000Y19200000D02*
X43510000Y22888000D01*
%TO.N,/INTER*%
X47950000Y18570000D02*
X46050000Y20470000D01*
X62377000Y18570000D02*
X47950000Y18570000D01*
X46050000Y20470000D02*
X46050000Y22888000D01*
X66925000Y24368000D02*
X66925000Y23118000D01*
X66925000Y23118000D02*
X62377000Y18570000D01*
%TO.N,/AUX*%
X58925000Y23118000D02*
X56282000Y20475000D01*
X56282000Y20475000D02*
X49855000Y20475000D01*
X49855000Y20475000D02*
X48590000Y21740000D01*
X48590000Y21740000D02*
X48590000Y22888000D01*
X58925000Y24368000D02*
X58925000Y23118000D01*
%TO.N,/SCK*%
X28270000Y10188000D02*
X28270000Y7648000D01*
X60925000Y8648000D02*
X56845000Y12728000D01*
X60925000Y6168000D02*
X60925000Y8648000D01*
X30810000Y12728000D02*
X28270000Y10188000D01*
X56845000Y12728000D02*
X30810000Y12728000D01*
%TO.N,/MOSI*%
X33350000Y7648000D02*
X37160000Y3838000D01*
X37160000Y3838000D02*
X63830000Y3838000D01*
X64925000Y4933000D02*
X64925000Y6168000D01*
X63830000Y3838000D02*
X64925000Y4933000D01*
%TO.N,/NSS*%
X25730000Y10320000D02*
X30043000Y14633000D01*
X60655000Y14633000D02*
X66925000Y8363000D01*
X25730000Y7648000D02*
X25730000Y10320000D01*
X66925000Y8363000D02*
X66925000Y6168000D01*
X30043000Y14633000D02*
X60655000Y14633000D01*
%TO.N,unconnected-(U3-PadPA0)*%
X40980000Y22898000D02*
X40970000Y22888000D01*
%TD*%
%TA.AperFunction,Conductor*%
%TO.N,GND*%
G36*
X69942539Y29979815D02*
G01*
X69988294Y29927011D01*
X69999500Y29875500D01*
X69999500Y26101954D01*
X69979815Y26034915D01*
X69927011Y25989160D01*
X69857853Y25979216D01*
X69794297Y26008241D01*
X69787819Y26014273D01*
X69782544Y26019548D01*
X69667335Y26105794D01*
X69667328Y26105798D01*
X69532482Y26156092D01*
X69532483Y26156092D01*
X69472883Y26162499D01*
X69472881Y26162500D01*
X69472873Y26162500D01*
X69472864Y26162500D01*
X68377129Y26162500D01*
X68377123Y26162499D01*
X68317516Y26156092D01*
X68182671Y26105798D01*
X68182664Y26105794D01*
X68067455Y26019548D01*
X68024266Y25961855D01*
X67968332Y25919985D01*
X67898640Y25915001D01*
X67837317Y25948487D01*
X67825734Y25961855D01*
X67786493Y26014273D01*
X67782546Y26019546D01*
X67782544Y26019547D01*
X67782544Y26019548D01*
X67667335Y26105794D01*
X67667328Y26105798D01*
X67532482Y26156092D01*
X67532483Y26156092D01*
X67472883Y26162499D01*
X67472881Y26162500D01*
X67472873Y26162500D01*
X67472864Y26162500D01*
X66377129Y26162500D01*
X66377123Y26162499D01*
X66317516Y26156092D01*
X66182671Y26105798D01*
X66182664Y26105794D01*
X66067455Y26019548D01*
X66024266Y25961855D01*
X65968332Y25919985D01*
X65898640Y25915001D01*
X65837317Y25948487D01*
X65825734Y25961855D01*
X65786493Y26014273D01*
X65782546Y26019546D01*
X65782544Y26019547D01*
X65782544Y26019548D01*
X65667335Y26105794D01*
X65667328Y26105798D01*
X65532482Y26156092D01*
X65532483Y26156092D01*
X65472883Y26162499D01*
X65472881Y26162500D01*
X65472873Y26162500D01*
X65472864Y26162500D01*
X64377129Y26162500D01*
X64377123Y26162499D01*
X64317516Y26156092D01*
X64182671Y26105798D01*
X64182664Y26105794D01*
X64067455Y26019548D01*
X64024266Y25961855D01*
X63968332Y25919985D01*
X63898640Y25915001D01*
X63837317Y25948487D01*
X63825734Y25961855D01*
X63786493Y26014273D01*
X63782546Y26019546D01*
X63782544Y26019547D01*
X63782544Y26019548D01*
X63667335Y26105794D01*
X63667328Y26105798D01*
X63532482Y26156092D01*
X63532483Y26156092D01*
X63472883Y26162499D01*
X63472881Y26162500D01*
X63472873Y26162500D01*
X63472864Y26162500D01*
X62377129Y26162500D01*
X62377123Y26162499D01*
X62317516Y26156092D01*
X62182671Y26105798D01*
X62182664Y26105794D01*
X62067455Y26019548D01*
X62024266Y25961855D01*
X61968332Y25919985D01*
X61898640Y25915001D01*
X61837317Y25948487D01*
X61825734Y25961855D01*
X61786493Y26014273D01*
X61782546Y26019546D01*
X61782544Y26019547D01*
X61782544Y26019548D01*
X61667335Y26105794D01*
X61667328Y26105798D01*
X61532482Y26156092D01*
X61532483Y26156092D01*
X61472883Y26162499D01*
X61472881Y26162500D01*
X61472873Y26162500D01*
X61472864Y26162500D01*
X60377129Y26162500D01*
X60377123Y26162499D01*
X60317516Y26156092D01*
X60182671Y26105798D01*
X60182664Y26105794D01*
X60067455Y26019548D01*
X60024266Y25961855D01*
X59968332Y25919985D01*
X59898640Y25915001D01*
X59837317Y25948487D01*
X59825734Y25961855D01*
X59786493Y26014273D01*
X59782546Y26019546D01*
X59782544Y26019547D01*
X59782544Y26019548D01*
X59667335Y26105794D01*
X59667328Y26105798D01*
X59532482Y26156092D01*
X59532483Y26156092D01*
X59472883Y26162499D01*
X59472881Y26162500D01*
X59472873Y26162500D01*
X59472864Y26162500D01*
X58377129Y26162500D01*
X58377123Y26162499D01*
X58317516Y26156092D01*
X58182671Y26105798D01*
X58182664Y26105794D01*
X58067455Y26019548D01*
X58024266Y25961855D01*
X57968332Y25919985D01*
X57898640Y25915001D01*
X57837317Y25948487D01*
X57825734Y25961855D01*
X57786493Y26014273D01*
X57782546Y26019546D01*
X57782544Y26019547D01*
X57782544Y26019548D01*
X57667335Y26105794D01*
X57667328Y26105798D01*
X57532482Y26156092D01*
X57532483Y26156092D01*
X57472883Y26162499D01*
X57472881Y26162500D01*
X57472873Y26162500D01*
X57472864Y26162500D01*
X56377129Y26162500D01*
X56377123Y26162499D01*
X56317516Y26156092D01*
X56182671Y26105798D01*
X56182664Y26105794D01*
X56067455Y26019548D01*
X56024266Y25961855D01*
X55968332Y25919985D01*
X55898640Y25915001D01*
X55837317Y25948487D01*
X55825734Y25961855D01*
X55786493Y26014273D01*
X55782546Y26019546D01*
X55782544Y26019547D01*
X55782544Y26019548D01*
X55667335Y26105794D01*
X55667328Y26105798D01*
X55532482Y26156092D01*
X55532483Y26156092D01*
X55472883Y26162499D01*
X55472881Y26162500D01*
X55472873Y26162500D01*
X55472864Y26162500D01*
X54377129Y26162500D01*
X54377123Y26162499D01*
X54317516Y26156092D01*
X54182671Y26105798D01*
X54182664Y26105794D01*
X54067455Y26019548D01*
X54067452Y26019545D01*
X53981206Y25904336D01*
X53981202Y25904329D01*
X53930908Y25769483D01*
X53924501Y25709884D01*
X53924500Y25709865D01*
X53924500Y23114130D01*
X53924501Y23114124D01*
X53930908Y23054517D01*
X53981202Y22919672D01*
X53981206Y22919665D01*
X54067452Y22804456D01*
X54067455Y22804453D01*
X54182664Y22718207D01*
X54182671Y22718203D01*
X54317517Y22667909D01*
X54317516Y22667909D01*
X54324444Y22667165D01*
X54377127Y22661500D01*
X55472872Y22661501D01*
X55532483Y22667909D01*
X55667331Y22718204D01*
X55782546Y22804454D01*
X55825734Y22862146D01*
X55881667Y22904016D01*
X55951359Y22909000D01*
X56012682Y22875515D01*
X56024263Y22862150D01*
X56067454Y22804454D01*
X56091124Y22786735D01*
X56182664Y22718207D01*
X56182671Y22718203D01*
X56317517Y22667909D01*
X56317516Y22667909D01*
X56324444Y22667165D01*
X56377127Y22661500D01*
X56930994Y22661501D01*
X56998032Y22641817D01*
X57043787Y22589013D01*
X57053731Y22519854D01*
X57024706Y22456298D01*
X57018674Y22449820D01*
X55955675Y21386819D01*
X55894352Y21353334D01*
X55867994Y21350500D01*
X50269006Y21350500D01*
X50201967Y21370185D01*
X50181325Y21386819D01*
X49607192Y21960952D01*
X49573707Y22022275D01*
X49578691Y22091967D01*
X49593293Y22119749D01*
X49687534Y22254338D01*
X49747618Y22383189D01*
X49793790Y22435629D01*
X49860983Y22454781D01*
X49927865Y22434565D01*
X49972382Y22383189D01*
X50032464Y22254342D01*
X50032468Y22254334D01*
X50159170Y22073385D01*
X50159175Y22073379D01*
X50315378Y21917176D01*
X50315384Y21917171D01*
X50496333Y21790469D01*
X50496335Y21790468D01*
X50496338Y21790466D01*
X50696550Y21697106D01*
X50909932Y21639930D01*
X51067123Y21626178D01*
X51129998Y21620677D01*
X51130000Y21620677D01*
X51130002Y21620677D01*
X51185017Y21625491D01*
X51350068Y21639930D01*
X51563450Y21697106D01*
X51763662Y21790466D01*
X51944620Y21917174D01*
X52100826Y22073380D01*
X52227534Y22254338D01*
X52320894Y22454550D01*
X52378070Y22667932D01*
X52397323Y22888000D01*
X52394552Y22919669D01*
X52378070Y23108063D01*
X52378070Y23108068D01*
X52320894Y23321450D01*
X52227534Y23521661D01*
X52100826Y23702620D01*
X51944620Y23858826D01*
X51944616Y23858829D01*
X51944615Y23858830D01*
X51763666Y23985532D01*
X51763662Y23985534D01*
X51763660Y23985535D01*
X51563450Y24078894D01*
X51563447Y24078895D01*
X51563445Y24078896D01*
X51350070Y24136070D01*
X51350062Y24136071D01*
X51130002Y24155323D01*
X51129998Y24155323D01*
X50909937Y24136071D01*
X50909929Y24136070D01*
X50696554Y24078896D01*
X50696548Y24078893D01*
X50496340Y23985535D01*
X50496338Y23985534D01*
X50315377Y23858825D01*
X50159175Y23702623D01*
X50032466Y23521662D01*
X50032465Y23521660D01*
X49972382Y23392811D01*
X49926209Y23340372D01*
X49859016Y23321220D01*
X49792135Y23341436D01*
X49747618Y23392811D01*
X49687652Y23521407D01*
X49687534Y23521661D01*
X49560826Y23702620D01*
X49404620Y23858826D01*
X49404616Y23858829D01*
X49404615Y23858830D01*
X49223666Y23985532D01*
X49223662Y23985534D01*
X49223660Y23985535D01*
X49023450Y24078894D01*
X49023447Y24078895D01*
X49023445Y24078896D01*
X48810070Y24136070D01*
X48810062Y24136071D01*
X48590002Y24155323D01*
X48589998Y24155323D01*
X48369937Y24136071D01*
X48369929Y24136070D01*
X48156554Y24078896D01*
X48156548Y24078893D01*
X47956340Y23985535D01*
X47956338Y23985534D01*
X47775377Y23858825D01*
X47619175Y23702623D01*
X47492466Y23521662D01*
X47492465Y23521660D01*
X47432382Y23392811D01*
X47386209Y23340372D01*
X47319016Y23321220D01*
X47252135Y23341436D01*
X47207618Y23392811D01*
X47147652Y23521407D01*
X47147534Y23521661D01*
X47020826Y23702620D01*
X46864620Y23858826D01*
X46864616Y23858829D01*
X46864615Y23858830D01*
X46683666Y23985532D01*
X46683662Y23985534D01*
X46683660Y23985535D01*
X46483450Y24078894D01*
X46483447Y24078895D01*
X46483445Y24078896D01*
X46270070Y24136070D01*
X46270062Y24136071D01*
X46050002Y24155323D01*
X46049998Y24155323D01*
X45829937Y24136071D01*
X45829929Y24136070D01*
X45616554Y24078896D01*
X45616548Y24078893D01*
X45416340Y23985535D01*
X45416338Y23985534D01*
X45235377Y23858825D01*
X45079175Y23702623D01*
X44952466Y23521662D01*
X44952465Y23521660D01*
X44892382Y23392811D01*
X44846209Y23340372D01*
X44779016Y23321220D01*
X44712135Y23341436D01*
X44667618Y23392811D01*
X44607652Y23521407D01*
X44607534Y23521661D01*
X44480826Y23702620D01*
X44324620Y23858826D01*
X44324616Y23858829D01*
X44324615Y23858830D01*
X44143666Y23985532D01*
X44143662Y23985534D01*
X44143660Y23985535D01*
X43943450Y24078894D01*
X43943447Y24078895D01*
X43943445Y24078896D01*
X43730070Y24136070D01*
X43730062Y24136071D01*
X43510002Y24155323D01*
X43509998Y24155323D01*
X43289937Y24136071D01*
X43289929Y24136070D01*
X43076554Y24078896D01*
X43076548Y24078893D01*
X42876340Y23985535D01*
X42876338Y23985534D01*
X42695377Y23858825D01*
X42539175Y23702623D01*
X42412466Y23521662D01*
X42412465Y23521660D01*
X42352382Y23392811D01*
X42306209Y23340372D01*
X42239016Y23321220D01*
X42172135Y23341436D01*
X42127618Y23392811D01*
X42067652Y23521407D01*
X42067534Y23521661D01*
X41940826Y23702620D01*
X41784620Y23858826D01*
X41784616Y23858829D01*
X41784615Y23858830D01*
X41603666Y23985532D01*
X41603662Y23985534D01*
X41603660Y23985535D01*
X41403450Y24078894D01*
X41403447Y24078895D01*
X41403445Y24078896D01*
X41190070Y24136070D01*
X41190062Y24136071D01*
X40970002Y24155323D01*
X40969998Y24155323D01*
X40749937Y24136071D01*
X40749929Y24136070D01*
X40536554Y24078896D01*
X40536548Y24078893D01*
X40336340Y23985535D01*
X40336338Y23985534D01*
X40155377Y23858825D01*
X39999175Y23702623D01*
X39872466Y23521662D01*
X39872465Y23521660D01*
X39812382Y23392811D01*
X39766209Y23340372D01*
X39699016Y23321220D01*
X39632135Y23341436D01*
X39587618Y23392811D01*
X39527652Y23521407D01*
X39527534Y23521661D01*
X39400826Y23702620D01*
X39244620Y23858826D01*
X39244616Y23858829D01*
X39244615Y23858830D01*
X39063666Y23985532D01*
X39063662Y23985534D01*
X39063660Y23985535D01*
X38863450Y24078894D01*
X38863447Y24078895D01*
X38863445Y24078896D01*
X38650070Y24136070D01*
X38650062Y24136071D01*
X38430002Y24155323D01*
X38429998Y24155323D01*
X38209937Y24136071D01*
X38209929Y24136070D01*
X37996554Y24078896D01*
X37996548Y24078893D01*
X37796340Y23985535D01*
X37796338Y23985534D01*
X37615377Y23858825D01*
X37459175Y23702623D01*
X37332466Y23521662D01*
X37332465Y23521660D01*
X37272382Y23392811D01*
X37226209Y23340372D01*
X37159016Y23321220D01*
X37092135Y23341436D01*
X37047618Y23392811D01*
X36987652Y23521407D01*
X36987534Y23521661D01*
X36860826Y23702620D01*
X36704620Y23858826D01*
X36704616Y23858829D01*
X36704615Y23858830D01*
X36523666Y23985532D01*
X36523662Y23985534D01*
X36523660Y23985535D01*
X36323450Y24078894D01*
X36323447Y24078895D01*
X36323445Y24078896D01*
X36110070Y24136070D01*
X36110062Y24136071D01*
X35890002Y24155323D01*
X35889998Y24155323D01*
X35669937Y24136071D01*
X35669929Y24136070D01*
X35456554Y24078896D01*
X35456548Y24078893D01*
X35256340Y23985535D01*
X35256338Y23985534D01*
X35075377Y23858825D01*
X34919175Y23702623D01*
X34792466Y23521662D01*
X34792465Y23521660D01*
X34732382Y23392811D01*
X34686209Y23340372D01*
X34619016Y23321220D01*
X34552135Y23341436D01*
X34507618Y23392811D01*
X34447652Y23521407D01*
X34447534Y23521661D01*
X34320826Y23702620D01*
X34164620Y23858826D01*
X34164616Y23858829D01*
X34164615Y23858830D01*
X33983666Y23985532D01*
X33983662Y23985534D01*
X33983660Y23985535D01*
X33783450Y24078894D01*
X33783447Y24078895D01*
X33783445Y24078896D01*
X33570070Y24136070D01*
X33570062Y24136071D01*
X33350002Y24155323D01*
X33349998Y24155323D01*
X33129937Y24136071D01*
X33129929Y24136070D01*
X32916554Y24078896D01*
X32916548Y24078893D01*
X32716340Y23985535D01*
X32716338Y23985534D01*
X32535377Y23858825D01*
X32379175Y23702623D01*
X32252466Y23521662D01*
X32252465Y23521660D01*
X32192382Y23392811D01*
X32146209Y23340372D01*
X32079016Y23321220D01*
X32012135Y23341436D01*
X31967618Y23392811D01*
X31907652Y23521407D01*
X31907534Y23521661D01*
X31780826Y23702620D01*
X31624620Y23858826D01*
X31624616Y23858829D01*
X31624615Y23858830D01*
X31443666Y23985532D01*
X31443662Y23985534D01*
X31443660Y23985535D01*
X31243450Y24078894D01*
X31243447Y24078895D01*
X31243445Y24078896D01*
X31030070Y24136070D01*
X31030062Y24136071D01*
X30810002Y24155323D01*
X30809998Y24155323D01*
X30589937Y24136071D01*
X30589929Y24136070D01*
X30376554Y24078896D01*
X30376548Y24078893D01*
X30176340Y23985535D01*
X30176338Y23985534D01*
X29995377Y23858825D01*
X29839175Y23702623D01*
X29712466Y23521662D01*
X29712465Y23521660D01*
X29652382Y23392811D01*
X29606209Y23340372D01*
X29539016Y23321220D01*
X29472135Y23341436D01*
X29427618Y23392811D01*
X29367652Y23521407D01*
X29367534Y23521661D01*
X29240826Y23702620D01*
X29084620Y23858826D01*
X29084616Y23858829D01*
X29084615Y23858830D01*
X28903666Y23985532D01*
X28903662Y23985534D01*
X28903660Y23985535D01*
X28703450Y24078894D01*
X28703447Y24078895D01*
X28703445Y24078896D01*
X28490070Y24136070D01*
X28490062Y24136071D01*
X28270002Y24155323D01*
X28269998Y24155323D01*
X28049937Y24136071D01*
X28049929Y24136070D01*
X27836554Y24078896D01*
X27836548Y24078893D01*
X27636340Y23985535D01*
X27636338Y23985534D01*
X27455377Y23858825D01*
X27299175Y23702623D01*
X27172466Y23521662D01*
X27172465Y23521660D01*
X27112382Y23392811D01*
X27066209Y23340372D01*
X26999016Y23321220D01*
X26932135Y23341436D01*
X26887618Y23392811D01*
X26827652Y23521407D01*
X26827534Y23521661D01*
X26700826Y23702620D01*
X26544620Y23858826D01*
X26544616Y23858829D01*
X26544615Y23858830D01*
X26363666Y23985532D01*
X26363662Y23985534D01*
X26363660Y23985535D01*
X26163450Y24078894D01*
X26163447Y24078895D01*
X26163445Y24078896D01*
X25950070Y24136070D01*
X25950062Y24136071D01*
X25730002Y24155323D01*
X25729998Y24155323D01*
X25509937Y24136071D01*
X25509929Y24136070D01*
X25296554Y24078896D01*
X25296548Y24078893D01*
X25096340Y23985535D01*
X25096338Y23985534D01*
X24915377Y23858825D01*
X24759175Y23702623D01*
X24632466Y23521662D01*
X24632465Y23521660D01*
X24572382Y23392811D01*
X24526209Y23340372D01*
X24459016Y23321220D01*
X24392135Y23341436D01*
X24347618Y23392811D01*
X24287652Y23521407D01*
X24287534Y23521661D01*
X24160826Y23702620D01*
X24004620Y23858826D01*
X24004616Y23858829D01*
X24004615Y23858830D01*
X23823666Y23985532D01*
X23823662Y23985534D01*
X23823660Y23985535D01*
X23623450Y24078894D01*
X23623447Y24078895D01*
X23623445Y24078896D01*
X23410070Y24136070D01*
X23410062Y24136071D01*
X23190002Y24155323D01*
X23189998Y24155323D01*
X22969937Y24136071D01*
X22969929Y24136070D01*
X22756554Y24078896D01*
X22756548Y24078893D01*
X22556340Y23985535D01*
X22556338Y23985534D01*
X22375377Y23858825D01*
X22219175Y23702623D01*
X22092466Y23521662D01*
X22092465Y23521660D01*
X22032382Y23392811D01*
X21986209Y23340372D01*
X21919016Y23321220D01*
X21852135Y23341436D01*
X21807618Y23392811D01*
X21747652Y23521407D01*
X21747534Y23521661D01*
X21620826Y23702620D01*
X21464620Y23858826D01*
X21464616Y23858829D01*
X21464615Y23858830D01*
X21283666Y23985532D01*
X21283662Y23985534D01*
X21283660Y23985535D01*
X21083450Y24078894D01*
X21083447Y24078895D01*
X21083445Y24078896D01*
X20870070Y24136070D01*
X20870062Y24136071D01*
X20650002Y24155323D01*
X20649998Y24155323D01*
X20429937Y24136071D01*
X20429929Y24136070D01*
X20216554Y24078896D01*
X20216548Y24078893D01*
X20016340Y23985535D01*
X20016338Y23985534D01*
X19835377Y23858825D01*
X19679175Y23702623D01*
X19552466Y23521662D01*
X19552465Y23521660D01*
X19492382Y23392811D01*
X19446209Y23340372D01*
X19379016Y23321220D01*
X19312135Y23341436D01*
X19267618Y23392811D01*
X19207652Y23521407D01*
X19207534Y23521661D01*
X19080826Y23702620D01*
X18924620Y23858826D01*
X18924616Y23858829D01*
X18924615Y23858830D01*
X18743666Y23985532D01*
X18743662Y23985534D01*
X18743660Y23985535D01*
X18543450Y24078894D01*
X18543447Y24078895D01*
X18543445Y24078896D01*
X18330070Y24136070D01*
X18330062Y24136071D01*
X18110002Y24155323D01*
X18109998Y24155323D01*
X17889937Y24136071D01*
X17889929Y24136070D01*
X17676554Y24078896D01*
X17676548Y24078893D01*
X17476340Y23985535D01*
X17476338Y23985534D01*
X17295377Y23858825D01*
X17139175Y23702623D01*
X17012466Y23521662D01*
X17012465Y23521660D01*
X16952382Y23392811D01*
X16906209Y23340372D01*
X16839016Y23321220D01*
X16772135Y23341436D01*
X16727618Y23392811D01*
X16667652Y23521407D01*
X16667534Y23521661D01*
X16540826Y23702620D01*
X16540824Y23702623D01*
X16476819Y23766628D01*
X16443334Y23827951D01*
X16440500Y23854309D01*
X16440500Y25999236D01*
X16460185Y26066275D01*
X16512989Y26112030D01*
X16521167Y26115418D01*
X16600142Y26144875D01*
X16657331Y26166204D01*
X16772546Y26252454D01*
X16858796Y26367669D01*
X16909091Y26502517D01*
X16915500Y26562127D01*
X16915499Y28357872D01*
X16909091Y28417483D01*
X16907810Y28420917D01*
X16858797Y28552329D01*
X16858793Y28552336D01*
X16772547Y28667545D01*
X16772544Y28667548D01*
X16657335Y28753794D01*
X16657328Y28753798D01*
X16522482Y28804092D01*
X16522483Y28804092D01*
X16462883Y28810499D01*
X16462881Y28810500D01*
X16462873Y28810500D01*
X16462864Y28810500D01*
X14667129Y28810500D01*
X14667123Y28810499D01*
X14607516Y28804092D01*
X14472671Y28753798D01*
X14472664Y28753794D01*
X14357455Y28667548D01*
X14357452Y28667545D01*
X14271206Y28552336D01*
X14271203Y28552331D01*
X14222189Y28420917D01*
X14180317Y28364984D01*
X14114853Y28340567D01*
X14046580Y28355419D01*
X14018326Y28376570D01*
X13896402Y28498494D01*
X13896395Y28498499D01*
X13702834Y28634033D01*
X13702830Y28634035D01*
X13702828Y28634036D01*
X13488663Y28733903D01*
X13488659Y28733904D01*
X13488655Y28733906D01*
X13260413Y28795062D01*
X13260403Y28795064D01*
X13025001Y28815659D01*
X13024999Y28815659D01*
X12789596Y28795064D01*
X12789586Y28795062D01*
X12561344Y28733906D01*
X12561335Y28733902D01*
X12347171Y28634036D01*
X12347169Y28634035D01*
X12153597Y28498495D01*
X11986505Y28331403D01*
X11856575Y28145842D01*
X11801998Y28102217D01*
X11732500Y28095023D01*
X11670145Y28126546D01*
X11653425Y28145842D01*
X11523494Y28331403D01*
X11356402Y28498494D01*
X11356395Y28498499D01*
X11162834Y28634033D01*
X11162830Y28634035D01*
X11162828Y28634036D01*
X10948663Y28733903D01*
X10948659Y28733904D01*
X10948655Y28733906D01*
X10720413Y28795062D01*
X10720403Y28795064D01*
X10485001Y28815659D01*
X10484999Y28815659D01*
X10249596Y28795064D01*
X10249586Y28795062D01*
X10021344Y28733906D01*
X10021335Y28733902D01*
X9807171Y28634036D01*
X9807169Y28634035D01*
X9613597Y28498495D01*
X9446508Y28331406D01*
X9316269Y28145405D01*
X9261692Y28101781D01*
X9192193Y28094588D01*
X9129839Y28126110D01*
X9113119Y28145406D01*
X8983113Y28331074D01*
X8983108Y28331080D01*
X8816082Y28498106D01*
X8622578Y28633601D01*
X8408492Y28733430D01*
X8408486Y28733433D01*
X8195000Y28790636D01*
X8195000Y27895502D01*
X8087315Y27944680D01*
X7980763Y27960000D01*
X7909237Y27960000D01*
X7802685Y27944680D01*
X7695000Y27895502D01*
X7695000Y28790636D01*
X7694999Y28790636D01*
X7481513Y28733433D01*
X7481507Y28733430D01*
X7267422Y28633601D01*
X7267420Y28633600D01*
X7073926Y28498114D01*
X7073920Y28498109D01*
X6906891Y28331080D01*
X6906886Y28331074D01*
X6771400Y28137580D01*
X6771399Y28137578D01*
X6671570Y27923493D01*
X6671567Y27923487D01*
X6614364Y27710001D01*
X6614364Y27710000D01*
X7511314Y27710000D01*
X7485507Y27669844D01*
X7445000Y27531889D01*
X7445000Y27388111D01*
X7485507Y27250156D01*
X7511314Y27210000D01*
X6614364Y27210000D01*
X6671567Y26996514D01*
X6671570Y26996508D01*
X6771399Y26782422D01*
X6906894Y26588918D01*
X7073917Y26421895D01*
X7267421Y26286400D01*
X7481507Y26186571D01*
X7481516Y26186567D01*
X7695000Y26129366D01*
X7695000Y27024499D01*
X7802685Y26975320D01*
X7909237Y26960000D01*
X7980763Y26960000D01*
X8087315Y26975320D01*
X8195000Y27024499D01*
X8195000Y26129367D01*
X8408483Y26186567D01*
X8408492Y26186571D01*
X8622578Y26286400D01*
X8816082Y26421895D01*
X8983105Y26588918D01*
X9113119Y26774595D01*
X9167696Y26818219D01*
X9237195Y26825412D01*
X9299549Y26793890D01*
X9316269Y26774595D01*
X9446505Y26588599D01*
X9613599Y26421505D01*
X9710384Y26353735D01*
X9807165Y26285968D01*
X9807167Y26285967D01*
X9807170Y26285965D01*
X10021337Y26186097D01*
X10249592Y26124937D01*
X10426034Y26109500D01*
X10484999Y26104341D01*
X10485000Y26104341D01*
X10485001Y26104341D01*
X10543966Y26109500D01*
X10720408Y26124937D01*
X10948663Y26186097D01*
X11162830Y26285965D01*
X11356401Y26421505D01*
X11523495Y26588599D01*
X11653425Y26774158D01*
X11708002Y26817783D01*
X11777500Y26824977D01*
X11839855Y26793454D01*
X11856575Y26774158D01*
X11986501Y26588604D01*
X11986506Y26588598D01*
X12118181Y26456923D01*
X12151666Y26395600D01*
X12154500Y26369242D01*
X12154500Y23849309D01*
X12134815Y23782270D01*
X12118181Y23761628D01*
X12059175Y23702623D01*
X11932466Y23521662D01*
X11932465Y23521660D01*
X11872382Y23392811D01*
X11826209Y23340372D01*
X11759016Y23321220D01*
X11692135Y23341436D01*
X11647618Y23392811D01*
X11587652Y23521407D01*
X11587534Y23521661D01*
X11460826Y23702620D01*
X11304620Y23858826D01*
X11304616Y23858829D01*
X11304615Y23858830D01*
X11123666Y23985532D01*
X11123662Y23985534D01*
X11123660Y23985535D01*
X10923450Y24078894D01*
X10923447Y24078895D01*
X10923445Y24078896D01*
X10710070Y24136070D01*
X10710062Y24136071D01*
X10490002Y24155323D01*
X10489998Y24155323D01*
X10269937Y24136071D01*
X10269929Y24136070D01*
X10056554Y24078896D01*
X10056548Y24078893D01*
X9856340Y23985535D01*
X9856338Y23985534D01*
X9675377Y23858825D01*
X9519175Y23702623D01*
X9392466Y23521662D01*
X9392465Y23521660D01*
X9332382Y23392811D01*
X9286209Y23340372D01*
X9219016Y23321220D01*
X9152135Y23341436D01*
X9107618Y23392811D01*
X9047652Y23521407D01*
X9047534Y23521661D01*
X8920826Y23702620D01*
X8764620Y23858826D01*
X8764616Y23858829D01*
X8764615Y23858830D01*
X8583666Y23985532D01*
X8583662Y23985534D01*
X8583660Y23985535D01*
X8383450Y24078894D01*
X8383447Y24078895D01*
X8383445Y24078896D01*
X8170070Y24136070D01*
X8170062Y24136071D01*
X7950002Y24155323D01*
X7949998Y24155323D01*
X7729937Y24136071D01*
X7729929Y24136070D01*
X7516554Y24078896D01*
X7516548Y24078893D01*
X7316340Y23985535D01*
X7316338Y23985534D01*
X7135377Y23858825D01*
X6979175Y23702623D01*
X6852467Y23521663D01*
X6852466Y23521661D01*
X6852348Y23521407D01*
X6792105Y23392218D01*
X6745932Y23339779D01*
X6678738Y23320628D01*
X6611857Y23340844D01*
X6567341Y23392220D01*
X6507100Y23521407D01*
X6507099Y23521409D01*
X6461740Y23586189D01*
X5854449Y22978899D01*
X5853673Y22989265D01*
X5804113Y23115541D01*
X5719535Y23221599D01*
X5607453Y23298016D01*
X5499699Y23331254D01*
X6108187Y23939742D01*
X6043409Y23985100D01*
X6043407Y23985101D01*
X5843284Y24078420D01*
X5843270Y24078425D01*
X5629986Y24135574D01*
X5629976Y24135576D01*
X5410001Y24154821D01*
X5409999Y24154821D01*
X5190023Y24135576D01*
X5190013Y24135574D01*
X4976729Y24078425D01*
X4976720Y24078421D01*
X4776586Y23985097D01*
X4711812Y23939743D01*
X4711811Y23939742D01*
X5321769Y23329785D01*
X5275862Y23322865D01*
X5153643Y23264007D01*
X5054202Y23171740D01*
X4986375Y23054260D01*
X4968500Y22975947D01*
X4358258Y23586189D01*
X4358257Y23586188D01*
X4312903Y23521414D01*
X4252382Y23391627D01*
X4206209Y23339188D01*
X4139016Y23320036D01*
X4072135Y23340252D01*
X4027618Y23391627D01*
X3967099Y23521410D01*
X3921740Y23586189D01*
X3314449Y22978899D01*
X3313673Y22989265D01*
X3264113Y23115541D01*
X3179535Y23221599D01*
X3067453Y23298016D01*
X2959699Y23331254D01*
X3568187Y23939742D01*
X3503409Y23985100D01*
X3503407Y23985101D01*
X3303284Y24078420D01*
X3303270Y24078425D01*
X3089986Y24135574D01*
X3089976Y24135576D01*
X2870001Y24154821D01*
X2869999Y24154821D01*
X2650023Y24135576D01*
X2650013Y24135574D01*
X2436729Y24078425D01*
X2436720Y24078421D01*
X2236586Y23985097D01*
X2171812Y23939743D01*
X2171811Y23939742D01*
X2781769Y23329785D01*
X2735862Y23322865D01*
X2613643Y23264007D01*
X2514202Y23171740D01*
X2446375Y23054260D01*
X2428500Y22975947D01*
X1818258Y23586189D01*
X1818257Y23586188D01*
X1772903Y23521414D01*
X1679579Y23321280D01*
X1679575Y23321271D01*
X1622426Y23107987D01*
X1622424Y23107977D01*
X1603179Y22888001D01*
X1603179Y22888000D01*
X1622424Y22668024D01*
X1622426Y22668014D01*
X1679575Y22454730D01*
X1679580Y22454716D01*
X1772899Y22254593D01*
X1772900Y22254591D01*
X1818258Y22189813D01*
X2425549Y22797105D01*
X2426327Y22786735D01*
X2475887Y22660459D01*
X2560465Y22554401D01*
X2672547Y22477984D01*
X2780299Y22444747D01*
X2171811Y21836259D01*
X2236582Y21790906D01*
X2236592Y21790900D01*
X2436715Y21697581D01*
X2436729Y21697576D01*
X2650013Y21640427D01*
X2650023Y21640425D01*
X2869999Y21621179D01*
X2870001Y21621179D01*
X3089976Y21640425D01*
X3089986Y21640427D01*
X3303270Y21697576D01*
X3303284Y21697581D01*
X3503408Y21790900D01*
X3503420Y21790907D01*
X3568186Y21836258D01*
X3568187Y21836260D01*
X2958232Y22446216D01*
X3004138Y22453135D01*
X3126357Y22511993D01*
X3225798Y22604260D01*
X3293625Y22721740D01*
X3311499Y22800054D01*
X3921740Y22189813D01*
X3921742Y22189814D01*
X3967093Y22254580D01*
X3967100Y22254592D01*
X4027618Y22384373D01*
X4073790Y22436813D01*
X4140983Y22455965D01*
X4207864Y22435750D01*
X4252382Y22384373D01*
X4312899Y22254593D01*
X4312900Y22254591D01*
X4358258Y22189813D01*
X4965549Y22797105D01*
X4966327Y22786735D01*
X5015887Y22660459D01*
X5100465Y22554401D01*
X5212547Y22477984D01*
X5320299Y22444747D01*
X4711811Y21836259D01*
X4776582Y21790906D01*
X4776592Y21790900D01*
X4976715Y21697581D01*
X4976729Y21697576D01*
X5190013Y21640427D01*
X5190023Y21640425D01*
X5409999Y21621179D01*
X5410001Y21621179D01*
X5629976Y21640425D01*
X5629986Y21640427D01*
X5843270Y21697576D01*
X5843284Y21697581D01*
X6043408Y21790900D01*
X6043420Y21790907D01*
X6108186Y21836258D01*
X6108187Y21836260D01*
X5498232Y22446216D01*
X5544138Y22453135D01*
X5666357Y22511993D01*
X5765798Y22604260D01*
X5833625Y22721740D01*
X5851499Y22800054D01*
X6461740Y22189813D01*
X6461742Y22189814D01*
X6507093Y22254580D01*
X6507100Y22254592D01*
X6567342Y22383781D01*
X6613514Y22436221D01*
X6680707Y22455373D01*
X6747588Y22435158D01*
X6792106Y22383781D01*
X6852464Y22254342D01*
X6852468Y22254334D01*
X6979170Y22073385D01*
X6979175Y22073379D01*
X7135378Y21917176D01*
X7135384Y21917171D01*
X7316333Y21790469D01*
X7316335Y21790468D01*
X7316338Y21790466D01*
X7516550Y21697106D01*
X7729932Y21639930D01*
X7887123Y21626178D01*
X7949998Y21620677D01*
X7950000Y21620677D01*
X7950002Y21620677D01*
X8005017Y21625491D01*
X8170068Y21639930D01*
X8383450Y21697106D01*
X8583662Y21790466D01*
X8764620Y21917174D01*
X8920826Y22073380D01*
X9047534Y22254338D01*
X9107618Y22383189D01*
X9153790Y22435629D01*
X9220983Y22454781D01*
X9287865Y22434565D01*
X9332382Y22383189D01*
X9392464Y22254342D01*
X9392468Y22254334D01*
X9519170Y22073385D01*
X9519175Y22073379D01*
X9675378Y21917176D01*
X9675384Y21917171D01*
X9856333Y21790469D01*
X9856335Y21790468D01*
X9856338Y21790466D01*
X10056550Y21697106D01*
X10269932Y21639930D01*
X10427123Y21626178D01*
X10489998Y21620677D01*
X10490000Y21620677D01*
X10490002Y21620677D01*
X10545017Y21625491D01*
X10710068Y21639930D01*
X10923450Y21697106D01*
X11123662Y21790466D01*
X11304620Y21917174D01*
X11460826Y22073380D01*
X11587534Y22254338D01*
X11647618Y22383189D01*
X11693790Y22435629D01*
X11760983Y22454781D01*
X11827865Y22434565D01*
X11872382Y22383189D01*
X11932464Y22254342D01*
X11932468Y22254334D01*
X12059170Y22073385D01*
X12059175Y22073379D01*
X12215378Y21917176D01*
X12215384Y21917171D01*
X12396333Y21790469D01*
X12396335Y21790468D01*
X12396338Y21790466D01*
X12596550Y21697106D01*
X12809932Y21639930D01*
X12967123Y21626178D01*
X13029998Y21620677D01*
X13030000Y21620677D01*
X13030002Y21620677D01*
X13085017Y21625491D01*
X13250068Y21639930D01*
X13463450Y21697106D01*
X13663662Y21790466D01*
X13844620Y21917174D01*
X14000826Y22073380D01*
X14127534Y22254338D01*
X14187618Y22383189D01*
X14233790Y22435629D01*
X14300983Y22454781D01*
X14367865Y22434565D01*
X14412382Y22383189D01*
X14472464Y22254342D01*
X14472468Y22254334D01*
X14599170Y22073385D01*
X14599175Y22073379D01*
X14755378Y21917176D01*
X14755384Y21917171D01*
X14936333Y21790469D01*
X14936335Y21790468D01*
X14936338Y21790466D01*
X15136550Y21697106D01*
X15349932Y21639930D01*
X15507123Y21626178D01*
X15569998Y21620677D01*
X15570000Y21620677D01*
X15570002Y21620677D01*
X15625017Y21625491D01*
X15790068Y21639930D01*
X16003450Y21697106D01*
X16203662Y21790466D01*
X16384620Y21917174D01*
X16540826Y22073380D01*
X16667534Y22254338D01*
X16727618Y22383189D01*
X16773790Y22435629D01*
X16840983Y22454781D01*
X16907865Y22434565D01*
X16952382Y22383189D01*
X17012464Y22254342D01*
X17012468Y22254334D01*
X17139170Y22073385D01*
X17139175Y22073379D01*
X17295378Y21917176D01*
X17295384Y21917171D01*
X17476333Y21790469D01*
X17476335Y21790468D01*
X17476338Y21790466D01*
X17676550Y21697106D01*
X17889932Y21639930D01*
X18047123Y21626178D01*
X18109998Y21620677D01*
X18110000Y21620677D01*
X18110002Y21620677D01*
X18165017Y21625491D01*
X18330068Y21639930D01*
X18543450Y21697106D01*
X18743662Y21790466D01*
X18924620Y21917174D01*
X19080826Y22073380D01*
X19207534Y22254338D01*
X19267618Y22383189D01*
X19313790Y22435629D01*
X19380983Y22454781D01*
X19447865Y22434565D01*
X19492382Y22383189D01*
X19552464Y22254342D01*
X19552468Y22254334D01*
X19679170Y22073385D01*
X19679175Y22073379D01*
X19835378Y21917176D01*
X19835384Y21917171D01*
X20016333Y21790469D01*
X20016335Y21790468D01*
X20016338Y21790466D01*
X20216550Y21697106D01*
X20429932Y21639930D01*
X20587123Y21626178D01*
X20649998Y21620677D01*
X20650000Y21620677D01*
X20650002Y21620677D01*
X20705017Y21625491D01*
X20870068Y21639930D01*
X21083450Y21697106D01*
X21283662Y21790466D01*
X21464620Y21917174D01*
X21620826Y22073380D01*
X21747534Y22254338D01*
X21807618Y22383189D01*
X21853790Y22435629D01*
X21920983Y22454781D01*
X21987865Y22434565D01*
X22032382Y22383189D01*
X22092464Y22254342D01*
X22092468Y22254334D01*
X22219170Y22073385D01*
X22219175Y22073379D01*
X22375378Y21917176D01*
X22375384Y21917171D01*
X22556333Y21790469D01*
X22556335Y21790468D01*
X22556338Y21790466D01*
X22756550Y21697106D01*
X22969932Y21639930D01*
X23127123Y21626178D01*
X23189998Y21620677D01*
X23190000Y21620677D01*
X23190002Y21620677D01*
X23245017Y21625491D01*
X23410068Y21639930D01*
X23623450Y21697106D01*
X23823662Y21790466D01*
X24004620Y21917174D01*
X24160826Y22073380D01*
X24287534Y22254338D01*
X24347618Y22383189D01*
X24393790Y22435629D01*
X24460983Y22454781D01*
X24527865Y22434565D01*
X24572382Y22383189D01*
X24632464Y22254342D01*
X24632468Y22254334D01*
X24759170Y22073385D01*
X24759175Y22073379D01*
X24915378Y21917176D01*
X24915384Y21917171D01*
X25096333Y21790469D01*
X25096335Y21790468D01*
X25096338Y21790466D01*
X25296550Y21697106D01*
X25509932Y21639930D01*
X25667123Y21626178D01*
X25729998Y21620677D01*
X25730000Y21620677D01*
X25730002Y21620677D01*
X25785017Y21625491D01*
X25950068Y21639930D01*
X26163450Y21697106D01*
X26363662Y21790466D01*
X26544620Y21917174D01*
X26700826Y22073380D01*
X26827534Y22254338D01*
X26887618Y22383189D01*
X26933790Y22435629D01*
X27000983Y22454781D01*
X27067865Y22434565D01*
X27112382Y22383189D01*
X27172464Y22254342D01*
X27172468Y22254334D01*
X27299170Y22073385D01*
X27299175Y22073379D01*
X27455378Y21917176D01*
X27455384Y21917171D01*
X27636333Y21790469D01*
X27636335Y21790468D01*
X27636338Y21790466D01*
X27836550Y21697106D01*
X28049932Y21639930D01*
X28207123Y21626178D01*
X28269998Y21620677D01*
X28270000Y21620677D01*
X28270002Y21620677D01*
X28325017Y21625491D01*
X28490068Y21639930D01*
X28703450Y21697106D01*
X28903662Y21790466D01*
X29084620Y21917174D01*
X29240826Y22073380D01*
X29367534Y22254338D01*
X29427618Y22383189D01*
X29473790Y22435629D01*
X29540983Y22454781D01*
X29607865Y22434565D01*
X29652382Y22383189D01*
X29712464Y22254342D01*
X29712468Y22254334D01*
X29839170Y22073385D01*
X29839175Y22073379D01*
X29995378Y21917176D01*
X29995384Y21917171D01*
X30176333Y21790469D01*
X30176335Y21790468D01*
X30176338Y21790466D01*
X30376550Y21697106D01*
X30589932Y21639930D01*
X30747123Y21626178D01*
X30809998Y21620677D01*
X30810000Y21620677D01*
X30810002Y21620677D01*
X30865017Y21625491D01*
X31030068Y21639930D01*
X31243450Y21697106D01*
X31443662Y21790466D01*
X31624620Y21917174D01*
X31780826Y22073380D01*
X31907534Y22254338D01*
X31967618Y22383189D01*
X32013790Y22435629D01*
X32080983Y22454781D01*
X32147865Y22434565D01*
X32192382Y22383189D01*
X32252464Y22254342D01*
X32252468Y22254334D01*
X32379170Y22073385D01*
X32379175Y22073379D01*
X32535378Y21917176D01*
X32535384Y21917171D01*
X32716333Y21790469D01*
X32716335Y21790468D01*
X32716338Y21790466D01*
X32916550Y21697106D01*
X33129932Y21639930D01*
X33287123Y21626178D01*
X33349998Y21620677D01*
X33350000Y21620677D01*
X33350002Y21620677D01*
X33405017Y21625491D01*
X33570068Y21639930D01*
X33783450Y21697106D01*
X33983662Y21790466D01*
X34164620Y21917174D01*
X34320826Y22073380D01*
X34447534Y22254338D01*
X34507618Y22383189D01*
X34553790Y22435629D01*
X34620983Y22454781D01*
X34687865Y22434565D01*
X34732382Y22383189D01*
X34792464Y22254342D01*
X34792468Y22254334D01*
X34919170Y22073385D01*
X34919175Y22073379D01*
X35075378Y21917176D01*
X35075384Y21917171D01*
X35256333Y21790469D01*
X35256335Y21790468D01*
X35256338Y21790466D01*
X35456550Y21697106D01*
X35669932Y21639930D01*
X35827123Y21626178D01*
X35889998Y21620677D01*
X35890000Y21620677D01*
X35890002Y21620677D01*
X35945017Y21625491D01*
X36110068Y21639930D01*
X36323450Y21697106D01*
X36523662Y21790466D01*
X36704620Y21917174D01*
X36860826Y22073380D01*
X36987534Y22254338D01*
X37047618Y22383189D01*
X37093790Y22435629D01*
X37160983Y22454781D01*
X37227865Y22434565D01*
X37272382Y22383189D01*
X37332464Y22254342D01*
X37332468Y22254334D01*
X37459170Y22073385D01*
X37459175Y22073379D01*
X37615378Y21917176D01*
X37615384Y21917171D01*
X37796333Y21790469D01*
X37796335Y21790468D01*
X37796338Y21790466D01*
X37996550Y21697106D01*
X38209932Y21639930D01*
X38367123Y21626178D01*
X38429998Y21620677D01*
X38430000Y21620677D01*
X38430002Y21620677D01*
X38485017Y21625491D01*
X38650068Y21639930D01*
X38863450Y21697106D01*
X39063662Y21790466D01*
X39244620Y21917174D01*
X39400826Y22073380D01*
X39527534Y22254338D01*
X39587618Y22383189D01*
X39633790Y22435629D01*
X39700983Y22454781D01*
X39767865Y22434565D01*
X39812382Y22383189D01*
X39872464Y22254342D01*
X39872468Y22254334D01*
X39999170Y22073385D01*
X39999175Y22073379D01*
X40155378Y21917176D01*
X40155384Y21917171D01*
X40336333Y21790469D01*
X40336335Y21790468D01*
X40336338Y21790466D01*
X40536550Y21697106D01*
X40749932Y21639930D01*
X40907123Y21626178D01*
X40969998Y21620677D01*
X40970000Y21620677D01*
X40970002Y21620677D01*
X41025017Y21625491D01*
X41190068Y21639930D01*
X41403450Y21697106D01*
X41603662Y21790466D01*
X41784620Y21917174D01*
X41940826Y22073380D01*
X42067534Y22254338D01*
X42127618Y22383189D01*
X42173790Y22435629D01*
X42240983Y22454781D01*
X42307865Y22434565D01*
X42352382Y22383189D01*
X42412464Y22254342D01*
X42412468Y22254334D01*
X42539170Y22073385D01*
X42539175Y22073379D01*
X42598181Y22014373D01*
X42631666Y21953050D01*
X42634500Y21926692D01*
X42634500Y19238103D01*
X42634295Y19233069D01*
X42629660Y19176157D01*
X42640914Y19093559D01*
X42649927Y19010684D01*
X42649929Y19010673D01*
X42649990Y19010494D01*
X42655340Y18987669D01*
X42655366Y18987475D01*
X42655369Y18987464D01*
X42684119Y18909206D01*
X42710730Y18830226D01*
X42710734Y18830218D01*
X42710832Y18830055D01*
X42720969Y18808901D01*
X42721036Y18808717D01*
X42721038Y18808714D01*
X42721039Y18808712D01*
X42734112Y18788259D01*
X42763104Y18742900D01*
X42765940Y18738464D01*
X42808911Y18667046D01*
X42809042Y18666908D01*
X42823495Y18648421D01*
X42823602Y18648253D01*
X42879429Y18592427D01*
X42882552Y18589304D01*
X42939871Y18528793D01*
X42940028Y18528686D01*
X42958121Y18513735D01*
X45398992Y16072864D01*
X45402396Y16069171D01*
X45439362Y16025650D01*
X45439363Y16025649D01*
X45439365Y16025648D01*
X45439369Y16025643D01*
X45505737Y15975192D01*
X45570699Y15922973D01*
X45570701Y15922971D01*
X45570872Y15922886D01*
X45590814Y15910517D01*
X45590971Y15910398D01*
X45666640Y15875390D01*
X45741307Y15838359D01*
X45741483Y15838316D01*
X45763625Y15830521D01*
X45763803Y15830438D01*
X45804513Y15821477D01*
X45845223Y15812516D01*
X45860359Y15808752D01*
X45926110Y15792400D01*
X45926283Y15792396D01*
X45949602Y15789540D01*
X45949784Y15789500D01*
X45949787Y15789500D01*
X46033159Y15789500D01*
X46116473Y15787243D01*
X46116655Y15787279D01*
X46140023Y15789500D01*
X63151898Y15789500D01*
X63156932Y15789295D01*
X63213844Y15784661D01*
X63213845Y15784662D01*
X63213848Y15784661D01*
X63296441Y15795915D01*
X63379316Y15804927D01*
X63379481Y15804983D01*
X63402357Y15810345D01*
X63402537Y15810369D01*
X63480793Y15839120D01*
X63559780Y15865733D01*
X63559928Y15865822D01*
X63581116Y15875976D01*
X63581288Y15876039D01*
X63651536Y15920941D01*
X63722954Y15963911D01*
X63723083Y15964034D01*
X63741597Y15978506D01*
X63741607Y15978513D01*
X63741744Y15978600D01*
X63771219Y16008077D01*
X63800696Y16037552D01*
X63837987Y16072876D01*
X63861207Y16094871D01*
X63861306Y16095017D01*
X63876264Y16113122D01*
X69517142Y21754000D01*
X69520810Y21757382D01*
X69564357Y21794369D01*
X69614808Y21860738D01*
X69667030Y21925703D01*
X69667109Y21925862D01*
X69679489Y21945823D01*
X69679602Y21945971D01*
X69714610Y22021641D01*
X69751641Y22096307D01*
X69751685Y22096486D01*
X69759484Y22118637D01*
X69759562Y22118803D01*
X69759563Y22118809D01*
X69762392Y22124920D01*
X69764767Y22123821D01*
X69798042Y22171379D01*
X69862689Y22197884D01*
X69931403Y22185231D01*
X69982369Y22137437D01*
X69999500Y22074548D01*
X69999500Y7813954D01*
X69979815Y7746915D01*
X69927011Y7701160D01*
X69857853Y7691216D01*
X69794297Y7720241D01*
X69787819Y7726273D01*
X69782544Y7731548D01*
X69667335Y7817794D01*
X69667328Y7817798D01*
X69532482Y7868092D01*
X69532483Y7868092D01*
X69472883Y7874499D01*
X69472881Y7874500D01*
X69472873Y7874500D01*
X69472864Y7874500D01*
X68377129Y7874500D01*
X68377123Y7874499D01*
X68317516Y7868092D01*
X68182671Y7817798D01*
X68182664Y7817794D01*
X68067455Y7731548D01*
X68024266Y7673855D01*
X67968332Y7631985D01*
X67898640Y7627001D01*
X67837317Y7660487D01*
X67825729Y7673862D01*
X67825229Y7674530D01*
X67800815Y7739996D01*
X67800500Y7748835D01*
X67800500Y8324902D01*
X67800705Y8329937D01*
X67802205Y8348370D01*
X67805339Y8386848D01*
X67794085Y8469442D01*
X67785073Y8552316D01*
X67785014Y8552491D01*
X67779656Y8575351D01*
X67779631Y8575537D01*
X67750880Y8653794D01*
X67724267Y8732780D01*
X67724266Y8732782D01*
X67724172Y8732939D01*
X67714025Y8754113D01*
X67713961Y8754288D01*
X67669059Y8824537D01*
X67626089Y8895954D01*
X67625955Y8896096D01*
X67611504Y8914581D01*
X67611400Y8914744D01*
X67552447Y8973697D01*
X67495129Y9034207D01*
X67494970Y9034315D01*
X67476877Y9049267D01*
X64562821Y11963323D01*
X61300999Y15225145D01*
X61297608Y15228824D01*
X61260631Y15272357D01*
X61198746Y15319400D01*
X61194262Y15322809D01*
X61129297Y15375030D01*
X61129294Y15375032D01*
X61129120Y15375118D01*
X61109182Y15387486D01*
X61109029Y15387603D01*
X61109027Y15387604D01*
X61033359Y15422611D01*
X61026338Y15426093D01*
X60958693Y15459641D01*
X60958689Y15459642D01*
X60958680Y15459645D01*
X60958488Y15459693D01*
X60936385Y15467475D01*
X60936198Y15467562D01*
X60936194Y15467563D01*
X60854771Y15485486D01*
X60773885Y15505601D01*
X60773689Y15505606D01*
X60750413Y15508457D01*
X60750222Y15508499D01*
X60750219Y15508500D01*
X60750216Y15508500D01*
X60750212Y15508500D01*
X60666840Y15508500D01*
X60583527Y15510757D01*
X60583526Y15510757D01*
X60583345Y15510722D01*
X60559977Y15508500D01*
X30081099Y15508500D01*
X30076064Y15508705D01*
X30019154Y15513340D01*
X30019148Y15513339D01*
X29936559Y15502087D01*
X29853680Y15493073D01*
X29853490Y15493008D01*
X29830665Y15487659D01*
X29830466Y15487632D01*
X29830463Y15487632D01*
X29830463Y15487631D01*
X29813441Y15481378D01*
X29752205Y15458881D01*
X29673220Y15432268D01*
X29673217Y15432266D01*
X29673040Y15432159D01*
X29651911Y15422035D01*
X29651713Y15421963D01*
X29581463Y15377060D01*
X29510043Y15334088D01*
X29510041Y15334086D01*
X29509890Y15333942D01*
X29491436Y15319515D01*
X29491260Y15319403D01*
X29491255Y15319399D01*
X29432302Y15260448D01*
X29371796Y15203133D01*
X29371792Y15203129D01*
X29371681Y15202964D01*
X29356737Y15184883D01*
X25137873Y10966018D01*
X25134170Y10962604D01*
X25090641Y10925630D01*
X25040191Y10859263D01*
X24987970Y10794299D01*
X24987968Y10794296D01*
X24987879Y10794115D01*
X24975529Y10774204D01*
X24975400Y10774036D01*
X24975397Y10774030D01*
X24954605Y10729087D01*
X24940389Y10698360D01*
X24922504Y10662297D01*
X24903359Y10623695D01*
X24903354Y10623681D01*
X24903309Y10623497D01*
X24895527Y10601391D01*
X24895441Y10601206D01*
X24895438Y10601197D01*
X24877514Y10519771D01*
X24857399Y10438887D01*
X24857394Y10438690D01*
X24854545Y10415425D01*
X24854500Y10415222D01*
X24854500Y10331840D01*
X24852243Y10248527D01*
X24852278Y10248345D01*
X24854500Y10224977D01*
X24854500Y8609309D01*
X24834815Y8542270D01*
X24818181Y8521628D01*
X24759175Y8462623D01*
X24632466Y8281662D01*
X24632465Y8281660D01*
X24572382Y8152811D01*
X24526209Y8100372D01*
X24459016Y8081220D01*
X24392135Y8101436D01*
X24347618Y8152811D01*
X24329059Y8192610D01*
X24287534Y8281661D01*
X24160826Y8462620D01*
X24004620Y8618826D01*
X24004616Y8618829D01*
X24004615Y8618830D01*
X23823666Y8745532D01*
X23823662Y8745534D01*
X23804559Y8754442D01*
X23623450Y8838894D01*
X23623447Y8838895D01*
X23623445Y8838896D01*
X23410070Y8896070D01*
X23410062Y8896071D01*
X23190002Y8915323D01*
X23189998Y8915323D01*
X22969937Y8896071D01*
X22969929Y8896070D01*
X22756554Y8838896D01*
X22756548Y8838893D01*
X22556340Y8745535D01*
X22556338Y8745534D01*
X22375377Y8618825D01*
X22219175Y8462623D01*
X22092466Y8281662D01*
X22092465Y8281660D01*
X22032382Y8152811D01*
X21986209Y8100372D01*
X21919016Y8081220D01*
X21852135Y8101436D01*
X21807618Y8152811D01*
X21789059Y8192610D01*
X21747534Y8281661D01*
X21620826Y8462620D01*
X21464620Y8618826D01*
X21464616Y8618829D01*
X21464615Y8618830D01*
X21283666Y8745532D01*
X21283662Y8745534D01*
X21264559Y8754442D01*
X21083450Y8838894D01*
X21083447Y8838895D01*
X21083445Y8838896D01*
X20870070Y8896070D01*
X20870062Y8896071D01*
X20650002Y8915323D01*
X20649998Y8915323D01*
X20429937Y8896071D01*
X20429929Y8896070D01*
X20216554Y8838896D01*
X20216548Y8838893D01*
X20016340Y8745535D01*
X20016338Y8745534D01*
X19835377Y8618825D01*
X19679175Y8462623D01*
X19552466Y8281662D01*
X19552465Y8281660D01*
X19492382Y8152811D01*
X19446209Y8100372D01*
X19379016Y8081220D01*
X19312135Y8101436D01*
X19267618Y8152811D01*
X19249059Y8192610D01*
X19207534Y8281661D01*
X19080826Y8462620D01*
X18924620Y8618826D01*
X18924616Y8618829D01*
X18924615Y8618830D01*
X18743666Y8745532D01*
X18743662Y8745534D01*
X18724559Y8754442D01*
X18543450Y8838894D01*
X18543447Y8838895D01*
X18543445Y8838896D01*
X18330070Y8896070D01*
X18330062Y8896071D01*
X18110002Y8915323D01*
X18109998Y8915323D01*
X17889937Y8896071D01*
X17889929Y8896070D01*
X17676554Y8838896D01*
X17676548Y8838893D01*
X17476340Y8745535D01*
X17476338Y8745534D01*
X17295377Y8618825D01*
X17139175Y8462623D01*
X17012466Y8281662D01*
X17012465Y8281660D01*
X16952382Y8152811D01*
X16906209Y8100372D01*
X16839016Y8081220D01*
X16772135Y8101436D01*
X16727618Y8152811D01*
X16709059Y8192610D01*
X16667534Y8281661D01*
X16540826Y8462620D01*
X16384620Y8618826D01*
X16384616Y8618829D01*
X16384615Y8618830D01*
X16203666Y8745532D01*
X16203662Y8745534D01*
X16184559Y8754442D01*
X16003450Y8838894D01*
X16003447Y8838895D01*
X16003445Y8838896D01*
X15790070Y8896070D01*
X15790062Y8896071D01*
X15570002Y8915323D01*
X15569998Y8915323D01*
X15349937Y8896071D01*
X15349929Y8896070D01*
X15136554Y8838896D01*
X15136548Y8838893D01*
X14936340Y8745535D01*
X14936338Y8745534D01*
X14755377Y8618825D01*
X14599175Y8462623D01*
X14472466Y8281662D01*
X14472465Y8281660D01*
X14412382Y8152811D01*
X14366209Y8100372D01*
X14299016Y8081220D01*
X14232135Y8101436D01*
X14187618Y8152811D01*
X14169059Y8192610D01*
X14127534Y8281661D01*
X14000826Y8462620D01*
X13844620Y8618826D01*
X13844616Y8618829D01*
X13844615Y8618830D01*
X13663666Y8745532D01*
X13663662Y8745534D01*
X13644559Y8754442D01*
X13463450Y8838894D01*
X13463447Y8838895D01*
X13463445Y8838896D01*
X13250070Y8896070D01*
X13250062Y8896071D01*
X13030002Y8915323D01*
X13029998Y8915323D01*
X12809937Y8896071D01*
X12809929Y8896070D01*
X12596554Y8838896D01*
X12596548Y8838893D01*
X12396340Y8745535D01*
X12396338Y8745534D01*
X12215377Y8618825D01*
X12059175Y8462623D01*
X11932466Y8281662D01*
X11932465Y8281660D01*
X11872382Y8152811D01*
X11826209Y8100372D01*
X11759016Y8081220D01*
X11692135Y8101436D01*
X11647618Y8152811D01*
X11629059Y8192610D01*
X11587534Y8281661D01*
X11460826Y8462620D01*
X11304620Y8618826D01*
X11304616Y8618829D01*
X11304615Y8618830D01*
X11123666Y8745532D01*
X11123662Y8745534D01*
X11104559Y8754442D01*
X10923450Y8838894D01*
X10923447Y8838895D01*
X10923445Y8838896D01*
X10710070Y8896070D01*
X10710062Y8896071D01*
X10490002Y8915323D01*
X10489998Y8915323D01*
X10269937Y8896071D01*
X10269929Y8896070D01*
X10056554Y8838896D01*
X10056548Y8838893D01*
X9856340Y8745535D01*
X9856338Y8745534D01*
X9675377Y8618825D01*
X9519175Y8462623D01*
X9392466Y8281662D01*
X9392465Y8281660D01*
X9332382Y8152811D01*
X9286209Y8100372D01*
X9219016Y8081220D01*
X9152135Y8101436D01*
X9107618Y8152811D01*
X9089059Y8192610D01*
X9047534Y8281661D01*
X8920826Y8462620D01*
X8764620Y8618826D01*
X8764616Y8618829D01*
X8764615Y8618830D01*
X8583666Y8745532D01*
X8583662Y8745534D01*
X8564559Y8754442D01*
X8383450Y8838894D01*
X8383447Y8838895D01*
X8383445Y8838896D01*
X8170070Y8896070D01*
X8170062Y8896071D01*
X7950002Y8915323D01*
X7949998Y8915323D01*
X7729937Y8896071D01*
X7729929Y8896070D01*
X7516554Y8838896D01*
X7516548Y8838893D01*
X7316340Y8745535D01*
X7316338Y8745534D01*
X7135377Y8618825D01*
X6979175Y8462623D01*
X6852466Y8281662D01*
X6852465Y8281660D01*
X6792382Y8152811D01*
X6746209Y8100372D01*
X6679016Y8081220D01*
X6612135Y8101436D01*
X6567618Y8152811D01*
X6549059Y8192610D01*
X6507534Y8281661D01*
X6380826Y8462620D01*
X6224620Y8618826D01*
X6224616Y8618829D01*
X6224615Y8618830D01*
X6043666Y8745532D01*
X6043662Y8745534D01*
X6024559Y8754442D01*
X5843450Y8838894D01*
X5843447Y8838895D01*
X5843445Y8838896D01*
X5630070Y8896070D01*
X5630062Y8896071D01*
X5410002Y8915323D01*
X5409998Y8915323D01*
X5189937Y8896071D01*
X5189929Y8896070D01*
X4976554Y8838896D01*
X4976548Y8838893D01*
X4776340Y8745535D01*
X4776338Y8745534D01*
X4595377Y8618825D01*
X4439175Y8462623D01*
X4312466Y8281662D01*
X4312465Y8281660D01*
X4252382Y8152811D01*
X4206209Y8100372D01*
X4139016Y8081220D01*
X4072135Y8101436D01*
X4027618Y8152811D01*
X4009059Y8192610D01*
X3967534Y8281661D01*
X3840826Y8462620D01*
X3684620Y8618826D01*
X3684616Y8618829D01*
X3684615Y8618830D01*
X3503666Y8745532D01*
X3503662Y8745534D01*
X3484559Y8754442D01*
X3303450Y8838894D01*
X3303447Y8838895D01*
X3303445Y8838896D01*
X3090070Y8896070D01*
X3090062Y8896071D01*
X2870002Y8915323D01*
X2869998Y8915323D01*
X2649937Y8896071D01*
X2649929Y8896070D01*
X2436554Y8838896D01*
X2436548Y8838893D01*
X2236340Y8745535D01*
X2236338Y8745534D01*
X2055377Y8618825D01*
X1899175Y8462623D01*
X1772466Y8281662D01*
X1772465Y8281660D01*
X1679107Y8081452D01*
X1679104Y8081446D01*
X1621930Y7868071D01*
X1621929Y7868063D01*
X1602677Y7648003D01*
X1602677Y7647998D01*
X1621929Y7427938D01*
X1621930Y7427930D01*
X1679104Y7214555D01*
X1679105Y7214553D01*
X1679106Y7214550D01*
X1712106Y7143781D01*
X1772466Y7014338D01*
X1772468Y7014334D01*
X1899170Y6833385D01*
X1899175Y6833379D01*
X2055378Y6677176D01*
X2055384Y6677171D01*
X2236333Y6550469D01*
X2236335Y6550468D01*
X2236338Y6550466D01*
X2436550Y6457106D01*
X2649932Y6399930D01*
X2807123Y6386178D01*
X2869998Y6380677D01*
X2870000Y6380677D01*
X2870002Y6380677D01*
X2925017Y6385491D01*
X3090068Y6399930D01*
X3303450Y6457106D01*
X3503662Y6550466D01*
X3684620Y6677174D01*
X3840826Y6833380D01*
X3967534Y7014338D01*
X4027618Y7143189D01*
X4073790Y7195629D01*
X4140983Y7214781D01*
X4207865Y7194565D01*
X4252382Y7143189D01*
X4312464Y7014342D01*
X4312468Y7014334D01*
X4439170Y6833385D01*
X4439175Y6833379D01*
X4595378Y6677176D01*
X4595384Y6677171D01*
X4776333Y6550469D01*
X4776335Y6550468D01*
X4776338Y6550466D01*
X4976550Y6457106D01*
X5189932Y6399930D01*
X5347123Y6386178D01*
X5409998Y6380677D01*
X5410000Y6380677D01*
X5410002Y6380677D01*
X5465017Y6385491D01*
X5630068Y6399930D01*
X5843450Y6457106D01*
X6043662Y6550466D01*
X6224620Y6677174D01*
X6380826Y6833380D01*
X6507534Y7014338D01*
X6567618Y7143189D01*
X6613790Y7195629D01*
X6680983Y7214781D01*
X6747865Y7194565D01*
X6792382Y7143189D01*
X6852464Y7014342D01*
X6852468Y7014334D01*
X6979170Y6833385D01*
X6979175Y6833379D01*
X7135378Y6677176D01*
X7135384Y6677171D01*
X7316333Y6550469D01*
X7316335Y6550468D01*
X7316338Y6550466D01*
X7516550Y6457106D01*
X7729932Y6399930D01*
X7887123Y6386178D01*
X7949998Y6380677D01*
X7950000Y6380677D01*
X7950002Y6380677D01*
X8005017Y6385491D01*
X8170068Y6399930D01*
X8383450Y6457106D01*
X8583662Y6550466D01*
X8764620Y6677174D01*
X8920826Y6833380D01*
X9047534Y7014338D01*
X9107618Y7143189D01*
X9153790Y7195629D01*
X9220983Y7214781D01*
X9287865Y7194565D01*
X9332382Y7143189D01*
X9392464Y7014342D01*
X9392468Y7014334D01*
X9519170Y6833385D01*
X9519175Y6833379D01*
X9675378Y6677176D01*
X9675384Y6677171D01*
X9856333Y6550469D01*
X9856335Y6550468D01*
X9856338Y6550466D01*
X10056550Y6457106D01*
X10269932Y6399930D01*
X10427123Y6386178D01*
X10489998Y6380677D01*
X10490000Y6380677D01*
X10490002Y6380677D01*
X10545017Y6385491D01*
X10710068Y6399930D01*
X10923450Y6457106D01*
X11123662Y6550466D01*
X11304620Y6677174D01*
X11460826Y6833380D01*
X11587534Y7014338D01*
X11647618Y7143189D01*
X11693790Y7195629D01*
X11760983Y7214781D01*
X11827865Y7194565D01*
X11872382Y7143189D01*
X11932464Y7014342D01*
X11932468Y7014334D01*
X12059170Y6833385D01*
X12059175Y6833379D01*
X12215378Y6677176D01*
X12215384Y6677171D01*
X12396333Y6550469D01*
X12396335Y6550468D01*
X12396338Y6550466D01*
X12596550Y6457106D01*
X12809932Y6399930D01*
X12967123Y6386178D01*
X13029998Y6380677D01*
X13030000Y6380677D01*
X13030002Y6380677D01*
X13085017Y6385491D01*
X13250068Y6399930D01*
X13463450Y6457106D01*
X13663662Y6550466D01*
X13844620Y6677174D01*
X14000826Y6833380D01*
X14127534Y7014338D01*
X14187618Y7143189D01*
X14233790Y7195629D01*
X14300983Y7214781D01*
X14367865Y7194565D01*
X14412382Y7143189D01*
X14472464Y7014342D01*
X14472468Y7014334D01*
X14599170Y6833385D01*
X14599175Y6833379D01*
X14755378Y6677176D01*
X14755384Y6677171D01*
X14936333Y6550469D01*
X14936335Y6550468D01*
X14936338Y6550466D01*
X15136550Y6457106D01*
X15349932Y6399930D01*
X15507123Y6386178D01*
X15569998Y6380677D01*
X15570000Y6380677D01*
X15570002Y6380677D01*
X15625017Y6385491D01*
X15790068Y6399930D01*
X16003450Y6457106D01*
X16203662Y6550466D01*
X16384620Y6677174D01*
X16540826Y6833380D01*
X16667534Y7014338D01*
X16727618Y7143189D01*
X16773790Y7195629D01*
X16840983Y7214781D01*
X16907865Y7194565D01*
X16952382Y7143189D01*
X17012464Y7014342D01*
X17012468Y7014334D01*
X17139170Y6833385D01*
X17139175Y6833379D01*
X17295378Y6677176D01*
X17295384Y6677171D01*
X17476333Y6550469D01*
X17476335Y6550468D01*
X17476338Y6550466D01*
X17676550Y6457106D01*
X17889932Y6399930D01*
X18047123Y6386178D01*
X18109998Y6380677D01*
X18110000Y6380677D01*
X18110002Y6380677D01*
X18165017Y6385491D01*
X18330068Y6399930D01*
X18543450Y6457106D01*
X18743662Y6550466D01*
X18924620Y6677174D01*
X19080826Y6833380D01*
X19207534Y7014338D01*
X19267618Y7143189D01*
X19313790Y7195629D01*
X19380983Y7214781D01*
X19447865Y7194565D01*
X19492382Y7143189D01*
X19552464Y7014342D01*
X19552468Y7014334D01*
X19679170Y6833385D01*
X19679175Y6833379D01*
X19835378Y6677176D01*
X19835384Y6677171D01*
X20016333Y6550469D01*
X20016335Y6550468D01*
X20016338Y6550466D01*
X20216550Y6457106D01*
X20429932Y6399930D01*
X20587123Y6386178D01*
X20649998Y6380677D01*
X20650000Y6380677D01*
X20650002Y6380677D01*
X20705017Y6385491D01*
X20870068Y6399930D01*
X21083450Y6457106D01*
X21283662Y6550466D01*
X21464620Y6677174D01*
X21620826Y6833380D01*
X21747534Y7014338D01*
X21807618Y7143189D01*
X21853790Y7195629D01*
X21920983Y7214781D01*
X21987865Y7194565D01*
X22032382Y7143189D01*
X22092464Y7014342D01*
X22092468Y7014334D01*
X22219170Y6833385D01*
X22219175Y6833379D01*
X22375378Y6677176D01*
X22375384Y6677171D01*
X22556333Y6550469D01*
X22556335Y6550468D01*
X22556338Y6550466D01*
X22756550Y6457106D01*
X22969932Y6399930D01*
X23127123Y6386178D01*
X23189998Y6380677D01*
X23190000Y6380677D01*
X23190002Y6380677D01*
X23245017Y6385491D01*
X23410068Y6399930D01*
X23623450Y6457106D01*
X23823662Y6550466D01*
X24004620Y6677174D01*
X24160826Y6833380D01*
X24287534Y7014338D01*
X24347618Y7143189D01*
X24393790Y7195629D01*
X24460983Y7214781D01*
X24527865Y7194565D01*
X24572382Y7143189D01*
X24632464Y7014342D01*
X24632468Y7014334D01*
X24759170Y6833385D01*
X24759175Y6833379D01*
X24915378Y6677176D01*
X24915384Y6677171D01*
X25096333Y6550469D01*
X25096335Y6550468D01*
X25096338Y6550466D01*
X25296550Y6457106D01*
X25509932Y6399930D01*
X25667123Y6386178D01*
X25729998Y6380677D01*
X25730000Y6380677D01*
X25730002Y6380677D01*
X25785017Y6385491D01*
X25950068Y6399930D01*
X26163450Y6457106D01*
X26363662Y6550466D01*
X26544620Y6677174D01*
X26700826Y6833380D01*
X26827534Y7014338D01*
X26887618Y7143189D01*
X26933790Y7195629D01*
X27000983Y7214781D01*
X27067865Y7194565D01*
X27112382Y7143189D01*
X27172464Y7014342D01*
X27172468Y7014334D01*
X27299170Y6833385D01*
X27299175Y6833379D01*
X27455378Y6677176D01*
X27455384Y6677171D01*
X27636333Y6550469D01*
X27636335Y6550468D01*
X27636338Y6550466D01*
X27836550Y6457106D01*
X28049932Y6399930D01*
X28207123Y6386178D01*
X28269998Y6380677D01*
X28270000Y6380677D01*
X28270002Y6380677D01*
X28325017Y6385491D01*
X28490068Y6399930D01*
X28703450Y6457106D01*
X28903662Y6550466D01*
X29084620Y6677174D01*
X29240826Y6833380D01*
X29367534Y7014338D01*
X29427618Y7143189D01*
X29473790Y7195629D01*
X29540983Y7214781D01*
X29607865Y7194565D01*
X29652382Y7143189D01*
X29712464Y7014342D01*
X29712468Y7014334D01*
X29839170Y6833385D01*
X29839175Y6833379D01*
X29995378Y6677176D01*
X29995384Y6677171D01*
X30176333Y6550469D01*
X30176335Y6550468D01*
X30176338Y6550466D01*
X30376550Y6457106D01*
X30589932Y6399930D01*
X30747123Y6386178D01*
X30809998Y6380677D01*
X30810000Y6380677D01*
X30810002Y6380677D01*
X30865017Y6385491D01*
X31030068Y6399930D01*
X31243450Y6457106D01*
X31443662Y6550466D01*
X31624620Y6677174D01*
X31780826Y6833380D01*
X31907534Y7014338D01*
X31967618Y7143189D01*
X32013790Y7195629D01*
X32080983Y7214781D01*
X32147865Y7194565D01*
X32192382Y7143189D01*
X32252464Y7014342D01*
X32252468Y7014334D01*
X32379170Y6833385D01*
X32379175Y6833379D01*
X32535378Y6677176D01*
X32535384Y6677171D01*
X32716333Y6550469D01*
X32716335Y6550468D01*
X32716338Y6550466D01*
X32916550Y6457106D01*
X33129932Y6399930D01*
X33337016Y6381813D01*
X33402085Y6356361D01*
X33413890Y6345966D01*
X36513992Y3245864D01*
X36517396Y3242171D01*
X36554362Y3198650D01*
X36554363Y3198649D01*
X36554365Y3198648D01*
X36554369Y3198643D01*
X36620737Y3148192D01*
X36685699Y3095973D01*
X36685701Y3095971D01*
X36685872Y3095886D01*
X36705814Y3083517D01*
X36705971Y3083398D01*
X36781640Y3048390D01*
X36856307Y3011359D01*
X36856481Y3011316D01*
X36878626Y3003520D01*
X36878803Y3003438D01*
X36878806Y3003438D01*
X36878807Y3003437D01*
X36878806Y3003437D01*
X36960228Y2985515D01*
X36968850Y2983371D01*
X37041111Y2965400D01*
X37041284Y2965396D01*
X37064602Y2962540D01*
X37064784Y2962500D01*
X37064787Y2962500D01*
X37148160Y2962500D01*
X37231473Y2960243D01*
X37231655Y2960279D01*
X37255023Y2962500D01*
X63791898Y2962500D01*
X63796932Y2962295D01*
X63853844Y2957661D01*
X63853845Y2957662D01*
X63853848Y2957661D01*
X63936441Y2968915D01*
X64019316Y2977927D01*
X64019481Y2977983D01*
X64042357Y2983345D01*
X64042537Y2983369D01*
X64120793Y3012120D01*
X64199780Y3038733D01*
X64199928Y3038822D01*
X64221116Y3048976D01*
X64221288Y3049039D01*
X64291536Y3093941D01*
X64362954Y3136911D01*
X64363083Y3137034D01*
X64381597Y3151506D01*
X64381607Y3151513D01*
X64381744Y3151600D01*
X64411219Y3181077D01*
X64440696Y3210552D01*
X64477987Y3245876D01*
X64501207Y3267871D01*
X64501306Y3268017D01*
X64516264Y3286122D01*
X65517142Y4287000D01*
X65520810Y4290382D01*
X65564357Y4327369D01*
X65610980Y4388703D01*
X65659998Y4425112D01*
X65659541Y4425950D01*
X65665532Y4429222D01*
X65666374Y4429847D01*
X65667328Y4430203D01*
X65667327Y4430203D01*
X65667331Y4430204D01*
X65782546Y4516454D01*
X65825734Y4574146D01*
X65881667Y4616016D01*
X65951359Y4621000D01*
X66012682Y4587515D01*
X66024263Y4574150D01*
X66067454Y4516454D01*
X66078272Y4508356D01*
X66182664Y4430207D01*
X66182671Y4430203D01*
X66317517Y4379909D01*
X66317516Y4379909D01*
X66324444Y4379165D01*
X66377127Y4373500D01*
X67472872Y4373501D01*
X67532483Y4379909D01*
X67667331Y4430204D01*
X67782546Y4516454D01*
X67825734Y4574146D01*
X67881667Y4616016D01*
X67951359Y4621000D01*
X68012682Y4587515D01*
X68024263Y4574150D01*
X68067454Y4516454D01*
X68078272Y4508356D01*
X68182664Y4430207D01*
X68182671Y4430203D01*
X68317517Y4379909D01*
X68317516Y4379909D01*
X68324444Y4379165D01*
X68377127Y4373500D01*
X69472872Y4373501D01*
X69532483Y4379909D01*
X69667331Y4430204D01*
X69782546Y4516454D01*
X69782548Y4516458D01*
X69787819Y4521727D01*
X69849142Y4555212D01*
X69918834Y4550228D01*
X69974767Y4508356D01*
X69999184Y4442892D01*
X69999500Y4434046D01*
X69999500Y124500D01*
X69979815Y57461D01*
X69927011Y11706D01*
X69875500Y500D01*
X124500Y500D01*
X57461Y20185D01*
X11706Y72989D01*
X500Y124500D01*
X500Y10695998D01*
X19377677Y10695998D01*
X19396929Y10475938D01*
X19396930Y10475930D01*
X19454104Y10262555D01*
X19454105Y10262553D01*
X19454106Y10262550D01*
X19522282Y10116345D01*
X19547466Y10062338D01*
X19547468Y10062334D01*
X19674170Y9881385D01*
X19674175Y9881379D01*
X19830378Y9725176D01*
X19830384Y9725171D01*
X20011333Y9598469D01*
X20011335Y9598468D01*
X20011338Y9598466D01*
X20211550Y9505106D01*
X20424932Y9447930D01*
X20582123Y9434178D01*
X20644998Y9428677D01*
X20645000Y9428677D01*
X20645002Y9428677D01*
X20700017Y9433491D01*
X20865068Y9447930D01*
X21078450Y9505106D01*
X21278662Y9598466D01*
X21459620Y9725174D01*
X21615826Y9881380D01*
X21742534Y10062338D01*
X21835894Y10262550D01*
X21893070Y10475932D01*
X21908436Y10651567D01*
X21912323Y10695998D01*
X21912323Y10696003D01*
X21900404Y10832233D01*
X21893070Y10916068D01*
X21835894Y11129450D01*
X21742534Y11329661D01*
X21657849Y11450604D01*
X21615827Y11510619D01*
X21552689Y11573757D01*
X21459620Y11666826D01*
X21459616Y11666829D01*
X21459615Y11666830D01*
X21278666Y11793532D01*
X21278662Y11793534D01*
X21230095Y11816181D01*
X21078450Y11886894D01*
X21078447Y11886895D01*
X21078445Y11886896D01*
X20865070Y11944070D01*
X20865062Y11944071D01*
X20645002Y11963323D01*
X20644998Y11963323D01*
X20424937Y11944071D01*
X20424929Y11944070D01*
X20211554Y11886896D01*
X20211548Y11886893D01*
X20011340Y11793535D01*
X20011338Y11793534D01*
X19830377Y11666825D01*
X19674175Y11510623D01*
X19547466Y11329662D01*
X19547465Y11329660D01*
X19454107Y11129452D01*
X19454104Y11129446D01*
X19396930Y10916071D01*
X19396929Y10916063D01*
X19377677Y10696003D01*
X19377677Y10695998D01*
X500Y10695998D01*
X500Y19840000D01*
X19378179Y19840000D01*
X19397424Y19620024D01*
X19397426Y19620014D01*
X19454575Y19406730D01*
X19454580Y19406716D01*
X19547899Y19206593D01*
X19547900Y19206591D01*
X19593258Y19141813D01*
X20260096Y19808651D01*
X20260051Y19808102D01*
X20291266Y19684838D01*
X20360813Y19578388D01*
X20461157Y19500287D01*
X20581422Y19459000D01*
X20617553Y19459000D01*
X19946811Y18788259D01*
X20011582Y18742906D01*
X20011592Y18742900D01*
X20211715Y18649581D01*
X20211729Y18649576D01*
X20425013Y18592427D01*
X20425023Y18592425D01*
X20644999Y18573179D01*
X20645001Y18573179D01*
X20864976Y18592425D01*
X20864986Y18592427D01*
X21078270Y18649576D01*
X21078284Y18649581D01*
X21278408Y18742900D01*
X21278420Y18742907D01*
X21343186Y18788258D01*
X21343187Y18788260D01*
X20672448Y19459000D01*
X20676569Y19459000D01*
X20770421Y19474661D01*
X20882251Y19535180D01*
X20968371Y19628731D01*
X21019448Y19745177D01*
X21025105Y19813448D01*
X21696740Y19141813D01*
X21696742Y19141814D01*
X21742093Y19206580D01*
X21742100Y19206592D01*
X21835419Y19406716D01*
X21835424Y19406730D01*
X21892573Y19620014D01*
X21892575Y19620024D01*
X21911821Y19840000D01*
X34618179Y19840000D01*
X34637424Y19620024D01*
X34637426Y19620014D01*
X34694575Y19406730D01*
X34694580Y19406716D01*
X34787899Y19206593D01*
X34787900Y19206591D01*
X34833258Y19141813D01*
X35500096Y19808651D01*
X35500051Y19808102D01*
X35531266Y19684838D01*
X35600813Y19578388D01*
X35701157Y19500287D01*
X35821422Y19459000D01*
X35857553Y19459000D01*
X35186811Y18788259D01*
X35251582Y18742906D01*
X35251592Y18742900D01*
X35451715Y18649581D01*
X35451729Y18649576D01*
X35665013Y18592427D01*
X35665023Y18592425D01*
X35884999Y18573179D01*
X35885001Y18573179D01*
X36104976Y18592425D01*
X36104986Y18592427D01*
X36318270Y18649576D01*
X36318284Y18649581D01*
X36518408Y18742900D01*
X36518420Y18742907D01*
X36583186Y18788258D01*
X36583187Y18788260D01*
X35912448Y19459000D01*
X35916569Y19459000D01*
X36010421Y19474661D01*
X36122251Y19535180D01*
X36208371Y19628731D01*
X36259448Y19745177D01*
X36265105Y19813448D01*
X36936740Y19141813D01*
X36936742Y19141814D01*
X36982093Y19206580D01*
X36982100Y19206592D01*
X37075419Y19406716D01*
X37075424Y19406730D01*
X37132573Y19620014D01*
X37132575Y19620024D01*
X37151821Y19840000D01*
X37151821Y19840001D01*
X37132575Y20059977D01*
X37132573Y20059987D01*
X37075424Y20273271D01*
X37075420Y20273280D01*
X36982098Y20473410D01*
X36936740Y20538189D01*
X36269903Y19871352D01*
X36269949Y19871898D01*
X36238734Y19995162D01*
X36169187Y20101612D01*
X36068843Y20179713D01*
X35948578Y20221000D01*
X35912447Y20221000D01*
X36583187Y20891742D01*
X36518409Y20937100D01*
X36518407Y20937101D01*
X36318284Y21030420D01*
X36318270Y21030425D01*
X36104986Y21087574D01*
X36104976Y21087576D01*
X35885001Y21106821D01*
X35884999Y21106821D01*
X35665023Y21087576D01*
X35665013Y21087574D01*
X35451729Y21030425D01*
X35451720Y21030421D01*
X35251586Y20937097D01*
X35186812Y20891743D01*
X35186811Y20891742D01*
X35857554Y20221000D01*
X35853431Y20221000D01*
X35759579Y20205339D01*
X35647749Y20144820D01*
X35561629Y20051269D01*
X35510552Y19934823D01*
X35504894Y19866553D01*
X34833258Y20538189D01*
X34833257Y20538188D01*
X34787903Y20473414D01*
X34694579Y20273280D01*
X34694575Y20273271D01*
X34637426Y20059987D01*
X34637424Y20059977D01*
X34618179Y19840001D01*
X34618179Y19840000D01*
X21911821Y19840000D01*
X21911821Y19840001D01*
X21892575Y20059977D01*
X21892573Y20059987D01*
X21835424Y20273271D01*
X21835420Y20273280D01*
X21742098Y20473410D01*
X21696740Y20538189D01*
X21029903Y19871352D01*
X21029949Y19871898D01*
X20998734Y19995162D01*
X20929187Y20101612D01*
X20828843Y20179713D01*
X20708578Y20221000D01*
X20672447Y20221000D01*
X21343187Y20891742D01*
X21278409Y20937100D01*
X21278407Y20937101D01*
X21078284Y21030420D01*
X21078270Y21030425D01*
X20864986Y21087574D01*
X20864976Y21087576D01*
X20645001Y21106821D01*
X20644999Y21106821D01*
X20425023Y21087576D01*
X20425013Y21087574D01*
X20211729Y21030425D01*
X20211720Y21030421D01*
X20011586Y20937097D01*
X19946812Y20891743D01*
X19946811Y20891742D01*
X20617554Y20221000D01*
X20613431Y20221000D01*
X20519579Y20205339D01*
X20407749Y20144820D01*
X20321629Y20051269D01*
X20270552Y19934823D01*
X20264894Y19866553D01*
X19593258Y20538189D01*
X19593257Y20538188D01*
X19547903Y20473414D01*
X19454579Y20273280D01*
X19454575Y20273271D01*
X19397426Y20059987D01*
X19397424Y20059977D01*
X19378179Y19840001D01*
X19378179Y19840000D01*
X500Y19840000D01*
X500Y29875500D01*
X20185Y29942539D01*
X72989Y29988294D01*
X124500Y29999500D01*
X69875500Y29999500D01*
X69942539Y29979815D01*
G37*
%TD.AperFunction*%
%TA.AperFunction,Conductor*%
G36*
X56498033Y11832815D02*
G01*
X56518675Y11816181D01*
X60013181Y8321675D01*
X60046666Y8260352D01*
X60049500Y8233994D01*
X60049500Y7748835D01*
X60029815Y7681796D01*
X60024733Y7674479D01*
X60023920Y7673394D01*
X59967967Y7631548D01*
X59898273Y7626596D01*
X59836965Y7660109D01*
X59825420Y7673439D01*
X59782186Y7731191D01*
X59667093Y7817351D01*
X59667086Y7817355D01*
X59532379Y7867597D01*
X59532372Y7867599D01*
X59472844Y7874000D01*
X59175000Y7874000D01*
X59175000Y6802973D01*
X59168552Y6815922D01*
X59085666Y6891484D01*
X58981080Y6932000D01*
X58897198Y6932000D01*
X58814750Y6916588D01*
X58719390Y6857543D01*
X58675000Y6798762D01*
X58675000Y7874000D01*
X58377155Y7874000D01*
X58317627Y7867599D01*
X58317620Y7867597D01*
X58182913Y7817355D01*
X58182906Y7817351D01*
X58067812Y7731191D01*
X58024578Y7673438D01*
X57968644Y7631568D01*
X57898952Y7626584D01*
X57837629Y7660070D01*
X57826046Y7673438D01*
X57782814Y7731188D01*
X57782546Y7731546D01*
X57782544Y7731547D01*
X57782544Y7731548D01*
X57667335Y7817794D01*
X57667328Y7817798D01*
X57532482Y7868092D01*
X57532483Y7868092D01*
X57472883Y7874499D01*
X57472881Y7874500D01*
X57472873Y7874500D01*
X57472864Y7874500D01*
X56377129Y7874500D01*
X56377123Y7874499D01*
X56317516Y7868092D01*
X56182671Y7817798D01*
X56182664Y7817794D01*
X56067455Y7731548D01*
X56067453Y7731546D01*
X56023952Y7673437D01*
X55968018Y7631567D01*
X55898326Y7626584D01*
X55837004Y7660071D01*
X55825420Y7673439D01*
X55782186Y7731191D01*
X55667093Y7817351D01*
X55667086Y7817355D01*
X55532379Y7867597D01*
X55532372Y7867599D01*
X55472844Y7874000D01*
X55175000Y7874000D01*
X55175000Y6802973D01*
X55168552Y6815922D01*
X55085666Y6891484D01*
X54981080Y6932000D01*
X54897198Y6932000D01*
X54814750Y6916588D01*
X54719390Y6857543D01*
X54675000Y6798762D01*
X54675000Y7874000D01*
X54377155Y7874000D01*
X54317627Y7867599D01*
X54317620Y7867597D01*
X54182913Y7817355D01*
X54182906Y7817351D01*
X54067812Y7731191D01*
X54067809Y7731188D01*
X53981649Y7616094D01*
X53981645Y7616087D01*
X53931403Y7481380D01*
X53931401Y7481373D01*
X53925000Y7421845D01*
X53925000Y6374000D01*
X54675000Y6374000D01*
X54675000Y6461028D01*
X54681448Y6448078D01*
X54764334Y6372516D01*
X54868920Y6332000D01*
X54952802Y6332000D01*
X55035250Y6347412D01*
X55130610Y6406457D01*
X55175000Y6465239D01*
X55175000Y5998000D01*
X55155315Y5930961D01*
X55102511Y5885206D01*
X55051000Y5874000D01*
X53925000Y5874000D01*
X53925000Y4837500D01*
X53905315Y4770461D01*
X53852511Y4724706D01*
X53801000Y4713500D01*
X37574006Y4713500D01*
X37506967Y4733185D01*
X37486325Y4749819D01*
X36045697Y6190447D01*
X36012212Y6251770D01*
X36017196Y6321462D01*
X36059068Y6377395D01*
X36105155Y6397343D01*
X36104838Y6398529D01*
X36110065Y6399930D01*
X36110068Y6399930D01*
X36323450Y6457106D01*
X36523662Y6550466D01*
X36704620Y6677174D01*
X36860826Y6833380D01*
X36987534Y7014338D01*
X37047618Y7143189D01*
X37093790Y7195629D01*
X37160983Y7214781D01*
X37227865Y7194565D01*
X37272382Y7143189D01*
X37332464Y7014342D01*
X37332468Y7014334D01*
X37459170Y6833385D01*
X37459175Y6833379D01*
X37615378Y6677176D01*
X37615384Y6677171D01*
X37796333Y6550469D01*
X37796335Y6550468D01*
X37796338Y6550466D01*
X37996550Y6457106D01*
X38209932Y6399930D01*
X38367123Y6386178D01*
X38429998Y6380677D01*
X38430000Y6380677D01*
X38430002Y6380677D01*
X38485017Y6385491D01*
X38650068Y6399930D01*
X38863450Y6457106D01*
X39063662Y6550466D01*
X39244620Y6677174D01*
X39400826Y6833380D01*
X39527534Y7014338D01*
X39587618Y7143189D01*
X39633790Y7195629D01*
X39700983Y7214781D01*
X39767865Y7194565D01*
X39812382Y7143189D01*
X39872464Y7014342D01*
X39872468Y7014334D01*
X39999170Y6833385D01*
X39999175Y6833379D01*
X40155378Y6677176D01*
X40155384Y6677171D01*
X40336333Y6550469D01*
X40336335Y6550468D01*
X40336338Y6550466D01*
X40536550Y6457106D01*
X40749932Y6399930D01*
X40907123Y6386178D01*
X40969998Y6380677D01*
X40970000Y6380677D01*
X40970002Y6380677D01*
X41025017Y6385491D01*
X41190068Y6399930D01*
X41403450Y6457106D01*
X41603662Y6550466D01*
X41784620Y6677174D01*
X41940826Y6833380D01*
X42067534Y7014338D01*
X42127618Y7143189D01*
X42173790Y7195629D01*
X42240983Y7214781D01*
X42307865Y7194565D01*
X42352382Y7143189D01*
X42412464Y7014342D01*
X42412468Y7014334D01*
X42539170Y6833385D01*
X42539175Y6833379D01*
X42695378Y6677176D01*
X42695384Y6677171D01*
X42876333Y6550469D01*
X42876335Y6550468D01*
X42876338Y6550466D01*
X43076550Y6457106D01*
X43289932Y6399930D01*
X43447123Y6386178D01*
X43509998Y6380677D01*
X43510000Y6380677D01*
X43510002Y6380677D01*
X43565017Y6385491D01*
X43730068Y6399930D01*
X43943450Y6457106D01*
X44143662Y6550466D01*
X44324620Y6677174D01*
X44480826Y6833380D01*
X44607534Y7014338D01*
X44667618Y7143189D01*
X44713790Y7195629D01*
X44780983Y7214781D01*
X44847865Y7194565D01*
X44892382Y7143189D01*
X44952464Y7014342D01*
X44952468Y7014334D01*
X45079170Y6833385D01*
X45079175Y6833379D01*
X45235378Y6677176D01*
X45235384Y6677171D01*
X45416333Y6550469D01*
X45416335Y6550468D01*
X45416338Y6550466D01*
X45616550Y6457106D01*
X45829932Y6399930D01*
X45987123Y6386178D01*
X46049998Y6380677D01*
X46050000Y6380677D01*
X46050002Y6380677D01*
X46105017Y6385491D01*
X46270068Y6399930D01*
X46483450Y6457106D01*
X46683662Y6550466D01*
X46864620Y6677174D01*
X47020826Y6833380D01*
X47147534Y7014338D01*
X47207894Y7143782D01*
X47254066Y7196221D01*
X47321259Y7215373D01*
X47388141Y7195157D01*
X47432658Y7143781D01*
X47492899Y7014593D01*
X47492900Y7014591D01*
X47538258Y6949813D01*
X48145549Y7557105D01*
X48146327Y7546735D01*
X48195887Y7420459D01*
X48280465Y7314401D01*
X48392547Y7237984D01*
X48500299Y7204747D01*
X47891811Y6596259D01*
X47956582Y6550906D01*
X47956592Y6550900D01*
X48156715Y6457581D01*
X48156729Y6457576D01*
X48370013Y6400427D01*
X48370023Y6400425D01*
X48589999Y6381179D01*
X48590001Y6381179D01*
X48809976Y6400425D01*
X48809986Y6400427D01*
X49023270Y6457576D01*
X49023284Y6457581D01*
X49223408Y6550900D01*
X49223420Y6550907D01*
X49288186Y6596258D01*
X49288187Y6596260D01*
X48678232Y7206216D01*
X48724138Y7213135D01*
X48846357Y7271993D01*
X48945798Y7364260D01*
X49013625Y7481740D01*
X49031499Y7560055D01*
X49641741Y6949813D01*
X49641742Y6949814D01*
X49687093Y7014580D01*
X49687100Y7014592D01*
X49747342Y7143781D01*
X49793514Y7196221D01*
X49860707Y7215373D01*
X49927588Y7195158D01*
X49972106Y7143781D01*
X50032464Y7014342D01*
X50032468Y7014334D01*
X50159170Y6833385D01*
X50159175Y6833379D01*
X50315378Y6677176D01*
X50315384Y6677171D01*
X50496333Y6550469D01*
X50496335Y6550468D01*
X50496338Y6550466D01*
X50696550Y6457106D01*
X50909932Y6399930D01*
X51067123Y6386178D01*
X51129998Y6380677D01*
X51130000Y6380677D01*
X51130002Y6380677D01*
X51185017Y6385491D01*
X51350068Y6399930D01*
X51563450Y6457106D01*
X51763662Y6550466D01*
X51944620Y6677174D01*
X52100826Y6833380D01*
X52227534Y7014338D01*
X52320894Y7214550D01*
X52378070Y7427932D01*
X52395449Y7626584D01*
X52397323Y7647998D01*
X52397323Y7648003D01*
X52382507Y7817351D01*
X52378070Y7868068D01*
X52320894Y8081450D01*
X52227534Y8281661D01*
X52100826Y8462620D01*
X51944620Y8618826D01*
X51944616Y8618829D01*
X51944615Y8618830D01*
X51763666Y8745532D01*
X51763662Y8745534D01*
X51744559Y8754442D01*
X51563450Y8838894D01*
X51563447Y8838895D01*
X51563445Y8838896D01*
X51350070Y8896070D01*
X51350063Y8896071D01*
X51142982Y8914188D01*
X51077914Y8939641D01*
X51066109Y8950035D01*
X49899617Y10116527D01*
X48727999Y11288145D01*
X48724608Y11291824D01*
X48687631Y11335357D01*
X48621262Y11385809D01*
X48556297Y11438030D01*
X48556294Y11438032D01*
X48556120Y11438118D01*
X48536182Y11450486D01*
X48536029Y11450603D01*
X48536027Y11450604D01*
X48460359Y11485611D01*
X48385693Y11522641D01*
X48385689Y11522642D01*
X48385680Y11522645D01*
X48385488Y11522693D01*
X48363385Y11530475D01*
X48363198Y11530562D01*
X48363194Y11530563D01*
X48281771Y11548486D01*
X48200885Y11568601D01*
X48200689Y11568606D01*
X48177413Y11571457D01*
X48177222Y11571499D01*
X48177219Y11571500D01*
X48177216Y11571500D01*
X48177212Y11571500D01*
X48093840Y11571500D01*
X48010527Y11573757D01*
X48010526Y11573757D01*
X48010345Y11573722D01*
X47986977Y11571500D01*
X36846308Y11571500D01*
X36779269Y11591185D01*
X36758627Y11607819D01*
X36725627Y11640819D01*
X36692142Y11702142D01*
X36697126Y11771834D01*
X36738998Y11827767D01*
X36804462Y11852184D01*
X36813308Y11852500D01*
X56430994Y11852500D01*
X56498033Y11832815D01*
G37*
%TD.AperFunction*%
%TA.AperFunction,Conductor*%
G36*
X59175000Y5998000D02*
G01*
X59155315Y5930961D01*
X59102511Y5885206D01*
X59051000Y5874000D01*
X58799000Y5874000D01*
X58731961Y5893685D01*
X58686206Y5946489D01*
X58675000Y5998000D01*
X58675000Y6461028D01*
X58681448Y6448078D01*
X58764334Y6372516D01*
X58868920Y6332000D01*
X58952802Y6332000D01*
X59035250Y6347412D01*
X59130610Y6406457D01*
X59175000Y6465239D01*
X59175000Y5998000D01*
G37*
%TD.AperFunction*%
%TA.AperFunction,Conductor*%
G36*
X35023730Y11832815D02*
G01*
X35069485Y11780011D01*
X35079429Y11710853D01*
X35050404Y11647297D01*
X35044372Y11640819D01*
X34914175Y11510623D01*
X34787466Y11329662D01*
X34787465Y11329660D01*
X34694107Y11129452D01*
X34694104Y11129446D01*
X34636930Y10916071D01*
X34636929Y10916063D01*
X34617677Y10696003D01*
X34617677Y10695998D01*
X34636929Y10475938D01*
X34636930Y10475930D01*
X34694104Y10262555D01*
X34694105Y10262553D01*
X34694106Y10262550D01*
X34762282Y10116345D01*
X34787466Y10062338D01*
X34787468Y10062334D01*
X34914170Y9881385D01*
X34914175Y9881379D01*
X35070378Y9725176D01*
X35070384Y9725171D01*
X35251333Y9598469D01*
X35251335Y9598468D01*
X35251338Y9598466D01*
X35451550Y9505106D01*
X35664932Y9447930D01*
X35822123Y9434178D01*
X35884998Y9428677D01*
X35885000Y9428677D01*
X35885002Y9428677D01*
X35940017Y9433491D01*
X36105068Y9447930D01*
X36318450Y9505106D01*
X36518662Y9598466D01*
X36699620Y9725174D01*
X36758627Y9784181D01*
X36819950Y9817666D01*
X36846308Y9820500D01*
X47667994Y9820500D01*
X47735033Y9800815D01*
X47755675Y9784181D01*
X48434736Y9105120D01*
X48468221Y9043797D01*
X48463237Y8974105D01*
X48421365Y8918172D01*
X48374953Y8898077D01*
X48375248Y8896976D01*
X48156729Y8838425D01*
X48156720Y8838421D01*
X47956586Y8745097D01*
X47891812Y8699743D01*
X47891811Y8699742D01*
X48501768Y8089785D01*
X48455862Y8082865D01*
X48333643Y8024007D01*
X48234202Y7931740D01*
X48166375Y7814260D01*
X48148500Y7735947D01*
X47538258Y8346189D01*
X47538257Y8346188D01*
X47492903Y8281414D01*
X47432658Y8152219D01*
X47386485Y8099780D01*
X47319292Y8080628D01*
X47252411Y8100844D01*
X47207894Y8152219D01*
X47192906Y8184361D01*
X47147534Y8281661D01*
X47020826Y8462620D01*
X46864620Y8618826D01*
X46864616Y8618829D01*
X46864615Y8618830D01*
X46683666Y8745532D01*
X46683662Y8745534D01*
X46664559Y8754442D01*
X46483450Y8838894D01*
X46483447Y8838895D01*
X46483445Y8838896D01*
X46270070Y8896070D01*
X46270062Y8896071D01*
X46050002Y8915323D01*
X46049998Y8915323D01*
X45829937Y8896071D01*
X45829929Y8896070D01*
X45616554Y8838896D01*
X45616548Y8838893D01*
X45416340Y8745535D01*
X45416338Y8745534D01*
X45235377Y8618825D01*
X45079175Y8462623D01*
X44952466Y8281662D01*
X44952465Y8281660D01*
X44892382Y8152811D01*
X44846209Y8100372D01*
X44779016Y8081220D01*
X44712135Y8101436D01*
X44667618Y8152811D01*
X44649059Y8192610D01*
X44607534Y8281661D01*
X44480826Y8462620D01*
X44324620Y8618826D01*
X44324616Y8618829D01*
X44324615Y8618830D01*
X44143666Y8745532D01*
X44143662Y8745534D01*
X44124559Y8754442D01*
X43943450Y8838894D01*
X43943447Y8838895D01*
X43943445Y8838896D01*
X43730070Y8896070D01*
X43730062Y8896071D01*
X43510002Y8915323D01*
X43509998Y8915323D01*
X43289937Y8896071D01*
X43289929Y8896070D01*
X43076554Y8838896D01*
X43076548Y8838893D01*
X42876340Y8745535D01*
X42876338Y8745534D01*
X42695377Y8618825D01*
X42539175Y8462623D01*
X42412466Y8281662D01*
X42412465Y8281660D01*
X42352382Y8152811D01*
X42306209Y8100372D01*
X42239016Y8081220D01*
X42172135Y8101436D01*
X42127618Y8152811D01*
X42109059Y8192610D01*
X42067534Y8281661D01*
X41940826Y8462620D01*
X41784620Y8618826D01*
X41784616Y8618829D01*
X41784615Y8618830D01*
X41603666Y8745532D01*
X41603662Y8745534D01*
X41584559Y8754442D01*
X41403450Y8838894D01*
X41403447Y8838895D01*
X41403445Y8838896D01*
X41190070Y8896070D01*
X41190062Y8896071D01*
X40970002Y8915323D01*
X40969998Y8915323D01*
X40749937Y8896071D01*
X40749929Y8896070D01*
X40536554Y8838896D01*
X40536548Y8838893D01*
X40336340Y8745535D01*
X40336338Y8745534D01*
X40155377Y8618825D01*
X39999175Y8462623D01*
X39872466Y8281662D01*
X39872465Y8281660D01*
X39812382Y8152811D01*
X39766209Y8100372D01*
X39699016Y8081220D01*
X39632135Y8101436D01*
X39587618Y8152811D01*
X39569059Y8192610D01*
X39527534Y8281661D01*
X39400826Y8462620D01*
X39244620Y8618826D01*
X39244616Y8618829D01*
X39244615Y8618830D01*
X39063666Y8745532D01*
X39063662Y8745534D01*
X39044559Y8754442D01*
X38863450Y8838894D01*
X38863447Y8838895D01*
X38863445Y8838896D01*
X38650070Y8896070D01*
X38650062Y8896071D01*
X38430002Y8915323D01*
X38429998Y8915323D01*
X38209937Y8896071D01*
X38209929Y8896070D01*
X37996554Y8838896D01*
X37996548Y8838893D01*
X37796340Y8745535D01*
X37796338Y8745534D01*
X37615377Y8618825D01*
X37459175Y8462623D01*
X37332466Y8281662D01*
X37332465Y8281660D01*
X37272382Y8152811D01*
X37226209Y8100372D01*
X37159016Y8081220D01*
X37092135Y8101436D01*
X37047618Y8152811D01*
X37029059Y8192610D01*
X36987534Y8281661D01*
X36860826Y8462620D01*
X36704620Y8618826D01*
X36704616Y8618829D01*
X36704615Y8618830D01*
X36523666Y8745532D01*
X36523662Y8745534D01*
X36504559Y8754442D01*
X36323450Y8838894D01*
X36323447Y8838895D01*
X36323445Y8838896D01*
X36110070Y8896070D01*
X36110062Y8896071D01*
X35890002Y8915323D01*
X35889998Y8915323D01*
X35669937Y8896071D01*
X35669929Y8896070D01*
X35456554Y8838896D01*
X35456548Y8838893D01*
X35256340Y8745535D01*
X35256338Y8745534D01*
X35075377Y8618825D01*
X34919175Y8462623D01*
X34792466Y8281662D01*
X34792465Y8281660D01*
X34732382Y8152811D01*
X34686209Y8100372D01*
X34619016Y8081220D01*
X34552135Y8101436D01*
X34507618Y8152811D01*
X34489059Y8192610D01*
X34447534Y8281661D01*
X34320826Y8462620D01*
X34164620Y8618826D01*
X34164616Y8618829D01*
X34164615Y8618830D01*
X33983666Y8745532D01*
X33983662Y8745534D01*
X33964559Y8754442D01*
X33783450Y8838894D01*
X33783447Y8838895D01*
X33783445Y8838896D01*
X33570070Y8896070D01*
X33570062Y8896071D01*
X33350002Y8915323D01*
X33349998Y8915323D01*
X33129937Y8896071D01*
X33129929Y8896070D01*
X32916554Y8838896D01*
X32916548Y8838893D01*
X32716340Y8745535D01*
X32716338Y8745534D01*
X32535377Y8618825D01*
X32379175Y8462623D01*
X32252466Y8281662D01*
X32252465Y8281660D01*
X32192382Y8152811D01*
X32146209Y8100372D01*
X32079016Y8081220D01*
X32012135Y8101436D01*
X31967618Y8152811D01*
X31949059Y8192610D01*
X31907534Y8281661D01*
X31780826Y8462620D01*
X31624620Y8618826D01*
X31624616Y8618829D01*
X31624615Y8618830D01*
X31443666Y8745532D01*
X31443662Y8745534D01*
X31424559Y8754442D01*
X31243450Y8838894D01*
X31243447Y8838895D01*
X31243445Y8838896D01*
X31030070Y8896070D01*
X31030062Y8896071D01*
X30810002Y8915323D01*
X30809998Y8915323D01*
X30589937Y8896071D01*
X30589929Y8896070D01*
X30376554Y8838896D01*
X30376548Y8838893D01*
X30176340Y8745535D01*
X30176338Y8745534D01*
X29995377Y8618825D01*
X29839175Y8462623D01*
X29712466Y8281662D01*
X29712465Y8281660D01*
X29652382Y8152811D01*
X29606209Y8100372D01*
X29539016Y8081220D01*
X29472135Y8101436D01*
X29427618Y8152811D01*
X29409059Y8192610D01*
X29367534Y8281661D01*
X29240826Y8462620D01*
X29240824Y8462623D01*
X29181819Y8521628D01*
X29148334Y8582951D01*
X29145500Y8609309D01*
X29145500Y9773995D01*
X29165185Y9841034D01*
X29181819Y9861676D01*
X31136324Y11816181D01*
X31197647Y11849666D01*
X31224005Y11852500D01*
X34956691Y11852500D01*
X35023730Y11832815D01*
G37*
%TD.AperFunction*%
%TD*%
M02*
