solid Omnidroid
facet normal 4.22072237952237e-015 -9.6518894311582e-016 -1.0
  outer loop
    vertex -61.8886877541207 -186.675990741627 -3.99999999999955
    vertex -79.8886877541207 -231.475990741627 -3.9999999999996
    vertex -79.8886877541207 -186.675990741627 -3.99999999999969
  endloop
endfacet
facet normal 4.22072237952237e-015 -9.6518894311582e-016 -1.0
  outer loop
    vertex -79.8886877541207 -231.475990741627 -3.9999999999996
    vertex -61.8886877541207 -186.675990741627 -3.99999999999955
    vertex -61.8886877541207 -231.475990741627 -3.99999999999956
  endloop
endfacet
facet normal -0.793353340291272 4.17538078728641e-014 0.608761429008673
  outer loop
    vertex -68.983431865795 -186.675990741626 3.40000000000218
    vertex -69.3330528355103 -187.475990741629 2.94436508139183
    vertex -68.983431865795 -187.475990741629 3.40000000000224
  endloop
endfacet
facet normal -0.793353340291272 4.17538078728641e-014 0.608761429008673
  outer loop
    vertex -69.3330528355103 -187.475990741629 2.94436508139183
    vertex -68.983431865795 -186.675990741626 3.40000000000218
    vertex -69.3330528355103 -186.675990741626 2.94436508139178
  endloop
endfacet
facet normal 0.923879532511285 2.62483647618054e-014 0.382683432365095
  outer loop
    vertex -72.7939436424465 -186.675990741625 3.40000000000218
    vertex -73.0137245719566 -187.475990741628 3.93059810077669
    vertex -72.7939436424465 -187.475990741628 3.40000000000224
  endloop
endfacet
facet normal 0.923879532511285 2.62483647618054e-014 0.382683432365095
  outer loop
    vertex -73.0137245719566 -187.475990741628 3.93059810077669
    vertex -72.7939436424465 -186.675990741625 3.40000000000218
    vertex -73.0137245719566 -186.675990741625 3.93059810077664
  endloop
endfacet
facet normal -0.608761429008685 5.72725809810158e-014 0.793353340291262
  outer loop
    vertex -69.3330528355103 -187.475990741629 2.94436508139183
    vertex -69.7886877541208 -186.675990741626 2.59474411167642
    vertex -69.7886877541208 -187.475990741629 2.59474411167648
  endloop
endfacet
facet normal -0.608761429008685 5.72725809810158e-014 0.793353340291262
  outer loop
    vertex -69.7886877541208 -186.675990741626 2.59474411167642
    vertex -69.3330528355103 -187.475990741629 2.94436508139183
    vertex -69.3330528355103 -186.675990741626 2.94436508139178
  endloop
endfacet
facet normal -0.923879532511284 2.76298072830767e-014 0.382683432365097
  outer loop
    vertex -68.7636509362848 -186.675990741626 3.93059810077664
    vertex -68.983431865795 -187.475990741629 3.40000000000224
    vertex -68.7636509362848 -187.475990741629 3.93059810077669
  endloop
endfacet
facet normal -0.923879532511284 2.76298072830767e-014 0.382683432365097
  outer loop
    vertex -68.983431865795 -187.475990741629 3.40000000000224
    vertex -68.7636509362848 -186.675990741626 3.93059810077664
    vertex -68.983431865795 -186.675990741626 3.40000000000218
  endloop
endfacet
facet normal -1.96482331005437e-014 -6.23250192196063e-014 1.0
  outer loop
    vertex -74.0399365904858 -196.475990741625 -1.0000000000001
    vertex -77.39072277993 -187.475990741631 -0.999999999998392
    vertex -77.39072277993 -196.475990741628 -0.999999999998392
  endloop
endfacet
facet normal -1.96482331005437e-014 -6.23250192196063e-014 1.0
  outer loop
    vertex -77.39072277993 -187.475990741631 -0.999999999998392
    vertex -74.0399365904858 -196.475990741625 -1.0000000000001
    vertex -64.3907227799283 -187.475990741631 -0.999999999998392
  endloop
endfacet
facet normal -1.96482331005437e-014 -6.23250192196063e-014 1.0
  outer loop
    vertex -64.3907227799283 -187.475990741631 -0.999999999998392
    vertex -74.0399365904858 -196.475990741625 -1.0000000000001
    vertex -67.7415089693776 -196.475990741626 -0.999999999998926
  endloop
endfacet
facet normal -1.96482331005437e-014 -6.23250192196063e-014 1.0
  outer loop
    vertex -64.3907227799283 -187.475990741631 -0.999999999998392
    vertex -67.7415089693776 -196.475990741626 -0.999999999998926
    vertex -64.3907227799283 -196.475990741628 -0.999999999998392
  endloop
endfacet
facet normal -1.87056120598773e-013 -9.79033668414332e-031 1.0
  outer loop
    vertex -67.7415089693776 -211.475990741628 -0.999999999998926
    vertex -74.0399365904858 -196.475990741625 -1.0000000000001
    vertex -74.0399365904858 -211.475990741626 -1.0000000000001
  endloop
endfacet
facet normal -1.87056120598773e-013 -9.79033668414332e-031 1.0
  outer loop
    vertex -74.0399365904858 -196.475990741625 -1.0000000000001
    vertex -67.7415089693776 -211.475990741628 -0.999999999998926
    vertex -67.7415089693776 -196.475990741626 -0.999999999998926
  endloop
endfacet
facet normal -2.36024406139727e-013 -3.64329305736728e-014 1.0
  outer loop
    vertex -77.3927578057361 -211.475990741625 4.49999999999923
    vertex -79.8886877541207 -186.675990741627 4.50000000000046
    vertex -79.8886877541207 -211.475990741627 4.50000000000046
  endloop
endfacet
facet normal -2.36024406139727e-013 -3.64329305736728e-014 1.0
  outer loop
    vertex -79.8886877541207 -186.675990741627 4.50000000000046
    vertex -77.3927578057361 -211.475990741625 4.49999999999923
    vertex -77.3927578057361 -196.475990741624 4.49999999999923
  endloop
endfacet
facet normal -2.36024406139727e-013 -3.64329305736728e-014 1.0
  outer loop
    vertex -79.8886877541207 -186.675990741627 4.50000000000046
    vertex -77.3927578057361 -196.475990741624 4.49999999999923
    vertex -77.39072277993 -187.475990741629 4.50000000000046
  endloop
endfacet
facet normal -2.36024406139727e-013 -3.64329305736728e-014 1.0
  outer loop
    vertex -79.8886877541207 -186.675990741627 4.50000000000046
    vertex -77.39072277993 -187.475990741629 4.50000000000046
    vertex -73.0886877541207 -186.675990741625 4.50000000000218
  endloop
endfacet
facet normal -2.36024406139727e-013 -3.64329305736728e-014 1.0
  outer loop
    vertex -77.39072277993 -187.475990741629 4.50000000000046
    vertex -77.3927578057361 -196.475990741624 4.49999999999923
    vertex -77.39072277993 -196.475990741625 4.50000000000046
  endloop
endfacet
facet normal -2.36024406139727e-013 -3.64329305736728e-014 1.0
  outer loop
    vertex -73.0886877541207 -186.675990741625 4.50000000000218
    vertex -77.39072277993 -187.475990741629 4.50000000000046
    vertex -73.0886877541207 -187.475990741628 4.50000000000224
  endloop
endfacet
facet normal 1.59560005118087e-014 1.0 -9.0326576487109e-014
  outer loop
    vertex -79.8886877541207 -186.675990741627 4.50000000000046
    vertex -61.8886877541207 -186.675990741627 -3.99999999999955
    vertex -79.8886877541207 -186.675990741627 -3.99999999999969
  endloop
endfacet
facet normal 1.59560005118087e-014 1.0 -9.0326576487109e-014
  outer loop
    vertex -61.8886877541207 -186.675990741627 -3.99999999999955
    vertex -79.8886877541207 -186.675990741627 4.50000000000046
    vertex -71.4580896533462 -186.675990741626 2.37496318216624
  endloop
endfacet
facet normal 1.59560005118087e-014 1.0 -9.0326576487109e-014
  outer loop
    vertex -61.8886877541207 -186.675990741627 -3.99999999999955
    vertex -71.4580896533462 -186.675990741626 2.37496318216624
    vertex -70.8886877541207 -186.675990741626 2.30000000000219
  endloop
endfacet
facet normal 1.59560005118087e-014 1.0 -9.0326576487109e-014
  outer loop
    vertex -71.4580896533462 -186.675990741626 2.37496318216624
    vertex -79.8886877541207 -186.675990741627 4.50000000000046
    vertex -71.9886877541207 -186.675990741626 2.59474411167642
  endloop
endfacet
facet normal 1.59560005118087e-014 1.0 -9.0326576487109e-014
  outer loop
    vertex -71.9886877541207 -186.675990741626 2.59474411167642
    vertex -79.8886877541207 -186.675990741627 4.50000000000046
    vertex -72.4443226727311 -186.675990741625 2.94436508139178
  endloop
endfacet
facet normal 1.59560005118087e-014 1.0 -9.0326576487109e-014
  outer loop
    vertex -72.4443226727311 -186.675990741625 2.94436508139178
    vertex -79.8886877541207 -186.675990741627 4.50000000000046
    vertex -72.7939436424465 -186.675990741625 3.40000000000218
  endloop
endfacet
facet normal 1.59560005118087e-014 1.0 -9.0326576487109e-014
  outer loop
    vertex -72.7939436424465 -186.675990741625 3.40000000000218
    vertex -79.8886877541207 -186.675990741627 4.50000000000046
    vertex -73.0137245719566 -186.675990741625 3.93059810077664
  endloop
endfacet
facet normal 1.59560005118087e-014 1.0 -9.0326576487109e-014
  outer loop
    vertex -73.0137245719566 -186.675990741625 3.93059810077664
    vertex -79.8886877541207 -186.675990741627 4.50000000000046
    vertex -73.0886877541207 -186.675990741625 4.50000000000218
  endloop
endfacet
facet normal 1.59560005118087e-014 1.0 -9.0326576487109e-014
  outer loop
    vertex -61.8886877541207 -186.675990741627 -3.99999999999955
    vertex -70.3192858548952 -186.675990741626 2.37496318216624
    vertex -61.8886877541208 -186.675990741627 4.50000000000046
  endloop
endfacet
facet normal 1.59560005118087e-014 1.0 -9.0326576487109e-014
  outer loop
    vertex -70.3192858548952 -186.675990741626 2.37496318216624
    vertex -61.8886877541207 -186.675990741627 -3.99999999999955
    vertex -70.8886877541207 -186.675990741626 2.30000000000219
  endloop
endfacet
facet normal 1.59560005118087e-014 1.0 -9.0326576487109e-014
  outer loop
    vertex -61.8886877541208 -186.675990741627 4.50000000000046
    vertex -70.3192858548952 -186.675990741626 2.37496318216624
    vertex -69.7886877541208 -186.675990741626 2.59474411167642
  endloop
endfacet
facet normal 1.59560005118087e-014 1.0 -9.0326576487109e-014
  outer loop
    vertex -61.8886877541208 -186.675990741627 4.50000000000046
    vertex -69.7886877541208 -186.675990741626 2.59474411167642
    vertex -69.3330528355103 -186.675990741626 2.94436508139178
  endloop
endfacet
facet normal 1.59560005118087e-014 1.0 -9.0326576487109e-014
  outer loop
    vertex -61.8886877541208 -186.675990741627 4.50000000000046
    vertex -69.3330528355103 -186.675990741626 2.94436508139178
    vertex -68.983431865795 -186.675990741626 3.40000000000218
  endloop
endfacet
facet normal 1.59560005118087e-014 1.0 -9.0326576487109e-014
  outer loop
    vertex -61.8886877541208 -186.675990741627 4.50000000000046
    vertex -68.983431865795 -186.675990741626 3.40000000000218
    vertex -68.7636509362848 -186.675990741626 3.93059810077664
  endloop
endfacet
facet normal 1.59560005118087e-014 1.0 -9.0326576487109e-014
  outer loop
    vertex -61.8886877541208 -186.675990741627 4.50000000000046
    vertex -68.7636509362848 -186.675990741626 3.93059810077664
    vertex -68.6886877541207 -186.675990741626 4.50000000000218
  endloop
endfacet
facet normal -2.95146283353327e-010 1.0 0.0
  outer loop
    vertex -64.3907227799283 -196.475990741628 4.522532714413
    vertex -64.3886877541294 -196.475990741627 4.50000000000181
    vertex -64.3907227799283 -196.475990741628 4.50000000000046
  endloop
endfacet
facet normal -0.548046724311795 -4.08134152442351e-019 0.836447719807467
  outer loop
    vertex -66.7262423726645 -211.475990741628 -0.334789826720071
    vertex -67.7415089693776 -196.475990741626 -0.999999999998926
    vertex -67.7415089693776 -211.475990741628 -0.999999999998926
  endloop
endfacet
facet normal -0.548046724311795 -4.08134152442351e-019 0.836447719807467
  outer loop
    vertex -67.7415089693776 -196.475990741626 -0.999999999998926
    vertex -66.7262423726645 -211.475990741628 -0.334789826720071
    vertex -66.7262423726645 -196.475990741627 -0.334789826720071
  endloop
endfacet
facet normal 0.689042538477688 -1.67473910013556e-017 0.724720898117492
  outer loop
    vertex -75.4073283033621 -211.475990741626 4.3098111746076e-013
    vertex -75.8594455454068 -196.475990741624 0.429859291980625
    vertex -75.8594455454068 -211.475990741626 0.429859291980625
  endloop
endfacet
facet normal 0.689042538477688 -1.67473910013556e-017 0.724720898117492
  outer loop
    vertex -75.8594455454068 -196.475990741624 0.429859291980625
    vertex -75.4073283033621 -211.475990741626 4.3098111746076e-013
    vertex -75.0552031871994 -196.475990741624 -0.334789826721486
  endloop
endfacet
facet normal 0.689042538477688 -1.67473910013556e-017 0.724720898117492
  outer loop
    vertex -75.0552031871994 -196.475990741624 -0.334789826721486
    vertex -75.4073283033621 -211.475990741626 4.3098111746076e-013
    vertex -75.0552031871994 -211.475990741626 -0.334789826721486
  endloop
endfacet
facet normal 0.807739074100942 4.70682807206401e-019 0.589540149752799
  outer loop
    vertex -75.8594455454068 -196.475990741624 0.429859291980625
    vertex -76.5136741753893 -211.475990741625 1.32622916272475
    vertex -75.8594455454068 -211.475990741626 0.429859291980625
  endloop
endfacet
facet normal 0.807739074100942 4.70682807206401e-019 0.589540149752799
  outer loop
    vertex -76.5136741753893 -211.475990741625 1.32622916272475
    vertex -75.8594455454068 -196.475990741624 0.429859291980625
    vertex -76.5136741753893 -196.475990741624 1.32622916272475
  endloop
endfacet
facet normal -0.900294990535295 1.80958356092855e-019 0.435280289028867
  outer loop
    vertex -64.784729089104 -196.475990741627 2.32531083423883
    vertex -65.2677713844749 -211.475990741628 1.32622916272703
    vertex -64.784729089104 -211.475990741628 2.32531083423883
  endloop
endfacet
facet normal -0.900294990535295 1.80958356092855e-019 0.435280289028867
  outer loop
    vertex -65.2677713844749 -211.475990741628 1.32622916272703
    vertex -64.784729089104 -196.475990741627 2.32531083423883
    vertex -65.2677713844749 -196.475990741627 1.32622916272703
  endloop
endfacet
facet normal 0.995946446565077 5.07470725154364e-018 0.0899481827186966
  outer loop
    vertex -77.2929398775184 -196.475990741624 3.39477132380898
    vertex -77.3927578057361 -211.475990741625 4.49999999999923
    vertex -77.2929398775184 -211.475990741625 3.39477132380898
  endloop
endfacet
facet normal 0.995946446565077 5.07470725154364e-018 0.0899481827186966
  outer loop
    vertex -77.3927578057361 -211.475990741625 4.49999999999923
    vertex -77.2929398775184 -196.475990741624 3.39477132380898
    vertex -77.39072277993 -196.475990741625 4.4774672855072
  endloop
endfacet
facet normal 0.995946446565077 5.07470725154364e-018 0.0899481827186966
  outer loop
    vertex -77.3927578057361 -196.475990741624 4.49999999999923
    vertex -77.3927578057361 -211.475990741625 4.49999999999923
    vertex -77.39072277993 -196.475990741625 4.4774672855072
  endloop
endfacet
facet normal -7.60611125912594e-014 -1.0 2.91659959244553e-013
  outer loop
    vertex -64.3907227799283 -187.475990741631 4.50000000000046
    vertex -77.39072277993 -187.475990741631 -0.999999999998392
    vertex -64.3907227799283 -187.475990741631 -0.999999999998392
  endloop
endfacet
facet normal -7.60611125912594e-014 -1.0 2.91659959244553e-013
  outer loop
    vertex -77.39072277993 -187.475990741631 -0.999999999998392
    vertex -64.3907227799283 -187.475990741631 4.50000000000046
    vertex -70.3192858548952 -187.475990741629 2.3749631821663
  endloop
endfacet
facet normal -7.60611125912594e-014 -1.0 2.91659959244553e-013
  outer loop
    vertex -77.39072277993 -187.475990741631 -0.999999999998392
    vertex -70.3192858548952 -187.475990741629 2.3749631821663
    vertex -70.8886877541207 -187.475990741629 2.30000000000224
  endloop
endfacet
facet normal -7.60611125912594e-014 -1.0 2.91659959244553e-013
  outer loop
    vertex -70.3192858548952 -187.475990741629 2.3749631821663
    vertex -64.3907227799283 -187.475990741631 4.50000000000046
    vertex -69.7886877541208 -187.475990741629 2.59474411167648
  endloop
endfacet
facet normal -7.60611125912594e-014 -1.0 2.91659959244553e-013
  outer loop
    vertex -69.7886877541208 -187.475990741629 2.59474411167648
    vertex -64.3907227799283 -187.475990741631 4.50000000000046
    vertex -69.3330528355103 -187.475990741629 2.94436508139183
  endloop
endfacet
facet normal -7.60611125912594e-014 -1.0 2.91659959244553e-013
  outer loop
    vertex -69.3330528355103 -187.475990741629 2.94436508139183
    vertex -64.3907227799283 -187.475990741631 4.50000000000046
    vertex -68.983431865795 -187.475990741629 3.40000000000224
  endloop
endfacet
facet normal -7.60611125912594e-014 -1.0 2.91659959244553e-013
  outer loop
    vertex -68.983431865795 -187.475990741629 3.40000000000224
    vertex -64.3907227799283 -187.475990741631 4.50000000000046
    vertex -68.7636509362848 -187.475990741629 3.93059810077669
  endloop
endfacet
facet normal -7.60611125912594e-014 -1.0 2.91659959244553e-013
  outer loop
    vertex -68.7636509362848 -187.475990741629 3.93059810077669
    vertex -64.3907227799283 -187.475990741631 4.50000000000046
    vertex -68.6886877541207 -187.475990741629 4.50000000000224
  endloop
endfacet
facet normal -7.60611125912594e-014 -1.0 2.91659959244553e-013
  outer loop
    vertex -77.39072277993 -187.475990741631 -0.999999999998392
    vertex -71.4580896533462 -187.475990741628 2.3749631821663
    vertex -77.39072277993 -187.475990741629 4.50000000000046
  endloop
endfacet
facet normal -7.60611125912594e-014 -1.0 2.91659959244553e-013
  outer loop
    vertex -71.4580896533462 -187.475990741628 2.3749631821663
    vertex -77.39072277993 -187.475990741631 -0.999999999998392
    vertex -70.8886877541207 -187.475990741629 2.30000000000224
  endloop
endfacet
facet normal -7.60611125912594e-014 -1.0 2.91659959244553e-013
  outer loop
    vertex -77.39072277993 -187.475990741629 4.50000000000046
    vertex -71.4580896533462 -187.475990741628 2.3749631821663
    vertex -71.9886877541207 -187.475990741628 2.59474411167648
  endloop
endfacet
facet normal -7.60611125912594e-014 -1.0 2.91659959244553e-013
  outer loop
    vertex -77.39072277993 -187.475990741629 4.50000000000046
    vertex -71.9886877541207 -187.475990741628 2.59474411167648
    vertex -72.4443226727311 -187.475990741628 2.94436508139184
  endloop
endfacet
facet normal -7.60611125912594e-014 -1.0 2.91659959244553e-013
  outer loop
    vertex -77.39072277993 -187.475990741629 4.50000000000046
    vertex -72.4443226727311 -187.475990741628 2.94436508139184
    vertex -72.7939436424465 -187.475990741628 3.40000000000224
  endloop
endfacet
facet normal -7.60611125912594e-014 -1.0 2.91659959244553e-013
  outer loop
    vertex -77.39072277993 -187.475990741629 4.50000000000046
    vertex -72.7939436424465 -187.475990741628 3.40000000000224
    vertex -73.0137245719566 -187.475990741628 3.93059810077669
  endloop
endfacet
facet normal -7.60611125912594e-014 -1.0 2.91659959244553e-013
  outer loop
    vertex -77.39072277993 -187.475990741629 4.50000000000046
    vertex -73.0137245719566 -187.475990741628 3.93059810077669
    vertex -73.0886877541207 -187.475990741628 4.50000000000224
  endloop
endfacet
facet normal 1.0 0.0 0.0
  outer loop
    vertex -77.39072277993 -187.475990741631 -0.999999999998392
    vertex -77.39072277993 -196.475990741625 4.4774672855072
    vertex -77.39072277993 -196.475990741628 -0.999999999998392
  endloop
endfacet
facet normal 1.0 0.0 0.0
  outer loop
    vertex -77.39072277993 -196.475990741625 4.4774672855072
    vertex -77.39072277993 -187.475990741631 -0.999999999998392
    vertex -77.39072277993 -196.475990741625 4.50000000000046
  endloop
endfacet
facet normal 1.0 0.0 0.0
  outer loop
    vertex -77.39072277993 -196.475990741625 4.50000000000046
    vertex -77.39072277993 -187.475990741631 -0.999999999998392
    vertex -77.39072277993 -187.475990741629 4.50000000000046
  endloop
endfacet
facet normal 0.991444861373799 8.94831984053592e-015 0.130526192220135
  outer loop
    vertex -73.0137245719566 -186.675990741625 3.93059810077664
    vertex -73.0886877541207 -187.475990741628 4.50000000000224
    vertex -73.0137245719566 -187.475990741628 3.93059810077669
  endloop
endfacet
facet normal 0.991444861373799 8.94831984053592e-015 0.130526192220135
  outer loop
    vertex -73.0886877541207 -187.475990741628 4.50000000000224
    vertex -73.0137245719566 -186.675990741625 3.93059810077664
    vertex -73.0886877541207 -186.675990741625 4.50000000000218
  endloop
endfacet
facet normal -0.382683432365086 7.00291629816373e-014 0.923879532511288
  outer loop
    vertex -69.7886877541208 -187.475990741629 2.59474411167648
    vertex -70.3192858548952 -186.675990741626 2.37496318216624
    vertex -70.3192858548952 -187.475990741629 2.3749631821663
  endloop
endfacet
facet normal -0.382683432365086 7.00291629816373e-014 0.923879532511288
  outer loop
    vertex -70.3192858548952 -186.675990741626 2.37496318216624
    vertex -69.7886877541208 -187.475990741629 2.59474411167648
    vertex -69.7886877541208 -186.675990741626 2.59474411167642
  endloop
endfacet
facet normal -0.689042538477924 2.24635663730713e-017 0.724720898117268
  outer loop
    vertex -66.3741172565035 -211.475990741627 4.38200231656083e-013
    vertex -66.7262423726645 -196.475990741627 -0.334789826720071
    vertex -66.7262423726645 -211.475990741628 -0.334789826720071
  endloop
endfacet
facet normal -0.689042538477924 2.24635663730713e-017 0.724720898117268
  outer loop
    vertex -66.7262423726645 -196.475990741627 -0.334789826720071
    vertex -66.3741172565035 -211.475990741627 4.38200231656083e-013
    vertex -65.9220000144571 -196.475990741627 0.42985929198245
  endloop
endfacet
facet normal -0.689042538477924 2.24635663730713e-017 0.724720898117268
  outer loop
    vertex -65.9220000144571 -196.475990741627 0.42985929198245
    vertex -66.3741172565035 -211.475990741627 4.38200231656083e-013
    vertex -65.9220000144571 -211.475990741628 0.42985929198245
  endloop
endfacet
facet normal -2.95146283353326e-010 1.0 -3.74782823385253e-027
  outer loop
    vertex -64.3886877541294 -196.475990741627 4.50000000000181
    vertex -64.3907227799283 -196.475990741628 4.47746728559055
    vertex -64.3907227799283 -196.475990741628 4.50000000000046
  endloop
endfacet
facet normal 7.03810365471712e-010 1.0 -7.49565636005096e-027
  outer loop
    vertex -77.39072277993 -196.475990741625 4.52253271449134
    vertex -77.39072277993 -196.475990741625 4.50000000000046
    vertex -77.3927578057361 -196.475990741624 4.49999999999923
  endloop
endfacet
facet normal 0.963714928210697 -8.37061958056246e-020 0.266933581896041
  outer loop
    vertex -76.9967164707606 -196.475990741624 2.3253108342364
    vertex -77.2929398775184 -211.475990741625 3.39477132380898
    vertex -76.9967164707606 -211.475990741625 2.3253108342364
  endloop
endfacet
facet normal 0.963714928210697 -8.37061958056246e-020 0.266933581896041
  outer loop
    vertex -77.2929398775184 -211.475990741625 3.39477132380898
    vertex -76.9967164707606 -196.475990741624 2.3253108342364
    vertex -77.2929398775184 -196.475990741624 3.39477132380898
  endloop
endfacet
facet normal 0.608761429008686 5.7274070467332e-014 0.793353340291262
  outer loop
    vertex -71.9886877541207 -187.475990741628 2.59474411167648
    vertex -72.4443226727311 -186.675990741625 2.94436508139178
    vertex -72.4443226727311 -187.475990741628 2.94436508139184
  endloop
endfacet
facet normal 0.608761429008686 5.7274070467332e-014 0.793353340291262
  outer loop
    vertex -72.4443226727311 -186.675990741625 2.94436508139178
    vertex -71.9886877541207 -187.475990741628 2.59474411167648
    vertex -71.9886877541207 -186.675990741626 2.59474411167642
  endloop
endfacet
facet normal 5.7872906612082e-013 1.0 -1.50922783172679e-013
  outer loop
    vertex -66.7262423726645 -196.475990741627 -0.334789826720071
    vertex -64.3907227799283 -196.475990741628 -0.999999999998392
    vertex -67.7415089693776 -196.475990741626 -0.999999999998926
  endloop
endfacet
facet normal 5.7872906612082e-013 1.0 -1.50922783172679e-013
  outer loop
    vertex -64.3907227799283 -196.475990741628 -0.999999999998392
    vertex -66.7262423726645 -196.475990741627 -0.334789826720071
    vertex -65.9220000144571 -196.475990741627 0.42985929198245
  endloop
endfacet
facet normal 5.7872906612082e-013 1.0 -1.50922783172679e-013
  outer loop
    vertex -64.3907227799283 -196.475990741628 -0.999999999998392
    vertex -65.9220000144571 -196.475990741627 0.42985929198245
    vertex -65.2677713844749 -196.475990741627 1.32622916272703
  endloop
endfacet
facet normal 5.7872906612082e-013 1.0 -1.50922783172679e-013
  outer loop
    vertex -64.3907227799283 -196.475990741628 -0.999999999998392
    vertex -65.2677713844749 -196.475990741627 1.32622916272703
    vertex -64.784729089104 -196.475990741627 2.32531083423883
  endloop
endfacet
facet normal 5.7872906612082e-013 1.0 -1.50922783172679e-013
  outer loop
    vertex -64.3907227799283 -196.475990741628 -0.999999999998392
    vertex -64.784729089104 -196.475990741627 2.32531083423883
    vertex -64.4885056823469 -196.475990741627 3.39477132381115
  endloop
endfacet
facet normal 5.7872906612082e-013 1.0 -1.50922783172679e-013
  outer loop
    vertex -64.3907227799283 -196.475990741628 -0.999999999998392
    vertex -64.4885056823469 -196.475990741627 3.39477132381115
    vertex -64.3907227799283 -196.475990741628 4.47746728559055
  endloop
endfacet
facet normal -0.963714928210831 6.12292243410582e-019 0.26693358189556
  outer loop
    vertex -64.4885056823469 -196.475990741627 3.39477132381115
    vertex -64.784729089104 -211.475990741628 2.32531083423883
    vertex -64.4885056823469 -211.475990741628 3.39477132381115
  endloop
endfacet
facet normal -0.963714928210831 6.12292243410582e-019 0.26693358189556
  outer loop
    vertex -64.784729089104 -211.475990741628 2.32531083423883
    vertex -64.4885056823469 -196.475990741627 3.39477132381115
    vertex -64.784729089104 -196.475990741627 2.32531083423883
  endloop
endfacet
facet normal 0.548046724311483 -9.91536315116793e-022 0.836447719807672
  outer loop
    vertex -74.0399365904858 -211.475990741626 -1.0000000000001
    vertex -75.0552031871994 -196.475990741624 -0.334789826721486
    vertex -75.0552031871994 -211.475990741626 -0.334789826721486
  endloop
endfacet
facet normal 0.548046724311483 -9.91536315116793e-022 0.836447719807672
  outer loop
    vertex -75.0552031871994 -196.475990741624 -0.334789826721486
    vertex -74.0399365904858 -211.475990741626 -1.0000000000001
    vertex -74.0399365904858 -196.475990741625 -1.0000000000001
  endloop
endfacet
facet normal 3.05597428584011e-013 2.63365907948689e-014 1.0
  outer loop
    vertex -64.3886877541294 -196.475990741627 4.50000000000181
    vertex -64.3907227799283 -187.475990741631 4.50000000000046
    vertex -64.3907227799283 -196.475990741628 4.50000000000046
  endloop
endfacet
facet normal 3.05597428584011e-013 2.63365907948689e-014 1.0
  outer loop
    vertex -61.8886877541208 -211.475990741627 4.50000000000046
    vertex -64.3886877541294 -196.475990741627 4.50000000000181
    vertex -64.3886877541294 -211.475990741628 4.50000000000181
  endloop
endfacet
facet normal 3.05597428584011e-013 2.63365907948689e-014 1.0
  outer loop
    vertex -64.3907227799283 -187.475990741631 4.50000000000046
    vertex -68.6886877541207 -186.675990741626 4.50000000000218
    vertex -68.6886877541207 -187.475990741629 4.50000000000224
  endloop
endfacet
facet normal 3.05597428584011e-013 2.63365907948689e-014 1.0
  outer loop
    vertex -68.6886877541207 -186.675990741626 4.50000000000218
    vertex -64.3907227799283 -187.475990741631 4.50000000000046
    vertex -61.8886877541208 -186.675990741627 4.50000000000046
  endloop
endfacet
facet normal 3.05597428584011e-013 2.63365907948689e-014 1.0
  outer loop
    vertex -61.8886877541208 -186.675990741627 4.50000000000046
    vertex -64.3907227799283 -187.475990741631 4.50000000000046
    vertex -64.3886877541294 -196.475990741627 4.50000000000181
  endloop
endfacet
facet normal 3.05597428584011e-013 2.63365907948689e-014 1.0
  outer loop
    vertex -61.8886877541208 -186.675990741627 4.50000000000046
    vertex -64.3886877541294 -196.475990741627 4.50000000000181
    vertex -61.8886877541208 -211.475990741627 4.50000000000046
  endloop
endfacet
facet normal 0.79335334029127 4.3922730879061e-014 0.608761429008675
  outer loop
    vertex -72.4443226727311 -186.675990741625 2.94436508139178
    vertex -72.7939436424465 -187.475990741628 3.40000000000224
    vertex -72.4443226727311 -187.475990741628 2.94436508139184
  endloop
endfacet
facet normal 0.79335334029127 4.3922730879061e-014 0.608761429008675
  outer loop
    vertex -72.7939436424465 -187.475990741628 3.40000000000224
    vertex -72.4443226727311 -186.675990741625 2.94436508139178
    vertex -72.7939436424465 -186.675990741625 3.40000000000218
  endloop
endfacet
facet normal 7.03810365471712e-010 1.0 7.49565635847559e-027
  outer loop
    vertex -77.39072277993 -196.475990741625 4.50000000000046
    vertex -77.39072277993 -196.475990741625 4.4774672855072
    vertex -77.3927578057361 -196.475990741624 4.49999999999923
  endloop
endfacet
facet normal 0.130526192220063 7.2470371795053e-014 0.991444861373809
  outer loop
    vertex -70.8886877541207 -187.475990741629 2.30000000000224
    vertex -71.4580896533462 -186.675990741626 2.37496318216624
    vertex -71.4580896533462 -187.475990741628 2.3749631821663
  endloop
endfacet
facet normal 0.130526192220063 7.2470371795053e-014 0.991444861373809
  outer loop
    vertex -71.4580896533462 -186.675990741626 2.37496318216624
    vertex -70.8886877541207 -187.475990741629 2.30000000000224
    vertex -70.8886877541207 -186.675990741626 2.30000000000219
  endloop
endfacet
facet normal -0.995946446565103 -3.04482435080046e-018 0.0899481827184147
  outer loop
    vertex -64.3886877541294 -196.475990741627 4.50000000000181
    vertex -64.4885056823469 -211.475990741628 3.39477132381115
    vertex -64.3886877541294 -211.475990741628 4.50000000000181
  endloop
endfacet
facet normal -0.995946446565103 -3.04482435080046e-018 0.0899481827184147
  outer loop
    vertex -64.4885056823469 -211.475990741628 3.39477132381115
    vertex -64.3886877541294 -196.475990741627 4.50000000000181
    vertex -64.3907227799283 -196.475990741628 4.47746728559055
  endloop
endfacet
facet normal -0.995946446565103 -3.04482435080046e-018 0.0899481827184147
  outer loop
    vertex -64.4885056823469 -196.475990741627 3.39477132381115
    vertex -64.4885056823469 -211.475990741628 3.39477132381115
    vertex -64.3907227799283 -196.475990741628 4.47746728559055
  endloop
endfacet
facet normal 1.0 -2.15239562264802e-016 4.36878398905381e-015
  outer loop
    vertex -61.8886877541207 -186.675990741627 -3.99999999999955
    vertex -61.8886877541207 -231.475990741627 4.36756408817018e-013
    vertex -61.8886877541207 -231.475990741627 -3.99999999999956
  endloop
endfacet
facet normal 1.0 -2.15239562264802e-016 4.36878398905381e-015
  outer loop
    vertex -61.8886877541207 -231.475990741627 4.36756408817018e-013
    vertex -61.8886877541207 -186.675990741627 -3.99999999999955
    vertex -61.8886877541207 -211.475990741627 4.36756408817018e-013
  endloop
endfacet
facet normal 1.0 -2.15239562264802e-016 4.36878398905381e-015
  outer loop
    vertex -61.8886877541207 -211.475990741627 4.36756408817018e-013
    vertex -61.8886877541207 -186.675990741627 -3.99999999999955
    vertex -61.8886877541208 -211.475990741627 4.50000000000046
  endloop
endfacet
facet normal 1.0 -2.15239562264802e-016 4.36878398905381e-015
  outer loop
    vertex -61.8886877541208 -211.475990741627 4.50000000000046
    vertex -61.8886877541207 -186.675990741627 -3.99999999999955
    vertex -61.8886877541208 -186.675990741627 4.50000000000046
  endloop
endfacet
facet normal -1.0 -4.6738293602486e-016 -8.2384944750463e-016
  outer loop
    vertex -79.8886877541207 -186.675990741627 4.50000000000046
    vertex -79.8886877541207 -211.475990741627 4.33146851719357e-013
    vertex -79.8886877541207 -211.475990741627 4.50000000000046
  endloop
endfacet
facet normal -1.0 -4.6738293602486e-016 -8.2384944750463e-016
  outer loop
    vertex -79.8886877541207 -211.475990741627 4.33146851719357e-013
    vertex -79.8886877541207 -231.475990741627 -3.9999999999996
    vertex -79.8886877541207 -231.475990741627 4.02826572099002e-013
  endloop
endfacet
facet normal -1.0 -4.6738293602486e-016 -8.2384944750463e-016
  outer loop
    vertex -79.8886877541207 -231.475990741627 -3.9999999999996
    vertex -79.8886877541207 -211.475990741627 4.33146851719357e-013
    vertex -79.8886877541207 -186.675990741627 -3.99999999999969
  endloop
endfacet
facet normal -1.0 -4.6738293602486e-016 -8.2384944750463e-016
  outer loop
    vertex -79.8886877541207 -186.675990741627 -3.99999999999969
    vertex -79.8886877541207 -211.475990741627 4.33146851719357e-013
    vertex -79.8886877541207 -186.675990741627 4.50000000000046
  endloop
endfacet
facet normal -0.130526192220063 7.24604292809108e-014 0.991444861373809
  outer loop
    vertex -70.3192858548952 -187.475990741629 2.3749631821663
    vertex -70.8886877541207 -186.675990741626 2.30000000000219
    vertex -70.8886877541207 -187.475990741629 2.30000000000224
  endloop
endfacet
facet normal -0.130526192220063 7.24604292809108e-014 0.991444861373809
  outer loop
    vertex -70.8886877541207 -186.675990741626 2.30000000000219
    vertex -70.3192858548952 -187.475990741629 2.3749631821663
    vertex -70.3192858548952 -186.675990741626 2.37496318216624
  endloop
endfacet
facet normal -1.0 0.0 0.0
  outer loop
    vertex -64.3907227799283 -187.475990741631 4.50000000000046
    vertex -64.3907227799283 -196.475990741628 4.47746728559055
    vertex -64.3907227799283 -196.475990741628 4.50000000000046
  endloop
endfacet
facet normal -1.0 0.0 0.0
  outer loop
    vertex -64.3907227799283 -196.475990741628 4.47746728559055
    vertex -64.3907227799283 -187.475990741631 -0.999999999998392
    vertex -64.3907227799283 -196.475990741628 -0.999999999998392
  endloop
endfacet
facet normal -1.0 0.0 0.0
  outer loop
    vertex -64.3907227799283 -187.475990741631 -0.999999999998392
    vertex -64.3907227799283 -196.475990741628 4.47746728559055
    vertex -64.3907227799283 -187.475990741631 4.50000000000046
  endloop
endfacet
facet normal 0.38268343236509 6.66828903132006e-014 0.923879532511287
  outer loop
    vertex -71.4580896533462 -187.475990741628 2.3749631821663
    vertex -71.9886877541207 -186.675990741626 2.59474411167642
    vertex -71.9886877541207 -187.475990741628 2.59474411167648
  endloop
endfacet
facet normal 0.38268343236509 6.66828903132006e-014 0.923879532511287
  outer loop
    vertex -71.9886877541207 -186.675990741626 2.59474411167642
    vertex -71.4580896533462 -187.475990741628 2.3749631821663
    vertex -71.4580896533462 -186.675990741626 2.37496318216624
  endloop
endfacet
facet normal -0.9914448613738 9.42326016439896e-015 0.130526192220135
  outer loop
    vertex -68.6886877541207 -186.675990741626 4.50000000000218
    vertex -68.7636509362848 -187.475990741629 3.93059810077669
    vertex -68.6886877541207 -187.475990741629 4.50000000000224
  endloop
endfacet
facet normal -0.9914448613738 9.42326016439896e-015 0.130526192220135
  outer loop
    vertex -68.7636509362848 -187.475990741629 3.93059810077669
    vertex -68.6886877541207 -186.675990741626 4.50000000000218
    vertex -68.7636509362848 -186.675990741626 3.93059810077664
  endloop
endfacet
facet normal -1.02691991221463e-012 1.0 -6.58653320156388e-013
  outer loop
    vertex -77.39072277993 -196.475990741628 -0.999999999998392
    vertex -75.0552031871994 -196.475990741624 -0.334789826721486
    vertex -74.0399365904858 -196.475990741625 -1.0000000000001
  endloop
endfacet
facet normal -1.02691991221463e-012 1.0 -6.58653320156388e-013
  outer loop
    vertex -75.0552031871994 -196.475990741624 -0.334789826721486
    vertex -77.39072277993 -196.475990741628 -0.999999999998392
    vertex -75.8594455454068 -196.475990741624 0.429859291980625
  endloop
endfacet
facet normal -1.02691991221463e-012 1.0 -6.58653320156388e-013
  outer loop
    vertex -75.8594455454068 -196.475990741624 0.429859291980625
    vertex -77.39072277993 -196.475990741628 -0.999999999998392
    vertex -76.5136741753893 -196.475990741624 1.32622916272475
  endloop
endfacet
facet normal -1.02691991221463e-012 1.0 -6.58653320156388e-013
  outer loop
    vertex -76.5136741753893 -196.475990741624 1.32622916272475
    vertex -77.39072277993 -196.475990741628 -0.999999999998392
    vertex -76.9967164707606 -196.475990741624 2.3253108342364
  endloop
endfacet
facet normal -1.02691991221463e-012 1.0 -6.58653320156388e-013
  outer loop
    vertex -76.9967164707606 -196.475990741624 2.3253108342364
    vertex -77.39072277993 -196.475990741628 -0.999999999998392
    vertex -77.2929398775184 -196.475990741624 3.39477132380898
  endloop
endfacet
facet normal -1.02691991221463e-012 1.0 -6.58653320156388e-013
  outer loop
    vertex -77.2929398775184 -196.475990741624 3.39477132380898
    vertex -77.39072277993 -196.475990741628 -0.999999999998392
    vertex -77.39072277993 -196.475990741625 4.4774672855072
  endloop
endfacet
facet normal 0.90029499053514 -1.31611054232992e-018 0.435280289029188
  outer loop
    vertex -76.5136741753893 -196.475990741624 1.32622916272475
    vertex -76.9967164707606 -211.475990741625 2.3253108342364
    vertex -76.5136741753893 -211.475990741625 1.32622916272475
  endloop
endfacet
facet normal 0.90029499053514 -1.31611054232992e-018 0.435280289029188
  outer loop
    vertex -76.9967164707606 -211.475990741625 2.3253108342364
    vertex -76.5136741753893 -196.475990741624 1.32622916272475
    vertex -76.9967164707606 -196.475990741624 2.3253108342364
  endloop
endfacet
facet normal -0.807739074101204 -1.43533998283529e-018 0.589540149752441
  outer loop
    vertex -65.2677713844749 -196.475990741627 1.32622916272703
    vertex -65.9220000144571 -211.475990741628 0.42985929198245
    vertex -65.2677713844749 -211.475990741628 1.32622916272703
  endloop
endfacet
facet normal -0.807739074101204 -1.43533998283529e-018 0.589540149752441
  outer loop
    vertex -65.9220000144571 -211.475990741628 0.42985929198245
    vertex -65.2677713844749 -196.475990741627 1.32622916272703
    vertex -65.9220000144571 -196.475990741627 0.42985929198245
  endloop
endfacet
facet normal 2.99797511876394e-013 -1.0 1.84357820828378e-013
  outer loop
    vertex -75.8594455454068 -211.475990741626 0.429859291980625
    vertex -79.8886877541207 -211.475990741627 4.33146851719357e-013
    vertex -75.4073283033621 -211.475990741626 4.3098111746076e-013
  endloop
endfacet
facet normal 2.99797511876394e-013 -1.0 1.84357820828378e-013
  outer loop
    vertex -79.8886877541207 -211.475990741627 4.33146851719357e-013
    vertex -75.8594455454068 -211.475990741626 0.429859291980625
    vertex -79.8886877541207 -211.475990741627 4.50000000000046
  endloop
endfacet
facet normal 2.99797511876394e-013 -1.0 1.84357820828378e-013
  outer loop
    vertex -79.8886877541207 -211.475990741627 4.50000000000046
    vertex -75.8594455454068 -211.475990741626 0.429859291980625
    vertex -76.5136741753893 -211.475990741625 1.32622916272475
  endloop
endfacet
facet normal 2.99797511876394e-013 -1.0 1.84357820828378e-013
  outer loop
    vertex -79.8886877541207 -211.475990741627 4.50000000000046
    vertex -76.5136741753893 -211.475990741625 1.32622916272475
    vertex -76.9967164707606 -211.475990741625 2.3253108342364
  endloop
endfacet
facet normal 2.99797511876394e-013 -1.0 1.84357820828378e-013
  outer loop
    vertex -79.8886877541207 -211.475990741627 4.50000000000046
    vertex -76.9967164707606 -211.475990741625 2.3253108342364
    vertex -77.2929398775184 -211.475990741625 3.39477132380898
  endloop
endfacet
facet normal 2.99797511876394e-013 -1.0 1.84357820828378e-013
  outer loop
    vertex -79.8886877541207 -211.475990741627 4.50000000000046
    vertex -77.2929398775184 -211.475990741625 3.39477132380898
    vertex -77.3927578057361 -211.475990741625 4.49999999999923
  endloop
endfacet
facet normal 1.93834017898017e-013 1.0 -3.22074546958145e-014
  outer loop
    vertex -75.0552031871994 -211.475990741626 -0.334789826721486
    vertex -67.7415089693776 -211.475990741628 -0.999999999998926
    vertex -74.0399365904858 -211.475990741626 -1.0000000000001
  endloop
endfacet
facet normal 1.93834017898017e-013 1.0 -3.22074546958145e-014
  outer loop
    vertex -67.7415089693776 -211.475990741628 -0.999999999998926
    vertex -75.0552031871994 -211.475990741626 -0.334789826721486
    vertex -66.7262423726645 -211.475990741628 -0.334789826720071
  endloop
endfacet
facet normal 1.93834017898017e-013 1.0 -3.22074546958145e-014
  outer loop
    vertex -66.7262423726645 -211.475990741628 -0.334789826720071
    vertex -75.0552031871994 -211.475990741626 -0.334789826721486
    vertex -75.4073283033621 -211.475990741626 4.3098111746076e-013
  endloop
endfacet
facet normal 1.93834017898017e-013 1.0 -3.22074546958145e-014
  outer loop
    vertex -66.7262423726645 -211.475990741628 -0.334789826720071
    vertex -75.4073283033621 -211.475990741626 4.3098111746076e-013
    vertex -66.3741172565035 -211.475990741627 4.38200231656083e-013
  endloop
endfacet
facet normal 3.77300424106848e-013 -1.0 -2.02284729228221e-013
  outer loop
    vertex -61.8886877541207 -211.475990741627 4.36756408817018e-013
    vertex -65.9220000144571 -211.475990741628 0.42985929198245
    vertex -66.3741172565035 -211.475990741627 4.38200231656083e-013
  endloop
endfacet
facet normal 3.77300424106848e-013 -1.0 -2.02284729228221e-013
  outer loop
    vertex -65.9220000144571 -211.475990741628 0.42985929198245
    vertex -61.8886877541207 -211.475990741627 4.36756408817018e-013
    vertex -61.8886877541208 -211.475990741627 4.50000000000046
  endloop
endfacet
facet normal 3.77300424106848e-013 -1.0 -2.02284729228221e-013
  outer loop
    vertex -65.9220000144571 -211.475990741628 0.42985929198245
    vertex -61.8886877541208 -211.475990741627 4.50000000000046
    vertex -65.2677713844749 -211.475990741628 1.32622916272703
  endloop
endfacet
facet normal 3.77300424106848e-013 -1.0 -2.02284729228221e-013
  outer loop
    vertex -65.2677713844749 -211.475990741628 1.32622916272703
    vertex -61.8886877541208 -211.475990741627 4.50000000000046
    vertex -64.784729089104 -211.475990741628 2.32531083423883
  endloop
endfacet
facet normal 3.77300424106848e-013 -1.0 -2.02284729228221e-013
  outer loop
    vertex -64.784729089104 -211.475990741628 2.32531083423883
    vertex -61.8886877541208 -211.475990741627 4.50000000000046
    vertex -64.4885056823469 -211.475990741628 3.39477132381115
  endloop
endfacet
facet normal 3.77300424106848e-013 -1.0 -2.02284729228221e-013
  outer loop
    vertex -64.4885056823469 -211.475990741628 3.39477132381115
    vertex -61.8886877541208 -211.475990741627 4.50000000000046
    vertex -64.3886877541294 -211.475990741628 4.50000000000181
  endloop
endfacet
facet normal 0.0 -1.0 0.0
  outer loop
    vertex -61.8886877541207 -231.475990741627 -3.99999999999956
    vertex -79.8886877541207 -231.475990741627 4.02826572099002e-013
    vertex -79.8886877541207 -231.475990741627 -3.9999999999996
  endloop
endfacet
facet normal 0.0 -1.0 0.0
  outer loop
    vertex -79.8886877541207 -231.475990741627 4.02826572099002e-013
    vertex -61.8886877541207 -231.475990741627 -3.99999999999956
    vertex -61.8886877541207 -231.475990741627 4.36756408817018e-013
  endloop
endfacet
facet normal -1.58529596836941e-015 -7.53820083516631e-016 1.0
  outer loop
    vertex -79.8886877541207 -231.475990741627 4.02826572099002e-013
    vertex -75.4073283033621 -211.475990741626 4.3098111746076e-013
    vertex -79.8886877541207 -211.475990741627 4.33146851719357e-013
  endloop
endfacet
facet normal -1.58529596836941e-015 -7.53820083516631e-016 1.0
  outer loop
    vertex -75.4073283033621 -211.475990741626 4.3098111746076e-013
    vertex -79.8886877541207 -231.475990741627 4.02826572099002e-013
    vertex -61.8886877541207 -231.475990741627 4.36756408817018e-013
  endloop
endfacet
facet normal -1.58529596836941e-015 -7.53820083516631e-016 1.0
  outer loop
    vertex -75.4073283033621 -211.475990741626 4.3098111746076e-013
    vertex -61.8886877541207 -231.475990741627 4.36756408817018e-013
    vertex -66.3741172565035 -211.475990741627 4.38200231656083e-013
  endloop
endfacet
facet normal -1.58529596836941e-015 -7.53820083516631e-016 1.0
  outer loop
    vertex -66.3741172565035 -211.475990741627 4.38200231656083e-013
    vertex -61.8886877541207 -231.475990741627 4.36756408817018e-013
    vertex -61.8886877541207 -211.475990741627 4.36756408817018e-013
  endloop
endfacet
facet normal 1.74682525147327e-013 1.0 -7.48580460626202e-014
  outer loop
    vertex -71.4580896533462 -186.675990741626 2.37496318216624
    vertex -70.3192858548952 -186.675990741626 2.37496318216624
    vertex -70.8886877541207 -186.675990741626 2.30000000000219
  endloop
endfacet
facet normal 1.74682525147327e-013 1.0 -7.48580460626202e-014
  outer loop
    vertex -70.3192858548952 -186.675990741626 2.37496318216624
    vertex -71.4580896533462 -186.675990741626 2.37496318216624
    vertex -71.9886877541207 -186.675990741626 2.59474411167642
  endloop
endfacet
facet normal 1.74682525147327e-013 1.0 -7.48580460626202e-014
  outer loop
    vertex -70.3192858548952 -186.675990741626 2.37496318216624
    vertex -71.9886877541207 -186.675990741626 2.59474411167642
    vertex -69.7886877541208 -186.675990741626 2.59474411167642
  endloop
endfacet
facet normal 1.74682525147327e-013 1.0 -7.48580460626202e-014
  outer loop
    vertex -69.7886877541208 -186.675990741626 2.59474411167642
    vertex -71.9886877541207 -186.675990741626 2.59474411167642
    vertex -69.3330528355103 -186.675990741626 2.94436508139178
  endloop
endfacet
facet normal 1.74682525147327e-013 1.0 -7.48580460626202e-014
  outer loop
    vertex -69.3330528355103 -186.675990741626 2.94436508139178
    vertex -71.9886877541207 -186.675990741626 2.59474411167642
    vertex -72.4443226727311 -186.675990741625 2.94436508139178
  endloop
endfacet
facet normal 1.74682525147327e-013 1.0 -7.48580460626202e-014
  outer loop
    vertex -69.3330528355103 -186.675990741626 2.94436508139178
    vertex -72.4443226727311 -186.675990741625 2.94436508139178
    vertex -72.7939436424465 -186.675990741625 3.40000000000218
  endloop
endfacet
facet normal 1.74682525147327e-013 1.0 -7.48580460626202e-014
  outer loop
    vertex -69.3330528355103 -186.675990741626 2.94436508139178
    vertex -72.7939436424465 -186.675990741625 3.40000000000218
    vertex -68.983431865795 -186.675990741626 3.40000000000218
  endloop
endfacet
facet normal 1.74682525147327e-013 1.0 -7.48580460626202e-014
  outer loop
    vertex -68.983431865795 -186.675990741626 3.40000000000218
    vertex -72.7939436424465 -186.675990741625 3.40000000000218
    vertex -73.0137245719566 -186.675990741625 3.93059810077664
  endloop
endfacet
facet normal 1.74682525147327e-013 1.0 -7.48580460626202e-014
  outer loop
    vertex -68.983431865795 -186.675990741626 3.40000000000218
    vertex -73.0137245719566 -186.675990741625 3.93059810077664
    vertex -68.7636509362848 -186.675990741626 3.93059810077664
  endloop
endfacet
facet normal 1.74682525147327e-013 1.0 -7.48580460626202e-014
  outer loop
    vertex -68.7636509362848 -186.675990741626 3.93059810077664
    vertex -73.0137245719566 -186.675990741625 3.93059810077664
    vertex -68.6886877541207 -186.675990741626 4.50000000000218
  endloop
endfacet
facet normal 1.74682525147327e-013 1.0 -7.48580460626202e-014
  outer loop
    vertex -68.6886877541207 -186.675990741626 4.50000000000218
    vertex -73.0137245719566 -186.675990741625 3.93059810077664
    vertex -73.0886877541207 -186.675990741625 4.50000000000218
  endloop
endfacet
facet normal 1.74682525147327e-013 1.0 -7.48580460626202e-014
  outer loop
    vertex -68.6886877541207 -186.675990741626 4.50000000000218
    vertex -73.0886877541207 -186.675990741625 4.50000000000218
    vertex -70.8886877541207 -186.675990741626 4.50000000000218
  endloop
endfacet
endsolid Omnidroid
