solid Omnidroid
facet normal -2.36304354696491e-015 -2.91286000657332e-015 -1.0
  outer loop
    vertex -106.823799131013 -276.646361610122 3.59999999999383
    vertex -107.279703905501 -281.475990741568 3.59999999999385
    vertex -108.0297039055 -277.145863722645 3.59999999999384
  endloop
endfacet
facet normal -2.36304354696491e-015 -2.91286000657332e-015 -1.0
  outer loop
    vertex -107.279703905501 -281.475990741568 3.59999999999385
    vertex -106.823799131013 -276.646361610122 3.59999999999383
    vertex -107.220074101507 -281.023057412638 3.59999999999385
  endloop
endfacet
facet normal -2.36304354696491e-015 -2.91286000657332e-015 -1.0
  outer loop
    vertex -107.220074101507 -281.023057412638 3.59999999999385
    vertex -106.823799131013 -276.646361610122 3.59999999999383
    vertex -107.045248362124 -280.600990741568 3.59999999999385
  endloop
endfacet
facet normal -2.36304354696491e-015 -2.91286000657332e-015 -1.0
  outer loop
    vertex -107.045248362124 -280.600990741568 3.59999999999385
    vertex -106.823799131013 -276.646361610122 3.59999999999383
    vertex -106.767140772577 -280.238553874491 3.59999999999385
  endloop
endfacet
facet normal -2.36304354696491e-015 -2.91286000657332e-015 -1.0
  outer loop
    vertex -106.767140772577 -280.238553874491 3.59999999999385
    vertex -106.823799131013 -276.646361610122 3.59999999999383
    vertex -105.5297039055 -276.475990741568 3.59999999999383
  endloop
endfacet
facet normal -2.36304354696491e-015 -2.91286000657332e-015 -1.0
  outer loop
    vertex -106.767140772577 -280.238553874491 3.59999999999385
    vertex -105.5297039055 -276.475990741568 3.59999999999383
    vertex -106.404703905501 -279.960446284945 3.59999999999385
  endloop
endfacet
facet normal -2.36304354696491e-015 -2.91286000657332e-015 -1.0
  outer loop
    vertex -106.404703905501 -279.960446284945 3.59999999999385
    vertex -105.5297039055 -276.475990741568 3.59999999999383
    vertex -105.98263723443 -279.785620545562 3.59999999999385
  endloop
endfacet
facet normal -2.36304354696491e-015 -2.91286000657332e-015 -1.0
  outer loop
    vertex -105.98263723443 -279.785620545562 3.59999999999385
    vertex -105.5297039055 -276.475990741568 3.59999999999383
    vertex -105.529703905501 -279.725990741568 3.59999999999382
  endloop
endfacet
facet normal -2.36304354696491e-015 -2.91286000657332e-015 -1.0
  outer loop
    vertex -105.529703905501 -279.725990741568 3.59999999999382
    vertex -105.5297039055 -276.475990741568 3.59999999999383
    vertex -105.076770576571 -279.785620545562 3.59999999999385
  endloop
endfacet
facet normal -2.36304354696491e-015 -2.91286000657332e-015 -1.0
  outer loop
    vertex -105.076770576571 -279.785620545562 3.59999999999385
    vertex -105.5297039055 -276.475990741568 3.59999999999383
    vertex -104.235608679988 -276.646361610123 3.59999999999383
  endloop
endfacet
facet normal -2.36304354696491e-015 -2.91286000657332e-015 -1.0
  outer loop
    vertex -105.076770576571 -279.785620545562 3.59999999999385
    vertex -104.235608679988 -276.646361610123 3.59999999999383
    vertex -104.654703905501 -279.960446284945 3.59999999999385
  endloop
endfacet
facet normal -2.36304354696491e-015 -2.91286000657332e-015 -1.0
  outer loop
    vertex -104.654703905501 -279.960446284945 3.59999999999385
    vertex -104.235608679988 -276.646361610123 3.59999999999383
    vertex -104.292267038424 -280.238553874492 3.59999999999385
  endloop
endfacet
facet normal -2.36304354696491e-015 -2.91286000657332e-015 -1.0
  outer loop
    vertex -104.292267038424 -280.238553874492 3.59999999999385
    vertex -104.235608679988 -276.646361610123 3.59999999999383
    vertex -104.014159448878 -280.600990741568 3.59999999999385
  endloop
endfacet
facet normal -2.36304354696491e-015 -2.91286000657332e-015 -1.0
  outer loop
    vertex -104.014159448878 -280.600990741568 3.59999999999385
    vertex -104.235608679988 -276.646361610123 3.59999999999383
    vertex -103.0297039055 -277.145863722646 3.59999999999383
  endloop
endfacet
facet normal -2.36304354696491e-015 -2.91286000657332e-015 -1.0
  outer loop
    vertex -104.014159448878 -280.600990741568 3.59999999999385
    vertex -103.0297039055 -277.145863722646 3.59999999999383
    vertex -103.839333709495 -281.023057412639 3.59999999999385
  endloop
endfacet
facet normal -2.36304354696491e-015 -2.91286000657332e-015 -1.0
  outer loop
    vertex -103.839333709495 -281.023057412639 3.59999999999385
    vertex -103.0297039055 -277.145863722646 3.59999999999383
    vertex -103.779703905501 -281.475990741568 3.59999999999385
  endloop
endfacet
facet normal -2.36304354696491e-015 -2.91286000657332e-015 -1.0
  outer loop
    vertex -103.779703905501 -281.475990741568 3.59999999999385
    vertex -103.0297039055 -277.145863722646 3.59999999999383
    vertex -103.029703905502 -285.806117760491 3.59999999999385
  endloop
endfacet
facet normal -2.36304354696491e-015 -2.91286000657332e-015 -1.0
  outer loop
    vertex -103.029703905502 -285.806117760491 3.59999999999385
    vertex -103.0297039055 -277.145863722646 3.59999999999383
    vertex -101.994169999569 -285.011524647501 3.59999999999385
  endloop
endfacet
facet normal -2.36304354696491e-015 -2.91286000657332e-015 -1.0
  outer loop
    vertex -101.994169999569 -285.011524647501 3.59999999999385
    vertex -103.0297039055 -277.145863722646 3.59999999999383
    vertex -101.994169999568 -277.940456835636 3.59999999999382
  endloop
endfacet
facet normal -2.36304354696491e-015 -2.91286000657332e-015 -1.0
  outer loop
    vertex -101.994169999569 -285.011524647501 3.59999999999385
    vertex -101.994169999568 -277.940456835636 3.59999999999382
    vertex -101.199576886579 -283.975990741569 3.59999999999384
  endloop
endfacet
facet normal -2.36304354696491e-015 -2.91286000657332e-015 -1.0
  outer loop
    vertex -101.199576886579 -283.975990741569 3.59999999999384
    vertex -101.994169999568 -277.940456835636 3.59999999999382
    vertex -101.199576886578 -278.975990741569 3.59999999999383
  endloop
endfacet
facet normal -2.36304354696491e-015 -2.91286000657332e-015 -1.0
  outer loop
    vertex -101.199576886579 -283.975990741569 3.59999999999384
    vertex -101.199576886578 -278.975990741569 3.59999999999383
    vertex -100.700074774056 -282.770085967081 3.59999999999384
  endloop
endfacet
facet normal -2.36304354696491e-015 -2.91286000657332e-015 -1.0
  outer loop
    vertex -100.700074774056 -282.770085967081 3.59999999999384
    vertex -101.199576886578 -278.975990741569 3.59999999999383
    vertex -100.700074774055 -280.181895516056 3.59999999999383
  endloop
endfacet
facet normal -2.36304354696491e-015 -2.91286000657332e-015 -1.0
  outer loop
    vertex -100.700074774056 -282.770085967081 3.59999999999384
    vertex -100.700074774055 -280.181895516056 3.59999999999383
    vertex -100.529703905501 -281.475990741569 3.59999999999383
  endloop
endfacet
facet normal -2.36304354696491e-015 -2.91286000657332e-015 -1.0
  outer loop
    vertex -110.359333036946 -280.181895516055 3.59999999999385
    vertex -110.359333036947 -282.77008596708 3.59999999999386
    vertex -110.529703905501 -281.475990741567 3.59999999999386
  endloop
endfacet
facet normal -2.36304354696491e-015 -2.91286000657332e-015 -1.0
  outer loop
    vertex -110.359333036947 -282.77008596708 3.59999999999386
    vertex -110.359333036946 -280.181895516055 3.59999999999385
    vertex -109.859830924424 -283.975990741567 3.59999999999386
  endloop
endfacet
facet normal -2.36304354696491e-015 -2.91286000657332e-015 -1.0
  outer loop
    vertex -109.859830924424 -283.975990741567 3.59999999999386
    vertex -110.359333036946 -280.181895516055 3.59999999999385
    vertex -109.859830924423 -278.975990741567 3.59999999999385
  endloop
endfacet
facet normal -2.36304354696491e-015 -2.91286000657332e-015 -1.0
  outer loop
    vertex -109.859830924424 -283.975990741567 3.59999999999386
    vertex -109.859830924423 -278.975990741567 3.59999999999385
    vertex -109.065237811434 -285.0115246475 3.59999999999387
  endloop
endfacet
facet normal -2.36304354696491e-015 -2.91286000657332e-015 -1.0
  outer loop
    vertex -109.065237811434 -285.0115246475 3.59999999999387
    vertex -109.859830924423 -278.975990741567 3.59999999999385
    vertex -109.065237811433 -277.940456835635 3.59999999999384
  endloop
endfacet
facet normal -2.36304354696491e-015 -2.91286000657332e-015 -1.0
  outer loop
    vertex -109.065237811434 -285.0115246475 3.59999999999387
    vertex -109.065237811433 -277.940456835635 3.59999999999384
    vertex -108.029703905502 -285.80611776049 3.59999999999386
  endloop
endfacet
facet normal -2.36304354696491e-015 -2.91286000657332e-015 -1.0
  outer loop
    vertex -108.029703905502 -285.80611776049 3.59999999999386
    vertex -109.065237811433 -277.940456835635 3.59999999999384
    vertex -108.0297039055 -277.145863722645 3.59999999999384
  endloop
endfacet
facet normal -2.36304354696491e-015 -2.91286000657332e-015 -1.0
  outer loop
    vertex -108.029703905502 -285.80611776049 3.59999999999386
    vertex -108.0297039055 -277.145863722645 3.59999999999384
    vertex -106.823799131014 -286.305619873013 3.59999999999386
  endloop
endfacet
facet normal -2.36304354696491e-015 -2.91286000657332e-015 -1.0
  outer loop
    vertex -106.823799131014 -286.305619873013 3.59999999999386
    vertex -108.0297039055 -277.145863722645 3.59999999999384
    vertex -107.279703905501 -281.475990741568 3.59999999999385
  endloop
endfacet
facet normal -2.36304354696491e-015 -2.91286000657332e-015 -1.0
  outer loop
    vertex -106.823799131014 -286.305619873013 3.59999999999386
    vertex -107.279703905501 -281.475990741568 3.59999999999385
    vertex -107.220074101507 -281.928924070497 3.59999999999385
  endloop
endfacet
facet normal -2.36304354696491e-015 -2.91286000657332e-015 -1.0
  outer loop
    vertex -106.823799131014 -286.305619873013 3.59999999999386
    vertex -107.220074101507 -281.928924070497 3.59999999999385
    vertex -107.045248362124 -282.350990741568 3.59999999999385
  endloop
endfacet
facet normal -2.36304354696491e-015 -2.91286000657332e-015 -1.0
  outer loop
    vertex -106.823799131014 -286.305619873013 3.59999999999386
    vertex -107.045248362124 -282.350990741568 3.59999999999385
    vertex -106.767140772578 -282.713427608644 3.59999999999385
  endloop
endfacet
facet normal -2.36304354696491e-015 -2.91286000657332e-015 -1.0
  outer loop
    vertex -106.823799131014 -286.305619873013 3.59999999999386
    vertex -106.767140772578 -282.713427608644 3.59999999999385
    vertex -105.529703905502 -286.475990741568 3.59999999999386
  endloop
endfacet
facet normal -2.36304354696491e-015 -2.91286000657332e-015 -1.0
  outer loop
    vertex -105.529703905502 -286.475990741568 3.59999999999386
    vertex -106.767140772578 -282.713427608644 3.59999999999385
    vertex -106.404703905501 -282.991535198191 3.59999999999385
  endloop
endfacet
facet normal -2.36304354696491e-015 -2.91286000657332e-015 -1.0
  outer loop
    vertex -105.529703905502 -286.475990741568 3.59999999999386
    vertex -106.404703905501 -282.991535198191 3.59999999999385
    vertex -105.982637234431 -283.166360937574 3.59999999999385
  endloop
endfacet
facet normal -2.36304354696491e-015 -2.91286000657332e-015 -1.0
  outer loop
    vertex -105.529703905502 -286.475990741568 3.59999999999386
    vertex -105.982637234431 -283.166360937574 3.59999999999385
    vertex -105.529703905501 -283.225990741568 3.59999999999386
  endloop
endfacet
facet normal -2.36304354696491e-015 -2.91286000657332e-015 -1.0
  outer loop
    vertex -105.529703905502 -286.475990741568 3.59999999999386
    vertex -105.529703905501 -283.225990741568 3.59999999999386
    vertex -104.235608679989 -286.305619873013 3.59999999999386
  endloop
endfacet
facet normal -2.36304354696491e-015 -2.91286000657332e-015 -1.0
  outer loop
    vertex -104.235608679989 -286.305619873013 3.59999999999386
    vertex -105.529703905501 -283.225990741568 3.59999999999386
    vertex -105.076770576572 -283.166360937574 3.59999999999385
  endloop
endfacet
facet normal -2.36304354696491e-015 -2.91286000657332e-015 -1.0
  outer loop
    vertex -104.235608679989 -286.305619873013 3.59999999999386
    vertex -105.076770576572 -283.166360937574 3.59999999999385
    vertex -104.654703905501 -282.991535198191 3.59999999999385
  endloop
endfacet
facet normal -2.36304354696491e-015 -2.91286000657332e-015 -1.0
  outer loop
    vertex -104.235608679989 -286.305619873013 3.59999999999386
    vertex -104.654703905501 -282.991535198191 3.59999999999385
    vertex -104.292267038425 -282.713427608645 3.59999999999385
  endloop
endfacet
facet normal -2.36304354696491e-015 -2.91286000657332e-015 -1.0
  outer loop
    vertex -104.235608679989 -286.305619873013 3.59999999999386
    vertex -104.292267038425 -282.713427608645 3.59999999999385
    vertex -104.014159448878 -282.350990741568 3.59999999999385
  endloop
endfacet
facet normal -2.36304354696491e-015 -2.91286000657332e-015 -1.0
  outer loop
    vertex -104.235608679989 -286.305619873013 3.59999999999386
    vertex -104.014159448878 -282.350990741568 3.59999999999385
    vertex -103.029703905502 -285.806117760491 3.59999999999385
  endloop
endfacet
facet normal -2.36304354696491e-015 -2.91286000657332e-015 -1.0
  outer loop
    vertex -103.029703905502 -285.806117760491 3.59999999999385
    vertex -104.014159448878 -282.350990741568 3.59999999999385
    vertex -103.839333709495 -281.928924070498 3.59999999999385
  endloop
endfacet
facet normal -2.36304354696491e-015 -2.91286000657332e-015 -1.0
  outer loop
    vertex -103.029703905502 -285.806117760491 3.59999999999385
    vertex -103.839333709495 -281.928924070498 3.59999999999385
    vertex -103.779703905501 -281.475990741568 3.59999999999385
  endloop
endfacet
facet normal -0.382683432365197 -0.923879532511242 3.59542935652461e-015
  outer loop
    vertex -106.823799131014 -286.305619873013 12.9999999999943
    vertex -108.029703905502 -285.80611776049 3.59999999999386
    vertex -106.823799131014 -286.305619873013 3.59999999999386
  endloop
endfacet
facet normal -0.382683432365197 -0.923879532511242 3.59542935652461e-015
  outer loop
    vertex -108.029703905502 -285.80611776049 3.59999999999386
    vertex -106.823799131014 -286.305619873013 12.9999999999943
    vertex -108.029703905502 -285.80611776049 12.9999999999943
  endloop
endfacet
facet normal -0.130526192220047 -0.991444861373811 3.19637916165388e-015
  outer loop
    vertex -105.076770576571 -279.785620545562 3.59999999999385
    vertex -105.529703905501 -279.725990741568 12.9999999999942
    vertex -105.529703905501 -279.725990741568 3.59999999999382
  endloop
endfacet
facet normal -0.130526192220047 -0.991444861373811 3.19637916165388e-015
  outer loop
    vertex -105.529703905501 -279.725990741568 12.9999999999942
    vertex -105.076770576571 -279.785620545562 3.59999999999385
    vertex -105.076770576571 -279.785620545562 12.9999999999943
  endloop
endfacet
facet normal -0.382683432364978 0.923879532511333 -1.78683412576347e-015
  outer loop
    vertex -108.0297039055 -277.145863722645 3.59999999999384
    vertex -106.823799131013 -276.646361610122 12.9999999999942
    vertex -106.823799131013 -276.646361610122 3.59999999999383
  endloop
endfacet
facet normal -0.382683432364978 0.923879532511333 -1.78683412576347e-015
  outer loop
    vertex -106.823799131013 -276.646361610122 12.9999999999942
    vertex -108.0297039055 -277.145863722645 3.59999999999384
    vertex -108.0297039055 -277.145863722645 12.9999999999943
  endloop
endfacet
facet normal 0.991444861373792 -0.13052619222019 -1.96262285671237e-015
  outer loop
    vertex -100.529703905501 -281.475990741569 3.59999999999383
    vertex -100.700074774056 -282.770085967081 12.9999999999942
    vertex -100.700074774056 -282.770085967081 3.59999999999384
  endloop
endfacet
facet normal 0.991444861373792 -0.13052619222019 -1.96262285671237e-015
  outer loop
    vertex -100.700074774056 -282.770085967081 12.9999999999942
    vertex -100.529703905501 -281.475990741569 3.59999999999383
    vertex -100.529703905501 -281.475990741569 12.9999999999942
  endloop
endfacet
facet normal 0.923879532511337 0.382683432364969 -3.297870832788e-015
  outer loop
    vertex -101.199576886578 -278.975990741569 3.59999999999383
    vertex -100.700074774055 -280.181895516056 12.9999999999942
    vertex -100.700074774055 -280.181895516056 3.59999999999383
  endloop
endfacet
facet normal 0.923879532511337 0.382683432364969 -3.297870832788e-015
  outer loop
    vertex -100.700074774055 -280.181895516056 12.9999999999942
    vertex -101.199576886578 -278.975990741569 3.59999999999383
    vertex -101.199576886578 -278.975990741569 12.9999999999942
  endloop
endfacet
facet normal -0.130526192219913 0.991444861373829 -2.57950100918328e-015
  outer loop
    vertex -106.823799131013 -276.646361610122 3.59999999999383
    vertex -105.5297039055 -276.475990741568 12.9999999999942
    vertex -105.5297039055 -276.475990741568 3.59999999999383
  endloop
endfacet
facet normal -0.130526192219913 0.991444861373829 -2.57950100918328e-015
  outer loop
    vertex -105.5297039055 -276.475990741568 12.9999999999942
    vertex -106.823799131013 -276.646361610122 3.59999999999383
    vertex -106.823799131013 -276.646361610122 12.9999999999942
  endloop
endfacet
facet normal -0.382683432365208 -0.923879532511238 3.59542935652463e-015
  outer loop
    vertex -104.654703905501 -279.960446284945 12.9999999999943
    vertex -105.076770576571 -279.785620545562 3.59999999999385
    vertex -104.654703905501 -279.960446284945 3.59999999999385
  endloop
endfacet
facet normal -0.382683432365208 -0.923879532511238 3.59542935652463e-015
  outer loop
    vertex -105.076770576571 -279.785620545562 3.59999999999385
    vertex -104.654703905501 -279.960446284945 12.9999999999943
    vertex -105.076770576571 -279.785620545562 12.9999999999943
  endloop
endfacet
facet normal -0.793353340291311 -0.608761429008621 3.64796531134208e-015
  outer loop
    vertex -104.014159448878 -280.600990741568 12.9999999999943
    vertex -104.292267038424 -280.238553874492 3.59999999999385
    vertex -104.014159448878 -280.600990741568 3.59999999999385
  endloop
endfacet
facet normal -0.793353340291311 -0.608761429008621 3.64796531134208e-015
  outer loop
    vertex -104.292267038424 -280.238553874492 3.59999999999385
    vertex -104.014159448878 -280.600990741568 12.9999999999943
    vertex -104.292267038424 -280.238553874492 12.9999999999943
  endloop
endfacet
facet normal 0.382683432364978 -0.923879532511333 1.78683412576347e-015
  outer loop
    vertex -103.029703905502 -285.80611776049 12.9999999999943
    vertex -104.235608679989 -286.305619873013 3.59999999999386
    vertex -103.029703905502 -285.806117760491 3.59999999999385
  endloop
endfacet
facet normal 0.382683432364978 -0.923879532511333 1.78683412576347e-015
  outer loop
    vertex -104.235608679989 -286.305619873013 3.59999999999386
    vertex -103.029703905502 -285.80611776049 12.9999999999943
    vertex -104.235608679989 -286.305619873013 12.9999999999943
  endloop
endfacet
facet normal 0.130526192220196 0.991444861373792 -3.19637916165418e-015
  outer loop
    vertex -105.5297039055 -276.475990741568 3.59999999999383
    vertex -104.235608679988 -276.646361610123 12.9999999999942
    vertex -104.235608679988 -276.646361610123 3.59999999999383
  endloop
endfacet
facet normal 0.130526192220196 0.991444861373792 -3.19637916165418e-015
  outer loop
    vertex -104.235608679988 -276.646361610123 12.9999999999942
    vertex -105.5297039055 -276.475990741568 3.59999999999383
    vertex -105.5297039055 -276.475990741568 12.9999999999942
  endloop
endfacet
facet normal -0.608761429008601 0.793353340291327 -8.72397449556042e-016
  outer loop
    vertex -109.065237811433 -277.940456835635 3.59999999999384
    vertex -108.0297039055 -277.145863722645 12.9999999999943
    vertex -108.0297039055 -277.145863722645 3.59999999999384
  endloop
endfacet
facet normal -0.608761429008601 0.793353340291327 -8.72397449556042e-016
  outer loop
    vertex -108.0297039055 -277.145863722645 12.9999999999943
    vertex -109.065237811433 -277.940456835635 3.59999999999384
    vertex -109.065237811433 -277.940456835635 12.9999999999943
  endloop
endfacet
facet normal 0.382683432365197 0.923879532511242 -3.59542935652461e-015
  outer loop
    vertex -104.235608679988 -276.646361610123 12.9999999999942
    vertex -103.0297039055 -277.145863722646 3.59999999999383
    vertex -104.235608679988 -276.646361610123 3.59999999999383
  endloop
endfacet
facet normal 0.382683432365197 0.923879532511242 -3.59542935652461e-015
  outer loop
    vertex -103.0297039055 -277.145863722646 3.59999999999383
    vertex -104.235608679988 -276.646361610123 12.9999999999942
    vertex -103.0297039055 -277.145863722646 12.9999999999942
  endloop
endfacet
facet normal -0.991444861373793 0.130526192220181 1.9626228567124e-015
  outer loop
    vertex -110.529703905501 -281.475990741567 12.9999999999943
    vertex -110.359333036946 -280.181895516055 3.59999999999385
    vertex -110.529703905501 -281.475990741567 3.59999999999386
  endloop
endfacet
facet normal -0.991444861373793 0.130526192220181 1.9626228567124e-015
  outer loop
    vertex -110.359333036946 -280.181895516055 3.59999999999385
    vertex -110.529703905501 -281.475990741567 12.9999999999943
    vertex -110.359333036946 -280.181895516055 12.9999999999943
  endloop
endfacet
facet normal -0.991444861373829 -0.130526192219911 2.72303190696863e-015
  outer loop
    vertex -110.359333036947 -282.77008596708 12.9999999999943
    vertex -110.529703905501 -281.475990741567 3.59999999999386
    vertex -110.359333036947 -282.77008596708 3.59999999999386
  endloop
endfacet
facet normal -0.991444861373829 -0.130526192219911 2.72303190696863e-015
  outer loop
    vertex -110.529703905501 -281.475990741567 3.59999999999386
    vertex -110.359333036947 -282.77008596708 12.9999999999943
    vertex -110.529703905501 -281.475990741567 12.9999999999943
  endloop
endfacet
facet normal 0.793353340291321 0.60876142900861 -3.64796531134207e-015
  outer loop
    vertex -101.994169999568 -277.940456835636 3.59999999999382
    vertex -101.199576886578 -278.975990741569 12.9999999999942
    vertex -101.199576886578 -278.975990741569 3.59999999999383
  endloop
endfacet
facet normal 0.793353340291321 0.60876142900861 -3.64796531134207e-015
  outer loop
    vertex -101.199576886578 -278.975990741569 12.9999999999942
    vertex -101.994169999568 -277.940456835636 3.59999999999382
    vertex -101.994169999568 -277.940456835636 12.9999999999942
  endloop
endfacet
facet normal -0.923879532511337 -0.382683432364969 3.297870832788e-015
  outer loop
    vertex -109.859830924424 -283.975990741567 12.9999999999943
    vertex -110.359333036947 -282.77008596708 3.59999999999386
    vertex -109.859830924424 -283.975990741567 3.59999999999386
  endloop
endfacet
facet normal -0.923879532511337 -0.382683432364969 3.297870832788e-015
  outer loop
    vertex -110.359333036947 -282.77008596708 3.59999999999386
    vertex -109.859830924424 -283.975990741567 12.9999999999943
    vertex -110.359333036947 -282.77008596708 12.9999999999943
  endloop
endfacet
facet normal -0.793353340291316 -0.608761429008615 3.64796531134207e-015
  outer loop
    vertex -109.065237811434 -285.0115246475 12.9999999999943
    vertex -109.859830924424 -283.975990741567 3.59999999999386
    vertex -109.065237811434 -285.0115246475 3.59999999999387
  endloop
endfacet
facet normal -0.793353340291316 -0.608761429008615 3.64796531134207e-015
  outer loop
    vertex -109.859830924424 -283.975990741567 3.59999999999386
    vertex -109.065237811434 -285.0115246475 12.9999999999943
    vertex -109.859830924424 -283.975990741567 12.9999999999943
  endloop
endfacet
facet normal -0.608761429008834 -0.793353340291148 3.7494569824759e-015
  outer loop
    vertex -108.029703905502 -285.80611776049 12.9999999999943
    vertex -109.065237811434 -285.0115246475 3.59999999999387
    vertex -108.029703905502 -285.80611776049 3.59999999999386
  endloop
endfacet
facet normal -0.608761429008834 -0.793353340291148 3.7494569824759e-015
  outer loop
    vertex -109.065237811434 -285.0115246475 3.59999999999387
    vertex -108.029703905502 -285.80611776049 12.9999999999943
    vertex -109.065237811434 -285.0115246475 12.9999999999943
  endloop
endfacet
facet normal -0.130526192220196 -0.991444861373792 3.19637916165418e-015
  outer loop
    vertex -105.529703905502 -286.475990741568 12.9999999999943
    vertex -106.823799131014 -286.305619873013 3.59999999999386
    vertex -105.529703905502 -286.475990741568 3.59999999999386
  endloop
endfacet
facet normal -0.130526192220196 -0.991444861373792 3.19637916165418e-015
  outer loop
    vertex -106.823799131014 -286.305619873013 3.59999999999386
    vertex -105.529703905502 -286.475990741568 12.9999999999943
    vertex -106.823799131014 -286.305619873013 12.9999999999943
  endloop
endfacet
facet normal 0.991444861373828 0.13052619221992 -2.72303190696865e-015
  outer loop
    vertex -100.700074774055 -280.181895516056 3.59999999999383
    vertex -100.529703905501 -281.475990741569 12.9999999999942
    vertex -100.529703905501 -281.475990741569 3.59999999999383
  endloop
endfacet
facet normal 0.991444861373828 0.13052619221992 -2.72303190696865e-015
  outer loop
    vertex -100.529703905501 -281.475990741569 12.9999999999942
    vertex -100.700074774055 -280.181895516056 3.59999999999383
    vertex -100.700074774055 -280.181895516056 12.9999999999942
  endloop
endfacet
facet normal -0.923879532511233 0.382683432365221 1.06846430215877e-015
  outer loop
    vertex -110.359333036946 -280.181895516055 12.9999999999943
    vertex -109.859830924423 -278.975990741567 3.59999999999385
    vertex -110.359333036946 -280.181895516055 3.59999999999385
  endloop
endfacet
facet normal -0.923879532511233 0.382683432365221 1.06846430215877e-015
  outer loop
    vertex -109.859830924423 -278.975990741567 3.59999999999385
    vertex -110.359333036946 -280.181895516055 12.9999999999943
    vertex -109.859830924423 -278.975990741567 12.9999999999943
  endloop
endfacet
facet normal 0.608761429008601 -0.793353340291327 8.72397449556042e-016
  outer loop
    vertex -101.994169999569 -285.011524647501 12.9999999999943
    vertex -103.029703905502 -285.806117760491 3.59999999999385
    vertex -101.994169999569 -285.011524647501 3.59999999999385
  endloop
endfacet
facet normal 0.608761429008601 -0.793353340291327 8.72397449556042e-016
  outer loop
    vertex -103.029703905502 -285.806117760491 3.59999999999385
    vertex -101.994169999569 -285.011524647501 12.9999999999943
    vertex -103.029703905502 -285.80611776049 12.9999999999943
  endloop
endfacet
facet normal 0.793353340291152 -0.608761429008829 -1.0149167113383e-016
  outer loop
    vertex -101.199576886579 -283.975990741569 3.59999999999384
    vertex -101.994169999569 -285.011524647501 12.9999999999943
    vertex -101.994169999569 -285.011524647501 3.59999999999385
  endloop
endfacet
facet normal 0.793353340291152 -0.608761429008829 -1.0149167113383e-016
  outer loop
    vertex -101.994169999569 -285.011524647501 12.9999999999943
    vertex -101.199576886579 -283.975990741569 3.59999999999384
    vertex -101.199576886579 -283.975990741569 12.9999999999943
  endloop
endfacet
facet normal 0.923879532511239 -0.382683432365206 -1.06846430215883e-015
  outer loop
    vertex -100.700074774056 -282.770085967081 3.59999999999384
    vertex -101.199576886579 -283.975990741569 12.9999999999943
    vertex -101.199576886579 -283.975990741569 3.59999999999384
  endloop
endfacet
facet normal 0.923879532511239 -0.382683432365206 -1.06846430215883e-015
  outer loop
    vertex -101.199576886579 -283.975990741569 12.9999999999943
    vertex -100.700074774056 -282.770085967081 3.59999999999384
    vertex -100.700074774056 -282.770085967081 12.9999999999942
  endloop
endfacet
facet normal -0.608761429008854 -0.793353340291133 3.7494569824759e-015
  outer loop
    vertex -104.292267038424 -280.238553874492 12.9999999999943
    vertex -104.654703905501 -279.960446284945 3.59999999999385
    vertex -104.292267038424 -280.238553874492 3.59999999999385
  endloop
endfacet
facet normal -0.608761429008854 -0.793353340291133 3.7494569824759e-015
  outer loop
    vertex -104.654703905501 -279.960446284945 3.59999999999385
    vertex -104.292267038424 -280.238553874492 12.9999999999943
    vertex -104.654703905501 -279.960446284945 12.9999999999943
  endloop
endfacet
facet normal -0.923879532511326 -0.382683432364996 3.29787083278805e-015
  outer loop
    vertex -103.839333709495 -281.023057412639 12.9999999999943
    vertex -104.014159448878 -280.600990741568 3.59999999999385
    vertex -103.839333709495 -281.023057412639 3.59999999999385
  endloop
endfacet
facet normal -0.923879532511326 -0.382683432364996 3.29787083278805e-015
  outer loop
    vertex -104.014159448878 -280.600990741568 3.59999999999385
    vertex -103.839333709495 -281.023057412639 12.9999999999943
    vertex -104.014159448878 -280.600990741568 12.9999999999943
  endloop
endfacet
facet normal -0.793353340291157 0.608761429008823 1.01491671133856e-016
  outer loop
    vertex -109.859830924423 -278.975990741567 12.9999999999943
    vertex -109.065237811433 -277.940456835635 3.59999999999384
    vertex -109.859830924423 -278.975990741567 3.59999999999385
  endloop
endfacet
facet normal -0.793353340291157 0.608761429008823 1.01491671133856e-016
  outer loop
    vertex -109.065237811433 -277.940456835635 3.59999999999384
    vertex -109.859830924423 -278.975990741567 12.9999999999943
    vertex -109.065237811433 -277.940456835635 12.9999999999943
  endloop
endfacet
facet normal -0.99144486137383 -0.130526192219904 2.72303190696861e-015
  outer loop
    vertex -103.779703905501 -281.475990741568 12.9999999999943
    vertex -103.839333709495 -281.023057412639 3.59999999999385
    vertex -103.779703905501 -281.475990741568 3.59999999999385
  endloop
endfacet
facet normal -0.99144486137383 -0.130526192219904 2.72303190696861e-015
  outer loop
    vertex -103.839333709495 -281.023057412639 3.59999999999385
    vertex -103.779703905501 -281.475990741568 12.9999999999943
    vertex -103.839333709495 -281.023057412639 12.9999999999943
  endloop
endfacet
facet normal 0.130526192219913 -0.991444861373829 2.57950100918328e-015
  outer loop
    vertex -104.235608679989 -286.305619873013 12.9999999999943
    vertex -105.529703905502 -286.475990741568 3.59999999999386
    vertex -104.235608679989 -286.305619873013 3.59999999999386
  endloop
endfacet
facet normal 0.130526192219913 -0.991444861373829 2.57950100918328e-015
  outer loop
    vertex -105.529703905502 -286.475990741568 3.59999999999386
    vertex -104.235608679989 -286.305619873013 12.9999999999943
    vertex -105.529703905502 -286.475990741568 12.9999999999943
  endloop
endfacet
facet normal 2.36304354696491e-015 2.91286000657332e-015 1.0
  outer loop
    vertex -110.359333036947 -282.77008596708 12.9999999999943
    vertex -110.359333036946 -280.181895516055 12.9999999999943
    vertex -110.529703905501 -281.475990741567 12.9999999999943
  endloop
endfacet
facet normal 2.36304354696491e-015 2.91286000657332e-015 1.0
  outer loop
    vertex -110.359333036946 -280.181895516055 12.9999999999943
    vertex -110.359333036947 -282.77008596708 12.9999999999943
    vertex -109.859830924424 -283.975990741567 12.9999999999943
  endloop
endfacet
facet normal 2.36304354696491e-015 2.91286000657332e-015 1.0
  outer loop
    vertex -110.359333036946 -280.181895516055 12.9999999999943
    vertex -109.859830924424 -283.975990741567 12.9999999999943
    vertex -109.859830924423 -278.975990741567 12.9999999999943
  endloop
endfacet
facet normal 2.36304354696491e-015 2.91286000657332e-015 1.0
  outer loop
    vertex -109.859830924423 -278.975990741567 12.9999999999943
    vertex -109.859830924424 -283.975990741567 12.9999999999943
    vertex -109.065237811434 -285.0115246475 12.9999999999943
  endloop
endfacet
facet normal 2.36304354696491e-015 2.91286000657332e-015 1.0
  outer loop
    vertex -109.859830924423 -278.975990741567 12.9999999999943
    vertex -109.065237811434 -285.0115246475 12.9999999999943
    vertex -109.065237811433 -277.940456835635 12.9999999999943
  endloop
endfacet
facet normal 2.36304354696491e-015 2.91286000657332e-015 1.0
  outer loop
    vertex -109.065237811433 -277.940456835635 12.9999999999943
    vertex -109.065237811434 -285.0115246475 12.9999999999943
    vertex -108.029703905502 -285.80611776049 12.9999999999943
  endloop
endfacet
facet normal 2.36304354696491e-015 2.91286000657332e-015 1.0
  outer loop
    vertex -109.065237811433 -277.940456835635 12.9999999999943
    vertex -108.029703905502 -285.80611776049 12.9999999999943
    vertex -108.0297039055 -277.145863722645 12.9999999999943
  endloop
endfacet
facet normal 2.36304354696491e-015 2.91286000657332e-015 1.0
  outer loop
    vertex -108.0297039055 -277.145863722645 12.9999999999943
    vertex -108.029703905502 -285.80611776049 12.9999999999943
    vertex -106.823799131014 -286.305619873013 12.9999999999943
  endloop
endfacet
facet normal 2.36304354696491e-015 2.91286000657332e-015 1.0
  outer loop
    vertex -108.0297039055 -277.145863722645 12.9999999999943
    vertex -106.823799131014 -286.305619873013 12.9999999999943
    vertex -107.279703905501 -281.475990741568 12.9999999999943
  endloop
endfacet
facet normal 2.36304354696491e-015 2.91286000657332e-015 1.0
  outer loop
    vertex -107.279703905501 -281.475990741568 12.9999999999943
    vertex -106.823799131014 -286.305619873013 12.9999999999943
    vertex -107.220074101507 -281.928924070497 12.9999999999943
  endloop
endfacet
facet normal 2.36304354696491e-015 2.91286000657332e-015 1.0
  outer loop
    vertex -107.220074101507 -281.928924070497 12.9999999999943
    vertex -106.823799131014 -286.305619873013 12.9999999999943
    vertex -107.045248362124 -282.350990741568 12.9999999999943
  endloop
endfacet
facet normal 2.36304354696491e-015 2.91286000657332e-015 1.0
  outer loop
    vertex -107.045248362124 -282.350990741568 12.9999999999943
    vertex -106.823799131014 -286.305619873013 12.9999999999943
    vertex -106.767140772578 -282.713427608644 12.9999999999943
  endloop
endfacet
facet normal 2.36304354696491e-015 2.91286000657332e-015 1.0
  outer loop
    vertex -106.767140772578 -282.713427608644 12.9999999999943
    vertex -106.823799131014 -286.305619873013 12.9999999999943
    vertex -105.529703905502 -286.475990741568 12.9999999999943
  endloop
endfacet
facet normal 2.36304354696491e-015 2.91286000657332e-015 1.0
  outer loop
    vertex -106.767140772578 -282.713427608644 12.9999999999943
    vertex -105.529703905502 -286.475990741568 12.9999999999943
    vertex -106.404703905501 -282.99153519819 12.9999999999943
  endloop
endfacet
facet normal 2.36304354696491e-015 2.91286000657332e-015 1.0
  outer loop
    vertex -106.404703905501 -282.99153519819 12.9999999999943
    vertex -105.529703905502 -286.475990741568 12.9999999999943
    vertex -105.982637234431 -283.166360937574 12.9999999999943
  endloop
endfacet
facet normal 2.36304354696491e-015 2.91286000657332e-015 1.0
  outer loop
    vertex -105.982637234431 -283.166360937574 12.9999999999943
    vertex -105.529703905502 -286.475990741568 12.9999999999943
    vertex -105.529703905501 -283.225990741568 12.9999999999943
  endloop
endfacet
facet normal 2.36304354696491e-015 2.91286000657332e-015 1.0
  outer loop
    vertex -105.529703905501 -283.225990741568 12.9999999999943
    vertex -105.529703905502 -286.475990741568 12.9999999999943
    vertex -104.235608679989 -286.305619873013 12.9999999999943
  endloop
endfacet
facet normal 2.36304354696491e-015 2.91286000657332e-015 1.0
  outer loop
    vertex -105.529703905501 -283.225990741568 12.9999999999943
    vertex -104.235608679989 -286.305619873013 12.9999999999943
    vertex -105.076770576572 -283.166360937574 12.9999999999943
  endloop
endfacet
facet normal 2.36304354696491e-015 2.91286000657332e-015 1.0
  outer loop
    vertex -105.076770576572 -283.166360937574 12.9999999999943
    vertex -104.235608679989 -286.305619873013 12.9999999999943
    vertex -104.654703905501 -282.991535198191 12.9999999999943
  endloop
endfacet
facet normal 2.36304354696491e-015 2.91286000657332e-015 1.0
  outer loop
    vertex -104.654703905501 -282.991535198191 12.9999999999943
    vertex -104.235608679989 -286.305619873013 12.9999999999943
    vertex -104.292267038425 -282.713427608644 12.9999999999943
  endloop
endfacet
facet normal 2.36304354696491e-015 2.91286000657332e-015 1.0
  outer loop
    vertex -104.292267038425 -282.713427608644 12.9999999999943
    vertex -104.235608679989 -286.305619873013 12.9999999999943
    vertex -104.014159448878 -282.350990741568 12.9999999999943
  endloop
endfacet
facet normal 2.36304354696491e-015 2.91286000657332e-015 1.0
  outer loop
    vertex -104.014159448878 -282.350990741568 12.9999999999943
    vertex -104.235608679989 -286.305619873013 12.9999999999943
    vertex -103.029703905502 -285.80611776049 12.9999999999943
  endloop
endfacet
facet normal 2.36304354696491e-015 2.91286000657332e-015 1.0
  outer loop
    vertex -104.014159448878 -282.350990741568 12.9999999999943
    vertex -103.029703905502 -285.80611776049 12.9999999999943
    vertex -103.839333709495 -281.928924070498 12.9999999999943
  endloop
endfacet
facet normal 2.36304354696491e-015 2.91286000657332e-015 1.0
  outer loop
    vertex -103.839333709495 -281.928924070498 12.9999999999943
    vertex -103.029703905502 -285.80611776049 12.9999999999943
    vertex -103.779703905501 -281.475990741568 12.9999999999943
  endloop
endfacet
facet normal 2.36304354696491e-015 2.91286000657332e-015 1.0
  outer loop
    vertex -107.279703905501 -281.475990741568 12.9999999999943
    vertex -106.823799131013 -276.646361610122 12.9999999999942
    vertex -108.0297039055 -277.145863722645 12.9999999999943
  endloop
endfacet
facet normal 2.36304354696491e-015 2.91286000657332e-015 1.0
  outer loop
    vertex -106.823799131013 -276.646361610122 12.9999999999942
    vertex -107.279703905501 -281.475990741568 12.9999999999943
    vertex -107.220074101507 -281.023057412638 12.9999999999943
  endloop
endfacet
facet normal 2.36304354696491e-015 2.91286000657332e-015 1.0
  outer loop
    vertex -106.823799131013 -276.646361610122 12.9999999999942
    vertex -107.220074101507 -281.023057412638 12.9999999999943
    vertex -107.045248362124 -280.600990741568 12.9999999999943
  endloop
endfacet
facet normal 2.36304354696491e-015 2.91286000657332e-015 1.0
  outer loop
    vertex -106.823799131013 -276.646361610122 12.9999999999942
    vertex -107.045248362124 -280.600990741568 12.9999999999943
    vertex -106.767140772577 -280.238553874491 12.9999999999943
  endloop
endfacet
facet normal 2.36304354696491e-015 2.91286000657332e-015 1.0
  outer loop
    vertex -106.823799131013 -276.646361610122 12.9999999999942
    vertex -106.767140772577 -280.238553874491 12.9999999999943
    vertex -105.5297039055 -276.475990741568 12.9999999999942
  endloop
endfacet
facet normal 2.36304354696491e-015 2.91286000657332e-015 1.0
  outer loop
    vertex -105.5297039055 -276.475990741568 12.9999999999942
    vertex -106.767140772577 -280.238553874491 12.9999999999943
    vertex -106.404703905501 -279.960446284945 12.9999999999943
  endloop
endfacet
facet normal 2.36304354696491e-015 2.91286000657332e-015 1.0
  outer loop
    vertex -105.5297039055 -276.475990741568 12.9999999999942
    vertex -106.404703905501 -279.960446284945 12.9999999999943
    vertex -105.98263723443 -279.785620545562 12.9999999999943
  endloop
endfacet
facet normal 2.36304354696491e-015 2.91286000657332e-015 1.0
  outer loop
    vertex -105.5297039055 -276.475990741568 12.9999999999942
    vertex -105.98263723443 -279.785620545562 12.9999999999943
    vertex -105.529703905501 -279.725990741568 12.9999999999942
  endloop
endfacet
facet normal 2.36304354696491e-015 2.91286000657332e-015 1.0
  outer loop
    vertex -105.5297039055 -276.475990741568 12.9999999999942
    vertex -105.529703905501 -279.725990741568 12.9999999999942
    vertex -105.076770576571 -279.785620545562 12.9999999999943
  endloop
endfacet
facet normal 2.36304354696491e-015 2.91286000657332e-015 1.0
  outer loop
    vertex -105.5297039055 -276.475990741568 12.9999999999942
    vertex -105.076770576571 -279.785620545562 12.9999999999943
    vertex -104.235608679988 -276.646361610123 12.9999999999942
  endloop
endfacet
facet normal 2.36304354696491e-015 2.91286000657332e-015 1.0
  outer loop
    vertex -104.235608679988 -276.646361610123 12.9999999999942
    vertex -105.076770576571 -279.785620545562 12.9999999999943
    vertex -104.654703905501 -279.960446284945 12.9999999999943
  endloop
endfacet
facet normal 2.36304354696491e-015 2.91286000657332e-015 1.0
  outer loop
    vertex -104.235608679988 -276.646361610123 12.9999999999942
    vertex -104.654703905501 -279.960446284945 12.9999999999943
    vertex -104.292267038424 -280.238553874492 12.9999999999943
  endloop
endfacet
facet normal 2.36304354696491e-015 2.91286000657332e-015 1.0
  outer loop
    vertex -104.235608679988 -276.646361610123 12.9999999999942
    vertex -104.292267038424 -280.238553874492 12.9999999999943
    vertex -104.014159448878 -280.600990741568 12.9999999999943
  endloop
endfacet
facet normal 2.36304354696491e-015 2.91286000657332e-015 1.0
  outer loop
    vertex -104.235608679988 -276.646361610123 12.9999999999942
    vertex -104.014159448878 -280.600990741568 12.9999999999943
    vertex -103.0297039055 -277.145863722646 12.9999999999942
  endloop
endfacet
facet normal 2.36304354696491e-015 2.91286000657332e-015 1.0
  outer loop
    vertex -103.0297039055 -277.145863722646 12.9999999999942
    vertex -104.014159448878 -280.600990741568 12.9999999999943
    vertex -103.839333709495 -281.023057412639 12.9999999999943
  endloop
endfacet
facet normal 2.36304354696491e-015 2.91286000657332e-015 1.0
  outer loop
    vertex -103.0297039055 -277.145863722646 12.9999999999942
    vertex -103.839333709495 -281.023057412639 12.9999999999943
    vertex -103.779703905501 -281.475990741568 12.9999999999943
  endloop
endfacet
facet normal 2.36304354696491e-015 2.91286000657332e-015 1.0
  outer loop
    vertex -103.0297039055 -277.145863722646 12.9999999999942
    vertex -103.779703905501 -281.475990741568 12.9999999999943
    vertex -103.029703905502 -285.80611776049 12.9999999999943
  endloop
endfacet
facet normal 2.36304354696491e-015 2.91286000657332e-015 1.0
  outer loop
    vertex -103.0297039055 -277.145863722646 12.9999999999942
    vertex -103.029703905502 -285.80611776049 12.9999999999943
    vertex -101.994169999569 -285.011524647501 12.9999999999943
  endloop
endfacet
facet normal 2.36304354696491e-015 2.91286000657332e-015 1.0
  outer loop
    vertex -103.0297039055 -277.145863722646 12.9999999999942
    vertex -101.994169999569 -285.011524647501 12.9999999999943
    vertex -101.994169999568 -277.940456835636 12.9999999999942
  endloop
endfacet
facet normal 2.36304354696491e-015 2.91286000657332e-015 1.0
  outer loop
    vertex -101.994169999568 -277.940456835636 12.9999999999942
    vertex -101.994169999569 -285.011524647501 12.9999999999943
    vertex -101.199576886579 -283.975990741569 12.9999999999943
  endloop
endfacet
facet normal 2.36304354696491e-015 2.91286000657332e-015 1.0
  outer loop
    vertex -101.994169999568 -277.940456835636 12.9999999999942
    vertex -101.199576886579 -283.975990741569 12.9999999999943
    vertex -101.199576886578 -278.975990741569 12.9999999999942
  endloop
endfacet
facet normal 2.36304354696491e-015 2.91286000657332e-015 1.0
  outer loop
    vertex -101.199576886578 -278.975990741569 12.9999999999942
    vertex -101.199576886579 -283.975990741569 12.9999999999943
    vertex -100.700074774056 -282.770085967081 12.9999999999942
  endloop
endfacet
facet normal 2.36304354696491e-015 2.91286000657332e-015 1.0
  outer loop
    vertex -101.199576886578 -278.975990741569 12.9999999999942
    vertex -100.700074774056 -282.770085967081 12.9999999999942
    vertex -100.700074774055 -280.181895516056 12.9999999999942
  endloop
endfacet
facet normal 2.36304354696491e-015 2.91286000657332e-015 1.0
  outer loop
    vertex -100.700074774055 -280.181895516056 12.9999999999942
    vertex -100.700074774056 -282.770085967081 12.9999999999942
    vertex -100.529703905501 -281.475990741569 12.9999999999942
  endloop
endfacet
facet normal 0.130526192220023 -0.991444861373814 2.57950100918298e-015
  outer loop
    vertex -105.529703905501 -279.725990741568 12.9999999999942
    vertex -105.98263723443 -279.785620545562 3.59999999999385
    vertex -105.529703905501 -279.725990741568 3.59999999999382
  endloop
endfacet
facet normal 0.130526192220023 -0.991444861373814 2.57950100918298e-015
  outer loop
    vertex -105.98263723443 -279.785620545562 3.59999999999385
    vertex -105.529703905501 -279.725990741568 12.9999999999942
    vertex -105.98263723443 -279.785620545562 12.9999999999943
  endloop
endfacet
facet normal 0.608761429008834 0.793353340291148 -3.7494569824759e-015
  outer loop
    vertex -103.0297039055 -277.145863722646 3.59999999999383
    vertex -101.994169999568 -277.940456835636 12.9999999999942
    vertex -101.994169999568 -277.940456835636 3.59999999999382
  endloop
endfacet
facet normal 0.608761429008834 0.793353340291148 -3.7494569824759e-015
  outer loop
    vertex -101.994169999568 -277.940456835636 12.9999999999942
    vertex -103.0297039055 -277.145863722646 3.59999999999383
    vertex -103.0297039055 -277.145863722646 12.9999999999942
  endloop
endfacet
facet normal -0.991444861373792 0.130526192220191 1.96262285671237e-015
  outer loop
    vertex -103.839333709495 -281.928924070498 12.9999999999943
    vertex -103.779703905501 -281.475990741568 3.59999999999385
    vertex -103.839333709495 -281.928924070498 3.59999999999385
  endloop
endfacet
facet normal -0.991444861373792 0.130526192220191 1.96262285671237e-015
  outer loop
    vertex -103.779703905501 -281.475990741568 3.59999999999385
    vertex -103.839333709495 -281.928924070498 12.9999999999943
    vertex -103.779703905501 -281.475990741568 12.9999999999943
  endloop
endfacet
facet normal -0.923879532511245 0.382683432365191 1.06846430215889e-015
  outer loop
    vertex -104.014159448878 -282.350990741568 12.9999999999943
    vertex -103.839333709495 -281.928924070498 3.59999999999385
    vertex -104.014159448878 -282.350990741568 3.59999999999385
  endloop
endfacet
facet normal -0.923879532511245 0.382683432365191 1.06846430215889e-015
  outer loop
    vertex -103.839333709495 -281.928924070498 3.59999999999385
    vertex -104.014159448878 -282.350990741568 12.9999999999943
    vertex -103.839333709495 -281.928924070498 12.9999999999943
  endloop
endfacet
facet normal -0.130526192219886 0.991444861373832 -2.57950100918336e-015
  outer loop
    vertex -105.529703905501 -283.225990741568 3.59999999999386
    vertex -105.076770576572 -283.166360937574 12.9999999999943
    vertex -105.076770576572 -283.166360937574 3.59999999999385
  endloop
endfacet
facet normal -0.130526192219886 0.991444861373832 -2.57950100918336e-015
  outer loop
    vertex -105.076770576572 -283.166360937574 12.9999999999943
    vertex -105.529703905501 -283.225990741568 3.59999999999386
    vertex -105.529703905501 -283.225990741568 12.9999999999943
  endloop
endfacet
facet normal -0.608761429008629 0.793353340291306 -8.72397449555915e-016
  outer loop
    vertex -104.654703905501 -282.991535198191 12.9999999999943
    vertex -104.292267038425 -282.713427608645 3.59999999999385
    vertex -104.654703905501 -282.991535198191 3.59999999999385
  endloop
endfacet
facet normal -0.608761429008629 0.793353340291306 -8.72397449555915e-016
  outer loop
    vertex -104.292267038425 -282.713427608645 3.59999999999385
    vertex -104.654703905501 -282.991535198191 12.9999999999943
    vertex -104.292267038425 -282.713427608644 12.9999999999943
  endloop
endfacet
facet normal 0.130526192220184 0.991444861373793 -3.19637916165416e-015
  outer loop
    vertex -105.982637234431 -283.166360937574 12.9999999999943
    vertex -105.529703905501 -283.225990741568 3.59999999999386
    vertex -105.982637234431 -283.166360937574 3.59999999999385
  endloop
endfacet
facet normal 0.130526192220184 0.991444861373793 -3.19637916165416e-015
  outer loop
    vertex -105.529703905501 -283.225990741568 3.59999999999386
    vertex -105.982637234431 -283.166360937574 12.9999999999943
    vertex -105.529703905501 -283.225990741568 12.9999999999943
  endloop
endfacet
facet normal 0.382683432365208 0.923879532511238 -3.59542935652463e-015
  outer loop
    vertex -106.404703905501 -282.99153519819 12.9999999999943
    vertex -105.982637234431 -283.166360937574 3.59999999999385
    vertex -106.404703905501 -282.991535198191 3.59999999999385
  endloop
endfacet
facet normal 0.382683432365208 0.923879532511238 -3.59542935652463e-015
  outer loop
    vertex -105.982637234431 -283.166360937574 3.59999999999385
    vertex -106.404703905501 -282.99153519819 12.9999999999943
    vertex -105.982637234431 -283.166360937574 12.9999999999943
  endloop
endfacet
facet normal -0.382683432365 0.923879532511324 -1.78683412576339e-015
  outer loop
    vertex -105.076770576572 -283.166360937574 12.9999999999943
    vertex -104.654703905501 -282.991535198191 3.59999999999385
    vertex -105.076770576572 -283.166360937574 3.59999999999385
  endloop
endfacet
facet normal -0.382683432365 0.923879532511324 -1.78683412576339e-015
  outer loop
    vertex -104.654703905501 -282.991535198191 3.59999999999385
    vertex -105.076770576572 -283.166360937574 12.9999999999943
    vertex -104.654703905501 -282.991535198191 12.9999999999943
  endloop
endfacet
facet normal 0.608761429008854 0.793353340291133 -3.7494569824759e-015
  outer loop
    vertex -106.767140772578 -282.713427608644 12.9999999999943
    vertex -106.404703905501 -282.991535198191 3.59999999999385
    vertex -106.767140772578 -282.713427608644 3.59999999999385
  endloop
endfacet
facet normal 0.608761429008854 0.793353340291133 -3.7494569824759e-015
  outer loop
    vertex -106.404703905501 -282.991535198191 3.59999999999385
    vertex -106.767140772578 -282.713427608644 12.9999999999943
    vertex -106.404703905501 -282.99153519819 12.9999999999943
  endloop
endfacet
facet normal -0.793353340291139 0.608761429008846 1.01491671133746e-016
  outer loop
    vertex -104.292267038425 -282.713427608644 12.9999999999943
    vertex -104.014159448878 -282.350990741568 3.59999999999385
    vertex -104.292267038425 -282.713427608645 3.59999999999385
  endloop
endfacet
facet normal -0.793353340291139 0.608761429008846 1.01491671133746e-016
  outer loop
    vertex -104.014159448878 -282.350990741568 3.59999999999385
    vertex -104.292267038425 -282.713427608644 12.9999999999943
    vertex -104.014159448878 -282.350990741568 12.9999999999943
  endloop
endfacet
facet normal 0.793353340291139 -0.608761429008846 -1.01491671133746e-016
  outer loop
    vertex -106.767140772577 -280.238553874491 3.59999999999385
    vertex -107.045248362124 -280.600990741568 12.9999999999943
    vertex -107.045248362124 -280.600990741568 3.59999999999385
  endloop
endfacet
facet normal 0.793353340291139 -0.608761429008846 -1.01491671133746e-016
  outer loop
    vertex -107.045248362124 -280.600990741568 12.9999999999943
    vertex -106.767140772577 -280.238553874491 3.59999999999385
    vertex -106.767140772577 -280.238553874491 12.9999999999943
  endloop
endfacet
facet normal 0.991444861373792 -0.130526192220191 -1.96262285671237e-015
  outer loop
    vertex -107.220074101507 -281.023057412638 3.59999999999385
    vertex -107.279703905501 -281.475990741568 12.9999999999943
    vertex -107.279703905501 -281.475990741568 3.59999999999385
  endloop
endfacet
facet normal 0.991444861373792 -0.130526192220191 -1.96262285671237e-015
  outer loop
    vertex -107.279703905501 -281.475990741568 12.9999999999943
    vertex -107.220074101507 -281.023057412638 3.59999999999385
    vertex -107.220074101507 -281.023057412638 12.9999999999943
  endloop
endfacet
facet normal 0.923879532511245 -0.382683432365191 -1.06846430215889e-015
  outer loop
    vertex -107.045248362124 -280.600990741568 3.59999999999385
    vertex -107.220074101507 -281.023057412638 12.9999999999943
    vertex -107.220074101507 -281.023057412638 3.59999999999385
  endloop
endfacet
facet normal 0.923879532511245 -0.382683432365191 -1.06846430215889e-015
  outer loop
    vertex -107.220074101507 -281.023057412638 12.9999999999943
    vertex -107.045248362124 -280.600990741568 3.59999999999385
    vertex -107.045248362124 -280.600990741568 12.9999999999943
  endloop
endfacet
facet normal 0.608761429008629 -0.793353340291306 8.72397449555915e-016
  outer loop
    vertex -106.404703905501 -279.960446284945 12.9999999999943
    vertex -106.767140772577 -280.238553874491 3.59999999999385
    vertex -106.404703905501 -279.960446284945 3.59999999999385
  endloop
endfacet
facet normal 0.608761429008629 -0.793353340291306 8.72397449555915e-016
  outer loop
    vertex -106.767140772577 -280.238553874491 3.59999999999385
    vertex -106.404703905501 -279.960446284945 12.9999999999943
    vertex -106.767140772577 -280.238553874491 12.9999999999943
  endloop
endfacet
facet normal 0.923879532511334 0.382683432364975 -3.29787083278801e-015
  outer loop
    vertex -107.220074101507 -281.928924070497 3.59999999999385
    vertex -107.045248362124 -282.350990741568 12.9999999999943
    vertex -107.045248362124 -282.350990741568 3.59999999999385
  endloop
endfacet
facet normal 0.923879532511334 0.382683432364975 -3.29787083278801e-015
  outer loop
    vertex -107.045248362124 -282.350990741568 12.9999999999943
    vertex -107.220074101507 -281.928924070497 3.59999999999385
    vertex -107.220074101507 -281.928924070497 12.9999999999943
  endloop
endfacet
facet normal 0.793353340291311 0.608761429008621 -3.64796531134208e-015
  outer loop
    vertex -107.045248362124 -282.350990741568 3.59999999999385
    vertex -106.767140772578 -282.713427608644 12.9999999999943
    vertex -106.767140772578 -282.713427608644 3.59999999999385
  endloop
endfacet
facet normal 0.793353340291311 0.608761429008621 -3.64796531134208e-015
  outer loop
    vertex -106.767140772578 -282.713427608644 12.9999999999943
    vertex -107.045248362124 -282.350990741568 3.59999999999385
    vertex -107.045248362124 -282.350990741568 12.9999999999943
  endloop
endfacet
facet normal 0.382683432365 -0.923879532511324 1.78683412576339e-015
  outer loop
    vertex -105.98263723443 -279.785620545562 12.9999999999943
    vertex -106.404703905501 -279.960446284945 3.59999999999385
    vertex -105.98263723443 -279.785620545562 3.59999999999385
  endloop
endfacet
facet normal 0.382683432365 -0.923879532511324 1.78683412576339e-015
  outer loop
    vertex -106.404703905501 -279.960446284945 3.59999999999385
    vertex -105.98263723443 -279.785620545562 12.9999999999943
    vertex -106.404703905501 -279.960446284945 12.9999999999943
  endloop
endfacet
facet normal 0.991444861373827 0.130526192219929 -2.72303190696868e-015
  outer loop
    vertex -107.279703905501 -281.475990741568 3.59999999999385
    vertex -107.220074101507 -281.928924070497 12.9999999999943
    vertex -107.220074101507 -281.928924070497 3.59999999999385
  endloop
endfacet
facet normal 0.991444861373827 0.130526192219929 -2.72303190696868e-015
  outer loop
    vertex -107.220074101507 -281.928924070497 12.9999999999943
    vertex -107.279703905501 -281.475990741568 3.59999999999385
    vertex -107.279703905501 -281.475990741568 12.9999999999943
  endloop
endfacet
endsolid Omnidroid
