solid Omnidroid
facet normal 2.36304354696558e-015 2.91286000657278e-015 -1.0
  outer loop
    vertex -34.9535763772291 -286.305619873021 1.0081492973768e-011
    vertex -34.49767160274 -281.475990741576 1.00930435564806e-011
    vertex -33.7476716027415 -285.806117760498 1.00872682651243e-011
  endloop
endfacet
facet normal 2.36304354696558e-015 2.91286000657278e-015 -1.0
  outer loop
    vertex -34.49767160274 -281.475990741576 1.00930435564806e-011
    vertex -34.9535763772291 -286.305619873021 1.0081492973768e-011
    vertex -34.5573014067343 -281.928924070505 1.00930435564806e-011
  endloop
endfacet
facet normal 2.36304354696558e-015 2.91286000657278e-015 -1.0
  outer loop
    vertex -34.5573014067343 -281.928924070505 1.00930435564806e-011
    vertex -34.9535763772291 -286.305619873021 1.0081492973768e-011
    vertex -34.7321271461176 -282.350990741576 1.00930435564806e-011
  endloop
endfacet
facet normal 2.36304354696558e-015 2.91286000657278e-015 -1.0
  outer loop
    vertex -34.7321271461176 -282.350990741576 1.00930435564806e-011
    vertex -34.9535763772291 -286.305619873021 1.0081492973768e-011
    vertex -35.010234735664 -282.713427608652 1.00930435564806e-011
  endloop
endfacet
facet normal 2.36304354696558e-015 2.91286000657278e-015 -1.0
  outer loop
    vertex -35.010234735664 -282.713427608652 1.00930435564806e-011
    vertex -34.9535763772291 -286.305619873021 1.0081492973768e-011
    vertex -36.2476716027418 -286.475990741575 1.00786053280899e-011
  endloop
endfacet
facet normal 2.36304354696558e-015 2.91286000657278e-015 -1.0
  outer loop
    vertex -35.010234735664 -282.713427608652 1.00930435564806e-011
    vertex -36.2476716027418 -286.475990741575 1.00786053280899e-011
    vertex -35.3726716027405 -282.991535198198 1.00930435564806e-011
  endloop
endfacet
facet normal 2.36304354696558e-015 2.91286000657278e-015 -1.0
  outer loop
    vertex -35.3726716027405 -282.991535198198 1.00930435564806e-011
    vertex -36.2476716027418 -286.475990741575 1.00786053280899e-011
    vertex -35.7947382738112 -283.166360937581 1.00930435564806e-011
  endloop
endfacet
facet normal 2.36304354696558e-015 2.91286000657278e-015 -1.0
  outer loop
    vertex -35.7947382738112 -283.166360937581 1.00930435564806e-011
    vertex -36.2476716027418 -286.475990741575 1.00786053280899e-011
    vertex -36.2476716027401 -283.225990741575 1.00699423910555e-011
  endloop
endfacet
facet normal 2.36304354696558e-015 2.91286000657278e-015 -1.0
  outer loop
    vertex -36.2476716027401 -283.225990741575 1.00699423910555e-011
    vertex -36.2476716027418 -286.475990741575 1.00786053280899e-011
    vertex -36.70060493167 -283.166360937581 1.00930435564806e-011
  endloop
endfacet
facet normal 2.36304354696558e-015 2.91286000657278e-015 -1.0
  outer loop
    vertex -36.70060493167 -283.166360937581 1.00930435564806e-011
    vertex -36.2476716027418 -286.475990741575 1.00786053280899e-011
    vertex -37.5417668282543 -286.30561987302 1.00757176824118e-011
  endloop
endfacet
facet normal 2.36304354696558e-015 2.91286000657278e-015 -1.0
  outer loop
    vertex -36.70060493167 -283.166360937581 1.00930435564806e-011
    vertex -37.5417668282543 -286.30561987302 1.00757176824118e-011
    vertex -37.1226716027405 -282.991535198197 1.00930435564806e-011
  endloop
endfacet
facet normal 2.36304354696558e-015 2.91286000657278e-015 -1.0
  outer loop
    vertex -37.1226716027405 -282.991535198197 1.00930435564806e-011
    vertex -37.5417668282543 -286.30561987302 1.00757176824118e-011
    vertex -37.4851084698168 -282.713427608651 1.00930435564806e-011
  endloop
endfacet
facet normal 2.36304354696558e-015 2.91286000657278e-015 -1.0
  outer loop
    vertex -37.4851084698168 -282.713427608651 1.00930435564806e-011
    vertex -37.5417668282543 -286.30561987302 1.00757176824118e-011
    vertex -37.763216059363 -282.350990741574 1.00930435564806e-011
  endloop
endfacet
facet normal 2.36304354696558e-015 2.91286000657278e-015 -1.0
  outer loop
    vertex -37.763216059363 -282.350990741574 1.00930435564806e-011
    vertex -37.5417668282543 -286.30561987302 1.00757176824118e-011
    vertex -38.7476716027415 -285.806117760496 1.00757176824118e-011
  endloop
endfacet
facet normal 2.36304354696558e-015 2.91286000657278e-015 -1.0
  outer loop
    vertex -37.763216059363 -282.350990741574 1.00930435564806e-011
    vertex -38.7476716027415 -285.806117760496 1.00757176824118e-011
    vertex -37.9380417987459 -281.928924070504 1.00930435564806e-011
  endloop
endfacet
facet normal 2.36304354696558e-015 2.91286000657278e-015 -1.0
  outer loop
    vertex -37.9380417987459 -281.928924070504 1.00930435564806e-011
    vertex -38.7476716027415 -285.806117760496 1.00757176824118e-011
    vertex -37.9976716027399 -281.475990741574 1.00930435564806e-011
  endloop
endfacet
facet normal 2.36304354696558e-015 2.91286000657278e-015 -1.0
  outer loop
    vertex -37.9976716027399 -281.475990741574 1.00930435564806e-011
    vertex -38.7476716027415 -285.806117760496 1.00757176824118e-011
    vertex -38.7476716027384 -277.145863722652 1.00988188478368e-011
  endloop
endfacet
facet normal 2.36304354696558e-015 2.91286000657278e-015 -1.0
  outer loop
    vertex -38.7476716027384 -277.145863722652 1.00988188478368e-011
    vertex -38.7476716027415 -285.806117760496 1.00757176824118e-011
    vertex -39.7832055086714 -277.940456835641 1.00959312021587e-011
  endloop
endfacet
facet normal 2.36304354696558e-015 2.91286000657278e-015 -1.0
  outer loop
    vertex -39.7832055086714 -277.940456835641 1.00959312021587e-011
    vertex -38.7476716027415 -285.806117760496 1.00757176824118e-011
    vertex -39.783205508674 -285.011524647507 1.00728300367336e-011
  endloop
endfacet
facet normal 2.36304354696558e-015 2.91286000657278e-015 -1.0
  outer loop
    vertex -39.7832055086714 -277.940456835641 1.00959312021587e-011
    vertex -39.783205508674 -285.011524647507 1.00728300367336e-011
    vertex -40.5777986216613 -278.975990741573 1.00901559108024e-011
  endloop
endfacet
facet normal 2.36304354696558e-015 2.91286000657278e-015 -1.0
  outer loop
    vertex -40.5777986216613 -278.975990741573 1.00901559108024e-011
    vertex -39.783205508674 -285.011524647507 1.00728300367336e-011
    vertex -40.5777986216631 -283.975990741573 1.00757176824118e-011
  endloop
endfacet
facet normal 2.36304354696558e-015 2.91286000657278e-015 -1.0
  outer loop
    vertex -40.5777986216613 -278.975990741573 1.00901559108024e-011
    vertex -40.5777986216631 -283.975990741573 1.00757176824118e-011
    vertex -41.0773007341848 -280.181895516061 1.00843806194462e-011
  endloop
endfacet
facet normal 2.36304354696558e-015 2.91286000657278e-015 -1.0
  outer loop
    vertex -41.0773007341848 -280.181895516061 1.00843806194462e-011
    vertex -40.5777986216631 -283.975990741573 1.00757176824118e-011
    vertex -41.0773007341858 -282.770085967086 1.00786053280899e-011
  endloop
endfacet
facet normal 2.36304354696558e-015 2.91286000657278e-015 -1.0
  outer loop
    vertex -41.0773007341848 -280.181895516061 1.00843806194462e-011
    vertex -41.0773007341858 -282.770085967086 1.00786053280899e-011
    vertex -41.24767160274 -281.475990741573 1.0081492973768e-011
  endloop
endfacet
facet normal 2.36304354696558e-015 2.91286000657278e-015 -1.0
  outer loop
    vertex -31.4180424712951 -282.770085967089 1.01017064935149e-011
    vertex -31.4180424712941 -280.181895516064 1.01074817848712e-011
    vertex -31.2476716027399 -281.475990741577 1.01045941391931e-011
  endloop
endfacet
facet normal 2.36304354696558e-015 2.91286000657278e-015 -1.0
  outer loop
    vertex -31.4180424712941 -280.181895516064 1.01074817848712e-011
    vertex -31.4180424712951 -282.770085967089 1.01017064935149e-011
    vertex -31.9175445838168 -278.975990741577 1.01103694305493e-011
  endloop
endfacet
facet normal 2.36304354696558e-015 2.91286000657278e-015 -1.0
  outer loop
    vertex -31.9175445838168 -278.975990741577 1.01103694305493e-011
    vertex -31.4180424712951 -282.770085967089 1.01017064935149e-011
    vertex -31.9175445838187 -283.975990741577 1.00959312021587e-011
  endloop
endfacet
facet normal 2.36304354696558e-015 2.91286000657278e-015 -1.0
  outer loop
    vertex -31.9175445838168 -278.975990741577 1.01103694305493e-011
    vertex -31.9175445838187 -283.975990741577 1.00959312021587e-011
    vertex -32.7121376968059 -277.940456835644 1.01132570762275e-011
  endloop
endfacet
facet normal 2.36304354696558e-015 2.91286000657278e-015 -1.0
  outer loop
    vertex -32.7121376968059 -277.940456835644 1.01132570762275e-011
    vertex -31.9175445838187 -283.975990741577 1.00959312021587e-011
    vertex -32.7121376968085 -285.011524647509 1.00901559108024e-011
  endloop
endfacet
facet normal 2.36304354696558e-015 2.91286000657278e-015 -1.0
  outer loop
    vertex -32.7121376968059 -277.940456835644 1.01132570762275e-011
    vertex -32.7121376968085 -285.011524647509 1.00901559108024e-011
    vertex -33.7476716027384 -277.145863722654 1.01103694305493e-011
  endloop
endfacet
facet normal 2.36304354696558e-015 2.91286000657278e-015 -1.0
  outer loop
    vertex -33.7476716027384 -277.145863722654 1.01103694305493e-011
    vertex -32.7121376968085 -285.011524647509 1.00901559108024e-011
    vertex -33.7476716027415 -285.806117760498 1.00872682651243e-011
  endloop
endfacet
facet normal 2.36304354696558e-015 2.91286000657278e-015 -1.0
  outer loop
    vertex -33.7476716027384 -277.145863722654 1.01103694305493e-011
    vertex -33.7476716027415 -285.806117760498 1.00872682651243e-011
    vertex -34.9535763772256 -276.64636161013 1.01103694305493e-011
  endloop
endfacet
facet normal 2.36304354696558e-015 2.91286000657278e-015 -1.0
  outer loop
    vertex -34.9535763772256 -276.64636161013 1.01103694305493e-011
    vertex -33.7476716027415 -285.806117760498 1.00872682651243e-011
    vertex -34.49767160274 -281.475990741576 1.00930435564806e-011
  endloop
endfacet
facet normal 2.36304354696558e-015 2.91286000657278e-015 -1.0
  outer loop
    vertex -34.9535763772256 -276.64636161013 1.01103694305493e-011
    vertex -34.49767160274 -281.475990741576 1.00930435564806e-011
    vertex -34.557301406734 -281.023057412646 1.00930435564806e-011
  endloop
endfacet
facet normal 2.36304354696558e-015 2.91286000657278e-015 -1.0
  outer loop
    vertex -34.9535763772256 -276.64636161013 1.01103694305493e-011
    vertex -34.557301406734 -281.023057412646 1.00930435564806e-011
    vertex -34.7321271461169 -280.600990741576 1.00930435564806e-011
  endloop
endfacet
facet normal 2.36304354696558e-015 2.91286000657278e-015 -1.0
  outer loop
    vertex -34.9535763772256 -276.64636161013 1.01103694305493e-011
    vertex -34.7321271461169 -280.600990741576 1.00930435564806e-011
    vertex -35.0102347356631 -280.238553874499 1.00930435564806e-011
  endloop
endfacet
facet normal 2.36304354696558e-015 2.91286000657278e-015 -1.0
  outer loop
    vertex -34.9535763772256 -276.64636161013 1.01103694305493e-011
    vertex -35.0102347356631 -280.238553874499 1.00930435564806e-011
    vertex -36.2476716027381 -276.475990741575 1.01074817848712e-011
  endloop
endfacet
facet normal 2.36304354696558e-015 2.91286000657278e-015 -1.0
  outer loop
    vertex -36.2476716027381 -276.475990741575 1.01074817848712e-011
    vertex -35.0102347356631 -280.238553874499 1.00930435564806e-011
    vertex -35.3726716027394 -279.960446284953 1.00930435564806e-011
  endloop
endfacet
facet normal 2.36304354696558e-015 2.91286000657278e-015 -1.0
  outer loop
    vertex -36.2476716027381 -276.475990741575 1.01074817848712e-011
    vertex -35.3726716027394 -279.960446284953 1.00930435564806e-011
    vertex -35.7947382738099 -279.785620545569 1.00930435564806e-011
  endloop
endfacet
facet normal 2.36304354696558e-015 2.91286000657278e-015 -1.0
  outer loop
    vertex -36.2476716027381 -276.475990741575 1.01074817848712e-011
    vertex -35.7947382738099 -279.785620545569 1.00930435564806e-011
    vertex -36.2476716027393 -279.725990741575 1.01045941391931e-011
  endloop
endfacet
facet normal 2.36304354696558e-015 2.91286000657278e-015 -1.0
  outer loop
    vertex -36.2476716027381 -276.475990741575 1.01074817848712e-011
    vertex -36.2476716027393 -279.725990741575 1.01045941391931e-011
    vertex -37.5417668282508 -276.646361610129 1.01045941391931e-011
  endloop
endfacet
facet normal 2.36304354696558e-015 2.91286000657278e-015 -1.0
  outer loop
    vertex -37.5417668282508 -276.646361610129 1.01045941391931e-011
    vertex -36.2476716027393 -279.725990741575 1.01045941391931e-011
    vertex -36.7006049316687 -279.785620545569 1.00930435564806e-011
  endloop
endfacet
facet normal 2.36304354696558e-015 2.91286000657278e-015 -1.0
  outer loop
    vertex -37.5417668282508 -276.646361610129 1.01045941391931e-011
    vertex -36.7006049316687 -279.785620545569 1.00930435564806e-011
    vertex -37.1226716027394 -279.960446284952 1.00930435564806e-011
  endloop
endfacet
facet normal 2.36304354696558e-015 2.91286000657278e-015 -1.0
  outer loop
    vertex -37.5417668282508 -276.646361610129 1.01045941391931e-011
    vertex -37.1226716027394 -279.960446284952 1.00930435564806e-011
    vertex -37.4851084698159 -280.238553874498 1.00930435564806e-011
  endloop
endfacet
facet normal 2.36304354696558e-015 2.91286000657278e-015 -1.0
  outer loop
    vertex -37.5417668282508 -276.646361610129 1.01045941391931e-011
    vertex -37.4851084698159 -280.238553874498 1.00930435564806e-011
    vertex -37.7632160593624 -280.600990741575 1.00930435564806e-011
  endloop
endfacet
facet normal 2.36304354696558e-015 2.91286000657278e-015 -1.0
  outer loop
    vertex -37.5417668282508 -276.646361610129 1.01045941391931e-011
    vertex -37.7632160593624 -280.600990741575 1.00930435564806e-011
    vertex -38.7476716027384 -277.145863722652 1.00988188478368e-011
  endloop
endfacet
facet normal 2.36304354696558e-015 2.91286000657278e-015 -1.0
  outer loop
    vertex -38.7476716027384 -277.145863722652 1.00988188478368e-011
    vertex -37.7632160593624 -280.600990741575 1.00930435564806e-011
    vertex -37.9380417987456 -281.023057412645 1.00930435564806e-011
  endloop
endfacet
facet normal 2.36304354696558e-015 2.91286000657278e-015 -1.0
  outer loop
    vertex -38.7476716027384 -277.145863722652 1.00988188478368e-011
    vertex -37.9380417987456 -281.023057412645 1.00930435564806e-011
    vertex -37.9976716027399 -281.475990741574 1.00930435564806e-011
  endloop
endfacet
facet normal 0.382683432365408 0.923879532511155 3.59542935652461e-015
  outer loop
    vertex -34.9535763772256 -276.64636161013 3.60000000000399
    vertex -33.7476716027384 -277.145863722654 1.01103694305493e-011
    vertex -34.9535763772256 -276.64636161013 1.01103694305493e-011
  endloop
endfacet
facet normal 0.382683432365408 0.923879532511155 3.59542935652461e-015
  outer loop
    vertex -33.7476716027384 -277.145863722654 1.01103694305493e-011
    vertex -34.9535763772256 -276.64636161013 3.60000000000399
    vertex -33.7476716027384 -277.145863722654 3.60000000000399
  endloop
endfacet
facet normal 0.130526192220273 0.991444861373781 3.19637916165389e-015
  outer loop
    vertex -36.70060493167 -283.166360937581 1.00930435564806e-011
    vertex -36.2476716027401 -283.225990741575 2.00000000001007
    vertex -36.2476716027401 -283.225990741575 1.00699423910555e-011
  endloop
endfacet
facet normal 0.130526192220273 0.991444861373781 3.19637916165389e-015
  outer loop
    vertex -36.2476716027401 -283.225990741575 2.00000000001007
    vertex -36.70060493167 -283.166360937581 1.00930435564806e-011
    vertex -36.70060493167 -283.166360937581 2.00000000001009
  endloop
endfacet
facet normal 0.382683432364767 -0.923879532511421 -1.78683412576347e-015
  outer loop
    vertex -33.7476716027415 -285.806117760498 1.00872682651243e-011
    vertex -34.9535763772291 -286.305619873021 3.60000000000396
    vertex -34.9535763772291 -286.305619873021 1.0081492973768e-011
  endloop
endfacet
facet normal 0.382683432364767 -0.923879532511421 -1.78683412576347e-015
  outer loop
    vertex -34.9535763772291 -286.305619873021 3.60000000000396
    vertex -33.7476716027415 -285.806117760498 1.00872682651243e-011
    vertex -33.7476716027415 -285.806117760498 3.60000000000396
  endloop
endfacet
facet normal -0.991444861373763 0.130526192220416 -1.96262285671237e-015
  outer loop
    vertex -41.24767160274 -281.475990741573 1.0081492973768e-011
    vertex -41.0773007341848 -280.181895516061 2.00000000001008
    vertex -41.0773007341848 -280.181895516061 1.00843806194462e-011
  endloop
endfacet
facet normal -0.991444861373763 0.130526192220416 -1.96262285671237e-015
  outer loop
    vertex -41.0773007341848 -280.181895516061 2.00000000001008
    vertex -41.24767160274 -281.475990741573 1.0081492973768e-011
    vertex -41.24767160274 -281.475990741573 2.00000000001008
  endloop
endfacet
facet normal -0.923879532511424 -0.382683432364758 -3.297870832788e-015
  outer loop
    vertex -40.5777986216631 -283.975990741573 1.00757176824118e-011
    vertex -41.0773007341858 -282.770085967086 2.00000000001008
    vertex -41.0773007341858 -282.770085967086 1.00786053280899e-011
  endloop
endfacet
facet normal -0.923879532511424 -0.382683432364758 -3.297870832788e-015
  outer loop
    vertex -41.0773007341858 -282.770085967086 2.00000000001008
    vertex -40.5777986216631 -283.975990741573 1.00757176824118e-011
    vertex -40.5777986216631 -283.975990741573 2.00000000001008
  endloop
endfacet
facet normal 0.130526192219687 -0.991444861373859 -2.57950100918328e-015
  outer loop
    vertex -34.9535763772291 -286.305619873021 1.0081492973768e-011
    vertex -36.2476716027418 -286.475990741575 2.00000000001008
    vertex -36.2476716027418 -286.475990741575 1.00786053280899e-011
  endloop
endfacet
facet normal 0.130526192219687 -0.991444861373859 -2.57950100918328e-015
  outer loop
    vertex -36.2476716027418 -286.475990741575 2.00000000001008
    vertex -34.9535763772291 -286.305619873021 1.0081492973768e-011
    vertex -35.8886877541215 -286.428729621311 2.0000000000102
  endloop
endfacet
facet normal 0.130526192219687 -0.991444861373859 -2.57950100918328e-015
  outer loop
    vertex -35.8886877541215 -286.428729621311 2.0000000000102
    vertex -34.9535763772291 -286.305619873021 1.0081492973768e-011
    vertex -34.9535763772291 -286.305619873021 3.60000000000396
  endloop
endfacet
facet normal 0.130526192219687 -0.991444861373859 -2.57950100918328e-015
  outer loop
    vertex -35.8886877541215 -286.428729621311 2.0000000000102
    vertex -34.9535763772291 -286.305619873021 3.60000000000396
    vertex -35.8886877541215 -286.428729621311 3.60000000000408
  endloop
endfacet
facet normal 0.38268343236542 0.92387953251115 3.59542935652463e-015
  outer loop
    vertex -37.1226716027405 -282.991535198197 2.00000000001009
    vertex -36.70060493167 -283.166360937581 1.00930435564806e-011
    vertex -37.1226716027405 -282.991535198197 1.00930435564806e-011
  endloop
endfacet
facet normal 0.38268343236542 0.92387953251115 3.59542935652463e-015
  outer loop
    vertex -36.70060493167 -283.166360937581 1.00930435564806e-011
    vertex -37.1226716027405 -282.991535198197 2.00000000001009
    vertex -36.70060493167 -283.166360937581 2.00000000001009
  endloop
endfacet
facet normal 0.793353340291451 0.60876142900844 3.64796531134208e-015
  outer loop
    vertex -37.4851084698168 -282.713427608651 2.00000000001009
    vertex -37.763216059363 -282.350990741574 1.00930435564806e-011
    vertex -37.763216059363 -282.350990741574 2.00000000001009
  endloop
endfacet
facet normal 0.793353340291451 0.60876142900844 3.64796531134208e-015
  outer loop
    vertex -37.763216059363 -282.350990741574 1.00930435564806e-011
    vertex -37.4851084698168 -282.713427608651 2.00000000001009
    vertex -37.4851084698168 -282.713427608651 1.00930435564806e-011
  endloop
endfacet
facet normal -0.382683432364767 0.923879532511421 1.78683412576347e-015
  outer loop
    vertex -38.7476716027384 -277.145863722652 2.0000000000101
    vertex -37.5417668282508 -276.646361610129 1.01045941391931e-011
    vertex -38.7476716027384 -277.145863722652 1.00988188478368e-011
  endloop
endfacet
facet normal -0.382683432364767 0.923879532511421 1.78683412576347e-015
  outer loop
    vertex -37.5417668282508 -276.646361610129 1.01045941391931e-011
    vertex -38.7476716027384 -277.145863722652 2.0000000000101
    vertex -37.5417668282508 -276.646361610129 2.00000000001011
  endloop
endfacet
facet normal -0.130526192220423 -0.991444861373762 -3.19637916165418e-015
  outer loop
    vertex -36.2476716027418 -286.475990741575 1.00786053280899e-011
    vertex -37.5417668282543 -286.30561987302 2.00000000001008
    vertex -37.5417668282543 -286.30561987302 1.00757176824118e-011
  endloop
endfacet
facet normal -0.130526192220423 -0.991444861373762 -3.19637916165418e-015
  outer loop
    vertex -37.5417668282543 -286.30561987302 2.00000000001008
    vertex -36.2476716027418 -286.475990741575 1.00786053280899e-011
    vertex -36.2476716027418 -286.475990741575 2.00000000001008
  endloop
endfacet
facet normal 0.60876142900842 -0.793353340291466 -8.72397449556042e-016
  outer loop
    vertex -32.7121376968085 -285.011524647509 1.00901559108024e-011
    vertex -33.7476716027415 -285.806117760498 3.60000000000396
    vertex -33.7476716027415 -285.806117760498 1.00872682651243e-011
  endloop
endfacet
facet normal 0.60876142900842 -0.793353340291466 -8.72397449556042e-016
  outer loop
    vertex -33.7476716027415 -285.806117760498 3.60000000000396
    vertex -32.7121376968085 -285.011524647509 1.00901559108024e-011
    vertex -32.7121376968085 -285.011524647509 3.60000000000396
  endloop
endfacet
facet normal -0.382683432365408 -0.923879532511155 -3.59542935652461e-015
  outer loop
    vertex -37.5417668282543 -286.30561987302 2.00000000001008
    vertex -38.7476716027415 -285.806117760496 1.00757176824118e-011
    vertex -37.5417668282543 -286.30561987302 1.00757176824118e-011
  endloop
endfacet
facet normal -0.382683432365408 -0.923879532511155 -3.59542935652461e-015
  outer loop
    vertex -38.7476716027415 -285.806117760496 1.00757176824118e-011
    vertex -37.5417668282543 -286.30561987302 2.00000000001008
    vertex -38.7476716027415 -285.806117760496 2.00000000001008
  endloop
endfacet
facet normal 0.991444861373764 -0.130526192220408 1.9626228567124e-015
  outer loop
    vertex -31.4180424712951 -282.770085967089 3.60000000000398
    vertex -31.2476716027399 -281.475990741577 1.01045941391931e-011
    vertex -31.2476716027399 -281.475990741577 3.60000000000398
  endloop
endfacet
facet normal 0.991444861373764 -0.130526192220408 1.9626228567124e-015
  outer loop
    vertex -31.2476716027399 -281.475990741577 1.01045941391931e-011
    vertex -31.4180424712951 -282.770085967089 3.60000000000398
    vertex -31.4180424712951 -282.770085967089 1.01017064935149e-011
  endloop
endfacet
facet normal 0.991444861373859 0.130526192219684 2.72303190696863e-015
  outer loop
    vertex -31.2476716027399 -281.475990741577 3.60000000000398
    vertex -31.4180424712941 -280.181895516064 1.01074817848712e-011
    vertex -31.4180424712941 -280.181895516064 3.60000000000398
  endloop
endfacet
facet normal 0.991444861373859 0.130526192219684 2.72303190696863e-015
  outer loop
    vertex -31.4180424712941 -280.181895516064 1.01074817848712e-011
    vertex -31.2476716027399 -281.475990741577 3.60000000000398
    vertex -31.2476716027399 -281.475990741577 1.01045941391931e-011
  endloop
endfacet
facet normal -0.79335334029146 -0.608761429008428 -3.64796531134207e-015
  outer loop
    vertex -39.783205508674 -285.011524647507 1.00728300367336e-011
    vertex -40.5777986216631 -283.975990741573 2.00000000001008
    vertex -40.5777986216631 -283.975990741573 1.00757176824118e-011
  endloop
endfacet
facet normal -0.79335334029146 -0.608761429008428 -3.64796531134207e-015
  outer loop
    vertex -40.5777986216631 -283.975990741573 2.00000000001008
    vertex -39.783205508674 -285.011524647507 1.00728300367336e-011
    vertex -39.783205508674 -285.011524647507 2.00000000001007
  endloop
endfacet
facet normal 0.923879532511424 0.382683432364758 3.297870832788e-015
  outer loop
    vertex -31.4180424712941 -280.181895516064 3.60000000000398
    vertex -31.9175445838168 -278.975990741577 1.01103694305493e-011
    vertex -31.9175445838168 -278.975990741577 3.60000000000399
  endloop
endfacet
facet normal 0.923879532511424 0.382683432364758 3.297870832788e-015
  outer loop
    vertex -31.9175445838168 -278.975990741577 1.01103694305493e-011
    vertex -31.4180424712941 -280.181895516064 3.60000000000398
    vertex -31.4180424712941 -280.181895516064 1.01074817848712e-011
  endloop
endfacet
facet normal 0.793353340291455 0.608761429008434 3.64796531134207e-015
  outer loop
    vertex -31.9175445838168 -278.975990741577 3.60000000000399
    vertex -32.7121376968059 -277.940456835644 1.01132570762275e-011
    vertex -32.7121376968059 -277.940456835644 3.60000000000399
  endloop
endfacet
facet normal 0.793353340291455 0.608761429008434 3.64796531134207e-015
  outer loop
    vertex -32.7121376968059 -277.940456835644 1.01132570762275e-011
    vertex -31.9175445838168 -278.975990741577 3.60000000000399
    vertex -31.9175445838168 -278.975990741577 1.01103694305493e-011
  endloop
endfacet
facet normal 0.608761429009016 0.793353340291009 3.7494569824759e-015
  outer loop
    vertex -33.7476716027384 -277.145863722654 3.60000000000399
    vertex -32.7121376968059 -277.940456835644 1.01132570762275e-011
    vertex -33.7476716027384 -277.145863722654 1.01103694305493e-011
  endloop
endfacet
facet normal 0.608761429009016 0.793353340291009 3.7494569824759e-015
  outer loop
    vertex -32.7121376968059 -277.940456835644 1.01132570762275e-011
    vertex -33.7476716027384 -277.145863722654 3.60000000000399
    vertex -32.7121376968059 -277.940456835644 3.60000000000399
  endloop
endfacet
facet normal 0.130526192220418 0.991444861373762 2.75575611151926e-015
  outer loop
    vertex -36.2476716027381 -276.475990741575 2.00000000001011
    vertex -34.9535763772256 -276.64636161013 1.01103694305493e-011
    vertex -36.2476716027381 -276.475990741575 1.01074817848712e-011
  endloop
endfacet
facet normal 0.130526192220418 0.991444861373762 2.75575611151926e-015
  outer loop
    vertex -34.9535763772256 -276.64636161013 1.01103694305493e-011
    vertex -36.2476716027381 -276.475990741575 2.00000000001011
    vertex -35.8886877541192 -276.523251861839 2.00000000001032
  endloop
endfacet
facet normal 0.130526192220418 0.991444861373762 2.75575611151926e-015
  outer loop
    vertex -34.9535763772256 -276.64636161013 1.01103694305493e-011
    vertex -35.8886877541192 -276.523251861839 2.00000000001032
    vertex -34.9535763772256 -276.64636161013 3.60000000000399
  endloop
endfacet
facet normal 0.130526192220418 0.991444861373762 2.75575611151926e-015
  outer loop
    vertex -34.9535763772256 -276.64636161013 3.60000000000399
    vertex -35.8886877541192 -276.523251861839 2.00000000001032
    vertex -35.8886877541192 -276.523251861839 3.60000000000419
  endloop
endfacet
facet normal -0.991444861373858 -0.130526192219693 -2.72303190696865e-015
  outer loop
    vertex -41.0773007341858 -282.770085967086 1.00786053280899e-011
    vertex -41.24767160274 -281.475990741573 2.00000000001008
    vertex -41.24767160274 -281.475990741573 1.0081492973768e-011
  endloop
endfacet
facet normal -0.991444861373858 -0.130526192219693 -2.72303190696865e-015
  outer loop
    vertex -41.24767160274 -281.475990741573 2.00000000001008
    vertex -41.0773007341858 -282.770085967086 1.00786053280899e-011
    vertex -41.0773007341858 -282.770085967086 2.00000000001008
  endloop
endfacet
facet normal 0.923879532511145 -0.382683432365432 1.06846430215877e-015
  outer loop
    vertex -31.9175445838187 -283.975990741577 3.60000000000397
    vertex -31.4180424712951 -282.770085967089 1.01017064935149e-011
    vertex -31.4180424712951 -282.770085967089 3.60000000000398
  endloop
endfacet
facet normal 0.923879532511145 -0.382683432365432 1.06846430215877e-015
  outer loop
    vertex -31.4180424712951 -282.770085967089 1.01017064935149e-011
    vertex -31.9175445838187 -283.975990741577 3.60000000000397
    vertex -31.9175445838187 -283.975990741577 1.00959312021587e-011
  endloop
endfacet
facet normal -0.60876142900842 0.793353340291466 8.72397449556042e-016
  outer loop
    vertex -39.7832055086714 -277.940456835641 2.00000000001009
    vertex -38.7476716027384 -277.145863722652 1.00988188478368e-011
    vertex -39.7832055086714 -277.940456835641 1.00959312021587e-011
  endloop
endfacet
facet normal -0.60876142900842 0.793353340291466 8.72397449556042e-016
  outer loop
    vertex -38.7476716027384 -277.145863722652 1.00988188478368e-011
    vertex -39.7832055086714 -277.940456835641 2.00000000001009
    vertex -38.7476716027384 -277.145863722652 2.0000000000101
  endloop
endfacet
facet normal -0.793353340291013 0.60876142900901 -1.0149167113383e-016
  outer loop
    vertex -40.5777986216613 -278.975990741573 1.00901559108024e-011
    vertex -39.7832055086714 -277.940456835641 2.00000000001009
    vertex -39.7832055086714 -277.940456835641 1.00959312021587e-011
  endloop
endfacet
facet normal -0.793353340291013 0.60876142900901 -1.0149167113383e-016
  outer loop
    vertex -39.7832055086714 -277.940456835641 2.00000000001009
    vertex -40.5777986216613 -278.975990741573 1.00901559108024e-011
    vertex -40.5777986216613 -278.975990741573 2.00000000001009
  endloop
endfacet
facet normal -0.923879532511151 0.382683432365417 -1.06846430215883e-015
  outer loop
    vertex -41.0773007341848 -280.181895516061 1.00843806194462e-011
    vertex -40.5777986216613 -278.975990741573 2.00000000001009
    vertex -40.5777986216613 -278.975990741573 1.00901559108024e-011
  endloop
endfacet
facet normal -0.923879532511151 0.382683432365417 -1.06846430215883e-015
  outer loop
    vertex -40.5777986216613 -278.975990741573 2.00000000001009
    vertex -41.0773007341848 -280.181895516061 1.00843806194462e-011
    vertex -41.0773007341848 -280.181895516061 2.00000000001008
  endloop
endfacet
facet normal 0.608761429009035 0.793353340290994 3.7494569824759e-015
  outer loop
    vertex -37.4851084698168 -282.713427608651 2.00000000001009
    vertex -37.1226716027405 -282.991535198197 1.00930435564806e-011
    vertex -37.4851084698168 -282.713427608651 1.00930435564806e-011
  endloop
endfacet
facet normal 0.608761429009035 0.793353340290994 3.7494569824759e-015
  outer loop
    vertex -37.1226716027405 -282.991535198197 1.00930435564806e-011
    vertex -37.4851084698168 -282.713427608651 2.00000000001009
    vertex -37.1226716027405 -282.991535198197 2.00000000001009
  endloop
endfacet
facet normal 0.923879532511413 0.382683432364785 3.29787083278805e-015
  outer loop
    vertex -37.763216059363 -282.350990741574 2.00000000001009
    vertex -37.9380417987459 -281.928924070504 1.00930435564806e-011
    vertex -37.9380417987459 -281.928924070504 2.00000000001009
  endloop
endfacet
facet normal 0.923879532511413 0.382683432364785 3.29787083278805e-015
  outer loop
    vertex -37.9380417987459 -281.928924070504 1.00930435564806e-011
    vertex -37.763216059363 -282.350990741574 2.00000000001009
    vertex -37.763216059363 -282.350990741574 1.00930435564806e-011
  endloop
endfacet
facet normal 0.793353340291017 -0.608761429009004 1.01491671133856e-016
  outer loop
    vertex -32.7121376968085 -285.011524647509 3.60000000000396
    vertex -31.9175445838187 -283.975990741577 1.00959312021587e-011
    vertex -31.9175445838187 -283.975990741577 3.60000000000397
  endloop
endfacet
facet normal 0.793353340291017 -0.608761429009004 1.01491671133856e-016
  outer loop
    vertex -31.9175445838187 -283.975990741577 1.00959312021587e-011
    vertex -32.7121376968085 -285.011524647509 3.60000000000396
    vertex -32.7121376968085 -285.011524647509 1.00901559108024e-011
  endloop
endfacet
facet normal 0.99144486137386 0.130526192219678 2.72303190696861e-015
  outer loop
    vertex -37.9380417987459 -281.928924070504 2.00000000001009
    vertex -37.9976716027399 -281.475990741574 1.00930435564806e-011
    vertex -37.9976716027399 -281.475990741574 2.00000000001009
  endloop
endfacet
facet normal 0.99144486137386 0.130526192219678 2.72303190696861e-015
  outer loop
    vertex -37.9976716027399 -281.475990741574 1.00930435564806e-011
    vertex -37.9380417987459 -281.928924070504 2.00000000001009
    vertex -37.9380417987459 -281.928924070504 1.00930435564806e-011
  endloop
endfacet
facet normal -0.130526192219687 0.991444861373859 2.57950100918328e-015
  outer loop
    vertex -37.5417668282508 -276.646361610129 2.00000000001011
    vertex -36.2476716027381 -276.475990741575 1.01074817848712e-011
    vertex -37.5417668282508 -276.646361610129 1.01045941391931e-011
  endloop
endfacet
facet normal -0.130526192219687 0.991444861373859 2.57950100918328e-015
  outer loop
    vertex -36.2476716027381 -276.475990741575 1.01074817848712e-011
    vertex -37.5417668282508 -276.646361610129 2.00000000001011
    vertex -36.2476716027381 -276.475990741575 2.00000000001011
  endloop
endfacet
facet normal -0.130526192219789 0.991444861373845 2.9952669230557e-015
  outer loop
    vertex -36.2476716027401 -283.225990741575 2.00000000001007
    vertex -35.7947382738112 -283.166360937581 1.00930435564806e-011
    vertex -36.2476716027401 -283.225990741575 1.00699423910555e-011
  endloop
endfacet
facet normal -0.130526192219789 0.991444861373845 2.9952669230557e-015
  outer loop
    vertex -35.7947382738112 -283.166360937581 1.00930435564806e-011
    vertex -36.2476716027401 -283.225990741575 2.00000000001007
    vertex -35.8886877541208 -283.178729621311 2.0000000000102
  endloop
endfacet
facet normal -0.130526192219789 0.991444861373845 2.9952669230557e-015
  outer loop
    vertex -35.7947382738112 -283.166360937581 1.00930435564806e-011
    vertex -35.8886877541208 -283.178729621311 2.0000000000102
    vertex -35.7947382738112 -283.166360937581 3.60000000000397
  endloop
endfacet
facet normal -0.130526192219789 0.991444861373845 2.9952669230557e-015
  outer loop
    vertex -35.7947382738112 -283.166360937581 3.60000000000397
    vertex -35.8886877541208 -283.178729621311 2.0000000000102
    vertex -35.8886877541208 -283.178729621311 3.60000000000408
  endloop
endfacet
facet normal -0.608761429009016 -0.793353340291009 -3.7494569824759e-015
  outer loop
    vertex -38.7476716027415 -285.806117760496 1.00757176824118e-011
    vertex -39.783205508674 -285.011524647507 2.00000000001007
    vertex -39.783205508674 -285.011524647507 1.00728300367336e-011
  endloop
endfacet
facet normal -0.608761429009016 -0.793353340291009 -3.7494569824759e-015
  outer loop
    vertex -39.783205508674 -285.011524647507 2.00000000001007
    vertex -38.7476716027415 -285.806117760496 1.00757176824118e-011
    vertex -38.7476716027415 -285.806117760496 2.00000000001008
  endloop
endfacet
facet normal 0.991444861373762 -0.130526192220417 1.96262285671237e-015
  outer loop
    vertex -37.9976716027399 -281.475990741574 2.00000000001009
    vertex -37.9380417987456 -281.023057412645 1.00930435564806e-011
    vertex -37.9380417987456 -281.023057412645 2.00000000001009
  endloop
endfacet
facet normal 0.991444861373762 -0.130526192220417 1.96262285671237e-015
  outer loop
    vertex -37.9380417987456 -281.023057412645 1.00930435564806e-011
    vertex -37.9976716027399 -281.475990741574 2.00000000001009
    vertex -37.9976716027399 -281.475990741574 1.00930435564806e-011
  endloop
endfacet
facet normal 0.923879532511158 -0.382683432365402 1.06846430215889e-015
  outer loop
    vertex -37.9380417987456 -281.023057412645 2.00000000001009
    vertex -37.7632160593624 -280.600990741575 1.00930435564806e-011
    vertex -37.7632160593624 -280.600990741575 2.00000000001009
  endloop
endfacet
facet normal 0.923879532511158 -0.382683432365402 1.06846430215889e-015
  outer loop
    vertex -37.7632160593624 -280.600990741575 1.00930435564806e-011
    vertex -37.9380417987456 -281.023057412645 2.00000000001009
    vertex -37.9380417987456 -281.023057412645 1.00930435564806e-011
  endloop
endfacet
facet normal 0.130526192219659 -0.991444861373862 -2.57950100918336e-015
  outer loop
    vertex -36.2476716027393 -279.725990741575 1.01045941391931e-011
    vertex -36.7006049316687 -279.785620545569 2.00000000001009
    vertex -36.7006049316687 -279.785620545569 1.00930435564806e-011
  endloop
endfacet
facet normal 0.130526192219659 -0.991444861373862 -2.57950100918336e-015
  outer loop
    vertex -36.7006049316687 -279.785620545569 2.00000000001009
    vertex -36.2476716027393 -279.725990741575 1.01045941391931e-011
    vertex -36.2476716027393 -279.725990741575 2.00000000001011
  endloop
endfacet
facet normal 0.608761429008447 -0.793353340291445 -8.72397449555916e-016
  outer loop
    vertex -37.1226716027394 -279.960446284952 2.00000000001009
    vertex -37.4851084698159 -280.238553874498 1.00930435564806e-011
    vertex -37.1226716027394 -279.960446284952 1.00930435564806e-011
  endloop
endfacet
facet normal 0.608761429008447 -0.793353340291445 -8.72397449555916e-016
  outer loop
    vertex -37.4851084698159 -280.238553874498 1.00930435564806e-011
    vertex -37.1226716027394 -279.960446284952 2.00000000001009
    vertex -37.4851084698159 -280.238553874498 2.00000000001009
  endloop
endfacet
facet normal -0.130526192220415 -0.991444861373763 -1.71307489483698e-015
  outer loop
    vertex -35.7947382738099 -279.785620545569 1.00930435564806e-011
    vertex -35.88868775412 -279.77325186184 2.00000000001026
    vertex -36.2476716027393 -279.725990741575 1.01045941391931e-011
  endloop
endfacet
facet normal -0.130526192220415 -0.991444861373763 -1.71307489483698e-015
  outer loop
    vertex -35.88868775412 -279.77325186184 2.00000000001026
    vertex -35.7947382738099 -279.785620545569 1.00930435564806e-011
    vertex -35.7947382738099 -279.785620545569 3.60000000000397
  endloop
endfacet
facet normal -0.130526192220415 -0.991444861373763 -1.71307489483698e-015
  outer loop
    vertex -36.2476716027393 -279.725990741575 1.01045941391931e-011
    vertex -35.88868775412 -279.77325186184 2.00000000001026
    vertex -36.2476716027393 -279.725990741575 2.00000000001011
  endloop
endfacet
facet normal -0.130526192220415 -0.991444861373763 -1.71307489483698e-015
  outer loop
    vertex -35.88868775412 -279.77325186184 2.00000000001026
    vertex -35.7947382738099 -279.785620545569 3.60000000000397
    vertex -35.88868775412 -279.77325186184 3.60000000000414
  endloop
endfacet
facet normal -0.38268343236542 -0.92387953251115 -3.59542935652463e-015
  outer loop
    vertex -35.3726716027394 -279.960446284953 3.60000000000397
    vertex -35.7947382738099 -279.785620545569 1.00930435564806e-011
    vertex -35.3726716027394 -279.960446284953 1.00930435564806e-011
  endloop
endfacet
facet normal -0.38268343236542 -0.92387953251115 -3.59542935652463e-015
  outer loop
    vertex -35.7947382738099 -279.785620545569 1.00930435564806e-011
    vertex -35.3726716027394 -279.960446284953 3.60000000000397
    vertex -35.7947382738099 -279.785620545569 3.60000000000397
  endloop
endfacet
facet normal 0.382683432364789 -0.923879532511411 -1.78683412576339e-015
  outer loop
    vertex -36.7006049316687 -279.785620545569 2.00000000001009
    vertex -37.1226716027394 -279.960446284952 1.00930435564806e-011
    vertex -36.7006049316687 -279.785620545569 1.00930435564806e-011
  endloop
endfacet
facet normal 0.382683432364789 -0.923879532511411 -1.78683412576339e-015
  outer loop
    vertex -37.1226716027394 -279.960446284952 1.00930435564806e-011
    vertex -36.7006049316687 -279.785620545569 2.00000000001009
    vertex -37.1226716027394 -279.960446284952 2.00000000001009
  endloop
endfacet
facet normal -0.608761429009035 -0.793353340290994 -3.7494569824759e-015
  outer loop
    vertex -35.0102347356631 -280.238553874499 3.60000000000397
    vertex -35.3726716027394 -279.960446284953 1.00930435564806e-011
    vertex -35.0102347356631 -280.238553874499 1.00930435564806e-011
  endloop
endfacet
facet normal -0.608761429009035 -0.793353340290994 -3.7494569824759e-015
  outer loop
    vertex -35.3726716027394 -279.960446284953 1.00930435564806e-011
    vertex -35.0102347356631 -280.238553874499 3.60000000000397
    vertex -35.3726716027394 -279.960446284953 3.60000000000397
  endloop
endfacet
facet normal 0.793353340291 -0.608761429009028 1.01491671133746e-016
  outer loop
    vertex -37.7632160593624 -280.600990741575 2.00000000001009
    vertex -37.4851084698159 -280.238553874498 1.00930435564806e-011
    vertex -37.4851084698159 -280.238553874498 2.00000000001009
  endloop
endfacet
facet normal 0.793353340291 -0.608761429009028 1.01491671133746e-016
  outer loop
    vertex -37.4851084698159 -280.238553874498 1.00930435564806e-011
    vertex -37.7632160593624 -280.600990741575 2.00000000001009
    vertex -37.7632160593624 -280.600990741575 1.00930435564806e-011
  endloop
endfacet
facet normal -0.793353340291 0.608761429009028 -1.01491671133746e-016
  outer loop
    vertex -35.010234735664 -282.713427608652 1.00930435564806e-011
    vertex -34.7321271461176 -282.350990741576 3.60000000000397
    vertex -34.7321271461176 -282.350990741576 1.00930435564806e-011
  endloop
endfacet
facet normal -0.793353340291 0.608761429009028 -1.01491671133746e-016
  outer loop
    vertex -34.7321271461176 -282.350990741576 3.60000000000397
    vertex -35.010234735664 -282.713427608652 1.00930435564806e-011
    vertex -35.010234735664 -282.713427608652 3.60000000000397
  endloop
endfacet
facet normal -0.991444861373762 0.130526192220417 -1.96262285671237e-015
  outer loop
    vertex -34.5573014067343 -281.928924070505 1.00930435564806e-011
    vertex -34.49767160274 -281.475990741576 3.60000000000397
    vertex -34.49767160274 -281.475990741576 1.00930435564806e-011
  endloop
endfacet
facet normal -0.991444861373762 0.130526192220417 -1.96262285671237e-015
  outer loop
    vertex -34.49767160274 -281.475990741576 3.60000000000397
    vertex -34.5573014067343 -281.928924070505 1.00930435564806e-011
    vertex -34.5573014067343 -281.928924070505 3.60000000000397
  endloop
endfacet
facet normal -0.923879532511158 0.382683432365402 -1.06846430215889e-015
  outer loop
    vertex -34.7321271461176 -282.350990741576 1.00930435564806e-011
    vertex -34.5573014067343 -281.928924070505 3.60000000000397
    vertex -34.5573014067343 -281.928924070505 1.00930435564806e-011
  endloop
endfacet
facet normal -0.923879532511158 0.382683432365402 -1.06846430215889e-015
  outer loop
    vertex -34.5573014067343 -281.928924070505 3.60000000000397
    vertex -34.7321271461176 -282.350990741576 1.00930435564806e-011
    vertex -34.7321271461176 -282.350990741576 3.60000000000397
  endloop
endfacet
facet normal -0.608761429008447 0.793353340291445 8.72397449555916e-016
  outer loop
    vertex -35.3726716027405 -282.991535198198 3.60000000000397
    vertex -35.010234735664 -282.713427608652 1.00930435564806e-011
    vertex -35.3726716027405 -282.991535198198 1.00930435564806e-011
  endloop
endfacet
facet normal -0.608761429008447 0.793353340291445 8.72397449555916e-016
  outer loop
    vertex -35.010234735664 -282.713427608652 1.00930435564806e-011
    vertex -35.3726716027405 -282.991535198198 3.60000000000397
    vertex -35.010234735664 -282.713427608652 3.60000000000397
  endloop
endfacet
facet normal -0.923879532511422 -0.382683432364764 -3.29787083278801e-015
  outer loop
    vertex -34.557301406734 -281.023057412646 1.00930435564806e-011
    vertex -34.7321271461169 -280.600990741576 3.60000000000397
    vertex -34.7321271461169 -280.600990741576 1.00930435564806e-011
  endloop
endfacet
facet normal -0.923879532511422 -0.382683432364764 -3.29787083278801e-015
  outer loop
    vertex -34.7321271461169 -280.600990741576 3.60000000000397
    vertex -34.557301406734 -281.023057412646 1.00930435564806e-011
    vertex -34.557301406734 -281.023057412646 3.60000000000397
  endloop
endfacet
facet normal -0.793353340291451 -0.60876142900844 -3.64796531134208e-015
  outer loop
    vertex -34.7321271461169 -280.600990741576 1.00930435564806e-011
    vertex -35.0102347356631 -280.238553874499 3.60000000000397
    vertex -35.0102347356631 -280.238553874499 1.00930435564806e-011
  endloop
endfacet
facet normal -0.793353340291451 -0.60876142900844 -3.64796531134208e-015
  outer loop
    vertex -35.0102347356631 -280.238553874499 3.60000000000397
    vertex -34.7321271461169 -280.600990741576 1.00930435564806e-011
    vertex -34.7321271461169 -280.600990741576 3.60000000000397
  endloop
endfacet
facet normal -0.382683432364789 0.923879532511411 1.78683412576339e-015
  outer loop
    vertex -35.7947382738112 -283.166360937581 3.60000000000397
    vertex -35.3726716027405 -282.991535198198 1.00930435564806e-011
    vertex -35.7947382738112 -283.166360937581 1.00930435564806e-011
  endloop
endfacet
facet normal -0.382683432364789 0.923879532511411 1.78683412576339e-015
  outer loop
    vertex -35.3726716027405 -282.991535198198 1.00930435564806e-011
    vertex -35.7947382738112 -283.166360937581 3.60000000000397
    vertex -35.3726716027405 -282.991535198198 3.60000000000397
  endloop
endfacet
facet normal -0.991444861373856 -0.130526192219702 -2.72303190696868e-015
  outer loop
    vertex -34.49767160274 -281.475990741576 1.00930435564806e-011
    vertex -34.557301406734 -281.023057412646 3.60000000000397
    vertex -34.557301406734 -281.023057412646 1.00930435564806e-011
  endloop
endfacet
facet normal -0.991444861373856 -0.130526192219702 -2.72303190696868e-015
  outer loop
    vertex -34.557301406734 -281.023057412646 3.60000000000397
    vertex -34.49767160274 -281.475990741576 1.00930435564806e-011
    vertex -34.49767160274 -281.475990741576 3.60000000000397
  endloop
endfacet
facet normal -1.66510434896012e-014 -4.88059014864022e-015 1.0
  outer loop
    vertex -36.2476716027381 -276.475990741575 2.00000000001011
    vertex -35.88868775412 -279.77325186184 2.00000000001026
    vertex -35.8886877541192 -276.523251861839 2.00000000001032
  endloop
endfacet
facet normal -1.66510434896012e-014 -4.88059014864022e-015 1.0
  outer loop
    vertex -35.88868775412 -279.77325186184 2.00000000001026
    vertex -36.2476716027381 -276.475990741575 2.00000000001011
    vertex -36.2476716027393 -279.725990741575 2.00000000001011
  endloop
endfacet
facet normal -1.66510434896012e-014 -4.88059014864022e-015 1.0
  outer loop
    vertex -36.2476716027393 -279.725990741575 2.00000000001011
    vertex -36.2476716027381 -276.475990741575 2.00000000001011
    vertex -37.5417668282508 -276.646361610129 2.00000000001011
  endloop
endfacet
facet normal -1.66510434896012e-014 -4.88059014864022e-015 1.0
  outer loop
    vertex -36.2476716027393 -279.725990741575 2.00000000001011
    vertex -37.5417668282508 -276.646361610129 2.00000000001011
    vertex -36.7006049316687 -279.785620545569 2.00000000001009
  endloop
endfacet
facet normal -1.66510434896012e-014 -4.88059014864022e-015 1.0
  outer loop
    vertex -36.7006049316687 -279.785620545569 2.00000000001009
    vertex -37.5417668282508 -276.646361610129 2.00000000001011
    vertex -37.1226716027394 -279.960446284952 2.00000000001009
  endloop
endfacet
facet normal -1.66510434896012e-014 -4.88059014864022e-015 1.0
  outer loop
    vertex -37.1226716027394 -279.960446284952 2.00000000001009
    vertex -37.5417668282508 -276.646361610129 2.00000000001011
    vertex -37.4851084698159 -280.238553874498 2.00000000001009
  endloop
endfacet
facet normal -1.66510434896012e-014 -4.88059014864022e-015 1.0
  outer loop
    vertex -37.4851084698159 -280.238553874498 2.00000000001009
    vertex -37.5417668282508 -276.646361610129 2.00000000001011
    vertex -37.7632160593624 -280.600990741575 2.00000000001009
  endloop
endfacet
facet normal -1.66510434896012e-014 -4.88059014864022e-015 1.0
  outer loop
    vertex -37.7632160593624 -280.600990741575 2.00000000001009
    vertex -37.5417668282508 -276.646361610129 2.00000000001011
    vertex -38.7476716027384 -277.145863722652 2.0000000000101
  endloop
endfacet
facet normal -1.66510434896012e-014 -4.88059014864022e-015 1.0
  outer loop
    vertex -37.7632160593624 -280.600990741575 2.00000000001009
    vertex -38.7476716027384 -277.145863722652 2.0000000000101
    vertex -37.9380417987456 -281.023057412645 2.00000000001009
  endloop
endfacet
facet normal -1.66510434896012e-014 -4.88059014864022e-015 1.0
  outer loop
    vertex -37.9380417987456 -281.023057412645 2.00000000001009
    vertex -38.7476716027384 -277.145863722652 2.0000000000101
    vertex -37.9976716027399 -281.475990741574 2.00000000001009
  endloop
endfacet
facet normal -1.66510434896012e-014 -4.88059014864022e-015 1.0
  outer loop
    vertex -36.2476716027401 -283.225990741575 2.00000000001007
    vertex -35.8886877541215 -286.428729621311 2.0000000000102
    vertex -35.8886877541208 -283.178729621311 2.0000000000102
  endloop
endfacet
facet normal -1.66510434896012e-014 -4.88059014864022e-015 1.0
  outer loop
    vertex -35.8886877541215 -286.428729621311 2.0000000000102
    vertex -36.2476716027401 -283.225990741575 2.00000000001007
    vertex -36.2476716027418 -286.475990741575 2.00000000001008
  endloop
endfacet
facet normal -1.66510434896012e-014 -4.88059014864022e-015 1.0
  outer loop
    vertex -36.2476716027418 -286.475990741575 2.00000000001008
    vertex -36.2476716027401 -283.225990741575 2.00000000001007
    vertex -36.70060493167 -283.166360937581 2.00000000001009
  endloop
endfacet
facet normal -1.66510434896012e-014 -4.88059014864022e-015 1.0
  outer loop
    vertex -36.2476716027418 -286.475990741575 2.00000000001008
    vertex -36.70060493167 -283.166360937581 2.00000000001009
    vertex -37.5417668282543 -286.30561987302 2.00000000001008
  endloop
endfacet
facet normal -1.66510434896012e-014 -4.88059014864022e-015 1.0
  outer loop
    vertex -37.5417668282543 -286.30561987302 2.00000000001008
    vertex -36.70060493167 -283.166360937581 2.00000000001009
    vertex -37.1226716027405 -282.991535198197 2.00000000001009
  endloop
endfacet
facet normal -1.66510434896012e-014 -4.88059014864022e-015 1.0
  outer loop
    vertex -37.5417668282543 -286.30561987302 2.00000000001008
    vertex -37.1226716027405 -282.991535198197 2.00000000001009
    vertex -37.4851084698168 -282.713427608651 2.00000000001009
  endloop
endfacet
facet normal -1.66510434896012e-014 -4.88059014864022e-015 1.0
  outer loop
    vertex -37.5417668282543 -286.30561987302 2.00000000001008
    vertex -37.4851084698168 -282.713427608651 2.00000000001009
    vertex -37.763216059363 -282.350990741574 2.00000000001009
  endloop
endfacet
facet normal -1.66510434896012e-014 -4.88059014864022e-015 1.0
  outer loop
    vertex -37.5417668282543 -286.30561987302 2.00000000001008
    vertex -37.763216059363 -282.350990741574 2.00000000001009
    vertex -38.7476716027415 -285.806117760496 2.00000000001008
  endloop
endfacet
facet normal -1.66510434896012e-014 -4.88059014864022e-015 1.0
  outer loop
    vertex -38.7476716027415 -285.806117760496 2.00000000001008
    vertex -37.763216059363 -282.350990741574 2.00000000001009
    vertex -37.9380417987459 -281.928924070504 2.00000000001009
  endloop
endfacet
facet normal -1.66510434896012e-014 -4.88059014864022e-015 1.0
  outer loop
    vertex -38.7476716027415 -285.806117760496 2.00000000001008
    vertex -37.9380417987459 -281.928924070504 2.00000000001009
    vertex -37.9976716027399 -281.475990741574 2.00000000001009
  endloop
endfacet
facet normal -1.66510434896012e-014 -4.88059014864022e-015 1.0
  outer loop
    vertex -38.7476716027415 -285.806117760496 2.00000000001008
    vertex -37.9976716027399 -281.475990741574 2.00000000001009
    vertex -38.7476716027384 -277.145863722652 2.0000000000101
  endloop
endfacet
facet normal -1.66510434896012e-014 -4.88059014864022e-015 1.0
  outer loop
    vertex -38.7476716027415 -285.806117760496 2.00000000001008
    vertex -38.7476716027384 -277.145863722652 2.0000000000101
    vertex -39.7832055086714 -277.940456835641 2.00000000001009
  endloop
endfacet
facet normal -1.66510434896012e-014 -4.88059014864022e-015 1.0
  outer loop
    vertex -38.7476716027415 -285.806117760496 2.00000000001008
    vertex -39.7832055086714 -277.940456835641 2.00000000001009
    vertex -39.783205508674 -285.011524647507 2.00000000001007
  endloop
endfacet
facet normal -1.66510434896012e-014 -4.88059014864022e-015 1.0
  outer loop
    vertex -39.783205508674 -285.011524647507 2.00000000001007
    vertex -39.7832055086714 -277.940456835641 2.00000000001009
    vertex -40.5777986216613 -278.975990741573 2.00000000001009
  endloop
endfacet
facet normal -1.66510434896012e-014 -4.88059014864022e-015 1.0
  outer loop
    vertex -39.783205508674 -285.011524647507 2.00000000001007
    vertex -40.5777986216613 -278.975990741573 2.00000000001009
    vertex -40.5777986216631 -283.975990741573 2.00000000001008
  endloop
endfacet
facet normal -1.66510434896012e-014 -4.88059014864022e-015 1.0
  outer loop
    vertex -40.5777986216631 -283.975990741573 2.00000000001008
    vertex -40.5777986216613 -278.975990741573 2.00000000001009
    vertex -41.0773007341848 -280.181895516061 2.00000000001008
  endloop
endfacet
facet normal -1.66510434896012e-014 -4.88059014864022e-015 1.0
  outer loop
    vertex -40.5777986216631 -283.975990741573 2.00000000001008
    vertex -41.0773007341848 -280.181895516061 2.00000000001008
    vertex -41.0773007341858 -282.770085967086 2.00000000001008
  endloop
endfacet
facet normal -1.66510434896012e-014 -4.88059014864022e-015 1.0
  outer loop
    vertex -41.0773007341858 -282.770085967086 2.00000000001008
    vertex -41.0773007341848 -280.181895516061 2.00000000001008
    vertex -41.24767160274 -281.475990741573 2.00000000001008
  endloop
endfacet
facet normal 1.39576245442538e-014 -5.30759400825177e-015 1.0
  outer loop
    vertex -31.4180424712941 -280.181895516064 3.60000000000398
    vertex -31.4180424712951 -282.770085967089 3.60000000000398
    vertex -31.2476716027399 -281.475990741577 3.60000000000398
  endloop
endfacet
facet normal 1.39576245442538e-014 -5.30759400825177e-015 1.0
  outer loop
    vertex -31.4180424712951 -282.770085967089 3.60000000000398
    vertex -31.4180424712941 -280.181895516064 3.60000000000398
    vertex -31.9175445838168 -278.975990741577 3.60000000000399
  endloop
endfacet
facet normal 1.39576245442538e-014 -5.30759400825177e-015 1.0
  outer loop
    vertex -31.4180424712951 -282.770085967089 3.60000000000398
    vertex -31.9175445838168 -278.975990741577 3.60000000000399
    vertex -31.9175445838187 -283.975990741577 3.60000000000397
  endloop
endfacet
facet normal 1.39576245442538e-014 -5.30759400825177e-015 1.0
  outer loop
    vertex -31.9175445838187 -283.975990741577 3.60000000000397
    vertex -31.9175445838168 -278.975990741577 3.60000000000399
    vertex -32.7121376968059 -277.940456835644 3.60000000000399
  endloop
endfacet
facet normal 1.39576245442538e-014 -5.30759400825177e-015 1.0
  outer loop
    vertex -31.9175445838187 -283.975990741577 3.60000000000397
    vertex -32.7121376968059 -277.940456835644 3.60000000000399
    vertex -32.7121376968085 -285.011524647509 3.60000000000396
  endloop
endfacet
facet normal 1.39576245442538e-014 -5.30759400825177e-015 1.0
  outer loop
    vertex -32.7121376968085 -285.011524647509 3.60000000000396
    vertex -32.7121376968059 -277.940456835644 3.60000000000399
    vertex -33.7476716027384 -277.145863722654 3.60000000000399
  endloop
endfacet
facet normal 1.39576245442538e-014 -5.30759400825177e-015 1.0
  outer loop
    vertex -32.7121376968085 -285.011524647509 3.60000000000396
    vertex -33.7476716027384 -277.145863722654 3.60000000000399
    vertex -33.7476716027415 -285.806117760498 3.60000000000396
  endloop
endfacet
facet normal 1.39576245442538e-014 -5.30759400825177e-015 1.0
  outer loop
    vertex -33.7476716027415 -285.806117760498 3.60000000000396
    vertex -33.7476716027384 -277.145863722654 3.60000000000399
    vertex -34.9535763772256 -276.64636161013 3.60000000000399
  endloop
endfacet
facet normal 1.39576245442538e-014 -5.30759400825177e-015 1.0
  outer loop
    vertex -33.7476716027415 -285.806117760498 3.60000000000396
    vertex -34.9535763772256 -276.64636161013 3.60000000000399
    vertex -34.49767160274 -281.475990741576 3.60000000000397
  endloop
endfacet
facet normal 1.39576245442538e-014 -5.30759400825177e-015 1.0
  outer loop
    vertex -34.49767160274 -281.475990741576 3.60000000000397
    vertex -34.9535763772256 -276.64636161013 3.60000000000399
    vertex -34.557301406734 -281.023057412646 3.60000000000397
  endloop
endfacet
facet normal 1.39576245442538e-014 -5.30759400825177e-015 1.0
  outer loop
    vertex -34.557301406734 -281.023057412646 3.60000000000397
    vertex -34.9535763772256 -276.64636161013 3.60000000000399
    vertex -34.7321271461169 -280.600990741576 3.60000000000397
  endloop
endfacet
facet normal 1.39576245442538e-014 -5.30759400825177e-015 1.0
  outer loop
    vertex -34.7321271461169 -280.600990741576 3.60000000000397
    vertex -34.9535763772256 -276.64636161013 3.60000000000399
    vertex -35.0102347356631 -280.238553874499 3.60000000000397
  endloop
endfacet
facet normal 1.39576245442538e-014 -5.30759400825177e-015 1.0
  outer loop
    vertex -35.0102347356631 -280.238553874499 3.60000000000397
    vertex -34.9535763772256 -276.64636161013 3.60000000000399
    vertex -35.8886877541192 -276.523251861839 3.60000000000419
  endloop
endfacet
facet normal 1.39576245442538e-014 -5.30759400825177e-015 1.0
  outer loop
    vertex -35.0102347356631 -280.238553874499 3.60000000000397
    vertex -35.8886877541192 -276.523251861839 3.60000000000419
    vertex -35.3726716027394 -279.960446284953 3.60000000000397
  endloop
endfacet
facet normal 1.39576245442538e-014 -5.30759400825177e-015 1.0
  outer loop
    vertex -35.3726716027394 -279.960446284953 3.60000000000397
    vertex -35.8886877541192 -276.523251861839 3.60000000000419
    vertex -35.7947382738099 -279.785620545569 3.60000000000397
  endloop
endfacet
facet normal 1.39576245442538e-014 -5.30759400825177e-015 1.0
  outer loop
    vertex -35.7947382738099 -279.785620545569 3.60000000000397
    vertex -35.8886877541192 -276.523251861839 3.60000000000419
    vertex -35.88868775412 -279.77325186184 3.60000000000414
  endloop
endfacet
facet normal 1.39576245442538e-014 -5.30759400825177e-015 1.0
  outer loop
    vertex -34.49767160274 -281.475990741576 3.60000000000397
    vertex -34.9535763772291 -286.305619873021 3.60000000000396
    vertex -33.7476716027415 -285.806117760498 3.60000000000396
  endloop
endfacet
facet normal 1.39576245442538e-014 -5.30759400825177e-015 1.0
  outer loop
    vertex -34.9535763772291 -286.305619873021 3.60000000000396
    vertex -34.49767160274 -281.475990741576 3.60000000000397
    vertex -34.5573014067343 -281.928924070505 3.60000000000397
  endloop
endfacet
facet normal 1.39576245442538e-014 -5.30759400825177e-015 1.0
  outer loop
    vertex -34.9535763772291 -286.305619873021 3.60000000000396
    vertex -34.5573014067343 -281.928924070505 3.60000000000397
    vertex -34.7321271461176 -282.350990741576 3.60000000000397
  endloop
endfacet
facet normal 1.39576245442538e-014 -5.30759400825177e-015 1.0
  outer loop
    vertex -34.9535763772291 -286.305619873021 3.60000000000396
    vertex -34.7321271461176 -282.350990741576 3.60000000000397
    vertex -35.010234735664 -282.713427608652 3.60000000000397
  endloop
endfacet
facet normal 1.39576245442538e-014 -5.30759400825177e-015 1.0
  outer loop
    vertex -34.9535763772291 -286.305619873021 3.60000000000396
    vertex -35.010234735664 -282.713427608652 3.60000000000397
    vertex -35.8886877541215 -286.428729621311 3.60000000000408
  endloop
endfacet
facet normal 1.39576245442538e-014 -5.30759400825177e-015 1.0
  outer loop
    vertex -35.8886877541215 -286.428729621311 3.60000000000408
    vertex -35.010234735664 -282.713427608652 3.60000000000397
    vertex -35.3726716027405 -282.991535198198 3.60000000000397
  endloop
endfacet
facet normal 1.39576245442538e-014 -5.30759400825177e-015 1.0
  outer loop
    vertex -35.8886877541215 -286.428729621311 3.60000000000408
    vertex -35.3726716027405 -282.991535198198 3.60000000000397
    vertex -35.7947382738112 -283.166360937581 3.60000000000397
  endloop
endfacet
facet normal 1.39576245442538e-014 -5.30759400825177e-015 1.0
  outer loop
    vertex -35.8886877541215 -286.428729621311 3.60000000000408
    vertex -35.7947382738112 -283.166360937581 3.60000000000397
    vertex -35.8886877541208 -283.178729621311 3.60000000000408
  endloop
endfacet
facet normal -1.0 2.2859492077032e-013 1.3957624544255e-014
  outer loop
    vertex -35.8886877541215 -286.428729621311 2.0000000000102
    vertex -35.8886877541208 -283.178729621311 3.60000000000408
    vertex -35.8886877541208 -283.178729621311 2.0000000000102
  endloop
endfacet
facet normal -1.0 2.2859492077032e-013 1.3957624544255e-014
  outer loop
    vertex -35.8886877541208 -283.178729621311 3.60000000000408
    vertex -35.8886877541215 -286.428729621311 2.0000000000102
    vertex -35.8886877541215 -286.428729621311 3.60000000000408
  endloop
endfacet
facet normal -1.0 2.2859492077032e-013 0.0
  outer loop
    vertex -35.88868775412 -279.77325186184 2.00000000001026
    vertex -35.8886877541192 -276.523251861839 3.60000000000419
    vertex -35.8886877541192 -276.523251861839 2.00000000001032
  endloop
endfacet
facet normal -1.0 2.2859492077032e-013 0.0
  outer loop
    vertex -35.8886877541192 -276.523251861839 3.60000000000419
    vertex -35.88868775412 -279.77325186184 2.00000000001026
    vertex -35.88868775412 -279.77325186184 3.60000000000414
  endloop
endfacet
endsolid Omnidroid
