%TF.GenerationSoftware,KiCad,Pcbnew,7.0.8*%
%TF.CreationDate,2024-02-22T19:19:46-05:00*%
%TF.ProjectId,Mainboard,4d61696e-626f-4617-9264-2e6b69636164,rev?*%
%TF.SameCoordinates,PX7a53eb0PY8ca36b0*%
%TF.FileFunction,Copper,L2,Bot*%
%TF.FilePolarity,Positive*%
%FSLAX46Y46*%
G04 Gerber Fmt 4.6, Leading zero omitted, Abs format (unit mm)*
G04 Created by KiCad (PCBNEW 7.0.8) date 2024-02-22 19:19:46*
%MOMM*%
%LPD*%
G01*
G04 APERTURE LIST*
%TA.AperFunction,ComponentPad*%
%ADD10R,1.700000X1.700000*%
%TD*%
%TA.AperFunction,ComponentPad*%
%ADD11O,1.700000X1.700000*%
%TD*%
%TA.AperFunction,ComponentPad*%
%ADD12R,2.200000X2.200000*%
%TD*%
%TA.AperFunction,ComponentPad*%
%ADD13O,2.200000X2.200000*%
%TD*%
%TA.AperFunction,ComponentPad*%
%ADD14C,1.600000*%
%TD*%
%TA.AperFunction,ComponentPad*%
%ADD15O,1.600000X1.600000*%
%TD*%
%TA.AperFunction,ComponentPad*%
%ADD16C,1.524000*%
%TD*%
%TA.AperFunction,ComponentPad*%
%ADD17R,2.500000X1.000000*%
%TD*%
%TA.AperFunction,ComponentPad*%
%ADD18R,1.000000X2.500000*%
%TD*%
%TA.AperFunction,ComponentPad*%
%ADD19O,1.500000X2.000000*%
%TD*%
%TA.AperFunction,ViaPad*%
%ADD20C,2.000000*%
%TD*%
%TA.AperFunction,Conductor*%
%ADD21C,0.750000*%
%TD*%
%TA.AperFunction,Conductor*%
%ADD22C,1.000000*%
%TD*%
%TA.AperFunction,Conductor*%
%ADD23C,2.000000*%
%TD*%
%TA.AperFunction,Conductor*%
%ADD24C,1.500000*%
%TD*%
G04 APERTURE END LIST*
D10*
%TO.P,J5,1,Pin_1*%
%TO.N,/SERVO 1*%
X53340000Y10945000D03*
D11*
%TO.P,J5,2,Pin_2*%
%TO.N,/+BATT SW*%
X53340000Y8405000D03*
%TO.P,J5,3,Pin_3*%
%TO.N,GND*%
X53340000Y5865000D03*
%TD*%
D10*
%TO.P,F2,1*%
%TO.N,Net-(U5-OUT)*%
X53335000Y27455000D03*
D11*
%TO.P,F2,2*%
%TO.N,+10V*%
X55875000Y27455000D03*
%TD*%
D10*
%TO.P,J6,1,Pin_1*%
%TO.N,/SERVO 2*%
X57150000Y10930000D03*
D11*
%TO.P,J6,2,Pin_2*%
%TO.N,/+BATT SW*%
X57150000Y8390000D03*
%TO.P,J6,3,Pin_3*%
%TO.N,GND*%
X57150000Y5850000D03*
%TD*%
D12*
%TO.P,D1,1,K*%
%TO.N,Net-(D1-K)*%
X5715000Y24280000D03*
D13*
%TO.P,D1,2,A*%
%TO.N,/+BATT SW*%
X5715000Y16660000D03*
%TD*%
D10*
%TO.P,SW1,1*%
%TO.N,+BATT*%
X19680000Y2690000D03*
D11*
%TO.P,SW1,2*%
%TO.N,Net-(F1-Pad1)*%
X22220000Y2690000D03*
%TD*%
D14*
%TO.P,R2,1*%
%TO.N,GND*%
X43180000Y54760000D03*
D15*
%TO.P,R2,2*%
%TO.N,/BAT READ*%
X35560000Y54760000D03*
%TD*%
D10*
%TO.P,J3,1,Pin_1*%
%TO.N,Net-(J3-Pin_1)*%
X55875000Y50315000D03*
D11*
%TO.P,J3,2,Pin_2*%
%TO.N,Net-(J3-Pin_2)*%
X58415000Y50315000D03*
%TD*%
D14*
%TO.P,R1,1*%
%TO.N,/BAT READ*%
X1905000Y24280000D03*
D15*
%TO.P,R1,2*%
%TO.N,/+BATT SW*%
X1905000Y16660000D03*
%TD*%
D16*
%TO.P,U5,1,GND*%
%TO.N,GND*%
X8890000Y6500000D03*
%TO.P,U5,2,IN*%
%TO.N,Net-(D1-K)*%
X8890000Y24280000D03*
%TO.P,U5,3,GND*%
%TO.N,GND*%
X49530000Y6500000D03*
%TO.P,U5,4,OUT*%
%TO.N,Net-(U5-OUT)*%
X49530000Y24280000D03*
%TD*%
D17*
%TO.P,U4,1,RESET*%
%TO.N,/RESET*%
X2286000Y68110000D03*
%TO.P,U4,2,DIO0*%
%TO.N,/INTER*%
X2286000Y66110000D03*
%TO.P,U4,3,DIO1*%
%TO.N,unconnected-(U4-DIO1-Pad3)*%
X2286000Y64110000D03*
%TO.P,U4,4,DIO2*%
%TO.N,unconnected-(U4-DIO2-Pad4)*%
X2286000Y62110000D03*
%TO.P,U4,5,DIO3*%
%TO.N,unconnected-(U4-DIO3-Pad5)*%
X2286000Y60110000D03*
%TO.P,U4,6,DIO4*%
%TO.N,unconnected-(U4-DIO4-Pad6)*%
X2286000Y58110000D03*
%TO.P,U4,7,DIO5*%
%TO.N,unconnected-(U4-DIO5-Pad7)*%
X2286000Y56110000D03*
%TO.P,U4,8,3.3V*%
%TO.N,+3V3*%
X2286000Y54110000D03*
%TO.P,U4,9,GND*%
%TO.N,GND*%
X20574000Y54110000D03*
%TO.P,U4,10,ANA*%
%TO.N,unconnected-(U4-ANA-Pad10)*%
X20574000Y56110000D03*
%TO.P,U4,11,GND*%
%TO.N,GND*%
X20574000Y58110000D03*
%TO.P,U4,12,SCK*%
%TO.N,/SCK*%
X20574000Y60110000D03*
%TO.P,U4,13,MISO*%
%TO.N,/MISO*%
X20574000Y62110000D03*
%TO.P,U4,14,MOSI*%
%TO.N,/MOSI*%
X20574000Y64110000D03*
%TO.P,U4,15,NSS*%
%TO.N,/NSS*%
X20574000Y66110000D03*
%TO.P,U4,16,NC*%
%TO.N,unconnected-(U4-NC-Pad16)*%
X20574000Y68110000D03*
%TD*%
D16*
%TO.P,U3,3V3,3.3V*%
%TO.N,+3V3*%
X51130000Y77648000D03*
X7950000Y92888000D03*
%TO.P,U3,5V,5V*%
%TO.N,N/C*%
X46050000Y77648000D03*
%TO.P,U3,G,GND*%
%TO.N,GND*%
X48590000Y77648000D03*
X2870000Y92888000D03*
X5410000Y92888000D03*
%TO.P,U3,NRST,RESET*%
%TO.N,N/C*%
X10490000Y92888000D03*
%TO.P,U3,PA0,PA0*%
X40970000Y92888000D03*
%TO.P,U3,PA1,PA1*%
X38430000Y92888000D03*
%TO.P,U3,PA2,PA2*%
X35890000Y92888000D03*
%TO.P,U3,PA3,PA3*%
X33350000Y92888000D03*
%TO.P,U3,PA4,PA4*%
X30810000Y92888000D03*
%TO.P,U3,PA5,PA5*%
X28270000Y92888000D03*
%TO.P,U3,PA6,PA6*%
X25730000Y92888000D03*
%TO.P,U3,PA7,PA7*%
X23190000Y92888000D03*
%TO.P,U3,PA8,PA8*%
X13030000Y77648000D03*
%TO.P,U3,PA9,PA9*%
X15570000Y77648000D03*
%TO.P,U3,PA10,PA10*%
X18110000Y77648000D03*
%TO.P,U3,PA11,PA11*%
X20650000Y77648000D03*
%TO.P,U3,PA12,PA12*%
X23190000Y77648000D03*
%TO.P,U3,PA15,PA15*%
%TO.N,/NSS*%
X25730000Y77648000D03*
%TO.P,U3,PB0,PB0*%
%TO.N,N/C*%
X20650000Y92888000D03*
%TO.P,U3,PB1,PB1*%
X18110000Y92888000D03*
%TO.P,U3,PB3,PB3*%
%TO.N,/SCK*%
X28270000Y77648000D03*
%TO.P,U3,PB4,PB4*%
%TO.N,/MISO*%
X30810000Y77648000D03*
%TO.P,U3,PB5,PB5*%
%TO.N,/MOSI*%
X33350000Y77648000D03*
%TO.P,U3,PB6,PB6*%
%TO.N,N/C*%
X35890000Y77648000D03*
%TO.P,U3,PB7,PB7*%
X38430000Y77648000D03*
%TO.P,U3,PB8,PB8*%
X40970000Y77648000D03*
%TO.P,U3,PB9,PB9*%
X43510000Y77648000D03*
%TO.P,U3,PB10,PB10*%
X15570000Y92888000D03*
%TO.P,U3,PB11,PB11*%
X13030000Y92888000D03*
%TO.P,U3,PB12,PB12*%
X2870000Y77648000D03*
%TO.P,U3,PB13,PB13*%
X5410000Y77648000D03*
%TO.P,U3,PB14,PB14*%
X7950000Y77648000D03*
%TO.P,U3,PB15,PB15*%
X10490000Y77648000D03*
%TO.P,U3,PC13,PC13*%
X48590000Y92888000D03*
%TO.P,U3,PC14,PC14*%
%TO.N,/INTER*%
X46050000Y92888000D03*
%TO.P,U3,PC15,PC15*%
%TO.N,/RESET*%
X43510000Y92888000D03*
%TO.P,U3,VBAT,Vbat*%
%TO.N,N/C*%
X51130000Y92888000D03*
%TD*%
D10*
%TO.P,J2,1,Pin_1*%
%TO.N,Net-(J2-Pin_1)*%
X67310000Y64920000D03*
D11*
%TO.P,J2,2,Pin_2*%
%TO.N,Net-(J2-Pin_2)*%
X67310000Y62380000D03*
%TD*%
D10*
%TO.P,J1,1,Pin_1*%
%TO.N,Net-(J1-Pin_1)*%
X67310000Y58575000D03*
D11*
%TO.P,J1,2,Pin_2*%
%TO.N,Net-(J1-Pin_2)*%
X67310000Y56035000D03*
%TD*%
D18*
%TO.P,U2,1,RESET*%
%TO.N,/RESET*%
X68925000Y94412000D03*
%TO.P,U2,2,DIO0*%
%TO.N,/INTER*%
X66925000Y94412000D03*
%TO.P,U2,3,DIO1*%
%TO.N,N/C*%
X64925000Y94412000D03*
%TO.P,U2,4,DIO2*%
X62925000Y94412000D03*
%TO.P,U2,5,DIO3*%
X60925000Y94412000D03*
%TO.P,U2,6,DIO4*%
X58925000Y94412000D03*
%TO.P,U2,7,DIO5*%
X56925000Y94412000D03*
%TO.P,U2,8,3.3V*%
%TO.N,+3V3*%
X54925000Y94412000D03*
%TO.P,U2,9,GND*%
%TO.N,GND*%
X54925000Y76124000D03*
%TO.P,U2,10,ANA*%
%TO.N,N/C*%
X56925000Y76124000D03*
%TO.P,U2,11,GND*%
%TO.N,GND*%
X58925000Y76124000D03*
%TO.P,U2,12,SCK*%
%TO.N,/SCK*%
X60925000Y76124000D03*
%TO.P,U2,13,MISO*%
%TO.N,/MISO*%
X62925000Y76124000D03*
%TO.P,U2,14,MOSI*%
%TO.N,/MOSI*%
X64925000Y76124000D03*
%TO.P,U2,15,NSS*%
%TO.N,/NSS*%
X66925000Y76124000D03*
%TO.P,U2,16,NC*%
%TO.N,N/C*%
X68925000Y76124000D03*
%TD*%
D16*
%TO.P,U2,1,SLEEP*%
%TO.N,/SLEEP*%
X66040000Y46505000D03*
%TO.P,U2,2,OUT1*%
%TO.N,unconnected-(U2-OUT1-Pad2)*%
X63500000Y46505000D03*
%TO.P,U2,3,OUT2*%
%TO.N,unconnected-(U2-OUT2-Pad3)*%
X60960000Y46505000D03*
%TO.P,U2,4,OUT3*%
%TO.N,Net-(J3-Pin_2)*%
X58420000Y46505000D03*
%TO.P,U2,5,OUT4*%
%TO.N,Net-(J3-Pin_1)*%
X55880000Y46505000D03*
%TO.P,U2,6,FAULT*%
%TO.N,unconnected-(U2-FAULT-Pad6)*%
X53340000Y46505000D03*
%TO.P,U2,7,IN1*%
%TO.N,unconnected-(U2-IN1-Pad7)*%
X53340000Y31265000D03*
%TO.P,U2,8,IN2*%
%TO.N,unconnected-(U2-IN2-Pad8)*%
X55880000Y31265000D03*
%TO.P,U2,9,VMOT*%
%TO.N,+10V*%
X58420000Y31265000D03*
%TO.P,U2,10,GND*%
%TO.N,GND*%
X60960000Y31265000D03*
%TO.P,U2,11,IN3*%
%TO.N,/M C1*%
X63500000Y31265000D03*
%TO.P,U2,12,IN4*%
%TO.N,/M C2*%
X66040000Y31265000D03*
%TD*%
D10*
%TO.P,J7,1,Pin_1*%
%TO.N,/ESC*%
X60960000Y10930000D03*
D11*
%TO.P,J7,2,Pin_2*%
%TO.N,unconnected-(J7-Pin_2-Pad2)*%
X60960000Y8390000D03*
%TO.P,J7,3,Pin_3*%
%TO.N,GND*%
X60960000Y5850000D03*
%TD*%
D16*
%TO.P,U3,1,SLEEP*%
%TO.N,/SLEEP*%
X63500000Y54125000D03*
%TO.P,U3,2,OUT1*%
%TO.N,Net-(J1-Pin_2)*%
X63500000Y56665000D03*
%TO.P,U3,3,OUT2*%
%TO.N,Net-(J1-Pin_1)*%
X63500000Y59205000D03*
%TO.P,U3,4,OUT3*%
%TO.N,Net-(J2-Pin_2)*%
X63500000Y61745000D03*
%TO.P,U3,5,OUT4*%
%TO.N,Net-(J2-Pin_1)*%
X63500000Y64285000D03*
%TO.P,U3,6,FAULT*%
%TO.N,unconnected-(U3-FAULT-Pad6)*%
X63500000Y66825000D03*
%TO.P,U3,7,IN1*%
%TO.N,/M A1*%
X48260000Y66825000D03*
%TO.P,U3,8,IN2*%
%TO.N,/M A2*%
X48260000Y64285000D03*
%TO.P,U3,9,VMOT*%
%TO.N,+10V*%
X48260000Y61745000D03*
%TO.P,U3,10,GND*%
%TO.N,GND*%
X48260000Y59205000D03*
%TO.P,U3,11,IN3*%
%TO.N,/M B1*%
X48260000Y56665000D03*
%TO.P,U3,12,IN4*%
%TO.N,/M B2*%
X48260000Y54125000D03*
%TD*%
D10*
%TO.P,J8,1,Pin_1*%
%TO.N,/+BATT SW*%
X40005000Y2690000D03*
D11*
%TO.P,J8,2,Pin_2*%
%TO.N,GND*%
X42545000Y2690000D03*
%TD*%
D10*
%TO.P,F1,1*%
%TO.N,Net-(F1-Pad1)*%
X29845000Y2690000D03*
D11*
%TO.P,F1,2*%
%TO.N,/+BATT SW*%
X32385000Y2690000D03*
%TD*%
D19*
%TO.P,U1,5,VP*%
%TO.N,unconnected-(U1-VP-Pad5)*%
X43180000Y50315000D03*
%TO.P,U1,8,VN*%
%TO.N,unconnected-(U1-VN-Pad8)*%
X40640000Y50315000D03*
%TO.P,U1,9,EN*%
%TO.N,unconnected-(U1-EN-Pad9)*%
X38100000Y50315000D03*
%TO.P,U1,10,D34*%
%TO.N,/BAT READ*%
X35560000Y50315000D03*
%TO.P,U1,11,D35*%
%TO.N,/INTER*%
X33020000Y50315000D03*
%TO.P,U1,12,D32*%
%TO.N,/NSS*%
X30480000Y50315000D03*
%TO.P,U1,13,D33*%
%TO.N,/MOSI*%
X27940000Y50315000D03*
%TO.P,U1,14,D25*%
%TO.N,/MISO*%
X25400000Y50315000D03*
%TO.P,U1,15,D26*%
%TO.N,/SCK*%
X22860000Y50315000D03*
%TO.P,U1,16,D27*%
%TO.N,/RESET*%
X20320000Y50315000D03*
%TO.P,U1,17,D14*%
%TO.N,/TMS*%
X17780000Y50315000D03*
%TO.P,U1,18,D12*%
%TO.N,/TDI*%
X15240000Y50315000D03*
%TO.P,U1,19,GND*%
%TO.N,GND*%
X12700000Y50315000D03*
%TO.P,U1,20,D13*%
%TO.N,/TCK*%
X12700000Y27455000D03*
%TO.P,U1,21,D15*%
%TO.N,/TDO*%
X15240000Y27455000D03*
%TO.P,U1,22,D2*%
%TO.N,/SERVO 1*%
X17780000Y27455000D03*
%TO.P,U1,23,D0*%
%TO.N,/SERVO 2*%
X20320000Y27455000D03*
%TO.P,U1,24,D4*%
%TO.N,/ESC*%
X22860000Y27455000D03*
%TO.P,U1,25,RX2/D16*%
%TO.N,/M A1*%
X25400000Y27455000D03*
%TO.P,U1,27,TX2/D17*%
%TO.N,/M A2*%
X27940000Y27455000D03*
%TO.P,U1,34,D5*%
%TO.N,/M B2*%
X30480000Y27455000D03*
%TO.P,U1,35,D18*%
%TO.N,/M B1*%
X33020000Y27455000D03*
%TO.P,U1,36,D23*%
%TO.N,/SLEEP*%
X35560000Y27455000D03*
%TO.P,U1,38,D19*%
%TO.N,/M C2*%
X38100000Y27455000D03*
%TO.P,U1,39,D22*%
%TO.N,/M C1*%
X40640000Y27455000D03*
%TO.P,U1,40,3V3*%
%TO.N,+3V3*%
X43180000Y27455000D03*
%TD*%
D16*
%TO.P,U1,1,GND*%
%TO.N,GND*%
X20645000Y89840000D03*
%TO.P,U1,2,IN*%
%TO.N,+BATT*%
X20645000Y80696000D03*
%TO.P,U1,3,GND*%
%TO.N,GND*%
X35885000Y89840000D03*
%TO.P,U1,4,OUT*%
%TO.N,+3V3*%
X35885000Y80696000D03*
%TD*%
D10*
%TO.P,J4,1,Pin_1*%
%TO.N,+BATT*%
X13340000Y2690000D03*
D11*
%TO.P,J4,2,Pin_2*%
%TO.N,GND*%
X10800000Y2690000D03*
%TD*%
D10*
%TO.P,J2,1,Pin_1*%
%TO.N,N/C*%
X15565000Y97460000D03*
D11*
%TO.P,J2,2,Pin_2*%
X13025000Y97460000D03*
%TO.P,J2,3,Pin_3*%
%TO.N,+BATT*%
X10485000Y97460000D03*
%TO.P,J2,4,Pin_4*%
%TO.N,GND*%
X7945000Y97460000D03*
%TD*%
D16*
%TO.P,U6,1,GND*%
%TO.N,GND*%
X52705000Y23772000D03*
%TO.P,U6,2,IN*%
%TO.N,/+BATT SW*%
X52705000Y14628000D03*
%TO.P,U6,3,GND*%
%TO.N,GND*%
X67945000Y23772000D03*
%TO.P,U6,4,OUT*%
%TO.N,+3V3*%
X67945000Y14628000D03*
%TD*%
D20*
%TO.N,GND*%
X33020000Y53236000D03*
%TD*%
D21*
%TO.N,*%
X15565000Y92893000D02*
X15570000Y92888000D01*
X40980000Y92898000D02*
X40970000Y92888000D01*
X49855000Y90475000D02*
X48590000Y91740000D01*
X13030000Y97455000D02*
X13025000Y97460000D01*
X58925000Y93118000D02*
X56282000Y90475000D01*
X48590000Y91740000D02*
X48590000Y92888000D01*
X15565000Y97460000D02*
X15565000Y92893000D01*
X56282000Y90475000D02*
X49855000Y90475000D01*
X13030000Y92888000D02*
X13030000Y97455000D01*
X58925000Y94368000D02*
X58925000Y93118000D01*
D22*
%TO.N,Net-(J3-Pin_1)*%
X55880000Y50310000D02*
X55880000Y46505000D01*
D21*
X55875000Y50315000D02*
X55880000Y50310000D01*
D22*
%TO.N,Net-(J3-Pin_2)*%
X58420000Y46505000D02*
X58420000Y50310000D01*
D21*
X58420000Y50310000D02*
X58415000Y50315000D01*
%TO.N,/SERVO 1*%
X17780000Y23010000D02*
X17780000Y27455000D01*
X54610000Y12215000D02*
X54610000Y15390000D01*
X53340000Y10945000D02*
X54610000Y12215000D01*
X53340000Y16660000D02*
X24130000Y16660000D01*
X24130000Y16660000D02*
X17780000Y23010000D01*
X54610000Y15390000D02*
X53340000Y16660000D01*
D22*
%TO.N,/+BATT SW*%
X57150000Y8390000D02*
X53355000Y8390000D01*
X1905000Y16660000D02*
X5715000Y16660000D01*
X19260344Y16660000D02*
X32385000Y3535344D01*
X50038000Y14628000D02*
X43815000Y8405000D01*
X5715000Y16660000D02*
X19260344Y16660000D01*
X32385000Y3535344D02*
X32385000Y2690000D01*
X53340000Y8405000D02*
X43815000Y8405000D01*
X53355000Y8390000D02*
X53340000Y8405000D01*
D23*
X32385000Y2690000D02*
X40005000Y2690000D01*
D22*
X43815000Y8405000D02*
X40005000Y4595000D01*
X57135000Y8405000D02*
X57150000Y8390000D01*
X40005000Y4595000D02*
X40005000Y2690000D01*
X52705000Y14628000D02*
X50038000Y14628000D01*
%TO.N,GND*%
X8890000Y6500000D02*
X8890000Y4600000D01*
D21*
X20530000Y54110000D02*
X18430000Y54110000D01*
X50495000Y75743000D02*
X48590000Y77648000D01*
D22*
X57150000Y5850000D02*
X53355000Y5850000D01*
X53340000Y5865000D02*
X48895000Y5865000D01*
X60960000Y5850000D02*
X57150000Y5850000D01*
X48895000Y5865000D02*
X49530000Y6500000D01*
D21*
X5410000Y92888000D02*
X5410000Y94925000D01*
X54925000Y76168000D02*
X54500000Y75743000D01*
D22*
X53355000Y5850000D02*
X53340000Y5865000D01*
X42545000Y2690000D02*
X45720000Y2690000D01*
D21*
X17145000Y56665000D02*
X18590000Y58110000D01*
X18430000Y54110000D02*
X17145000Y55395000D01*
X54500000Y75743000D02*
X50495000Y75743000D01*
X18590000Y58110000D02*
X20530000Y58110000D01*
X17145000Y55395000D02*
X17145000Y56665000D01*
X67945000Y23772000D02*
X60960000Y23772000D01*
D22*
X45720000Y2690000D02*
X49530000Y6500000D01*
D21*
X20645000Y89840000D02*
X8458000Y89840000D01*
X2870000Y92888000D02*
X5410000Y92888000D01*
X5410000Y94925000D02*
X7945000Y97460000D01*
D22*
X8890000Y4600000D02*
X10800000Y2690000D01*
D21*
X60960000Y23772000D02*
X52705000Y23772000D01*
X8458000Y89840000D02*
X5410000Y92888000D01*
%TO.N,/SERVO 2*%
X57150000Y10930000D02*
X57150000Y15390000D01*
X54610000Y17930000D02*
X24765000Y17930000D01*
X24765000Y17930000D02*
X20320000Y22375000D01*
X20320000Y22375000D02*
X20320000Y27455000D01*
X57150000Y15390000D02*
X54610000Y17930000D01*
%TO.N,/ESC*%
X22860000Y21740000D02*
X22860000Y27455000D01*
X25400000Y19200000D02*
X22860000Y21740000D01*
X60960000Y14120000D02*
X55880000Y19200000D01*
X55880000Y19200000D02*
X25400000Y19200000D01*
X60960000Y10930000D02*
X60960000Y14120000D01*
D23*
%TO.N,+BATT*%
X13340000Y2690000D02*
X19680000Y2690000D01*
D21*
%TO.N,+3V3*%
X67945000Y14628000D02*
X67945000Y19200000D01*
X48082000Y80696000D02*
X51130000Y77648000D01*
X66675000Y20470000D02*
X46990000Y20470000D01*
X67945000Y19200000D02*
X66675000Y20470000D01*
X46990000Y20470000D02*
X43180000Y24280000D01*
X35885000Y80696000D02*
X48082000Y80696000D01*
X43180000Y24280000D02*
X43180000Y27455000D01*
%TO.N,/M B1*%
X50165000Y47775000D02*
X50165000Y54760000D01*
X33020000Y27455000D02*
X33020000Y30630000D01*
X33020000Y30630000D02*
X50165000Y47775000D01*
X50165000Y54760000D02*
X48260000Y56665000D01*
%TO.N,/M B2*%
X30480000Y30153750D02*
X48260000Y47933750D01*
X48260000Y47933750D02*
X48260000Y54125000D01*
X30480000Y27455000D02*
X30480000Y30153750D01*
%TO.N,/M C1*%
X63500000Y31265000D02*
X61595000Y33170000D01*
X61595000Y33170000D02*
X43180000Y33170000D01*
X40640000Y30630000D02*
X40640000Y27455000D01*
X43180000Y33170000D02*
X40640000Y30630000D01*
%TO.N,/M C2*%
X62230000Y35075000D02*
X66040000Y31265000D01*
X38100000Y30630000D02*
X42545000Y35075000D01*
X38100000Y27455000D02*
X38100000Y30630000D01*
X42545000Y35075000D02*
X62230000Y35075000D01*
%TO.N,/NSS*%
X27178000Y63142000D02*
X27178000Y59967000D01*
X66925000Y78363000D02*
X66925000Y76168000D01*
X20530000Y66110000D02*
X24210000Y66110000D01*
X25730000Y77648000D02*
X25730000Y80320000D01*
X27178000Y59967000D02*
X30480000Y56665000D01*
X24210000Y66110000D02*
X27178000Y63142000D01*
X30043000Y84633000D02*
X60655000Y84633000D01*
X60655000Y84633000D02*
X66925000Y78363000D01*
X30480000Y56665000D02*
X30480000Y50315000D01*
X25730000Y80320000D02*
X30043000Y84633000D01*
%TO.N,/SCK*%
X21780000Y60110000D02*
X20530000Y60110000D01*
X28270000Y80188000D02*
X28270000Y77648000D01*
X30810000Y82728000D02*
X28270000Y80188000D01*
X56845000Y82728000D02*
X30810000Y82728000D01*
X60925000Y76168000D02*
X60925000Y78648000D01*
X22860000Y59030000D02*
X21780000Y60110000D01*
X60925000Y78648000D02*
X56845000Y82728000D01*
X22860000Y50315000D02*
X22860000Y59030000D01*
%TO.N,/MISO*%
X24384000Y60221000D02*
X24384000Y57046000D01*
X22495000Y62110000D02*
X24384000Y60221000D01*
X20530000Y62110000D02*
X22495000Y62110000D01*
X24384000Y57046000D02*
X25400000Y56030000D01*
X25400000Y56030000D02*
X25400000Y50315000D01*
%TO.N,/MOSI*%
X25654000Y58951000D02*
X27940000Y56665000D01*
X33350000Y77648000D02*
X37160000Y73838000D01*
X27940000Y56665000D02*
X27940000Y50315000D01*
X63830000Y73838000D02*
X64925000Y74933000D01*
X25654000Y62126000D02*
X25654000Y58951000D01*
X64925000Y74933000D02*
X64925000Y76168000D01*
X37160000Y73838000D02*
X63830000Y73838000D01*
X20530000Y64110000D02*
X23670000Y64110000D01*
X23670000Y64110000D02*
X25654000Y62126000D01*
%TO.N,/INTER*%
X66925000Y94368000D02*
X66925000Y93118000D01*
X3816498Y66110000D02*
X2330000Y66110000D01*
X46050000Y90470000D02*
X46050000Y92888000D01*
X33020000Y50315000D02*
X33020000Y48410000D01*
X5080000Y49680000D02*
X5080000Y64846498D01*
X66925000Y93118000D02*
X62377000Y88570000D01*
X47950000Y88570000D02*
X46050000Y90470000D01*
X33020000Y48410000D02*
X29845000Y45235000D01*
X29845000Y45235000D02*
X9525000Y45235000D01*
X62377000Y88570000D02*
X47950000Y88570000D01*
X5080000Y64846498D02*
X3816498Y66110000D01*
X9525000Y45235000D02*
X5080000Y49680000D01*
%TO.N,/RESET*%
X13970000Y59205000D02*
X13970000Y56665000D01*
X46045000Y86665000D02*
X43510000Y89200000D01*
X5065000Y68110000D02*
X13970000Y59205000D01*
X2330000Y68110000D02*
X5065000Y68110000D01*
X68925000Y92400000D02*
X63190000Y86665000D01*
X13970000Y56665000D02*
X17780000Y52855000D01*
X20320000Y51585000D02*
X20320000Y50315000D01*
X68925000Y94368000D02*
X68925000Y92400000D01*
X63190000Y86665000D02*
X46045000Y86665000D01*
X43510000Y89200000D02*
X43510000Y92888000D01*
X17780000Y52855000D02*
X19050000Y52855000D01*
X19050000Y52855000D02*
X20320000Y51585000D01*
%TO.N,/M A1*%
X45085000Y65555000D02*
X46355000Y66825000D01*
X25400000Y29360000D02*
X45085000Y49045000D01*
X45085000Y49045000D02*
X45085000Y65555000D01*
X46355000Y66825000D02*
X48260000Y66825000D01*
X25400000Y27455000D02*
X25400000Y29360000D01*
%TO.N,/M A2*%
X27940000Y27455000D02*
X27940000Y29677500D01*
X46355000Y63015000D02*
X47625000Y64285000D01*
X47625000Y64285000D02*
X48260000Y64285000D01*
X27940000Y29677500D02*
X46355000Y48092500D01*
X46355000Y48092500D02*
X46355000Y63015000D01*
D22*
%TO.N,+10V*%
X55875000Y27455000D02*
X57277000Y27455000D01*
X58420000Y28598000D02*
X58420000Y31265000D01*
X57277000Y27455000D02*
X58420000Y28598000D01*
D24*
%TO.N,Net-(D1-K)*%
X5715000Y24280000D02*
X8890000Y24280000D01*
D23*
%TO.N,Net-(F1-Pad1)*%
X29845000Y2690000D02*
X22220000Y2690000D01*
D22*
%TO.N,Net-(U5-OUT)*%
X51435000Y27455000D02*
X53335000Y27455000D01*
X49530000Y25550000D02*
X51435000Y27455000D01*
X49530000Y24280000D02*
X49530000Y25550000D01*
D21*
%TO.N,/SLEEP*%
X62865000Y43330000D02*
X48101250Y43330000D01*
X66040000Y46505000D02*
X62865000Y43330000D01*
X66040000Y51585000D02*
X66040000Y46505000D01*
X48101250Y43330000D02*
X35560000Y30788750D01*
X35560000Y30788750D02*
X35560000Y27455000D01*
X63500000Y54125000D02*
X66040000Y51585000D01*
D22*
%TO.N,Net-(J1-Pin_1)*%
X64130000Y58575000D02*
X63500000Y59205000D01*
X67310000Y58575000D02*
X64130000Y58575000D01*
%TO.N,Net-(J1-Pin_2)*%
X64130000Y56035000D02*
X63500000Y56665000D01*
X67310000Y56035000D02*
X64130000Y56035000D01*
%TO.N,Net-(J2-Pin_1)*%
X64135000Y64920000D02*
X63500000Y64285000D01*
X67310000Y64920000D02*
X64135000Y64920000D01*
%TO.N,Net-(J2-Pin_2)*%
X64135000Y62380000D02*
X63500000Y61745000D01*
X67310000Y62380000D02*
X64135000Y62380000D01*
D21*
%TO.N,/BAT READ*%
X31115000Y40790000D02*
X35560000Y45235000D01*
X35560000Y45235000D02*
X35560000Y50315000D01*
X35560000Y50315000D02*
X35560000Y54760000D01*
X1905000Y24280000D02*
X1905000Y26693000D01*
X1905000Y26693000D02*
X16002000Y40790000D01*
X16002000Y40790000D02*
X31115000Y40790000D01*
%TD*%
%TA.AperFunction,Conductor*%
%TO.N,GND*%
G36*
X69442539Y99451815D02*
G01*
X69488294Y99399011D01*
X69499500Y99347500D01*
X69499500Y96286500D01*
X69479815Y96219461D01*
X69427011Y96173706D01*
X69375500Y96162500D01*
X68377129Y96162500D01*
X68377123Y96162499D01*
X68317516Y96156092D01*
X68182671Y96105798D01*
X68182664Y96105794D01*
X68067455Y96019548D01*
X68024266Y95961855D01*
X67968332Y95919985D01*
X67898640Y95915001D01*
X67837317Y95948487D01*
X67825734Y95961855D01*
X67791127Y96008083D01*
X67782546Y96019546D01*
X67782544Y96019547D01*
X67782544Y96019548D01*
X67667335Y96105794D01*
X67667328Y96105798D01*
X67532482Y96156092D01*
X67532483Y96156092D01*
X67472883Y96162499D01*
X67472881Y96162500D01*
X67472873Y96162500D01*
X67472864Y96162500D01*
X66377129Y96162500D01*
X66377123Y96162499D01*
X66317516Y96156092D01*
X66182671Y96105798D01*
X66182664Y96105794D01*
X66067455Y96019548D01*
X66024266Y95961855D01*
X65968332Y95919985D01*
X65898640Y95915001D01*
X65837317Y95948487D01*
X65825734Y95961855D01*
X65791127Y96008083D01*
X65782546Y96019546D01*
X65782544Y96019547D01*
X65782544Y96019548D01*
X65667335Y96105794D01*
X65667328Y96105798D01*
X65532482Y96156092D01*
X65532483Y96156092D01*
X65472883Y96162499D01*
X65472881Y96162500D01*
X65472873Y96162500D01*
X65472864Y96162500D01*
X64377129Y96162500D01*
X64377123Y96162499D01*
X64317516Y96156092D01*
X64182671Y96105798D01*
X64182664Y96105794D01*
X64067455Y96019548D01*
X64024266Y95961855D01*
X63968332Y95919985D01*
X63898640Y95915001D01*
X63837317Y95948487D01*
X63825734Y95961855D01*
X63791127Y96008083D01*
X63782546Y96019546D01*
X63782544Y96019547D01*
X63782544Y96019548D01*
X63667335Y96105794D01*
X63667328Y96105798D01*
X63532482Y96156092D01*
X63532483Y96156092D01*
X63472883Y96162499D01*
X63472881Y96162500D01*
X63472873Y96162500D01*
X63472864Y96162500D01*
X62377129Y96162500D01*
X62377123Y96162499D01*
X62317516Y96156092D01*
X62182671Y96105798D01*
X62182664Y96105794D01*
X62067455Y96019548D01*
X62024266Y95961855D01*
X61968332Y95919985D01*
X61898640Y95915001D01*
X61837317Y95948487D01*
X61825734Y95961855D01*
X61791127Y96008083D01*
X61782546Y96019546D01*
X61782544Y96019547D01*
X61782544Y96019548D01*
X61667335Y96105794D01*
X61667328Y96105798D01*
X61532482Y96156092D01*
X61532483Y96156092D01*
X61472883Y96162499D01*
X61472881Y96162500D01*
X61472873Y96162500D01*
X61472864Y96162500D01*
X60377129Y96162500D01*
X60377123Y96162499D01*
X60317516Y96156092D01*
X60182671Y96105798D01*
X60182664Y96105794D01*
X60067455Y96019548D01*
X60024266Y95961855D01*
X59968332Y95919985D01*
X59898640Y95915001D01*
X59837317Y95948487D01*
X59825734Y95961855D01*
X59791127Y96008083D01*
X59782546Y96019546D01*
X59782544Y96019547D01*
X59782544Y96019548D01*
X59667335Y96105794D01*
X59667328Y96105798D01*
X59532482Y96156092D01*
X59532483Y96156092D01*
X59472883Y96162499D01*
X59472881Y96162500D01*
X59472873Y96162500D01*
X59472864Y96162500D01*
X58377129Y96162500D01*
X58377123Y96162499D01*
X58317516Y96156092D01*
X58182671Y96105798D01*
X58182664Y96105794D01*
X58067455Y96019548D01*
X58024266Y95961855D01*
X57968332Y95919985D01*
X57898640Y95915001D01*
X57837317Y95948487D01*
X57825734Y95961855D01*
X57791127Y96008083D01*
X57782546Y96019546D01*
X57782544Y96019547D01*
X57782544Y96019548D01*
X57667335Y96105794D01*
X57667328Y96105798D01*
X57532482Y96156092D01*
X57532483Y96156092D01*
X57472883Y96162499D01*
X57472881Y96162500D01*
X57472873Y96162500D01*
X57472864Y96162500D01*
X56377129Y96162500D01*
X56377123Y96162499D01*
X56317516Y96156092D01*
X56182671Y96105798D01*
X56182664Y96105794D01*
X56067455Y96019548D01*
X56024266Y95961855D01*
X55968332Y95919985D01*
X55898640Y95915001D01*
X55837317Y95948487D01*
X55825734Y95961855D01*
X55791127Y96008083D01*
X55782546Y96019546D01*
X55782544Y96019547D01*
X55782544Y96019548D01*
X55667335Y96105794D01*
X55667328Y96105798D01*
X55532482Y96156092D01*
X55532483Y96156092D01*
X55472883Y96162499D01*
X55472881Y96162500D01*
X55472873Y96162500D01*
X55472864Y96162500D01*
X54377129Y96162500D01*
X54377123Y96162499D01*
X54317516Y96156092D01*
X54182671Y96105798D01*
X54182664Y96105794D01*
X54067455Y96019548D01*
X54067452Y96019545D01*
X53981206Y95904336D01*
X53981202Y95904329D01*
X53930908Y95769483D01*
X53924501Y95709884D01*
X53924500Y95709865D01*
X53924500Y93114130D01*
X53924501Y93114124D01*
X53930908Y93054517D01*
X53981202Y92919672D01*
X53981206Y92919665D01*
X54067452Y92804456D01*
X54067455Y92804453D01*
X54182664Y92718207D01*
X54182671Y92718203D01*
X54317517Y92667909D01*
X54317516Y92667909D01*
X54324444Y92667165D01*
X54377127Y92661500D01*
X55472872Y92661501D01*
X55532483Y92667909D01*
X55667331Y92718204D01*
X55782546Y92804454D01*
X55825734Y92862146D01*
X55881667Y92904016D01*
X55951359Y92909000D01*
X56012682Y92875515D01*
X56024263Y92862150D01*
X56067454Y92804454D01*
X56091124Y92786735D01*
X56182664Y92718207D01*
X56182671Y92718203D01*
X56317517Y92667909D01*
X56317516Y92667909D01*
X56324444Y92667165D01*
X56377127Y92661500D01*
X56930994Y92661501D01*
X56998032Y92641817D01*
X57043787Y92589013D01*
X57053731Y92519854D01*
X57024706Y92456298D01*
X57018674Y92449820D01*
X55955675Y91386819D01*
X55894352Y91353334D01*
X55867994Y91350500D01*
X50269006Y91350500D01*
X50201967Y91370185D01*
X50181325Y91386819D01*
X49607192Y91960952D01*
X49573707Y92022275D01*
X49578691Y92091967D01*
X49593293Y92119749D01*
X49687534Y92254338D01*
X49747618Y92383189D01*
X49793790Y92435629D01*
X49860983Y92454781D01*
X49927865Y92434565D01*
X49972382Y92383189D01*
X50032464Y92254342D01*
X50032468Y92254334D01*
X50159170Y92073385D01*
X50159175Y92073379D01*
X50315378Y91917176D01*
X50315384Y91917171D01*
X50496333Y91790469D01*
X50496335Y91790468D01*
X50496338Y91790466D01*
X50696550Y91697106D01*
X50909932Y91639930D01*
X51067123Y91626178D01*
X51129998Y91620677D01*
X51130000Y91620677D01*
X51130002Y91620677D01*
X51185017Y91625491D01*
X51350068Y91639930D01*
X51563450Y91697106D01*
X51763662Y91790466D01*
X51944620Y91917174D01*
X52100826Y92073380D01*
X52227534Y92254338D01*
X52320894Y92454550D01*
X52378070Y92667932D01*
X52397323Y92888000D01*
X52394552Y92919669D01*
X52378070Y93108063D01*
X52378070Y93108068D01*
X52320894Y93321450D01*
X52227534Y93521661D01*
X52100826Y93702620D01*
X51944620Y93858826D01*
X51944616Y93858829D01*
X51944615Y93858830D01*
X51763666Y93985532D01*
X51763662Y93985534D01*
X51763660Y93985535D01*
X51563450Y94078894D01*
X51563447Y94078895D01*
X51563445Y94078896D01*
X51350070Y94136070D01*
X51350062Y94136071D01*
X51130002Y94155323D01*
X51129998Y94155323D01*
X50909937Y94136071D01*
X50909929Y94136070D01*
X50696554Y94078896D01*
X50696548Y94078893D01*
X50496340Y93985535D01*
X50496338Y93985534D01*
X50315377Y93858825D01*
X50159175Y93702623D01*
X50032466Y93521662D01*
X50032465Y93521660D01*
X49972382Y93392811D01*
X49926209Y93340372D01*
X49859016Y93321220D01*
X49792135Y93341436D01*
X49747618Y93392811D01*
X49687652Y93521407D01*
X49687534Y93521661D01*
X49560826Y93702620D01*
X49404620Y93858826D01*
X49404616Y93858829D01*
X49404615Y93858830D01*
X49223666Y93985532D01*
X49223662Y93985534D01*
X49223660Y93985535D01*
X49023450Y94078894D01*
X49023447Y94078895D01*
X49023445Y94078896D01*
X48810070Y94136070D01*
X48810062Y94136071D01*
X48590002Y94155323D01*
X48589998Y94155323D01*
X48369937Y94136071D01*
X48369929Y94136070D01*
X48156554Y94078896D01*
X48156548Y94078893D01*
X47956340Y93985535D01*
X47956338Y93985534D01*
X47775377Y93858825D01*
X47619175Y93702623D01*
X47492466Y93521662D01*
X47492465Y93521660D01*
X47432382Y93392811D01*
X47386209Y93340372D01*
X47319016Y93321220D01*
X47252135Y93341436D01*
X47207618Y93392811D01*
X47147652Y93521407D01*
X47147534Y93521661D01*
X47020826Y93702620D01*
X46864620Y93858826D01*
X46864616Y93858829D01*
X46864615Y93858830D01*
X46683666Y93985532D01*
X46683662Y93985534D01*
X46683660Y93985535D01*
X46483450Y94078894D01*
X46483447Y94078895D01*
X46483445Y94078896D01*
X46270070Y94136070D01*
X46270062Y94136071D01*
X46050002Y94155323D01*
X46049998Y94155323D01*
X45829937Y94136071D01*
X45829929Y94136070D01*
X45616554Y94078896D01*
X45616548Y94078893D01*
X45416340Y93985535D01*
X45416338Y93985534D01*
X45235377Y93858825D01*
X45079175Y93702623D01*
X44952466Y93521662D01*
X44952465Y93521660D01*
X44892382Y93392811D01*
X44846209Y93340372D01*
X44779016Y93321220D01*
X44712135Y93341436D01*
X44667618Y93392811D01*
X44607652Y93521407D01*
X44607534Y93521661D01*
X44480826Y93702620D01*
X44324620Y93858826D01*
X44324616Y93858829D01*
X44324615Y93858830D01*
X44143666Y93985532D01*
X44143662Y93985534D01*
X44143660Y93985535D01*
X43943450Y94078894D01*
X43943447Y94078895D01*
X43943445Y94078896D01*
X43730070Y94136070D01*
X43730062Y94136071D01*
X43510002Y94155323D01*
X43509998Y94155323D01*
X43289937Y94136071D01*
X43289929Y94136070D01*
X43076554Y94078896D01*
X43076548Y94078893D01*
X42876340Y93985535D01*
X42876338Y93985534D01*
X42695377Y93858825D01*
X42539175Y93702623D01*
X42412466Y93521662D01*
X42412465Y93521660D01*
X42352382Y93392811D01*
X42306209Y93340372D01*
X42239016Y93321220D01*
X42172135Y93341436D01*
X42127618Y93392811D01*
X42067652Y93521407D01*
X42067534Y93521661D01*
X41940826Y93702620D01*
X41784620Y93858826D01*
X41784616Y93858829D01*
X41784615Y93858830D01*
X41603666Y93985532D01*
X41603662Y93985534D01*
X41603660Y93985535D01*
X41403450Y94078894D01*
X41403447Y94078895D01*
X41403445Y94078896D01*
X41190070Y94136070D01*
X41190062Y94136071D01*
X40970002Y94155323D01*
X40969998Y94155323D01*
X40749937Y94136071D01*
X40749929Y94136070D01*
X40536554Y94078896D01*
X40536548Y94078893D01*
X40336340Y93985535D01*
X40336338Y93985534D01*
X40155377Y93858825D01*
X39999175Y93702623D01*
X39872466Y93521662D01*
X39872465Y93521660D01*
X39812382Y93392811D01*
X39766209Y93340372D01*
X39699016Y93321220D01*
X39632135Y93341436D01*
X39587618Y93392811D01*
X39527652Y93521407D01*
X39527534Y93521661D01*
X39400826Y93702620D01*
X39244620Y93858826D01*
X39244616Y93858829D01*
X39244615Y93858830D01*
X39063666Y93985532D01*
X39063662Y93985534D01*
X39063660Y93985535D01*
X38863450Y94078894D01*
X38863447Y94078895D01*
X38863445Y94078896D01*
X38650070Y94136070D01*
X38650062Y94136071D01*
X38430002Y94155323D01*
X38429998Y94155323D01*
X38209937Y94136071D01*
X38209929Y94136070D01*
X37996554Y94078896D01*
X37996548Y94078893D01*
X37796340Y93985535D01*
X37796338Y93985534D01*
X37615377Y93858825D01*
X37459175Y93702623D01*
X37332466Y93521662D01*
X37332465Y93521660D01*
X37272382Y93392811D01*
X37226209Y93340372D01*
X37159016Y93321220D01*
X37092135Y93341436D01*
X37047618Y93392811D01*
X36987652Y93521407D01*
X36987534Y93521661D01*
X36860826Y93702620D01*
X36704620Y93858826D01*
X36704616Y93858829D01*
X36704615Y93858830D01*
X36523666Y93985532D01*
X36523662Y93985534D01*
X36523660Y93985535D01*
X36323450Y94078894D01*
X36323447Y94078895D01*
X36323445Y94078896D01*
X36110070Y94136070D01*
X36110062Y94136071D01*
X35890002Y94155323D01*
X35889998Y94155323D01*
X35669937Y94136071D01*
X35669929Y94136070D01*
X35456554Y94078896D01*
X35456548Y94078893D01*
X35256340Y93985535D01*
X35256338Y93985534D01*
X35075377Y93858825D01*
X34919175Y93702623D01*
X34792466Y93521662D01*
X34792465Y93521660D01*
X34732382Y93392811D01*
X34686209Y93340372D01*
X34619016Y93321220D01*
X34552135Y93341436D01*
X34507618Y93392811D01*
X34447652Y93521407D01*
X34447534Y93521661D01*
X34320826Y93702620D01*
X34164620Y93858826D01*
X34164616Y93858829D01*
X34164615Y93858830D01*
X33983666Y93985532D01*
X33983662Y93985534D01*
X33983660Y93985535D01*
X33783450Y94078894D01*
X33783447Y94078895D01*
X33783445Y94078896D01*
X33570070Y94136070D01*
X33570062Y94136071D01*
X33350002Y94155323D01*
X33349998Y94155323D01*
X33129937Y94136071D01*
X33129929Y94136070D01*
X32916554Y94078896D01*
X32916548Y94078893D01*
X32716340Y93985535D01*
X32716338Y93985534D01*
X32535377Y93858825D01*
X32379175Y93702623D01*
X32252466Y93521662D01*
X32252465Y93521660D01*
X32192382Y93392811D01*
X32146209Y93340372D01*
X32079016Y93321220D01*
X32012135Y93341436D01*
X31967618Y93392811D01*
X31907652Y93521407D01*
X31907534Y93521661D01*
X31780826Y93702620D01*
X31624620Y93858826D01*
X31624616Y93858829D01*
X31624615Y93858830D01*
X31443666Y93985532D01*
X31443662Y93985534D01*
X31443660Y93985535D01*
X31243450Y94078894D01*
X31243447Y94078895D01*
X31243445Y94078896D01*
X31030070Y94136070D01*
X31030062Y94136071D01*
X30810002Y94155323D01*
X30809998Y94155323D01*
X30589937Y94136071D01*
X30589929Y94136070D01*
X30376554Y94078896D01*
X30376548Y94078893D01*
X30176340Y93985535D01*
X30176338Y93985534D01*
X29995377Y93858825D01*
X29839175Y93702623D01*
X29712466Y93521662D01*
X29712465Y93521660D01*
X29652382Y93392811D01*
X29606209Y93340372D01*
X29539016Y93321220D01*
X29472135Y93341436D01*
X29427618Y93392811D01*
X29367652Y93521407D01*
X29367534Y93521661D01*
X29240826Y93702620D01*
X29084620Y93858826D01*
X29084616Y93858829D01*
X29084615Y93858830D01*
X28903666Y93985532D01*
X28903662Y93985534D01*
X28903660Y93985535D01*
X28703450Y94078894D01*
X28703447Y94078895D01*
X28703445Y94078896D01*
X28490070Y94136070D01*
X28490062Y94136071D01*
X28270002Y94155323D01*
X28269998Y94155323D01*
X28049937Y94136071D01*
X28049929Y94136070D01*
X27836554Y94078896D01*
X27836548Y94078893D01*
X27636340Y93985535D01*
X27636338Y93985534D01*
X27455377Y93858825D01*
X27299175Y93702623D01*
X27172466Y93521662D01*
X27172465Y93521660D01*
X27112382Y93392811D01*
X27066209Y93340372D01*
X26999016Y93321220D01*
X26932135Y93341436D01*
X26887618Y93392811D01*
X26827652Y93521407D01*
X26827534Y93521661D01*
X26700826Y93702620D01*
X26544620Y93858826D01*
X26544616Y93858829D01*
X26544615Y93858830D01*
X26363666Y93985532D01*
X26363662Y93985534D01*
X26363660Y93985535D01*
X26163450Y94078894D01*
X26163447Y94078895D01*
X26163445Y94078896D01*
X25950070Y94136070D01*
X25950062Y94136071D01*
X25730002Y94155323D01*
X25729998Y94155323D01*
X25509937Y94136071D01*
X25509929Y94136070D01*
X25296554Y94078896D01*
X25296548Y94078893D01*
X25096340Y93985535D01*
X25096338Y93985534D01*
X24915377Y93858825D01*
X24759175Y93702623D01*
X24632466Y93521662D01*
X24632465Y93521660D01*
X24572382Y93392811D01*
X24526209Y93340372D01*
X24459016Y93321220D01*
X24392135Y93341436D01*
X24347618Y93392811D01*
X24287652Y93521407D01*
X24287534Y93521661D01*
X24160826Y93702620D01*
X24004620Y93858826D01*
X24004616Y93858829D01*
X24004615Y93858830D01*
X23823666Y93985532D01*
X23823662Y93985534D01*
X23823660Y93985535D01*
X23623450Y94078894D01*
X23623447Y94078895D01*
X23623445Y94078896D01*
X23410070Y94136070D01*
X23410062Y94136071D01*
X23190002Y94155323D01*
X23189998Y94155323D01*
X22969937Y94136071D01*
X22969929Y94136070D01*
X22756554Y94078896D01*
X22756548Y94078893D01*
X22556340Y93985535D01*
X22556338Y93985534D01*
X22375377Y93858825D01*
X22219175Y93702623D01*
X22092466Y93521662D01*
X22092465Y93521660D01*
X22032382Y93392811D01*
X21986209Y93340372D01*
X21919016Y93321220D01*
X21852135Y93341436D01*
X21807618Y93392811D01*
X21747652Y93521407D01*
X21747534Y93521661D01*
X21620826Y93702620D01*
X21464620Y93858826D01*
X21464616Y93858829D01*
X21464615Y93858830D01*
X21283666Y93985532D01*
X21283662Y93985534D01*
X21283660Y93985535D01*
X21083450Y94078894D01*
X21083447Y94078895D01*
X21083445Y94078896D01*
X20870070Y94136070D01*
X20870062Y94136071D01*
X20650002Y94155323D01*
X20649998Y94155323D01*
X20429937Y94136071D01*
X20429929Y94136070D01*
X20216554Y94078896D01*
X20216548Y94078893D01*
X20016340Y93985535D01*
X20016338Y93985534D01*
X19835377Y93858825D01*
X19679175Y93702623D01*
X19552466Y93521662D01*
X19552465Y93521660D01*
X19492382Y93392811D01*
X19446209Y93340372D01*
X19379016Y93321220D01*
X19312135Y93341436D01*
X19267618Y93392811D01*
X19207652Y93521407D01*
X19207534Y93521661D01*
X19080826Y93702620D01*
X18924620Y93858826D01*
X18924616Y93858829D01*
X18924615Y93858830D01*
X18743666Y93985532D01*
X18743662Y93985534D01*
X18743660Y93985535D01*
X18543450Y94078894D01*
X18543447Y94078895D01*
X18543445Y94078896D01*
X18330070Y94136070D01*
X18330062Y94136071D01*
X18110002Y94155323D01*
X18109998Y94155323D01*
X17889937Y94136071D01*
X17889929Y94136070D01*
X17676554Y94078896D01*
X17676548Y94078893D01*
X17476340Y93985535D01*
X17476338Y93985534D01*
X17295377Y93858825D01*
X17139175Y93702623D01*
X17012466Y93521662D01*
X17012465Y93521660D01*
X16952382Y93392811D01*
X16906209Y93340372D01*
X16839016Y93321220D01*
X16772135Y93341436D01*
X16727618Y93392811D01*
X16667652Y93521407D01*
X16667534Y93521661D01*
X16540826Y93702620D01*
X16540824Y93702623D01*
X16476819Y93766628D01*
X16443334Y93827951D01*
X16440500Y93854309D01*
X16440500Y95999236D01*
X16460185Y96066275D01*
X16512989Y96112030D01*
X16521167Y96115418D01*
X16600142Y96144875D01*
X16657331Y96166204D01*
X16772546Y96252454D01*
X16858796Y96367669D01*
X16909091Y96502517D01*
X16915500Y96562127D01*
X16915499Y98357872D01*
X16909091Y98417483D01*
X16907810Y98420917D01*
X16858797Y98552329D01*
X16858793Y98552336D01*
X16772547Y98667545D01*
X16772544Y98667548D01*
X16657335Y98753794D01*
X16657328Y98753798D01*
X16522482Y98804092D01*
X16522483Y98804092D01*
X16462883Y98810499D01*
X16462881Y98810500D01*
X16462873Y98810500D01*
X16462864Y98810500D01*
X14667129Y98810500D01*
X14667123Y98810499D01*
X14607516Y98804092D01*
X14472671Y98753798D01*
X14472664Y98753794D01*
X14357455Y98667548D01*
X14357452Y98667545D01*
X14271206Y98552336D01*
X14271203Y98552331D01*
X14222189Y98420917D01*
X14180317Y98364984D01*
X14114853Y98340567D01*
X14046580Y98355419D01*
X14018326Y98376570D01*
X13896402Y98498494D01*
X13896395Y98498499D01*
X13702834Y98634033D01*
X13702830Y98634035D01*
X13702828Y98634036D01*
X13488663Y98733903D01*
X13488659Y98733904D01*
X13488655Y98733906D01*
X13260413Y98795062D01*
X13260403Y98795064D01*
X13025001Y98815659D01*
X13024999Y98815659D01*
X12789596Y98795064D01*
X12789586Y98795062D01*
X12561344Y98733906D01*
X12561335Y98733902D01*
X12347171Y98634036D01*
X12347169Y98634035D01*
X12153597Y98498495D01*
X11986505Y98331403D01*
X11856575Y98145842D01*
X11801998Y98102217D01*
X11732500Y98095023D01*
X11670145Y98126546D01*
X11653425Y98145842D01*
X11523494Y98331403D01*
X11356402Y98498494D01*
X11356395Y98498499D01*
X11162834Y98634033D01*
X11162830Y98634035D01*
X11162828Y98634036D01*
X10948663Y98733903D01*
X10948659Y98733904D01*
X10948655Y98733906D01*
X10720413Y98795062D01*
X10720403Y98795064D01*
X10485001Y98815659D01*
X10484999Y98815659D01*
X10249596Y98795064D01*
X10249586Y98795062D01*
X10021344Y98733906D01*
X10021335Y98733902D01*
X9807171Y98634036D01*
X9807169Y98634035D01*
X9613597Y98498495D01*
X9446508Y98331406D01*
X9316269Y98145405D01*
X9261692Y98101781D01*
X9192193Y98094588D01*
X9129839Y98126110D01*
X9113119Y98145406D01*
X8983113Y98331074D01*
X8983108Y98331080D01*
X8816082Y98498106D01*
X8622578Y98633601D01*
X8408492Y98733430D01*
X8408486Y98733433D01*
X8195000Y98790636D01*
X8195000Y97895502D01*
X8087315Y97944680D01*
X7980763Y97960000D01*
X7909237Y97960000D01*
X7802685Y97944680D01*
X7695000Y97895502D01*
X7695000Y98790636D01*
X7694999Y98790636D01*
X7481513Y98733433D01*
X7481507Y98733430D01*
X7267422Y98633601D01*
X7267420Y98633600D01*
X7073926Y98498114D01*
X7073920Y98498109D01*
X6906891Y98331080D01*
X6906886Y98331074D01*
X6771400Y98137580D01*
X6771399Y98137578D01*
X6671570Y97923493D01*
X6671567Y97923487D01*
X6614364Y97710001D01*
X6614364Y97710000D01*
X7511314Y97710000D01*
X7485507Y97669844D01*
X7445000Y97531889D01*
X7445000Y97388111D01*
X7485507Y97250156D01*
X7511314Y97210000D01*
X6614364Y97210000D01*
X6671567Y96996514D01*
X6671570Y96996508D01*
X6771399Y96782422D01*
X6906894Y96588918D01*
X7073917Y96421895D01*
X7267421Y96286400D01*
X7481507Y96186571D01*
X7481516Y96186567D01*
X7695000Y96129366D01*
X7695000Y97024499D01*
X7802685Y96975320D01*
X7909237Y96960000D01*
X7980763Y96960000D01*
X8087315Y96975320D01*
X8195000Y97024499D01*
X8195000Y96129367D01*
X8408483Y96186567D01*
X8408492Y96186571D01*
X8622578Y96286400D01*
X8816082Y96421895D01*
X8983105Y96588918D01*
X9113119Y96774595D01*
X9167696Y96818219D01*
X9237195Y96825412D01*
X9299549Y96793890D01*
X9316269Y96774595D01*
X9446505Y96588599D01*
X9613599Y96421505D01*
X9710384Y96353735D01*
X9807165Y96285968D01*
X9807167Y96285967D01*
X9807170Y96285965D01*
X10021337Y96186097D01*
X10249592Y96124937D01*
X10426034Y96109500D01*
X10484999Y96104341D01*
X10485000Y96104341D01*
X10485001Y96104341D01*
X10543966Y96109500D01*
X10720408Y96124937D01*
X10948663Y96186097D01*
X11162830Y96285965D01*
X11356401Y96421505D01*
X11523495Y96588599D01*
X11653425Y96774158D01*
X11708002Y96817783D01*
X11777500Y96824977D01*
X11839855Y96793454D01*
X11856575Y96774158D01*
X11986501Y96588604D01*
X11986506Y96588598D01*
X12118181Y96456923D01*
X12151666Y96395600D01*
X12154500Y96369242D01*
X12154500Y93849309D01*
X12134815Y93782270D01*
X12118181Y93761628D01*
X12059175Y93702623D01*
X11932466Y93521662D01*
X11932465Y93521660D01*
X11872382Y93392811D01*
X11826209Y93340372D01*
X11759016Y93321220D01*
X11692135Y93341436D01*
X11647618Y93392811D01*
X11587652Y93521407D01*
X11587534Y93521661D01*
X11460826Y93702620D01*
X11304620Y93858826D01*
X11304616Y93858829D01*
X11304615Y93858830D01*
X11123666Y93985532D01*
X11123662Y93985534D01*
X11123660Y93985535D01*
X10923450Y94078894D01*
X10923447Y94078895D01*
X10923445Y94078896D01*
X10710070Y94136070D01*
X10710062Y94136071D01*
X10490002Y94155323D01*
X10489998Y94155323D01*
X10269937Y94136071D01*
X10269929Y94136070D01*
X10056554Y94078896D01*
X10056548Y94078893D01*
X9856340Y93985535D01*
X9856338Y93985534D01*
X9675377Y93858825D01*
X9519175Y93702623D01*
X9392466Y93521662D01*
X9392465Y93521660D01*
X9332382Y93392811D01*
X9286209Y93340372D01*
X9219016Y93321220D01*
X9152135Y93341436D01*
X9107618Y93392811D01*
X9047652Y93521407D01*
X9047534Y93521661D01*
X8920826Y93702620D01*
X8764620Y93858826D01*
X8764616Y93858829D01*
X8764615Y93858830D01*
X8583666Y93985532D01*
X8583662Y93985534D01*
X8583660Y93985535D01*
X8383450Y94078894D01*
X8383447Y94078895D01*
X8383445Y94078896D01*
X8170070Y94136070D01*
X8170062Y94136071D01*
X7950002Y94155323D01*
X7949998Y94155323D01*
X7729937Y94136071D01*
X7729929Y94136070D01*
X7516554Y94078896D01*
X7516548Y94078893D01*
X7316340Y93985535D01*
X7316338Y93985534D01*
X7135377Y93858825D01*
X6979175Y93702623D01*
X6852467Y93521663D01*
X6852466Y93521661D01*
X6852348Y93521407D01*
X6792105Y93392218D01*
X6745932Y93339779D01*
X6678738Y93320628D01*
X6611857Y93340844D01*
X6567341Y93392220D01*
X6507100Y93521407D01*
X6507099Y93521409D01*
X6461740Y93586189D01*
X5854449Y92978899D01*
X5853673Y92989265D01*
X5804113Y93115541D01*
X5719535Y93221599D01*
X5607453Y93298016D01*
X5499699Y93331254D01*
X6108187Y93939742D01*
X6043409Y93985100D01*
X6043407Y93985101D01*
X5843284Y94078420D01*
X5843270Y94078425D01*
X5629986Y94135574D01*
X5629976Y94135576D01*
X5410001Y94154821D01*
X5409999Y94154821D01*
X5190023Y94135576D01*
X5190013Y94135574D01*
X4976729Y94078425D01*
X4976720Y94078421D01*
X4776586Y93985097D01*
X4711812Y93939743D01*
X4711811Y93939742D01*
X5321769Y93329785D01*
X5275862Y93322865D01*
X5153643Y93264007D01*
X5054202Y93171740D01*
X4986375Y93054260D01*
X4968500Y92975947D01*
X4358258Y93586189D01*
X4358257Y93586188D01*
X4312903Y93521414D01*
X4252382Y93391627D01*
X4206209Y93339188D01*
X4139016Y93320036D01*
X4072135Y93340252D01*
X4027618Y93391627D01*
X3967099Y93521410D01*
X3921740Y93586189D01*
X3314449Y92978899D01*
X3313673Y92989265D01*
X3264113Y93115541D01*
X3179535Y93221599D01*
X3067453Y93298016D01*
X2959699Y93331254D01*
X3568187Y93939742D01*
X3503409Y93985100D01*
X3503407Y93985101D01*
X3303284Y94078420D01*
X3303270Y94078425D01*
X3089986Y94135574D01*
X3089976Y94135576D01*
X2870001Y94154821D01*
X2869999Y94154821D01*
X2650023Y94135576D01*
X2650013Y94135574D01*
X2436729Y94078425D01*
X2436720Y94078421D01*
X2236586Y93985097D01*
X2171812Y93939743D01*
X2171811Y93939742D01*
X2781769Y93329785D01*
X2735862Y93322865D01*
X2613643Y93264007D01*
X2514202Y93171740D01*
X2446375Y93054260D01*
X2428500Y92975947D01*
X1818258Y93586189D01*
X1818257Y93586188D01*
X1772903Y93521414D01*
X1679579Y93321280D01*
X1679575Y93321271D01*
X1622426Y93107987D01*
X1622424Y93107977D01*
X1603179Y92888001D01*
X1603179Y92888000D01*
X1622424Y92668024D01*
X1622426Y92668014D01*
X1679575Y92454730D01*
X1679580Y92454716D01*
X1772899Y92254593D01*
X1772900Y92254591D01*
X1818258Y92189813D01*
X2425549Y92797105D01*
X2426327Y92786735D01*
X2475887Y92660459D01*
X2560465Y92554401D01*
X2672547Y92477984D01*
X2780299Y92444747D01*
X2171811Y91836259D01*
X2236582Y91790906D01*
X2236592Y91790900D01*
X2436715Y91697581D01*
X2436729Y91697576D01*
X2650013Y91640427D01*
X2650023Y91640425D01*
X2869999Y91621179D01*
X2870001Y91621179D01*
X3089976Y91640425D01*
X3089986Y91640427D01*
X3303270Y91697576D01*
X3303284Y91697581D01*
X3503408Y91790900D01*
X3503420Y91790907D01*
X3568186Y91836258D01*
X3568187Y91836260D01*
X2958232Y92446216D01*
X3004138Y92453135D01*
X3126357Y92511993D01*
X3225798Y92604260D01*
X3293625Y92721740D01*
X3311499Y92800054D01*
X3921740Y92189813D01*
X3921742Y92189814D01*
X3967093Y92254580D01*
X3967100Y92254592D01*
X4027618Y92384373D01*
X4073790Y92436813D01*
X4140983Y92455965D01*
X4207864Y92435750D01*
X4252382Y92384373D01*
X4312899Y92254593D01*
X4312900Y92254591D01*
X4358258Y92189813D01*
X4965549Y92797105D01*
X4966327Y92786735D01*
X5015887Y92660459D01*
X5100465Y92554401D01*
X5212547Y92477984D01*
X5320299Y92444747D01*
X4711811Y91836259D01*
X4776582Y91790906D01*
X4776592Y91790900D01*
X4976715Y91697581D01*
X4976729Y91697576D01*
X5190013Y91640427D01*
X5190023Y91640425D01*
X5409999Y91621179D01*
X5410001Y91621179D01*
X5629976Y91640425D01*
X5629986Y91640427D01*
X5843270Y91697576D01*
X5843284Y91697581D01*
X6043408Y91790900D01*
X6043420Y91790907D01*
X6108186Y91836258D01*
X6108187Y91836260D01*
X5498232Y92446216D01*
X5544138Y92453135D01*
X5666357Y92511993D01*
X5765798Y92604260D01*
X5833625Y92721740D01*
X5851499Y92800054D01*
X6461740Y92189813D01*
X6461742Y92189814D01*
X6507093Y92254580D01*
X6507100Y92254592D01*
X6567342Y92383781D01*
X6613514Y92436221D01*
X6680707Y92455373D01*
X6747588Y92435158D01*
X6792106Y92383781D01*
X6852464Y92254342D01*
X6852468Y92254334D01*
X6979170Y92073385D01*
X6979175Y92073379D01*
X7135378Y91917176D01*
X7135384Y91917171D01*
X7316333Y91790469D01*
X7316335Y91790468D01*
X7316338Y91790466D01*
X7516550Y91697106D01*
X7729932Y91639930D01*
X7887123Y91626178D01*
X7949998Y91620677D01*
X7950000Y91620677D01*
X7950002Y91620677D01*
X8005017Y91625491D01*
X8170068Y91639930D01*
X8383450Y91697106D01*
X8583662Y91790466D01*
X8764620Y91917174D01*
X8920826Y92073380D01*
X9047534Y92254338D01*
X9107618Y92383189D01*
X9153790Y92435629D01*
X9220983Y92454781D01*
X9287865Y92434565D01*
X9332382Y92383189D01*
X9392464Y92254342D01*
X9392468Y92254334D01*
X9519170Y92073385D01*
X9519175Y92073379D01*
X9675378Y91917176D01*
X9675384Y91917171D01*
X9856333Y91790469D01*
X9856335Y91790468D01*
X9856338Y91790466D01*
X10056550Y91697106D01*
X10269932Y91639930D01*
X10427123Y91626178D01*
X10489998Y91620677D01*
X10490000Y91620677D01*
X10490002Y91620677D01*
X10545017Y91625491D01*
X10710068Y91639930D01*
X10923450Y91697106D01*
X11123662Y91790466D01*
X11304620Y91917174D01*
X11460826Y92073380D01*
X11587534Y92254338D01*
X11647618Y92383189D01*
X11693790Y92435629D01*
X11760983Y92454781D01*
X11827865Y92434565D01*
X11872382Y92383189D01*
X11932464Y92254342D01*
X11932468Y92254334D01*
X12059170Y92073385D01*
X12059175Y92073379D01*
X12215378Y91917176D01*
X12215384Y91917171D01*
X12396333Y91790469D01*
X12396335Y91790468D01*
X12396338Y91790466D01*
X12596550Y91697106D01*
X12809932Y91639930D01*
X12967123Y91626178D01*
X13029998Y91620677D01*
X13030000Y91620677D01*
X13030002Y91620677D01*
X13085017Y91625491D01*
X13250068Y91639930D01*
X13463450Y91697106D01*
X13663662Y91790466D01*
X13844620Y91917174D01*
X14000826Y92073380D01*
X14127534Y92254338D01*
X14187618Y92383189D01*
X14233790Y92435629D01*
X14300983Y92454781D01*
X14367865Y92434565D01*
X14412382Y92383189D01*
X14472464Y92254342D01*
X14472468Y92254334D01*
X14599170Y92073385D01*
X14599175Y92073379D01*
X14755378Y91917176D01*
X14755384Y91917171D01*
X14936333Y91790469D01*
X14936335Y91790468D01*
X14936338Y91790466D01*
X15136550Y91697106D01*
X15349932Y91639930D01*
X15507123Y91626178D01*
X15569998Y91620677D01*
X15570000Y91620677D01*
X15570002Y91620677D01*
X15625017Y91625491D01*
X15790068Y91639930D01*
X16003450Y91697106D01*
X16203662Y91790466D01*
X16384620Y91917174D01*
X16540826Y92073380D01*
X16667534Y92254338D01*
X16727618Y92383189D01*
X16773790Y92435629D01*
X16840983Y92454781D01*
X16907865Y92434565D01*
X16952382Y92383189D01*
X17012464Y92254342D01*
X17012468Y92254334D01*
X17139170Y92073385D01*
X17139175Y92073379D01*
X17295378Y91917176D01*
X17295384Y91917171D01*
X17476333Y91790469D01*
X17476335Y91790468D01*
X17476338Y91790466D01*
X17676550Y91697106D01*
X17889932Y91639930D01*
X18047123Y91626178D01*
X18109998Y91620677D01*
X18110000Y91620677D01*
X18110002Y91620677D01*
X18165017Y91625491D01*
X18330068Y91639930D01*
X18543450Y91697106D01*
X18743662Y91790466D01*
X18924620Y91917174D01*
X19080826Y92073380D01*
X19207534Y92254338D01*
X19267618Y92383189D01*
X19313790Y92435629D01*
X19380983Y92454781D01*
X19447865Y92434565D01*
X19492382Y92383189D01*
X19552464Y92254342D01*
X19552468Y92254334D01*
X19679170Y92073385D01*
X19679175Y92073379D01*
X19835378Y91917176D01*
X19835384Y91917171D01*
X20016333Y91790469D01*
X20016335Y91790468D01*
X20016338Y91790466D01*
X20216550Y91697106D01*
X20429932Y91639930D01*
X20587123Y91626178D01*
X20649998Y91620677D01*
X20650000Y91620677D01*
X20650002Y91620677D01*
X20705017Y91625491D01*
X20870068Y91639930D01*
X21083450Y91697106D01*
X21283662Y91790466D01*
X21464620Y91917174D01*
X21620826Y92073380D01*
X21747534Y92254338D01*
X21807618Y92383189D01*
X21853790Y92435629D01*
X21920983Y92454781D01*
X21987865Y92434565D01*
X22032382Y92383189D01*
X22092464Y92254342D01*
X22092468Y92254334D01*
X22219170Y92073385D01*
X22219175Y92073379D01*
X22375378Y91917176D01*
X22375384Y91917171D01*
X22556333Y91790469D01*
X22556335Y91790468D01*
X22556338Y91790466D01*
X22756550Y91697106D01*
X22969932Y91639930D01*
X23127123Y91626178D01*
X23189998Y91620677D01*
X23190000Y91620677D01*
X23190002Y91620677D01*
X23245017Y91625491D01*
X23410068Y91639930D01*
X23623450Y91697106D01*
X23823662Y91790466D01*
X24004620Y91917174D01*
X24160826Y92073380D01*
X24287534Y92254338D01*
X24347618Y92383189D01*
X24393790Y92435629D01*
X24460983Y92454781D01*
X24527865Y92434565D01*
X24572382Y92383189D01*
X24632464Y92254342D01*
X24632468Y92254334D01*
X24759170Y92073385D01*
X24759175Y92073379D01*
X24915378Y91917176D01*
X24915384Y91917171D01*
X25096333Y91790469D01*
X25096335Y91790468D01*
X25096338Y91790466D01*
X25296550Y91697106D01*
X25509932Y91639930D01*
X25667123Y91626178D01*
X25729998Y91620677D01*
X25730000Y91620677D01*
X25730002Y91620677D01*
X25785017Y91625491D01*
X25950068Y91639930D01*
X26163450Y91697106D01*
X26363662Y91790466D01*
X26544620Y91917174D01*
X26700826Y92073380D01*
X26827534Y92254338D01*
X26887618Y92383189D01*
X26933790Y92435629D01*
X27000983Y92454781D01*
X27067865Y92434565D01*
X27112382Y92383189D01*
X27172464Y92254342D01*
X27172468Y92254334D01*
X27299170Y92073385D01*
X27299175Y92073379D01*
X27455378Y91917176D01*
X27455384Y91917171D01*
X27636333Y91790469D01*
X27636335Y91790468D01*
X27636338Y91790466D01*
X27836550Y91697106D01*
X28049932Y91639930D01*
X28207123Y91626178D01*
X28269998Y91620677D01*
X28270000Y91620677D01*
X28270002Y91620677D01*
X28325017Y91625491D01*
X28490068Y91639930D01*
X28703450Y91697106D01*
X28903662Y91790466D01*
X29084620Y91917174D01*
X29240826Y92073380D01*
X29367534Y92254338D01*
X29427618Y92383189D01*
X29473790Y92435629D01*
X29540983Y92454781D01*
X29607865Y92434565D01*
X29652382Y92383189D01*
X29712464Y92254342D01*
X29712468Y92254334D01*
X29839170Y92073385D01*
X29839175Y92073379D01*
X29995378Y91917176D01*
X29995384Y91917171D01*
X30176333Y91790469D01*
X30176335Y91790468D01*
X30176338Y91790466D01*
X30376550Y91697106D01*
X30589932Y91639930D01*
X30747123Y91626178D01*
X30809998Y91620677D01*
X30810000Y91620677D01*
X30810002Y91620677D01*
X30865017Y91625491D01*
X31030068Y91639930D01*
X31243450Y91697106D01*
X31443662Y91790466D01*
X31624620Y91917174D01*
X31780826Y92073380D01*
X31907534Y92254338D01*
X31967618Y92383189D01*
X32013790Y92435629D01*
X32080983Y92454781D01*
X32147865Y92434565D01*
X32192382Y92383189D01*
X32252464Y92254342D01*
X32252468Y92254334D01*
X32379170Y92073385D01*
X32379175Y92073379D01*
X32535378Y91917176D01*
X32535384Y91917171D01*
X32716333Y91790469D01*
X32716335Y91790468D01*
X32716338Y91790466D01*
X32916550Y91697106D01*
X33129932Y91639930D01*
X33287123Y91626178D01*
X33349998Y91620677D01*
X33350000Y91620677D01*
X33350002Y91620677D01*
X33405017Y91625491D01*
X33570068Y91639930D01*
X33783450Y91697106D01*
X33983662Y91790466D01*
X34164620Y91917174D01*
X34320826Y92073380D01*
X34447534Y92254338D01*
X34507618Y92383189D01*
X34553790Y92435629D01*
X34620983Y92454781D01*
X34687865Y92434565D01*
X34732382Y92383189D01*
X34792464Y92254342D01*
X34792468Y92254334D01*
X34919170Y92073385D01*
X34919175Y92073379D01*
X35075378Y91917176D01*
X35075384Y91917171D01*
X35256333Y91790469D01*
X35256335Y91790468D01*
X35256338Y91790466D01*
X35456550Y91697106D01*
X35669932Y91639930D01*
X35827123Y91626178D01*
X35889998Y91620677D01*
X35890000Y91620677D01*
X35890002Y91620677D01*
X35945017Y91625491D01*
X36110068Y91639930D01*
X36323450Y91697106D01*
X36523662Y91790466D01*
X36704620Y91917174D01*
X36860826Y92073380D01*
X36987534Y92254338D01*
X37047618Y92383189D01*
X37093790Y92435629D01*
X37160983Y92454781D01*
X37227865Y92434565D01*
X37272382Y92383189D01*
X37332464Y92254342D01*
X37332468Y92254334D01*
X37459170Y92073385D01*
X37459175Y92073379D01*
X37615378Y91917176D01*
X37615384Y91917171D01*
X37796333Y91790469D01*
X37796335Y91790468D01*
X37796338Y91790466D01*
X37996550Y91697106D01*
X38209932Y91639930D01*
X38367123Y91626178D01*
X38429998Y91620677D01*
X38430000Y91620677D01*
X38430002Y91620677D01*
X38485017Y91625491D01*
X38650068Y91639930D01*
X38863450Y91697106D01*
X39063662Y91790466D01*
X39244620Y91917174D01*
X39400826Y92073380D01*
X39527534Y92254338D01*
X39587618Y92383189D01*
X39633790Y92435629D01*
X39700983Y92454781D01*
X39767865Y92434565D01*
X39812382Y92383189D01*
X39872464Y92254342D01*
X39872468Y92254334D01*
X39999170Y92073385D01*
X39999175Y92073379D01*
X40155378Y91917176D01*
X40155384Y91917171D01*
X40336333Y91790469D01*
X40336335Y91790468D01*
X40336338Y91790466D01*
X40536550Y91697106D01*
X40749932Y91639930D01*
X40907123Y91626178D01*
X40969998Y91620677D01*
X40970000Y91620677D01*
X40970002Y91620677D01*
X41025017Y91625491D01*
X41190068Y91639930D01*
X41403450Y91697106D01*
X41603662Y91790466D01*
X41784620Y91917174D01*
X41940826Y92073380D01*
X42067534Y92254338D01*
X42127618Y92383189D01*
X42173790Y92435629D01*
X42240983Y92454781D01*
X42307865Y92434565D01*
X42352382Y92383189D01*
X42412464Y92254342D01*
X42412468Y92254334D01*
X42539170Y92073385D01*
X42539175Y92073379D01*
X42598181Y92014373D01*
X42631666Y91953050D01*
X42634500Y91926692D01*
X42634500Y89238103D01*
X42634295Y89233069D01*
X42629660Y89176157D01*
X42640914Y89093559D01*
X42649927Y89010684D01*
X42649929Y89010673D01*
X42649990Y89010494D01*
X42655340Y88987669D01*
X42655366Y88987475D01*
X42655369Y88987464D01*
X42684119Y88909206D01*
X42710730Y88830226D01*
X42710734Y88830218D01*
X42710832Y88830055D01*
X42720969Y88808901D01*
X42721036Y88808717D01*
X42721038Y88808714D01*
X42721039Y88808712D01*
X42734112Y88788259D01*
X42763104Y88742900D01*
X42765940Y88738464D01*
X42808911Y88667046D01*
X42809042Y88666908D01*
X42823495Y88648421D01*
X42823602Y88648253D01*
X42879429Y88592427D01*
X42882552Y88589304D01*
X42939871Y88528793D01*
X42940028Y88528686D01*
X42958121Y88513735D01*
X45398992Y86072864D01*
X45402396Y86069171D01*
X45439362Y86025650D01*
X45439363Y86025649D01*
X45439365Y86025648D01*
X45439369Y86025643D01*
X45505737Y85975192D01*
X45570699Y85922973D01*
X45570701Y85922971D01*
X45570872Y85922886D01*
X45590814Y85910517D01*
X45590971Y85910398D01*
X45666640Y85875390D01*
X45741307Y85838359D01*
X45741483Y85838316D01*
X45763625Y85830521D01*
X45763803Y85830438D01*
X45804513Y85821477D01*
X45845223Y85812516D01*
X45860359Y85808752D01*
X45926110Y85792400D01*
X45926283Y85792396D01*
X45949602Y85789540D01*
X45949784Y85789500D01*
X45949787Y85789500D01*
X46033159Y85789500D01*
X46116473Y85787243D01*
X46116655Y85787279D01*
X46140023Y85789500D01*
X63151898Y85789500D01*
X63156932Y85789295D01*
X63213844Y85784661D01*
X63213845Y85784662D01*
X63213848Y85784661D01*
X63296441Y85795915D01*
X63379316Y85804927D01*
X63379481Y85804983D01*
X63402357Y85810345D01*
X63402537Y85810369D01*
X63480793Y85839120D01*
X63559780Y85865733D01*
X63559928Y85865822D01*
X63581116Y85875976D01*
X63581288Y85876039D01*
X63651536Y85920941D01*
X63722954Y85963911D01*
X63723083Y85964034D01*
X63741597Y85978506D01*
X63741607Y85978513D01*
X63741744Y85978600D01*
X63771219Y86008077D01*
X63800696Y86037552D01*
X63837987Y86072876D01*
X63861207Y86094871D01*
X63861306Y86095017D01*
X63876264Y86113122D01*
X69287821Y91524678D01*
X69349142Y91558161D01*
X69418834Y91553177D01*
X69474767Y91511305D01*
X69499184Y91445841D01*
X69499500Y91436995D01*
X69499500Y77998500D01*
X69479815Y77931461D01*
X69427011Y77885706D01*
X69375500Y77874500D01*
X68377129Y77874500D01*
X68377123Y77874499D01*
X68317516Y77868092D01*
X68182671Y77817798D01*
X68182664Y77817794D01*
X68067455Y77731548D01*
X68024266Y77673855D01*
X67968332Y77631985D01*
X67898640Y77627001D01*
X67837317Y77660487D01*
X67825729Y77673862D01*
X67825229Y77674530D01*
X67800815Y77739996D01*
X67800500Y77748835D01*
X67800500Y78324902D01*
X67800705Y78329937D01*
X67802205Y78348370D01*
X67805339Y78386848D01*
X67794085Y78469442D01*
X67785073Y78552316D01*
X67785014Y78552491D01*
X67779656Y78575351D01*
X67779631Y78575537D01*
X67750880Y78653794D01*
X67724267Y78732780D01*
X67724266Y78732782D01*
X67724172Y78732939D01*
X67714025Y78754113D01*
X67713961Y78754288D01*
X67669059Y78824537D01*
X67626089Y78895954D01*
X67625955Y78896096D01*
X67611504Y78914581D01*
X67611400Y78914744D01*
X67552447Y78973697D01*
X67495129Y79034207D01*
X67494970Y79034315D01*
X67476877Y79049267D01*
X64562821Y81963323D01*
X61300999Y85225145D01*
X61297608Y85228824D01*
X61260631Y85272357D01*
X61198746Y85319400D01*
X61194262Y85322809D01*
X61129297Y85375030D01*
X61129294Y85375032D01*
X61129120Y85375118D01*
X61109182Y85387486D01*
X61109029Y85387603D01*
X61109027Y85387604D01*
X61033359Y85422611D01*
X61026338Y85426093D01*
X60958693Y85459641D01*
X60958689Y85459642D01*
X60958680Y85459645D01*
X60958488Y85459693D01*
X60936385Y85467475D01*
X60936198Y85467562D01*
X60936194Y85467563D01*
X60854771Y85485486D01*
X60773885Y85505601D01*
X60773689Y85505606D01*
X60750413Y85508457D01*
X60750222Y85508499D01*
X60750219Y85508500D01*
X60750216Y85508500D01*
X60750212Y85508500D01*
X60666840Y85508500D01*
X60583527Y85510757D01*
X60583526Y85510757D01*
X60583345Y85510722D01*
X60559977Y85508500D01*
X30081099Y85508500D01*
X30076064Y85508705D01*
X30019154Y85513340D01*
X30019148Y85513339D01*
X29936559Y85502087D01*
X29853680Y85493073D01*
X29853490Y85493008D01*
X29830665Y85487659D01*
X29830466Y85487632D01*
X29830463Y85487632D01*
X29830463Y85487631D01*
X29813441Y85481378D01*
X29752205Y85458881D01*
X29673220Y85432268D01*
X29673217Y85432266D01*
X29673040Y85432159D01*
X29651911Y85422035D01*
X29651713Y85421963D01*
X29581463Y85377060D01*
X29510043Y85334088D01*
X29510041Y85334086D01*
X29509890Y85333942D01*
X29491436Y85319515D01*
X29491260Y85319403D01*
X29491255Y85319399D01*
X29432302Y85260448D01*
X29371796Y85203133D01*
X29371792Y85203129D01*
X29371681Y85202964D01*
X29356737Y85184883D01*
X25137873Y80966018D01*
X25134170Y80962604D01*
X25090641Y80925630D01*
X25040191Y80859263D01*
X24987970Y80794299D01*
X24987968Y80794296D01*
X24987879Y80794115D01*
X24975529Y80774204D01*
X24975400Y80774036D01*
X24975397Y80774030D01*
X24954605Y80729087D01*
X24940389Y80698360D01*
X24922504Y80662297D01*
X24903359Y80623695D01*
X24903354Y80623681D01*
X24903309Y80623497D01*
X24895527Y80601391D01*
X24895441Y80601206D01*
X24895438Y80601197D01*
X24877514Y80519771D01*
X24857399Y80438887D01*
X24857394Y80438690D01*
X24854545Y80415425D01*
X24854500Y80415222D01*
X24854500Y80331840D01*
X24852243Y80248527D01*
X24852278Y80248345D01*
X24854500Y80224977D01*
X24854500Y78609309D01*
X24834815Y78542270D01*
X24818181Y78521628D01*
X24759175Y78462623D01*
X24632466Y78281662D01*
X24632465Y78281660D01*
X24572382Y78152811D01*
X24526209Y78100372D01*
X24459016Y78081220D01*
X24392135Y78101436D01*
X24347618Y78152811D01*
X24329059Y78192610D01*
X24287534Y78281661D01*
X24160826Y78462620D01*
X24004620Y78618826D01*
X24004616Y78618829D01*
X24004615Y78618830D01*
X23823666Y78745532D01*
X23823662Y78745534D01*
X23804559Y78754442D01*
X23623450Y78838894D01*
X23623447Y78838895D01*
X23623445Y78838896D01*
X23410070Y78896070D01*
X23410062Y78896071D01*
X23190002Y78915323D01*
X23189998Y78915323D01*
X22969937Y78896071D01*
X22969929Y78896070D01*
X22756554Y78838896D01*
X22756548Y78838893D01*
X22556340Y78745535D01*
X22556338Y78745534D01*
X22375377Y78618825D01*
X22219175Y78462623D01*
X22092466Y78281662D01*
X22092465Y78281660D01*
X22032382Y78152811D01*
X21986209Y78100372D01*
X21919016Y78081220D01*
X21852135Y78101436D01*
X21807618Y78152811D01*
X21789059Y78192610D01*
X21747534Y78281661D01*
X21620826Y78462620D01*
X21464620Y78618826D01*
X21464616Y78618829D01*
X21464615Y78618830D01*
X21283666Y78745532D01*
X21283662Y78745534D01*
X21264559Y78754442D01*
X21083450Y78838894D01*
X21083447Y78838895D01*
X21083445Y78838896D01*
X20870070Y78896070D01*
X20870062Y78896071D01*
X20650002Y78915323D01*
X20649998Y78915323D01*
X20429937Y78896071D01*
X20429929Y78896070D01*
X20216554Y78838896D01*
X20216548Y78838893D01*
X20016340Y78745535D01*
X20016338Y78745534D01*
X19835377Y78618825D01*
X19679175Y78462623D01*
X19552466Y78281662D01*
X19552465Y78281660D01*
X19492382Y78152811D01*
X19446209Y78100372D01*
X19379016Y78081220D01*
X19312135Y78101436D01*
X19267618Y78152811D01*
X19249059Y78192610D01*
X19207534Y78281661D01*
X19080826Y78462620D01*
X18924620Y78618826D01*
X18924616Y78618829D01*
X18924615Y78618830D01*
X18743666Y78745532D01*
X18743662Y78745534D01*
X18724559Y78754442D01*
X18543450Y78838894D01*
X18543447Y78838895D01*
X18543445Y78838896D01*
X18330070Y78896070D01*
X18330062Y78896071D01*
X18110002Y78915323D01*
X18109998Y78915323D01*
X17889937Y78896071D01*
X17889929Y78896070D01*
X17676554Y78838896D01*
X17676548Y78838893D01*
X17476340Y78745535D01*
X17476338Y78745534D01*
X17295377Y78618825D01*
X17139175Y78462623D01*
X17012466Y78281662D01*
X17012465Y78281660D01*
X16952382Y78152811D01*
X16906209Y78100372D01*
X16839016Y78081220D01*
X16772135Y78101436D01*
X16727618Y78152811D01*
X16709059Y78192610D01*
X16667534Y78281661D01*
X16540826Y78462620D01*
X16384620Y78618826D01*
X16384616Y78618829D01*
X16384615Y78618830D01*
X16203666Y78745532D01*
X16203662Y78745534D01*
X16184559Y78754442D01*
X16003450Y78838894D01*
X16003447Y78838895D01*
X16003445Y78838896D01*
X15790070Y78896070D01*
X15790062Y78896071D01*
X15570002Y78915323D01*
X15569998Y78915323D01*
X15349937Y78896071D01*
X15349929Y78896070D01*
X15136554Y78838896D01*
X15136548Y78838893D01*
X14936340Y78745535D01*
X14936338Y78745534D01*
X14755377Y78618825D01*
X14599175Y78462623D01*
X14472466Y78281662D01*
X14472465Y78281660D01*
X14412382Y78152811D01*
X14366209Y78100372D01*
X14299016Y78081220D01*
X14232135Y78101436D01*
X14187618Y78152811D01*
X14169059Y78192610D01*
X14127534Y78281661D01*
X14000826Y78462620D01*
X13844620Y78618826D01*
X13844616Y78618829D01*
X13844615Y78618830D01*
X13663666Y78745532D01*
X13663662Y78745534D01*
X13644559Y78754442D01*
X13463450Y78838894D01*
X13463447Y78838895D01*
X13463445Y78838896D01*
X13250070Y78896070D01*
X13250062Y78896071D01*
X13030002Y78915323D01*
X13029998Y78915323D01*
X12809937Y78896071D01*
X12809929Y78896070D01*
X12596554Y78838896D01*
X12596548Y78838893D01*
X12396340Y78745535D01*
X12396338Y78745534D01*
X12215377Y78618825D01*
X12059175Y78462623D01*
X11932466Y78281662D01*
X11932465Y78281660D01*
X11872382Y78152811D01*
X11826209Y78100372D01*
X11759016Y78081220D01*
X11692135Y78101436D01*
X11647618Y78152811D01*
X11629059Y78192610D01*
X11587534Y78281661D01*
X11460826Y78462620D01*
X11304620Y78618826D01*
X11304616Y78618829D01*
X11304615Y78618830D01*
X11123666Y78745532D01*
X11123662Y78745534D01*
X11104559Y78754442D01*
X10923450Y78838894D01*
X10923447Y78838895D01*
X10923445Y78838896D01*
X10710070Y78896070D01*
X10710062Y78896071D01*
X10490002Y78915323D01*
X10489998Y78915323D01*
X10269937Y78896071D01*
X10269929Y78896070D01*
X10056554Y78838896D01*
X10056548Y78838893D01*
X9856340Y78745535D01*
X9856338Y78745534D01*
X9675377Y78618825D01*
X9519175Y78462623D01*
X9392466Y78281662D01*
X9392465Y78281660D01*
X9332382Y78152811D01*
X9286209Y78100372D01*
X9219016Y78081220D01*
X9152135Y78101436D01*
X9107618Y78152811D01*
X9089059Y78192610D01*
X9047534Y78281661D01*
X8920826Y78462620D01*
X8764620Y78618826D01*
X8764616Y78618829D01*
X8764615Y78618830D01*
X8583666Y78745532D01*
X8583662Y78745534D01*
X8564559Y78754442D01*
X8383450Y78838894D01*
X8383447Y78838895D01*
X8383445Y78838896D01*
X8170070Y78896070D01*
X8170062Y78896071D01*
X7950002Y78915323D01*
X7949998Y78915323D01*
X7729937Y78896071D01*
X7729929Y78896070D01*
X7516554Y78838896D01*
X7516548Y78838893D01*
X7316340Y78745535D01*
X7316338Y78745534D01*
X7135377Y78618825D01*
X6979175Y78462623D01*
X6852466Y78281662D01*
X6852465Y78281660D01*
X6792382Y78152811D01*
X6746209Y78100372D01*
X6679016Y78081220D01*
X6612135Y78101436D01*
X6567618Y78152811D01*
X6549059Y78192610D01*
X6507534Y78281661D01*
X6380826Y78462620D01*
X6224620Y78618826D01*
X6224616Y78618829D01*
X6224615Y78618830D01*
X6043666Y78745532D01*
X6043662Y78745534D01*
X6024559Y78754442D01*
X5843450Y78838894D01*
X5843447Y78838895D01*
X5843445Y78838896D01*
X5630070Y78896070D01*
X5630062Y78896071D01*
X5410002Y78915323D01*
X5409998Y78915323D01*
X5189937Y78896071D01*
X5189929Y78896070D01*
X4976554Y78838896D01*
X4976548Y78838893D01*
X4776340Y78745535D01*
X4776338Y78745534D01*
X4595377Y78618825D01*
X4439175Y78462623D01*
X4312466Y78281662D01*
X4312465Y78281660D01*
X4252382Y78152811D01*
X4206209Y78100372D01*
X4139016Y78081220D01*
X4072135Y78101436D01*
X4027618Y78152811D01*
X4009059Y78192610D01*
X3967534Y78281661D01*
X3840826Y78462620D01*
X3684620Y78618826D01*
X3684616Y78618829D01*
X3684615Y78618830D01*
X3503666Y78745532D01*
X3503662Y78745534D01*
X3484559Y78754442D01*
X3303450Y78838894D01*
X3303447Y78838895D01*
X3303445Y78838896D01*
X3090070Y78896070D01*
X3090062Y78896071D01*
X2870002Y78915323D01*
X2869998Y78915323D01*
X2649937Y78896071D01*
X2649929Y78896070D01*
X2436554Y78838896D01*
X2436548Y78838893D01*
X2236340Y78745535D01*
X2236338Y78745534D01*
X2055377Y78618825D01*
X1899175Y78462623D01*
X1772466Y78281662D01*
X1772465Y78281660D01*
X1679107Y78081452D01*
X1679104Y78081446D01*
X1621930Y77868071D01*
X1621929Y77868063D01*
X1602677Y77648003D01*
X1602677Y77647998D01*
X1621929Y77427938D01*
X1621930Y77427930D01*
X1679104Y77214555D01*
X1679105Y77214553D01*
X1679106Y77214550D01*
X1712106Y77143781D01*
X1772466Y77014338D01*
X1772468Y77014334D01*
X1899170Y76833385D01*
X1899175Y76833379D01*
X2055378Y76677176D01*
X2055384Y76677171D01*
X2236333Y76550469D01*
X2236335Y76550468D01*
X2236338Y76550466D01*
X2436550Y76457106D01*
X2649932Y76399930D01*
X2807123Y76386178D01*
X2869998Y76380677D01*
X2870000Y76380677D01*
X2870002Y76380677D01*
X2925017Y76385491D01*
X3090068Y76399930D01*
X3303450Y76457106D01*
X3503662Y76550466D01*
X3684620Y76677174D01*
X3840826Y76833380D01*
X3967534Y77014338D01*
X4027618Y77143189D01*
X4073790Y77195629D01*
X4140983Y77214781D01*
X4207865Y77194565D01*
X4252382Y77143189D01*
X4312464Y77014342D01*
X4312468Y77014334D01*
X4439170Y76833385D01*
X4439175Y76833379D01*
X4595378Y76677176D01*
X4595384Y76677171D01*
X4776333Y76550469D01*
X4776335Y76550468D01*
X4776338Y76550466D01*
X4976550Y76457106D01*
X5189932Y76399930D01*
X5347123Y76386178D01*
X5409998Y76380677D01*
X5410000Y76380677D01*
X5410002Y76380677D01*
X5465017Y76385491D01*
X5630068Y76399930D01*
X5843450Y76457106D01*
X6043662Y76550466D01*
X6224620Y76677174D01*
X6380826Y76833380D01*
X6507534Y77014338D01*
X6567618Y77143189D01*
X6613790Y77195629D01*
X6680983Y77214781D01*
X6747865Y77194565D01*
X6792382Y77143189D01*
X6852464Y77014342D01*
X6852468Y77014334D01*
X6979170Y76833385D01*
X6979175Y76833379D01*
X7135378Y76677176D01*
X7135384Y76677171D01*
X7316333Y76550469D01*
X7316335Y76550468D01*
X7316338Y76550466D01*
X7516550Y76457106D01*
X7729932Y76399930D01*
X7887123Y76386178D01*
X7949998Y76380677D01*
X7950000Y76380677D01*
X7950002Y76380677D01*
X8005017Y76385491D01*
X8170068Y76399930D01*
X8383450Y76457106D01*
X8583662Y76550466D01*
X8764620Y76677174D01*
X8920826Y76833380D01*
X9047534Y77014338D01*
X9107618Y77143189D01*
X9153790Y77195629D01*
X9220983Y77214781D01*
X9287865Y77194565D01*
X9332382Y77143189D01*
X9392464Y77014342D01*
X9392468Y77014334D01*
X9519170Y76833385D01*
X9519175Y76833379D01*
X9675378Y76677176D01*
X9675384Y76677171D01*
X9856333Y76550469D01*
X9856335Y76550468D01*
X9856338Y76550466D01*
X10056550Y76457106D01*
X10269932Y76399930D01*
X10427123Y76386178D01*
X10489998Y76380677D01*
X10490000Y76380677D01*
X10490002Y76380677D01*
X10545017Y76385491D01*
X10710068Y76399930D01*
X10923450Y76457106D01*
X11123662Y76550466D01*
X11304620Y76677174D01*
X11460826Y76833380D01*
X11587534Y77014338D01*
X11647618Y77143189D01*
X11693790Y77195629D01*
X11760983Y77214781D01*
X11827865Y77194565D01*
X11872382Y77143189D01*
X11932464Y77014342D01*
X11932468Y77014334D01*
X12059170Y76833385D01*
X12059175Y76833379D01*
X12215378Y76677176D01*
X12215384Y76677171D01*
X12396333Y76550469D01*
X12396335Y76550468D01*
X12396338Y76550466D01*
X12596550Y76457106D01*
X12809932Y76399930D01*
X12967123Y76386178D01*
X13029998Y76380677D01*
X13030000Y76380677D01*
X13030002Y76380677D01*
X13085017Y76385491D01*
X13250068Y76399930D01*
X13463450Y76457106D01*
X13663662Y76550466D01*
X13844620Y76677174D01*
X14000826Y76833380D01*
X14127534Y77014338D01*
X14187618Y77143189D01*
X14233790Y77195629D01*
X14300983Y77214781D01*
X14367865Y77194565D01*
X14412382Y77143189D01*
X14472464Y77014342D01*
X14472468Y77014334D01*
X14599170Y76833385D01*
X14599175Y76833379D01*
X14755378Y76677176D01*
X14755384Y76677171D01*
X14936333Y76550469D01*
X14936335Y76550468D01*
X14936338Y76550466D01*
X15136550Y76457106D01*
X15349932Y76399930D01*
X15507123Y76386178D01*
X15569998Y76380677D01*
X15570000Y76380677D01*
X15570002Y76380677D01*
X15625017Y76385491D01*
X15790068Y76399930D01*
X16003450Y76457106D01*
X16203662Y76550466D01*
X16384620Y76677174D01*
X16540826Y76833380D01*
X16667534Y77014338D01*
X16727618Y77143189D01*
X16773790Y77195629D01*
X16840983Y77214781D01*
X16907865Y77194565D01*
X16952382Y77143189D01*
X17012464Y77014342D01*
X17012468Y77014334D01*
X17139170Y76833385D01*
X17139175Y76833379D01*
X17295378Y76677176D01*
X17295384Y76677171D01*
X17476333Y76550469D01*
X17476335Y76550468D01*
X17476338Y76550466D01*
X17676550Y76457106D01*
X17889932Y76399930D01*
X18047123Y76386178D01*
X18109998Y76380677D01*
X18110000Y76380677D01*
X18110002Y76380677D01*
X18165017Y76385491D01*
X18330068Y76399930D01*
X18543450Y76457106D01*
X18743662Y76550466D01*
X18924620Y76677174D01*
X19080826Y76833380D01*
X19207534Y77014338D01*
X19267618Y77143189D01*
X19313790Y77195629D01*
X19380983Y77214781D01*
X19447865Y77194565D01*
X19492382Y77143189D01*
X19552464Y77014342D01*
X19552468Y77014334D01*
X19679170Y76833385D01*
X19679175Y76833379D01*
X19835378Y76677176D01*
X19835384Y76677171D01*
X20016333Y76550469D01*
X20016335Y76550468D01*
X20016338Y76550466D01*
X20216550Y76457106D01*
X20429932Y76399930D01*
X20587123Y76386178D01*
X20649998Y76380677D01*
X20650000Y76380677D01*
X20650002Y76380677D01*
X20705017Y76385491D01*
X20870068Y76399930D01*
X21083450Y76457106D01*
X21283662Y76550466D01*
X21464620Y76677174D01*
X21620826Y76833380D01*
X21747534Y77014338D01*
X21807618Y77143189D01*
X21853790Y77195629D01*
X21920983Y77214781D01*
X21987865Y77194565D01*
X22032382Y77143189D01*
X22092464Y77014342D01*
X22092468Y77014334D01*
X22219170Y76833385D01*
X22219175Y76833379D01*
X22375378Y76677176D01*
X22375384Y76677171D01*
X22556333Y76550469D01*
X22556335Y76550468D01*
X22556338Y76550466D01*
X22756550Y76457106D01*
X22969932Y76399930D01*
X23127123Y76386178D01*
X23189998Y76380677D01*
X23190000Y76380677D01*
X23190002Y76380677D01*
X23245017Y76385491D01*
X23410068Y76399930D01*
X23623450Y76457106D01*
X23823662Y76550466D01*
X24004620Y76677174D01*
X24160826Y76833380D01*
X24287534Y77014338D01*
X24347618Y77143189D01*
X24393790Y77195629D01*
X24460983Y77214781D01*
X24527865Y77194565D01*
X24572382Y77143189D01*
X24632464Y77014342D01*
X24632468Y77014334D01*
X24759170Y76833385D01*
X24759175Y76833379D01*
X24915378Y76677176D01*
X24915384Y76677171D01*
X25096333Y76550469D01*
X25096335Y76550468D01*
X25096338Y76550466D01*
X25296550Y76457106D01*
X25509932Y76399930D01*
X25667123Y76386178D01*
X25729998Y76380677D01*
X25730000Y76380677D01*
X25730002Y76380677D01*
X25785017Y76385491D01*
X25950068Y76399930D01*
X26163450Y76457106D01*
X26363662Y76550466D01*
X26544620Y76677174D01*
X26700826Y76833380D01*
X26827534Y77014338D01*
X26887618Y77143189D01*
X26933790Y77195629D01*
X27000983Y77214781D01*
X27067865Y77194565D01*
X27112382Y77143189D01*
X27172464Y77014342D01*
X27172468Y77014334D01*
X27299170Y76833385D01*
X27299175Y76833379D01*
X27455378Y76677176D01*
X27455384Y76677171D01*
X27636333Y76550469D01*
X27636335Y76550468D01*
X27636338Y76550466D01*
X27836550Y76457106D01*
X28049932Y76399930D01*
X28207123Y76386178D01*
X28269998Y76380677D01*
X28270000Y76380677D01*
X28270002Y76380677D01*
X28325017Y76385491D01*
X28490068Y76399930D01*
X28703450Y76457106D01*
X28903662Y76550466D01*
X29084620Y76677174D01*
X29240826Y76833380D01*
X29367534Y77014338D01*
X29427618Y77143189D01*
X29473790Y77195629D01*
X29540983Y77214781D01*
X29607865Y77194565D01*
X29652382Y77143189D01*
X29712464Y77014342D01*
X29712468Y77014334D01*
X29839170Y76833385D01*
X29839175Y76833379D01*
X29995378Y76677176D01*
X29995384Y76677171D01*
X30176333Y76550469D01*
X30176335Y76550468D01*
X30176338Y76550466D01*
X30376550Y76457106D01*
X30589932Y76399930D01*
X30747123Y76386178D01*
X30809998Y76380677D01*
X30810000Y76380677D01*
X30810002Y76380677D01*
X30865017Y76385491D01*
X31030068Y76399930D01*
X31243450Y76457106D01*
X31443662Y76550466D01*
X31624620Y76677174D01*
X31780826Y76833380D01*
X31907534Y77014338D01*
X31967618Y77143189D01*
X32013790Y77195629D01*
X32080983Y77214781D01*
X32147865Y77194565D01*
X32192382Y77143189D01*
X32252464Y77014342D01*
X32252468Y77014334D01*
X32379170Y76833385D01*
X32379175Y76833379D01*
X32535378Y76677176D01*
X32535384Y76677171D01*
X32716333Y76550469D01*
X32716335Y76550468D01*
X32716338Y76550466D01*
X32916550Y76457106D01*
X33129932Y76399930D01*
X33337016Y76381813D01*
X33402085Y76356361D01*
X33413890Y76345966D01*
X36513992Y73245864D01*
X36517396Y73242171D01*
X36554362Y73198650D01*
X36554363Y73198649D01*
X36554365Y73198648D01*
X36554369Y73198643D01*
X36620737Y73148192D01*
X36685699Y73095973D01*
X36685701Y73095971D01*
X36685872Y73095886D01*
X36705814Y73083517D01*
X36705971Y73083398D01*
X36781640Y73048390D01*
X36856307Y73011359D01*
X36856481Y73011316D01*
X36878626Y73003520D01*
X36878803Y73003438D01*
X36878806Y73003438D01*
X36878807Y73003437D01*
X36878806Y73003437D01*
X36960228Y72985515D01*
X36968850Y72983371D01*
X37041111Y72965400D01*
X37041284Y72965396D01*
X37064602Y72962540D01*
X37064784Y72962500D01*
X37064787Y72962500D01*
X37148160Y72962500D01*
X37231473Y72960243D01*
X37231655Y72960279D01*
X37255023Y72962500D01*
X63791898Y72962500D01*
X63796932Y72962295D01*
X63853844Y72957661D01*
X63853845Y72957662D01*
X63853848Y72957661D01*
X63936441Y72968915D01*
X64019316Y72977927D01*
X64019481Y72977983D01*
X64042357Y72983345D01*
X64042537Y72983369D01*
X64120793Y73012120D01*
X64199780Y73038733D01*
X64199928Y73038822D01*
X64221116Y73048976D01*
X64221288Y73049039D01*
X64291536Y73093941D01*
X64362954Y73136911D01*
X64363083Y73137034D01*
X64381597Y73151506D01*
X64381607Y73151513D01*
X64381744Y73151600D01*
X64411219Y73181077D01*
X64440696Y73210552D01*
X64477987Y73245876D01*
X64501207Y73267871D01*
X64501306Y73268017D01*
X64516264Y73286122D01*
X65517142Y74287000D01*
X65520810Y74290382D01*
X65564357Y74327369D01*
X65610980Y74388703D01*
X65659998Y74425112D01*
X65659541Y74425950D01*
X65665532Y74429222D01*
X65666374Y74429847D01*
X65667328Y74430203D01*
X65667327Y74430203D01*
X65667331Y74430204D01*
X65782546Y74516454D01*
X65825734Y74574146D01*
X65881667Y74616016D01*
X65951359Y74621000D01*
X66012682Y74587515D01*
X66024263Y74574150D01*
X66067454Y74516454D01*
X66113643Y74481877D01*
X66182664Y74430207D01*
X66182671Y74430203D01*
X66317517Y74379909D01*
X66317516Y74379909D01*
X66324444Y74379165D01*
X66377127Y74373500D01*
X67472872Y74373501D01*
X67532483Y74379909D01*
X67667331Y74430204D01*
X67782546Y74516454D01*
X67825734Y74574146D01*
X67881667Y74616016D01*
X67951359Y74621000D01*
X68012682Y74587515D01*
X68024263Y74574150D01*
X68067454Y74516454D01*
X68113643Y74481877D01*
X68182664Y74430207D01*
X68182671Y74430203D01*
X68317517Y74379909D01*
X68317516Y74379909D01*
X68324444Y74379165D01*
X68377127Y74373500D01*
X69375500Y74373501D01*
X69442539Y74353817D01*
X69488294Y74301013D01*
X69499500Y74249501D01*
X69499500Y70000000D01*
X500500Y70000000D01*
X500500Y80695998D01*
X19377677Y80695998D01*
X19396929Y80475938D01*
X19396930Y80475930D01*
X19454104Y80262555D01*
X19454105Y80262553D01*
X19454106Y80262550D01*
X19522282Y80116345D01*
X19547466Y80062338D01*
X19547468Y80062334D01*
X19674170Y79881385D01*
X19674175Y79881379D01*
X19830378Y79725176D01*
X19830384Y79725171D01*
X20011333Y79598469D01*
X20011335Y79598468D01*
X20011338Y79598466D01*
X20211550Y79505106D01*
X20424932Y79447930D01*
X20582123Y79434178D01*
X20644998Y79428677D01*
X20645000Y79428677D01*
X20645002Y79428677D01*
X20700017Y79433491D01*
X20865068Y79447930D01*
X21078450Y79505106D01*
X21278662Y79598466D01*
X21459620Y79725174D01*
X21615826Y79881380D01*
X21742534Y80062338D01*
X21835894Y80262550D01*
X21893070Y80475932D01*
X21908436Y80651567D01*
X21912323Y80695998D01*
X21912323Y80696003D01*
X21900404Y80832233D01*
X21893070Y80916068D01*
X21835894Y81129450D01*
X21742534Y81329661D01*
X21657849Y81450604D01*
X21615827Y81510619D01*
X21552689Y81573757D01*
X21459620Y81666826D01*
X21459616Y81666829D01*
X21459615Y81666830D01*
X21278666Y81793532D01*
X21278662Y81793534D01*
X21230095Y81816181D01*
X21078450Y81886894D01*
X21078447Y81886895D01*
X21078445Y81886896D01*
X20865070Y81944070D01*
X20865062Y81944071D01*
X20645002Y81963323D01*
X20644998Y81963323D01*
X20424937Y81944071D01*
X20424929Y81944070D01*
X20211554Y81886896D01*
X20211548Y81886893D01*
X20011340Y81793535D01*
X20011338Y81793534D01*
X19830377Y81666825D01*
X19674175Y81510623D01*
X19547466Y81329662D01*
X19547465Y81329660D01*
X19454107Y81129452D01*
X19454104Y81129446D01*
X19396930Y80916071D01*
X19396929Y80916063D01*
X19377677Y80696003D01*
X19377677Y80695998D01*
X500500Y80695998D01*
X500500Y89840000D01*
X19378179Y89840000D01*
X19397424Y89620024D01*
X19397426Y89620014D01*
X19454575Y89406730D01*
X19454580Y89406716D01*
X19547899Y89206593D01*
X19547900Y89206591D01*
X19593258Y89141813D01*
X20260096Y89808651D01*
X20260051Y89808102D01*
X20291266Y89684838D01*
X20360813Y89578388D01*
X20461157Y89500287D01*
X20581422Y89459000D01*
X20617553Y89459000D01*
X19946811Y88788259D01*
X20011582Y88742906D01*
X20011592Y88742900D01*
X20211715Y88649581D01*
X20211729Y88649576D01*
X20425013Y88592427D01*
X20425023Y88592425D01*
X20644999Y88573179D01*
X20645001Y88573179D01*
X20864976Y88592425D01*
X20864986Y88592427D01*
X21078270Y88649576D01*
X21078284Y88649581D01*
X21278408Y88742900D01*
X21278420Y88742907D01*
X21343186Y88788258D01*
X21343187Y88788260D01*
X20672448Y89459000D01*
X20676569Y89459000D01*
X20770421Y89474661D01*
X20882251Y89535180D01*
X20968371Y89628731D01*
X21019448Y89745177D01*
X21025105Y89813448D01*
X21696740Y89141813D01*
X21696742Y89141814D01*
X21742093Y89206580D01*
X21742100Y89206592D01*
X21835419Y89406716D01*
X21835424Y89406730D01*
X21892573Y89620014D01*
X21892575Y89620024D01*
X21911821Y89840000D01*
X34618179Y89840000D01*
X34637424Y89620024D01*
X34637426Y89620014D01*
X34694575Y89406730D01*
X34694580Y89406716D01*
X34787899Y89206593D01*
X34787900Y89206591D01*
X34833258Y89141813D01*
X35500096Y89808651D01*
X35500051Y89808102D01*
X35531266Y89684838D01*
X35600813Y89578388D01*
X35701157Y89500287D01*
X35821422Y89459000D01*
X35857553Y89459000D01*
X35186811Y88788259D01*
X35251582Y88742906D01*
X35251592Y88742900D01*
X35451715Y88649581D01*
X35451729Y88649576D01*
X35665013Y88592427D01*
X35665023Y88592425D01*
X35884999Y88573179D01*
X35885001Y88573179D01*
X36104976Y88592425D01*
X36104986Y88592427D01*
X36318270Y88649576D01*
X36318284Y88649581D01*
X36518408Y88742900D01*
X36518420Y88742907D01*
X36583186Y88788258D01*
X36583187Y88788260D01*
X35912448Y89459000D01*
X35916569Y89459000D01*
X36010421Y89474661D01*
X36122251Y89535180D01*
X36208371Y89628731D01*
X36259448Y89745177D01*
X36265105Y89813448D01*
X36936740Y89141813D01*
X36936742Y89141814D01*
X36982093Y89206580D01*
X36982100Y89206592D01*
X37075419Y89406716D01*
X37075424Y89406730D01*
X37132573Y89620014D01*
X37132575Y89620024D01*
X37151821Y89840000D01*
X37151821Y89840001D01*
X37132575Y90059977D01*
X37132573Y90059987D01*
X37075424Y90273271D01*
X37075420Y90273280D01*
X36982098Y90473410D01*
X36936740Y90538189D01*
X36269903Y89871352D01*
X36269949Y89871898D01*
X36238734Y89995162D01*
X36169187Y90101612D01*
X36068843Y90179713D01*
X35948578Y90221000D01*
X35912447Y90221000D01*
X36583187Y90891742D01*
X36518409Y90937100D01*
X36518407Y90937101D01*
X36318284Y91030420D01*
X36318270Y91030425D01*
X36104986Y91087574D01*
X36104976Y91087576D01*
X35885001Y91106821D01*
X35884999Y91106821D01*
X35665023Y91087576D01*
X35665013Y91087574D01*
X35451729Y91030425D01*
X35451720Y91030421D01*
X35251586Y90937097D01*
X35186812Y90891743D01*
X35186811Y90891742D01*
X35857554Y90221000D01*
X35853431Y90221000D01*
X35759579Y90205339D01*
X35647749Y90144820D01*
X35561629Y90051269D01*
X35510552Y89934823D01*
X35504894Y89866553D01*
X34833258Y90538189D01*
X34833257Y90538188D01*
X34787903Y90473414D01*
X34694579Y90273280D01*
X34694575Y90273271D01*
X34637426Y90059987D01*
X34637424Y90059977D01*
X34618179Y89840001D01*
X34618179Y89840000D01*
X21911821Y89840000D01*
X21911821Y89840001D01*
X21892575Y90059977D01*
X21892573Y90059987D01*
X21835424Y90273271D01*
X21835420Y90273280D01*
X21742098Y90473410D01*
X21696740Y90538189D01*
X21029903Y89871352D01*
X21029949Y89871898D01*
X20998734Y89995162D01*
X20929187Y90101612D01*
X20828843Y90179713D01*
X20708578Y90221000D01*
X20672447Y90221000D01*
X21343187Y90891742D01*
X21278409Y90937100D01*
X21278407Y90937101D01*
X21078284Y91030420D01*
X21078270Y91030425D01*
X20864986Y91087574D01*
X20864976Y91087576D01*
X20645001Y91106821D01*
X20644999Y91106821D01*
X20425023Y91087576D01*
X20425013Y91087574D01*
X20211729Y91030425D01*
X20211720Y91030421D01*
X20011586Y90937097D01*
X19946812Y90891743D01*
X19946811Y90891742D01*
X20617554Y90221000D01*
X20613431Y90221000D01*
X20519579Y90205339D01*
X20407749Y90144820D01*
X20321629Y90051269D01*
X20270552Y89934823D01*
X20264894Y89866553D01*
X19593258Y90538189D01*
X19593257Y90538188D01*
X19547903Y90473414D01*
X19454579Y90273280D01*
X19454575Y90273271D01*
X19397426Y90059987D01*
X19397424Y90059977D01*
X19378179Y89840001D01*
X19378179Y89840000D01*
X500500Y89840000D01*
X500500Y99347500D01*
X520185Y99414539D01*
X572989Y99460294D01*
X624500Y99471500D01*
X69375500Y99471500D01*
X69442539Y99451815D01*
G37*
%TD.AperFunction*%
%TA.AperFunction,Conductor*%
G36*
X56498033Y81832815D02*
G01*
X56518675Y81816181D01*
X60013181Y78321675D01*
X60046666Y78260352D01*
X60049500Y78233994D01*
X60049500Y77748835D01*
X60029815Y77681796D01*
X60024733Y77674479D01*
X60023920Y77673394D01*
X59967967Y77631548D01*
X59898273Y77626596D01*
X59836965Y77660109D01*
X59825420Y77673439D01*
X59782186Y77731191D01*
X59667093Y77817351D01*
X59667086Y77817355D01*
X59532379Y77867597D01*
X59532372Y77867599D01*
X59472844Y77874000D01*
X59175000Y77874000D01*
X59175000Y76802973D01*
X59168552Y76815922D01*
X59085666Y76891484D01*
X58981080Y76932000D01*
X58897198Y76932000D01*
X58814750Y76916588D01*
X58719390Y76857543D01*
X58675000Y76798762D01*
X58675000Y77874000D01*
X58377155Y77874000D01*
X58317627Y77867599D01*
X58317620Y77867597D01*
X58182913Y77817355D01*
X58182906Y77817351D01*
X58067812Y77731191D01*
X58024578Y77673438D01*
X57968644Y77631568D01*
X57898952Y77626584D01*
X57837629Y77660070D01*
X57826046Y77673438D01*
X57782814Y77731188D01*
X57782546Y77731546D01*
X57782544Y77731547D01*
X57782544Y77731548D01*
X57667335Y77817794D01*
X57667328Y77817798D01*
X57532482Y77868092D01*
X57532483Y77868092D01*
X57472883Y77874499D01*
X57472881Y77874500D01*
X57472873Y77874500D01*
X57472864Y77874500D01*
X56377129Y77874500D01*
X56377123Y77874499D01*
X56317516Y77868092D01*
X56182671Y77817798D01*
X56182664Y77817794D01*
X56067455Y77731548D01*
X56067453Y77731546D01*
X56023952Y77673437D01*
X55968018Y77631567D01*
X55898326Y77626584D01*
X55837004Y77660071D01*
X55825420Y77673439D01*
X55782186Y77731191D01*
X55667093Y77817351D01*
X55667086Y77817355D01*
X55532379Y77867597D01*
X55532372Y77867599D01*
X55472844Y77874000D01*
X55175000Y77874000D01*
X55175000Y76802973D01*
X55168552Y76815922D01*
X55085666Y76891484D01*
X54981080Y76932000D01*
X54897198Y76932000D01*
X54814750Y76916588D01*
X54719390Y76857543D01*
X54675000Y76798762D01*
X54675000Y77874000D01*
X54377155Y77874000D01*
X54317627Y77867599D01*
X54317620Y77867597D01*
X54182913Y77817355D01*
X54182906Y77817351D01*
X54067812Y77731191D01*
X54067809Y77731188D01*
X53981649Y77616094D01*
X53981645Y77616087D01*
X53931403Y77481380D01*
X53931401Y77481373D01*
X53925000Y77421845D01*
X53925000Y76374000D01*
X54675000Y76374000D01*
X54675000Y76461028D01*
X54681448Y76448078D01*
X54764334Y76372516D01*
X54868920Y76332000D01*
X54952802Y76332000D01*
X55035250Y76347412D01*
X55130610Y76406457D01*
X55175000Y76465239D01*
X55175000Y75998000D01*
X55155315Y75930961D01*
X55102511Y75885206D01*
X55051000Y75874000D01*
X53925000Y75874000D01*
X53925000Y74837500D01*
X53905315Y74770461D01*
X53852511Y74724706D01*
X53801000Y74713500D01*
X37574006Y74713500D01*
X37506967Y74733185D01*
X37486325Y74749819D01*
X36045697Y76190447D01*
X36012212Y76251770D01*
X36017196Y76321462D01*
X36059068Y76377395D01*
X36105155Y76397343D01*
X36104838Y76398529D01*
X36110065Y76399930D01*
X36110068Y76399930D01*
X36323450Y76457106D01*
X36523662Y76550466D01*
X36704620Y76677174D01*
X36860826Y76833380D01*
X36987534Y77014338D01*
X37047618Y77143189D01*
X37093790Y77195629D01*
X37160983Y77214781D01*
X37227865Y77194565D01*
X37272382Y77143189D01*
X37332464Y77014342D01*
X37332468Y77014334D01*
X37459170Y76833385D01*
X37459175Y76833379D01*
X37615378Y76677176D01*
X37615384Y76677171D01*
X37796333Y76550469D01*
X37796335Y76550468D01*
X37796338Y76550466D01*
X37996550Y76457106D01*
X38209932Y76399930D01*
X38367123Y76386178D01*
X38429998Y76380677D01*
X38430000Y76380677D01*
X38430002Y76380677D01*
X38485017Y76385491D01*
X38650068Y76399930D01*
X38863450Y76457106D01*
X39063662Y76550466D01*
X39244620Y76677174D01*
X39400826Y76833380D01*
X39527534Y77014338D01*
X39587618Y77143189D01*
X39633790Y77195629D01*
X39700983Y77214781D01*
X39767865Y77194565D01*
X39812382Y77143189D01*
X39872464Y77014342D01*
X39872468Y77014334D01*
X39999170Y76833385D01*
X39999175Y76833379D01*
X40155378Y76677176D01*
X40155384Y76677171D01*
X40336333Y76550469D01*
X40336335Y76550468D01*
X40336338Y76550466D01*
X40536550Y76457106D01*
X40749932Y76399930D01*
X40907123Y76386178D01*
X40969998Y76380677D01*
X40970000Y76380677D01*
X40970002Y76380677D01*
X41025017Y76385491D01*
X41190068Y76399930D01*
X41403450Y76457106D01*
X41603662Y76550466D01*
X41784620Y76677174D01*
X41940826Y76833380D01*
X42067534Y77014338D01*
X42127618Y77143189D01*
X42173790Y77195629D01*
X42240983Y77214781D01*
X42307865Y77194565D01*
X42352382Y77143189D01*
X42412464Y77014342D01*
X42412468Y77014334D01*
X42539170Y76833385D01*
X42539175Y76833379D01*
X42695378Y76677176D01*
X42695384Y76677171D01*
X42876333Y76550469D01*
X42876335Y76550468D01*
X42876338Y76550466D01*
X43076550Y76457106D01*
X43289932Y76399930D01*
X43447123Y76386178D01*
X43509998Y76380677D01*
X43510000Y76380677D01*
X43510002Y76380677D01*
X43565017Y76385491D01*
X43730068Y76399930D01*
X43943450Y76457106D01*
X44143662Y76550466D01*
X44324620Y76677174D01*
X44480826Y76833380D01*
X44607534Y77014338D01*
X44667618Y77143189D01*
X44713790Y77195629D01*
X44780983Y77214781D01*
X44847865Y77194565D01*
X44892382Y77143189D01*
X44952464Y77014342D01*
X44952468Y77014334D01*
X45079170Y76833385D01*
X45079175Y76833379D01*
X45235378Y76677176D01*
X45235384Y76677171D01*
X45416333Y76550469D01*
X45416335Y76550468D01*
X45416338Y76550466D01*
X45616550Y76457106D01*
X45829932Y76399930D01*
X45987123Y76386178D01*
X46049998Y76380677D01*
X46050000Y76380677D01*
X46050002Y76380677D01*
X46105017Y76385491D01*
X46270068Y76399930D01*
X46483450Y76457106D01*
X46683662Y76550466D01*
X46864620Y76677174D01*
X47020826Y76833380D01*
X47147534Y77014338D01*
X47207894Y77143782D01*
X47254066Y77196221D01*
X47321259Y77215373D01*
X47388141Y77195157D01*
X47432658Y77143781D01*
X47492899Y77014593D01*
X47492900Y77014591D01*
X47538258Y76949813D01*
X48145549Y77557105D01*
X48146327Y77546735D01*
X48195887Y77420459D01*
X48280465Y77314401D01*
X48392547Y77237984D01*
X48500299Y77204747D01*
X47891811Y76596259D01*
X47956582Y76550906D01*
X47956592Y76550900D01*
X48156715Y76457581D01*
X48156729Y76457576D01*
X48370013Y76400427D01*
X48370023Y76400425D01*
X48589999Y76381179D01*
X48590001Y76381179D01*
X48809976Y76400425D01*
X48809986Y76400427D01*
X49023270Y76457576D01*
X49023284Y76457581D01*
X49223408Y76550900D01*
X49223420Y76550907D01*
X49288186Y76596258D01*
X49288187Y76596260D01*
X48678232Y77206216D01*
X48724138Y77213135D01*
X48846357Y77271993D01*
X48945798Y77364260D01*
X49013625Y77481740D01*
X49031499Y77560055D01*
X49641741Y76949813D01*
X49641742Y76949814D01*
X49687093Y77014580D01*
X49687100Y77014592D01*
X49747342Y77143781D01*
X49793514Y77196221D01*
X49860707Y77215373D01*
X49927588Y77195158D01*
X49972106Y77143781D01*
X50032464Y77014342D01*
X50032468Y77014334D01*
X50159170Y76833385D01*
X50159175Y76833379D01*
X50315378Y76677176D01*
X50315384Y76677171D01*
X50496333Y76550469D01*
X50496335Y76550468D01*
X50496338Y76550466D01*
X50696550Y76457106D01*
X50909932Y76399930D01*
X51067123Y76386178D01*
X51129998Y76380677D01*
X51130000Y76380677D01*
X51130002Y76380677D01*
X51185017Y76385491D01*
X51350068Y76399930D01*
X51563450Y76457106D01*
X51763662Y76550466D01*
X51944620Y76677174D01*
X52100826Y76833380D01*
X52227534Y77014338D01*
X52320894Y77214550D01*
X52378070Y77427932D01*
X52395449Y77626584D01*
X52397323Y77647998D01*
X52397323Y77648003D01*
X52382507Y77817351D01*
X52378070Y77868068D01*
X52320894Y78081450D01*
X52227534Y78281661D01*
X52100826Y78462620D01*
X51944620Y78618826D01*
X51944616Y78618829D01*
X51944615Y78618830D01*
X51763666Y78745532D01*
X51763662Y78745534D01*
X51744559Y78754442D01*
X51563450Y78838894D01*
X51563447Y78838895D01*
X51563445Y78838896D01*
X51350070Y78896070D01*
X51350063Y78896071D01*
X51142982Y78914188D01*
X51077914Y78939641D01*
X51066109Y78950035D01*
X49899617Y80116527D01*
X48727999Y81288145D01*
X48724608Y81291824D01*
X48687631Y81335357D01*
X48621262Y81385809D01*
X48556297Y81438030D01*
X48556294Y81438032D01*
X48556120Y81438118D01*
X48536182Y81450486D01*
X48536029Y81450603D01*
X48536027Y81450604D01*
X48460359Y81485611D01*
X48385693Y81522641D01*
X48385689Y81522642D01*
X48385680Y81522645D01*
X48385488Y81522693D01*
X48363385Y81530475D01*
X48363198Y81530562D01*
X48363194Y81530563D01*
X48281771Y81548486D01*
X48200885Y81568601D01*
X48200689Y81568606D01*
X48177413Y81571457D01*
X48177222Y81571499D01*
X48177219Y81571500D01*
X48177216Y81571500D01*
X48177212Y81571500D01*
X48093840Y81571500D01*
X48010527Y81573757D01*
X48010526Y81573757D01*
X48010345Y81573722D01*
X47986977Y81571500D01*
X36846308Y81571500D01*
X36779269Y81591185D01*
X36758627Y81607819D01*
X36725627Y81640819D01*
X36692142Y81702142D01*
X36697126Y81771834D01*
X36738998Y81827767D01*
X36804462Y81852184D01*
X36813308Y81852500D01*
X56430994Y81852500D01*
X56498033Y81832815D01*
G37*
%TD.AperFunction*%
%TA.AperFunction,Conductor*%
G36*
X59175000Y75998000D02*
G01*
X59155315Y75930961D01*
X59102511Y75885206D01*
X59051000Y75874000D01*
X58799000Y75874000D01*
X58731961Y75893685D01*
X58686206Y75946489D01*
X58675000Y75998000D01*
X58675000Y76461028D01*
X58681448Y76448078D01*
X58764334Y76372516D01*
X58868920Y76332000D01*
X58952802Y76332000D01*
X59035250Y76347412D01*
X59130610Y76406457D01*
X59175000Y76465239D01*
X59175000Y75998000D01*
G37*
%TD.AperFunction*%
%TA.AperFunction,Conductor*%
G36*
X35023730Y81832815D02*
G01*
X35069485Y81780011D01*
X35079429Y81710853D01*
X35050404Y81647297D01*
X35044372Y81640819D01*
X34914175Y81510623D01*
X34787466Y81329662D01*
X34787465Y81329660D01*
X34694107Y81129452D01*
X34694104Y81129446D01*
X34636930Y80916071D01*
X34636929Y80916063D01*
X34617677Y80696003D01*
X34617677Y80695998D01*
X34636929Y80475938D01*
X34636930Y80475930D01*
X34694104Y80262555D01*
X34694105Y80262553D01*
X34694106Y80262550D01*
X34762282Y80116345D01*
X34787466Y80062338D01*
X34787468Y80062334D01*
X34914170Y79881385D01*
X34914175Y79881379D01*
X35070378Y79725176D01*
X35070384Y79725171D01*
X35251333Y79598469D01*
X35251335Y79598468D01*
X35251338Y79598466D01*
X35451550Y79505106D01*
X35664932Y79447930D01*
X35822123Y79434178D01*
X35884998Y79428677D01*
X35885000Y79428677D01*
X35885002Y79428677D01*
X35940017Y79433491D01*
X36105068Y79447930D01*
X36318450Y79505106D01*
X36518662Y79598466D01*
X36699620Y79725174D01*
X36758627Y79784181D01*
X36819950Y79817666D01*
X36846308Y79820500D01*
X47667994Y79820500D01*
X47735033Y79800815D01*
X47755675Y79784181D01*
X48434736Y79105120D01*
X48468221Y79043797D01*
X48463237Y78974105D01*
X48421365Y78918172D01*
X48374953Y78898077D01*
X48375248Y78896976D01*
X48156729Y78838425D01*
X48156720Y78838421D01*
X47956586Y78745097D01*
X47891812Y78699743D01*
X47891811Y78699742D01*
X48501768Y78089785D01*
X48455862Y78082865D01*
X48333643Y78024007D01*
X48234202Y77931740D01*
X48166375Y77814260D01*
X48148500Y77735947D01*
X47538258Y78346189D01*
X47538257Y78346188D01*
X47492903Y78281414D01*
X47432658Y78152219D01*
X47386485Y78099780D01*
X47319292Y78080628D01*
X47252411Y78100844D01*
X47207894Y78152219D01*
X47192906Y78184361D01*
X47147534Y78281661D01*
X47020826Y78462620D01*
X46864620Y78618826D01*
X46864616Y78618829D01*
X46864615Y78618830D01*
X46683666Y78745532D01*
X46683662Y78745534D01*
X46664559Y78754442D01*
X46483450Y78838894D01*
X46483447Y78838895D01*
X46483445Y78838896D01*
X46270070Y78896070D01*
X46270062Y78896071D01*
X46050002Y78915323D01*
X46049998Y78915323D01*
X45829937Y78896071D01*
X45829929Y78896070D01*
X45616554Y78838896D01*
X45616548Y78838893D01*
X45416340Y78745535D01*
X45416338Y78745534D01*
X45235377Y78618825D01*
X45079175Y78462623D01*
X44952466Y78281662D01*
X44952465Y78281660D01*
X44892382Y78152811D01*
X44846209Y78100372D01*
X44779016Y78081220D01*
X44712135Y78101436D01*
X44667618Y78152811D01*
X44649059Y78192610D01*
X44607534Y78281661D01*
X44480826Y78462620D01*
X44324620Y78618826D01*
X44324616Y78618829D01*
X44324615Y78618830D01*
X44143666Y78745532D01*
X44143662Y78745534D01*
X44124559Y78754442D01*
X43943450Y78838894D01*
X43943447Y78838895D01*
X43943445Y78838896D01*
X43730070Y78896070D01*
X43730062Y78896071D01*
X43510002Y78915323D01*
X43509998Y78915323D01*
X43289937Y78896071D01*
X43289929Y78896070D01*
X43076554Y78838896D01*
X43076548Y78838893D01*
X42876340Y78745535D01*
X42876338Y78745534D01*
X42695377Y78618825D01*
X42539175Y78462623D01*
X42412466Y78281662D01*
X42412465Y78281660D01*
X42352382Y78152811D01*
X42306209Y78100372D01*
X42239016Y78081220D01*
X42172135Y78101436D01*
X42127618Y78152811D01*
X42109059Y78192610D01*
X42067534Y78281661D01*
X41940826Y78462620D01*
X41784620Y78618826D01*
X41784616Y78618829D01*
X41784615Y78618830D01*
X41603666Y78745532D01*
X41603662Y78745534D01*
X41584559Y78754442D01*
X41403450Y78838894D01*
X41403447Y78838895D01*
X41403445Y78838896D01*
X41190070Y78896070D01*
X41190062Y78896071D01*
X40970002Y78915323D01*
X40969998Y78915323D01*
X40749937Y78896071D01*
X40749929Y78896070D01*
X40536554Y78838896D01*
X40536548Y78838893D01*
X40336340Y78745535D01*
X40336338Y78745534D01*
X40155377Y78618825D01*
X39999175Y78462623D01*
X39872466Y78281662D01*
X39872465Y78281660D01*
X39812382Y78152811D01*
X39766209Y78100372D01*
X39699016Y78081220D01*
X39632135Y78101436D01*
X39587618Y78152811D01*
X39569059Y78192610D01*
X39527534Y78281661D01*
X39400826Y78462620D01*
X39244620Y78618826D01*
X39244616Y78618829D01*
X39244615Y78618830D01*
X39063666Y78745532D01*
X39063662Y78745534D01*
X39044559Y78754442D01*
X38863450Y78838894D01*
X38863447Y78838895D01*
X38863445Y78838896D01*
X38650070Y78896070D01*
X38650062Y78896071D01*
X38430002Y78915323D01*
X38429998Y78915323D01*
X38209937Y78896071D01*
X38209929Y78896070D01*
X37996554Y78838896D01*
X37996548Y78838893D01*
X37796340Y78745535D01*
X37796338Y78745534D01*
X37615377Y78618825D01*
X37459175Y78462623D01*
X37332466Y78281662D01*
X37332465Y78281660D01*
X37272382Y78152811D01*
X37226209Y78100372D01*
X37159016Y78081220D01*
X37092135Y78101436D01*
X37047618Y78152811D01*
X37029059Y78192610D01*
X36987534Y78281661D01*
X36860826Y78462620D01*
X36704620Y78618826D01*
X36704616Y78618829D01*
X36704615Y78618830D01*
X36523666Y78745532D01*
X36523662Y78745534D01*
X36504559Y78754442D01*
X36323450Y78838894D01*
X36323447Y78838895D01*
X36323445Y78838896D01*
X36110070Y78896070D01*
X36110062Y78896071D01*
X35890002Y78915323D01*
X35889998Y78915323D01*
X35669937Y78896071D01*
X35669929Y78896070D01*
X35456554Y78838896D01*
X35456548Y78838893D01*
X35256340Y78745535D01*
X35256338Y78745534D01*
X35075377Y78618825D01*
X34919175Y78462623D01*
X34792466Y78281662D01*
X34792465Y78281660D01*
X34732382Y78152811D01*
X34686209Y78100372D01*
X34619016Y78081220D01*
X34552135Y78101436D01*
X34507618Y78152811D01*
X34489059Y78192610D01*
X34447534Y78281661D01*
X34320826Y78462620D01*
X34164620Y78618826D01*
X34164616Y78618829D01*
X34164615Y78618830D01*
X33983666Y78745532D01*
X33983662Y78745534D01*
X33964559Y78754442D01*
X33783450Y78838894D01*
X33783447Y78838895D01*
X33783445Y78838896D01*
X33570070Y78896070D01*
X33570062Y78896071D01*
X33350002Y78915323D01*
X33349998Y78915323D01*
X33129937Y78896071D01*
X33129929Y78896070D01*
X32916554Y78838896D01*
X32916548Y78838893D01*
X32716340Y78745535D01*
X32716338Y78745534D01*
X32535377Y78618825D01*
X32379175Y78462623D01*
X32252466Y78281662D01*
X32252465Y78281660D01*
X32192382Y78152811D01*
X32146209Y78100372D01*
X32079016Y78081220D01*
X32012135Y78101436D01*
X31967618Y78152811D01*
X31949059Y78192610D01*
X31907534Y78281661D01*
X31780826Y78462620D01*
X31624620Y78618826D01*
X31624616Y78618829D01*
X31624615Y78618830D01*
X31443666Y78745532D01*
X31443662Y78745534D01*
X31424559Y78754442D01*
X31243450Y78838894D01*
X31243447Y78838895D01*
X31243445Y78838896D01*
X31030070Y78896070D01*
X31030062Y78896071D01*
X30810002Y78915323D01*
X30809998Y78915323D01*
X30589937Y78896071D01*
X30589929Y78896070D01*
X30376554Y78838896D01*
X30376548Y78838893D01*
X30176340Y78745535D01*
X30176338Y78745534D01*
X29995377Y78618825D01*
X29839175Y78462623D01*
X29712466Y78281662D01*
X29712465Y78281660D01*
X29652382Y78152811D01*
X29606209Y78100372D01*
X29539016Y78081220D01*
X29472135Y78101436D01*
X29427618Y78152811D01*
X29409059Y78192610D01*
X29367534Y78281661D01*
X29240826Y78462620D01*
X29240824Y78462623D01*
X29181819Y78521628D01*
X29148334Y78582951D01*
X29145500Y78609309D01*
X29145500Y79773995D01*
X29165185Y79841034D01*
X29181819Y79861676D01*
X31136324Y81816181D01*
X31197647Y81849666D01*
X31224005Y81852500D01*
X34956691Y81852500D01*
X35023730Y81832815D01*
G37*
%TD.AperFunction*%
%TD*%
%TA.AperFunction,Conductor*%
%TO.N,GND*%
G36*
X30099000Y60094000D02*
G01*
X40005000Y60094000D01*
X40005000Y70000000D01*
X69499500Y70000000D01*
X69499500Y9926000D01*
X69479815Y9858961D01*
X69427011Y9813206D01*
X69375500Y9802000D01*
X63881000Y9802000D01*
X63881000Y624500D01*
X63861315Y557461D01*
X63808511Y511706D01*
X63757000Y500500D01*
X6218668Y500500D01*
X6151629Y520185D01*
X6105874Y572989D01*
X6094668Y624518D01*
X6095159Y4104142D01*
X6096000Y10056000D01*
X6095999Y10056000D01*
X624500Y10056000D01*
X557461Y10075685D01*
X511706Y10128489D01*
X500500Y10180000D01*
X500500Y16035388D01*
X520185Y16102427D01*
X572989Y16148182D01*
X642147Y16158126D01*
X705703Y16129101D01*
X736880Y16087796D01*
X768191Y16020650D01*
X774431Y16007268D01*
X774432Y16007266D01*
X904954Y15820859D01*
X1065858Y15659955D01*
X1094621Y15639815D01*
X1252266Y15529432D01*
X1458504Y15433261D01*
X1458509Y15433260D01*
X1458511Y15433259D01*
X1476384Y15428470D01*
X1678308Y15374365D01*
X1833002Y15360831D01*
X1904998Y15354532D01*
X1905000Y15354532D01*
X1905002Y15354532D01*
X1961673Y15359491D01*
X2131692Y15374365D01*
X2351496Y15433261D01*
X2557734Y15529432D01*
X2711465Y15637076D01*
X2777671Y15659402D01*
X2782588Y15659500D01*
X4407547Y15659500D01*
X4474586Y15639815D01*
X4501833Y15616035D01*
X4572258Y15533579D01*
X4579776Y15524776D01*
X4771343Y15361162D01*
X4771345Y15361162D01*
X4778239Y15356937D01*
X4986140Y15229534D01*
X5218889Y15133127D01*
X5463852Y15074317D01*
X5715000Y15054551D01*
X5966148Y15074317D01*
X6211111Y15133127D01*
X6443859Y15229534D01*
X6658659Y15361164D01*
X6850224Y15524776D01*
X6928164Y15616033D01*
X6986669Y15654225D01*
X7022453Y15659500D01*
X18794561Y15659500D01*
X18861600Y15639815D01*
X18882242Y15623181D01*
X30112580Y4392843D01*
X30146065Y4331520D01*
X30141081Y4261828D01*
X30099209Y4205895D01*
X30033745Y4181478D01*
X30014660Y4181585D01*
X29938510Y4187895D01*
X29907067Y4190500D01*
X22157933Y4190500D01*
X22138521Y4188892D01*
X21972186Y4175110D01*
X21972175Y4175108D01*
X21731118Y4114064D01*
X21503393Y4014174D01*
X21295217Y3878167D01*
X21163251Y3756683D01*
X21100596Y3725761D01*
X21031170Y3733621D01*
X20979641Y3775628D01*
X20979112Y3775231D01*
X20977520Y3777357D01*
X20977015Y3777769D01*
X20976115Y3779234D01*
X20887547Y3897545D01*
X20887544Y3897548D01*
X20772335Y3983794D01*
X20772328Y3983798D01*
X20637482Y4034092D01*
X20637483Y4034092D01*
X20577883Y4040499D01*
X20577881Y4040500D01*
X20577873Y4040500D01*
X20577865Y4040500D01*
X20362587Y4040500D01*
X20312778Y4050944D01*
X20168881Y4114063D01*
X20168879Y4114064D01*
X20168878Y4114064D01*
X19927824Y4175108D01*
X19927813Y4175110D01*
X19762548Y4188803D01*
X19742067Y4190500D01*
X13277933Y4190500D01*
X13258521Y4188892D01*
X13092186Y4175110D01*
X13092175Y4175108D01*
X12851120Y4114064D01*
X12851116Y4114062D01*
X12707219Y4050944D01*
X12657411Y4040500D01*
X12442130Y4040500D01*
X12442123Y4040499D01*
X12382516Y4034092D01*
X12247671Y3983798D01*
X12247664Y3983794D01*
X12132455Y3897548D01*
X12132452Y3897545D01*
X12046206Y3782336D01*
X12046202Y3782329D01*
X11995908Y3647483D01*
X11991089Y3602654D01*
X11989501Y3587877D01*
X11989500Y3587865D01*
X11989500Y3378558D01*
X11974555Y3319542D01*
X11961177Y3294823D01*
X11961170Y3294806D01*
X11880429Y3059617D01*
X11839500Y2814335D01*
X11839500Y2565666D01*
X11880429Y2320384D01*
X11951838Y2112377D01*
X11961172Y2085190D01*
X11974556Y2060458D01*
X11989500Y2001445D01*
X11989500Y1792131D01*
X11989501Y1792124D01*
X11995908Y1732517D01*
X12046202Y1597672D01*
X12046206Y1597665D01*
X12132452Y1482456D01*
X12132455Y1482453D01*
X12247664Y1396207D01*
X12247671Y1396203D01*
X12292618Y1379439D01*
X12382517Y1345909D01*
X12442127Y1339500D01*
X12657409Y1339501D01*
X12707220Y1329057D01*
X12851118Y1265937D01*
X13092175Y1204893D01*
X13092179Y1204892D01*
X13092181Y1204892D01*
X13092186Y1204891D01*
X13225376Y1193855D01*
X13277933Y1189500D01*
X13277935Y1189500D01*
X19742065Y1189500D01*
X19742067Y1189500D01*
X19803284Y1194573D01*
X19927813Y1204891D01*
X19927816Y1204892D01*
X19927821Y1204892D01*
X20168881Y1265937D01*
X20312780Y1329058D01*
X20362589Y1339501D01*
X20577871Y1339501D01*
X20577872Y1339501D01*
X20637483Y1345909D01*
X20772331Y1396204D01*
X20887546Y1482454D01*
X20919293Y1524864D01*
X20979112Y1604769D01*
X20981730Y1602809D01*
X21019839Y1640919D01*
X21088111Y1655772D01*
X21153576Y1631357D01*
X21163243Y1623325D01*
X21191113Y1597669D01*
X21295217Y1501834D01*
X21503393Y1365827D01*
X21731118Y1265937D01*
X21972175Y1204893D01*
X21972179Y1204892D01*
X21972181Y1204892D01*
X21972186Y1204891D01*
X22105376Y1193855D01*
X22157933Y1189500D01*
X22157935Y1189500D01*
X29907065Y1189500D01*
X29907067Y1189500D01*
X29968284Y1194573D01*
X30092813Y1204891D01*
X30092816Y1204892D01*
X30092821Y1204892D01*
X30333881Y1265937D01*
X30477780Y1329058D01*
X30527589Y1339501D01*
X30742871Y1339501D01*
X30742872Y1339501D01*
X30802483Y1345909D01*
X30937331Y1396204D01*
X31052546Y1482454D01*
X31084293Y1524864D01*
X31144112Y1604769D01*
X31146730Y1602809D01*
X31184839Y1640919D01*
X31253111Y1655772D01*
X31318576Y1631357D01*
X31328243Y1623325D01*
X31356113Y1597669D01*
X31460217Y1501834D01*
X31668393Y1365827D01*
X31896118Y1265937D01*
X32137175Y1204893D01*
X32137179Y1204892D01*
X32137181Y1204892D01*
X32137186Y1204891D01*
X32270376Y1193855D01*
X32322933Y1189500D01*
X32322935Y1189500D01*
X40067065Y1189500D01*
X40067067Y1189500D01*
X40128284Y1194573D01*
X40252813Y1204891D01*
X40252816Y1204892D01*
X40252821Y1204892D01*
X40493881Y1265937D01*
X40637780Y1329058D01*
X40687589Y1339501D01*
X40902871Y1339501D01*
X40902872Y1339501D01*
X40962483Y1345909D01*
X41097331Y1396204D01*
X41212546Y1482454D01*
X41298796Y1597669D01*
X41349091Y1732517D01*
X41355500Y1792127D01*
X41355499Y2001443D01*
X41370446Y2060464D01*
X41383828Y2085190D01*
X41464571Y2320386D01*
X41505500Y2565665D01*
X41505500Y2814335D01*
X41464571Y3059614D01*
X41383828Y3294810D01*
X41370443Y3319544D01*
X41355499Y3378560D01*
X41355499Y3587871D01*
X41355498Y3587877D01*
X41355497Y3587884D01*
X41349091Y3647483D01*
X41319895Y3725761D01*
X41298797Y3782329D01*
X41298793Y3782336D01*
X41212547Y3897545D01*
X41212544Y3897548D01*
X41097335Y3983794D01*
X41097332Y3983795D01*
X41097331Y3983796D01*
X41086161Y3987962D01*
X41030231Y4029834D01*
X41005816Y4095299D01*
X41005500Y4104142D01*
X41005500Y4129217D01*
X41025185Y4196256D01*
X41041819Y4216898D01*
X44193102Y7368181D01*
X44254425Y7401666D01*
X44280783Y7404500D01*
X52379242Y7404500D01*
X52446281Y7384815D01*
X52466923Y7368181D01*
X52468599Y7366505D01*
X52565384Y7298735D01*
X52662165Y7230968D01*
X52662167Y7230967D01*
X52662170Y7230965D01*
X52876337Y7131097D01*
X53104592Y7069937D01*
X53276016Y7054939D01*
X53339999Y7049341D01*
X53340000Y7049341D01*
X53340001Y7049341D01*
X53379234Y7052774D01*
X53575408Y7069937D01*
X53803663Y7131097D01*
X54017830Y7230965D01*
X54189975Y7351502D01*
X54212216Y7367075D01*
X54278422Y7389402D01*
X54283339Y7389500D01*
X56189242Y7389500D01*
X56256281Y7369815D01*
X56276923Y7353181D01*
X56278599Y7351505D01*
X56375384Y7283735D01*
X56472165Y7215968D01*
X56472167Y7215967D01*
X56472170Y7215965D01*
X56686337Y7116097D01*
X56914592Y7054937D01*
X57102918Y7038461D01*
X57149999Y7034341D01*
X57150000Y7034341D01*
X57150001Y7034341D01*
X57189234Y7037774D01*
X57385408Y7054937D01*
X57613663Y7116097D01*
X57827830Y7215965D01*
X58021401Y7351505D01*
X58188495Y7518599D01*
X58324035Y7712170D01*
X58423903Y7926337D01*
X58485063Y8154592D01*
X58505659Y8390000D01*
X58485063Y8625408D01*
X58423903Y8853663D01*
X58324035Y9067829D01*
X58303002Y9097867D01*
X58188496Y9261400D01*
X58188495Y9261401D01*
X58066567Y9383329D01*
X58033084Y9444649D01*
X58038068Y9514341D01*
X58079939Y9570275D01*
X58110915Y9587190D01*
X58242331Y9636204D01*
X58357546Y9722454D01*
X58443796Y9837669D01*
X58494091Y9972517D01*
X58500500Y10032127D01*
X58500499Y11827872D01*
X58494091Y11887483D01*
X58488496Y11902483D01*
X58443797Y12022329D01*
X58443793Y12022336D01*
X58357547Y12137545D01*
X58357544Y12137548D01*
X58242335Y12223794D01*
X58242330Y12223797D01*
X58106166Y12274583D01*
X58050233Y12316455D01*
X58025816Y12381919D01*
X58025500Y12390765D01*
X58025500Y15351902D01*
X58025705Y15356937D01*
X58027205Y15375370D01*
X58030339Y15413848D01*
X58020893Y15483178D01*
X58019086Y15496443D01*
X58017342Y15512469D01*
X58029661Y15581244D01*
X58077208Y15632441D01*
X58144885Y15649805D01*
X58211207Y15627824D01*
X58228296Y15613560D01*
X60048181Y13793675D01*
X60081666Y13732352D01*
X60084500Y13705994D01*
X60084500Y12390765D01*
X60064815Y12323726D01*
X60012011Y12277971D01*
X60003834Y12274583D01*
X59867669Y12223797D01*
X59867664Y12223794D01*
X59752455Y12137548D01*
X59752452Y12137545D01*
X59666206Y12022336D01*
X59666202Y12022329D01*
X59615908Y11887483D01*
X59609501Y11827884D01*
X59609501Y11827877D01*
X59609500Y11827865D01*
X59609500Y10032130D01*
X59609501Y10032124D01*
X59615908Y9972517D01*
X59666202Y9837672D01*
X59666206Y9837665D01*
X59752452Y9722456D01*
X59752455Y9722453D01*
X59867664Y9636207D01*
X59867671Y9636203D01*
X59999081Y9587190D01*
X60055015Y9545319D01*
X60079432Y9479855D01*
X60064580Y9411582D01*
X60043430Y9383327D01*
X59921503Y9261400D01*
X59785965Y9067831D01*
X59785964Y9067829D01*
X59686098Y8853665D01*
X59686094Y8853656D01*
X59624938Y8625414D01*
X59624936Y8625404D01*
X59604341Y8390001D01*
X59604341Y8390000D01*
X59624936Y8154597D01*
X59624938Y8154587D01*
X59686094Y7926345D01*
X59686096Y7926341D01*
X59686097Y7926337D01*
X59785965Y7712170D01*
X59785967Y7712166D01*
X59894281Y7557479D01*
X59921505Y7518599D01*
X60088599Y7351505D01*
X60185384Y7283735D01*
X60282165Y7215968D01*
X60282167Y7215967D01*
X60282170Y7215965D01*
X60496337Y7116097D01*
X60724592Y7054937D01*
X60912918Y7038461D01*
X60959999Y7034341D01*
X60960000Y7034341D01*
X60960001Y7034341D01*
X60999234Y7037774D01*
X61195408Y7054937D01*
X61423663Y7116097D01*
X61637830Y7215965D01*
X61831401Y7351505D01*
X61998495Y7518599D01*
X62134035Y7712170D01*
X62233903Y7926337D01*
X62295063Y8154592D01*
X62315659Y8390000D01*
X62295063Y8625408D01*
X62233903Y8853663D01*
X62134035Y9067829D01*
X62113002Y9097867D01*
X61998496Y9261400D01*
X61998495Y9261401D01*
X61876567Y9383329D01*
X61843084Y9444649D01*
X61848068Y9514341D01*
X61889939Y9570275D01*
X61920915Y9587190D01*
X62052331Y9636204D01*
X62167546Y9722454D01*
X62253796Y9837669D01*
X62304091Y9972517D01*
X62310500Y10032127D01*
X62310499Y11827872D01*
X62304091Y11887483D01*
X62298496Y11902483D01*
X62253797Y12022329D01*
X62253793Y12022336D01*
X62167547Y12137545D01*
X62167544Y12137548D01*
X62052335Y12223794D01*
X62052330Y12223797D01*
X61916166Y12274583D01*
X61860233Y12316455D01*
X61835816Y12381919D01*
X61835500Y12390765D01*
X61835500Y14081890D01*
X61835705Y14086925D01*
X61837203Y14105328D01*
X61840340Y14143848D01*
X61829083Y14226463D01*
X61820073Y14309316D01*
X61820014Y14309491D01*
X61814656Y14332351D01*
X61814631Y14332537D01*
X61785880Y14410794D01*
X61759267Y14489780D01*
X61759266Y14489782D01*
X61759172Y14489939D01*
X61749025Y14511113D01*
X61748961Y14511288D01*
X61704059Y14581537D01*
X61661090Y14652953D01*
X61660957Y14653093D01*
X61646504Y14671581D01*
X61646400Y14671744D01*
X61587447Y14730697D01*
X61530129Y14791207D01*
X61529970Y14791315D01*
X61511877Y14806267D01*
X56935325Y19382819D01*
X56901840Y19444142D01*
X56906824Y19513834D01*
X56948696Y19569767D01*
X57014160Y19594184D01*
X57023006Y19594500D01*
X66260994Y19594500D01*
X66328033Y19574815D01*
X66348675Y19558181D01*
X67033181Y18873675D01*
X67066666Y18812352D01*
X67069500Y18785994D01*
X67069500Y15589309D01*
X67049815Y15522270D01*
X67033181Y15501628D01*
X66974175Y15442623D01*
X66847466Y15261662D01*
X66847465Y15261660D01*
X66754107Y15061452D01*
X66754104Y15061446D01*
X66696930Y14848071D01*
X66696929Y14848063D01*
X66677677Y14628003D01*
X66677677Y14627998D01*
X66696929Y14407938D01*
X66696930Y14407930D01*
X66754104Y14194555D01*
X66754105Y14194553D01*
X66754106Y14194550D01*
X66777749Y14143848D01*
X66847466Y13994338D01*
X66847468Y13994334D01*
X66974170Y13813385D01*
X66974175Y13813379D01*
X67130378Y13657176D01*
X67130384Y13657171D01*
X67311333Y13530469D01*
X67311335Y13530468D01*
X67311338Y13530466D01*
X67511550Y13437106D01*
X67724932Y13379930D01*
X67882123Y13366178D01*
X67944998Y13360677D01*
X67945000Y13360677D01*
X67945002Y13360677D01*
X68000017Y13365491D01*
X68165068Y13379930D01*
X68378450Y13437106D01*
X68578662Y13530466D01*
X68759620Y13657174D01*
X68915826Y13813380D01*
X69042534Y13994338D01*
X69135894Y14194550D01*
X69193070Y14407932D01*
X69212323Y14628000D01*
X69193070Y14848068D01*
X69135894Y15061450D01*
X69042534Y15261661D01*
X68922379Y15433261D01*
X68915824Y15442623D01*
X68856819Y15501628D01*
X68823334Y15562951D01*
X68820500Y15589309D01*
X68820500Y19161902D01*
X68820705Y19166937D01*
X68822205Y19185370D01*
X68825339Y19223848D01*
X68814085Y19306442D01*
X68805073Y19389316D01*
X68805014Y19389491D01*
X68799656Y19412351D01*
X68799631Y19412537D01*
X68770880Y19490794D01*
X68744267Y19569780D01*
X68744266Y19569782D01*
X68744172Y19569939D01*
X68734025Y19591113D01*
X68733961Y19591288D01*
X68689059Y19661537D01*
X68646089Y19732954D01*
X68645955Y19733096D01*
X68631504Y19751581D01*
X68631400Y19751744D01*
X68572447Y19810697D01*
X68515129Y19871207D01*
X68514970Y19871315D01*
X68496877Y19886267D01*
X68095963Y20287181D01*
X67320999Y21062145D01*
X67317608Y21065824D01*
X67280631Y21109357D01*
X67214262Y21159809D01*
X67149297Y21212030D01*
X67149294Y21212032D01*
X67149120Y21212118D01*
X67129182Y21224486D01*
X67129029Y21224603D01*
X67129027Y21224604D01*
X67053359Y21259611D01*
X66978693Y21296641D01*
X66978689Y21296642D01*
X66978680Y21296645D01*
X66978488Y21296693D01*
X66956385Y21304475D01*
X66956198Y21304562D01*
X66956194Y21304563D01*
X66874771Y21322486D01*
X66793885Y21342601D01*
X66793689Y21342606D01*
X66770413Y21345457D01*
X66770222Y21345499D01*
X66770219Y21345500D01*
X66770216Y21345500D01*
X66770212Y21345500D01*
X66686840Y21345500D01*
X66603527Y21347757D01*
X66603526Y21347757D01*
X66603345Y21347722D01*
X66579977Y21345500D01*
X47404006Y21345500D01*
X47336967Y21365185D01*
X47316325Y21381819D01*
X44091819Y24606325D01*
X44058334Y24667648D01*
X44055500Y24694006D01*
X44055500Y26259921D01*
X44075185Y26326960D01*
X44086120Y26341506D01*
X44195759Y26466997D01*
X44195759Y26466998D01*
X44195765Y26467004D01*
X44311215Y26660236D01*
X44390307Y26870976D01*
X44409041Y26974206D01*
X44430500Y27092451D01*
X44430500Y27761148D01*
X44430500Y27761155D01*
X44415377Y27929188D01*
X44415376Y27929193D01*
X44355496Y28146161D01*
X44355491Y28146174D01*
X44257832Y28348967D01*
X44257828Y28348975D01*
X44125526Y28531073D01*
X44125525Y28531075D01*
X43962823Y28686634D01*
X43774966Y28810637D01*
X43567995Y28899101D01*
X43567982Y28899105D01*
X43348542Y28949190D01*
X43348538Y28949191D01*
X43348537Y28949191D01*
X43348536Y28949192D01*
X43348531Y28949192D01*
X43123674Y28959290D01*
X43123673Y28959290D01*
X43123670Y28959290D01*
X42900613Y28929075D01*
X42900610Y28929075D01*
X42900609Y28929074D01*
X42686534Y28859517D01*
X42488321Y28752854D01*
X42488318Y28752852D01*
X42312336Y28612511D01*
X42241186Y28531073D01*
X42164235Y28442996D01*
X42126092Y28379155D01*
X42048787Y28249768D01*
X42048782Y28249759D01*
X42026691Y28190898D01*
X41984705Y28135050D01*
X41919191Y28110768D01*
X41850949Y28125760D01*
X41801645Y28175267D01*
X41798899Y28180627D01*
X41717829Y28348973D01*
X41615084Y28490390D01*
X41585526Y28531073D01*
X41585525Y28531075D01*
X41580197Y28536169D01*
X41553807Y28561401D01*
X41518956Y28621956D01*
X41515500Y28651026D01*
X41515500Y30215995D01*
X41535185Y30283034D01*
X41551819Y30303676D01*
X43506324Y32258181D01*
X43567647Y32291666D01*
X43594005Y32294500D01*
X52284691Y32294500D01*
X52351730Y32274815D01*
X52397485Y32222011D01*
X52407429Y32152853D01*
X52378404Y32089297D01*
X52372372Y32082819D01*
X52369175Y32079623D01*
X52242466Y31898662D01*
X52242465Y31898660D01*
X52149107Y31698452D01*
X52149104Y31698446D01*
X52091930Y31485071D01*
X52091929Y31485063D01*
X52072677Y31265003D01*
X52072677Y31264998D01*
X52091929Y31044938D01*
X52091930Y31044930D01*
X52149104Y30831555D01*
X52149105Y30831553D01*
X52149106Y30831550D01*
X52198690Y30725216D01*
X52242466Y30631338D01*
X52242468Y30631334D01*
X52369170Y30450385D01*
X52369175Y30450379D01*
X52525378Y30294176D01*
X52525384Y30294171D01*
X52706333Y30167469D01*
X52706335Y30167468D01*
X52706338Y30167466D01*
X52906550Y30074106D01*
X53119932Y30016930D01*
X53265063Y30004233D01*
X53339998Y29997677D01*
X53340000Y29997677D01*
X53340002Y29997677D01*
X53396317Y30002604D01*
X53560068Y30016930D01*
X53773450Y30074106D01*
X53973662Y30167466D01*
X54154620Y30294174D01*
X54310826Y30450380D01*
X54437534Y30631338D01*
X54497618Y30760189D01*
X54543790Y30812629D01*
X54610983Y30831781D01*
X54677865Y30811565D01*
X54722382Y30760189D01*
X54782464Y30631342D01*
X54782468Y30631334D01*
X54909170Y30450385D01*
X54909175Y30450379D01*
X55065378Y30294176D01*
X55065384Y30294171D01*
X55246333Y30167469D01*
X55246335Y30167468D01*
X55246338Y30167466D01*
X55446550Y30074106D01*
X55659932Y30016930D01*
X55805063Y30004233D01*
X55879998Y29997677D01*
X55880000Y29997677D01*
X55880002Y29997677D01*
X55936317Y30002604D01*
X56100068Y30016930D01*
X56313450Y30074106D01*
X56513662Y30167466D01*
X56694620Y30294174D01*
X56850826Y30450380D01*
X56977534Y30631338D01*
X57037618Y30760189D01*
X57083790Y30812629D01*
X57150983Y30831781D01*
X57217865Y30811565D01*
X57262382Y30760189D01*
X57322466Y30631338D01*
X57397076Y30524784D01*
X57419402Y30458581D01*
X57419500Y30453663D01*
X57419500Y29063783D01*
X57399815Y28996744D01*
X57383181Y28976102D01*
X56910577Y28503498D01*
X56849254Y28470013D01*
X56779562Y28474997D01*
X56751503Y28491344D01*
X56750836Y28490390D01*
X56552834Y28629033D01*
X56552830Y28629035D01*
X56483301Y28661457D01*
X56338663Y28728903D01*
X56338659Y28728904D01*
X56338655Y28728906D01*
X56110413Y28790062D01*
X56110403Y28790064D01*
X55875001Y28810659D01*
X55874999Y28810659D01*
X55639596Y28790064D01*
X55639586Y28790062D01*
X55411344Y28728906D01*
X55411335Y28728902D01*
X55197171Y28629036D01*
X55197169Y28629035D01*
X55003600Y28493497D01*
X54881673Y28371570D01*
X54820350Y28338086D01*
X54750658Y28343070D01*
X54694725Y28384942D01*
X54677810Y28415919D01*
X54628797Y28547329D01*
X54628793Y28547336D01*
X54542547Y28662545D01*
X54542544Y28662548D01*
X54427335Y28748794D01*
X54427328Y28748798D01*
X54292482Y28799092D01*
X54292483Y28799092D01*
X54232883Y28805499D01*
X54232881Y28805500D01*
X54232873Y28805500D01*
X54232864Y28805500D01*
X52437129Y28805500D01*
X52437123Y28805499D01*
X52377516Y28799092D01*
X52242671Y28748798D01*
X52242664Y28748794D01*
X52127455Y28662548D01*
X52127452Y28662545D01*
X52041206Y28547336D01*
X52041204Y28547332D01*
X52041204Y28547331D01*
X52037039Y28536166D01*
X51995171Y28480234D01*
X51929707Y28455816D01*
X51920859Y28455500D01*
X51447717Y28455500D01*
X51358637Y28457757D01*
X51358628Y28457757D01*
X51305636Y28448259D01*
X51298254Y28446936D01*
X51293595Y28446282D01*
X51232564Y28440075D01*
X51232562Y28440074D01*
X51199780Y28429790D01*
X51192156Y28427919D01*
X51184308Y28426512D01*
X51158349Y28421859D01*
X51158341Y28421857D01*
X51101382Y28399105D01*
X51096946Y28397526D01*
X51038415Y28379160D01*
X51038412Y28379159D01*
X51038410Y28379158D01*
X51038403Y28379155D01*
X51008384Y28362493D01*
X51001290Y28359124D01*
X50969390Y28346381D01*
X50969388Y28346381D01*
X50969383Y28346378D01*
X50969377Y28346374D01*
X50918154Y28312617D01*
X50914126Y28310176D01*
X50860502Y28280412D01*
X50860499Y28280410D01*
X50834427Y28258030D01*
X50828160Y28253305D01*
X50799482Y28234402D01*
X50799475Y28234397D01*
X50756116Y28191038D01*
X50752661Y28187836D01*
X50706106Y28147868D01*
X50706105Y28147867D01*
X50685076Y28120700D01*
X50679884Y28114806D01*
X48831532Y26266454D01*
X48766946Y26205058D01*
X48731899Y26154706D01*
X48729062Y26150944D01*
X48690302Y26103408D01*
X48690299Y26103403D01*
X48674392Y26072953D01*
X48670324Y26066239D01*
X48650702Y26038046D01*
X48626509Y25981670D01*
X48624488Y25977416D01*
X48596091Y25923049D01*
X48596090Y25923048D01*
X48586640Y25890025D01*
X48584007Y25882629D01*
X48570459Y25851057D01*
X48558113Y25790981D01*
X48556990Y25786405D01*
X48540113Y25727423D01*
X48540113Y25727421D01*
X48537503Y25693159D01*
X48536414Y25685392D01*
X48530980Y25658948D01*
X48529500Y25651742D01*
X48529500Y25590403D01*
X48529321Y25585694D01*
X48524662Y25524526D01*
X48526707Y25508473D01*
X48529003Y25490440D01*
X48529500Y25482612D01*
X48529500Y25091338D01*
X48509815Y25024299D01*
X48507075Y25020215D01*
X48432466Y24913662D01*
X48432465Y24913660D01*
X48339107Y24713452D01*
X48339104Y24713446D01*
X48281930Y24500071D01*
X48281929Y24500063D01*
X48262677Y24280003D01*
X48262677Y24279998D01*
X48281929Y24059938D01*
X48281930Y24059930D01*
X48339104Y23846555D01*
X48339105Y23846553D01*
X48339106Y23846550D01*
X48385570Y23746908D01*
X48432466Y23646338D01*
X48432468Y23646334D01*
X48559170Y23465385D01*
X48559175Y23465379D01*
X48715378Y23309176D01*
X48715384Y23309171D01*
X48896333Y23182469D01*
X48896335Y23182468D01*
X48896338Y23182466D01*
X49096550Y23089106D01*
X49309932Y23031930D01*
X49467123Y23018178D01*
X49529998Y23012677D01*
X49530000Y23012677D01*
X49530002Y23012677D01*
X49585017Y23017491D01*
X49750068Y23031930D01*
X49963450Y23089106D01*
X50163662Y23182466D01*
X50344620Y23309174D01*
X50500826Y23465380D01*
X50627534Y23646338D01*
X50720894Y23846550D01*
X50778070Y24059932D01*
X50797323Y24280000D01*
X50793989Y24318103D01*
X50778070Y24500063D01*
X50778070Y24500068D01*
X50720894Y24713450D01*
X50627534Y24913661D01*
X50555856Y25016029D01*
X50533529Y25082235D01*
X50550541Y25150002D01*
X50569747Y25174828D01*
X51813101Y26418181D01*
X51874424Y26451666D01*
X51900782Y26454500D01*
X51920859Y26454500D01*
X51987898Y26434815D01*
X52033653Y26382011D01*
X52037030Y26373860D01*
X52041204Y26362669D01*
X52041205Y26362668D01*
X52041206Y26362665D01*
X52127452Y26247456D01*
X52127455Y26247453D01*
X52242664Y26161207D01*
X52242671Y26161203D01*
X52377517Y26110909D01*
X52377516Y26110909D01*
X52384444Y26110165D01*
X52437127Y26104500D01*
X54232872Y26104501D01*
X54292483Y26110909D01*
X54427331Y26161204D01*
X54542546Y26247454D01*
X54628796Y26362669D01*
X54677810Y26494084D01*
X54719681Y26550016D01*
X54785145Y26574434D01*
X54853418Y26559583D01*
X54881673Y26538431D01*
X55003599Y26416505D01*
X55100384Y26348735D01*
X55197165Y26280968D01*
X55197167Y26280967D01*
X55197170Y26280965D01*
X55411337Y26181097D01*
X55639592Y26119937D01*
X55816034Y26104500D01*
X55874999Y26099341D01*
X55875000Y26099341D01*
X55875001Y26099341D01*
X55921428Y26103403D01*
X56110408Y26119937D01*
X56338663Y26181097D01*
X56552830Y26280965D01*
X56746401Y26416505D01*
X56748077Y26418181D01*
X56748995Y26418683D01*
X56750544Y26419982D01*
X56750805Y26419671D01*
X56809400Y26451666D01*
X56835758Y26454500D01*
X57264284Y26454500D01*
X57353358Y26452243D01*
X57353358Y26452244D01*
X57353363Y26452243D01*
X57413753Y26463068D01*
X57418412Y26463720D01*
X57460607Y26468012D01*
X57479438Y26469926D01*
X57512227Y26480214D01*
X57519840Y26482082D01*
X57553653Y26488142D01*
X57610621Y26510899D01*
X57615053Y26512476D01*
X57673588Y26530841D01*
X57703627Y26547516D01*
X57710708Y26550878D01*
X57742617Y26563623D01*
X57793854Y26597392D01*
X57797851Y26599813D01*
X57851502Y26629591D01*
X57877568Y26651970D01*
X57883843Y26656700D01*
X57889207Y26660235D01*
X57912519Y26675598D01*
X57955892Y26718973D01*
X57959350Y26722177D01*
X57967685Y26729332D01*
X58005895Y26762134D01*
X58026928Y26789309D01*
X58032098Y26795179D01*
X59118468Y27881549D01*
X59183053Y27942941D01*
X59218099Y27993294D01*
X59220938Y27997059D01*
X59224612Y28001565D01*
X59259698Y28044593D01*
X59275601Y28075040D01*
X59279674Y28081761D01*
X59292134Y28099663D01*
X59299295Y28109951D01*
X59323492Y28166340D01*
X59325498Y28170565D01*
X59353909Y28224951D01*
X59363357Y28257978D01*
X59365988Y28265367D01*
X59379540Y28296942D01*
X59391895Y28357070D01*
X59392999Y28361571D01*
X59409886Y28420582D01*
X59412494Y28454843D01*
X59413585Y28462611D01*
X59420500Y28496257D01*
X59420500Y28557602D01*
X59420679Y28562312D01*
X59421150Y28568495D01*
X59425337Y28623476D01*
X59421949Y28650080D01*
X59420997Y28657558D01*
X59420500Y28665397D01*
X59420500Y30453663D01*
X59440185Y30520702D01*
X59442896Y30524746D01*
X59517534Y30631338D01*
X59610894Y30831550D01*
X59668070Y31044932D01*
X59687323Y31265000D01*
X59687098Y31267568D01*
X59668070Y31485063D01*
X59668070Y31485068D01*
X59610894Y31698450D01*
X59517534Y31898661D01*
X59390826Y32079620D01*
X59390824Y32079623D01*
X59387628Y32082819D01*
X59354143Y32144142D01*
X59359127Y32213834D01*
X59400999Y32269767D01*
X59466463Y32294184D01*
X59475309Y32294500D01*
X61180994Y32294500D01*
X61248033Y32274815D01*
X61268675Y32258181D01*
X62197965Y31328891D01*
X62231450Y31267568D01*
X62233812Y31252018D01*
X62251929Y31044937D01*
X62251930Y31044930D01*
X62309104Y30831555D01*
X62309105Y30831553D01*
X62309106Y30831550D01*
X62358690Y30725216D01*
X62402466Y30631338D01*
X62402468Y30631334D01*
X62529170Y30450385D01*
X62529175Y30450379D01*
X62685378Y30294176D01*
X62685384Y30294171D01*
X62866333Y30167469D01*
X62866335Y30167468D01*
X62866338Y30167466D01*
X63066550Y30074106D01*
X63279932Y30016930D01*
X63425063Y30004233D01*
X63499998Y29997677D01*
X63500000Y29997677D01*
X63500002Y29997677D01*
X63556317Y30002604D01*
X63720068Y30016930D01*
X63933450Y30074106D01*
X64133662Y30167466D01*
X64314620Y30294174D01*
X64470826Y30450380D01*
X64597534Y30631338D01*
X64657618Y30760189D01*
X64703790Y30812629D01*
X64770983Y30831781D01*
X64837865Y30811565D01*
X64882382Y30760189D01*
X64942464Y30631342D01*
X64942468Y30631334D01*
X65069170Y30450385D01*
X65069175Y30450379D01*
X65225378Y30294176D01*
X65225384Y30294171D01*
X65406333Y30167469D01*
X65406335Y30167468D01*
X65406338Y30167466D01*
X65606550Y30074106D01*
X65819932Y30016930D01*
X65965063Y30004233D01*
X66039998Y29997677D01*
X66040000Y29997677D01*
X66040002Y29997677D01*
X66096317Y30002604D01*
X66260068Y30016930D01*
X66473450Y30074106D01*
X66673662Y30167466D01*
X66854620Y30294174D01*
X67010826Y30450380D01*
X67137534Y30631338D01*
X67230894Y30831550D01*
X67288070Y31044932D01*
X67307323Y31265000D01*
X67307098Y31267568D01*
X67288070Y31485063D01*
X67288070Y31485068D01*
X67230894Y31698450D01*
X67137534Y31898661D01*
X67010826Y32079620D01*
X66854620Y32235826D01*
X66854616Y32235829D01*
X66854615Y32235830D01*
X66673666Y32362532D01*
X66673662Y32362534D01*
X66473450Y32455894D01*
X66473447Y32455895D01*
X66473445Y32455896D01*
X66260070Y32513070D01*
X66260063Y32513071D01*
X66052982Y32531188D01*
X65987914Y32556641D01*
X65976109Y32567035D01*
X64492805Y34050339D01*
X62875999Y35667145D01*
X62872608Y35670824D01*
X62835631Y35714357D01*
X62773746Y35761400D01*
X62769262Y35764809D01*
X62704297Y35817030D01*
X62704294Y35817032D01*
X62704120Y35817118D01*
X62684182Y35829486D01*
X62684029Y35829603D01*
X62684027Y35829604D01*
X62608359Y35864611D01*
X62588889Y35874267D01*
X62533693Y35901641D01*
X62533689Y35901642D01*
X62533680Y35901645D01*
X62533488Y35901693D01*
X62511385Y35909475D01*
X62511198Y35909562D01*
X62511194Y35909563D01*
X62429771Y35927486D01*
X62348885Y35947601D01*
X62348689Y35947606D01*
X62325413Y35950457D01*
X62325222Y35950499D01*
X62325219Y35950500D01*
X62325216Y35950500D01*
X62325212Y35950500D01*
X62241840Y35950500D01*
X62158527Y35952757D01*
X62158526Y35952757D01*
X62158345Y35952722D01*
X62134977Y35950500D01*
X42583099Y35950500D01*
X42578064Y35950705D01*
X42521154Y35955340D01*
X42521148Y35955339D01*
X42438559Y35944087D01*
X42355680Y35935073D01*
X42355490Y35935008D01*
X42332665Y35929659D01*
X42332466Y35929632D01*
X42332463Y35929632D01*
X42332463Y35929631D01*
X42293334Y35915256D01*
X42254203Y35900880D01*
X42236908Y35895054D01*
X42167093Y35892304D01*
X42106874Y35927737D01*
X42075371Y35990101D01*
X42082585Y36059597D01*
X42109636Y36100243D01*
X48427575Y42418181D01*
X48488898Y42451666D01*
X48515256Y42454500D01*
X62826898Y42454500D01*
X62831932Y42454295D01*
X62888844Y42449661D01*
X62888845Y42449662D01*
X62888848Y42449661D01*
X62971441Y42460915D01*
X63054316Y42469927D01*
X63054481Y42469983D01*
X63077357Y42475345D01*
X63077537Y42475369D01*
X63155793Y42504120D01*
X63234780Y42530733D01*
X63234928Y42530822D01*
X63256116Y42540976D01*
X63256288Y42541039D01*
X63326536Y42585941D01*
X63397954Y42628911D01*
X63398083Y42629034D01*
X63416597Y42643506D01*
X63416607Y42643513D01*
X63416744Y42643600D01*
X63446219Y42673077D01*
X63475696Y42702552D01*
X63506770Y42731989D01*
X63536207Y42759871D01*
X63536306Y42760017D01*
X63551264Y42778122D01*
X65976110Y45202968D01*
X66037431Y45236451D01*
X66052978Y45238813D01*
X66260068Y45256930D01*
X66473450Y45314106D01*
X66673662Y45407466D01*
X66854620Y45534174D01*
X67010826Y45690380D01*
X67137534Y45871338D01*
X67230894Y46071550D01*
X67288070Y46284932D01*
X67307323Y46505000D01*
X67288070Y46725068D01*
X67230894Y46938450D01*
X67137534Y47138661D01*
X67010826Y47319620D01*
X67010824Y47319623D01*
X66951819Y47378628D01*
X66918334Y47439951D01*
X66915500Y47466309D01*
X66915500Y51546902D01*
X66915705Y51551937D01*
X66917205Y51570370D01*
X66920339Y51608848D01*
X66909085Y51691444D01*
X66900073Y51774316D01*
X66900015Y51774488D01*
X66894655Y51797359D01*
X66894631Y51797538D01*
X66865883Y51875787D01*
X66839267Y51954780D01*
X66839225Y51954850D01*
X66839168Y51954945D01*
X66829022Y51976121D01*
X66828961Y51976285D01*
X66828960Y51976288D01*
X66784068Y52046522D01*
X66751581Y52100516D01*
X66741090Y52117953D01*
X66740957Y52118093D01*
X66726504Y52136581D01*
X66726400Y52136744D01*
X66667447Y52195697D01*
X66610129Y52256207D01*
X66609970Y52256315D01*
X66591877Y52271267D01*
X64802034Y54061110D01*
X64768549Y54122433D01*
X64766187Y54137984D01*
X64753105Y54287511D01*
X64748070Y54345068D01*
X64690894Y54558450D01*
X64597534Y54758661D01*
X64541015Y54839379D01*
X64518689Y54905583D01*
X64535699Y54973350D01*
X64586647Y55021163D01*
X64642591Y55034500D01*
X66349242Y55034500D01*
X66416281Y55014815D01*
X66436923Y54998181D01*
X66438599Y54996505D01*
X66505748Y54949487D01*
X66632165Y54860968D01*
X66632167Y54860967D01*
X66632170Y54860965D01*
X66846337Y54761097D01*
X66846343Y54761096D01*
X66846344Y54761095D01*
X66855428Y54758661D01*
X67074592Y54699937D01*
X67262918Y54683461D01*
X67309999Y54679341D01*
X67310000Y54679341D01*
X67310001Y54679341D01*
X67349234Y54682774D01*
X67545408Y54699937D01*
X67773663Y54761097D01*
X67987830Y54860965D01*
X68181401Y54996505D01*
X68348495Y55163599D01*
X68484035Y55357170D01*
X68583903Y55571337D01*
X68645063Y55799592D01*
X68665659Y56035000D01*
X68664728Y56045636D01*
X68648463Y56231549D01*
X68645063Y56270408D01*
X68583903Y56498663D01*
X68484035Y56712829D01*
X68480776Y56717483D01*
X68348496Y56906400D01*
X68299102Y56955794D01*
X68226567Y57028329D01*
X68193084Y57089649D01*
X68198068Y57159341D01*
X68239939Y57215275D01*
X68270915Y57232190D01*
X68402331Y57281204D01*
X68517546Y57367454D01*
X68603796Y57482669D01*
X68654091Y57617517D01*
X68660500Y57677127D01*
X68660499Y59472872D01*
X68654091Y59532483D01*
X68643033Y59562130D01*
X68603797Y59667329D01*
X68603793Y59667336D01*
X68517547Y59782545D01*
X68517544Y59782548D01*
X68402335Y59868794D01*
X68402328Y59868798D01*
X68267482Y59919092D01*
X68267483Y59919092D01*
X68207883Y59925499D01*
X68207881Y59925500D01*
X68207873Y59925500D01*
X68207864Y59925500D01*
X66412129Y59925500D01*
X66412123Y59925499D01*
X66352516Y59919092D01*
X66217671Y59868798D01*
X66217664Y59868794D01*
X66102455Y59782548D01*
X66102452Y59782545D01*
X66016206Y59667336D01*
X66016204Y59667332D01*
X66016204Y59667331D01*
X66012039Y59656166D01*
X65970171Y59600234D01*
X65904707Y59575816D01*
X65895859Y59575500D01*
X64799245Y59575500D01*
X64732206Y59595185D01*
X64686863Y59647095D01*
X64640439Y59746650D01*
X64597534Y59838661D01*
X64470826Y60019620D01*
X64314620Y60175826D01*
X64314616Y60175829D01*
X64314615Y60175830D01*
X64133666Y60302532D01*
X64133658Y60302536D01*
X64004811Y60362618D01*
X63952371Y60408790D01*
X63933219Y60475983D01*
X63953435Y60542865D01*
X64004811Y60587382D01*
X64010802Y60590176D01*
X64133662Y60647466D01*
X64314620Y60774174D01*
X64470826Y60930380D01*
X64597534Y61111338D01*
X64689194Y61307904D01*
X64735366Y61360344D01*
X64801576Y61379500D01*
X66349242Y61379500D01*
X66416281Y61359815D01*
X66436923Y61343181D01*
X66438599Y61341505D01*
X66502206Y61296967D01*
X66632165Y61205968D01*
X66632167Y61205967D01*
X66632170Y61205965D01*
X66846337Y61106097D01*
X66846343Y61106096D01*
X66846344Y61106095D01*
X66901285Y61091374D01*
X67074592Y61044937D01*
X67262918Y61028461D01*
X67309999Y61024341D01*
X67310000Y61024341D01*
X67310001Y61024341D01*
X67349234Y61027774D01*
X67545408Y61044937D01*
X67773663Y61106097D01*
X67987830Y61205965D01*
X68181401Y61341505D01*
X68348495Y61508599D01*
X68484035Y61702170D01*
X68583903Y61916337D01*
X68645063Y62144592D01*
X68665659Y62380000D01*
X68645063Y62615408D01*
X68583903Y62843663D01*
X68484035Y63057829D01*
X68451642Y63104091D01*
X68348496Y63251400D01*
X68304618Y63295278D01*
X68226567Y63373329D01*
X68193084Y63434649D01*
X68198068Y63504341D01*
X68239939Y63560275D01*
X68270915Y63577190D01*
X68402331Y63626204D01*
X68517546Y63712454D01*
X68603796Y63827669D01*
X68654091Y63962517D01*
X68660500Y64022127D01*
X68660499Y65817872D01*
X68654091Y65877483D01*
X68634572Y65929815D01*
X68603797Y66012329D01*
X68603793Y66012336D01*
X68517547Y66127545D01*
X68517544Y66127548D01*
X68402335Y66213794D01*
X68402328Y66213798D01*
X68267482Y66264092D01*
X68267483Y66264092D01*
X68207883Y66270499D01*
X68207881Y66270500D01*
X68207873Y66270500D01*
X68207864Y66270500D01*
X66412129Y66270500D01*
X66412123Y66270499D01*
X66352516Y66264092D01*
X66217671Y66213798D01*
X66217664Y66213794D01*
X66102455Y66127548D01*
X66102452Y66127545D01*
X66016206Y66012336D01*
X66016204Y66012332D01*
X66016204Y66012331D01*
X66012039Y66001166D01*
X65970171Y65945234D01*
X65904707Y65920816D01*
X65895859Y65920500D01*
X64646093Y65920500D01*
X64579054Y65940185D01*
X64533299Y65992989D01*
X64523355Y66062147D01*
X64544517Y66115623D01*
X64597534Y66191338D01*
X64690894Y66391550D01*
X64748070Y66604932D01*
X64767323Y66825000D01*
X64764931Y66852336D01*
X64757556Y66936641D01*
X64748070Y67045068D01*
X64690894Y67258450D01*
X64597534Y67458661D01*
X64470826Y67639620D01*
X64314620Y67795826D01*
X64314616Y67795829D01*
X64314615Y67795830D01*
X64133666Y67922532D01*
X64133662Y67922534D01*
X64133660Y67922535D01*
X63933450Y68015894D01*
X63933447Y68015895D01*
X63933445Y68015896D01*
X63720070Y68073070D01*
X63720062Y68073071D01*
X63500002Y68092323D01*
X63499998Y68092323D01*
X63279937Y68073071D01*
X63279929Y68073070D01*
X63066554Y68015896D01*
X63066548Y68015893D01*
X62866340Y67922535D01*
X62866338Y67922534D01*
X62685377Y67795825D01*
X62529175Y67639623D01*
X62402466Y67458662D01*
X62402465Y67458660D01*
X62309107Y67258452D01*
X62309104Y67258446D01*
X62251930Y67045071D01*
X62251929Y67045063D01*
X62232677Y66825003D01*
X62232677Y66824998D01*
X62251929Y66604938D01*
X62251930Y66604930D01*
X62309104Y66391555D01*
X62309105Y66391553D01*
X62309106Y66391550D01*
X62368541Y66264091D01*
X62402466Y66191338D01*
X62402468Y66191334D01*
X62529170Y66010385D01*
X62529175Y66010379D01*
X62685378Y65854176D01*
X62685384Y65854171D01*
X62866333Y65727469D01*
X62866335Y65727468D01*
X62866338Y65727466D01*
X62985748Y65671785D01*
X62995189Y65667382D01*
X63047628Y65621210D01*
X63066780Y65554016D01*
X63046564Y65487135D01*
X62995189Y65442618D01*
X62866340Y65382535D01*
X62866338Y65382534D01*
X62685377Y65255825D01*
X62529175Y65099623D01*
X62402466Y64918662D01*
X62402465Y64918660D01*
X62309107Y64718452D01*
X62309104Y64718446D01*
X62251930Y64505071D01*
X62251929Y64505063D01*
X62232677Y64285003D01*
X62232677Y64284998D01*
X62251929Y64064938D01*
X62251930Y64064930D01*
X62309104Y63851555D01*
X62309105Y63851553D01*
X62309106Y63851550D01*
X62326986Y63813207D01*
X62402466Y63651338D01*
X62402468Y63651334D01*
X62529170Y63470385D01*
X62529175Y63470379D01*
X62685378Y63314176D01*
X62685384Y63314171D01*
X62866333Y63187469D01*
X62866335Y63187468D01*
X62866338Y63187466D01*
X62912705Y63165845D01*
X62995189Y63127382D01*
X63047628Y63081210D01*
X63066780Y63014016D01*
X63046564Y62947135D01*
X62995189Y62902618D01*
X62866340Y62842535D01*
X62866338Y62842534D01*
X62685377Y62715825D01*
X62529175Y62559623D01*
X62402466Y62378662D01*
X62402465Y62378660D01*
X62309107Y62178452D01*
X62309104Y62178446D01*
X62251930Y61965071D01*
X62251929Y61965063D01*
X62232677Y61745003D01*
X62232677Y61744998D01*
X62251929Y61524938D01*
X62251930Y61524930D01*
X62309104Y61311555D01*
X62309105Y61311553D01*
X62309106Y61311550D01*
X62376882Y61166204D01*
X62402466Y61111338D01*
X62402468Y61111334D01*
X62529170Y60930385D01*
X62529175Y60930379D01*
X62685378Y60774176D01*
X62685384Y60774171D01*
X62866333Y60647469D01*
X62866335Y60647468D01*
X62866338Y60647466D01*
X62985748Y60591785D01*
X62995189Y60587382D01*
X63047628Y60541210D01*
X63066780Y60474016D01*
X63046564Y60407135D01*
X62995189Y60362618D01*
X62866340Y60302535D01*
X62866338Y60302534D01*
X62685377Y60175825D01*
X62529175Y60019623D01*
X62402466Y59838662D01*
X62402465Y59838660D01*
X62309107Y59638452D01*
X62309104Y59638446D01*
X62251930Y59425071D01*
X62251929Y59425063D01*
X62232677Y59205003D01*
X62232677Y59204998D01*
X62251929Y58984938D01*
X62251930Y58984930D01*
X62309104Y58771555D01*
X62309105Y58771553D01*
X62309106Y58771550D01*
X62402466Y58571338D01*
X62402468Y58571334D01*
X62529170Y58390385D01*
X62529175Y58390379D01*
X62685378Y58234176D01*
X62685384Y58234171D01*
X62866333Y58107469D01*
X62866335Y58107468D01*
X62866338Y58107466D01*
X62985748Y58051785D01*
X62995189Y58047382D01*
X63047628Y58001210D01*
X63066780Y57934016D01*
X63046564Y57867135D01*
X62995189Y57822618D01*
X62866340Y57762535D01*
X62866338Y57762534D01*
X62685377Y57635825D01*
X62529175Y57479623D01*
X62402466Y57298662D01*
X62402465Y57298660D01*
X62309107Y57098452D01*
X62309104Y57098446D01*
X62251930Y56885071D01*
X62251929Y56885063D01*
X62232677Y56665003D01*
X62232677Y56664998D01*
X62251929Y56444938D01*
X62251930Y56444930D01*
X62309104Y56231555D01*
X62309105Y56231553D01*
X62309106Y56231550D01*
X62391971Y56053845D01*
X62402466Y56031338D01*
X62402468Y56031334D01*
X62529170Y55850385D01*
X62529175Y55850379D01*
X62685378Y55694176D01*
X62685384Y55694171D01*
X62866333Y55567469D01*
X62866335Y55567468D01*
X62866338Y55567466D01*
X62985748Y55511785D01*
X62995189Y55507382D01*
X63047628Y55461210D01*
X63066780Y55394016D01*
X63046564Y55327135D01*
X62995189Y55282618D01*
X62866340Y55222535D01*
X62866338Y55222534D01*
X62685377Y55095825D01*
X62529175Y54939623D01*
X62402466Y54758662D01*
X62402465Y54758660D01*
X62309107Y54558452D01*
X62309104Y54558446D01*
X62251930Y54345071D01*
X62251929Y54345063D01*
X62232677Y54125003D01*
X62232677Y54124998D01*
X62251929Y53904938D01*
X62251930Y53904930D01*
X62309104Y53691555D01*
X62309105Y53691553D01*
X62309106Y53691550D01*
X62312379Y53684532D01*
X62402466Y53491338D01*
X62402468Y53491334D01*
X62529170Y53310385D01*
X62529175Y53310379D01*
X62685378Y53154176D01*
X62685384Y53154171D01*
X62866333Y53027469D01*
X62866335Y53027468D01*
X62866338Y53027466D01*
X63066550Y52934106D01*
X63279932Y52876930D01*
X63487016Y52858813D01*
X63552085Y52833361D01*
X63563890Y52822966D01*
X65128181Y51258676D01*
X65161666Y51197353D01*
X65164500Y51170995D01*
X65164500Y47466309D01*
X65144815Y47399270D01*
X65128181Y47378628D01*
X65069175Y47319623D01*
X64942466Y47138662D01*
X64942465Y47138660D01*
X64882382Y47009811D01*
X64836209Y46957372D01*
X64769016Y46938220D01*
X64702135Y46958436D01*
X64657618Y47009811D01*
X64602045Y47128987D01*
X64597534Y47138661D01*
X64483963Y47300859D01*
X64470827Y47319619D01*
X64393797Y47396649D01*
X64314620Y47475826D01*
X64314616Y47475829D01*
X64314615Y47475830D01*
X64133666Y47602532D01*
X64133662Y47602534D01*
X64018765Y47656111D01*
X63933450Y47695894D01*
X63933447Y47695895D01*
X63933445Y47695896D01*
X63720070Y47753070D01*
X63720062Y47753071D01*
X63500002Y47772323D01*
X63499998Y47772323D01*
X63279937Y47753071D01*
X63279929Y47753070D01*
X63066554Y47695896D01*
X63066548Y47695893D01*
X62866340Y47602535D01*
X62866338Y47602534D01*
X62685377Y47475825D01*
X62529175Y47319623D01*
X62402466Y47138662D01*
X62402465Y47138660D01*
X62342382Y47009811D01*
X62296209Y46957372D01*
X62229016Y46938220D01*
X62162135Y46958436D01*
X62117618Y47009811D01*
X62062045Y47128987D01*
X62057534Y47138661D01*
X61943963Y47300859D01*
X61930827Y47319619D01*
X61853797Y47396649D01*
X61774620Y47475826D01*
X61774616Y47475829D01*
X61774615Y47475830D01*
X61593666Y47602532D01*
X61593662Y47602534D01*
X61478765Y47656111D01*
X61393450Y47695894D01*
X61393447Y47695895D01*
X61393445Y47695896D01*
X61180070Y47753070D01*
X61180062Y47753071D01*
X60960002Y47772323D01*
X60959998Y47772323D01*
X60739937Y47753071D01*
X60739929Y47753070D01*
X60526554Y47695896D01*
X60526548Y47695893D01*
X60326340Y47602535D01*
X60326338Y47602534D01*
X60145377Y47475825D01*
X59989175Y47319623D01*
X59862466Y47138662D01*
X59862465Y47138660D01*
X59802382Y47009811D01*
X59756209Y46957372D01*
X59689016Y46938220D01*
X59622135Y46958436D01*
X59577618Y47009811D01*
X59522045Y47128987D01*
X59517534Y47138661D01*
X59442925Y47245215D01*
X59420598Y47311422D01*
X59420500Y47316338D01*
X59420500Y49359242D01*
X59440185Y49426281D01*
X59450485Y49439064D01*
X59450018Y49439456D01*
X59453482Y49443587D01*
X59453495Y49443599D01*
X59589035Y49637170D01*
X59688903Y49851337D01*
X59750063Y50079592D01*
X59770659Y50315000D01*
X59750063Y50550408D01*
X59688903Y50778663D01*
X59589035Y50992829D01*
X59555538Y51040669D01*
X59453494Y51186403D01*
X59286402Y51353494D01*
X59286395Y51353499D01*
X59092834Y51489033D01*
X59092830Y51489035D01*
X59045670Y51511026D01*
X58878663Y51588903D01*
X58878659Y51588904D01*
X58878655Y51588906D01*
X58650413Y51650062D01*
X58650403Y51650064D01*
X58415001Y51670659D01*
X58414999Y51670659D01*
X58179596Y51650064D01*
X58179586Y51650062D01*
X57951344Y51588906D01*
X57951335Y51588902D01*
X57737171Y51489036D01*
X57737169Y51489035D01*
X57543600Y51353497D01*
X57421673Y51231570D01*
X57360350Y51198086D01*
X57290658Y51203070D01*
X57234725Y51244942D01*
X57217810Y51275919D01*
X57168797Y51407329D01*
X57168793Y51407336D01*
X57082547Y51522545D01*
X57082544Y51522548D01*
X56967335Y51608794D01*
X56967328Y51608798D01*
X56832482Y51659092D01*
X56832483Y51659092D01*
X56772883Y51665499D01*
X56772881Y51665500D01*
X56772873Y51665500D01*
X56772864Y51665500D01*
X54977129Y51665500D01*
X54977123Y51665499D01*
X54917516Y51659092D01*
X54782671Y51608798D01*
X54782664Y51608794D01*
X54667455Y51522548D01*
X54667452Y51522545D01*
X54581206Y51407336D01*
X54581202Y51407329D01*
X54530908Y51272483D01*
X54524501Y51212884D01*
X54524500Y51212865D01*
X54524500Y49417130D01*
X54524501Y49417124D01*
X54530908Y49357517D01*
X54581202Y49222672D01*
X54581206Y49222665D01*
X54667452Y49107456D01*
X54667455Y49107453D01*
X54782665Y49021207D01*
X54782669Y49021204D01*
X54798831Y49015176D01*
X54854765Y48973308D01*
X54879184Y48907844D01*
X54879500Y48898994D01*
X54879500Y47316338D01*
X54859815Y47249299D01*
X54857075Y47245215D01*
X54782466Y47138662D01*
X54782465Y47138660D01*
X54722382Y47009811D01*
X54676209Y46957372D01*
X54609016Y46938220D01*
X54542135Y46958436D01*
X54497618Y47009811D01*
X54442045Y47128987D01*
X54437534Y47138661D01*
X54323963Y47300859D01*
X54310827Y47319619D01*
X54233797Y47396649D01*
X54154620Y47475826D01*
X54154616Y47475829D01*
X54154615Y47475830D01*
X53973666Y47602532D01*
X53973662Y47602534D01*
X53858765Y47656111D01*
X53773450Y47695894D01*
X53773447Y47695895D01*
X53773445Y47695896D01*
X53560070Y47753070D01*
X53560062Y47753071D01*
X53340002Y47772323D01*
X53339998Y47772323D01*
X53119937Y47753071D01*
X53119929Y47753070D01*
X52906554Y47695896D01*
X52906548Y47695893D01*
X52706340Y47602535D01*
X52706338Y47602534D01*
X52525377Y47475825D01*
X52369175Y47319623D01*
X52242466Y47138662D01*
X52242465Y47138660D01*
X52149107Y46938452D01*
X52149104Y46938446D01*
X52091930Y46725071D01*
X52091929Y46725063D01*
X52072677Y46505003D01*
X52072677Y46504998D01*
X52091929Y46284938D01*
X52091930Y46284930D01*
X52149104Y46071555D01*
X52149105Y46071553D01*
X52149106Y46071550D01*
X52182382Y46000189D01*
X52242466Y45871338D01*
X52242468Y45871334D01*
X52369170Y45690385D01*
X52369175Y45690379D01*
X52525378Y45534176D01*
X52525384Y45534171D01*
X52706333Y45407469D01*
X52706335Y45407468D01*
X52706338Y45407466D01*
X52906550Y45314106D01*
X53119932Y45256930D01*
X53277123Y45243178D01*
X53339998Y45237677D01*
X53340000Y45237677D01*
X53340002Y45237677D01*
X53395017Y45242491D01*
X53560068Y45256930D01*
X53773450Y45314106D01*
X53973662Y45407466D01*
X54154620Y45534174D01*
X54310826Y45690380D01*
X54437534Y45871338D01*
X54497618Y46000189D01*
X54543790Y46052629D01*
X54610983Y46071781D01*
X54677865Y46051565D01*
X54722382Y46000189D01*
X54782464Y45871342D01*
X54782468Y45871334D01*
X54909170Y45690385D01*
X54909175Y45690379D01*
X55065378Y45534176D01*
X55065384Y45534171D01*
X55246333Y45407469D01*
X55246335Y45407468D01*
X55246338Y45407466D01*
X55446550Y45314106D01*
X55659932Y45256930D01*
X55817123Y45243178D01*
X55879998Y45237677D01*
X55880000Y45237677D01*
X55880002Y45237677D01*
X55935017Y45242491D01*
X56100068Y45256930D01*
X56313450Y45314106D01*
X56513662Y45407466D01*
X56694620Y45534174D01*
X56850826Y45690380D01*
X56977534Y45871338D01*
X57037618Y46000189D01*
X57083790Y46052629D01*
X57150983Y46071781D01*
X57217865Y46051565D01*
X57262382Y46000189D01*
X57322464Y45871342D01*
X57322468Y45871334D01*
X57449170Y45690385D01*
X57449175Y45690379D01*
X57605378Y45534176D01*
X57605384Y45534171D01*
X57786333Y45407469D01*
X57786335Y45407468D01*
X57786338Y45407466D01*
X57986550Y45314106D01*
X58199932Y45256930D01*
X58357123Y45243178D01*
X58419998Y45237677D01*
X58420000Y45237677D01*
X58420002Y45237677D01*
X58475017Y45242491D01*
X58640068Y45256930D01*
X58853450Y45314106D01*
X59053662Y45407466D01*
X59234620Y45534174D01*
X59390826Y45690380D01*
X59517534Y45871338D01*
X59577618Y46000189D01*
X59623790Y46052629D01*
X59690983Y46071781D01*
X59757865Y46051565D01*
X59802382Y46000189D01*
X59862464Y45871342D01*
X59862468Y45871334D01*
X59989170Y45690385D01*
X59989175Y45690379D01*
X60145378Y45534176D01*
X60145384Y45534171D01*
X60326333Y45407469D01*
X60326335Y45407468D01*
X60326338Y45407466D01*
X60526550Y45314106D01*
X60739932Y45256930D01*
X60897123Y45243178D01*
X60959998Y45237677D01*
X60960000Y45237677D01*
X60960002Y45237677D01*
X61015017Y45242491D01*
X61180068Y45256930D01*
X61393450Y45314106D01*
X61593662Y45407466D01*
X61774620Y45534174D01*
X61930826Y45690380D01*
X62057534Y45871338D01*
X62117618Y46000189D01*
X62163790Y46052629D01*
X62230983Y46071781D01*
X62297865Y46051565D01*
X62342382Y46000189D01*
X62402464Y45871342D01*
X62402468Y45871334D01*
X62529170Y45690385D01*
X62529175Y45690379D01*
X62685378Y45534176D01*
X62685384Y45534171D01*
X62866333Y45407469D01*
X62866335Y45407468D01*
X62866338Y45407466D01*
X63066550Y45314106D01*
X63279932Y45256930D01*
X63279934Y45256930D01*
X63285162Y45255529D01*
X63284745Y45253975D01*
X63340747Y45226225D01*
X63376643Y45166281D01*
X63374432Y45096446D01*
X63344301Y45047447D01*
X62538675Y44241819D01*
X62477352Y44208334D01*
X62450994Y44205500D01*
X48139360Y44205500D01*
X48134322Y44205705D01*
X48133854Y44205744D01*
X48123600Y44206579D01*
X48058381Y44231644D01*
X48017067Y44287991D01*
X48012774Y44357729D01*
X48045990Y44417848D01*
X50757141Y47128999D01*
X50760810Y47132382D01*
X50804357Y47169369D01*
X50854814Y47235745D01*
X50907030Y47300704D01*
X50907110Y47300866D01*
X50919487Y47320821D01*
X50919602Y47320971D01*
X50954613Y47396648D01*
X50976090Y47439951D01*
X50991638Y47471300D01*
X50991638Y47471302D01*
X50991641Y47471307D01*
X50991685Y47471486D01*
X50999486Y47493640D01*
X50999562Y47493803D01*
X51017481Y47575210D01*
X51037601Y47656111D01*
X51037605Y47656290D01*
X51040463Y47679621D01*
X51040500Y47679784D01*
X51040500Y47763144D01*
X51042757Y47846473D01*
X51042720Y47846666D01*
X51040500Y47870025D01*
X51040500Y54721890D01*
X51040705Y54726925D01*
X51043487Y54761097D01*
X51045340Y54783848D01*
X51034083Y54866463D01*
X51025073Y54949316D01*
X51025014Y54949491D01*
X51019656Y54972351D01*
X51019631Y54972537D01*
X50990880Y55050794D01*
X50964267Y55129780D01*
X50964266Y55129782D01*
X50964172Y55129939D01*
X50954025Y55151113D01*
X50953961Y55151288D01*
X50909059Y55221537D01*
X50890457Y55252454D01*
X50866090Y55292953D01*
X50865957Y55293093D01*
X50851504Y55311581D01*
X50851400Y55311744D01*
X50792447Y55370697D01*
X50735129Y55431207D01*
X50734970Y55431315D01*
X50716877Y55446267D01*
X49562034Y56601110D01*
X49528549Y56662433D01*
X49526187Y56677984D01*
X49523567Y56707929D01*
X49508070Y56885068D01*
X49450894Y57098450D01*
X49357534Y57298661D01*
X49294180Y57389141D01*
X49230827Y57479619D01*
X49155631Y57554815D01*
X49074620Y57635826D01*
X49074616Y57635829D01*
X49074615Y57635830D01*
X48893666Y57762532D01*
X48893662Y57762534D01*
X48791870Y57810000D01*
X48693450Y57855894D01*
X48693447Y57855895D01*
X48693445Y57855896D01*
X48480070Y57913070D01*
X48480062Y57913071D01*
X48260002Y57932323D01*
X48259998Y57932323D01*
X48039937Y57913071D01*
X48039929Y57913070D01*
X47826554Y57855896D01*
X47826548Y57855893D01*
X47626340Y57762535D01*
X47626338Y57762534D01*
X47445377Y57635825D01*
X47442181Y57632628D01*
X47380858Y57599143D01*
X47311166Y57604127D01*
X47255233Y57645999D01*
X47230816Y57711463D01*
X47230500Y57720309D01*
X47230500Y60689692D01*
X47250185Y60756731D01*
X47302989Y60802486D01*
X47372147Y60812430D01*
X47435703Y60783405D01*
X47442181Y60777373D01*
X47445378Y60774176D01*
X47445384Y60774171D01*
X47626333Y60647469D01*
X47626335Y60647468D01*
X47626338Y60647466D01*
X47826550Y60554106D01*
X48039932Y60496930D01*
X48197123Y60483178D01*
X48259998Y60477677D01*
X48260000Y60477677D01*
X48260002Y60477677D01*
X48315017Y60482491D01*
X48480068Y60496930D01*
X48693450Y60554106D01*
X48893662Y60647466D01*
X49074620Y60774174D01*
X49230826Y60930380D01*
X49357534Y61111338D01*
X49450894Y61311550D01*
X49508070Y61524932D01*
X49524435Y61711994D01*
X49527323Y61744998D01*
X49527323Y61745003D01*
X49512333Y61916337D01*
X49508070Y61965068D01*
X49450894Y62178450D01*
X49357534Y62378661D01*
X49294180Y62469141D01*
X49230827Y62559619D01*
X49175032Y62615414D01*
X49074620Y62715826D01*
X49074616Y62715829D01*
X49074615Y62715830D01*
X48893666Y62842532D01*
X48893658Y62842536D01*
X48764811Y62902618D01*
X48712371Y62948790D01*
X48693219Y63015983D01*
X48713435Y63082865D01*
X48764811Y63127382D01*
X48798681Y63143176D01*
X48893662Y63187466D01*
X49074620Y63314174D01*
X49230826Y63470380D01*
X49357534Y63651338D01*
X49450894Y63851550D01*
X49508070Y64064932D01*
X49527323Y64285000D01*
X49508070Y64505068D01*
X49450894Y64718450D01*
X49357534Y64918661D01*
X49275383Y65035985D01*
X49230827Y65099619D01*
X49164242Y65166204D01*
X49074620Y65255826D01*
X49074616Y65255829D01*
X49074615Y65255830D01*
X48893666Y65382532D01*
X48893658Y65382536D01*
X48764811Y65442618D01*
X48712371Y65488790D01*
X48693219Y65555983D01*
X48713435Y65622865D01*
X48764811Y65667382D01*
X48770802Y65670176D01*
X48893662Y65727466D01*
X49074620Y65854174D01*
X49230826Y66010380D01*
X49357534Y66191338D01*
X49450894Y66391550D01*
X49508070Y66604932D01*
X49527323Y66825000D01*
X49524931Y66852336D01*
X49517556Y66936641D01*
X49508070Y67045068D01*
X49450894Y67258450D01*
X49357534Y67458661D01*
X49230826Y67639620D01*
X49074620Y67795826D01*
X49074616Y67795829D01*
X49074615Y67795830D01*
X48893666Y67922532D01*
X48893662Y67922534D01*
X48893660Y67922535D01*
X48693450Y68015894D01*
X48693447Y68015895D01*
X48693445Y68015896D01*
X48480070Y68073070D01*
X48480062Y68073071D01*
X48260002Y68092323D01*
X48259998Y68092323D01*
X48039937Y68073071D01*
X48039929Y68073070D01*
X47826554Y68015896D01*
X47826548Y68015893D01*
X47626340Y67922535D01*
X47626338Y67922534D01*
X47445381Y67795828D01*
X47415877Y67766324D01*
X47386371Y67736818D01*
X47325051Y67703334D01*
X47298692Y67700500D01*
X46393099Y67700500D01*
X46388064Y67700705D01*
X46331154Y67705340D01*
X46331148Y67705339D01*
X46248559Y67694087D01*
X46165680Y67685073D01*
X46165490Y67685008D01*
X46142665Y67679659D01*
X46142466Y67679632D01*
X46064205Y67650881D01*
X45985220Y67624268D01*
X45985217Y67624266D01*
X45985040Y67624159D01*
X45963911Y67614035D01*
X45963713Y67613963D01*
X45893463Y67569060D01*
X45822043Y67526088D01*
X45822041Y67526086D01*
X45821890Y67525942D01*
X45803436Y67511515D01*
X45803260Y67511403D01*
X45803255Y67511399D01*
X45744302Y67452448D01*
X45683796Y67395133D01*
X45683792Y67395129D01*
X45683681Y67394964D01*
X45668737Y67376883D01*
X44492873Y66201018D01*
X44489170Y66197604D01*
X44445641Y66160630D01*
X44395191Y66094263D01*
X44342970Y66029299D01*
X44342968Y66029296D01*
X44342879Y66029115D01*
X44330529Y66009204D01*
X44330400Y66009036D01*
X44330397Y66009030D01*
X44309605Y65964087D01*
X44295389Y65933360D01*
X44285382Y65913181D01*
X44258359Y65858695D01*
X44258354Y65858681D01*
X44258309Y65858497D01*
X44250527Y65836391D01*
X44250441Y65836206D01*
X44250438Y65836197D01*
X44232514Y65754771D01*
X44212399Y65673887D01*
X44212394Y65673690D01*
X44209545Y65650425D01*
X44209500Y65650222D01*
X44209500Y65566840D01*
X44207243Y65483527D01*
X44207278Y65483345D01*
X44209500Y65459977D01*
X44209500Y51600900D01*
X44189815Y51533861D01*
X44137011Y51488106D01*
X44067853Y51478162D01*
X44004297Y51507187D01*
X43999809Y51511273D01*
X43962827Y51546631D01*
X43774966Y51670637D01*
X43567995Y51759101D01*
X43567982Y51759105D01*
X43348542Y51809190D01*
X43348538Y51809191D01*
X43348537Y51809191D01*
X43348536Y51809192D01*
X43348531Y51809192D01*
X43123674Y51819290D01*
X43123673Y51819290D01*
X43123670Y51819290D01*
X42900613Y51789075D01*
X42900610Y51789075D01*
X42900609Y51789074D01*
X42686534Y51719517D01*
X42488321Y51612854D01*
X42488318Y51612852D01*
X42312336Y51472511D01*
X42241186Y51391073D01*
X42164235Y51302996D01*
X42129550Y51244942D01*
X42048787Y51109768D01*
X42048782Y51109759D01*
X42026691Y51050898D01*
X41984705Y50995050D01*
X41919191Y50970768D01*
X41850949Y50985760D01*
X41801645Y51035267D01*
X41798899Y51040627D01*
X41717829Y51208973D01*
X41617310Y51347326D01*
X41585526Y51391073D01*
X41585525Y51391075D01*
X41422823Y51546634D01*
X41234966Y51670637D01*
X41027995Y51759101D01*
X41027982Y51759105D01*
X40808542Y51809190D01*
X40808538Y51809191D01*
X40808537Y51809191D01*
X40808536Y51809192D01*
X40808531Y51809192D01*
X40583674Y51819290D01*
X40583673Y51819290D01*
X40583670Y51819290D01*
X40360613Y51789075D01*
X40360610Y51789075D01*
X40360609Y51789074D01*
X40146534Y51719517D01*
X39948321Y51612854D01*
X39948318Y51612852D01*
X39772336Y51472511D01*
X39701186Y51391073D01*
X39624235Y51302996D01*
X39589550Y51244942D01*
X39508787Y51109768D01*
X39508782Y51109759D01*
X39486691Y51050898D01*
X39444705Y50995050D01*
X39379191Y50970768D01*
X39310949Y50985760D01*
X39261645Y51035267D01*
X39258899Y51040627D01*
X39177829Y51208973D01*
X39077310Y51347326D01*
X39045526Y51391073D01*
X39045525Y51391075D01*
X38882823Y51546634D01*
X38694966Y51670637D01*
X38487995Y51759101D01*
X38487982Y51759105D01*
X38268542Y51809190D01*
X38268538Y51809191D01*
X38268537Y51809191D01*
X38268536Y51809192D01*
X38268531Y51809192D01*
X38043674Y51819290D01*
X38043673Y51819290D01*
X38043670Y51819290D01*
X37820613Y51789075D01*
X37820610Y51789075D01*
X37820609Y51789074D01*
X37606534Y51719517D01*
X37408321Y51612854D01*
X37408318Y51612852D01*
X37232336Y51472511D01*
X37161186Y51391073D01*
X37084235Y51302996D01*
X37049550Y51244942D01*
X36968787Y51109768D01*
X36968782Y51109759D01*
X36946691Y51050898D01*
X36904705Y50995050D01*
X36839191Y50970768D01*
X36770949Y50985760D01*
X36721645Y51035267D01*
X36718899Y51040627D01*
X36637829Y51208973D01*
X36537310Y51347326D01*
X36505526Y51391073D01*
X36505525Y51391075D01*
X36505522Y51391078D01*
X36473807Y51421401D01*
X36438956Y51481956D01*
X36435500Y51511026D01*
X36435500Y53744952D01*
X36455185Y53811991D01*
X36471814Y53832629D01*
X36560047Y53920861D01*
X36690568Y54107266D01*
X36786739Y54313504D01*
X36845635Y54533308D01*
X36865468Y54760000D01*
X36845635Y54986692D01*
X36786739Y55206496D01*
X36690568Y55412734D01*
X36585961Y55562130D01*
X36560045Y55599142D01*
X36399141Y55760046D01*
X36212734Y55890568D01*
X36212732Y55890569D01*
X36006497Y55986739D01*
X36006488Y55986742D01*
X35786697Y56045634D01*
X35786693Y56045635D01*
X35786692Y56045635D01*
X35786691Y56045636D01*
X35786686Y56045636D01*
X35560002Y56065468D01*
X35559998Y56065468D01*
X35333313Y56045636D01*
X35333302Y56045634D01*
X35113511Y55986742D01*
X35113502Y55986739D01*
X34907267Y55890569D01*
X34907265Y55890568D01*
X34720858Y55760046D01*
X34559954Y55599142D01*
X34429432Y55412735D01*
X34429431Y55412733D01*
X34333261Y55206498D01*
X34333258Y55206489D01*
X34274366Y54986698D01*
X34274364Y54986687D01*
X34254532Y54760002D01*
X34254532Y54759999D01*
X34274364Y54533314D01*
X34274366Y54533303D01*
X34333258Y54313512D01*
X34333261Y54313503D01*
X34429431Y54107268D01*
X34429432Y54107266D01*
X34559951Y53920863D01*
X34559952Y53920862D01*
X34559953Y53920861D01*
X34648182Y53832632D01*
X34681666Y53771311D01*
X34684500Y53744952D01*
X34684500Y51510080D01*
X34664815Y51443041D01*
X34653885Y51428501D01*
X34588355Y51353495D01*
X34544233Y51302994D01*
X34428787Y51109768D01*
X34428782Y51109759D01*
X34406691Y51050898D01*
X34364705Y50995050D01*
X34299191Y50970768D01*
X34230949Y50985760D01*
X34181645Y51035267D01*
X34178899Y51040627D01*
X34097829Y51208973D01*
X33997310Y51347326D01*
X33965526Y51391073D01*
X33965525Y51391075D01*
X33802823Y51546634D01*
X33614966Y51670637D01*
X33407995Y51759101D01*
X33407982Y51759105D01*
X33188542Y51809190D01*
X33188538Y51809191D01*
X33188537Y51809191D01*
X33188536Y51809192D01*
X33188531Y51809192D01*
X32963674Y51819290D01*
X32963673Y51819290D01*
X32963670Y51819290D01*
X32740613Y51789075D01*
X32740610Y51789075D01*
X32740609Y51789074D01*
X32526534Y51719517D01*
X32328321Y51612854D01*
X32328318Y51612852D01*
X32152336Y51472511D01*
X32081186Y51391073D01*
X32004235Y51302996D01*
X31969550Y51244942D01*
X31888787Y51109768D01*
X31888782Y51109759D01*
X31866691Y51050898D01*
X31824705Y50995050D01*
X31759191Y50970768D01*
X31690949Y50985760D01*
X31641645Y51035267D01*
X31638899Y51040627D01*
X31557829Y51208973D01*
X31457310Y51347326D01*
X31425526Y51391073D01*
X31425525Y51391075D01*
X31425522Y51391078D01*
X31393807Y51421401D01*
X31358956Y51481956D01*
X31355500Y51511026D01*
X31355500Y56626902D01*
X31355705Y56631937D01*
X31357816Y56657865D01*
X31360339Y56688848D01*
X31349085Y56771442D01*
X31340073Y56854316D01*
X31340014Y56854491D01*
X31334656Y56877351D01*
X31334631Y56877537D01*
X31305880Y56955794D01*
X31279267Y57034780D01*
X31279266Y57034782D01*
X31279172Y57034939D01*
X31269025Y57056113D01*
X31268961Y57056288D01*
X31224059Y57126537D01*
X31200192Y57166204D01*
X31181090Y57197953D01*
X31180957Y57198093D01*
X31166504Y57216581D01*
X31166400Y57216744D01*
X31107447Y57275697D01*
X31050129Y57336207D01*
X31049970Y57336315D01*
X31031877Y57351267D01*
X28089819Y60293325D01*
X28056334Y60354648D01*
X28053500Y60381006D01*
X28053500Y63103890D01*
X28053705Y63108925D01*
X28055931Y63136264D01*
X28058340Y63165848D01*
X28047083Y63248463D01*
X28038073Y63331316D01*
X28038014Y63331491D01*
X28032656Y63354351D01*
X28032631Y63354537D01*
X28003880Y63432794D01*
X27977267Y63511780D01*
X27977266Y63511782D01*
X27977172Y63511939D01*
X27967025Y63533113D01*
X27966961Y63533288D01*
X27922059Y63603537D01*
X27911743Y63620682D01*
X27879090Y63674953D01*
X27878957Y63675093D01*
X27864504Y63693581D01*
X27864400Y63693744D01*
X27805447Y63752697D01*
X27748129Y63813207D01*
X27747970Y63813315D01*
X27729877Y63828267D01*
X26302314Y65255830D01*
X24855999Y66702145D01*
X24852608Y66705824D01*
X24815631Y66749357D01*
X24749262Y66799809D01*
X24684297Y66852030D01*
X24684294Y66852032D01*
X24684120Y66852118D01*
X24664182Y66864486D01*
X24664029Y66864603D01*
X24664027Y66864604D01*
X24588359Y66899611D01*
X24513693Y66936641D01*
X24513689Y66936642D01*
X24513680Y66936645D01*
X24513488Y66936693D01*
X24491385Y66944475D01*
X24491198Y66944562D01*
X24491194Y66944563D01*
X24409771Y66962486D01*
X24328885Y66982601D01*
X24328689Y66982606D01*
X24305413Y66985457D01*
X24305222Y66985499D01*
X24305219Y66985500D01*
X24305216Y66985500D01*
X24305212Y66985500D01*
X24221840Y66985500D01*
X24138527Y66987757D01*
X24138526Y66987757D01*
X24138345Y66987722D01*
X24114977Y66985500D01*
X22198835Y66985500D01*
X22131796Y67005185D01*
X22124506Y67010247D01*
X22123837Y67010748D01*
X22081976Y67066689D01*
X22077005Y67136381D01*
X22110501Y67197698D01*
X22123854Y67209266D01*
X22181546Y67252454D01*
X22267796Y67367669D01*
X22318091Y67502517D01*
X22324500Y67562127D01*
X22324499Y68657872D01*
X22318091Y68717483D01*
X22306202Y68749358D01*
X22267797Y68852329D01*
X22267793Y68852336D01*
X22181547Y68967545D01*
X22181544Y68967548D01*
X22066335Y69053794D01*
X22066328Y69053798D01*
X21931482Y69104092D01*
X21931483Y69104092D01*
X21871883Y69110499D01*
X21871881Y69110500D01*
X21871873Y69110500D01*
X21871864Y69110500D01*
X19276129Y69110500D01*
X19276123Y69110499D01*
X19216516Y69104092D01*
X19081671Y69053798D01*
X19081664Y69053794D01*
X18966455Y68967548D01*
X18966452Y68967545D01*
X18880206Y68852336D01*
X18880202Y68852329D01*
X18829908Y68717483D01*
X18823501Y68657884D01*
X18823501Y68657877D01*
X18823500Y68657865D01*
X18823500Y67562130D01*
X18823501Y67562124D01*
X18829908Y67502517D01*
X18880202Y67367672D01*
X18880206Y67367665D01*
X18966452Y67252456D01*
X18966453Y67252456D01*
X18966454Y67252454D01*
X18990850Y67234191D01*
X19024145Y67209266D01*
X19066015Y67153332D01*
X19070999Y67083640D01*
X19037513Y67022317D01*
X19024145Y67010734D01*
X18966452Y66967545D01*
X18880206Y66852336D01*
X18880202Y66852329D01*
X18829908Y66717483D01*
X18823501Y66657884D01*
X18823500Y66657865D01*
X18823500Y65562130D01*
X18823501Y65562124D01*
X18829908Y65502517D01*
X18880202Y65367672D01*
X18880206Y65367665D01*
X18966452Y65252456D01*
X18966453Y65252456D01*
X18966454Y65252454D01*
X18990850Y65234191D01*
X19024145Y65209266D01*
X19066015Y65153332D01*
X19070999Y65083640D01*
X19037513Y65022317D01*
X19024145Y65010734D01*
X18966452Y64967545D01*
X18880206Y64852336D01*
X18880202Y64852329D01*
X18829908Y64717483D01*
X18823501Y64657884D01*
X18823500Y64657865D01*
X18823500Y63562130D01*
X18823501Y63562124D01*
X18829908Y63502517D01*
X18880202Y63367672D01*
X18880206Y63367665D01*
X18966452Y63252456D01*
X18966453Y63252456D01*
X18966454Y63252454D01*
X18990850Y63234191D01*
X19024145Y63209266D01*
X19066015Y63153332D01*
X19070999Y63083640D01*
X19037513Y63022317D01*
X19024145Y63010734D01*
X18966452Y62967545D01*
X18880206Y62852336D01*
X18880202Y62852329D01*
X18829908Y62717483D01*
X18823501Y62657884D01*
X18823500Y62657865D01*
X18823500Y61562130D01*
X18823501Y61562124D01*
X18829908Y61502517D01*
X18880202Y61367672D01*
X18880206Y61367665D01*
X18966452Y61252456D01*
X18966453Y61252456D01*
X18966454Y61252454D01*
X18981397Y61241268D01*
X19024145Y61209266D01*
X19066015Y61153332D01*
X19070999Y61083640D01*
X19037513Y61022317D01*
X19024145Y61010734D01*
X18966452Y60967545D01*
X18880206Y60852336D01*
X18880202Y60852329D01*
X18829908Y60717483D01*
X18823501Y60657884D01*
X18823500Y60657865D01*
X18823500Y59562130D01*
X18823501Y59562124D01*
X18829908Y59502517D01*
X18880202Y59367672D01*
X18880206Y59367665D01*
X18966452Y59252456D01*
X18966453Y59252456D01*
X18966454Y59252454D01*
X18997988Y59228848D01*
X19024562Y59208954D01*
X19066432Y59153020D01*
X19071416Y59083328D01*
X19037930Y59022006D01*
X19024562Y59010422D01*
X18966809Y58967188D01*
X18880649Y58852094D01*
X18880645Y58852087D01*
X18830403Y58717380D01*
X18830401Y58717373D01*
X18824000Y58657845D01*
X18824000Y58360000D01*
X19899889Y58360000D01*
X19860390Y58335543D01*
X19792799Y58246038D01*
X19762105Y58138160D01*
X19772454Y58026479D01*
X19822448Y57926078D01*
X19894931Y57860000D01*
X18824000Y57860000D01*
X18824000Y57562156D01*
X18830401Y57502628D01*
X18830403Y57502621D01*
X18880645Y57367914D01*
X18880649Y57367907D01*
X18966809Y57252814D01*
X19024561Y57209580D01*
X19066432Y57153646D01*
X19071416Y57083954D01*
X19037931Y57022631D01*
X19024563Y57011048D01*
X18966454Y56967547D01*
X18966452Y56967545D01*
X18880206Y56852336D01*
X18880202Y56852329D01*
X18829908Y56717483D01*
X18823501Y56657884D01*
X18823500Y56657865D01*
X18823500Y55562130D01*
X18823501Y55562124D01*
X18829908Y55502517D01*
X18880202Y55367672D01*
X18880206Y55367665D01*
X18966452Y55252456D01*
X18966453Y55252456D01*
X18966454Y55252454D01*
X19001727Y55226049D01*
X19024562Y55208954D01*
X19066432Y55153020D01*
X19071416Y55083328D01*
X19037930Y55022006D01*
X19024562Y55010422D01*
X18966809Y54967188D01*
X18880649Y54852094D01*
X18880645Y54852087D01*
X18830403Y54717380D01*
X18830401Y54717373D01*
X18824000Y54657845D01*
X18824000Y54360000D01*
X19899889Y54360000D01*
X19860390Y54335543D01*
X19792799Y54246038D01*
X19762105Y54138160D01*
X19772454Y54026479D01*
X19822448Y53926078D01*
X19894931Y53860000D01*
X18824000Y53860000D01*
X18824000Y53854500D01*
X18804315Y53787461D01*
X18751511Y53741706D01*
X18700000Y53730500D01*
X18194006Y53730500D01*
X18126967Y53750185D01*
X18106325Y53766819D01*
X14881819Y56991325D01*
X14848334Y57052648D01*
X14845500Y57079006D01*
X14845500Y59166890D01*
X14845705Y59171925D01*
X14848745Y59209267D01*
X14850340Y59228848D01*
X14839083Y59311463D01*
X14830073Y59394316D01*
X14830014Y59394491D01*
X14824656Y59417351D01*
X14824631Y59417537D01*
X14795880Y59495794D01*
X14769267Y59574780D01*
X14769266Y59574782D01*
X14769172Y59574939D01*
X14759025Y59596113D01*
X14758961Y59596288D01*
X14714059Y59666537D01*
X14693199Y59701207D01*
X14671090Y59737953D01*
X14670957Y59738093D01*
X14656504Y59756581D01*
X14656400Y59756744D01*
X14597447Y59815697D01*
X14540129Y59876207D01*
X14539970Y59876315D01*
X14521877Y59891267D01*
X10128141Y64285003D01*
X5710999Y68702145D01*
X5707608Y68705824D01*
X5670631Y68749357D01*
X5604262Y68799809D01*
X5539297Y68852030D01*
X5539294Y68852032D01*
X5539120Y68852118D01*
X5519182Y68864486D01*
X5519029Y68864603D01*
X5519027Y68864604D01*
X5443359Y68899611D01*
X5368693Y68936641D01*
X5368689Y68936642D01*
X5368680Y68936645D01*
X5368488Y68936693D01*
X5346385Y68944475D01*
X5346198Y68944562D01*
X5346194Y68944563D01*
X5264771Y68962486D01*
X5183885Y68982601D01*
X5183689Y68982606D01*
X5160413Y68985457D01*
X5160222Y68985499D01*
X5160219Y68985500D01*
X5160216Y68985500D01*
X5160212Y68985500D01*
X5076840Y68985500D01*
X4993527Y68987757D01*
X4993526Y68987757D01*
X4993345Y68987722D01*
X4969977Y68985500D01*
X3910835Y68985500D01*
X3843796Y69005185D01*
X3836524Y69010233D01*
X3778331Y69053796D01*
X3778328Y69053798D01*
X3643482Y69104092D01*
X3643483Y69104092D01*
X3583883Y69110499D01*
X3583881Y69110500D01*
X3583873Y69110500D01*
X3583864Y69110500D01*
X988129Y69110500D01*
X988123Y69110499D01*
X928516Y69104092D01*
X793671Y69053798D01*
X793669Y69053797D01*
X735476Y69010233D01*
X702438Y68985500D01*
X698811Y68982785D01*
X633347Y68958368D01*
X565074Y68973219D01*
X515668Y69022624D01*
X500500Y69082052D01*
X500500Y70000000D01*
X29845000Y70000000D01*
X30099000Y70000000D01*
X30099000Y60094000D01*
G37*
%TD.AperFunction*%
%TA.AperFunction,Conductor*%
G36*
X4718033Y67214815D02*
G01*
X4738675Y67198181D01*
X13058181Y58878675D01*
X13091666Y58817352D01*
X13094500Y58790994D01*
X13094500Y56703103D01*
X13094295Y56698069D01*
X13089660Y56641157D01*
X13100914Y56558559D01*
X13109927Y56475684D01*
X13109929Y56475673D01*
X13109990Y56475494D01*
X13115340Y56452669D01*
X13115366Y56452475D01*
X13115368Y56452465D01*
X13115369Y56452463D01*
X13129744Y56413335D01*
X13144119Y56374206D01*
X13170730Y56295226D01*
X13170734Y56295218D01*
X13170832Y56295055D01*
X13180969Y56273901D01*
X13181036Y56273717D01*
X13181038Y56273714D01*
X13181039Y56273712D01*
X13225940Y56203464D01*
X13268911Y56132046D01*
X13269042Y56131908D01*
X13283495Y56113421D01*
X13283602Y56113253D01*
X13342552Y56054304D01*
X13396897Y55996932D01*
X13399871Y55993793D01*
X13400028Y55993686D01*
X13418121Y55978735D01*
X17133992Y52262864D01*
X17137396Y52259171D01*
X17174362Y52215650D01*
X17174363Y52215649D01*
X17174365Y52215648D01*
X17174369Y52215643D01*
X17240737Y52165192D01*
X17305699Y52112973D01*
X17305701Y52112971D01*
X17305872Y52112886D01*
X17325814Y52100517D01*
X17325971Y52100398D01*
X17401640Y52065390D01*
X17476307Y52028359D01*
X17476481Y52028316D01*
X17498626Y52020520D01*
X17498803Y52020438D01*
X17498806Y52020438D01*
X17504910Y52017613D01*
X17503811Y52015240D01*
X17551380Y51981972D01*
X17577898Y51917330D01*
X17565258Y51848613D01*
X17517474Y51797639D01*
X17492883Y51786564D01*
X17286533Y51719516D01*
X17088321Y51612854D01*
X17088318Y51612852D01*
X16912336Y51472511D01*
X16841186Y51391073D01*
X16764235Y51302996D01*
X16729550Y51244942D01*
X16648787Y51109768D01*
X16648782Y51109759D01*
X16626691Y51050898D01*
X16584705Y50995050D01*
X16519191Y50970768D01*
X16450949Y50985760D01*
X16401645Y51035267D01*
X16398899Y51040627D01*
X16317829Y51208973D01*
X16217310Y51347326D01*
X16185526Y51391073D01*
X16185525Y51391075D01*
X16022823Y51546634D01*
X15834966Y51670637D01*
X15627995Y51759101D01*
X15627982Y51759105D01*
X15408542Y51809190D01*
X15408538Y51809191D01*
X15408537Y51809191D01*
X15408536Y51809192D01*
X15408531Y51809192D01*
X15183674Y51819290D01*
X15183673Y51819290D01*
X15183670Y51819290D01*
X14960613Y51789075D01*
X14960610Y51789075D01*
X14960609Y51789074D01*
X14746534Y51719517D01*
X14548321Y51612854D01*
X14548318Y51612852D01*
X14372336Y51472511D01*
X14301186Y51391073D01*
X14224235Y51302996D01*
X14189550Y51244942D01*
X14108787Y51109768D01*
X14108786Y51109766D01*
X14029692Y50899024D01*
X13989500Y50677550D01*
X13989500Y50008849D01*
X14004622Y49840814D01*
X14004623Y49840808D01*
X14064503Y49623840D01*
X14064508Y49623827D01*
X14162167Y49421034D01*
X14162171Y49421026D01*
X14294473Y49238928D01*
X14294474Y49238926D01*
X14294477Y49238923D01*
X14294478Y49238922D01*
X14419933Y49118975D01*
X14457176Y49083367D01*
X14645033Y48959364D01*
X14852004Y48870900D01*
X14852007Y48870899D01*
X14852012Y48870897D01*
X15071463Y48820809D01*
X15296330Y48810710D01*
X15519387Y48840925D01*
X15733464Y48910483D01*
X15931681Y49017148D01*
X16107666Y49157492D01*
X16255765Y49327004D01*
X16371215Y49520236D01*
X16393307Y49579103D01*
X16435292Y49634949D01*
X16500806Y49659233D01*
X16569048Y49644242D01*
X16618353Y49594736D01*
X16621120Y49589332D01*
X16702167Y49421034D01*
X16702171Y49421026D01*
X16834473Y49238928D01*
X16834474Y49238926D01*
X16834477Y49238923D01*
X16834478Y49238922D01*
X16959933Y49118975D01*
X16997176Y49083367D01*
X17185033Y48959364D01*
X17392004Y48870900D01*
X17392007Y48870899D01*
X17392012Y48870897D01*
X17611463Y48820809D01*
X17836330Y48810710D01*
X18059387Y48840925D01*
X18273464Y48910483D01*
X18471681Y49017148D01*
X18647666Y49157492D01*
X18795765Y49327004D01*
X18911215Y49520236D01*
X18933307Y49579103D01*
X18975292Y49634949D01*
X19040806Y49659233D01*
X19109048Y49644242D01*
X19158353Y49594736D01*
X19161120Y49589332D01*
X19242167Y49421034D01*
X19242171Y49421026D01*
X19374473Y49238928D01*
X19374474Y49238926D01*
X19374477Y49238923D01*
X19374478Y49238922D01*
X19499933Y49118975D01*
X19537176Y49083367D01*
X19725033Y48959364D01*
X19932004Y48870900D01*
X19932007Y48870899D01*
X19932012Y48870897D01*
X20151463Y48820809D01*
X20376330Y48810710D01*
X20599387Y48840925D01*
X20813464Y48910483D01*
X21011681Y49017148D01*
X21187666Y49157492D01*
X21335765Y49327004D01*
X21451215Y49520236D01*
X21473307Y49579103D01*
X21515292Y49634949D01*
X21580806Y49659233D01*
X21649048Y49644242D01*
X21698353Y49594736D01*
X21701120Y49589332D01*
X21782167Y49421034D01*
X21782171Y49421026D01*
X21914473Y49238928D01*
X21914474Y49238926D01*
X21914477Y49238923D01*
X21914478Y49238922D01*
X22039933Y49118975D01*
X22077176Y49083367D01*
X22265033Y48959364D01*
X22472004Y48870900D01*
X22472007Y48870899D01*
X22472012Y48870897D01*
X22691463Y48820809D01*
X22916330Y48810710D01*
X23139387Y48840925D01*
X23353464Y48910483D01*
X23551681Y49017148D01*
X23727666Y49157492D01*
X23875765Y49327004D01*
X23991215Y49520236D01*
X24013307Y49579103D01*
X24055292Y49634949D01*
X24120806Y49659233D01*
X24189048Y49644242D01*
X24238353Y49594736D01*
X24241120Y49589332D01*
X24322167Y49421034D01*
X24322171Y49421026D01*
X24454473Y49238928D01*
X24454474Y49238926D01*
X24454477Y49238923D01*
X24454478Y49238922D01*
X24579933Y49118975D01*
X24617176Y49083367D01*
X24805033Y48959364D01*
X25012004Y48870900D01*
X25012007Y48870899D01*
X25012012Y48870897D01*
X25231463Y48820809D01*
X25456330Y48810710D01*
X25679387Y48840925D01*
X25893464Y48910483D01*
X26091681Y49017148D01*
X26267666Y49157492D01*
X26415765Y49327004D01*
X26531215Y49520236D01*
X26553307Y49579103D01*
X26595292Y49634949D01*
X26660806Y49659233D01*
X26729048Y49644242D01*
X26778353Y49594736D01*
X26781120Y49589332D01*
X26862167Y49421034D01*
X26862171Y49421026D01*
X26994473Y49238928D01*
X26994474Y49238926D01*
X26994477Y49238923D01*
X26994478Y49238922D01*
X27119933Y49118975D01*
X27157176Y49083367D01*
X27345033Y48959364D01*
X27552004Y48870900D01*
X27552007Y48870899D01*
X27552012Y48870897D01*
X27771463Y48820809D01*
X27996330Y48810710D01*
X28219387Y48840925D01*
X28433464Y48910483D01*
X28631681Y49017148D01*
X28807666Y49157492D01*
X28955765Y49327004D01*
X29071215Y49520236D01*
X29093307Y49579103D01*
X29135292Y49634949D01*
X29200806Y49659233D01*
X29269048Y49644242D01*
X29318353Y49594736D01*
X29321120Y49589332D01*
X29402167Y49421034D01*
X29402171Y49421026D01*
X29534473Y49238928D01*
X29534474Y49238926D01*
X29534477Y49238923D01*
X29534478Y49238922D01*
X29659933Y49118975D01*
X29697176Y49083367D01*
X29885033Y48959364D01*
X30092004Y48870900D01*
X30092007Y48870899D01*
X30092012Y48870897D01*
X30311463Y48820809D01*
X30536330Y48810710D01*
X30759387Y48840925D01*
X30973464Y48910483D01*
X31171681Y49017148D01*
X31347666Y49157492D01*
X31495765Y49327004D01*
X31611215Y49520236D01*
X31633307Y49579103D01*
X31675292Y49634949D01*
X31740806Y49659233D01*
X31809048Y49644242D01*
X31858353Y49594736D01*
X31861120Y49589332D01*
X31942167Y49421034D01*
X31942171Y49421026D01*
X32074475Y49238924D01*
X32106190Y49208603D01*
X32141044Y49148047D01*
X32144500Y49118975D01*
X32144500Y48824006D01*
X32124815Y48756967D01*
X32108181Y48736325D01*
X29518675Y46146819D01*
X29457352Y46113334D01*
X29430994Y46110500D01*
X9939006Y46110500D01*
X9871967Y46130185D01*
X9851325Y46146819D01*
X5991819Y50006325D01*
X5958334Y50067648D01*
X5955500Y50094006D01*
X5955500Y64808388D01*
X5955705Y64813423D01*
X5957615Y64836883D01*
X5960340Y64870346D01*
X5949083Y64952961D01*
X5940073Y65035814D01*
X5940014Y65035989D01*
X5934656Y65058849D01*
X5934631Y65059035D01*
X5905880Y65137292D01*
X5879267Y65216278D01*
X5879266Y65216280D01*
X5879172Y65216437D01*
X5869025Y65237611D01*
X5868961Y65237786D01*
X5824059Y65308035D01*
X5781089Y65379452D01*
X5780955Y65379594D01*
X5766504Y65398079D01*
X5766400Y65398242D01*
X5707447Y65457195D01*
X5650129Y65517705D01*
X5649970Y65517813D01*
X5631877Y65532765D01*
X5049018Y66115624D01*
X4462497Y66702145D01*
X4459106Y66705824D01*
X4422129Y66749357D01*
X4355760Y66799809D01*
X4290795Y66852030D01*
X4290792Y66852032D01*
X4290618Y66852118D01*
X4270680Y66864486D01*
X4270527Y66864603D01*
X4270525Y66864604D01*
X4194857Y66899611D01*
X4120191Y66936641D01*
X4120187Y66936642D01*
X4120178Y66936645D01*
X4119986Y66936693D01*
X4097883Y66944475D01*
X4097696Y66944562D01*
X4097692Y66944563D01*
X4016269Y66962486D01*
X3935383Y66982601D01*
X3935187Y66982606D01*
X3911911Y66985457D01*
X3911720Y66985499D01*
X3911717Y66985500D01*
X3911714Y66985500D01*
X3911710Y66985500D01*
X3910835Y66985500D01*
X3910320Y66985652D01*
X3905033Y66986226D01*
X3905136Y66987174D01*
X3843796Y67005185D01*
X3836601Y67010175D01*
X3836505Y67010247D01*
X3835930Y67010678D01*
X3794018Y67066577D01*
X3788979Y67136264D01*
X3822417Y67197613D01*
X3835922Y67209318D01*
X3836601Y67209826D01*
X3902085Y67234191D01*
X3910835Y67234500D01*
X4650994Y67234500D01*
X4718033Y67214815D01*
G37*
%TD.AperFunction*%
%TA.AperFunction,Conductor*%
G36*
X20767039Y54340315D02*
G01*
X20812794Y54287511D01*
X20824000Y54236000D01*
X20824000Y53110000D01*
X21860500Y53110000D01*
X21927539Y53090315D01*
X21973294Y53037511D01*
X21984500Y52986000D01*
X21984500Y51510080D01*
X21964815Y51443041D01*
X21953885Y51428501D01*
X21888355Y51353495D01*
X21844233Y51302994D01*
X21728787Y51109768D01*
X21728782Y51109759D01*
X21706691Y51050898D01*
X21664705Y50995050D01*
X21599191Y50970768D01*
X21530949Y50985760D01*
X21481645Y51035267D01*
X21478899Y51040627D01*
X21397829Y51208973D01*
X21297310Y51347326D01*
X21265526Y51391073D01*
X21265525Y51391075D01*
X21265522Y51391078D01*
X21233807Y51421401D01*
X21198956Y51481956D01*
X21195500Y51511026D01*
X21195500Y51546902D01*
X21195705Y51551937D01*
X21197205Y51570370D01*
X21200339Y51608848D01*
X21189085Y51691442D01*
X21180073Y51774316D01*
X21180014Y51774491D01*
X21174656Y51797351D01*
X21174631Y51797537D01*
X21145880Y51875794D01*
X21119267Y51954780D01*
X21119265Y51954783D01*
X21119172Y51954939D01*
X21109025Y51976113D01*
X21109022Y51976121D01*
X21108961Y51976288D01*
X21064059Y52046537D01*
X21031581Y52100516D01*
X21021090Y52117953D01*
X21020957Y52118093D01*
X21006504Y52136581D01*
X21006400Y52136744D01*
X20947447Y52195697D01*
X20890129Y52256207D01*
X20889970Y52256315D01*
X20871877Y52271267D01*
X20244825Y52898319D01*
X20211340Y52959642D01*
X20216324Y53029334D01*
X20258196Y53085267D01*
X20323660Y53109684D01*
X20323684Y53109685D01*
X20324000Y53110000D01*
X20324000Y53860000D01*
X20232111Y53860000D01*
X20271610Y53884457D01*
X20339201Y53973962D01*
X20369895Y54081840D01*
X20359546Y54193521D01*
X20309552Y54293922D01*
X20237069Y54360000D01*
X20700000Y54360000D01*
X20767039Y54340315D01*
G37*
%TD.AperFunction*%
%TA.AperFunction,Conductor*%
G36*
X20767039Y58340315D02*
G01*
X20812794Y58287511D01*
X20824000Y58236000D01*
X20824000Y57984000D01*
X20804315Y57916961D01*
X20751511Y57871206D01*
X20700000Y57860000D01*
X20232111Y57860000D01*
X20271610Y57884457D01*
X20339201Y57973962D01*
X20369895Y58081840D01*
X20359546Y58193521D01*
X20309552Y58293922D01*
X20237069Y58360000D01*
X20700000Y58360000D01*
X20767039Y58340315D01*
G37*
%TD.AperFunction*%
%TD*%
M02*
