solid Default
  facet normal -1.771812e-12 1.000000e+00 -8.210434e-14
    outer loop
      vertex 6.750000e+00 1.000000e+00 1.700000e+01
      vertex 1.075000e+01 1.000000e+00 1.421085e-14
      vertex 6.750000e+00 1.000000e+00 1.421085e-14
    endloop
  endfacet
  facet normal -1.771812e-12 1.000000e+00 -8.210434e-14
    outer loop
      vertex 1.075000e+01 1.000000e+00 1.421085e-14
      vertex 6.750000e+00 1.000000e+00 1.700000e+01
      vertex 1.075000e+01 1.000000e+00 1.700000e+01
    endloop
  endfacet
  facet normal 1.000000e+00 1.358482e-12 2.107521e-15
    outer loop
      vertex 1.075000e+01 -9.414691e-14 1.700000e+01
      vertex 1.075000e+01 1.000000e+00 1.421085e-14
      vertex 1.075000e+01 1.000000e+00 1.700000e+01
    endloop
  endfacet
  facet normal 1.000000e+00 1.358482e-12 2.107521e-15
    outer loop
      vertex 1.075000e+01 1.000000e+00 1.421085e-14
      vertex 1.075000e+01 -9.414691e-14 1.700000e+01
      vertex 1.075000e+01 -9.414691e-14 8.900002e+00
    endloop
  endfacet
  facet normal 1.000000e+00 1.358482e-12 2.107521e-15
    outer loop
      vertex 1.075000e+01 -9.414691e-14 8.900002e+00
      vertex 1.075000e+01 -5.000000e+00 1.421085e-14
      vertex 1.075000e+01 1.000000e+00 1.421085e-14
    endloop
  endfacet
  facet normal 1.000000e+00 1.358482e-12 2.107521e-15
    outer loop
      vertex 1.075000e+01 -5.000000e+00 1.421085e-14
      vertex 1.075000e+01 -9.414691e-14 8.900002e+00
      vertex 1.075000e+01 -5.000000e+00 8.900002e+00
    endloop
  endfacet
  facet normal -2.297870e-14 -3.932065e-15 -1.000000e+00
    outer loop
      vertex -1.075000e+01 -5.000000e+00 1.550000e+01
      vertex -9.750000e+00 -9.503509e-14 1.550000e+01
      vertex -9.750000e+00 -5.000000e+00 1.550000e+01
    endloop
  endfacet
  facet normal -2.297870e-14 -3.932065e-15 -1.000000e+00
    outer loop
      vertex -9.750000e+00 -9.503509e-14 1.550000e+01
      vertex -1.075000e+01 -5.000000e+00 1.550000e+01
      vertex -1.075000e+01 -9.503509e-14 1.550000e+01
    endloop
  endfacet
  facet normal -2.902018e-12 1.000000e+00 6.881682e-16
    outer loop
      vertex -1.075000e+01 -4.000000e+00 8.900002e+00
      vertex 9.750000e+00 -4.000000e+00 1.000000e+00
      vertex -1.075000e+01 -4.000000e+00 1.000000e+00
    endloop
  endfacet
  facet normal -2.902018e-12 1.000000e+00 6.881682e-16
    outer loop
      vertex 9.750000e+00 -4.000000e+00 1.000000e+00
      vertex -1.075000e+01 -4.000000e+00 8.900002e+00
      vertex 9.750000e+00 -4.000000e+00 8.900002e+00
    endloop
  endfacet
  facet normal 2.881995e-12 -1.000000e+00 -3.215672e-15
    outer loop
      vertex 1.075000e+01 -9.414691e-14 1.700000e+01
      vertex 9.750000e+00 -9.414691e-14 8.900002e+00
      vertex 1.075000e+01 -9.414691e-14 8.900002e+00
    endloop
  endfacet
  facet normal 2.881995e-12 -1.000000e+00 -3.215672e-15
    outer loop
      vertex 9.750000e+00 -9.414691e-14 8.900002e+00
      vertex 1.075000e+01 -9.414691e-14 1.700000e+01
      vertex 7.750000e+00 -9.414691e-14 1.600000e+01
    endloop
  endfacet
  facet normal 2.881995e-12 -1.000000e+00 -3.215672e-15
    outer loop
      vertex 9.750000e+00 -9.414691e-14 8.900002e+00
      vertex 7.750000e+00 -9.414691e-14 1.600000e+01
      vertex -9.750000e+00 -9.503509e-14 1.550000e+01
    endloop
  endfacet
  facet normal 2.881995e-12 -1.000000e+00 -3.215672e-15
    outer loop
      vertex 7.750000e+00 -9.414691e-14 1.600000e+01
      vertex 1.075000e+01 -9.414691e-14 1.700000e+01
      vertex 7.750000e+00 -9.414691e-14 1.700000e+01
    endloop
  endfacet
  facet normal 2.881995e-12 -1.000000e+00 -3.215672e-15
    outer loop
      vertex -9.750000e+00 -9.503509e-14 1.600000e+01
      vertex -9.750000e+00 -9.503509e-14 1.550000e+01
      vertex 7.750000e+00 -9.414691e-14 1.600000e+01
    endloop
  endfacet
  facet normal 2.881995e-12 -1.000000e+00 -3.215672e-15
    outer loop
      vertex 9.750000e+00 -9.414691e-14 8.900002e+00
      vertex -1.075000e+01 -9.592327e-14 1.000000e+00
      vertex 9.750000e+00 -9.503509e-14 1.000000e+00
    endloop
  endfacet
  facet normal 2.881995e-12 -1.000000e+00 -3.215672e-15
    outer loop
      vertex -1.075000e+01 -9.592327e-14 1.000000e+00
      vertex 9.750000e+00 -9.414691e-14 8.900002e+00
      vertex -1.075000e+01 -9.503509e-14 1.550000e+01
    endloop
  endfacet
  facet normal 2.881995e-12 -1.000000e+00 -3.215672e-15
    outer loop
      vertex -1.075000e+01 -9.503509e-14 1.550000e+01
      vertex 9.750000e+00 -9.414691e-14 8.900002e+00
      vertex -9.750000e+00 -9.503509e-14 1.550000e+01
    endloop
  endfacet
  facet normal -2.739867e-15 3.358322e-14 1.000000e+00
    outer loop
      vertex 6.750000e+00 1.000000e+00 1.700000e+01
      vertex 1.075000e+01 -9.414691e-14 1.700000e+01
      vertex 1.075000e+01 1.000000e+00 1.700000e+01
    endloop
  endfacet
  facet normal -2.739867e-15 3.358322e-14 1.000000e+00
    outer loop
      vertex 1.075000e+01 -9.414691e-14 1.700000e+01
      vertex 6.750000e+00 1.000000e+00 1.700000e+01
      vertex 7.750000e+00 -9.414691e-14 1.700000e+01
    endloop
  endfacet
  facet normal -2.739867e-15 3.358322e-14 1.000000e+00
    outer loop
      vertex 7.750000e+00 -9.414691e-14 1.700000e+01
      vertex -1.075000e+01 -5.000000e+00 1.700000e+01
      vertex 7.750000e+00 -5.000000e+00 1.700000e+01
    endloop
  endfacet
  facet normal -2.739867e-15 3.358322e-14 1.000000e+00
    outer loop
      vertex -1.075000e+01 -5.000000e+00 1.700000e+01
      vertex 7.750000e+00 -9.414691e-14 1.700000e+01
      vertex 6.750000e+00 1.000000e+00 1.700000e+01
    endloop
  endfacet
  facet normal -2.739867e-15 3.358322e-14 1.000000e+00
    outer loop
      vertex -1.075000e+01 -5.000000e+00 1.700000e+01
      vertex 6.750000e+00 1.000000e+00 1.700000e+01
      vertex 6.750000e+00 5.000000e+00 1.700000e+01
    endloop
  endfacet
  facet normal -2.739867e-15 3.358322e-14 1.000000e+00
    outer loop
      vertex -1.075000e+01 -5.000000e+00 1.700000e+01
      vertex 6.750000e+00 5.000000e+00 1.700000e+01
      vertex 1.750000e+00 3.000000e+00 1.700000e+01
    endloop
  endfacet
  facet normal -2.739867e-15 3.358322e-14 1.000000e+00
    outer loop
      vertex 1.750000e+00 3.000000e+00 1.700000e+01
      vertex 6.750000e+00 5.000000e+00 1.700000e+01
      vertex 3.750000e+00 5.000000e+00 1.700000e+01
    endloop
  endfacet
  facet normal -2.739867e-15 3.358322e-14 1.000000e+00
    outer loop
      vertex -1.075000e+01 -5.000000e+00 1.700000e+01
      vertex 1.750000e+00 3.000000e+00 1.700000e+01
      vertex -1.075000e+01 3.000000e+00 1.700000e+01
    endloop
  endfacet
  facet normal 2.253995e-17 1.383891e-14 1.000000e+00
    outer loop
      vertex 9.750000e+00 -9.414691e-14 8.900002e+00
      vertex 1.075000e+01 -5.000000e+00 8.900002e+00
      vertex 1.075000e+01 -9.414691e-14 8.900002e+00
    endloop
  endfacet
  facet normal 2.253995e-17 1.383891e-14 1.000000e+00
    outer loop
      vertex 1.075000e+01 -5.000000e+00 8.900002e+00
      vertex 9.750000e+00 -9.414691e-14 8.900002e+00
      vertex 9.750000e+00 -4.000000e+00 8.900002e+00
    endloop
  endfacet
  facet normal 2.253995e-17 1.383891e-14 1.000000e+00
    outer loop
      vertex 9.750000e+00 -4.000000e+00 8.900002e+00
      vertex -1.075000e+01 -5.000000e+00 8.900002e+00
      vertex 1.075000e+01 -5.000000e+00 8.900002e+00
    endloop
  endfacet
  facet normal 2.253995e-17 1.383891e-14 1.000000e+00
    outer loop
      vertex -1.075000e+01 -5.000000e+00 8.900002e+00
      vertex 9.750000e+00 -4.000000e+00 8.900002e+00
      vertex -1.075000e+01 -4.000000e+00 8.900002e+00
    endloop
  endfacet
  facet normal -1.000000e+00 -2.816093e-12 5.251310e-14
    outer loop
      vertex 9.750000e+00 -4.000000e+00 1.000000e+00
      vertex 9.750000e+00 -9.414691e-14 8.900002e+00
      vertex 9.750000e+00 -9.503509e-14 1.000000e+00
    endloop
  endfacet
  facet normal -1.000000e+00 -2.816093e-12 5.251310e-14
    outer loop
      vertex 9.750000e+00 -9.414691e-14 8.900002e+00
      vertex 9.750000e+00 -4.000000e+00 1.000000e+00
      vertex 9.750000e+00 -4.000000e+00 8.900002e+00
    endloop
  endfacet
  facet normal 2.208434e-15 -3.465510e-14 -1.000000e+00
    outer loop
      vertex 1.075000e+01 -5.000000e+00 1.421085e-14
      vertex 6.750000e+00 1.000000e+00 1.421085e-14
      vertex 1.075000e+01 1.000000e+00 1.421085e-14
    endloop
  endfacet
  facet normal 2.208434e-15 -3.465510e-14 -1.000000e+00
    outer loop
      vertex 6.750000e+00 1.000000e+00 1.421085e-14
      vertex 1.075000e+01 -5.000000e+00 1.421085e-14
      vertex -1.075000e+01 -5.000000e+00 0.000000e+00
    endloop
  endfacet
  facet normal 2.208434e-15 -3.465510e-14 -1.000000e+00
    outer loop
      vertex 6.750000e+00 1.000000e+00 1.421085e-14
      vertex -1.075000e+01 -5.000000e+00 0.000000e+00
      vertex 6.750000e+00 5.000000e+00 1.421085e-14
    endloop
  endfacet
  facet normal 2.208434e-15 -3.465510e-14 -1.000000e+00
    outer loop
      vertex 6.750000e+00 5.000000e+00 1.421085e-14
      vertex -1.075000e+01 -5.000000e+00 0.000000e+00
      vertex 1.750000e+00 3.000000e+00 0.000000e+00
    endloop
  endfacet
  facet normal 2.208434e-15 -3.465510e-14 -1.000000e+00
    outer loop
      vertex 6.750000e+00 5.000000e+00 1.421085e-14
      vertex 1.750000e+00 3.000000e+00 0.000000e+00
      vertex 3.750000e+00 5.000000e+00 0.000000e+00
    endloop
  endfacet
  facet normal 2.208434e-15 -3.465510e-14 -1.000000e+00
    outer loop
      vertex 1.750000e+00 3.000000e+00 0.000000e+00
      vertex -1.075000e+01 -5.000000e+00 0.000000e+00
      vertex -1.075000e+01 3.000000e+00 0.000000e+00
    endloop
  endfacet
  facet normal 1.000000e+00 2.716758e-12 1.224647e-16
    outer loop
      vertex 7.750000e+00 -5.000000e+00 1.700000e+01
      vertex 7.750000e+00 -9.414691e-14 1.600000e+01
      vertex 7.750000e+00 -9.414691e-14 1.700000e+01
    endloop
  endfacet
  facet normal 1.000000e+00 2.716758e-12 1.224647e-16
    outer loop
      vertex 7.750000e+00 -9.414691e-14 1.600000e+01
      vertex 7.750000e+00 -5.000000e+00 1.700000e+01
      vertex 7.750000e+00 -5.000000e+00 1.600000e+01
    endloop
  endfacet
  facet normal -5.157801e-15 -1.779276e-14 -1.000000e+00
    outer loop
      vertex -9.750000e+00 -5.000000e+00 1.600000e+01
      vertex 7.750000e+00 -9.414691e-14 1.600000e+01
      vertex 7.750000e+00 -5.000000e+00 1.600000e+01
    endloop
  endfacet
  facet normal -5.157801e-15 -1.779276e-14 -1.000000e+00
    outer loop
      vertex 7.750000e+00 -9.414691e-14 1.600000e+01
      vertex -9.750000e+00 -5.000000e+00 1.600000e+01
      vertex -9.750000e+00 -9.503509e-14 1.600000e+01
    endloop
  endfacet
  facet normal 2.552579e-12 -1.000000e+00 -6.881682e-16
    outer loop
      vertex 1.075000e+01 -5.000000e+00 8.900002e+00
      vertex -1.075000e+01 -5.000000e+00 0.000000e+00
      vertex 1.075000e+01 -5.000000e+00 1.421085e-14
    endloop
  endfacet
  facet normal 2.552579e-12 -1.000000e+00 -6.881682e-16
    outer loop
      vertex -1.075000e+01 -5.000000e+00 0.000000e+00
      vertex 1.075000e+01 -5.000000e+00 8.900002e+00
      vertex -1.075000e+01 -5.000000e+00 8.900002e+00
    endloop
  endfacet
  facet normal -1.000000e+00 -2.892441e-12 6.341723e-15
    outer loop
      vertex -1.075000e+01 3.000000e+00 0.000000e+00
      vertex -1.075000e+01 -9.592327e-14 1.000000e+00
      vertex -1.075000e+01 3.000000e+00 1.700000e+01
    endloop
  endfacet
  facet normal -1.000000e+00 -2.892441e-12 6.341723e-15
    outer loop
      vertex -1.075000e+01 -9.592327e-14 1.000000e+00
      vertex -1.075000e+01 3.000000e+00 0.000000e+00
      vertex -1.075000e+01 -5.000000e+00 0.000000e+00
    endloop
  endfacet
  facet normal -1.000000e+00 -2.892441e-12 6.341723e-15
    outer loop
      vertex -1.075000e+01 -9.592327e-14 1.000000e+00
      vertex -1.075000e+01 -5.000000e+00 0.000000e+00
      vertex -1.075000e+01 -4.000000e+00 1.000000e+00
    endloop
  endfacet
  facet normal -1.000000e+00 -2.892441e-12 6.341723e-15
    outer loop
      vertex -1.075000e+01 -4.000000e+00 1.000000e+00
      vertex -1.075000e+01 -5.000000e+00 0.000000e+00
      vertex -1.075000e+01 -4.000000e+00 8.900002e+00
    endloop
  endfacet
  facet normal -1.000000e+00 -2.892441e-12 6.341723e-15
    outer loop
      vertex -1.075000e+01 -4.000000e+00 8.900002e+00
      vertex -1.075000e+01 -5.000000e+00 0.000000e+00
      vertex -1.075000e+01 -5.000000e+00 8.900002e+00
    endloop
  endfacet
  facet normal -1.000000e+00 -2.892441e-12 6.341723e-15
    outer loop
      vertex -1.075000e+01 3.000000e+00 1.700000e+01
      vertex -1.075000e+01 -9.503509e-14 1.550000e+01
      vertex -1.075000e+01 -5.000000e+00 1.700000e+01
    endloop
  endfacet
  facet normal -1.000000e+00 -2.892441e-12 6.341723e-15
    outer loop
      vertex -1.075000e+01 -9.503509e-14 1.550000e+01
      vertex -1.075000e+01 3.000000e+00 1.700000e+01
      vertex -1.075000e+01 -9.592327e-14 1.000000e+00
    endloop
  endfacet
  facet normal -1.000000e+00 -2.892441e-12 6.341723e-15
    outer loop
      vertex -1.075000e+01 -5.000000e+00 1.700000e+01
      vertex -1.075000e+01 -9.503509e-14 1.550000e+01
      vertex -1.075000e+01 -5.000000e+00 1.550000e+01
    endloop
  endfacet
  facet normal -1.224647e-16 -6.881682e-16 1.000000e+00
    outer loop
      vertex 9.750000e+00 -9.503509e-14 1.000000e+00
      vertex -1.075000e+01 -4.000000e+00 1.000000e+00
      vertex 9.750000e+00 -4.000000e+00 1.000000e+00
    endloop
  endfacet
  facet normal -1.224647e-16 -6.881682e-16 1.000000e+00
    outer loop
      vertex -1.075000e+01 -4.000000e+00 1.000000e+00
      vertex 9.750000e+00 -9.503509e-14 1.000000e+00
      vertex -1.075000e+01 -9.592327e-14 1.000000e+00
    endloop
  endfacet
  facet normal 2.779021e-12 -1.000000e+00 -1.959752e-15
    outer loop
      vertex 7.750000e+00 -5.000000e+00 1.700000e+01
      vertex -9.750000e+00 -5.000000e+00 1.600000e+01
      vertex 7.750000e+00 -5.000000e+00 1.600000e+01
    endloop
  endfacet
  facet normal 2.779021e-12 -1.000000e+00 -1.959752e-15
    outer loop
      vertex -9.750000e+00 -5.000000e+00 1.600000e+01
      vertex -1.075000e+01 -5.000000e+00 1.550000e+01
      vertex -9.750000e+00 -5.000000e+00 1.550000e+01
    endloop
  endfacet
  facet normal 2.779021e-12 -1.000000e+00 -1.959752e-15
    outer loop
      vertex -1.075000e+01 -5.000000e+00 1.550000e+01
      vertex -9.750000e+00 -5.000000e+00 1.600000e+01
      vertex -1.075000e+01 -5.000000e+00 1.700000e+01
    endloop
  endfacet
  facet normal 2.779021e-12 -1.000000e+00 -1.959752e-15
    outer loop
      vertex -1.075000e+01 -5.000000e+00 1.700000e+01
      vertex -9.750000e+00 -5.000000e+00 1.600000e+01
      vertex 7.750000e+00 -5.000000e+00 1.700000e+01
    endloop
  endfacet
  facet normal 1.000000e+00 2.550430e-12 1.224647e-16
    outer loop
      vertex -9.750000e+00 -5.000000e+00 1.600000e+01
      vertex -9.750000e+00 -9.503509e-14 1.550000e+01
      vertex -9.750000e+00 -9.503509e-14 1.600000e+01
    endloop
  endfacet
  facet normal 1.000000e+00 2.550430e-12 1.224647e-16
    outer loop
      vertex -9.750000e+00 -9.503509e-14 1.550000e+01
      vertex -9.750000e+00 -5.000000e+00 1.600000e+01
      vertex -9.750000e+00 -5.000000e+00 1.550000e+01
    endloop
  endfacet
  facet normal -3.248562e-12 1.000000e+00 -3.289759e-14
    outer loop
      vertex -1.075000e+01 3.000000e+00 1.700000e+01
      vertex 1.750000e+00 3.000000e+00 0.000000e+00
      vertex -1.075000e+01 3.000000e+00 0.000000e+00
    endloop
  endfacet
  facet normal -3.248562e-12 1.000000e+00 -3.289759e-14
    outer loop
      vertex 1.750000e+00 3.000000e+00 0.000000e+00
      vertex -1.075000e+01 3.000000e+00 1.700000e+01
      vertex 1.750000e+00 3.000000e+00 1.700000e+01
    endloop
  endfacet
  facet normal 1.000000e+00 3.112861e-12 1.224647e-16
    outer loop
      vertex 6.750000e+00 1.000000e+00 1.700000e+01
      vertex 6.750000e+00 5.000000e+00 1.421085e-14
      vertex 6.750000e+00 5.000000e+00 1.700000e+01
    endloop
  endfacet
  facet normal 1.000000e+00 3.112861e-12 1.224647e-16
    outer loop
      vertex 6.750000e+00 5.000000e+00 1.421085e-14
      vertex 6.750000e+00 1.000000e+00 1.700000e+01
      vertex 6.750000e+00 1.000000e+00 1.421085e-14
    endloop
  endfacet
  facet normal -2.922539e-12 1.000000e+00 -1.140065e-13
    outer loop
      vertex 3.750000e+00 5.000000e+00 1.700000e+01
      vertex 6.750000e+00 5.000000e+00 1.421085e-14
      vertex 3.750000e+00 5.000000e+00 0.000000e+00
    endloop
  endfacet
  facet normal -2.922539e-12 1.000000e+00 -1.140065e-13
    outer loop
      vertex 6.750000e+00 5.000000e+00 1.421085e-14
      vertex 3.750000e+00 5.000000e+00 1.700000e+01
      vertex 6.750000e+00 5.000000e+00 1.700000e+01
    endloop
  endfacet
  facet normal -7.071068e-01 7.071068e-01 -4.711077e-14
    outer loop
      vertex 3.750000e+00 5.000000e+00 0.000000e+00
      vertex 1.750000e+00 3.000000e+00 1.700000e+01
      vertex 3.750000e+00 5.000000e+00 1.700000e+01
    endloop
  endfacet
  facet normal -7.071068e-01 7.071068e-01 -4.711077e-14
    outer loop
      vertex 1.750000e+00 3.000000e+00 1.700000e+01
      vertex 3.750000e+00 5.000000e+00 0.000000e+00
      vertex 1.750000e+00 3.000000e+00 0.000000e+00
    endloop
  endfacet
endsolid Default
