solid Omnidroid
facet normal 8.20431095609798e-014 1.77175110138706e-012 1.0
  outer loop
    vertex -86.3886877541189 -290.270219375635 -4.00000000000581
    vertex -69.3886877541189 -294.270219375635 -4.00000000000012
    vertex -69.3886877541189 -290.270219375635 -4.00000000000856
  endloop
endfacet
facet normal 8.20431095609798e-014 1.77175110138706e-012 1.0
  outer loop
    vertex -69.3886877541189 -294.270219375635 -4.00000000000012
    vertex -86.3886877541189 -290.270219375635 -4.00000000000581
    vertex -86.3886877541189 -294.270219375635 -4.00000000000007
  endloop
endfacet
facet normal -1.98505662862705e-015 -1.0 1.35842032446563e-012
  outer loop
    vertex -86.3886877541189 -294.270219375637 -4.99999999999975
    vertex -69.3886877541189 -294.270219375635 -4.00000000000012
    vertex -86.3886877541189 -294.270219375635 -4.00000000000007
  endloop
endfacet
facet normal -1.98505662862705e-015 -1.0 1.35842032446563e-012
  outer loop
    vertex -69.3886877541189 -294.270219375635 -4.00000000000012
    vertex -86.3886877541189 -294.270219375637 -4.99999999999975
    vertex -78.2886877541188 -294.270219375637 -4.99999999999964
  endloop
endfacet
facet normal -1.98505662862705e-015 -1.0 1.35842032446563e-012
  outer loop
    vertex -78.2886877541188 -294.270219375637 -4.99999999999964
    vertex -69.3886877541189 -294.270219375644 -10.0000000000064
    vertex -69.3886877541189 -294.270219375635 -4.00000000000012
  endloop
endfacet
facet normal -1.98505662862705e-015 -1.0 1.35842032446563e-012
  outer loop
    vertex -69.3886877541189 -294.270219375644 -10.0000000000064
    vertex -78.2886877541188 -294.270219375637 -4.99999999999964
    vertex -78.2886877541189 -294.270219375644 -10.0000000000064
  endloop
endfacet
facet normal 1.0 2.31011654250287e-014 -3.87083254345021e-015
  outer loop
    vertex -84.8886877541189 -272.770219375651 -10.0000000000587
    vertex -84.8886877541188 -273.770219375638 -5.00000000005844
    vertex -84.8886877541189 -273.770219375651 -10.0000000000558
  endloop
endfacet
facet normal 1.0 2.31011654250287e-014 -3.87083254345021e-015
  outer loop
    vertex -84.8886877541188 -273.770219375638 -5.00000000005844
    vertex -84.8886877541189 -272.770219375651 -10.0000000000587
    vertex -84.8886877541189 -272.770219375636 -5.00000000006139
  endloop
endfacet
facet normal -7.4940054162198e-016 2.90195713182794e-012 1.0
  outer loop
    vertex -78.2886877541189 -272.770219375648 -9.00000000006131
    vertex -70.3886877541189 -293.270219375648 -9.00000000000181
    vertex -70.3886877541189 -272.770219375648 -9.0000000000613
  endloop
endfacet
facet normal -7.4940054162198e-016 2.90195713182794e-012 1.0
  outer loop
    vertex -70.3886877541189 -293.270219375648 -9.00000000000181
    vertex -78.2886877541189 -272.770219375648 -9.00000000006131
    vertex -78.2886877541189 -293.270219375648 -9.00000000000182
  endloop
endfacet
facet normal 3.27690485382969e-015 -2.88193384105959e-012 -1.0
  outer loop
    vertex -86.3886877541189 -294.270219375637 -4.99999999999975
    vertex -78.2886877541189 -293.270219375637 -5.00000000000245
    vertex -78.2886877541188 -294.270219375637 -4.99999999999964
  endloop
endfacet
facet normal 3.27690485382969e-015 -2.88193384105959e-012 -1.0
  outer loop
    vertex -78.2886877541189 -293.270219375637 -5.00000000000245
    vertex -86.3886877541189 -294.270219375637 -4.99999999999975
    vertex -85.3886877541187 -291.270219375637 -5.00000000000773
  endloop
endfacet
facet normal 3.27690485382969e-015 -2.88193384105959e-012 -1.0
  outer loop
    vertex -78.2886877541189 -293.270219375637 -5.00000000000245
    vertex -85.3886877541187 -291.270219375637 -5.00000000000773
    vertex -84.8886877541188 -273.770219375638 -5.00000000005844
  endloop
endfacet
facet normal 3.27690485382969e-015 -2.88193384105959e-012 -1.0
  outer loop
    vertex -85.3886877541187 -291.270219375637 -5.00000000000773
    vertex -86.3886877541189 -294.270219375637 -4.99999999999975
    vertex -86.3886877541187 -291.270219375637 -5.00000000000768
  endloop
endfacet
facet normal 3.27690485382969e-015 -2.88193384105959e-012 -1.0
  outer loop
    vertex -85.3886877541189 -273.770219375638 -5.00000000005844
    vertex -84.8886877541188 -273.770219375638 -5.00000000005844
    vertex -85.3886877541187 -291.270219375637 -5.00000000000773
  endloop
endfacet
facet normal 3.27690485382969e-015 -2.88193384105959e-012 -1.0
  outer loop
    vertex -78.2886877541189 -293.270219375637 -5.00000000000245
    vertex -70.3886877541189 -272.770219375636 -5.00000000006138
    vertex -70.3886877541189 -293.270219375636 -5.00000000000189
  endloop
endfacet
facet normal 3.27690485382969e-015 -2.88193384105959e-012 -1.0
  outer loop
    vertex -70.3886877541189 -272.770219375636 -5.00000000006138
    vertex -78.2886877541189 -293.270219375637 -5.00000000000245
    vertex -84.8886877541189 -272.770219375636 -5.00000000006139
  endloop
endfacet
facet normal 3.27690485382969e-015 -2.88193384105959e-012 -1.0
  outer loop
    vertex -84.8886877541189 -272.770219375636 -5.00000000006139
    vertex -78.2886877541189 -293.270219375637 -5.00000000000245
    vertex -84.8886877541188 -273.770219375638 -5.00000000005844
  endloop
endfacet
facet normal -1.0 2.61740257921796e-015 3.35219818486278e-014
  outer loop
    vertex -86.3886877541189 -290.270219375635 -4.00000000000581
    vertex -86.3886877541189 -294.270219375637 -4.99999999999975
    vertex -86.3886877541189 -294.270219375635 -4.00000000000007
  endloop
endfacet
facet normal -1.0 2.61740257921796e-015 3.35219818486278e-014
  outer loop
    vertex -86.3886877541189 -294.270219375637 -4.99999999999975
    vertex -86.3886877541189 -290.270219375635 -4.00000000000581
    vertex -86.3886877541187 -291.270219375637 -5.00000000000768
  endloop
endfacet
facet normal -1.0 2.61740257921796e-015 3.35219818486278e-014
  outer loop
    vertex -86.3886877541187 -291.270219375637 -5.00000000000768
    vertex -86.3886877541189 -272.770219375651 -10.0000000000587
    vertex -86.3886877541189 -291.270219375651 -10.0000000000072
  endloop
endfacet
facet normal -1.0 2.61740257921796e-015 3.35219818486278e-014
  outer loop
    vertex -86.3886877541189 -272.770219375651 -10.0000000000587
    vertex -86.3886877541187 -291.270219375637 -5.00000000000768
    vertex -86.3886877541189 -290.270219375635 -4.00000000000581
  endloop
endfacet
facet normal -1.0 2.61740257921796e-015 3.35219818486278e-014
  outer loop
    vertex -86.3886877541189 -272.770219375651 -10.0000000000587
    vertex -86.3886877541189 -290.270219375635 -4.00000000000581
    vertex -86.3886877541185 -290.270219375623 1.89140791917453e-013
  endloop
endfacet
facet normal -1.0 2.61740257921796e-015 3.35219818486278e-014
  outer loop
    vertex -86.3886877541189 -272.770219375651 -10.0000000000587
    vertex -86.3886877541185 -290.270219375623 1.89140791917453e-013
    vertex -86.3886877541187 -285.270219375629 -2.00000000002049
  endloop
endfacet
facet normal -1.0 2.61740257921796e-015 3.35219818486278e-014
  outer loop
    vertex -86.3886877541187 -285.270219375629 -2.00000000002049
    vertex -86.3886877541185 -290.270219375623 1.89140791917453e-013
    vertex -86.3886877541185 -287.270219375623 -9.38557036533893e-012
  endloop
endfacet
facet normal -1.0 2.61740257921796e-015 3.35219818486278e-014
  outer loop
    vertex -86.3886877541189 -272.770219375651 -10.0000000000587
    vertex -86.3886877541187 -285.270219375629 -2.00000000002049
    vertex -86.3886877541187 -272.770219375627 -2.00000000006166
  endloop
endfacet
facet normal -1.0 -1.45004633669708e-016 1.3777677602807e-014
  outer loop
    vertex -78.2886877541189 -293.270219375637 -5.00000000000245
    vertex -78.2886877541189 -294.270219375644 -10.0000000000064
    vertex -78.2886877541188 -294.270219375637 -4.99999999999964
  endloop
endfacet
facet normal -1.0 -1.45004633669708e-016 1.3777677602807e-014
  outer loop
    vertex -78.2886877541189 -294.270219375644 -10.0000000000064
    vertex -78.2886877541189 -293.270219375637 -5.00000000000245
    vertex -78.2886877541189 -293.270219375648 -9.00000000000182
  endloop
endfacet
facet normal -1.0 -1.45004633669708e-016 1.3777677602807e-014
  outer loop
    vertex -78.2886877541189 -293.270219375648 -9.00000000000182
    vertex -78.2886877541189 -272.770219375651 -10.0000000000613
    vertex -78.2886877541189 -294.270219375644 -10.0000000000064
  endloop
endfacet
facet normal -1.0 -1.45004633669708e-016 1.3777677602807e-014
  outer loop
    vertex -78.2886877541189 -272.770219375651 -10.0000000000613
    vertex -78.2886877541189 -293.270219375648 -9.00000000000182
    vertex -78.2886877541189 -272.770219375648 -9.00000000006131
  endloop
endfacet
facet normal -5.26355667912111e-014 1.0 -2.81603206530803e-012
  outer loop
    vertex -70.3886877541189 -293.270219375648 -9.00000000000181
    vertex -78.2886877541189 -293.270219375637 -5.00000000000245
    vertex -70.3886877541189 -293.270219375636 -5.00000000000189
  endloop
endfacet
facet normal -5.26355667912111e-014 1.0 -2.81603206530803e-012
  outer loop
    vertex -78.2886877541189 -293.270219375637 -5.00000000000245
    vertex -70.3886877541189 -293.270219375648 -9.00000000000181
    vertex -78.2886877541189 -293.270219375648 -9.00000000000182
  endloop
endfacet
facet normal 1.0 -2.08596889767324e-015 -3.45938649868659e-014
  outer loop
    vertex -69.3886877541189 -294.270219375644 -10.0000000000064
    vertex -69.3886877541189 -290.270219375635 -4.00000000000856
    vertex -69.3886877541189 -294.270219375635 -4.00000000000012
  endloop
endfacet
facet normal 1.0 -2.08596889767324e-015 -3.45938649868659e-014
  outer loop
    vertex -69.3886877541189 -290.270219375635 -4.00000000000856
    vertex -69.3886877541189 -294.270219375644 -10.0000000000064
    vertex -69.3886877541189 -272.770219375651 -10.0000000000613
  endloop
endfacet
facet normal 1.0 -2.08596889767324e-015 -3.45938649868659e-014
  outer loop
    vertex -69.3886877541189 -290.270219375635 -4.00000000000856
    vertex -69.3886877541189 -272.770219375651 -10.0000000000613
    vertex -69.3886877541185 -290.270219375623 -2.55556642514421e-012
  endloop
endfacet
facet normal 1.0 -2.08596889767324e-015 -3.45938649868659e-014
  outer loop
    vertex -69.3886877541185 -290.270219375623 -2.55556642514421e-012
    vertex -69.3886877541189 -272.770219375651 -10.0000000000613
    vertex -69.3886877541187 -285.270219375629 -2.00000000002162
  endloop
endfacet
facet normal 1.0 -2.08596889767324e-015 -3.45938649868659e-014
  outer loop
    vertex -69.3886877541185 -290.270219375623 -2.55556642514421e-012
    vertex -69.3886877541187 -285.270219375629 -2.00000000002162
    vertex -69.3886877541185 -287.270219375623 -1.05153617369069e-011
  endloop
endfacet
facet normal 1.0 -2.08596889767324e-015 -3.45938649868659e-014
  outer loop
    vertex -69.3886877541187 -285.270219375629 -2.00000000002162
    vertex -69.3886877541189 -272.770219375651 -10.0000000000613
    vertex -69.3886877541187 -272.770219375627 -2.00000000006165
  endloop
endfacet
facet normal 1.54193226709441e-026 -1.0 2.71669705398038e-012
  outer loop
    vertex -86.3886877541189 -291.270219375651 -10.0000000000072
    vertex -85.3886877541187 -291.270219375637 -5.00000000000773
    vertex -86.3886877541187 -291.270219375637 -5.00000000000768
  endloop
endfacet
facet normal 1.54193226709441e-026 -1.0 2.71669705398038e-012
  outer loop
    vertex -85.3886877541187 -291.270219375637 -5.00000000000773
    vertex -86.3886877541189 -291.270219375651 -10.0000000000072
    vertex -85.3886877541189 -291.270219375651 -10.0000000000072
  endloop
endfacet
facet normal 1.0 5.28026638282188e-015 -1.77315317984275e-014
  outer loop
    vertex -85.3886877541189 -273.770219375651 -10.0000000000558
    vertex -85.3886877541187 -291.270219375637 -5.00000000000773
    vertex -85.3886877541189 -291.270219375651 -10.0000000000072
  endloop
endfacet
facet normal 1.0 5.28026638282188e-015 -1.77315317984275e-014
  outer loop
    vertex -85.3886877541187 -291.270219375637 -5.00000000000773
    vertex -85.3886877541189 -273.770219375651 -10.0000000000558
    vertex -85.3886877541189 -273.770219375638 -5.00000000005844
  endloop
endfacet
facet normal 7.4940054162198e-016 -2.55251760854106e-012 -1.0
  outer loop
    vertex -78.2886877541189 -294.270219375644 -10.0000000000064
    vertex -69.3886877541189 -272.770219375651 -10.0000000000613
    vertex -69.3886877541189 -294.270219375644 -10.0000000000064
  endloop
endfacet
facet normal 7.4940054162198e-016 -2.55251760854106e-012 -1.0
  outer loop
    vertex -69.3886877541189 -272.770219375651 -10.0000000000613
    vertex -78.2886877541189 -294.270219375644 -10.0000000000064
    vertex -78.2886877541189 -272.770219375651 -10.0000000000613
  endloop
endfacet
facet normal -6.46418805964331e-015 1.0 -2.89238003713418e-012
  outer loop
    vertex -69.3886877541187 -272.770219375627 -2.00000000006165
    vertex -70.3886877541189 -272.770219375636 -5.00000000006138
    vertex -86.3886877541187 -272.770219375627 -2.00000000006166
  endloop
endfacet
facet normal -6.46418805964331e-015 1.0 -2.89238003713418e-012
  outer loop
    vertex -70.3886877541189 -272.770219375636 -5.00000000006138
    vertex -69.3886877541187 -272.770219375627 -2.00000000006165
    vertex -69.3886877541189 -272.770219375651 -10.0000000000613
  endloop
endfacet
facet normal -6.46418805964331e-015 1.0 -2.89238003713418e-012
  outer loop
    vertex -70.3886877541189 -272.770219375636 -5.00000000006138
    vertex -69.3886877541189 -272.770219375651 -10.0000000000613
    vertex -70.3886877541189 -272.770219375648 -9.0000000000613
  endloop
endfacet
facet normal -6.46418805964331e-015 1.0 -2.89238003713418e-012
  outer loop
    vertex -70.3886877541189 -272.770219375648 -9.0000000000613
    vertex -69.3886877541189 -272.770219375651 -10.0000000000613
    vertex -78.2886877541189 -272.770219375648 -9.00000000006131
  endloop
endfacet
facet normal -6.46418805964331e-015 1.0 -2.89238003713418e-012
  outer loop
    vertex -78.2886877541189 -272.770219375648 -9.00000000006131
    vertex -69.3886877541189 -272.770219375651 -10.0000000000613
    vertex -78.2886877541189 -272.770219375651 -10.0000000000613
  endloop
endfacet
facet normal -6.46418805964331e-015 1.0 -2.89238003713418e-012
  outer loop
    vertex -86.3886877541187 -272.770219375627 -2.00000000006166
    vertex -84.8886877541189 -272.770219375636 -5.00000000006139
    vertex -86.3886877541189 -272.770219375651 -10.0000000000587
  endloop
endfacet
facet normal -6.46418805964331e-015 1.0 -2.89238003713418e-012
  outer loop
    vertex -84.8886877541189 -272.770219375636 -5.00000000006139
    vertex -86.3886877541187 -272.770219375627 -2.00000000006166
    vertex -70.3886877541189 -272.770219375636 -5.00000000006138
  endloop
endfacet
facet normal -6.46418805964331e-015 1.0 -2.89238003713418e-012
  outer loop
    vertex -86.3886877541189 -272.770219375651 -10.0000000000587
    vertex -84.8886877541189 -272.770219375636 -5.00000000006139
    vertex -84.8886877541189 -272.770219375651 -10.0000000000587
  endloop
endfacet
facet normal -1.0 -9.7643097536272e-027 -7.4940054162198e-016
  outer loop
    vertex -70.3886877541189 -293.270219375636 -5.00000000000189
    vertex -70.3886877541189 -272.770219375648 -9.0000000000613
    vertex -70.3886877541189 -293.270219375648 -9.00000000000181
  endloop
endfacet
facet normal -1.0 -9.7643097536272e-027 -7.4940054162198e-016
  outer loop
    vertex -70.3886877541189 -272.770219375648 -9.0000000000613
    vertex -70.3886877541189 -293.270219375636 -5.00000000000189
    vertex -70.3886877541189 -272.770219375636 -5.00000000006138
  endloop
endfacet
facet normal 2.02098409923003e-015 -2.77895992364011e-012 -1.0
  outer loop
    vertex -86.3886877541189 -291.270219375651 -10.0000000000072
    vertex -85.3886877541189 -273.770219375651 -10.0000000000558
    vertex -85.3886877541189 -291.270219375651 -10.0000000000072
  endloop
endfacet
facet normal 2.02098409923003e-015 -2.77895992364011e-012 -1.0
  outer loop
    vertex -85.3886877541189 -273.770219375651 -10.0000000000558
    vertex -84.8886877541189 -272.770219375651 -10.0000000000587
    vertex -84.8886877541189 -273.770219375651 -10.0000000000558
  endloop
endfacet
facet normal 2.02098409923003e-015 -2.77895992364011e-012 -1.0
  outer loop
    vertex -84.8886877541189 -272.770219375651 -10.0000000000587
    vertex -85.3886877541189 -273.770219375651 -10.0000000000558
    vertex -86.3886877541189 -272.770219375651 -10.0000000000587
  endloop
endfacet
facet normal 2.02098409923003e-015 -2.77895992364011e-012 -1.0
  outer loop
    vertex -86.3886877541189 -272.770219375651 -10.0000000000587
    vertex -85.3886877541189 -273.770219375651 -10.0000000000558
    vertex -86.3886877541189 -291.270219375651 -10.0000000000072
  endloop
endfacet
facet normal 7.85306209629913e-027 -1.0 2.55036866292013e-012
  outer loop
    vertex -85.3886877541189 -273.770219375651 -10.0000000000558
    vertex -84.8886877541188 -273.770219375638 -5.00000000005844
    vertex -85.3886877541189 -273.770219375638 -5.00000000005844
  endloop
endfacet
facet normal 7.85306209629913e-027 -1.0 2.55036866292013e-012
  outer loop
    vertex -84.8886877541188 -273.770219375638 -5.00000000005844
    vertex -85.3886877541189 -273.770219375651 -10.0000000000558
    vertex -84.8886877541189 -273.770219375651 -10.0000000000558
  endloop
endfacet
facet normal 3.28363532443131e-014 3.24850032029603e-012 1.0
  outer loop
    vertex -86.3886877541187 -272.770219375627 -2.00000000006166
    vertex -69.3886877541187 -285.270219375629 -2.00000000002162
    vertex -69.3886877541187 -272.770219375627 -2.00000000006165
  endloop
endfacet
facet normal 3.28363532443131e-014 3.24850032029603e-012 1.0
  outer loop
    vertex -69.3886877541187 -285.270219375629 -2.00000000002162
    vertex -86.3886877541187 -272.770219375627 -2.00000000006166
    vertex -86.3886877541187 -285.270219375629 -2.00000000002049
  endloop
endfacet
facet normal 5.02571962005145e-025 -1.0 3.1127995368606e-012
  outer loop
    vertex -86.3886877541189 -290.270219375635 -4.00000000000581
    vertex -69.3886877541185 -290.270219375623 -2.55556642514421e-012
    vertex -86.3886877541185 -290.270219375623 1.89140791917453e-013
  endloop
endfacet
facet normal 5.02571962005145e-025 -1.0 3.1127995368606e-012
  outer loop
    vertex -69.3886877541185 -290.270219375623 -2.55556642514421e-012
    vertex -86.3886877541189 -290.270219375635 -4.00000000000581
    vertex -69.3886877541189 -290.270219375635 -4.00000000000856
  endloop
endfacet
facet normal 1.13945224497644e-013 2.92247790412147e-012 1.0
  outer loop
    vertex -86.3886877541185 -287.270219375623 -9.38557036533893e-012
    vertex -69.3886877541185 -290.270219375623 -2.55556642514421e-012
    vertex -69.3886877541185 -287.270219375623 -1.05153617369069e-011
  endloop
endfacet
facet normal 1.13945224497644e-013 2.92247790412147e-012 1.0
  outer loop
    vertex -69.3886877541185 -290.270219375623 -2.55556642514421e-012
    vertex -86.3886877541185 -287.270219375623 -9.38557036533893e-012
    vertex -86.3886877541185 -290.270219375623 1.89140791917453e-013
  endloop
endfacet
facet normal 4.6980880300885e-014 0.707106781189489 0.707106781183606
  outer loop
    vertex -69.3886877541185 -287.270219375623 -1.05153617369069e-011
    vertex -86.3886877541187 -285.270219375629 -2.00000000002049
    vertex -86.3886877541185 -287.270219375623 -9.38557036533893e-012
  endloop
endfacet
facet normal 4.6980880300885e-014 0.707106781189489 0.707106781183606
  outer loop
    vertex -86.3886877541187 -285.270219375629 -2.00000000002049
    vertex -69.3886877541185 -287.270219375623 -1.05153617369069e-011
    vertex -69.3886877541187 -285.270219375629 -2.00000000002162
  endloop
endfacet
endsolid Omnidroid
