solid Omnidroid
facet normal -1.49644458882725e-013 1.12996557435534e-014 -1.0
  outer loop
    vertex -7.57075706654364 -219.145863722674 -13.0000000000721
    vertex -65.8886877541612 -264.362742087551 -13.0000000000639
    vertex -70.8886877541398 -255.702488049686 -13.000000000064
  endloop
endfacet
facet normal -1.49644458882725e-013 1.12996557435534e-014 -1.0
  outer loop
    vertex -65.8886877541612 -264.362742087551 -13.0000000000639
    vertex -7.57075706654364 -219.145863722674 -13.0000000000721
    vertex -2.57075706654371 -227.806117760518 -13.0000000000739
  endloop
endfacet
facet normal 0.866025403784445 0.499999999999989 -1.2394607505624e-013
  outer loop
    vertex -7.57075706654364 -219.145863722674 -13.0000000000721
    vertex -2.57075706654358 -227.806117760518 -12.0000000000739
    vertex -2.57075706654371 -227.806117760518 -13.0000000000739
  endloop
endfacet
facet normal 0.866025403784445 0.499999999999989 -1.2394607505624e-013
  outer loop
    vertex -2.57075706654358 -227.806117760518 -12.0000000000739
    vertex -7.57075706654364 -219.145863722674 -13.0000000000721
    vertex -7.57075706654346 -219.145863722674 -12.0000000000721
  endloop
endfacet
facet normal 1.49644458882725e-013 -1.12996557435534e-014 1.0
  outer loop
    vertex -65.8886877541611 -264.362742087551 -12.0000000000639
    vertex -7.57075706654346 -219.145863722674 -12.0000000000721
    vertex -70.8886877541397 -255.702488049686 -12.000000000064
  endloop
endfacet
facet normal 1.49644458882725e-013 -1.12996557435534e-014 1.0
  outer loop
    vertex -7.57075706654346 -219.145863722674 -12.0000000000721
    vertex -65.8886877541611 -264.362742087551 -12.0000000000639
    vertex -2.57075706654358 -227.806117760518 -12.0000000000739
  endloop
endfacet
facet normal 0.500000000000063 -0.866025403784402 -8.46080183693075e-014
  outer loop
    vertex -2.57075706654358 -227.806117760518 -12.0000000000739
    vertex -65.8886877541612 -264.362742087551 -13.0000000000639
    vertex -2.57075706654371 -227.806117760518 -13.0000000000739
  endloop
endfacet
facet normal 0.500000000000063 -0.866025403784402 -8.46080183693075e-014
  outer loop
    vertex -65.8886877541612 -264.362742087551 -13.0000000000639
    vertex -2.57075706654358 -227.806117760518 -12.0000000000739
    vertex -65.8886877541611 -264.362742087551 -12.0000000000639
  endloop
endfacet
facet normal -0.499999999999987 0.866025403784446 8.46080183692967e-014
  outer loop
    vertex -70.8886877541398 -255.702488049686 -13.000000000064
    vertex -7.57075706654346 -219.145863722674 -12.0000000000721
    vertex -7.57075706654364 -219.145863722674 -13.0000000000721
  endloop
endfacet
facet normal -0.499999999999987 0.866025403784446 8.46080183692967e-014
  outer loop
    vertex -7.57075706654346 -219.145863722674 -12.0000000000721
    vertex -70.8886877541398 -255.702488049686 -13.000000000064
    vertex -70.8886877541397 -255.702488049686 -12.000000000064
  endloop
endfacet
facet normal -0.866025403785867 -0.499999999997526 1.23946075056481e-013
  outer loop
    vertex -70.8886877541397 -255.702488049686 -12.000000000064
    vertex -65.8886877541612 -264.362742087551 -13.0000000000639
    vertex -65.8886877541611 -264.362742087551 -12.0000000000639
  endloop
endfacet
facet normal -0.866025403785867 -0.499999999997526 1.23946075056481e-013
  outer loop
    vertex -65.8886877541612 -264.362742087551 -13.0000000000639
    vertex -70.8886877541397 -255.702488049686 -12.000000000064
    vertex -70.8886877541398 -255.702488049686 -13.000000000064
  endloop
endfacet
endsolid Omnidroid
