solid Omnidroid
facet normal -0.0 0.0 -1.0
  outer loop
    vertex -100.700074774078 -282.770085967157 -1.61693719746836e-011
    vertex -100.700074774077 -280.181895516131 -1.61693719746836e-011
    vertex -100.529703905523 -281.475990741644 -1.61693719746836e-011
  endloop
endfacet
facet normal -0.0 0.0 -1.0
  outer loop
    vertex -100.700074774077 -280.181895516131 -1.61693719746836e-011
    vertex -100.700074774078 -282.770085967157 -1.61693719746836e-011
    vertex -101.199576886601 -283.975990741644 -1.61693719746836e-011
  endloop
endfacet
facet normal -0.0 0.0 -1.0
  outer loop
    vertex -100.700074774077 -280.181895516131 -1.61693719746836e-011
    vertex -101.199576886601 -283.975990741644 -1.61693719746836e-011
    vertex -101.1995768866 -278.975990741644 -1.61693719746836e-011
  endloop
endfacet
facet normal -0.0 0.0 -1.0
  outer loop
    vertex -101.1995768866 -278.975990741644 -1.61693719746836e-011
    vertex -101.199576886601 -283.975990741644 -1.61693719746836e-011
    vertex -101.994169999591 -285.011524647576 -1.61693719746836e-011
  endloop
endfacet
facet normal -0.0 0.0 -1.0
  outer loop
    vertex -101.1995768866 -278.975990741644 -1.61693719746836e-011
    vertex -101.994169999591 -285.011524647576 -1.61693719746836e-011
    vertex -101.994169999589 -277.940456835711 -1.61693719746836e-011
  endloop
endfacet
facet normal -0.0 0.0 -1.0
  outer loop
    vertex -101.994169999589 -277.940456835711 -1.61693719746836e-011
    vertex -101.994169999591 -285.011524647576 -1.61693719746836e-011
    vertex -103.029703905524 -285.806117760565 -1.61693719746836e-011
  endloop
endfacet
facet normal -0.0 0.0 -1.0
  outer loop
    vertex -101.994169999589 -277.940456835711 -1.61693719746836e-011
    vertex -103.029703905524 -285.806117760565 -1.61693719746836e-011
    vertex -103.029703905521 -277.145863722721 -1.61693719746836e-011
  endloop
endfacet
facet normal -0.0 0.0 -1.0
  outer loop
    vertex -103.029703905521 -277.145863722721 -1.61693719746836e-011
    vertex -103.029703905524 -285.806117760565 -1.61693719746836e-011
    vertex -104.235608680011 -286.305619873088 -1.61693719746836e-011
  endloop
endfacet
facet normal -0.0 0.0 -1.0
  outer loop
    vertex -103.029703905521 -277.145863722721 -1.61693719746836e-011
    vertex -104.235608680011 -286.305619873088 -1.61693719746836e-011
    vertex -103.779703905523 -281.475990741643 -1.61693719746836e-011
  endloop
endfacet
facet normal -0.0 0.0 -1.0
  outer loop
    vertex -103.779703905523 -281.475990741643 -1.61693719746836e-011
    vertex -104.235608680011 -286.305619873088 -1.61693719746836e-011
    vertex -103.839333709517 -281.928924070573 -1.61693719746836e-011
  endloop
endfacet
facet normal -0.0 0.0 -1.0
  outer loop
    vertex -103.839333709517 -281.928924070573 -1.61693719746836e-011
    vertex -104.235608680011 -286.305619873088 -1.61693719746836e-011
    vertex -104.0141594489 -282.350990741643 -1.61693719746836e-011
  endloop
endfacet
facet normal -0.0 0.0 -1.0
  outer loop
    vertex -104.0141594489 -282.350990741643 -1.61693719746836e-011
    vertex -104.235608680011 -286.305619873088 -1.61693719746836e-011
    vertex -104.292267038446 -282.713427608719 -1.61693719746836e-011
  endloop
endfacet
facet normal -0.0 0.0 -1.0
  outer loop
    vertex -104.292267038446 -282.713427608719 -1.61693719746836e-011
    vertex -104.235608680011 -286.305619873088 -1.61693719746836e-011
    vertex -105.529703905524 -286.475990741643 -1.61693719746836e-011
  endloop
endfacet
facet normal -0.0 0.0 -1.0
  outer loop
    vertex -104.292267038446 -282.713427608719 -1.61693719746836e-011
    vertex -105.529703905524 -286.475990741643 -1.61693719746836e-011
    vertex -104.654703905523 -282.991535198266 -1.61693719746836e-011
  endloop
endfacet
facet normal -0.0 0.0 -1.0
  outer loop
    vertex -104.654703905523 -282.991535198266 -1.61693719746836e-011
    vertex -105.529703905524 -286.475990741643 -1.61693719746836e-011
    vertex -105.076770576594 -283.166360937649 -1.61693719746836e-011
  endloop
endfacet
facet normal -0.0 0.0 -1.0
  outer loop
    vertex -105.076770576594 -283.166360937649 -1.61693719746836e-011
    vertex -105.529703905524 -286.475990741643 -1.61693719746836e-011
    vertex -105.529703905523 -283.225990741643 -1.61693719746836e-011
  endloop
endfacet
facet normal -0.0 0.0 -1.0
  outer loop
    vertex -105.529703905523 -283.225990741643 -1.61693719746836e-011
    vertex -105.529703905524 -286.475990741643 -1.61693719746836e-011
    vertex -106.823799131036 -286.305619873087 -1.61693719746836e-011
  endloop
endfacet
facet normal -0.0 0.0 -1.0
  outer loop
    vertex -105.529703905523 -283.225990741643 -1.61693719746836e-011
    vertex -106.823799131036 -286.305619873087 -1.61693719746836e-011
    vertex -105.982637234452 -283.166360937648 -1.61693719746836e-011
  endloop
endfacet
facet normal -0.0 0.0 -1.0
  outer loop
    vertex -105.982637234452 -283.166360937648 -1.61693719746836e-011
    vertex -106.823799131036 -286.305619873087 -1.61693719746836e-011
    vertex -106.404703905523 -282.991535198265 -1.61693719746836e-011
  endloop
endfacet
facet normal -0.0 0.0 -1.0
  outer loop
    vertex -106.404703905523 -282.991535198265 -1.61693719746836e-011
    vertex -106.823799131036 -286.305619873087 -1.61693719746836e-011
    vertex -106.767140772599 -282.713427608719 -1.61693719746836e-011
  endloop
endfacet
facet normal -0.0 0.0 -1.0
  outer loop
    vertex -106.767140772599 -282.713427608719 -1.61693719746836e-011
    vertex -106.823799131036 -286.305619873087 -1.61693719746836e-011
    vertex -107.045248362146 -282.350990741642 -1.61693719746836e-011
  endloop
endfacet
facet normal -0.0 0.0 -1.0
  outer loop
    vertex -107.045248362146 -282.350990741642 -1.61693719746836e-011
    vertex -106.823799131036 -286.305619873087 -1.61693719746836e-011
    vertex -108.029703905524 -285.806117760564 -1.61693719746836e-011
  endloop
endfacet
facet normal -0.0 0.0 -1.0
  outer loop
    vertex -107.045248362146 -282.350990741642 -1.61693719746836e-011
    vertex -108.029703905524 -285.806117760564 -1.61693719746836e-011
    vertex -107.220074101529 -281.928924070572 -1.61693719746836e-011
  endloop
endfacet
facet normal -0.0 0.0 -1.0
  outer loop
    vertex -107.220074101529 -281.928924070572 -1.61693719746836e-011
    vertex -108.029703905524 -285.806117760564 -1.61693719746836e-011
    vertex -107.279703905523 -281.475990741642 -1.61693719746836e-011
  endloop
endfacet
facet normal -0.0 0.0 -1.0
  outer loop
    vertex -103.779703905523 -281.475990741643 -1.61693719746836e-011
    vertex -104.235608680009 -276.646361610198 -1.61693719746836e-011
    vertex -103.029703905521 -277.145863722721 -1.61693719746836e-011
  endloop
endfacet
facet normal -0.0 0.0 -1.0
  outer loop
    vertex -104.235608680009 -276.646361610198 -1.61693719746836e-011
    vertex -103.779703905523 -281.475990741643 -1.61693719746836e-011
    vertex -103.839333709517 -281.023057412714 -1.61693719746836e-011
  endloop
endfacet
facet normal -0.0 0.0 -1.0
  outer loop
    vertex -104.235608680009 -276.646361610198 -1.61693719746836e-011
    vertex -103.839333709517 -281.023057412714 -1.61693719746836e-011
    vertex -104.0141594489 -280.600990741643 -1.61693719746836e-011
  endloop
endfacet
facet normal -0.0 0.0 -1.0
  outer loop
    vertex -104.235608680009 -276.646361610198 -1.61693719746836e-011
    vertex -104.0141594489 -280.600990741643 -1.61693719746836e-011
    vertex -104.292267038446 -280.238553874566 -1.61693719746836e-011
  endloop
endfacet
facet normal -0.0 0.0 -1.0
  outer loop
    vertex -104.235608680009 -276.646361610198 -1.61693719746836e-011
    vertex -104.292267038446 -280.238553874566 -1.61693719746836e-011
    vertex -105.529703905521 -276.475990741643 -1.61693719746836e-011
  endloop
endfacet
facet normal -0.0 0.0 -1.0
  outer loop
    vertex -105.529703905521 -276.475990741643 -1.61693719746836e-011
    vertex -104.292267038446 -280.238553874566 -1.61693719746836e-011
    vertex -104.654703905522 -279.96044628502 -1.61693719746836e-011
  endloop
endfacet
facet normal -0.0 0.0 -1.0
  outer loop
    vertex -105.529703905521 -276.475990741643 -1.61693719746836e-011
    vertex -104.654703905522 -279.96044628502 -1.61693719746836e-011
    vertex -105.076770576593 -279.785620545637 -1.61693719746836e-011
  endloop
endfacet
facet normal -0.0 0.0 -1.0
  outer loop
    vertex -105.529703905521 -276.475990741643 -1.61693719746836e-011
    vertex -105.076770576593 -279.785620545637 -1.61693719746836e-011
    vertex -105.529703905522 -279.725990741643 -1.61693719746836e-011
  endloop
endfacet
facet normal -0.0 0.0 -1.0
  outer loop
    vertex -105.529703905521 -276.475990741643 -1.61693719746836e-011
    vertex -105.529703905522 -279.725990741643 -1.61693719746836e-011
    vertex -105.982637234451 -279.785620545637 -1.61693719746836e-011
  endloop
endfacet
facet normal -0.0 0.0 -1.0
  outer loop
    vertex -105.529703905521 -276.475990741643 -1.61693719746836e-011
    vertex -105.982637234451 -279.785620545637 -1.61693719746836e-011
    vertex -106.823799131034 -276.646361610197 -1.61693719746836e-011
  endloop
endfacet
facet normal -0.0 0.0 -1.0
  outer loop
    vertex -106.823799131034 -276.646361610197 -1.61693719746836e-011
    vertex -105.982637234451 -279.785620545637 -1.61693719746836e-011
    vertex -106.404703905522 -279.96044628502 -1.61693719746836e-011
  endloop
endfacet
facet normal -0.0 0.0 -1.0
  outer loop
    vertex -106.823799131034 -276.646361610197 -1.61693719746836e-011
    vertex -106.404703905522 -279.96044628502 -1.61693719746836e-011
    vertex -106.767140772599 -280.238553874566 -1.61693719746836e-011
  endloop
endfacet
facet normal -0.0 0.0 -1.0
  outer loop
    vertex -106.823799131034 -276.646361610197 -1.61693719746836e-011
    vertex -106.767140772599 -280.238553874566 -1.61693719746836e-011
    vertex -107.045248362145 -280.600990741642 -1.61693719746836e-011
  endloop
endfacet
facet normal -0.0 0.0 -1.0
  outer loop
    vertex -106.823799131034 -276.646361610197 -1.61693719746836e-011
    vertex -107.045248362145 -280.600990741642 -1.61693719746836e-011
    vertex -108.029703905521 -277.14586372272 -1.61693719746836e-011
  endloop
endfacet
facet normal -0.0 0.0 -1.0
  outer loop
    vertex -108.029703905521 -277.14586372272 -1.61693719746836e-011
    vertex -107.045248362145 -280.600990741642 -1.61693719746836e-011
    vertex -107.220074101528 -281.023057412713 -1.61693719746836e-011
  endloop
endfacet
facet normal -0.0 0.0 -1.0
  outer loop
    vertex -108.029703905521 -277.14586372272 -1.61693719746836e-011
    vertex -107.220074101528 -281.023057412713 -1.61693719746836e-011
    vertex -107.279703905523 -281.475990741642 -1.61693719746836e-011
  endloop
endfacet
facet normal -0.0 0.0 -1.0
  outer loop
    vertex -108.029703905521 -277.14586372272 -1.61693719746836e-011
    vertex -107.279703905523 -281.475990741642 -1.61693719746836e-011
    vertex -108.029703905524 -285.806117760564 -1.61693719746836e-011
  endloop
endfacet
facet normal -0.0 0.0 -1.0
  outer loop
    vertex -108.029703905521 -277.14586372272 -1.61693719746836e-011
    vertex -108.029703905524 -285.806117760564 -1.61693719746836e-011
    vertex -109.065237811456 -285.011524647574 -1.61693719746836e-011
  endloop
endfacet
facet normal -0.0 0.0 -1.0
  outer loop
    vertex -108.029703905521 -277.14586372272 -1.61693719746836e-011
    vertex -109.065237811456 -285.011524647574 -1.61693719746836e-011
    vertex -109.065237811454 -277.940456835709 -1.61693719746836e-011
  endloop
endfacet
facet normal -0.0 0.0 -1.0
  outer loop
    vertex -109.065237811454 -277.940456835709 -1.61693719746836e-011
    vertex -109.065237811456 -285.011524647574 -1.61693719746836e-011
    vertex -109.859830924445 -283.975990741641 -1.61693719746836e-011
  endloop
endfacet
facet normal -0.0 0.0 -1.0
  outer loop
    vertex -109.065237811454 -277.940456835709 -1.61693719746836e-011
    vertex -109.859830924445 -283.975990741641 -1.61693719746836e-011
    vertex -109.859830924444 -278.975990741641 -1.61693719746836e-011
  endloop
endfacet
facet normal -0.0 0.0 -1.0
  outer loop
    vertex -109.859830924444 -278.975990741641 -1.61693719746836e-011
    vertex -109.859830924445 -283.975990741641 -1.61693719746836e-011
    vertex -110.359333036968 -282.770085967154 -1.61693719746836e-011
  endloop
endfacet
facet normal -0.0 0.0 -1.0
  outer loop
    vertex -109.859830924444 -278.975990741641 -1.61693719746836e-011
    vertex -110.359333036968 -282.770085967154 -1.61693719746836e-011
    vertex -110.359333036967 -280.181895516129 -1.61693719746836e-011
  endloop
endfacet
facet normal -0.0 0.0 -1.0
  outer loop
    vertex -110.359333036967 -280.181895516129 -1.61693719746836e-011
    vertex -110.359333036968 -282.770085967154 -1.61693719746836e-011
    vertex -110.529703905523 -281.475990741641 -1.61693719746836e-011
  endloop
endfacet
facet normal -0.382683432365352 -0.923879532511178 0.0
  outer loop
    vertex -106.823799131036 -286.305619873087 3.59999999998384
    vertex -108.029703905524 -285.806117760564 -1.61693719746836e-011
    vertex -106.823799131036 -286.305619873087 -1.61693719746836e-011
  endloop
endfacet
facet normal -0.382683432365352 -0.923879532511178 0.0
  outer loop
    vertex -108.029703905524 -285.806117760564 -1.61693719746836e-011
    vertex -106.823799131036 -286.305619873087 3.59999999998384
    vertex -108.029703905524 -285.806117760564 3.59999999998384
  endloop
endfacet
facet normal -0.130526192219801 0.991444861373843 0.0
  outer loop
    vertex -105.529703905523 -283.225990741643 1.99999999998383
    vertex -105.076770576594 -283.166360937649 -1.61693719746836e-011
    vertex -105.529703905523 -283.225990741643 -1.61693719746836e-011
  endloop
endfacet
facet normal -0.130526192219801 0.991444861373843 0.0
  outer loop
    vertex -105.076770576594 -283.166360937649 -1.61693719746836e-011
    vertex -105.529703905523 -283.225990741643 1.99999999998383
    vertex -105.076770576594 -283.166360937649 1.99999999998383
  endloop
endfacet
facet normal 0.382683432364823 -0.923879532511397 0.0
  outer loop
    vertex -103.029703905524 -285.806117760565 1.99999999998383
    vertex -104.235608680011 -286.305619873088 -1.61693719746836e-011
    vertex -103.029703905524 -285.806117760565 -1.61693719746836e-011
  endloop
endfacet
facet normal 0.382683432364823 -0.923879532511397 0.0
  outer loop
    vertex -104.235608680011 -286.305619873088 -1.61693719746836e-011
    vertex -103.029703905524 -285.806117760565 1.99999999998383
    vertex -104.235608680011 -286.305619873088 1.99999999998383
  endloop
endfacet
facet normal 0.923879532511178 -0.382683432365352 0.0
  outer loop
    vertex -101.199576886601 -283.975990741644 1.99999999998383
    vertex -100.700074774078 -282.770085967157 -1.61693719746836e-011
    vertex -100.700074774078 -282.770085967157 1.99999999998383
  endloop
endfacet
facet normal 0.923879532511178 -0.382683432365352 0.0
  outer loop
    vertex -100.700074774078 -282.770085967157 -1.61693719746836e-011
    vertex -101.199576886601 -283.975990741644 1.99999999998383
    vertex -101.199576886601 -283.975990741644 -1.61693719746836e-011
  endloop
endfacet
facet normal 0.130526192220373 0.991444861373768 4.32019353619759e-016
  outer loop
    vertex -105.982637234452 -283.166360937648 -1.61693719746836e-011
    vertex -105.888683905523 -283.178730128059 1.99999999998383
    vertex -105.529703905523 -283.225990741643 -1.61693719746836e-011
  endloop
endfacet
facet normal 0.130526192220373 0.991444861373768 4.32019353619759e-016
  outer loop
    vertex -105.888683905523 -283.178730128059 1.99999999998383
    vertex -105.982637234452 -283.166360937648 -1.61693719746836e-011
    vertex -105.982637234452 -283.166360937648 3.59999999998384
  endloop
endfacet
facet normal 0.130526192220373 0.991444861373768 4.32019353619759e-016
  outer loop
    vertex -105.888683905523 -283.178730128059 1.99999999998383
    vertex -105.982637234452 -283.166360937648 3.59999999998384
    vertex -105.888683905523 -283.178730128059 3.59999999998384
  endloop
endfacet
facet normal 0.130526192220373 0.991444861373768 4.32019353619759e-016
  outer loop
    vertex -105.529703905523 -283.225990741643 1.99999999998383
    vertex -105.529703905523 -283.225990741643 -1.61693719746836e-011
    vertex -105.888683905523 -283.178730128059 1.99999999998383
  endloop
endfacet
facet normal 0.382683432365351 0.923879532511179 -0.0
  outer loop
    vertex -106.404703905523 -282.991535198265 3.59999999998384
    vertex -105.982637234452 -283.166360937648 -1.61693719746836e-011
    vertex -106.404703905523 -282.991535198265 -1.61693719746836e-011
  endloop
endfacet
facet normal 0.382683432365351 0.923879532511179 -0.0
  outer loop
    vertex -105.982637234452 -283.166360937648 -1.61693719746836e-011
    vertex -106.404703905523 -282.991535198265 3.59999999998384
    vertex -105.982637234452 -283.166360937648 3.59999999998384
  endloop
endfacet
facet normal 0.608761429008905 0.793353340291094 -0.0
  outer loop
    vertex -106.767140772599 -282.713427608719 3.59999999998384
    vertex -106.404703905523 -282.991535198265 -1.61693719746836e-011
    vertex -106.767140772599 -282.713427608719 -1.61693719746836e-011
  endloop
endfacet
facet normal 0.608761429008905 0.793353340291094 -0.0
  outer loop
    vertex -106.404703905523 -282.991535198265 -1.61693719746836e-011
    vertex -106.767140772599 -282.713427608719 3.59999999998384
    vertex -106.404703905523 -282.991535198265 3.59999999998384
  endloop
endfacet
facet normal 0.79335334029106 -0.608761429008949 0.0
  outer loop
    vertex -101.994169999591 -285.011524647576 1.99999999998383
    vertex -101.199576886601 -283.975990741644 -1.61693719746836e-011
    vertex -101.199576886601 -283.975990741644 1.99999999998383
  endloop
endfacet
facet normal 0.79335334029106 -0.608761429008949 0.0
  outer loop
    vertex -101.199576886601 -283.975990741644 -1.61693719746836e-011
    vertex -101.994169999591 -285.011524647576 1.99999999998383
    vertex -101.994169999591 -285.011524647576 -1.61693719746836e-011
  endloop
endfacet
facet normal 0.923879532511392 0.382683432364836 -0.0
  outer loop
    vertex -100.700074774077 -280.181895516131 1.99999999998383
    vertex -101.1995768866 -278.975990741644 -1.61693719746836e-011
    vertex -101.1995768866 -278.975990741644 1.99999999998383
  endloop
endfacet
facet normal 0.923879532511392 0.382683432364836 -0.0
  outer loop
    vertex -101.1995768866 -278.975990741644 -1.61693719746836e-011
    vertex -100.700074774077 -280.181895516131 1.99999999998383
    vertex -100.700074774077 -280.181895516131 -1.61693719746836e-011
  endloop
endfacet
facet normal 0.130526192219808 -0.991444861373842 0.0
  outer loop
    vertex -104.235608680011 -286.305619873088 1.99999999998383
    vertex -105.529703905524 -286.475990741643 -1.61693719746836e-011
    vertex -104.235608680011 -286.305619873088 -1.61693719746836e-011
  endloop
endfacet
facet normal 0.130526192219808 -0.991444861373842 0.0
  outer loop
    vertex -105.529703905524 -286.475990741643 -1.61693719746836e-011
    vertex -104.235608680011 -286.305619873088 1.99999999998383
    vertex -105.529703905524 -286.475990741643 1.99999999998383
  endloop
endfacet
facet normal 0.382683432365352 0.923879532511178 -0.0
  outer loop
    vertex -104.235608680009 -276.646361610198 1.99999999998383
    vertex -103.029703905521 -277.145863722721 -1.61693719746836e-011
    vertex -104.235608680009 -276.646361610198 -1.61693719746836e-011
  endloop
endfacet
facet normal 0.382683432365352 0.923879532511178 -0.0
  outer loop
    vertex -103.029703905521 -277.145863722721 -1.61693719746836e-011
    vertex -104.235608680009 -276.646361610198 1.99999999998383
    vertex -103.029703905521 -277.145863722721 1.99999999998383
  endloop
endfacet
facet normal -0.130526192219775 0.991444861373847 6.07991113982703e-016
  outer loop
    vertex -106.823799131034 -276.646361610197 3.59999999998384
    vertex -105.529703905521 -276.475990741643 -1.61693719746836e-011
    vertex -106.823799131034 -276.646361610197 -1.61693719746836e-011
  endloop
endfacet
facet normal -0.130526192219775 0.991444861373847 6.07991113982703e-016
  outer loop
    vertex -105.529703905521 -276.475990741643 -1.61693719746836e-011
    vertex -106.823799131034 -276.646361610197 3.59999999998384
    vertex -105.888683905521 -276.523251355226 1.99999999998383
  endloop
endfacet
facet normal -0.130526192219775 0.991444861373847 6.07991113982703e-016
  outer loop
    vertex -105.888683905521 -276.523251355226 1.99999999998383
    vertex -106.823799131034 -276.646361610197 3.59999999998384
    vertex -105.888683905521 -276.523251355226 3.59999999998384
  endloop
endfacet
facet normal -0.130526192219775 0.991444861373847 6.07991113982703e-016
  outer loop
    vertex -105.529703905521 -276.475990741643 1.99999999998383
    vertex -105.529703905521 -276.475990741643 -1.61693719746836e-011
    vertex -105.888683905521 -276.523251355226 1.99999999998383
  endloop
endfacet
facet normal 0.991444861373773 -0.130526192220338 0.0
  outer loop
    vertex -100.700074774078 -282.770085967157 1.99999999998383
    vertex -100.529703905523 -281.475990741644 -1.61693719746836e-011
    vertex -100.529703905523 -281.475990741644 1.99999999998383
  endloop
endfacet
facet normal 0.991444861373773 -0.130526192220338 0.0
  outer loop
    vertex -100.529703905523 -281.475990741644 -1.61693719746836e-011
    vertex -100.700074774078 -282.770085967157 1.99999999998383
    vertex -100.700074774078 -282.770085967157 -1.61693719746836e-011
  endloop
endfacet
facet normal -0.608761429008484 0.793353340291417 0.0
  outer loop
    vertex -109.065237811454 -277.940456835709 3.59999999998384
    vertex -108.029703905521 -277.14586372272 -1.61693719746836e-011
    vertex -109.065237811454 -277.940456835709 -1.61693719746836e-011
  endloop
endfacet
facet normal -0.608761429008484 0.793353340291417 0.0
  outer loop
    vertex -108.029703905521 -277.14586372272 -1.61693719746836e-011
    vertex -109.065237811454 -277.940456835709 3.59999999998384
    vertex -108.029703905521 -277.14586372272 3.59999999998384
  endloop
endfacet
facet normal 9.70556335432011e-017 -1.83195769606546e-017 1.0
  outer loop
    vertex -106.823799131034 -276.646361610197 3.59999999998384
    vertex -105.888683905522 -279.773251355226 3.59999999998384
    vertex -105.888683905521 -276.523251355226 3.59999999998384
  endloop
endfacet
facet normal 9.70556335432011e-017 -1.83195769606546e-017 1.0
  outer loop
    vertex -105.888683905522 -279.773251355226 3.59999999998384
    vertex -106.823799131034 -276.646361610197 3.59999999998384
    vertex -105.982637234451 -279.785620545637 3.59999999998384
  endloop
endfacet
facet normal 9.70556335432011e-017 -1.83195769606546e-017 1.0
  outer loop
    vertex -105.982637234451 -279.785620545637 3.59999999998384
    vertex -106.823799131034 -276.646361610197 3.59999999998384
    vertex -106.404703905522 -279.96044628502 3.59999999998384
  endloop
endfacet
facet normal 9.70556335432011e-017 -1.83195769606546e-017 1.0
  outer loop
    vertex -106.404703905522 -279.96044628502 3.59999999998384
    vertex -106.823799131034 -276.646361610197 3.59999999998384
    vertex -106.767140772599 -280.238553874566 3.59999999998384
  endloop
endfacet
facet normal 9.70556335432011e-017 -1.83195769606546e-017 1.0
  outer loop
    vertex -106.767140772599 -280.238553874566 3.59999999998384
    vertex -106.823799131034 -276.646361610197 3.59999999998384
    vertex -107.045248362145 -280.600990741642 3.59999999998384
  endloop
endfacet
facet normal 9.70556335432011e-017 -1.83195769606546e-017 1.0
  outer loop
    vertex -107.045248362145 -280.600990741642 3.59999999998384
    vertex -106.823799131034 -276.646361610197 3.59999999998384
    vertex -108.029703905521 -277.14586372272 3.59999999998384
  endloop
endfacet
facet normal 9.70556335432011e-017 -1.83195769606546e-017 1.0
  outer loop
    vertex -107.045248362145 -280.600990741642 3.59999999998384
    vertex -108.029703905521 -277.14586372272 3.59999999998384
    vertex -107.220074101528 -281.023057412713 3.59999999998384
  endloop
endfacet
facet normal 9.70556335432011e-017 -1.83195769606546e-017 1.0
  outer loop
    vertex -107.220074101528 -281.023057412713 3.59999999998384
    vertex -108.029703905521 -277.14586372272 3.59999999998384
    vertex -107.279703905523 -281.475990741642 3.59999999998384
  endloop
endfacet
facet normal 9.70556335432011e-017 -1.83195769606546e-017 1.0
  outer loop
    vertex -105.982637234452 -283.166360937648 3.59999999998384
    vertex -105.888683905524 -286.428730128059 3.59999999998383
    vertex -105.888683905523 -283.178730128059 3.59999999998384
  endloop
endfacet
facet normal 9.70556335432011e-017 -1.83195769606546e-017 1.0
  outer loop
    vertex -105.888683905524 -286.428730128059 3.59999999998383
    vertex -105.982637234452 -283.166360937648 3.59999999998384
    vertex -106.823799131036 -286.305619873087 3.59999999998384
  endloop
endfacet
facet normal 9.70556335432011e-017 -1.83195769606546e-017 1.0
  outer loop
    vertex -106.823799131036 -286.305619873087 3.59999999998384
    vertex -105.982637234452 -283.166360937648 3.59999999998384
    vertex -106.404703905523 -282.991535198265 3.59999999998384
  endloop
endfacet
facet normal 9.70556335432011e-017 -1.83195769606546e-017 1.0
  outer loop
    vertex -106.823799131036 -286.305619873087 3.59999999998384
    vertex -106.404703905523 -282.991535198265 3.59999999998384
    vertex -106.767140772599 -282.713427608719 3.59999999998384
  endloop
endfacet
facet normal 9.70556335432011e-017 -1.83195769606546e-017 1.0
  outer loop
    vertex -106.823799131036 -286.305619873087 3.59999999998384
    vertex -106.767140772599 -282.713427608719 3.59999999998384
    vertex -107.045248362146 -282.350990741642 3.59999999998384
  endloop
endfacet
facet normal 9.70556335432011e-017 -1.83195769606546e-017 1.0
  outer loop
    vertex -106.823799131036 -286.305619873087 3.59999999998384
    vertex -107.045248362146 -282.350990741642 3.59999999998384
    vertex -108.029703905524 -285.806117760564 3.59999999998384
  endloop
endfacet
facet normal 9.70556335432011e-017 -1.83195769606546e-017 1.0
  outer loop
    vertex -108.029703905524 -285.806117760564 3.59999999998384
    vertex -107.045248362146 -282.350990741642 3.59999999998384
    vertex -107.220074101529 -281.928924070572 3.59999999998384
  endloop
endfacet
facet normal 9.70556335432011e-017 -1.83195769606546e-017 1.0
  outer loop
    vertex -108.029703905524 -285.806117760564 3.59999999998384
    vertex -107.220074101529 -281.928924070572 3.59999999998384
    vertex -107.279703905523 -281.475990741642 3.59999999998384
  endloop
endfacet
facet normal 9.70556335432011e-017 -1.83195769606546e-017 1.0
  outer loop
    vertex -108.029703905524 -285.806117760564 3.59999999998384
    vertex -107.279703905523 -281.475990741642 3.59999999998384
    vertex -108.029703905521 -277.14586372272 3.59999999998384
  endloop
endfacet
facet normal 9.70556335432011e-017 -1.83195769606546e-017 1.0
  outer loop
    vertex -108.029703905524 -285.806117760564 3.59999999998384
    vertex -108.029703905521 -277.14586372272 3.59999999998384
    vertex -109.065237811454 -277.940456835709 3.59999999998384
  endloop
endfacet
facet normal 9.70556335432011e-017 -1.83195769606546e-017 1.0
  outer loop
    vertex -108.029703905524 -285.806117760564 3.59999999998384
    vertex -109.065237811454 -277.940456835709 3.59999999998384
    vertex -109.065237811456 -285.011524647574 3.59999999998384
  endloop
endfacet
facet normal 9.70556335432011e-017 -1.83195769606546e-017 1.0
  outer loop
    vertex -109.065237811456 -285.011524647574 3.59999999998384
    vertex -109.065237811454 -277.940456835709 3.59999999998384
    vertex -109.859830924444 -278.975990741641 3.59999999998384
  endloop
endfacet
facet normal 9.70556335432011e-017 -1.83195769606546e-017 1.0
  outer loop
    vertex -109.065237811456 -285.011524647574 3.59999999998384
    vertex -109.859830924444 -278.975990741641 3.59999999998384
    vertex -109.859830924445 -283.975990741641 3.59999999998384
  endloop
endfacet
facet normal 9.70556335432011e-017 -1.83195769606546e-017 1.0
  outer loop
    vertex -109.859830924445 -283.975990741641 3.59999999998384
    vertex -109.859830924444 -278.975990741641 3.59999999998384
    vertex -110.359333036967 -280.181895516129 3.59999999998384
  endloop
endfacet
facet normal 9.70556335432011e-017 -1.83195769606546e-017 1.0
  outer loop
    vertex -109.859830924445 -283.975990741641 3.59999999998384
    vertex -110.359333036967 -280.181895516129 3.59999999998384
    vertex -110.359333036968 -282.770085967154 3.59999999998384
  endloop
endfacet
facet normal 9.70556335432011e-017 -1.83195769606546e-017 1.0
  outer loop
    vertex -110.359333036968 -282.770085967154 3.59999999998384
    vertex -110.359333036967 -280.181895516129 3.59999999998384
    vertex -110.529703905523 -281.475990741641 3.59999999998384
  endloop
endfacet
facet normal -0.923879532511392 -0.382683432364836 0.0
  outer loop
    vertex -109.859830924445 -283.975990741641 -1.61693719746836e-011
    vertex -110.359333036968 -282.770085967154 3.59999999998384
    vertex -110.359333036968 -282.770085967154 -1.61693719746836e-011
  endloop
endfacet
facet normal -0.923879532511392 -0.382683432364836 0.0
  outer loop
    vertex -110.359333036968 -282.770085967154 3.59999999998384
    vertex -109.859830924445 -283.975990741641 -1.61693719746836e-011
    vertex -109.859830924445 -283.975990741641 3.59999999998384
  endloop
endfacet
facet normal -0.382683432364823 0.923879532511397 0.0
  outer loop
    vertex -108.029703905521 -277.14586372272 3.59999999998384
    vertex -106.823799131034 -276.646361610197 -1.61693719746836e-011
    vertex -108.029703905521 -277.14586372272 -1.61693719746836e-011
  endloop
endfacet
facet normal -0.382683432364823 0.923879532511397 0.0
  outer loop
    vertex -106.823799131034 -276.646361610197 -1.61693719746836e-011
    vertex -108.029703905521 -277.14586372272 3.59999999998384
    vertex -106.823799131034 -276.646361610197 3.59999999998384
  endloop
endfacet
facet normal 0.130526192220341 0.991444861373772 -0.0
  outer loop
    vertex -105.529703905521 -276.475990741643 1.99999999998383
    vertex -104.235608680009 -276.646361610198 -1.61693719746836e-011
    vertex -105.529703905521 -276.475990741643 -1.61693719746836e-011
  endloop
endfacet
facet normal 0.130526192220341 0.991444861373772 -0.0
  outer loop
    vertex -104.235608680009 -276.646361610198 -1.61693719746836e-011
    vertex -105.529703905521 -276.475990741643 1.99999999998383
    vertex -104.235608680009 -276.646361610198 1.99999999998383
  endloop
endfacet
facet normal 0.793353340291421 0.608761429008478 -0.0
  outer loop
    vertex -101.1995768866 -278.975990741644 1.99999999998383
    vertex -101.994169999589 -277.940456835711 -1.61693719746836e-011
    vertex -101.994169999589 -277.940456835711 1.99999999998383
  endloop
endfacet
facet normal 0.793353340291421 0.608761429008478 -0.0
  outer loop
    vertex -101.994169999589 -277.940456835711 -1.61693719746836e-011
    vertex -101.1995768866 -278.975990741644 1.99999999998383
    vertex -101.1995768866 -278.975990741644 -1.61693719746836e-011
  endloop
endfacet
facet normal 0.608761429008938 0.793353340291069 -0.0
  outer loop
    vertex -103.029703905521 -277.145863722721 1.99999999998383
    vertex -101.994169999589 -277.940456835711 -1.61693719746836e-011
    vertex -103.029703905521 -277.145863722721 -1.61693719746836e-011
  endloop
endfacet
facet normal 0.608761429008938 0.793353340291069 -0.0
  outer loop
    vertex -101.994169999589 -277.940456835711 -1.61693719746836e-011
    vertex -103.029703905521 -277.145863722721 1.99999999998383
    vertex -101.994169999589 -277.940456835711 1.99999999998383
  endloop
endfacet
facet normal -0.991444861373773 0.130526192220338 0.0
  outer loop
    vertex -110.529703905523 -281.475990741641 -1.61693719746836e-011
    vertex -110.359333036967 -280.181895516129 3.59999999998384
    vertex -110.359333036967 -280.181895516129 -1.61693719746836e-011
  endloop
endfacet
facet normal -0.991444861373773 0.130526192220338 0.0
  outer loop
    vertex -110.359333036967 -280.181895516129 3.59999999998384
    vertex -110.529703905523 -281.475990741641 -1.61693719746836e-011
    vertex -110.529703905523 -281.475990741641 3.59999999998384
  endloop
endfacet
facet normal -0.608761429008938 -0.793353340291069 0.0
  outer loop
    vertex -108.029703905524 -285.806117760564 3.59999999998384
    vertex -109.065237811456 -285.011524647574 -1.61693719746836e-011
    vertex -108.029703905524 -285.806117760564 -1.61693719746836e-011
  endloop
endfacet
facet normal -0.608761429008938 -0.793353340291069 0.0
  outer loop
    vertex -109.065237811456 -285.011524647574 -1.61693719746836e-011
    vertex -108.029703905524 -285.806117760564 3.59999999998384
    vertex -109.065237811456 -285.011524647574 3.59999999998384
  endloop
endfacet
facet normal -0.130526192220376 -0.991444861373768 0.0
  outer loop
    vertex -105.529703905524 -286.475990741643 1.99999999998383
    vertex -106.823799131036 -286.305619873087 -1.61693719746836e-011
    vertex -105.529703905524 -286.475990741643 -1.61693719746836e-011
  endloop
endfacet
facet normal -0.130526192220376 -0.991444861373768 0.0
  outer loop
    vertex -106.823799131036 -286.305619873087 -1.61693719746836e-011
    vertex -105.529703905524 -286.475990741643 1.99999999998383
    vertex -105.888683905524 -286.428730128059 1.99999999998383
  endloop
endfacet
facet normal -0.130526192220376 -0.991444861373768 0.0
  outer loop
    vertex -105.888683905524 -286.428730128059 1.99999999998383
    vertex -106.823799131036 -286.305619873087 3.59999999998384
    vertex -106.823799131036 -286.305619873087 -1.61693719746836e-011
  endloop
endfacet
facet normal -0.130526192220376 -0.991444861373768 0.0
  outer loop
    vertex -106.823799131036 -286.305619873087 3.59999999998384
    vertex -105.888683905524 -286.428730128059 1.99999999998383
    vertex -105.888683905524 -286.428730128059 3.59999999998383
  endloop
endfacet
facet normal -0.991444861373847 -0.130526192219771 0.0
  outer loop
    vertex -110.359333036968 -282.770085967154 -1.61693719746836e-011
    vertex -110.529703905523 -281.475990741641 3.59999999998384
    vertex -110.529703905523 -281.475990741641 -1.61693719746836e-011
  endloop
endfacet
facet normal -0.991444861373847 -0.130526192219771 0.0
  outer loop
    vertex -110.529703905523 -281.475990741641 3.59999999998384
    vertex -110.359333036968 -282.770085967154 -1.61693719746836e-011
    vertex -110.359333036968 -282.770085967154 3.59999999998384
  endloop
endfacet
facet normal 0.608761429008484 -0.793353340291417 0.0
  outer loop
    vertex -101.994169999591 -285.011524647576 1.99999999998383
    vertex -103.029703905524 -285.806117760565 -1.61693719746836e-011
    vertex -101.994169999591 -285.011524647576 -1.61693719746836e-011
  endloop
endfacet
facet normal 0.608761429008484 -0.793353340291417 0.0
  outer loop
    vertex -103.029703905524 -285.806117760565 -1.61693719746836e-011
    vertex -101.994169999591 -285.011524647576 1.99999999998383
    vertex -103.029703905524 -285.806117760565 1.99999999998383
  endloop
endfacet
facet normal 0.991444861373847 0.130526192219771 -0.0
  outer loop
    vertex -100.529703905523 -281.475990741644 1.99999999998383
    vertex -100.700074774077 -280.181895516131 -1.61693719746836e-011
    vertex -100.700074774077 -280.181895516131 1.99999999998383
  endloop
endfacet
facet normal 0.991444861373847 0.130526192219771 -0.0
  outer loop
    vertex -100.700074774077 -280.181895516131 -1.61693719746836e-011
    vertex -100.529703905523 -281.475990741644 1.99999999998383
    vertex -100.529703905523 -281.475990741644 -1.61693719746836e-011
  endloop
endfacet
facet normal -0.79335334029106 0.608761429008949 0.0
  outer loop
    vertex -109.859830924444 -278.975990741641 -1.61693719746836e-011
    vertex -109.065237811454 -277.940456835709 3.59999999998384
    vertex -109.065237811454 -277.940456835709 -1.61693719746836e-011
  endloop
endfacet
facet normal -0.79335334029106 0.608761429008949 0.0
  outer loop
    vertex -109.065237811454 -277.940456835709 3.59999999998384
    vertex -109.859830924444 -278.975990741641 -1.61693719746836e-011
    vertex -109.859830924444 -278.975990741641 3.59999999998384
  endloop
endfacet
facet normal -0.923879532511178 0.382683432365352 0.0
  outer loop
    vertex -110.359333036967 -280.181895516129 -1.61693719746836e-011
    vertex -109.859830924444 -278.975990741641 3.59999999998384
    vertex -109.859830924444 -278.975990741641 -1.61693719746836e-011
  endloop
endfacet
facet normal -0.923879532511178 0.382683432365352 0.0
  outer loop
    vertex -109.859830924444 -278.975990741641 3.59999999998384
    vertex -110.359333036967 -280.181895516129 -1.61693719746836e-011
    vertex -110.359333036967 -280.181895516129 3.59999999998384
  endloop
endfacet
facet normal -0.793353340291421 -0.608761429008478 0.0
  outer loop
    vertex -109.065237811456 -285.011524647574 -1.61693719746836e-011
    vertex -109.859830924445 -283.975990741641 3.59999999998384
    vertex -109.859830924445 -283.975990741641 -1.61693719746836e-011
  endloop
endfacet
facet normal -0.793353340291421 -0.608761429008478 0.0
  outer loop
    vertex -109.859830924445 -283.975990741641 3.59999999998384
    vertex -109.065237811456 -285.011524647574 -1.61693719746836e-011
    vertex -109.065237811456 -285.011524647574 3.59999999998384
  endloop
endfacet
facet normal 0.923879532511171 -0.382683432365369 0.0
  outer loop
    vertex -107.220074101528 -281.023057412713 3.59999999998384
    vertex -107.045248362145 -280.600990741642 -1.61693719746836e-011
    vertex -107.045248362145 -280.600990741642 3.59999999998384
  endloop
endfacet
facet normal 0.923879532511171 -0.382683432365369 0.0
  outer loop
    vertex -107.045248362145 -280.600990741642 -1.61693719746836e-011
    vertex -107.220074101528 -281.023057412713 3.59999999998384
    vertex -107.220074101528 -281.023057412713 -1.61693719746836e-011
  endloop
endfacet
facet normal 0.130526192219806 -0.991444861373843 4.31574202302273e-016
  outer loop
    vertex -105.529703905522 -279.725990741643 1.99999999998383
    vertex -105.982637234451 -279.785620545637 -1.61693719746836e-011
    vertex -105.529703905522 -279.725990741643 -1.61693719746836e-011
  endloop
endfacet
facet normal 0.130526192219806 -0.991444861373843 4.31574202302273e-016
  outer loop
    vertex -105.982637234451 -279.785620545637 -1.61693719746836e-011
    vertex -105.529703905522 -279.725990741643 1.99999999998383
    vertex -105.888683905522 -279.773251355226 1.99999999998383
  endloop
endfacet
facet normal 0.130526192219806 -0.991444861373843 4.31574202302273e-016
  outer loop
    vertex -105.888683905522 -279.773251355226 1.99999999998383
    vertex -105.982637234451 -279.785620545637 3.59999999998384
    vertex -105.982637234451 -279.785620545637 -1.61693719746836e-011
  endloop
endfacet
facet normal 0.130526192219806 -0.991444861373843 4.31574202302273e-016
  outer loop
    vertex -105.982637234451 -279.785620545637 3.59999999998384
    vertex -105.888683905522 -279.773251355226 1.99999999998383
    vertex -105.888683905522 -279.773251355226 3.59999999998384
  endloop
endfacet
facet normal 0.92387953251139 0.38268343236484 -0.0
  outer loop
    vertex -107.045248362146 -282.350990741642 3.59999999998384
    vertex -107.220074101529 -281.928924070572 -1.61693719746836e-011
    vertex -107.220074101529 -281.928924070572 3.59999999998384
  endloop
endfacet
facet normal 0.92387953251139 0.38268343236484 -0.0
  outer loop
    vertex -107.220074101529 -281.928924070572 -1.61693719746836e-011
    vertex -107.045248362146 -282.350990741642 3.59999999998384
    vertex -107.045248362146 -282.350990741642 -1.61693719746836e-011
  endloop
endfacet
facet normal -0.923879532511171 0.382683432365369 0.0
  outer loop
    vertex -104.0141594489 -282.350990741643 -1.61693719746836e-011
    vertex -103.839333709517 -281.928924070573 1.99999999998383
    vertex -103.839333709517 -281.928924070573 -1.61693719746836e-011
  endloop
endfacet
facet normal -0.923879532511171 0.382683432365369 0.0
  outer loop
    vertex -103.839333709517 -281.928924070573 1.99999999998383
    vertex -104.0141594489 -282.350990741643 -1.61693719746836e-011
    vertex -104.0141594489 -282.350990741643 1.99999999998383
  endloop
endfacet
facet normal -0.382683432365351 -0.923879532511179 0.0
  outer loop
    vertex -104.654703905522 -279.96044628502 1.99999999998383
    vertex -105.076770576593 -279.785620545637 -1.61693719746836e-011
    vertex -104.654703905522 -279.96044628502 -1.61693719746836e-011
  endloop
endfacet
facet normal -0.382683432365351 -0.923879532511179 0.0
  outer loop
    vertex -105.076770576593 -279.785620545637 -1.61693719746836e-011
    vertex -104.654703905522 -279.96044628502 1.99999999998383
    vertex -105.076770576593 -279.785620545637 1.99999999998383
  endloop
endfacet
facet normal 0.382683432364822 -0.923879532511398 0.0
  outer loop
    vertex -105.982637234451 -279.785620545637 3.59999999998384
    vertex -106.404703905522 -279.96044628502 -1.61693719746836e-011
    vertex -105.982637234451 -279.785620545637 -1.61693719746836e-011
  endloop
endfacet
facet normal 0.382683432364822 -0.923879532511398 0.0
  outer loop
    vertex -106.404703905522 -279.96044628502 -1.61693719746836e-011
    vertex -105.982637234451 -279.785620545637 3.59999999998384
    vertex -106.404703905522 -279.96044628502 3.59999999998384
  endloop
endfacet
facet normal 0.991444861373776 -0.130526192220312 0.0
  outer loop
    vertex -107.279703905523 -281.475990741642 3.59999999998384
    vertex -107.220074101528 -281.023057412713 -1.61693719746836e-011
    vertex -107.220074101528 -281.023057412713 3.59999999998384
  endloop
endfacet
facet normal 0.991444861373776 -0.130526192220312 0.0
  outer loop
    vertex -107.220074101528 -281.023057412713 -1.61693719746836e-011
    vertex -107.279703905523 -281.475990741642 3.59999999998384
    vertex -107.279703905523 -281.475990741642 -1.61693719746836e-011
  endloop
endfacet
facet normal -0.991444861373851 -0.130526192219745 0.0
  outer loop
    vertex -103.779703905523 -281.475990741643 -1.61693719746836e-011
    vertex -103.839333709517 -281.023057412714 1.99999999998383
    vertex -103.839333709517 -281.023057412714 -1.61693719746836e-011
  endloop
endfacet
facet normal -0.991444861373851 -0.130526192219745 0.0
  outer loop
    vertex -103.839333709517 -281.023057412714 1.99999999998383
    vertex -103.779703905523 -281.475990741643 -1.61693719746836e-011
    vertex -103.779703905523 -281.475990741643 1.99999999998383
  endloop
endfacet
facet normal -0.92387953251139 -0.38268343236484 0.0
  outer loop
    vertex -103.839333709517 -281.023057412714 -1.61693719746836e-011
    vertex -104.0141594489 -280.600990741643 1.99999999998383
    vertex -104.0141594489 -280.600990741643 -1.61693719746836e-011
  endloop
endfacet
facet normal -0.92387953251139 -0.38268343236484 0.0
  outer loop
    vertex -104.0141594489 -280.600990741643 1.99999999998383
    vertex -103.839333709517 -281.023057412714 -1.61693719746836e-011
    vertex -103.839333709517 -281.023057412714 1.99999999998383
  endloop
endfacet
facet normal -0.382683432364822 0.923879532511398 0.0
  outer loop
    vertex -105.076770576594 -283.166360937649 1.99999999998383
    vertex -104.654703905523 -282.991535198266 -1.61693719746836e-011
    vertex -105.076770576594 -283.166360937649 -1.61693719746836e-011
  endloop
endfacet
facet normal -0.382683432364822 0.923879532511398 0.0
  outer loop
    vertex -104.654703905523 -282.991535198266 -1.61693719746836e-011
    vertex -105.076770576594 -283.166360937649 1.99999999998383
    vertex -104.654703905523 -282.991535198266 1.99999999998383
  endloop
endfacet
facet normal -0.793353340291412 -0.60876142900849 0.0
  outer loop
    vertex -104.0141594489 -280.600990741643 -1.61693719746836e-011
    vertex -104.292267038446 -280.238553874566 1.99999999998383
    vertex -104.292267038446 -280.238553874566 -1.61693719746836e-011
  endloop
endfacet
facet normal -0.793353340291412 -0.60876142900849 0.0
  outer loop
    vertex -104.292267038446 -280.238553874566 1.99999999998383
    vertex -104.0141594489 -280.600990741643 -1.61693719746836e-011
    vertex -104.0141594489 -280.600990741643 1.99999999998383
  endloop
endfacet
facet normal -0.991444861373776 0.130526192220312 0.0
  outer loop
    vertex -103.839333709517 -281.928924070573 -1.61693719746836e-011
    vertex -103.779703905523 -281.475990741643 1.99999999998383
    vertex -103.779703905523 -281.475990741643 -1.61693719746836e-011
  endloop
endfacet
facet normal -0.991444861373776 0.130526192220312 0.0
  outer loop
    vertex -103.779703905523 -281.475990741643 1.99999999998383
    vertex -103.839333709517 -281.928924070573 -1.61693719746836e-011
    vertex -103.839333709517 -281.928924070573 1.99999999998383
  endloop
endfacet
facet normal -0.130526192220369 -0.991444861373769 0.0
  outer loop
    vertex -105.076770576593 -279.785620545637 1.99999999998383
    vertex -105.529703905522 -279.725990741643 -1.61693719746836e-011
    vertex -105.076770576593 -279.785620545637 -1.61693719746836e-011
  endloop
endfacet
facet normal -0.130526192220369 -0.991444861373769 0.0
  outer loop
    vertex -105.529703905522 -279.725990741643 -1.61693719746836e-011
    vertex -105.076770576593 -279.785620545637 1.99999999998383
    vertex -105.529703905522 -279.725990741643 1.99999999998383
  endloop
endfacet
facet normal -0.793353340291064 0.608761429008944 0.0
  outer loop
    vertex -104.292267038446 -282.713427608719 -1.61693719746836e-011
    vertex -104.0141594489 -282.350990741643 1.99999999998383
    vertex -104.0141594489 -282.350990741643 -1.61693719746836e-011
  endloop
endfacet
facet normal -0.793353340291064 0.608761429008944 0.0
  outer loop
    vertex -104.0141594489 -282.350990741643 1.99999999998383
    vertex -104.292267038446 -282.713427608719 -1.61693719746836e-011
    vertex -104.292267038446 -282.713427608719 1.99999999998383
  endloop
endfacet
facet normal -0.608761429008451 0.793353340291443 0.0
  outer loop
    vertex -104.654703905523 -282.991535198266 1.99999999998383
    vertex -104.292267038446 -282.713427608719 -1.61693719746836e-011
    vertex -104.654703905523 -282.991535198266 -1.61693719746836e-011
  endloop
endfacet
facet normal -0.608761429008451 0.793353340291443 0.0
  outer loop
    vertex -104.292267038446 -282.713427608719 -1.61693719746836e-011
    vertex -104.654703905523 -282.991535198266 1.99999999998383
    vertex -104.292267038446 -282.713427608719 1.99999999998383
  endloop
endfacet
facet normal -0.608761429008905 -0.793353340291094 0.0
  outer loop
    vertex -104.292267038446 -280.238553874566 1.99999999998383
    vertex -104.654703905522 -279.96044628502 -1.61693719746836e-011
    vertex -104.292267038446 -280.238553874566 -1.61693719746836e-011
  endloop
endfacet
facet normal -0.608761429008905 -0.793353340291094 0.0
  outer loop
    vertex -104.654703905522 -279.96044628502 -1.61693719746836e-011
    vertex -104.292267038446 -280.238553874566 1.99999999998383
    vertex -104.654703905522 -279.96044628502 1.99999999998383
  endloop
endfacet
facet normal 0.991444861373851 0.130526192219745 -0.0
  outer loop
    vertex -107.220074101529 -281.928924070572 3.59999999998384
    vertex -107.279703905523 -281.475990741642 -1.61693719746836e-011
    vertex -107.279703905523 -281.475990741642 3.59999999998384
  endloop
endfacet
facet normal 0.991444861373851 0.130526192219745 -0.0
  outer loop
    vertex -107.279703905523 -281.475990741642 -1.61693719746836e-011
    vertex -107.220074101529 -281.928924070572 3.59999999998384
    vertex -107.220074101529 -281.928924070572 -1.61693719746836e-011
  endloop
endfacet
facet normal 0.793353340291064 -0.608761429008944 0.0
  outer loop
    vertex -107.045248362145 -280.600990741642 3.59999999998384
    vertex -106.767140772599 -280.238553874566 -1.61693719746836e-011
    vertex -106.767140772599 -280.238553874566 3.59999999998384
  endloop
endfacet
facet normal 0.793353340291064 -0.608761429008944 0.0
  outer loop
    vertex -106.767140772599 -280.238553874566 -1.61693719746836e-011
    vertex -107.045248362145 -280.600990741642 3.59999999998384
    vertex -107.045248362145 -280.600990741642 -1.61693719746836e-011
  endloop
endfacet
facet normal 0.793353340291412 0.60876142900849 -0.0
  outer loop
    vertex -106.767140772599 -282.713427608719 3.59999999998384
    vertex -107.045248362146 -282.350990741642 -1.61693719746836e-011
    vertex -107.045248362146 -282.350990741642 3.59999999998384
  endloop
endfacet
facet normal 0.793353340291412 0.60876142900849 -0.0
  outer loop
    vertex -107.045248362146 -282.350990741642 -1.61693719746836e-011
    vertex -106.767140772599 -282.713427608719 3.59999999998384
    vertex -106.767140772599 -282.713427608719 -1.61693719746836e-011
  endloop
endfacet
facet normal 0.608761429008451 -0.793353340291443 0.0
  outer loop
    vertex -106.404703905522 -279.96044628502 3.59999999998384
    vertex -106.767140772599 -280.238553874566 -1.61693719746836e-011
    vertex -106.404703905522 -279.96044628502 -1.61693719746836e-011
  endloop
endfacet
facet normal 0.608761429008451 -0.793353340291443 0.0
  outer loop
    vertex -106.767140772599 -280.238553874566 -1.61693719746836e-011
    vertex -106.404703905522 -279.96044628502 3.59999999998384
    vertex -106.767140772599 -280.238553874566 3.59999999998384
  endloop
endfacet
facet normal -8.46861360574437e-017 -1.42280326412729e-017 1.0
  outer loop
    vertex -100.700074774077 -280.181895516131 1.99999999998383
    vertex -100.700074774078 -282.770085967157 1.99999999998383
    vertex -100.529703905523 -281.475990741644 1.99999999998383
  endloop
endfacet
facet normal -8.46861360574437e-017 -1.42280326412729e-017 1.0
  outer loop
    vertex -100.700074774078 -282.770085967157 1.99999999998383
    vertex -100.700074774077 -280.181895516131 1.99999999998383
    vertex -101.1995768866 -278.975990741644 1.99999999998383
  endloop
endfacet
facet normal -8.46861360574437e-017 -1.42280326412729e-017 1.0
  outer loop
    vertex -100.700074774078 -282.770085967157 1.99999999998383
    vertex -101.1995768866 -278.975990741644 1.99999999998383
    vertex -101.199576886601 -283.975990741644 1.99999999998383
  endloop
endfacet
facet normal -8.46861360574437e-017 -1.42280326412729e-017 1.0
  outer loop
    vertex -101.199576886601 -283.975990741644 1.99999999998383
    vertex -101.1995768866 -278.975990741644 1.99999999998383
    vertex -101.994169999589 -277.940456835711 1.99999999998383
  endloop
endfacet
facet normal -8.46861360574437e-017 -1.42280326412729e-017 1.0
  outer loop
    vertex -101.199576886601 -283.975990741644 1.99999999998383
    vertex -101.994169999589 -277.940456835711 1.99999999998383
    vertex -101.994169999591 -285.011524647576 1.99999999998383
  endloop
endfacet
facet normal -8.46861360574437e-017 -1.42280326412729e-017 1.0
  outer loop
    vertex -101.994169999591 -285.011524647576 1.99999999998383
    vertex -101.994169999589 -277.940456835711 1.99999999998383
    vertex -103.029703905521 -277.145863722721 1.99999999998383
  endloop
endfacet
facet normal -8.46861360574437e-017 -1.42280326412729e-017 1.0
  outer loop
    vertex -101.994169999591 -285.011524647576 1.99999999998383
    vertex -103.029703905521 -277.145863722721 1.99999999998383
    vertex -103.029703905524 -285.806117760565 1.99999999998383
  endloop
endfacet
facet normal -8.46861360574437e-017 -1.42280326412729e-017 1.0
  outer loop
    vertex -103.029703905524 -285.806117760565 1.99999999998383
    vertex -103.029703905521 -277.145863722721 1.99999999998383
    vertex -104.235608680009 -276.646361610198 1.99999999998383
  endloop
endfacet
facet normal -8.46861360574437e-017 -1.42280326412729e-017 1.0
  outer loop
    vertex -103.029703905524 -285.806117760565 1.99999999998383
    vertex -104.235608680009 -276.646361610198 1.99999999998383
    vertex -103.779703905523 -281.475990741643 1.99999999998383
  endloop
endfacet
facet normal -8.46861360574437e-017 -1.42280326412729e-017 1.0
  outer loop
    vertex -103.779703905523 -281.475990741643 1.99999999998383
    vertex -104.235608680009 -276.646361610198 1.99999999998383
    vertex -103.839333709517 -281.023057412714 1.99999999998383
  endloop
endfacet
facet normal -8.46861360574437e-017 -1.42280326412729e-017 1.0
  outer loop
    vertex -103.839333709517 -281.023057412714 1.99999999998383
    vertex -104.235608680009 -276.646361610198 1.99999999998383
    vertex -104.0141594489 -280.600990741643 1.99999999998383
  endloop
endfacet
facet normal -8.46861360574437e-017 -1.42280326412729e-017 1.0
  outer loop
    vertex -104.0141594489 -280.600990741643 1.99999999998383
    vertex -104.235608680009 -276.646361610198 1.99999999998383
    vertex -104.292267038446 -280.238553874566 1.99999999998383
  endloop
endfacet
facet normal -8.46861360574437e-017 -1.42280326412729e-017 1.0
  outer loop
    vertex -104.292267038446 -280.238553874566 1.99999999998383
    vertex -104.235608680009 -276.646361610198 1.99999999998383
    vertex -105.529703905521 -276.475990741643 1.99999999998383
  endloop
endfacet
facet normal -8.46861360574437e-017 -1.42280326412729e-017 1.0
  outer loop
    vertex -104.292267038446 -280.238553874566 1.99999999998383
    vertex -105.529703905521 -276.475990741643 1.99999999998383
    vertex -104.654703905522 -279.96044628502 1.99999999998383
  endloop
endfacet
facet normal -8.46861360574437e-017 -1.42280326412729e-017 1.0
  outer loop
    vertex -104.654703905522 -279.96044628502 1.99999999998383
    vertex -105.529703905521 -276.475990741643 1.99999999998383
    vertex -105.076770576593 -279.785620545637 1.99999999998383
  endloop
endfacet
facet normal -8.46861360574437e-017 -1.42280326412729e-017 1.0
  outer loop
    vertex -105.076770576593 -279.785620545637 1.99999999998383
    vertex -105.529703905521 -276.475990741643 1.99999999998383
    vertex -105.529703905522 -279.725990741643 1.99999999998383
  endloop
endfacet
facet normal -8.46861360574437e-017 -1.42280326412729e-017 1.0
  outer loop
    vertex -105.529703905522 -279.725990741643 1.99999999998383
    vertex -105.529703905521 -276.475990741643 1.99999999998383
    vertex -105.888683905521 -276.523251355226 1.99999999998383
  endloop
endfacet
facet normal -8.46861360574437e-017 -1.42280326412729e-017 1.0
  outer loop
    vertex -105.529703905522 -279.725990741643 1.99999999998383
    vertex -105.888683905521 -276.523251355226 1.99999999998383
    vertex -105.888683905522 -279.773251355226 1.99999999998383
  endloop
endfacet
facet normal -8.46861360574437e-017 -1.42280326412729e-017 1.0
  outer loop
    vertex -103.779703905523 -281.475990741643 1.99999999998383
    vertex -104.235608680011 -286.305619873088 1.99999999998383
    vertex -103.029703905524 -285.806117760565 1.99999999998383
  endloop
endfacet
facet normal -8.46861360574437e-017 -1.42280326412729e-017 1.0
  outer loop
    vertex -104.235608680011 -286.305619873088 1.99999999998383
    vertex -103.779703905523 -281.475990741643 1.99999999998383
    vertex -103.839333709517 -281.928924070573 1.99999999998383
  endloop
endfacet
facet normal -8.46861360574437e-017 -1.42280326412729e-017 1.0
  outer loop
    vertex -104.235608680011 -286.305619873088 1.99999999998383
    vertex -103.839333709517 -281.928924070573 1.99999999998383
    vertex -104.0141594489 -282.350990741643 1.99999999998383
  endloop
endfacet
facet normal -8.46861360574437e-017 -1.42280326412729e-017 1.0
  outer loop
    vertex -104.235608680011 -286.305619873088 1.99999999998383
    vertex -104.0141594489 -282.350990741643 1.99999999998383
    vertex -104.292267038446 -282.713427608719 1.99999999998383
  endloop
endfacet
facet normal -8.46861360574437e-017 -1.42280326412729e-017 1.0
  outer loop
    vertex -104.235608680011 -286.305619873088 1.99999999998383
    vertex -104.292267038446 -282.713427608719 1.99999999998383
    vertex -105.529703905524 -286.475990741643 1.99999999998383
  endloop
endfacet
facet normal -8.46861360574437e-017 -1.42280326412729e-017 1.0
  outer loop
    vertex -105.529703905524 -286.475990741643 1.99999999998383
    vertex -104.292267038446 -282.713427608719 1.99999999998383
    vertex -104.654703905523 -282.991535198266 1.99999999998383
  endloop
endfacet
facet normal -8.46861360574437e-017 -1.42280326412729e-017 1.0
  outer loop
    vertex -105.529703905524 -286.475990741643 1.99999999998383
    vertex -104.654703905523 -282.991535198266 1.99999999998383
    vertex -105.076770576594 -283.166360937649 1.99999999998383
  endloop
endfacet
facet normal -8.46861360574437e-017 -1.42280326412729e-017 1.0
  outer loop
    vertex -105.529703905524 -286.475990741643 1.99999999998383
    vertex -105.076770576594 -283.166360937649 1.99999999998383
    vertex -105.529703905523 -283.225990741643 1.99999999998383
  endloop
endfacet
facet normal -8.46861360574437e-017 -1.42280326412729e-017 1.0
  outer loop
    vertex -105.529703905524 -286.475990741643 1.99999999998383
    vertex -105.529703905523 -283.225990741643 1.99999999998383
    vertex -105.888683905523 -283.178730128059 1.99999999998383
  endloop
endfacet
facet normal -8.46861360574437e-017 -1.42280326412729e-017 1.0
  outer loop
    vertex -105.529703905524 -286.475990741643 1.99999999998383
    vertex -105.888683905523 -283.178730128059 1.99999999998383
    vertex -105.888683905524 -286.428730128059 1.99999999998383
  endloop
endfacet
facet normal 1.0 -2.86222434642269e-013 8.46861360574396e-017
  outer loop
    vertex -105.888683905524 -286.428730128059 3.59999999998383
    vertex -105.888683905523 -283.178730128059 1.99999999998383
    vertex -105.888683905523 -283.178730128059 3.59999999998384
  endloop
endfacet
facet normal 1.0 -2.86222434642269e-013 8.46861360574396e-017
  outer loop
    vertex -105.888683905523 -283.178730128059 1.99999999998383
    vertex -105.888683905524 -286.428730128059 3.59999999998383
    vertex -105.888683905524 -286.428730128059 1.99999999998383
  endloop
endfacet
facet normal 1.0 -2.86222434642269e-013 8.46861360574396e-017
  outer loop
    vertex -105.888683905522 -279.773251355226 3.59999999998384
    vertex -105.888683905521 -276.523251355226 1.99999999998383
    vertex -105.888683905521 -276.523251355226 3.59999999998384
  endloop
endfacet
facet normal 1.0 -2.86222434642269e-013 8.46861360574396e-017
  outer loop
    vertex -105.888683905521 -276.523251355226 1.99999999998383
    vertex -105.888683905522 -279.773251355226 3.59999999998384
    vertex -105.888683905522 -279.773251355226 1.99999999998383
  endloop
endfacet
endsolid Omnidroid
