solid Omnidroid
facet normal 0.0 0.0 -1.0
  outer loop
    vertex -110.359333036967 -280.181895516129 3.59999999998384
    vertex -110.359333036967 -282.770085967155 3.59999999998384
    vertex -110.529703905521 -281.475990741642 3.59999999998384
  endloop
endfacet
facet normal 0.0 0.0 -1.0
  outer loop
    vertex -110.359333036967 -282.770085967155 3.59999999998384
    vertex -110.359333036967 -280.181895516129 3.59999999998384
    vertex -109.859830924444 -278.975990741642 3.59999999998384
  endloop
endfacet
facet normal 0.0 0.0 -1.0
  outer loop
    vertex -110.359333036967 -282.770085967155 3.59999999998384
    vertex -109.859830924444 -278.975990741642 3.59999999998384
    vertex -109.859830924444 -283.975990741642 3.59999999998384
  endloop
endfacet
facet normal 0.0 0.0 -1.0
  outer loop
    vertex -109.859830924444 -283.975990741642 3.59999999998384
    vertex -109.859830924444 -278.975990741642 3.59999999998384
    vertex -109.065237811454 -277.940456835709 3.59999999998384
  endloop
endfacet
facet normal 0.0 0.0 -1.0
  outer loop
    vertex -109.859830924444 -283.975990741642 3.59999999998384
    vertex -109.065237811454 -277.940456835709 3.59999999998384
    vertex -109.065237811454 -285.011524647575 3.59999999998384
  endloop
endfacet
facet normal 0.0 0.0 -1.0
  outer loop
    vertex -109.065237811454 -285.011524647575 3.59999999998384
    vertex -109.065237811454 -277.940456835709 3.59999999998384
    vertex -108.029703905521 -277.14586372272 3.59999999998384
  endloop
endfacet
facet normal 0.0 0.0 -1.0
  outer loop
    vertex -109.065237811454 -285.011524647575 3.59999999998384
    vertex -108.029703905521 -277.14586372272 3.59999999998384
    vertex -108.029703905521 -285.806117760564 3.59999999998384
  endloop
endfacet
facet normal 0.0 0.0 -1.0
  outer loop
    vertex -108.029703905521 -285.806117760564 3.59999999998384
    vertex -108.029703905521 -277.14586372272 3.59999999998384
    vertex -106.823799131034 -276.646361610197 3.59999999998384
  endloop
endfacet
facet normal 0.0 0.0 -1.0
  outer loop
    vertex -108.029703905521 -285.806117760564 3.59999999998384
    vertex -106.823799131034 -276.646361610197 3.59999999998384
    vertex -107.279703905521 -281.475990741642 3.59999999998384
  endloop
endfacet
facet normal 0.0 0.0 -1.0
  outer loop
    vertex -107.279703905521 -281.475990741642 3.59999999998384
    vertex -106.823799131034 -276.646361610197 3.59999999998384
    vertex -107.220074101527 -281.023057412712 3.59999999998384
  endloop
endfacet
facet normal 0.0 0.0 -1.0
  outer loop
    vertex -107.220074101527 -281.023057412712 3.59999999998384
    vertex -106.823799131034 -276.646361610197 3.59999999998384
    vertex -107.045248362144 -280.600990741642 3.59999999998384
  endloop
endfacet
facet normal 0.0 0.0 -1.0
  outer loop
    vertex -107.045248362144 -280.600990741642 3.59999999998384
    vertex -106.823799131034 -276.646361610197 3.59999999998384
    vertex -106.767140772598 -280.238553874565 3.59999999998384
  endloop
endfacet
facet normal 0.0 0.0 -1.0
  outer loop
    vertex -106.767140772598 -280.238553874565 3.59999999998384
    vertex -106.823799131034 -276.646361610197 3.59999999998384
    vertex -105.529703905521 -276.475990741642 3.59999999998384
  endloop
endfacet
facet normal 0.0 0.0 -1.0
  outer loop
    vertex -106.767140772598 -280.238553874565 3.59999999998384
    vertex -105.529703905521 -276.475990741642 3.59999999998384
    vertex -106.404703905521 -279.960446285019 3.59999999998384
  endloop
endfacet
facet normal 0.0 0.0 -1.0
  outer loop
    vertex -106.404703905521 -279.960446285019 3.59999999998384
    vertex -105.529703905521 -276.475990741642 3.59999999998384
    vertex -105.982637234451 -279.785620545636 3.59999999998384
  endloop
endfacet
facet normal 0.0 0.0 -1.0
  outer loop
    vertex -105.982637234451 -279.785620545636 3.59999999998384
    vertex -105.529703905521 -276.475990741642 3.59999999998384
    vertex -105.529703905521 -279.725990741642 3.59999999998384
  endloop
endfacet
facet normal 0.0 0.0 -1.0
  outer loop
    vertex -105.529703905521 -279.725990741642 3.59999999998384
    vertex -105.529703905521 -276.475990741642 3.59999999998384
    vertex -104.235608680009 -276.646361610197 3.59999999998384
  endloop
endfacet
facet normal 0.0 0.0 -1.0
  outer loop
    vertex -105.529703905521 -279.725990741642 3.59999999998384
    vertex -104.235608680009 -276.646361610197 3.59999999998384
    vertex -105.076770576592 -279.785620545636 3.59999999998384
  endloop
endfacet
facet normal 0.0 0.0 -1.0
  outer loop
    vertex -105.076770576592 -279.785620545636 3.59999999998384
    vertex -104.235608680009 -276.646361610197 3.59999999998384
    vertex -104.654703905521 -279.960446285019 3.59999999998384
  endloop
endfacet
facet normal 0.0 0.0 -1.0
  outer loop
    vertex -104.654703905521 -279.960446285019 3.59999999998384
    vertex -104.235608680009 -276.646361610197 3.59999999998384
    vertex -104.292267038445 -280.238553874565 3.59999999998384
  endloop
endfacet
facet normal 0.0 0.0 -1.0
  outer loop
    vertex -104.292267038445 -280.238553874565 3.59999999998384
    vertex -104.235608680009 -276.646361610197 3.59999999998384
    vertex -104.014159448899 -280.600990741642 3.59999999998384
  endloop
endfacet
facet normal 0.0 0.0 -1.0
  outer loop
    vertex -104.014159448899 -280.600990741642 3.59999999998384
    vertex -104.235608680009 -276.646361610197 3.59999999998384
    vertex -103.029703905521 -277.14586372272 3.59999999998384
  endloop
endfacet
facet normal 0.0 0.0 -1.0
  outer loop
    vertex -104.014159448899 -280.600990741642 3.59999999998384
    vertex -103.029703905521 -277.14586372272 3.59999999998384
    vertex -103.839333709515 -281.023057412712 3.59999999998384
  endloop
endfacet
facet normal 0.0 0.0 -1.0
  outer loop
    vertex -103.839333709515 -281.023057412712 3.59999999998384
    vertex -103.029703905521 -277.14586372272 3.59999999998384
    vertex -103.779703905521 -281.475990741642 3.59999999998384
  endloop
endfacet
facet normal 0.0 0.0 -1.0
  outer loop
    vertex -107.279703905521 -281.475990741642 3.59999999998384
    vertex -106.823799131034 -286.305619873087 3.59999999998384
    vertex -108.029703905521 -285.806117760564 3.59999999998384
  endloop
endfacet
facet normal 0.0 0.0 -1.0
  outer loop
    vertex -106.823799131034 -286.305619873087 3.59999999998384
    vertex -107.279703905521 -281.475990741642 3.59999999998384
    vertex -107.220074101527 -281.928924070571 3.59999999998384
  endloop
endfacet
facet normal 0.0 0.0 -1.0
  outer loop
    vertex -106.823799131034 -286.305619873087 3.59999999998384
    vertex -107.220074101527 -281.928924070571 3.59999999998384
    vertex -107.045248362144 -282.350990741642 3.59999999998384
  endloop
endfacet
facet normal 0.0 0.0 -1.0
  outer loop
    vertex -106.823799131034 -286.305619873087 3.59999999998384
    vertex -107.045248362144 -282.350990741642 3.59999999998384
    vertex -106.767140772598 -282.713427608718 3.59999999998384
  endloop
endfacet
facet normal 0.0 0.0 -1.0
  outer loop
    vertex -106.823799131034 -286.305619873087 3.59999999998384
    vertex -106.767140772598 -282.713427608718 3.59999999998384
    vertex -105.529703905521 -286.475990741642 3.59999999998384
  endloop
endfacet
facet normal 0.0 0.0 -1.0
  outer loop
    vertex -105.529703905521 -286.475990741642 3.59999999998384
    vertex -106.767140772598 -282.713427608718 3.59999999998384
    vertex -106.404703905521 -282.991535198265 3.59999999998384
  endloop
endfacet
facet normal 0.0 0.0 -1.0
  outer loop
    vertex -105.529703905521 -286.475990741642 3.59999999998384
    vertex -106.404703905521 -282.991535198265 3.59999999998384
    vertex -105.982637234451 -283.166360937648 3.59999999998384
  endloop
endfacet
facet normal 0.0 0.0 -1.0
  outer loop
    vertex -105.529703905521 -286.475990741642 3.59999999998384
    vertex -105.982637234451 -283.166360937648 3.59999999998384
    vertex -105.529703905521 -283.225990741642 3.59999999998384
  endloop
endfacet
facet normal 0.0 0.0 -1.0
  outer loop
    vertex -105.529703905521 -286.475990741642 3.59999999998384
    vertex -105.529703905521 -283.225990741642 3.59999999998384
    vertex -105.076770576592 -283.166360937648 3.59999999998384
  endloop
endfacet
facet normal 0.0 0.0 -1.0
  outer loop
    vertex -105.529703905521 -286.475990741642 3.59999999998384
    vertex -105.076770576592 -283.166360937648 3.59999999998384
    vertex -104.235608680009 -286.305619873087 3.59999999998384
  endloop
endfacet
facet normal 0.0 0.0 -1.0
  outer loop
    vertex -104.235608680009 -286.305619873087 3.59999999998384
    vertex -105.076770576592 -283.166360937648 3.59999999998384
    vertex -104.654703905521 -282.991535198265 3.59999999998384
  endloop
endfacet
facet normal 0.0 0.0 -1.0
  outer loop
    vertex -104.235608680009 -286.305619873087 3.59999999998384
    vertex -104.654703905521 -282.991535198265 3.59999999998384
    vertex -104.292267038445 -282.713427608718 3.59999999998384
  endloop
endfacet
facet normal 0.0 0.0 -1.0
  outer loop
    vertex -104.235608680009 -286.305619873087 3.59999999998384
    vertex -104.292267038445 -282.713427608718 3.59999999998384
    vertex -104.014159448899 -282.350990741642 3.59999999998384
  endloop
endfacet
facet normal 0.0 0.0 -1.0
  outer loop
    vertex -104.235608680009 -286.305619873087 3.59999999998384
    vertex -104.014159448899 -282.350990741642 3.59999999998384
    vertex -103.029703905521 -285.806117760564 3.59999999998384
  endloop
endfacet
facet normal 0.0 0.0 -1.0
  outer loop
    vertex -103.029703905521 -285.806117760564 3.59999999998384
    vertex -104.014159448899 -282.350990741642 3.59999999998384
    vertex -103.839333709515 -281.928924070571 3.59999999998384
  endloop
endfacet
facet normal 0.0 0.0 -1.0
  outer loop
    vertex -103.029703905521 -285.806117760564 3.59999999998384
    vertex -103.839333709515 -281.928924070571 3.59999999998384
    vertex -103.779703905521 -281.475990741642 3.59999999998384
  endloop
endfacet
facet normal 0.0 0.0 -1.0
  outer loop
    vertex -103.029703905521 -285.806117760564 3.59999999998384
    vertex -103.779703905521 -281.475990741642 3.59999999998384
    vertex -103.029703905521 -277.14586372272 3.59999999998384
  endloop
endfacet
facet normal 0.0 0.0 -1.0
  outer loop
    vertex -103.029703905521 -285.806117760564 3.59999999998384
    vertex -103.029703905521 -277.14586372272 3.59999999998384
    vertex -101.994169999589 -277.940456835709 3.59999999998384
  endloop
endfacet
facet normal 0.0 0.0 -1.0
  outer loop
    vertex -103.029703905521 -285.806117760564 3.59999999998384
    vertex -101.994169999589 -277.940456835709 3.59999999998384
    vertex -101.994169999589 -285.011524647575 3.59999999998384
  endloop
endfacet
facet normal 0.0 0.0 -1.0
  outer loop
    vertex -101.994169999589 -285.011524647575 3.59999999998384
    vertex -101.994169999589 -277.940456835709 3.59999999998384
    vertex -101.199576886599 -278.975990741642 3.59999999998384
  endloop
endfacet
facet normal 0.0 0.0 -1.0
  outer loop
    vertex -101.994169999589 -285.011524647575 3.59999999998384
    vertex -101.199576886599 -278.975990741642 3.59999999998384
    vertex -101.199576886599 -283.975990741642 3.59999999998384
  endloop
endfacet
facet normal 0.0 0.0 -1.0
  outer loop
    vertex -101.199576886599 -283.975990741642 3.59999999998384
    vertex -101.199576886599 -278.975990741642 3.59999999998384
    vertex -100.700074774076 -280.181895516129 3.59999999998384
  endloop
endfacet
facet normal 0.0 0.0 -1.0
  outer loop
    vertex -101.199576886599 -283.975990741642 3.59999999998384
    vertex -100.700074774076 -280.181895516129 3.59999999998384
    vertex -100.700074774076 -282.770085967155 3.59999999998384
  endloop
endfacet
facet normal 0.0 0.0 -1.0
  outer loop
    vertex -100.700074774076 -282.770085967155 3.59999999998384
    vertex -100.700074774076 -280.181895516129 3.59999999998384
    vertex -100.529703905521 -281.475990741642 3.59999999998384
  endloop
endfacet
facet normal 0.382683432365087 0.923879532511288 0.0
  outer loop
    vertex -104.235608680009 -276.646361610197 12.9999999999838
    vertex -103.029703905521 -277.14586372272 3.59999999998384
    vertex -104.235608680009 -276.646361610197 3.59999999998384
  endloop
endfacet
facet normal 0.382683432365087 0.923879532511288 0.0
  outer loop
    vertex -103.029703905521 -277.14586372272 3.59999999998384
    vertex -104.235608680009 -276.646361610197 12.9999999999838
    vertex -103.029703905521 -277.14586372272 12.9999999999838
  endloop
endfacet
facet normal 0.130526192220085 -0.991444861373806 0.0
  outer loop
    vertex -105.529703905521 -279.725990741642 12.9999999999838
    vertex -105.982637234451 -279.785620545636 3.59999999998384
    vertex -105.529703905521 -279.725990741642 3.59999999998384
  endloop
endfacet
facet normal 0.130526192220085 -0.991444861373806 0.0
  outer loop
    vertex -105.982637234451 -279.785620545636 3.59999999998384
    vertex -105.529703905521 -279.725990741642 12.9999999999838
    vertex -105.982637234451 -279.785620545636 12.9999999999838
  endloop
endfacet
facet normal -0.382683432365087 0.923879532511288 0.0
  outer loop
    vertex -108.029703905521 -277.14586372272 12.9999999999838
    vertex -106.823799131034 -276.646361610197 3.59999999998384
    vertex -108.029703905521 -277.14586372272 3.59999999998384
  endloop
endfacet
facet normal -0.382683432365087 0.923879532511288 0.0
  outer loop
    vertex -106.823799131034 -276.646361610197 3.59999999998384
    vertex -108.029703905521 -277.14586372272 12.9999999999838
    vertex -106.823799131034 -276.646361610197 12.9999999999838
  endloop
endfacet
facet normal -0.923879532511288 0.382683432365087 0.0
  outer loop
    vertex -109.859830924444 -278.975990741642 12.9999999999838
    vertex -110.359333036967 -280.181895516129 3.59999999998384
    vertex -110.359333036967 -280.181895516129 12.9999999999838
  endloop
endfacet
facet normal -0.923879532511288 0.382683432365087 0.0
  outer loop
    vertex -110.359333036967 -280.181895516129 3.59999999998384
    vertex -109.859830924444 -278.975990741642 12.9999999999838
    vertex -109.859830924444 -278.975990741642 3.59999999998384
  endloop
endfacet
facet normal -0.130526192220085 -0.991444861373806 -0.0
  outer loop
    vertex -105.076770576592 -279.785620545636 12.9999999999838
    vertex -105.529703905521 -279.725990741642 3.59999999998384
    vertex -105.076770576592 -279.785620545636 3.59999999998384
  endloop
endfacet
facet normal -0.130526192220085 -0.991444861373806 -0.0
  outer loop
    vertex -105.529703905521 -279.725990741642 3.59999999998384
    vertex -105.076770576592 -279.785620545636 12.9999999999838
    vertex -105.529703905521 -279.725990741642 12.9999999999838
  endloop
endfacet
facet normal -0.382683432365086 -0.923879532511288 -0.0
  outer loop
    vertex -104.654703905521 -279.960446285019 12.9999999999838
    vertex -105.076770576592 -279.785620545636 3.59999999998384
    vertex -104.654703905521 -279.960446285019 3.59999999998384
  endloop
endfacet
facet normal -0.382683432365086 -0.923879532511288 -0.0
  outer loop
    vertex -105.076770576592 -279.785620545636 3.59999999998384
    vertex -104.654703905521 -279.960446285019 12.9999999999838
    vertex -105.076770576592 -279.785620545636 12.9999999999838
  endloop
endfacet
facet normal -0.608761429008677 -0.793353340291268 -0.0
  outer loop
    vertex -104.292267038445 -280.238553874565 12.9999999999838
    vertex -104.654703905521 -279.960446285019 3.59999999998384
    vertex -104.292267038445 -280.238553874565 3.59999999998384
  endloop
endfacet
facet normal -0.608761429008677 -0.793353340291268 -0.0
  outer loop
    vertex -104.654703905521 -279.960446285019 3.59999999998384
    vertex -104.292267038445 -280.238553874565 12.9999999999838
    vertex -104.654703905521 -279.960446285019 12.9999999999838
  endloop
endfacet
facet normal -0.793353340291234 0.608761429008722 0.0
  outer loop
    vertex -109.065237811454 -277.940456835709 12.9999999999838
    vertex -109.859830924444 -278.975990741642 3.59999999998384
    vertex -109.859830924444 -278.975990741642 12.9999999999838
  endloop
endfacet
facet normal -0.793353340291234 0.608761429008722 0.0
  outer loop
    vertex -109.859830924444 -278.975990741642 3.59999999998384
    vertex -109.065237811454 -277.940456835709 12.9999999999838
    vertex -109.065237811454 -277.940456835709 3.59999999998384
  endloop
endfacet
facet normal -0.923879532511283 -0.3826834323651 -0.0
  outer loop
    vertex -110.359333036967 -282.770085967155 12.9999999999838
    vertex -109.859830924444 -283.975990741642 3.59999999998384
    vertex -109.859830924444 -283.975990741642 12.9999999999838
  endloop
endfacet
facet normal -0.923879532511283 -0.3826834323651 -0.0
  outer loop
    vertex -109.859830924444 -283.975990741642 3.59999999998384
    vertex -110.359333036967 -282.770085967155 12.9999999999838
    vertex -110.359333036967 -282.770085967155 3.59999999998384
  endloop
endfacet
facet normal -0.130526192220092 0.991444861373805 0.0
  outer loop
    vertex -106.823799131034 -276.646361610197 12.9999999999838
    vertex -105.529703905521 -276.475990741642 3.59999999998384
    vertex -106.823799131034 -276.646361610197 3.59999999998384
  endloop
endfacet
facet normal -0.130526192220092 0.991444861373805 0.0
  outer loop
    vertex -105.529703905521 -276.475990741642 3.59999999998384
    vertex -106.823799131034 -276.646361610197 12.9999999999838
    vertex -105.529703905521 -276.475990741642 12.9999999999838
  endloop
endfacet
facet normal -0.382683432365087 -0.923879532511288 -0.0
  outer loop
    vertex -106.823799131034 -286.305619873087 12.9999999999838
    vertex -108.029703905521 -285.806117760564 3.59999999998384
    vertex -106.823799131034 -286.305619873087 3.59999999998384
  endloop
endfacet
facet normal -0.382683432365087 -0.923879532511288 -0.0
  outer loop
    vertex -108.029703905521 -285.806117760564 3.59999999998384
    vertex -106.823799131034 -286.305619873087 12.9999999999838
    vertex -108.029703905521 -285.806117760564 12.9999999999838
  endloop
endfacet
facet normal 0.130526192220057 -0.99144486137381 0.0
  outer loop
    vertex -104.235608680009 -286.305619873087 12.9999999999838
    vertex -105.529703905521 -286.475990741642 3.59999999998384
    vertex -104.235608680009 -286.305619873087 3.59999999998384
  endloop
endfacet
facet normal 0.130526192220057 -0.99144486137381 0.0
  outer loop
    vertex -105.529703905521 -286.475990741642 3.59999999998384
    vertex -104.235608680009 -286.305619873087 12.9999999999838
    vertex -105.529703905521 -286.475990741642 12.9999999999838
  endloop
endfacet
facet normal -0.99144486137381 0.130526192220055 0.0
  outer loop
    vertex -110.359333036967 -280.181895516129 12.9999999999838
    vertex -110.529703905521 -281.475990741642 3.59999999998384
    vertex -110.529703905521 -281.475990741642 12.9999999999838
  endloop
endfacet
facet normal -0.99144486137381 0.130526192220055 0.0
  outer loop
    vertex -110.529703905521 -281.475990741642 3.59999999998384
    vertex -110.359333036967 -280.181895516129 12.9999999999838
    vertex -110.359333036967 -280.181895516129 3.59999999998384
  endloop
endfacet
facet normal 0.608761429008711 -0.793353340291243 0.0
  outer loop
    vertex -101.994169999589 -285.011524647575 12.9999999999838
    vertex -103.029703905521 -285.806117760564 3.59999999998384
    vertex -101.994169999589 -285.011524647575 3.59999999998384
  endloop
endfacet
facet normal 0.608761429008711 -0.793353340291243 0.0
  outer loop
    vertex -103.029703905521 -285.806117760564 3.59999999998384
    vertex -101.994169999589 -285.011524647575 12.9999999999838
    vertex -103.029703905521 -285.806117760564 12.9999999999838
  endloop
endfacet
facet normal 0.0 0.0 1.0
  outer loop
    vertex -110.359333036967 -282.770085967155 12.9999999999838
    vertex -110.359333036967 -280.181895516129 12.9999999999838
    vertex -110.529703905521 -281.475990741642 12.9999999999838
  endloop
endfacet
facet normal 0.0 0.0 1.0
  outer loop
    vertex -110.359333036967 -280.181895516129 12.9999999999838
    vertex -110.359333036967 -282.770085967155 12.9999999999838
    vertex -109.859830924444 -283.975990741642 12.9999999999838
  endloop
endfacet
facet normal 0.0 0.0 1.0
  outer loop
    vertex -110.359333036967 -280.181895516129 12.9999999999838
    vertex -109.859830924444 -283.975990741642 12.9999999999838
    vertex -109.859830924444 -278.975990741642 12.9999999999838
  endloop
endfacet
facet normal 0.0 0.0 1.0
  outer loop
    vertex -109.859830924444 -278.975990741642 12.9999999999838
    vertex -109.859830924444 -283.975990741642 12.9999999999838
    vertex -109.065237811454 -285.011524647575 12.9999999999838
  endloop
endfacet
facet normal 0.0 0.0 1.0
  outer loop
    vertex -109.859830924444 -278.975990741642 12.9999999999838
    vertex -109.065237811454 -285.011524647575 12.9999999999838
    vertex -109.065237811454 -277.940456835709 12.9999999999838
  endloop
endfacet
facet normal 0.0 0.0 1.0
  outer loop
    vertex -109.065237811454 -277.940456835709 12.9999999999838
    vertex -109.065237811454 -285.011524647575 12.9999999999838
    vertex -108.029703905521 -285.806117760564 12.9999999999838
  endloop
endfacet
facet normal 0.0 0.0 1.0
  outer loop
    vertex -109.065237811454 -277.940456835709 12.9999999999838
    vertex -108.029703905521 -285.806117760564 12.9999999999838
    vertex -108.029703905521 -277.14586372272 12.9999999999838
  endloop
endfacet
facet normal 0.0 0.0 1.0
  outer loop
    vertex -108.029703905521 -277.14586372272 12.9999999999838
    vertex -108.029703905521 -285.806117760564 12.9999999999838
    vertex -106.823799131034 -286.305619873087 12.9999999999838
  endloop
endfacet
facet normal 0.0 0.0 1.0
  outer loop
    vertex -108.029703905521 -277.14586372272 12.9999999999838
    vertex -106.823799131034 -286.305619873087 12.9999999999838
    vertex -107.279703905521 -281.475990741642 12.9999999999838
  endloop
endfacet
facet normal 0.0 0.0 1.0
  outer loop
    vertex -107.279703905521 -281.475990741642 12.9999999999838
    vertex -106.823799131034 -286.305619873087 12.9999999999838
    vertex -107.220074101527 -281.928924070571 12.9999999999838
  endloop
endfacet
facet normal 0.0 0.0 1.0
  outer loop
    vertex -107.220074101527 -281.928924070571 12.9999999999838
    vertex -106.823799131034 -286.305619873087 12.9999999999838
    vertex -107.045248362144 -282.350990741642 12.9999999999838
  endloop
endfacet
facet normal 0.0 0.0 1.0
  outer loop
    vertex -107.045248362144 -282.350990741642 12.9999999999838
    vertex -106.823799131034 -286.305619873087 12.9999999999838
    vertex -106.767140772598 -282.713427608718 12.9999999999838
  endloop
endfacet
facet normal 0.0 0.0 1.0
  outer loop
    vertex -106.767140772598 -282.713427608718 12.9999999999838
    vertex -106.823799131034 -286.305619873087 12.9999999999838
    vertex -105.529703905521 -286.475990741642 12.9999999999838
  endloop
endfacet
facet normal 0.0 0.0 1.0
  outer loop
    vertex -106.767140772598 -282.713427608718 12.9999999999838
    vertex -105.529703905521 -286.475990741642 12.9999999999838
    vertex -106.404703905521 -282.991535198265 12.9999999999838
  endloop
endfacet
facet normal 0.0 0.0 1.0
  outer loop
    vertex -106.404703905521 -282.991535198265 12.9999999999838
    vertex -105.529703905521 -286.475990741642 12.9999999999838
    vertex -105.982637234451 -283.166360937648 12.9999999999838
  endloop
endfacet
facet normal 0.0 0.0 1.0
  outer loop
    vertex -105.982637234451 -283.166360937648 12.9999999999838
    vertex -105.529703905521 -286.475990741642 12.9999999999838
    vertex -105.529703905521 -283.225990741642 12.9999999999838
  endloop
endfacet
facet normal 0.0 0.0 1.0
  outer loop
    vertex -105.529703905521 -283.225990741642 12.9999999999838
    vertex -105.529703905521 -286.475990741642 12.9999999999838
    vertex -104.235608680009 -286.305619873087 12.9999999999838
  endloop
endfacet
facet normal 0.0 0.0 1.0
  outer loop
    vertex -105.529703905521 -283.225990741642 12.9999999999838
    vertex -104.235608680009 -286.305619873087 12.9999999999838
    vertex -105.076770576592 -283.166360937648 12.9999999999838
  endloop
endfacet
facet normal 0.0 0.0 1.0
  outer loop
    vertex -105.076770576592 -283.166360937648 12.9999999999838
    vertex -104.235608680009 -286.305619873087 12.9999999999838
    vertex -104.654703905521 -282.991535198265 12.9999999999838
  endloop
endfacet
facet normal 0.0 0.0 1.0
  outer loop
    vertex -104.654703905521 -282.991535198265 12.9999999999838
    vertex -104.235608680009 -286.305619873087 12.9999999999838
    vertex -104.292267038445 -282.713427608718 12.9999999999838
  endloop
endfacet
facet normal 0.0 0.0 1.0
  outer loop
    vertex -104.292267038445 -282.713427608718 12.9999999999838
    vertex -104.235608680009 -286.305619873087 12.9999999999838
    vertex -104.014159448899 -282.350990741642 12.9999999999838
  endloop
endfacet
facet normal 0.0 0.0 1.0
  outer loop
    vertex -104.014159448899 -282.350990741642 12.9999999999838
    vertex -104.235608680009 -286.305619873087 12.9999999999838
    vertex -103.029703905521 -285.806117760564 12.9999999999838
  endloop
endfacet
facet normal 0.0 0.0 1.0
  outer loop
    vertex -104.014159448899 -282.350990741642 12.9999999999838
    vertex -103.029703905521 -285.806117760564 12.9999999999838
    vertex -103.839333709515 -281.928924070571 12.9999999999838
  endloop
endfacet
facet normal 0.0 0.0 1.0
  outer loop
    vertex -103.839333709515 -281.928924070571 12.9999999999838
    vertex -103.029703905521 -285.806117760564 12.9999999999838
    vertex -103.779703905521 -281.475990741642 12.9999999999838
  endloop
endfacet
facet normal 0.0 0.0 1.0
  outer loop
    vertex -107.279703905521 -281.475990741642 12.9999999999838
    vertex -106.823799131034 -276.646361610197 12.9999999999838
    vertex -108.029703905521 -277.14586372272 12.9999999999838
  endloop
endfacet
facet normal 0.0 0.0 1.0
  outer loop
    vertex -106.823799131034 -276.646361610197 12.9999999999838
    vertex -107.279703905521 -281.475990741642 12.9999999999838
    vertex -107.220074101527 -281.023057412712 12.9999999999838
  endloop
endfacet
facet normal 0.0 0.0 1.0
  outer loop
    vertex -106.823799131034 -276.646361610197 12.9999999999838
    vertex -107.220074101527 -281.023057412712 12.9999999999838
    vertex -107.045248362144 -280.600990741642 12.9999999999838
  endloop
endfacet
facet normal 0.0 0.0 1.0
  outer loop
    vertex -106.823799131034 -276.646361610197 12.9999999999838
    vertex -107.045248362144 -280.600990741642 12.9999999999838
    vertex -106.767140772598 -280.238553874565 12.9999999999838
  endloop
endfacet
facet normal 0.0 0.0 1.0
  outer loop
    vertex -106.823799131034 -276.646361610197 12.9999999999838
    vertex -106.767140772598 -280.238553874565 12.9999999999838
    vertex -105.529703905521 -276.475990741642 12.9999999999838
  endloop
endfacet
facet normal 0.0 0.0 1.0
  outer loop
    vertex -105.529703905521 -276.475990741642 12.9999999999838
    vertex -106.767140772598 -280.238553874565 12.9999999999838
    vertex -106.404703905521 -279.960446285019 12.9999999999838
  endloop
endfacet
facet normal 0.0 0.0 1.0
  outer loop
    vertex -105.529703905521 -276.475990741642 12.9999999999838
    vertex -106.404703905521 -279.960446285019 12.9999999999838
    vertex -105.982637234451 -279.785620545636 12.9999999999838
  endloop
endfacet
facet normal 0.0 0.0 1.0
  outer loop
    vertex -105.529703905521 -276.475990741642 12.9999999999838
    vertex -105.982637234451 -279.785620545636 12.9999999999838
    vertex -105.529703905521 -279.725990741642 12.9999999999838
  endloop
endfacet
facet normal 0.0 0.0 1.0
  outer loop
    vertex -105.529703905521 -276.475990741642 12.9999999999838
    vertex -105.529703905521 -279.725990741642 12.9999999999838
    vertex -105.076770576592 -279.785620545636 12.9999999999838
  endloop
endfacet
facet normal 0.0 0.0 1.0
  outer loop
    vertex -105.529703905521 -276.475990741642 12.9999999999838
    vertex -105.076770576592 -279.785620545636 12.9999999999838
    vertex -104.235608680009 -276.646361610197 12.9999999999838
  endloop
endfacet
facet normal 0.0 0.0 1.0
  outer loop
    vertex -104.235608680009 -276.646361610197 12.9999999999838
    vertex -105.076770576592 -279.785620545636 12.9999999999838
    vertex -104.654703905521 -279.960446285019 12.9999999999838
  endloop
endfacet
facet normal 0.0 0.0 1.0
  outer loop
    vertex -104.235608680009 -276.646361610197 12.9999999999838
    vertex -104.654703905521 -279.960446285019 12.9999999999838
    vertex -104.292267038445 -280.238553874565 12.9999999999838
  endloop
endfacet
facet normal 0.0 0.0 1.0
  outer loop
    vertex -104.235608680009 -276.646361610197 12.9999999999838
    vertex -104.292267038445 -280.238553874565 12.9999999999838
    vertex -104.014159448899 -280.600990741642 12.9999999999838
  endloop
endfacet
facet normal 0.0 0.0 1.0
  outer loop
    vertex -104.235608680009 -276.646361610197 12.9999999999838
    vertex -104.014159448899 -280.600990741642 12.9999999999838
    vertex -103.029703905521 -277.14586372272 12.9999999999838
  endloop
endfacet
facet normal 0.0 0.0 1.0
  outer loop
    vertex -103.029703905521 -277.14586372272 12.9999999999838
    vertex -104.014159448899 -280.600990741642 12.9999999999838
    vertex -103.839333709515 -281.023057412712 12.9999999999838
  endloop
endfacet
facet normal 0.0 0.0 1.0
  outer loop
    vertex -103.029703905521 -277.14586372272 12.9999999999838
    vertex -103.839333709515 -281.023057412712 12.9999999999838
    vertex -103.779703905521 -281.475990741642 12.9999999999838
  endloop
endfacet
facet normal 0.0 0.0 1.0
  outer loop
    vertex -103.029703905521 -277.14586372272 12.9999999999838
    vertex -103.779703905521 -281.475990741642 12.9999999999838
    vertex -103.029703905521 -285.806117760564 12.9999999999838
  endloop
endfacet
facet normal 0.0 0.0 1.0
  outer loop
    vertex -103.029703905521 -277.14586372272 12.9999999999838
    vertex -103.029703905521 -285.806117760564 12.9999999999838
    vertex -101.994169999589 -285.011524647575 12.9999999999838
  endloop
endfacet
facet normal 0.0 0.0 1.0
  outer loop
    vertex -103.029703905521 -277.14586372272 12.9999999999838
    vertex -101.994169999589 -285.011524647575 12.9999999999838
    vertex -101.994169999589 -277.940456835709 12.9999999999838
  endloop
endfacet
facet normal 0.0 0.0 1.0
  outer loop
    vertex -101.994169999589 -277.940456835709 12.9999999999838
    vertex -101.994169999589 -285.011524647575 12.9999999999838
    vertex -101.199576886599 -283.975990741642 12.9999999999838
  endloop
endfacet
facet normal 0.0 0.0 1.0
  outer loop
    vertex -101.994169999589 -277.940456835709 12.9999999999838
    vertex -101.199576886599 -283.975990741642 12.9999999999838
    vertex -101.199576886599 -278.975990741642 12.9999999999838
  endloop
endfacet
facet normal 0.0 0.0 1.0
  outer loop
    vertex -101.199576886599 -278.975990741642 12.9999999999838
    vertex -101.199576886599 -283.975990741642 12.9999999999838
    vertex -100.700074774076 -282.770085967155 12.9999999999838
  endloop
endfacet
facet normal 0.0 0.0 1.0
  outer loop
    vertex -101.199576886599 -278.975990741642 12.9999999999838
    vertex -100.700074774076 -282.770085967155 12.9999999999838
    vertex -100.700074774076 -280.181895516129 12.9999999999838
  endloop
endfacet
facet normal 0.0 0.0 1.0
  outer loop
    vertex -100.700074774076 -280.181895516129 12.9999999999838
    vertex -100.700074774076 -282.770085967155 12.9999999999838
    vertex -100.529703905521 -281.475990741642 12.9999999999838
  endloop
endfacet
facet normal 0.923879532511283 0.3826834323651 0.0
  outer loop
    vertex -101.199576886599 -278.975990741642 3.59999999998384
    vertex -100.700074774076 -280.181895516129 12.9999999999838
    vertex -100.700074774076 -280.181895516129 3.59999999998384
  endloop
endfacet
facet normal 0.923879532511283 0.3826834323651 0.0
  outer loop
    vertex -100.700074774076 -280.181895516129 12.9999999999838
    vertex -101.199576886599 -278.975990741642 3.59999999998384
    vertex -101.199576886599 -278.975990741642 12.9999999999838
  endloop
endfacet
facet normal 0.382683432365087 -0.923879532511288 0.0
  outer loop
    vertex -103.029703905521 -285.806117760564 12.9999999999838
    vertex -104.235608680009 -286.305619873087 3.59999999998384
    vertex -103.029703905521 -285.806117760564 3.59999999998384
  endloop
endfacet
facet normal 0.382683432365087 -0.923879532511288 0.0
  outer loop
    vertex -104.235608680009 -286.305619873087 3.59999999998384
    vertex -103.029703905521 -285.806117760564 12.9999999999838
    vertex -104.235608680009 -286.305619873087 12.9999999999838
  endloop
endfacet
facet normal -0.130526192220057 -0.99144486137381 -0.0
  outer loop
    vertex -105.529703905521 -286.475990741642 12.9999999999838
    vertex -106.823799131034 -286.305619873087 3.59999999998384
    vertex -105.529703905521 -286.475990741642 3.59999999998384
  endloop
endfacet
facet normal -0.130526192220057 -0.99144486137381 -0.0
  outer loop
    vertex -106.823799131034 -286.305619873087 3.59999999998384
    vertex -105.529703905521 -286.475990741642 12.9999999999838
    vertex -106.823799131034 -286.305619873087 12.9999999999838
  endloop
endfacet
facet normal -0.793353340291247 -0.608761429008705 -0.0
  outer loop
    vertex -109.859830924444 -283.975990741642 12.9999999999838
    vertex -109.065237811454 -285.011524647575 3.59999999998384
    vertex -109.065237811454 -285.011524647575 12.9999999999838
  endloop
endfacet
facet normal -0.793353340291247 -0.608761429008705 -0.0
  outer loop
    vertex -109.065237811454 -285.011524647575 3.59999999998384
    vertex -109.859830924444 -283.975990741642 12.9999999999838
    vertex -109.859830924444 -283.975990741642 3.59999999998384
  endloop
endfacet
facet normal -0.608761429008711 -0.793353340291243 -0.0
  outer loop
    vertex -108.029703905521 -285.806117760564 12.9999999999838
    vertex -109.065237811454 -285.011524647575 3.59999999998384
    vertex -108.029703905521 -285.806117760564 3.59999999998384
  endloop
endfacet
facet normal -0.608761429008711 -0.793353340291243 -0.0
  outer loop
    vertex -109.065237811454 -285.011524647575 3.59999999998384
    vertex -108.029703905521 -285.806117760564 12.9999999999838
    vertex -109.065237811454 -285.011524647575 12.9999999999838
  endloop
endfacet
facet normal 0.99144486137381 -0.130526192220055 0.0
  outer loop
    vertex -100.529703905521 -281.475990741642 3.59999999998384
    vertex -100.700074774076 -282.770085967155 12.9999999999838
    vertex -100.700074774076 -282.770085967155 3.59999999998384
  endloop
endfacet
facet normal 0.99144486137381 -0.130526192220055 0.0
  outer loop
    vertex -100.700074774076 -282.770085967155 12.9999999999838
    vertex -100.529703905521 -281.475990741642 3.59999999998384
    vertex -100.529703905521 -281.475990741642 12.9999999999838
  endloop
endfacet
facet normal 0.608761429008711 0.793353340291243 0.0
  outer loop
    vertex -103.029703905521 -277.14586372272 12.9999999999838
    vertex -101.994169999589 -277.940456835709 3.59999999998384
    vertex -103.029703905521 -277.14586372272 3.59999999998384
  endloop
endfacet
facet normal 0.608761429008711 0.793353340291243 0.0
  outer loop
    vertex -101.994169999589 -277.940456835709 3.59999999998384
    vertex -103.029703905521 -277.14586372272 12.9999999999838
    vertex -101.994169999589 -277.940456835709 12.9999999999838
  endloop
endfacet
facet normal 0.130526192220092 0.991444861373805 0.0
  outer loop
    vertex -105.529703905521 -276.475990741642 12.9999999999838
    vertex -104.235608680009 -276.646361610197 3.59999999998384
    vertex -105.529703905521 -276.475990741642 3.59999999998384
  endloop
endfacet
facet normal 0.130526192220092 0.991444861373805 0.0
  outer loop
    vertex -104.235608680009 -276.646361610197 3.59999999998384
    vertex -105.529703905521 -276.475990741642 12.9999999999838
    vertex -104.235608680009 -276.646361610197 12.9999999999838
  endloop
endfacet
facet normal 0.99144486137381 0.130526192220055 0.0
  outer loop
    vertex -100.700074774076 -280.181895516129 3.59999999998384
    vertex -100.529703905521 -281.475990741642 12.9999999999838
    vertex -100.529703905521 -281.475990741642 3.59999999998384
  endloop
endfacet
facet normal 0.99144486137381 0.130526192220055 0.0
  outer loop
    vertex -100.529703905521 -281.475990741642 12.9999999999838
    vertex -100.700074774076 -280.181895516129 3.59999999998384
    vertex -100.700074774076 -280.181895516129 12.9999999999838
  endloop
endfacet
facet normal -0.608761429008711 0.793353340291243 0.0
  outer loop
    vertex -109.065237811454 -277.940456835709 12.9999999999838
    vertex -108.029703905521 -277.14586372272 3.59999999998384
    vertex -109.065237811454 -277.940456835709 3.59999999998384
  endloop
endfacet
facet normal -0.608761429008711 0.793353340291243 0.0
  outer loop
    vertex -108.029703905521 -277.14586372272 3.59999999998384
    vertex -109.065237811454 -277.940456835709 12.9999999999838
    vertex -108.029703905521 -277.14586372272 12.9999999999838
  endloop
endfacet
facet normal -0.99144486137381 -0.130526192220055 -0.0
  outer loop
    vertex -110.529703905521 -281.475990741642 12.9999999999838
    vertex -110.359333036967 -282.770085967155 3.59999999998384
    vertex -110.359333036967 -282.770085967155 12.9999999999838
  endloop
endfacet
facet normal -0.99144486137381 -0.130526192220055 -0.0
  outer loop
    vertex -110.359333036967 -282.770085967155 3.59999999998384
    vertex -110.529703905521 -281.475990741642 12.9999999999838
    vertex -110.529703905521 -281.475990741642 3.59999999998384
  endloop
endfacet
facet normal 0.793353340291234 -0.608761429008722 0.0
  outer loop
    vertex -101.199576886599 -283.975990741642 3.59999999998384
    vertex -101.994169999589 -285.011524647575 12.9999999999838
    vertex -101.994169999589 -285.011524647575 3.59999999998384
  endloop
endfacet
facet normal 0.793353340291234 -0.608761429008722 0.0
  outer loop
    vertex -101.994169999589 -285.011524647575 12.9999999999838
    vertex -101.199576886599 -283.975990741642 3.59999999998384
    vertex -101.199576886599 -283.975990741642 12.9999999999838
  endloop
endfacet
facet normal 0.923879532511288 -0.382683432365087 0.0
  outer loop
    vertex -100.700074774076 -282.770085967155 3.59999999998384
    vertex -101.199576886599 -283.975990741642 12.9999999999838
    vertex -101.199576886599 -283.975990741642 3.59999999998384
  endloop
endfacet
facet normal 0.923879532511288 -0.382683432365087 0.0
  outer loop
    vertex -101.199576886599 -283.975990741642 12.9999999999838
    vertex -100.700074774076 -282.770085967155 3.59999999998384
    vertex -100.700074774076 -282.770085967155 12.9999999999838
  endloop
endfacet
facet normal 0.793353340291247 0.608761429008705 0.0
  outer loop
    vertex -101.994169999589 -277.940456835709 3.59999999998384
    vertex -101.199576886599 -278.975990741642 12.9999999999838
    vertex -101.199576886599 -278.975990741642 3.59999999998384
  endloop
endfacet
facet normal 0.793353340291247 0.608761429008705 0.0
  outer loop
    vertex -101.199576886599 -278.975990741642 12.9999999999838
    vertex -101.994169999589 -277.940456835709 3.59999999998384
    vertex -101.994169999589 -277.940456835709 12.9999999999838
  endloop
endfacet
facet normal -0.923879532511281 0.382683432365104 0.0
  outer loop
    vertex -103.839333709515 -281.928924070571 12.9999999999838
    vertex -104.014159448899 -282.350990741642 3.59999999998384
    vertex -104.014159448899 -282.350990741642 12.9999999999838
  endloop
endfacet
facet normal -0.923879532511281 0.382683432365104 0.0
  outer loop
    vertex -104.014159448899 -282.350990741642 3.59999999998384
    vertex -103.839333709515 -281.928924070571 12.9999999999838
    vertex -103.839333709515 -281.928924070571 3.59999999998384
  endloop
endfacet
facet normal -0.130526192220085 0.991444861373806 0.0
  outer loop
    vertex -105.529703905521 -283.225990741642 12.9999999999838
    vertex -105.076770576592 -283.166360937648 3.59999999998384
    vertex -105.529703905521 -283.225990741642 3.59999999998384
  endloop
endfacet
facet normal -0.130526192220085 0.991444861373806 0.0
  outer loop
    vertex -105.076770576592 -283.166360937648 3.59999999998384
    vertex -105.529703905521 -283.225990741642 12.9999999999838
    vertex -105.076770576592 -283.166360937648 12.9999999999838
  endloop
endfacet
facet normal -0.923879532511281 -0.382683432365104 -0.0
  outer loop
    vertex -104.014159448899 -280.600990741642 12.9999999999838
    vertex -103.839333709515 -281.023057412712 3.59999999998384
    vertex -103.839333709515 -281.023057412712 12.9999999999838
  endloop
endfacet
facet normal -0.923879532511281 -0.382683432365104 -0.0
  outer loop
    vertex -103.839333709515 -281.023057412712 3.59999999998384
    vertex -104.014159448899 -280.600990741642 12.9999999999838
    vertex -104.014159448899 -280.600990741642 3.59999999998384
  endloop
endfacet
facet normal 0.923879532511281 -0.382683432365104 0.0
  outer loop
    vertex -107.045248362144 -280.600990741642 3.59999999998384
    vertex -107.220074101527 -281.023057412712 12.9999999999838
    vertex -107.220074101527 -281.023057412712 3.59999999998384
  endloop
endfacet
facet normal 0.923879532511281 -0.382683432365104 0.0
  outer loop
    vertex -107.220074101527 -281.023057412712 12.9999999999838
    vertex -107.045248362144 -280.600990741642 3.59999999998384
    vertex -107.045248362144 -280.600990741642 12.9999999999838
  endloop
endfacet
facet normal 0.382683432365086 0.923879532511288 0.0
  outer loop
    vertex -106.404703905521 -282.991535198265 12.9999999999838
    vertex -105.982637234451 -283.166360937648 3.59999999998384
    vertex -106.404703905521 -282.991535198265 3.59999999998384
  endloop
endfacet
facet normal 0.382683432365086 0.923879532511288 0.0
  outer loop
    vertex -105.982637234451 -283.166360937648 3.59999999998384
    vertex -106.404703905521 -282.991535198265 12.9999999999838
    vertex -105.982637234451 -283.166360937648 12.9999999999838
  endloop
endfacet
facet normal -0.382683432365086 0.923879532511288 0.0
  outer loop
    vertex -105.076770576592 -283.166360937648 12.9999999999838
    vertex -104.654703905521 -282.991535198265 3.59999999998384
    vertex -105.076770576592 -283.166360937648 3.59999999998384
  endloop
endfacet
facet normal -0.382683432365086 0.923879532511288 0.0
  outer loop
    vertex -104.654703905521 -282.991535198265 3.59999999998384
    vertex -105.076770576592 -283.166360937648 12.9999999999838
    vertex -104.654703905521 -282.991535198265 12.9999999999838
  endloop
endfacet
facet normal -0.991444861373814 0.130526192220029 0.0
  outer loop
    vertex -103.779703905521 -281.475990741642 12.9999999999838
    vertex -103.839333709515 -281.928924070571 3.59999999998384
    vertex -103.839333709515 -281.928924070571 12.9999999999838
  endloop
endfacet
facet normal -0.991444861373814 0.130526192220029 0.0
  outer loop
    vertex -103.839333709515 -281.928924070571 3.59999999998384
    vertex -103.779703905521 -281.475990741642 12.9999999999838
    vertex -103.779703905521 -281.475990741642 3.59999999998384
  endloop
endfacet
facet normal 0.991444861373814 0.130526192220029 0.0
  outer loop
    vertex -107.279703905521 -281.475990741642 3.59999999998384
    vertex -107.220074101527 -281.928924070571 12.9999999999838
    vertex -107.220074101527 -281.928924070571 3.59999999998384
  endloop
endfacet
facet normal 0.991444861373814 0.130526192220029 0.0
  outer loop
    vertex -107.220074101527 -281.928924070571 12.9999999999838
    vertex -107.279703905521 -281.475990741642 3.59999999998384
    vertex -107.279703905521 -281.475990741642 12.9999999999838
  endloop
endfacet
facet normal 0.923879532511281 0.382683432365104 0.0
  outer loop
    vertex -107.220074101527 -281.928924070571 3.59999999998384
    vertex -107.045248362144 -282.350990741642 12.9999999999838
    vertex -107.045248362144 -282.350990741642 3.59999999998384
  endloop
endfacet
facet normal 0.923879532511281 0.382683432365104 0.0
  outer loop
    vertex -107.045248362144 -282.350990741642 12.9999999999838
    vertex -107.220074101527 -281.928924070571 3.59999999998384
    vertex -107.220074101527 -281.928924070571 12.9999999999838
  endloop
endfacet
facet normal 0.382683432365086 -0.923879532511288 0.0
  outer loop
    vertex -105.982637234451 -279.785620545636 12.9999999999838
    vertex -106.404703905521 -279.960446285019 3.59999999998384
    vertex -105.982637234451 -279.785620545636 3.59999999998384
  endloop
endfacet
facet normal 0.382683432365086 -0.923879532511288 0.0
  outer loop
    vertex -106.404703905521 -279.960446285019 3.59999999998384
    vertex -105.982637234451 -279.785620545636 12.9999999999838
    vertex -106.404703905521 -279.960446285019 12.9999999999838
  endloop
endfacet
facet normal 0.793353340291238 0.608761429008717 0.0
  outer loop
    vertex -107.045248362144 -282.350990741642 3.59999999998384
    vertex -106.767140772598 -282.713427608718 12.9999999999838
    vertex -106.767140772598 -282.713427608718 3.59999999998384
  endloop
endfacet
facet normal 0.793353340291238 0.608761429008717 0.0
  outer loop
    vertex -106.767140772598 -282.713427608718 12.9999999999838
    vertex -107.045248362144 -282.350990741642 3.59999999998384
    vertex -107.045248362144 -282.350990741642 12.9999999999838
  endloop
endfacet
facet normal 0.991444861373814 -0.130526192220029 0.0
  outer loop
    vertex -107.220074101527 -281.023057412712 3.59999999998384
    vertex -107.279703905521 -281.475990741642 12.9999999999838
    vertex -107.279703905521 -281.475990741642 3.59999999998384
  endloop
endfacet
facet normal 0.991444861373814 -0.130526192220029 0.0
  outer loop
    vertex -107.279703905521 -281.475990741642 12.9999999999838
    vertex -107.220074101527 -281.023057412712 3.59999999998384
    vertex -107.220074101527 -281.023057412712 12.9999999999838
  endloop
endfacet
facet normal 0.130526192220085 0.991444861373806 0.0
  outer loop
    vertex -105.982637234451 -283.166360937648 12.9999999999838
    vertex -105.529703905521 -283.225990741642 3.59999999998384
    vertex -105.982637234451 -283.166360937648 3.59999999998384
  endloop
endfacet
facet normal 0.130526192220085 0.991444861373806 0.0
  outer loop
    vertex -105.529703905521 -283.225990741642 3.59999999998384
    vertex -105.982637234451 -283.166360937648 12.9999999999838
    vertex -105.529703905521 -283.225990741642 12.9999999999838
  endloop
endfacet
facet normal 0.793353340291238 -0.608761429008717 0.0
  outer loop
    vertex -106.767140772598 -280.238553874565 3.59999999998384
    vertex -107.045248362144 -280.600990741642 12.9999999999838
    vertex -107.045248362144 -280.600990741642 3.59999999998384
  endloop
endfacet
facet normal 0.793353340291238 -0.608761429008717 0.0
  outer loop
    vertex -107.045248362144 -280.600990741642 12.9999999999838
    vertex -106.767140772598 -280.238553874565 3.59999999998384
    vertex -106.767140772598 -280.238553874565 12.9999999999838
  endloop
endfacet
facet normal 0.608761429008677 -0.793353340291268 0.0
  outer loop
    vertex -106.404703905521 -279.960446285019 12.9999999999838
    vertex -106.767140772598 -280.238553874565 3.59999999998384
    vertex -106.404703905521 -279.960446285019 3.59999999998384
  endloop
endfacet
facet normal 0.608761429008677 -0.793353340291268 0.0
  outer loop
    vertex -106.767140772598 -280.238553874565 3.59999999998384
    vertex -106.404703905521 -279.960446285019 12.9999999999838
    vertex -106.767140772598 -280.238553874565 12.9999999999838
  endloop
endfacet
facet normal 0.608761429008677 0.793353340291268 0.0
  outer loop
    vertex -106.767140772598 -282.713427608718 12.9999999999838
    vertex -106.404703905521 -282.991535198265 3.59999999998384
    vertex -106.767140772598 -282.713427608718 3.59999999998384
  endloop
endfacet
facet normal 0.608761429008677 0.793353340291268 0.0
  outer loop
    vertex -106.404703905521 -282.991535198265 3.59999999998384
    vertex -106.767140772598 -282.713427608718 12.9999999999838
    vertex -106.404703905521 -282.991535198265 12.9999999999838
  endloop
endfacet
facet normal -0.991444861373814 -0.130526192220029 -0.0
  outer loop
    vertex -103.839333709515 -281.023057412712 12.9999999999838
    vertex -103.779703905521 -281.475990741642 3.59999999998384
    vertex -103.779703905521 -281.475990741642 12.9999999999838
  endloop
endfacet
facet normal -0.991444861373814 -0.130526192220029 -0.0
  outer loop
    vertex -103.779703905521 -281.475990741642 3.59999999998384
    vertex -103.839333709515 -281.023057412712 12.9999999999838
    vertex -103.839333709515 -281.023057412712 3.59999999998384
  endloop
endfacet
facet normal -0.793353340291238 0.608761429008717 0.0
  outer loop
    vertex -104.014159448899 -282.350990741642 12.9999999999838
    vertex -104.292267038445 -282.713427608718 3.59999999998384
    vertex -104.292267038445 -282.713427608718 12.9999999999838
  endloop
endfacet
facet normal -0.793353340291238 0.608761429008717 0.0
  outer loop
    vertex -104.292267038445 -282.713427608718 3.59999999998384
    vertex -104.014159448899 -282.350990741642 12.9999999999838
    vertex -104.014159448899 -282.350990741642 3.59999999998384
  endloop
endfacet
facet normal -0.793353340291238 -0.608761429008717 -0.0
  outer loop
    vertex -104.292267038445 -280.238553874565 12.9999999999838
    vertex -104.014159448899 -280.600990741642 3.59999999998384
    vertex -104.014159448899 -280.600990741642 12.9999999999838
  endloop
endfacet
facet normal -0.793353340291238 -0.608761429008717 -0.0
  outer loop
    vertex -104.014159448899 -280.600990741642 3.59999999998384
    vertex -104.292267038445 -280.238553874565 12.9999999999838
    vertex -104.292267038445 -280.238553874565 3.59999999998384
  endloop
endfacet
facet normal -0.608761429008677 0.793353340291268 0.0
  outer loop
    vertex -104.654703905521 -282.991535198265 12.9999999999838
    vertex -104.292267038445 -282.713427608718 3.59999999998384
    vertex -104.654703905521 -282.991535198265 3.59999999998384
  endloop
endfacet
facet normal -0.608761429008677 0.793353340291268 0.0
  outer loop
    vertex -104.292267038445 -282.713427608718 3.59999999998384
    vertex -104.654703905521 -282.991535198265 12.9999999999838
    vertex -104.292267038445 -282.713427608718 12.9999999999838
  endloop
endfacet
endsolid Omnidroid
