solid AuntFanny
facet normal -1.0 2.51541083469008e-023 4.93080304437542e-012
  outer loop
    vertex -291.169841756332 360.480812707023 28.829625657857
    vertex -291.169841756337 344.909986873451 27.8296256579365
    vertex -291.169841756332 344.909986873438 28.8296256579365
  endloop
endfacet
facet normal -1.0 2.51541083469008e-023 4.93080304437542e-012
  outer loop
    vertex -291.169841756337 344.909986873451 27.8296256579365
    vertex -291.169841756332 360.480812707023 28.829625657857
    vertex -291.169841756337 360.480812707036 27.829625657857
  endloop
endfacet
facet normal -0.923879532511287 0.382683432365089 9.60433688993267e-012
  outer loop
    vertex -263.385399403889 320.045612759847 28.8296256580159
    vertex -265.483308276491 314.980812707013 27.8296256580159
    vertex -265.483308276487 314.980812707 28.8296256580159
  endloop
endfacet
facet normal -0.923879532511287 0.382683432365089 9.60433688993267e-012
  outer loop
    vertex -265.483308276491 314.980812707013 27.8296256580159
    vertex -263.385399403889 320.045612759847 28.8296256580159
    vertex -263.385399403894 320.04561275986 27.8296256580159
  endloop
endfacet
facet normal -0.793353340291234 0.608761429008722 1.19434596005774e-011
  outer loop
    vertex -265.483308276487 314.980812707 28.8296256580159
    vertex -268.820599351047 310.631570302095 27.8296256580159
    vertex -268.820599351042 310.631570302082 28.8296256580159
  endloop
endfacet
facet normal -0.793353340291234 0.608761429008722 1.19434596005774e-011
  outer loop
    vertex -268.820599351047 310.631570302095 27.8296256580159
    vertex -265.483308276487 314.980812707 28.8296256580159
    vertex -265.483308276491 314.980812707013 27.8296256580159
  endloop
endfacet
facet normal 4.48285815440975e-011 1.0 1.31933301818213e-011
  outer loop
    vertex -291.169841756332 360.480812707023 28.829625657857
    vertex -283.66984175628 360.4808127067 27.8296256588163
    vertex -291.169841756337 360.480812707036 27.829625657857
  endloop
endfacet
facet normal 4.48285815440975e-011 1.0 1.31933301818213e-011
  outer loop
    vertex -283.66984175628 360.4808127067 27.8296256588163
    vertex -291.169841756332 360.480812707023 28.829625657857
    vertex -283.669841756275 360.480812706686 28.8296256588163
  endloop
endfacet
facet normal -0.991444861373811 0.130526192220047 6.61069449215616e-012
  outer loop
    vertex -262.66984175596 325.480812707 28.8296256580159
    vertex -263.385399403894 320.04561275986 27.8296256580159
    vertex -263.385399403889 320.045612759847 28.8296256580159
  endloop
endfacet
facet normal -0.991444861373811 0.130526192220047 6.61069449215616e-012
  outer loop
    vertex -263.385399403894 320.04561275986 27.8296256580159
    vertex -262.66984175596 325.480812707 28.8296256580159
    vertex -262.669841755965 325.480812707013 27.8296256580159
  endloop
endfacet
facet normal -0.991444861373811 -0.130526192220047 3.16654418942855e-012
  outer loop
    vertex -263.385399403889 330.916012654153 28.8296256580159
    vertex -262.669841755965 325.480812707013 27.8296256580159
    vertex -262.66984175596 325.480812707 28.8296256580159
  endloop
endfacet
facet normal -0.991444861373811 -0.130526192220047 3.16654418942855e-012
  outer loop
    vertex -262.669841755965 325.480812707013 27.8296256580159
    vertex -263.385399403889 330.916012654153 28.8296256580159
    vertex -263.385399403894 330.916012654166 27.8296256580159
  endloop
endfacet
facet normal -0.382683432365085 0.923879532511289 1.40759843541901e-011
  outer loop
    vertex -278.234641808807 305.196370354929 28.8296256580159
    vertex -273.169841755965 307.29427922754 27.8296256580159
    vertex -278.234641808812 305.196370354943 27.8296256580159
  endloop
endfacet
facet normal -0.382683432365085 0.923879532511289 1.40759843541901e-011
  outer loop
    vertex -273.169841755965 307.29427922754 27.8296256580159
    vertex -278.234641808807 305.196370354929 28.8296256580159
    vertex -273.16984175596 307.294279227526 28.8296256580159
  endloop
endfacet
facet normal 4.93080304437542e-012 -1.31933301820423e-011 1.0
  outer loop
    vertex -283.669841756495 290.480812706686 28.8296256576454
    vertex -291.169841756173 306.051638540496 28.8296256580967
    vertex -291.169841756173 290.480812706547 28.8296256581776
  endloop
endfacet
facet normal 4.93080304437542e-012 -1.31933301820423e-011 1.0
  outer loop
    vertex -291.169841756173 306.051638540496 28.8296256580967
    vertex -283.669841756495 290.480812706686 28.8296256576454
    vertex -289.105041703113 305.196370354929 28.8296256580159
  endloop
endfacet
facet normal 4.93080304437542e-012 -1.31933301820423e-011 1.0
  outer loop
    vertex -289.105041703113 305.196370354929 28.8296256580159
    vertex -283.669841756495 290.480812706686 28.8296256576454
    vertex -283.66984175596 304.480812707 28.8296256580159
  endloop
endfacet
facet normal 4.93080304437542e-012 -1.31933301820423e-011 1.0
  outer loop
    vertex -283.66984175596 304.480812707 28.8296256580159
    vertex -283.669841756495 290.480812706686 28.8296256576454
    vertex -281.38073223344 290.555750393328 28.8296256576247
  endloop
endfacet
facet normal 4.93080304437542e-012 -1.31933301820423e-011 1.0
  outer loop
    vertex -283.66984175596 304.480812707 28.8296256580159
    vertex -281.38073223344 290.555750393328 28.8296256576247
    vertex -278.234641808807 305.196370354929 28.8296256580159
  endloop
endfacet
facet normal 4.93080304437542e-012 -1.31933301820423e-011 1.0
  outer loop
    vertex -278.234641808807 305.196370354929 28.8296256580159
    vertex -281.38073223344 290.555750393328 28.8296256576247
    vertex -279.101425028793 290.780242558589 28.8296256576066
  endloop
endfacet
facet normal 4.93080304437542e-012 -1.31933301820423e-011 1.0
  outer loop
    vertex -278.234641808807 305.196370354929 28.8296256580159
    vertex -279.101425028793 290.780242558589 28.8296256576066
    vertex -276.841680485929 291.153327892552 28.8296256575912
  endloop
endfacet
facet normal 4.93080304437542e-012 -1.31933301820423e-011 1.0
  outer loop
    vertex -278.234641808807 305.196370354929 28.8296256580159
    vertex -276.841680485929 291.153327892552 28.8296256575912
    vertex -273.16984175596 307.294279227526 28.8296256580159
  endloop
endfacet
facet normal 4.93080304437542e-012 -1.31933301820423e-011 1.0
  outer loop
    vertex -273.16984175596 307.294279227526 28.8296256580159
    vertex -276.841680485929 291.153327892552 28.8296256575912
    vertex -274.611175177903 291.673408786541 28.8296256575785
  endloop
endfacet
facet normal 4.93080304437542e-012 -1.31933301820423e-011 1.0
  outer loop
    vertex -273.16984175596 307.294279227526 28.8296256580159
    vertex -274.611175177903 291.673408786541 28.8296256575785
    vertex -272.419460470879 292.338258174322 28.8296256575686
  endloop
endfacet
facet normal 4.93080304437542e-012 -1.31933301820423e-011 1.0
  outer loop
    vertex -273.16984175596 307.294279227526 28.8296256580159
    vertex -272.419460470879 292.338258174322 28.8296256575686
    vertex -268.820599351042 310.631570302082 28.8296256580159
  endloop
endfacet
facet normal 4.93080304437542e-012 -1.31933301820423e-011 1.0
  outer loop
    vertex -268.820599351042 310.631570302082 28.8296256580159
    vertex -272.419460470879 292.338258174322 28.8296256575686
    vertex -270.275921623709 293.145029068749 28.8296256575616
  endloop
endfacet
facet normal 4.93080304437542e-012 -1.31933301820423e-011 1.0
  outer loop
    vertex -268.820599351042 310.631570302082 28.8296256580159
    vertex -270.275921623709 293.145029068749 28.8296256575616
    vertex -268.189737598819 294.090266752994 28.8296256575574
  endloop
endfacet
facet normal 4.93080304437542e-012 -1.31933301820423e-011 1.0
  outer loop
    vertex -268.820599351042 310.631570302082 28.8296256580159
    vertex -268.189737598819 294.090266752994 28.8296256575574
    vertex -265.483308276487 314.980812707 28.8296256580159
  endloop
endfacet
facet normal 4.93080304437542e-012 -1.31933301820423e-011 1.0
  outer loop
    vertex -265.483308276487 314.980812707 28.8296256580159
    vertex -268.189737598819 294.090266752994 28.8296256575574
    vertex -266.16984175648 295.169923574176 28.8296256575561
  endloop
endfacet
facet normal 4.93080304437542e-012 -1.31933301820423e-011 1.0
  outer loop
    vertex -265.483308276487 314.980812707 28.8296256580159
    vertex -266.16984175648 295.169923574176 28.8296256575561
    vertex -264.224883600791 296.379376276036 28.8296256575576
  endloop
endfacet
facet normal 4.93080304437542e-012 -1.31933301820423e-011 1.0
  outer loop
    vertex -265.483308276487 314.980812707 28.8296256580159
    vertex -264.224883600791 296.379376276036 28.8296256575576
    vertex -263.385399403889 320.045612759847 28.8296256580159
  endloop
endfacet
facet normal 4.93080304437542e-012 -1.31933301820423e-011 1.0
  outer loop
    vertex -263.385399403889 320.045612759847 28.8296256580159
    vertex -264.224883600791 296.379376276036 28.8296256575576
    vertex -262.363191741167 297.713445796426 28.8296256575621
  endloop
endfacet
facet normal 4.93080304437542e-012 -1.31933301820423e-011 1.0
  outer loop
    vertex -263.385399403889 320.045612759847 28.8296256580159
    vertex -262.363191741167 297.713445796426 28.8296256575621
    vertex -262.66984175596 325.480812707 28.8296256580159
  endloop
endfacet
facet normal 4.93080304437542e-012 -1.31933301820423e-011 1.0
  outer loop
    vertex -289.105041703113 345.76525505907 28.8296256580159
    vertex -291.169841756332 360.480812707023 28.829625657857
    vertex -291.169841756332 344.909986873438 28.8296256579365
  endloop
endfacet
facet normal 4.93080304437542e-012 -1.31933301820423e-011 1.0
  outer loop
    vertex -291.169841756332 360.480812707023 28.829625657857
    vertex -289.105041703113 345.76525505907 28.8296256580159
    vertex -283.669841756275 360.480812706686 28.8296256588163
  endloop
endfacet
facet normal 4.93080304437542e-012 -1.31933301820423e-011 1.0
  outer loop
    vertex -283.669841756275 360.480812706686 28.8296256588163
    vertex -289.105041703113 345.76525505907 28.8296256580159
    vertex -283.66984175596 346.480812707 28.8296256580159
  endloop
endfacet
facet normal 4.93080304437542e-012 -1.31933301820423e-011 1.0
  outer loop
    vertex -283.669841756275 360.480812706686 28.8296256588163
    vertex -283.66984175596 346.480812707 28.8296256580159
    vertex -281.38073223322 360.40587502003 28.8296256587931
  endloop
endfacet
facet normal 4.93080304437542e-012 -1.31933301820423e-011 1.0
  outer loop
    vertex -281.38073223322 360.40587502003 28.8296256587931
    vertex -283.66984175596 346.480812707 28.8296256580159
    vertex -278.234641808807 345.76525505907 28.8296256580159
  endloop
endfacet
facet normal 4.93080304437542e-012 -1.31933301820423e-011 1.0
  outer loop
    vertex -281.38073223322 360.40587502003 28.8296256587931
    vertex -278.234641808807 345.76525505907 28.8296256580159
    vertex -279.101425028574 360.181382854755 28.8296256587675
  endloop
endfacet
facet normal 4.93080304437542e-012 -1.31933301820423e-011 1.0
  outer loop
    vertex -279.101425028574 360.181382854755 28.8296256587675
    vertex -278.234641808807 345.76525505907 28.8296256580159
    vertex -276.841680485713 359.808297520778 28.8296256587396
  endloop
endfacet
facet normal 4.93080304437542e-012 -1.31933301820423e-011 1.0
  outer loop
    vertex -276.841680485713 359.808297520778 28.8296256587396
    vertex -278.234641808807 345.76525505907 28.8296256580159
    vertex -273.16984175596 343.667346186473 28.8296256580159
  endloop
endfacet
facet normal 4.93080304437542e-012 -1.31933301820423e-011 1.0
  outer loop
    vertex -276.841680485713 359.808297520778 28.8296256587396
    vertex -273.16984175596 343.667346186473 28.8296256580159
    vertex -274.611175177691 359.288216626775 28.8296256587095
  endloop
endfacet
facet normal 4.93080304437542e-012 -1.31933301820423e-011 1.0
  outer loop
    vertex -274.611175177691 359.288216626775 28.8296256587095
    vertex -273.16984175596 343.667346186473 28.8296256580159
    vertex -272.41946047067 358.62336723898 28.8296256586773
  endloop
endfacet
facet normal 4.93080304437542e-012 -1.31933301820423e-011 1.0
  outer loop
    vertex -272.41946047067 358.62336723898 28.8296256586773
    vertex -273.16984175596 343.667346186473 28.8296256580159
    vertex -268.820599351042 340.330055111917 28.8296256580159
  endloop
endfacet
facet normal 4.93080304437542e-012 -1.31933301820423e-011 1.0
  outer loop
    vertex -272.41946047067 358.62336723898 28.8296256586773
    vertex -268.820599351042 340.330055111917 28.8296256580159
    vertex -270.275921623505 357.816596344539 28.8296256586433
  endloop
endfacet
facet normal 4.93080304437542e-012 -1.31933301820423e-011 1.0
  outer loop
    vertex -270.275921623505 357.816596344539 28.8296256586433
    vertex -268.820599351042 340.330055111917 28.8296256580159
    vertex -268.189737598622 356.871358660282 28.8296256586075
  endloop
endfacet
facet normal 4.93080304437542e-012 -1.31933301820423e-011 1.0
  outer loop
    vertex -268.189737598622 356.871358660282 28.8296256586075
    vertex -268.820599351042 340.330055111917 28.8296256580159
    vertex -265.483308276487 335.980812707 28.8296256580159
  endloop
endfacet
facet normal 4.93080304437542e-012 -1.31933301820423e-011 1.0
  outer loop
    vertex -268.189737598622 356.871358660282 28.8296256586075
    vertex -265.483308276487 335.980812707 28.8296256580159
    vertex -266.16984175629 355.791701839087 28.82962565857
  endloop
endfacet
facet normal 4.93080304437542e-012 -1.31933301820423e-011 1.0
  outer loop
    vertex -266.16984175629 355.791701839087 28.82962565857
    vertex -265.483308276487 335.980812707 28.8296256580159
    vertex -264.224883600608 354.582249137214 28.8296256585312
  endloop
endfacet
facet normal 4.93080304437542e-012 -1.31933301820423e-011 1.0
  outer loop
    vertex -264.224883600608 354.582249137214 28.8296256585312
    vertex -265.483308276487 335.980812707 28.8296256580159
    vertex -263.385399403889 330.916012654153 28.8296256580159
  endloop
endfacet
facet normal 4.93080304437542e-012 -1.31933301820423e-011 1.0
  outer loop
    vertex -264.224883600608 354.582249137214 28.8296256585312
    vertex -263.385399403889 330.916012654153 28.8296256580159
    vertex -262.363191740993 353.248179616813 28.829625658491
  endloop
endfacet
facet normal 4.93080304437542e-012 -1.31933301820423e-011 1.0
  outer loop
    vertex -262.363191740993 353.248179616813 28.829625658491
    vertex -263.385399403889 330.916012654153 28.8296256580159
    vertex -262.66984175596 325.480812707 28.8296256580159
  endloop
endfacet
facet normal 4.93080304437542e-012 -1.31933301820423e-011 1.0
  outer loop
    vertex -262.363191740993 353.248179616813 28.829625658491
    vertex -262.66984175596 325.480812707 28.8296256580159
    vertex -262.363191741167 297.713445796426 28.8296256575621
  endloop
endfacet
facet normal 4.93080304437542e-012 -1.31933301820423e-011 1.0
  outer loop
    vertex -262.363191740993 353.248179616813 28.829625658491
    vertex -262.363191741167 297.713445796426 28.8296256575621
    vertex -260.592738227966 299.16641944485 28.8296256575694
  endloop
endfacet
facet normal 4.93080304437542e-012 -1.31933301820423e-011 1.0
  outer loop
    vertex -262.363191740993 353.248179616813 28.829625658491
    vertex -260.592738227966 299.16641944485 28.8296256575694
    vertex -260.5927382278 351.795205968378 28.8296256584497
  endloop
endfacet
facet normal 4.93080304437542e-012 -1.31933301820423e-011 1.0
  outer loop
    vertex -260.5927382278 351.795205968378 28.8296256584497
    vertex -260.592738227966 299.16641944485 28.8296256575694
    vertex -258.921104414934 300.732075365079 28.8296256575796
  endloop
endfacet
facet normal 4.93080304437542e-012 -1.31933301820423e-011 1.0
  outer loop
    vertex -260.5927382278 351.795205968378 28.8296256584497
    vertex -258.921104414934 300.732075365079 28.8296256575796
    vertex -258.921104414778 350.229550048138 28.8296256584075
  endloop
endfacet
facet normal 4.93080304437542e-012 -1.31933301820423e-011 1.0
  outer loop
    vertex -258.921104414778 350.229550048138 28.8296256584075
    vertex -258.921104414934 300.732075365079 28.8296256575796
    vertex -257.355448494694 302.403709178101 28.8296256575925
  endloop
endfacet
facet normal 4.93080304437542e-012 -1.31933301820423e-011 1.0
  outer loop
    vertex -258.921104414778 350.229550048138 28.8296256584075
    vertex -257.355448494694 302.403709178101 28.8296256575925
    vertex -257.355448494549 348.557916235106 28.8296256583645
  endloop
endfacet
facet normal 4.93080304437542e-012 -1.31933301820423e-011 1.0
  outer loop
    vertex -257.355448494549 348.557916235106 28.8296256583645
    vertex -257.355448494694 302.403709178101 28.8296256575925
    vertex -255.902474846259 304.174162691294 28.8296256576082
  endloop
endfacet
facet normal 4.93080304437542e-012 -1.31933301820423e-011 1.0
  outer loop
    vertex -257.355448494549 348.557916235106 28.8296256583645
    vertex -255.902474846259 304.174162691294 28.8296256576082
    vertex -255.902474846125 346.787462721904 28.829625658321
  endloop
endfacet
facet normal 4.93080304437542e-012 -1.31933301820423e-011 1.0
  outer loop
    vertex -255.902474846125 346.787462721904 28.829625658321
    vertex -255.902474846259 304.174162691294 28.8296256576082
    vertex -254.568405325857 306.035854550909 28.8296256576266
  endloop
endfacet
facet normal 4.93080304437542e-012 -1.31933301820423e-011 1.0
  outer loop
    vertex -255.902474846125 346.787462721904 28.829625658321
    vertex -254.568405325857 306.035854550909 28.8296256576266
    vertex -254.568405325735 344.925770862281 28.829625658277
  endloop
endfacet
facet normal 4.93080304437542e-012 -1.31933301820423e-011 1.0
  outer loop
    vertex -254.568405325735 344.925770862281 28.829625658277
    vertex -254.568405325857 306.035854550909 28.8296256576266
    vertex -253.358952623985 307.980812706591 28.8296256576475
  endloop
endfacet
facet normal 4.93080304437542e-012 -1.31933301820423e-011 1.0
  outer loop
    vertex -254.568405325735 344.925770862281 28.829625658277
    vertex -253.358952623985 307.980812706591 28.8296256576475
    vertex -253.358952623875 342.980812706591 28.8296256582329
  endloop
endfacet
facet normal 4.93080304437542e-012 -1.31933301820423e-011 1.0
  outer loop
    vertex -253.358952623875 342.980812706591 28.8296256582329
    vertex -253.358952623985 307.980812706591 28.8296256576475
    vertex -252.27929580279 310.000708548923 28.8296256576709
  endloop
endfacet
facet normal 4.93080304437542e-012 -1.31933301820423e-011 1.0
  outer loop
    vertex -253.358952623875 342.980812706591 28.8296256582329
    vertex -252.27929580279 310.000708548923 28.8296256576709
    vertex -252.279295802693 340.960916864253 28.8296256581888
  endloop
endfacet
facet normal 4.93080304437542e-012 -1.31933301820423e-011 1.0
  outer loop
    vertex -252.279295802693 340.960916864253 28.8296256581888
    vertex -252.27929580279 310.000708548923 28.8296256576709
    vertex -251.334058118532 312.086892573807 28.8296256576968
  endloop
endfacet
facet normal 4.93080304437542e-012 -1.31933301820423e-011 1.0
  outer loop
    vertex -252.279295802693 340.960916864253 28.8296256581888
    vertex -251.334058118532 312.086892573807 28.8296256576968
    vertex -251.334058118448 338.874732839363 28.8296256581448
  endloop
endfacet
facet normal 4.93080304437542e-012 -1.31933301820423e-011 1.0
  outer loop
    vertex -251.334058118448 338.874732839363 28.8296256581448
    vertex -251.334058118532 312.086892573807 28.8296256576968
    vertex -250.527287224092 314.230431420972 28.8296256577249
  endloop
endfacet
facet normal 4.93080304437542e-012 -1.31933301820423e-011 1.0
  outer loop
    vertex -251.334058118448 338.874732839363 28.8296256581448
    vertex -250.527287224092 314.230431420972 28.8296256577249
    vertex -250.527287224021 336.731193992193 28.8296256581012
  endloop
endfacet
facet normal 4.93080304437542e-012 -1.31933301820423e-011 1.0
  outer loop
    vertex -250.527287224021 336.731193992193 28.8296256581012
    vertex -250.527287224092 314.230431420972 28.8296256577249
    vertex -249.862437836296 316.422146127992 28.8296256577551
  endloop
endfacet
facet normal 4.93080304437542e-012 -1.31933301820423e-011 1.0
  outer loop
    vertex -250.527287224021 336.731193992193 28.8296256581012
    vertex -249.862437836296 316.422146127992 28.8296256577551
    vertex -249.862437836239 334.539479285168 28.8296256580582
  endloop
endfacet
facet normal 4.93080304437542e-012 -1.31933301820423e-011 1.0
  outer loop
    vertex -249.862437836239 334.539479285168 28.8296256580582
    vertex -249.862437836296 316.422146127992 28.8296256577551
    vertex -249.342356942294 318.652651436014 28.8296256577875
  endloop
endfacet
facet normal 4.93080304437542e-012 -1.31933301820423e-011 1.0
  outer loop
    vertex -249.862437836239 334.539479285168 28.8296256580582
    vertex -249.342356942294 318.652651436014 28.8296256577875
    vertex -249.342356942251 332.308973977143 28.8296256580159
  endloop
endfacet
facet normal 4.93080304437542e-012 -1.31933301820423e-011 1.0
  outer loop
    vertex -249.342356942251 332.308973977143 28.8296256580159
    vertex -249.342356942294 318.652651436014 28.8296256577875
    vertex -248.969271608316 320.912395978875 28.8296256578217
  endloop
endfacet
facet normal 4.93080304437542e-012 -1.31933301820423e-011 1.0
  outer loop
    vertex -249.342356942251 332.308973977143 28.8296256580159
    vertex -248.969271608316 320.912395978875 28.8296256578217
    vertex -248.969271608288 330.049229434279 28.8296256579745
  endloop
endfacet
facet normal 4.93080304437542e-012 -1.31933301820423e-011 1.0
  outer loop
    vertex -248.969271608288 330.049229434279 28.8296256579745
    vertex -248.969271608316 320.912395978875 28.8296256578217
    vertex -248.744779443041 323.191703183522 28.8296256578577
  endloop
endfacet
facet normal 4.93080304437542e-012 -1.31933301820423e-011 1.0
  outer loop
    vertex -248.969271608288 330.049229434279 28.8296256579745
    vertex -248.744779443041 323.191703183522 28.8296256578577
    vertex -248.744779443027 327.769922229632 28.8296256579342
  endloop
endfacet
facet normal 4.93080304437542e-012 -1.31933301820423e-011 1.0
  outer loop
    vertex -248.744779443027 327.769922229632 28.8296256579342
    vertex -248.744779443041 323.191703183522 28.8296256578577
    vertex -248.669841756385 325.480812706576 28.8296256578952
  endloop
endfacet
facet normal 0.130526192220056 0.99144486137381 1.24368604674244e-011
  outer loop
    vertex -289.105041703113 305.196370354929 28.8296256580159
    vertex -283.669841755965 304.480812707013 27.8296256580159
    vertex -289.105041703118 305.196370354943 27.8296256580159
  endloop
endfacet
facet normal 0.130526192220056 0.99144486137381 1.24368604674244e-011
  outer loop
    vertex -283.669841755965 304.480812707013 27.8296256580159
    vertex -289.105041703113 305.196370354929 28.8296256580159
    vertex -283.66984175596 304.480812707 28.8296256580159
  endloop
endfacet
facet normal 0.382683432365098 -0.923879532511283 -1.40759843541901e-011
  outer loop
    vertex -289.105041703118 345.765255059083 27.8296256580159
    vertex -291.169841756332 344.909986873438 28.8296256579365
    vertex -291.169841756337 344.909986873451 27.8296256579365
  endloop
endfacet
facet normal 0.382683432365098 -0.923879532511283 -1.40759843541901e-011
  outer loop
    vertex -291.169841756332 344.909986873438 28.8296256579365
    vertex -289.105041703118 345.765255059083 27.8296256580159
    vertex -289.105041703113 345.76525505907 28.8296256580159
  endloop
endfacet
facet normal 0.130526192220056 -0.99144486137381 -1.37240583593632e-011
  outer loop
    vertex -283.66984175596 346.480812707 28.8296256580159
    vertex -289.105041703118 345.765255059083 27.8296256580159
    vertex -283.669841755965 346.480812707013 27.8296256580159
  endloop
endfacet
facet normal 0.130526192220056 -0.99144486137381 -1.37240583593632e-011
  outer loop
    vertex -289.105041703118 345.765255059083 27.8296256580159
    vertex -283.66984175596 346.480812707 28.8296256580159
    vertex -289.105041703113 345.76525505907 28.8296256580159
  endloop
endfacet
facet normal -0.382683432365085 -0.923879532511289 -1.03021110875145e-011
  outer loop
    vertex -273.16984175596 343.667346186473 28.8296256580159
    vertex -278.234641808812 345.765255059083 27.8296256580159
    vertex -273.169841755965 343.667346186486 27.8296256580159
  endloop
endfacet
facet normal -0.382683432365085 -0.923879532511289 -1.03021110875145e-011
  outer loop
    vertex -278.234641808812 345.765255059083 27.8296256580159
    vertex -273.16984175596 343.667346186473 28.8296256580159
    vertex -278.234641808807 345.76525505907 28.8296256580159
  endloop
endfacet
facet normal -0.793353340291237 -0.608761429008718 -4.11972146943048e-012
  outer loop
    vertex -268.820599351042 340.330055111917 28.8296256580159
    vertex -265.483308276491 335.980812707013 27.8296256580159
    vertex -265.483308276487 335.980812707 28.8296256580159
  endloop
endfacet
facet normal -0.793353340291237 -0.608761429008718 -4.11972146943048e-012
  outer loop
    vertex -265.483308276491 335.980812707013 27.8296256580159
    vertex -268.820599351042 340.330055111917 28.8296256580159
    vertex -268.820599351047 340.330055111931 27.8296256580159
  endloop
endfacet
facet normal -0.923879532511286 -0.382683432365092 -4.93400866847127e-013
  outer loop
    vertex -265.483308276487 335.980812707 28.8296256580159
    vertex -263.385399403894 330.916012654166 27.8296256580159
    vertex -263.385399403889 330.916012654153 28.8296256580159
  endloop
endfacet
facet normal -0.923879532511286 -0.382683432365092 -4.93400866847127e-013
  outer loop
    vertex -263.385399403894 330.916012654166 27.8296256580159
    vertex -265.483308276487 335.980812707 28.8296256580159
    vertex -265.483308276491 335.980812707013 27.8296256580159
  endloop
endfacet
facet normal -0.608761429008714 0.79335334029124 1.3468655276943e-011
  outer loop
    vertex -273.16984175596 307.294279227526 28.8296256580159
    vertex -268.820599351047 310.631570302095 27.8296256580159
    vertex -273.169841755965 307.29427922754 27.8296256580159
  endloop
endfacet
facet normal -0.608761429008714 0.79335334029124 1.3468655276943e-011
  outer loop
    vertex -268.820599351047 310.631570302095 27.8296256580159
    vertex -273.16984175596 307.294279227526 28.8296256580159
    vertex -268.820599351042 310.631570302082 28.8296256580159
  endloop
endfacet
facet normal -0.130526192220056 0.99144486137381 1.37240583593632e-011
  outer loop
    vertex -283.66984175596 304.480812707 28.8296256580159
    vertex -278.234641808812 305.196370354943 27.8296256580159
    vertex -283.669841755965 304.480812707013 27.8296256580159
  endloop
endfacet
facet normal -0.130526192220056 0.99144486137381 1.37240583593632e-011
  outer loop
    vertex -278.234641808812 305.196370354943 27.8296256580159
    vertex -283.66984175596 304.480812707 28.8296256580159
    vertex -278.234641808807 305.196370354929 28.8296256580159
  endloop
endfacet
facet normal 0.382683432365098 0.923879532511283 1.03021110875144e-011
  outer loop
    vertex -291.169841756178 306.051638540509 27.8296256580967
    vertex -289.105041703113 305.196370354929 28.8296256580159
    vertex -289.105041703118 305.196370354943 27.8296256580159
  endloop
endfacet
facet normal 0.382683432365098 0.923879532511283 1.03021110875144e-011
  outer loop
    vertex -289.105041703113 305.196370354929 28.8296256580159
    vertex -291.169841756178 306.051638540509 27.8296256580967
    vertex -291.169841756173 306.051638540496 28.8296256580967
  endloop
endfacet
facet normal -1.0 2.56003496169606e-023 4.93080304437542e-012
  outer loop
    vertex -291.169841756173 306.051638540496 28.8296256580967
    vertex -291.169841756178 290.48081270656 27.8296256581776
    vertex -291.169841756173 290.480812706547 28.8296256581776
  endloop
endfacet
facet normal -1.0 2.56003496169606e-023 4.93080304437542e-012
  outer loop
    vertex -291.169841756178 290.48081270656 27.8296256581776
    vertex -291.169841756173 306.051638540496 28.8296256580967
    vertex -291.169841756178 306.051638540509 27.8296256580967
  endloop
endfacet
facet normal -0.130526192220056 -0.99144486137381 -1.24368604674244e-011
  outer loop
    vertex -278.234641808807 345.76525505907 28.8296256580159
    vertex -283.669841755965 346.480812707013 27.8296256580159
    vertex -278.234641808812 345.765255059083 27.8296256580159
  endloop
endfacet
facet normal -0.130526192220056 -0.99144486137381 -1.24368604674244e-011
  outer loop
    vertex -283.669841755965 346.480812707013 27.8296256580159
    vertex -278.234641808807 345.76525505907 28.8296256580159
    vertex -283.66984175596 346.480812707 28.8296256580159
  endloop
endfacet
facet normal -0.608761429008714 -0.79335334029124 -7.46528986203399e-012
  outer loop
    vertex -268.820599351042 340.330055111917 28.8296256580159
    vertex -273.169841755965 343.667346186486 27.8296256580159
    vertex -268.820599351047 340.330055111931 27.8296256580159
  endloop
endfacet
facet normal -0.608761429008714 -0.79335334029124 -7.46528986203399e-012
  outer loop
    vertex -273.169841755965 343.667346186486 27.8296256580159
    vertex -268.820599351042 340.330055111917 28.8296256580159
    vertex -273.16984175596 343.667346186473 28.8296256580159
  endloop
endfacet
facet normal 0.881921264346877 -0.471396736828763 -1.05678728508602e-011
  outer loop
    vertex -253.35895262399 307.980812706604 27.8296256576475
    vertex -252.27929580279 310.000708548923 28.8296256576709
    vertex -253.358952623985 307.980812706591 28.8296256576475
  endloop
endfacet
facet normal 0.881921264346877 -0.471396736828763 -1.05678728508602e-011
  outer loop
    vertex -252.27929580279 310.000708548923 28.8296256576709
    vertex -253.35895262399 307.980812706604 27.8296256576475
    vertex -252.279295802795 310.000708548936 27.8296256576709
  endloop
endfacet
facet normal 0.973876979276621 -0.227076263037429 -7.79788768902139e-012
  outer loop
    vertex -249.862437836301 316.422146128005 27.8296256577551
    vertex -249.342356942294 318.652651436014 28.8296256577875
    vertex -249.862437836296 316.422146127992 28.8296256577551
  endloop
endfacet
facet normal 0.973876979276621 -0.227076263037429 -7.79788768902139e-012
  outer loop
    vertex -249.342356942294 318.652651436014 28.8296256577875
    vertex -249.862437836301 316.422146128005 27.8296256577551
    vertex -249.342356942299 318.652651436027 27.8296256577875
  endloop
endfacet
facet normal 0.162895473391471 -0.986643332085394 -1.38203167482266e-011
  outer loop
    vertex -276.841680485929 291.153327892552 28.8296256575912
    vertex -279.101425028797 290.780242558602 27.8296256576066
    vertex -276.841680485934 291.153327892565 27.8296256575912
  endloop
endfacet
facet normal 0.162895473391471 -0.986643332085394 -1.38203167482266e-011
  outer loop
    vertex -279.101425028797 290.780242558602 27.8296256576066
    vertex -276.841680485929 291.153327892552 28.8296256575912
    vertex -279.101425028793 290.780242558589 28.8296256576066
  endloop
endfacet
facet normal 0.999464587476262 -0.0327190828249361 -5.35983669363635e-012
  outer loop
    vertex -248.744779443046 323.191703183535 27.8296256578577
    vertex -248.669841756385 325.480812706576 28.8296256578952
    vertex -248.744779443041 323.191703183522 28.8296256578577
  endloop
endfacet
facet normal 0.999464587476262 -0.0327190828249361 -5.35983669363635e-012
  outer loop
    vertex -248.669841756385 325.480812706576 28.8296256578952
    vertex -248.744779443046 323.191703183535 27.8296256578577
    vertex -248.66984175639 325.48081270659 27.8296256578952
  endloop
endfacet
facet normal 0.0327190828186404 -0.999464587476468 -1.33475976610071e-011
  outer loop
    vertex -281.38073223344 290.555750393328 28.8296256576247
    vertex -283.6698417565 290.4808127067 27.8296256576454
    vertex -281.380732233445 290.555750393341 27.8296256576247
  endloop
endfacet
facet normal 0.0327190828186404 -0.999464587476468 -1.33475976610071e-011
  outer loop
    vertex -283.6698417565 290.4808127067 27.8296256576454
    vertex -281.38073223344 290.555750393328 28.8296256576247
    vertex -283.669841756495 290.480812706686 28.8296256576454
  endloop
endfacet
facet normal 0.582477696865255 -0.81284668459344 -1.35962374982036e-011
  outer loop
    vertex -262.363191741172 297.713445796439 27.8296256575621
    vertex -264.224883600791 296.379376276036 28.8296256575576
    vertex -264.224883600796 296.379376276049 27.8296256575576
  endloop
endfacet
facet normal 0.582477696865255 -0.81284668459344 -1.35962374982036e-011
  outer loop
    vertex -264.224883600791 296.379376276036 28.8296256575576
    vertex -262.363191741172 297.713445796439 27.8296256575621
    vertex -262.363191741167 297.713445796426 28.8296256575621
  endloop
endfacet
facet normal 1.86102988662695e-011 -1.0 -1.31933301821341e-011
  outer loop
    vertex -283.669841756495 290.480812706686 28.8296256576454
    vertex -291.169841756178 290.48081270656 27.8296256581776
    vertex -283.6698417565 290.4808127067 27.8296256576454
  endloop
endfacet
facet normal 1.86102988662695e-011 -1.0 -1.31933301821341e-011
  outer loop
    vertex -291.169841756178 290.48081270656 27.8296256581776
    vertex -283.669841756495 290.480812706686 28.8296256576454
    vertex -291.169841756173 290.480812706547 28.8296256581776
  endloop
endfacet
facet normal 0.956940335731294 -0.290284677257479 -8.548305914555e-012
  outer loop
    vertex -250.527287224097 314.230431420985 27.8296256577249
    vertex -249.862437836296 316.422146127992 28.8296256577551
    vertex -250.527287224092 314.230431420972 28.8296256577249
  endloop
endfacet
facet normal 0.956940335731294 -0.290284677257479 -8.548305914555e-012
  outer loop
    vertex -249.862437836296 316.422146127992 28.8296256577551
    vertex -250.527287224097 314.230431420985 27.8296256577249
    vertex -249.862437836301 316.422146128005 27.8296256577551
  endloop
endfacet
facet normal 0.986643332084364 -0.162895473397708 -7.01407771125034e-012
  outer loop
    vertex -249.342356942299 318.652651436027 27.8296256577875
    vertex -248.969271608316 320.912395978875 28.8296256578217
    vertex -249.342356942294 318.652651436014 28.8296256577875
  endloop
endfacet
facet normal 0.986643332084364 -0.162895473397708 -7.01407771125034e-012
  outer loop
    vertex -248.969271608316 320.912395978875 28.8296256578217
    vertex -249.342356942299 318.652651436027 27.8296256577875
    vertex -248.969271608321 320.912395978889 27.8296256578217
  endloop
endfacet
facet normal 0.22707626303132 -0.973876979278046 -1.39683488733654e-011
  outer loop
    vertex -274.611175177903 291.673408786541 28.8296256575785
    vertex -276.841680485934 291.153327892565 27.8296256575912
    vertex -274.611175177908 291.673408786554 27.8296256575785
  endloop
endfacet
facet normal 0.22707626303132 -0.973876979278046 -1.39683488733654e-011
  outer loop
    vertex -276.841680485934 291.153327892565 27.8296256575912
    vertex -274.611175177903 291.673408786541 28.8296256575785
    vertex -276.841680485929 291.153327892552 28.8296256575912
  endloop
endfacet
facet normal 0.412707029801531 -0.910863824922473 -1.40523042720607e-011
  outer loop
    vertex -268.189737598819 294.090266752994 28.8296256575574
    vertex -270.275921623714 293.145029068762 27.8296256575616
    vertex -268.189737598824 294.090266753007 27.8296256575574
  endloop
endfacet
facet normal 0.412707029801531 -0.910863824922473 -1.40523042720607e-011
  outer loop
    vertex -270.275921623714 293.145029068762 27.8296256575616
    vertex -268.189737598819 294.090266752994 28.8296256575574
    vertex -270.275921623709 293.145029068749 28.8296256575616
  endloop
endfacet
facet normal 0.849202181524926 -0.528067850653025 -1.11542222141401e-011
  outer loop
    vertex -254.568405325862 306.035854550922 27.8296256576266
    vertex -253.358952623985 307.980812706591 28.8296256576475
    vertex -254.568405325857 306.035854550909 28.8296256576266
  endloop
endfacet
facet normal 0.849202181524926 -0.528067850653025 -1.11542222141401e-011
  outer loop
    vertex -253.358952623985 307.980812706591 28.8296256576475
    vertex -254.568405325862 306.035854550922 27.8296256576266
    vertex -253.35895262399 307.980812706604 27.8296256576475
  endloop
endfacet
facet normal 0.290284677251451 -0.956940335733122 -1.40565663841685e-011
  outer loop
    vertex -272.419460470879 292.338258174322 28.8296256575686
    vertex -274.611175177908 291.673408786554 27.8296256575785
    vertex -272.419460470884 292.338258174336 27.8296256575686
  endloop
endfacet
facet normal 0.290284677251451 -0.956940335733122 -1.40565663841685e-011
  outer loop
    vertex -274.611175177908 291.673408786554 27.8296256575785
    vertex -272.419460470879 292.338258174322 28.8296256575686
    vertex -274.611175177903 291.673408786541 28.8296256575785
  endloop
endfacet
facet normal 0.68359230202057 -0.729864072699991 -1.29999967030557e-011
  outer loop
    vertex -258.921104414939 300.732075365093 27.8296256575796
    vertex -260.592738227966 299.16641944485 28.8296256575694
    vertex -260.592738227971 299.166419444863 27.8296256575694
  endloop
endfacet
facet normal 0.68359230202057 -0.729864072699991 -1.29999967030557e-011
  outer loop
    vertex -260.592738227966 299.16641944485 28.8296256575694
    vertex -258.921104414939 300.732075365093 27.8296256575796
    vertex -258.921104414934 300.732075365079 28.8296256575796
  endloop
endfacet
facet normal 0.935905926756225 -0.352250047924157 -9.26211898180222e-012
  outer loop
    vertex -251.334058118537 312.08689257382 27.8296256576968
    vertex -250.527287224092 314.230431420972 28.8296256577249
    vertex -251.334058118532 312.086892573807 28.8296256576968
  endloop
endfacet
facet normal 0.935905926756225 -0.352250047924157 -9.26211898180222e-012
  outer loop
    vertex -250.527287224092 314.230431420972 28.8296256577249
    vertex -251.334058118537 312.08689257382 27.8296256576968
    vertex -250.527287224097 314.230431420985 27.8296256577249
  endloop
endfacet
facet normal 0.995184726671891 -0.0980171403326715 -6.20023237589819e-012
  outer loop
    vertex -248.969271608321 320.912395978889 27.8296256578217
    vertex -248.744779443041 323.191703183522 28.8296256578577
    vertex -248.969271608316 320.912395978875 28.8296256578217
  endloop
endfacet
facet normal 0.995184726671891 -0.0980171403326715 -6.20023237589819e-012
  outer loop
    vertex -248.744779443041 323.191703183522 28.8296256578577
    vertex -248.969271608321 320.912395978889 27.8296256578217
    vertex -248.744779443046 323.191703183535 27.8296256578577
  endloop
endfacet
facet normal 0.910863824919873 -0.41270702980727 -9.93627023362363e-012
  outer loop
    vertex -252.279295802795 310.000708548936 27.8296256576709
    vertex -251.334058118532 312.086892573807 28.8296256576968
    vertex -252.27929580279 310.000708548923 28.8296256576709
  endloop
endfacet
facet normal 0.910863824919873 -0.41270702980727 -9.93627023362363e-012
  outer loop
    vertex -251.334058118532 312.086892573807 28.8296256576968
    vertex -252.279295802795 310.000708548936 27.8296256576709
    vertex -251.334058118537 312.08689257382 27.8296256576968
  endloop
endfacet
facet normal 0.352250047918284 -0.935905926758436 -1.40845915197112e-011
  outer loop
    vertex -270.275921623709 293.145029068749 28.8296256575616
    vertex -272.419460470884 292.338258174336 27.8296256575686
    vertex -270.275921623714 293.145029068762 27.8296256575616
  endloop
endfacet
facet normal 0.352250047918284 -0.935905926758436 -1.40845915197112e-011
  outer loop
    vertex -272.419460470884 292.338258174336 27.8296256575686
    vertex -270.275921623709 293.145029068749 28.8296256575616
    vertex -272.419460470879 292.338258174322 28.8296256575686
  endloop
endfacet
facet normal 0.812846684589785 -0.582477696870356 -1.16928074854719e-011
  outer loop
    vertex -255.902474846264 304.174162691307 27.8296256576082
    vertex -254.568405325857 306.035854550909 28.8296256576266
    vertex -255.902474846259 304.174162691294 28.8296256576082
  endloop
endfacet
facet normal 0.812846684589785 -0.582477696870356 -1.16928074854719e-011
  outer loop
    vertex -254.568405325857 306.035854550909 28.8296256576266
    vertex -255.902474846264 304.174162691307 27.8296256576082
    vertex -254.568405325862 306.035854550922 27.8296256576266
  endloop
endfacet
facet normal 0.47139673682324 -0.881921264349829 -1.39598429001682e-011
  outer loop
    vertex -266.16984175648 295.169923574176 28.8296256575561
    vertex -268.189737598824 294.090266753007 27.8296256575574
    vertex -266.169841756485 295.169923574189 27.8296256575561
  endloop
endfacet
facet normal 0.47139673682324 -0.881921264349829 -1.39598429001682e-011
  outer loop
    vertex -268.189737598824 294.090266753007 27.8296256575574
    vertex -266.16984175648 295.169923574176 28.8296256575561
    vertex -268.189737598819 294.090266752994 28.8296256575574
  endloop
endfacet
facet normal 0.729864072695689 -0.683592302025163 -1.26176749421485e-011
  outer loop
    vertex -258.921104414939 300.732075365093 27.8296256575796
    vertex -257.355448494694 302.403709178101 28.8296256575925
    vertex -258.921104414934 300.732075365079 28.8296256575796
  endloop
endfacet
facet normal 0.729864072695689 -0.683592302025163 -1.26176749421485e-011
  outer loop
    vertex -257.355448494694 302.403709178101 28.8296256575925
    vertex -258.921104414939 300.732075365093 27.8296256575796
    vertex -257.355448494699 302.403709178114 27.8296256575925
  endloop
endfacet
facet normal 0.528067850647701 -0.849202181528237 -1.38076033378231e-011
  outer loop
    vertex -264.224883600796 296.379376276049 27.8296256575576
    vertex -266.16984175648 295.169923574176 28.8296256575561
    vertex -266.169841756485 295.169923574189 27.8296256575561
  endloop
endfacet
facet normal 0.528067850647701 -0.849202181528237 -1.38076033378231e-011
  outer loop
    vertex -266.16984175648 295.169923574176 28.8296256575561
    vertex -264.224883600796 296.379376276049 27.8296256575576
    vertex -264.224883600791 296.379376276036 28.8296256575576
  endloop
endfacet
facet normal 0.634393284161208 -0.773010453364737 -1.33266504822846e-011
  outer loop
    vertex -260.592738227971 299.166419444863 27.8296256575694
    vertex -262.363191741167 297.713445796426 28.8296256575621
    vertex -262.363191741172 297.713445796439 27.8296256575621
  endloop
endfacet
facet normal 0.634393284161208 -0.773010453364737 -1.33266504822846e-011
  outer loop
    vertex -262.363191741167 297.713445796426 28.8296256575621
    vertex -260.592738227971 299.166419444863 27.8296256575694
    vertex -260.592738227966 299.16641944485 28.8296256575694
  endloop
endfacet
facet normal 0.098017140326441 -0.995184726672504 -1.36131039050384e-011
  outer loop
    vertex -279.101425028793 290.780242558589 28.8296256576066
    vertex -281.380732233445 290.555750393341 27.8296256576247
    vertex -279.101425028797 290.780242558602 27.8296256576066
  endloop
endfacet
facet normal 0.098017140326441 -0.995184726672504 -1.36131039050384e-011
  outer loop
    vertex -281.380732233445 290.555750393341 27.8296256576247
    vertex -279.101425028793 290.780242558589 28.8296256576066
    vertex -281.38073223344 290.555750393328 28.8296256576247
  endloop
endfacet
facet normal 0.773010453360736 -0.634393284166084 -1.21813223600385e-011
  outer loop
    vertex -257.355448494699 302.403709178114 27.8296256575925
    vertex -255.902474846259 304.174162691294 28.8296256576082
    vertex -257.355448494694 302.403709178101 28.8296256575925
  endloop
endfacet
facet normal 0.773010453360736 -0.634393284166084 -1.21813223600385e-011
  outer loop
    vertex -255.902474846259 304.174162691294 28.8296256576082
    vertex -257.355448494699 302.403709178114 27.8296256575925
    vertex -255.902474846264 304.174162691307 27.8296256576082
  endloop
endfacet
facet normal 0.999464587476468 0.0327190828186417 -4.49648936779447e-012
  outer loop
    vertex -248.66984175639 325.48081270659 27.8296256578952
    vertex -248.744779443027 327.769922229632 28.8296256579342
    vertex -248.669841756385 325.480812706576 28.8296256578952
  endloop
endfacet
facet normal 0.999464587476468 0.0327190828186417 -4.49648936779447e-012
  outer loop
    vertex -248.744779443027 327.769922229632 28.8296256579342
    vertex -248.66984175639 325.48081270659 27.8296256578952
    vertex -248.744779443032 327.769922229645 27.8296256579342
  endloop
endfacet
facet normal 0.52806785065304 0.849202181524917 8.60000620653206e-012
  outer loop
    vertex -266.169841756295 355.7917018391 27.82962565857
    vertex -264.224883600608 354.582249137214 28.8296256585312
    vertex -264.224883600613 354.582249137228 27.8296256585312
  endloop
endfacet
facet normal 0.52806785065304 0.849202181524917 8.60000620653206e-012
  outer loop
    vertex -264.224883600608 354.582249137214 28.8296256585312
    vertex -266.169841756295 355.7917018391 27.82962565857
    vertex -266.16984175629 355.791701839087 28.82962565857
  endloop
endfacet
facet normal 0.956940335733117 0.29028467725147 -8.88662726952263e-013
  outer loop
    vertex -249.862437836244 334.539479285182 27.8296256580582
    vertex -250.527287224021 336.731193992193 28.8296256581012
    vertex -249.862437836239 334.539479285168 28.8296256580582
  endloop
endfacet
facet normal 0.956940335733117 0.29028467725147 -8.88662726952263e-013
  outer loop
    vertex -250.527287224021 336.731193992193 28.8296256581012
    vertex -249.862437836244 334.539479285182 27.8296256580582
    vertex -250.527287224026 336.731193992206 27.8296256581012
  endloop
endfacet
facet normal 0.849202181528237 0.528067850647701 2.77972481014684e-012
  outer loop
    vertex -253.35895262388 342.980812706604 27.8296256582329
    vertex -254.568405325735 344.925770862281 28.829625658277
    vertex -253.358952623875 342.980812706591 28.8296256582329
  endloop
endfacet
facet normal 0.849202181528237 0.528067850647701 2.77972481014684e-012
  outer loop
    vertex -254.568405325735 344.925770862281 28.829625658277
    vertex -253.35895262388 342.980812706604 27.8296256582329
    vertex -254.56840532574 344.925770862294 27.829625658277
  endloop
endfacet
facet normal 0.935905926758433 0.352250047918291 3.25833959167461e-014
  outer loop
    vertex -250.527287224026 336.731193992206 27.8296256581012
    vertex -251.334058118448 338.874732839363 28.8296256581448
    vertex -250.527287224021 336.731193992193 28.8296256581012
  endloop
endfacet
facet normal 0.935905926758433 0.352250047918291 3.25833959167461e-014
  outer loop
    vertex -251.334058118448 338.874732839363 28.8296256581448
    vertex -250.527287224026 336.731193992206 27.8296256581012
    vertex -251.334058118453 338.874732839376 27.8296256581448
  endloop
endfacet
facet normal 0.995184726672506 0.0980171403264191 -3.61388738416669e-012
  outer loop
    vertex -248.744779443032 327.769922229645 27.8296256579342
    vertex -248.969271608288 330.049229434279 28.8296256579745
    vertex -248.744779443027 327.769922229632 28.8296256579342
  endloop
endfacet
facet normal 0.995184726672506 0.0980171403264191 -3.61388738416669e-012
  outer loop
    vertex -248.969271608288 330.049229434279 28.8296256579745
    vertex -248.744779443032 327.769922229645 27.8296256579342
    vertex -248.969271608292 330.049229434292 27.8296256579745
  endloop
endfacet
facet normal 0.812846684593447 0.582477696865246 3.6768336714149e-012
  outer loop
    vertex -254.56840532574 344.925770862294 27.829625658277
    vertex -255.902474846125 346.787462721904 28.829625658321
    vertex -254.568405325735 344.925770862281 28.829625658277
  endloop
endfacet
facet normal 0.812846684593447 0.582477696865246 3.6768336714149e-012
  outer loop
    vertex -255.902474846125 346.787462721904 28.829625658321
    vertex -254.56840532574 344.925770862294 27.829625658277
    vertex -255.90247484613 346.787462721917 27.829625658321
  endloop
endfacet
facet normal 0.881921264349833 0.471396736823233 1.87071274049063e-012
  outer loop
    vertex -252.279295802697 340.960916864266 27.8296256581888
    vertex -253.358952623875 342.980812706591 28.8296256582329
    vertex -252.279295802693 340.960916864253 28.8296256581888
  endloop
endfacet
facet normal 0.881921264349833 0.471396736823233 1.87071274049063e-012
  outer loop
    vertex -253.358952623875 342.980812706591 28.8296256582329
    vertex -252.279295802697 340.960916864266 27.8296256581888
    vertex -253.35895262388 342.980812706604 27.8296256582329
  endloop
endfacet
facet normal 0.986643332085391 0.162895473391491 -2.71581017994533e-012
  outer loop
    vertex -248.969271608292 330.049229434292 27.8296256579745
    vertex -249.342356942251 332.308973977143 28.8296256580159
    vertex -248.969271608288 330.049229434279 28.8296256579745
  endloop
endfacet
facet normal 0.986643332085391 0.162895473391491 -2.71581017994533e-012
  outer loop
    vertex -249.342356942251 332.308973977143 28.8296256580159
    vertex -248.969271608292 330.049229434292 27.8296256579745
    vertex -249.342356942256 332.308973977156 27.8296256580159
  endloop
endfacet
facet normal 0.97387697927805 0.227076263031301 -1.80610345959511e-012
  outer loop
    vertex -249.342356942256 332.308973977156 27.8296256580159
    vertex -249.862437836239 334.539479285168 28.8296256580582
    vertex -249.342356942251 332.308973977143 28.8296256580159
  endloop
endfacet
facet normal 0.97387697927805 0.227076263031301 -1.80610345959511e-012
  outer loop
    vertex -249.862437836239 334.539479285168 28.8296256580582
    vertex -249.342356942256 332.308973977156 27.8296256580159
    vertex -249.862437836244 334.539479285182 27.8296256580582
  endloop
endfacet
facet normal 0.729864072699991 0.68359230202057 5.42004295881041e-012
  outer loop
    vertex -257.355448494553 348.557916235119 27.8296256583645
    vertex -258.921104414778 350.229550048138 28.8296256584075
    vertex -257.355448494549 348.557916235106 28.8296256583645
  endloop
endfacet
facet normal 0.729864072699991 0.68359230202057 5.42004295881041e-012
  outer loop
    vertex -258.921104414778 350.229550048138 28.8296256584075
    vertex -257.355448494553 348.557916235119 27.8296256583645
    vertex -258.921104414783 350.229550048151 27.8296256584075
  endloop
endfacet
facet normal 0.773010453364737 0.634393284161208 4.55819776642413e-012
  outer loop
    vertex -255.90247484613 346.787462721917 27.829625658321
    vertex -257.355448494549 348.557916235106 28.8296256583645
    vertex -255.902474846125 346.787462721904 28.829625658321
  endloop
endfacet
facet normal 0.773010453364737 0.634393284161208 4.55819776642413e-012
  outer loop
    vertex -257.355448494549 348.557916235106 28.8296256583645
    vertex -255.90247484613 346.787462721917 27.829625658321
    vertex -257.355448494553 348.557916235119 27.8296256583645
  endloop
endfacet
facet normal 0.683592302025163 0.729864072695689 6.25867869514707e-012
  outer loop
    vertex -260.592738227805 351.795205968391 27.8296256584497
    vertex -258.921104414778 350.229550048138 28.8296256584075
    vertex -258.921104414783 350.229550048151 27.8296256584075
  endloop
endfacet
facet normal 0.683592302025163 0.729864072695689 6.25867869514707e-012
  outer loop
    vertex -258.921104414778 350.229550048138 28.8296256584075
    vertex -260.592738227805 351.795205968391 27.8296256584497
    vertex -260.5927382278 351.795205968378 28.8296256584497
  endloop
endfacet
facet normal 0.634393284166074 0.773010453360744 7.0705138084611e-012
  outer loop
    vertex -262.363191740998 353.248179616826 27.829625658491
    vertex -260.5927382278 351.795205968378 28.8296256584497
    vertex -260.592738227805 351.795205968391 27.8296256584497
  endloop
endfacet
facet normal 0.634393284166074 0.773010453360744 7.0705138084611e-012
  outer loop
    vertex -260.5927382278 351.795205968378 28.8296256584497
    vertex -262.363191740998 353.248179616826 27.829625658491
    vertex -262.363191740993 353.248179616813 28.829625658491
  endloop
endfacet
facet normal 0.910863824922477 0.412707029801523 9.53689991682279e-013
  outer loop
    vertex -251.334058118453 338.874732839376 27.8296256581448
    vertex -252.279295802693 340.960916864253 28.8296256581888
    vertex -251.334058118448 338.874732839363 28.8296256581448
  endloop
endfacet
facet normal 0.910863824922477 0.412707029801523 9.53689991682279e-013
  outer loop
    vertex -252.279295802693 340.960916864253 28.8296256581888
    vertex -251.334058118453 338.874732839376 27.8296256581448
    vertex -252.279295802697 340.960916864266 27.8296256581888
  endloop
endfacet
facet normal 0.582477696870356 0.812846684589785 7.85207189616229e-012
  outer loop
    vertex -264.224883600613 354.582249137228 27.8296256585312
    vertex -262.363191740993 353.248179616813 28.829625658491
    vertex -262.363191740998 353.248179616826 27.829625658491
  endloop
endfacet
facet normal 0.582477696870356 0.812846684589785 7.85207189616229e-012
  outer loop
    vertex -262.363191740993 353.248179616813 28.829625658491
    vertex -264.224883600613 354.582249137228 27.8296256585312
    vertex -264.224883600608 354.582249137214 28.8296256585312
  endloop
endfacet
facet normal 0.0327190828249355 0.999464587476262 1.30249349546307e-011
  outer loop
    vertex -283.66984175628 360.4808127067 27.8296256588163
    vertex -281.38073223322 360.40587502003 28.8296256587931
    vertex -281.380732233225 360.405875020043 27.8296256587931
  endloop
endfacet
facet normal 0.0327190828249355 0.999464587476262 1.30249349546307e-011
  outer loop
    vertex -281.38073223322 360.40587502003 28.8296256587931
    vertex -283.66984175628 360.4808127067 27.8296256588163
    vertex -283.669841756275 360.480812706686 28.8296256588163
  endloop
endfacet
facet normal 0.412707029807262 0.910863824919876 9.98235011403711e-012
  outer loop
    vertex -270.27592162351 357.816596344552 27.8296256586433
    vertex -268.189737598622 356.871358660282 28.8296256586075
    vertex -268.189737598626 356.871358660295 27.8296256586075
  endloop
endfacet
facet normal 0.412707029807262 0.910863824919876 9.98235011403711e-012
  outer loop
    vertex -268.189737598622 356.871358660282 28.8296256586075
    vertex -270.27592162351 357.816596344552 27.8296256586433
    vertex -270.275921623505 357.816596344539 28.8296256586433
  endloop
endfacet
facet normal 0.352250047924182 0.935905926756216 1.06108403023391e-011
  outer loop
    vertex -272.419460470675 358.623367238993 27.8296256586773
    vertex -270.275921623505 357.816596344539 28.8296256586433
    vertex -270.27592162351 357.816596344552 27.8296256586433
  endloop
endfacet
facet normal 0.352250047924182 0.935905926756216 1.06108403023391e-011
  outer loop
    vertex -270.275921623505 357.816596344539 28.8296256586433
    vertex -272.419460470675 358.623367238993 27.8296256586773
    vertex -272.41946047067 358.62336723898 28.8296256586773
  endloop
endfacet
facet normal 0.290284677257479 0.956940335731294 1.11938932434606e-011
  outer loop
    vertex -274.611175177696 359.288216626788 27.8296256587095
    vertex -272.41946047067 358.62336723898 28.8296256586773
    vertex -272.419460470675 358.623367238993 27.8296256586773
  endloop
endfacet
facet normal 0.290284677257479 0.956940335731294 1.11938932434606e-011
  outer loop
    vertex -272.41946047067 358.62336723898 28.8296256586773
    vertex -274.611175177696 359.288216626788 27.8296256587095
    vertex -274.611175177691 359.288216626775 28.8296256587095
  endloop
endfacet
facet normal 0.227076263037425 0.973876979276622 1.17290122151961e-011
  outer loop
    vertex -276.841680485718 359.808297520791 27.8296256587396
    vertex -274.611175177691 359.288216626775 28.8296256587095
    vertex -274.611175177696 359.288216626788 27.8296256587095
  endloop
endfacet
facet normal 0.227076263037425 0.973876979276622 1.17290122151961e-011
  outer loop
    vertex -274.611175177691 359.288216626775 28.8296256587095
    vertex -276.841680485718 359.808297520791 27.8296256587396
    vertex -276.841680485713 359.808297520778 28.8296256587396
  endloop
endfacet
facet normal 0.162895473397708 0.986643332084364 1.2213905755955e-011
  outer loop
    vertex -279.101425028579 360.181382854769 27.8296256587675
    vertex -276.841680485713 359.808297520778 28.8296256587396
    vertex -276.841680485718 359.808297520791 27.8296256587396
  endloop
endfacet
facet normal 0.162895473397708 0.986643332084364 1.2213905755955e-011
  outer loop
    vertex -276.841680485713 359.808297520778 28.8296256587396
    vertex -279.101425028579 360.181382854769 27.8296256587675
    vertex -279.101425028574 360.181382854755 28.8296256587675
  endloop
endfacet
facet normal 0.0980171403326735 0.99518472667189 1.26464974771544e-011
  outer loop
    vertex -281.380732233225 360.405875020043 27.8296256587931
    vertex -279.101425028574 360.181382854755 28.8296256587675
    vertex -279.101425028579 360.181382854769 27.8296256587675
  endloop
endfacet
facet normal 0.0980171403326735 0.99518472667189 1.26464974771544e-011
  outer loop
    vertex -279.101425028574 360.181382854755 28.8296256587675
    vertex -281.380732233225 360.405875020043 27.8296256587931
    vertex -281.38073223322 360.40587502003 28.8296256587931
  endloop
endfacet
facet normal 0.471396736828756 0.881921264346881 9.31111397002873e-012
  outer loop
    vertex -268.189737598626 356.871358660295 27.8296256586075
    vertex -266.16984175629 355.791701839087 28.82962565857
    vertex -266.169841756295 355.7917018391 27.82962565857
  endloop
endfacet
facet normal 0.471396736828756 0.881921264346881 9.31111397002873e-012
  outer loop
    vertex -266.16984175629 355.791701839087 28.82962565857
    vertex -268.189737598626 356.871358660295 27.8296256586075
    vertex -268.189737598622 356.871358660282 28.8296256586075
  endloop
endfacet
facet normal -4.93080304437542e-012 1.31933301820423e-011 -1.0
  outer loop
    vertex -283.66984175628 360.4808127067 27.8296256588163
    vertex -291.169841756337 344.909986873451 27.8296256579365
    vertex -291.169841756337 360.480812707036 27.829625657857
  endloop
endfacet
facet normal -4.93080304437542e-012 1.31933301820423e-011 -1.0
  outer loop
    vertex -291.169841756337 344.909986873451 27.8296256579365
    vertex -283.66984175628 360.4808127067 27.8296256588163
    vertex -289.105041703118 345.765255059083 27.8296256580159
  endloop
endfacet
facet normal -4.93080304437542e-012 1.31933301820423e-011 -1.0
  outer loop
    vertex -289.105041703118 345.765255059083 27.8296256580159
    vertex -283.66984175628 360.4808127067 27.8296256588163
    vertex -283.669841755965 346.480812707013 27.8296256580159
  endloop
endfacet
facet normal -4.93080304437542e-012 1.31933301820423e-011 -1.0
  outer loop
    vertex -283.669841755965 346.480812707013 27.8296256580159
    vertex -283.66984175628 360.4808127067 27.8296256588163
    vertex -281.380732233225 360.405875020043 27.8296256587931
  endloop
endfacet
facet normal -4.93080304437542e-012 1.31933301820423e-011 -1.0
  outer loop
    vertex -283.669841755965 346.480812707013 27.8296256580159
    vertex -281.380732233225 360.405875020043 27.8296256587931
    vertex -278.234641808812 345.765255059083 27.8296256580159
  endloop
endfacet
facet normal -4.93080304437542e-012 1.31933301820423e-011 -1.0
  outer loop
    vertex -278.234641808812 345.765255059083 27.8296256580159
    vertex -281.380732233225 360.405875020043 27.8296256587931
    vertex -279.101425028579 360.181382854769 27.8296256587675
  endloop
endfacet
facet normal -4.93080304437542e-012 1.31933301820423e-011 -1.0
  outer loop
    vertex -278.234641808812 345.765255059083 27.8296256580159
    vertex -279.101425028579 360.181382854769 27.8296256587675
    vertex -276.841680485718 359.808297520791 27.8296256587396
  endloop
endfacet
facet normal -4.93080304437542e-012 1.31933301820423e-011 -1.0
  outer loop
    vertex -278.234641808812 345.765255059083 27.8296256580159
    vertex -276.841680485718 359.808297520791 27.8296256587396
    vertex -273.169841755965 343.667346186486 27.8296256580159
  endloop
endfacet
facet normal -4.93080304437542e-012 1.31933301820423e-011 -1.0
  outer loop
    vertex -273.169841755965 343.667346186486 27.8296256580159
    vertex -276.841680485718 359.808297520791 27.8296256587396
    vertex -274.611175177696 359.288216626788 27.8296256587095
  endloop
endfacet
facet normal -4.93080304437542e-012 1.31933301820423e-011 -1.0
  outer loop
    vertex -273.169841755965 343.667346186486 27.8296256580159
    vertex -274.611175177696 359.288216626788 27.8296256587095
    vertex -272.419460470675 358.623367238993 27.8296256586773
  endloop
endfacet
facet normal -4.93080304437542e-012 1.31933301820423e-011 -1.0
  outer loop
    vertex -273.169841755965 343.667346186486 27.8296256580159
    vertex -272.419460470675 358.623367238993 27.8296256586773
    vertex -268.820599351047 340.330055111931 27.8296256580159
  endloop
endfacet
facet normal -4.93080304437542e-012 1.31933301820423e-011 -1.0
  outer loop
    vertex -268.820599351047 340.330055111931 27.8296256580159
    vertex -272.419460470675 358.623367238993 27.8296256586773
    vertex -270.27592162351 357.816596344552 27.8296256586433
  endloop
endfacet
facet normal -4.93080304437542e-012 1.31933301820423e-011 -1.0
  outer loop
    vertex -268.820599351047 340.330055111931 27.8296256580159
    vertex -270.27592162351 357.816596344552 27.8296256586433
    vertex -268.189737598626 356.871358660295 27.8296256586075
  endloop
endfacet
facet normal -4.93080304437542e-012 1.31933301820423e-011 -1.0
  outer loop
    vertex -268.820599351047 340.330055111931 27.8296256580159
    vertex -268.189737598626 356.871358660295 27.8296256586075
    vertex -265.483308276491 335.980812707013 27.8296256580159
  endloop
endfacet
facet normal -4.93080304437542e-012 1.31933301820423e-011 -1.0
  outer loop
    vertex -265.483308276491 335.980812707013 27.8296256580159
    vertex -268.189737598626 356.871358660295 27.8296256586075
    vertex -266.169841756295 355.7917018391 27.82962565857
  endloop
endfacet
facet normal -4.93080304437542e-012 1.31933301820423e-011 -1.0
  outer loop
    vertex -265.483308276491 335.980812707013 27.8296256580159
    vertex -266.169841756295 355.7917018391 27.82962565857
    vertex -264.224883600613 354.582249137228 27.8296256585312
  endloop
endfacet
facet normal -4.93080304437542e-012 1.31933301820423e-011 -1.0
  outer loop
    vertex -265.483308276491 335.980812707013 27.8296256580159
    vertex -264.224883600613 354.582249137228 27.8296256585312
    vertex -263.385399403894 330.916012654166 27.8296256580159
  endloop
endfacet
facet normal -4.93080304437542e-012 1.31933301820423e-011 -1.0
  outer loop
    vertex -263.385399403894 330.916012654166 27.8296256580159
    vertex -264.224883600613 354.582249137228 27.8296256585312
    vertex -262.363191740998 353.248179616826 27.829625658491
  endloop
endfacet
facet normal -4.93080304437542e-012 1.31933301820423e-011 -1.0
  outer loop
    vertex -263.385399403894 330.916012654166 27.8296256580159
    vertex -262.363191740998 353.248179616826 27.829625658491
    vertex -262.669841755965 325.480812707013 27.8296256580159
  endloop
endfacet
facet normal -4.93080304437542e-012 1.31933301820423e-011 -1.0
  outer loop
    vertex -262.669841755965 325.480812707013 27.8296256580159
    vertex -262.363191740998 353.248179616826 27.829625658491
    vertex -262.363191741172 297.713445796439 27.8296256575621
  endloop
endfacet
facet normal -4.93080304437542e-012 1.31933301820423e-011 -1.0
  outer loop
    vertex -262.363191741172 297.713445796439 27.8296256575621
    vertex -262.363191740998 353.248179616826 27.829625658491
    vertex -260.592738227971 299.166419444863 27.8296256575694
  endloop
endfacet
facet normal -4.93080304437542e-012 1.31933301820423e-011 -1.0
  outer loop
    vertex -260.592738227971 299.166419444863 27.8296256575694
    vertex -262.363191740998 353.248179616826 27.829625658491
    vertex -260.592738227805 351.795205968391 27.8296256584497
  endloop
endfacet
facet normal -4.93080304437542e-012 1.31933301820423e-011 -1.0
  outer loop
    vertex -260.592738227971 299.166419444863 27.8296256575694
    vertex -260.592738227805 351.795205968391 27.8296256584497
    vertex -258.921104414939 300.732075365093 27.8296256575796
  endloop
endfacet
facet normal -4.93080304437542e-012 1.31933301820423e-011 -1.0
  outer loop
    vertex -258.921104414939 300.732075365093 27.8296256575796
    vertex -260.592738227805 351.795205968391 27.8296256584497
    vertex -258.921104414783 350.229550048151 27.8296256584075
  endloop
endfacet
facet normal -4.93080304437542e-012 1.31933301820423e-011 -1.0
  outer loop
    vertex -258.921104414939 300.732075365093 27.8296256575796
    vertex -258.921104414783 350.229550048151 27.8296256584075
    vertex -257.355448494699 302.403709178114 27.8296256575925
  endloop
endfacet
facet normal -4.93080304437542e-012 1.31933301820423e-011 -1.0
  outer loop
    vertex -257.355448494699 302.403709178114 27.8296256575925
    vertex -258.921104414783 350.229550048151 27.8296256584075
    vertex -257.355448494553 348.557916235119 27.8296256583645
  endloop
endfacet
facet normal -4.93080304437542e-012 1.31933301820423e-011 -1.0
  outer loop
    vertex -257.355448494699 302.403709178114 27.8296256575925
    vertex -257.355448494553 348.557916235119 27.8296256583645
    vertex -255.902474846264 304.174162691307 27.8296256576082
  endloop
endfacet
facet normal -4.93080304437542e-012 1.31933301820423e-011 -1.0
  outer loop
    vertex -255.902474846264 304.174162691307 27.8296256576082
    vertex -257.355448494553 348.557916235119 27.8296256583645
    vertex -255.90247484613 346.787462721917 27.829625658321
  endloop
endfacet
facet normal -4.93080304437542e-012 1.31933301820423e-011 -1.0
  outer loop
    vertex -255.902474846264 304.174162691307 27.8296256576082
    vertex -255.90247484613 346.787462721917 27.829625658321
    vertex -254.568405325862 306.035854550922 27.8296256576266
  endloop
endfacet
facet normal -4.93080304437542e-012 1.31933301820423e-011 -1.0
  outer loop
    vertex -254.568405325862 306.035854550922 27.8296256576266
    vertex -255.90247484613 346.787462721917 27.829625658321
    vertex -254.56840532574 344.925770862294 27.829625658277
  endloop
endfacet
facet normal -4.93080304437542e-012 1.31933301820423e-011 -1.0
  outer loop
    vertex -254.568405325862 306.035854550922 27.8296256576266
    vertex -254.56840532574 344.925770862294 27.829625658277
    vertex -253.35895262399 307.980812706604 27.8296256576475
  endloop
endfacet
facet normal -4.93080304437542e-012 1.31933301820423e-011 -1.0
  outer loop
    vertex -253.35895262399 307.980812706604 27.8296256576475
    vertex -254.56840532574 344.925770862294 27.829625658277
    vertex -253.35895262388 342.980812706604 27.8296256582329
  endloop
endfacet
facet normal -4.93080304437542e-012 1.31933301820423e-011 -1.0
  outer loop
    vertex -253.35895262399 307.980812706604 27.8296256576475
    vertex -253.35895262388 342.980812706604 27.8296256582329
    vertex -252.279295802795 310.000708548936 27.8296256576709
  endloop
endfacet
facet normal -4.93080304437542e-012 1.31933301820423e-011 -1.0
  outer loop
    vertex -252.279295802795 310.000708548936 27.8296256576709
    vertex -253.35895262388 342.980812706604 27.8296256582329
    vertex -252.279295802697 340.960916864266 27.8296256581888
  endloop
endfacet
facet normal -4.93080304437542e-012 1.31933301820423e-011 -1.0
  outer loop
    vertex -252.279295802795 310.000708548936 27.8296256576709
    vertex -252.279295802697 340.960916864266 27.8296256581888
    vertex -251.334058118537 312.08689257382 27.8296256576968
  endloop
endfacet
facet normal -4.93080304437542e-012 1.31933301820423e-011 -1.0
  outer loop
    vertex -251.334058118537 312.08689257382 27.8296256576968
    vertex -252.279295802697 340.960916864266 27.8296256581888
    vertex -251.334058118453 338.874732839376 27.8296256581448
  endloop
endfacet
facet normal -4.93080304437542e-012 1.31933301820423e-011 -1.0
  outer loop
    vertex -251.334058118537 312.08689257382 27.8296256576968
    vertex -251.334058118453 338.874732839376 27.8296256581448
    vertex -250.527287224097 314.230431420985 27.8296256577249
  endloop
endfacet
facet normal -4.93080304437542e-012 1.31933301820423e-011 -1.0
  outer loop
    vertex -250.527287224097 314.230431420985 27.8296256577249
    vertex -251.334058118453 338.874732839376 27.8296256581448
    vertex -250.527287224026 336.731193992206 27.8296256581012
  endloop
endfacet
facet normal -4.93080304437542e-012 1.31933301820423e-011 -1.0
  outer loop
    vertex -250.527287224097 314.230431420985 27.8296256577249
    vertex -250.527287224026 336.731193992206 27.8296256581012
    vertex -249.862437836301 316.422146128005 27.8296256577551
  endloop
endfacet
facet normal -4.93080304437542e-012 1.31933301820423e-011 -1.0
  outer loop
    vertex -249.862437836301 316.422146128005 27.8296256577551
    vertex -250.527287224026 336.731193992206 27.8296256581012
    vertex -249.862437836244 334.539479285182 27.8296256580582
  endloop
endfacet
facet normal -4.93080304437542e-012 1.31933301820423e-011 -1.0
  outer loop
    vertex -249.862437836301 316.422146128005 27.8296256577551
    vertex -249.862437836244 334.539479285182 27.8296256580582
    vertex -249.342356942299 318.652651436027 27.8296256577875
  endloop
endfacet
facet normal -4.93080304437542e-012 1.31933301820423e-011 -1.0
  outer loop
    vertex -249.342356942299 318.652651436027 27.8296256577875
    vertex -249.862437836244 334.539479285182 27.8296256580582
    vertex -249.342356942256 332.308973977156 27.8296256580159
  endloop
endfacet
facet normal -4.93080304437542e-012 1.31933301820423e-011 -1.0
  outer loop
    vertex -249.342356942299 318.652651436027 27.8296256577875
    vertex -249.342356942256 332.308973977156 27.8296256580159
    vertex -248.969271608321 320.912395978889 27.8296256578217
  endloop
endfacet
facet normal -4.93080304437542e-012 1.31933301820423e-011 -1.0
  outer loop
    vertex -248.969271608321 320.912395978889 27.8296256578217
    vertex -249.342356942256 332.308973977156 27.8296256580159
    vertex -248.969271608292 330.049229434292 27.8296256579745
  endloop
endfacet
facet normal -4.93080304437542e-012 1.31933301820423e-011 -1.0
  outer loop
    vertex -248.969271608321 320.912395978889 27.8296256578217
    vertex -248.969271608292 330.049229434292 27.8296256579745
    vertex -248.744779443046 323.191703183535 27.8296256578577
  endloop
endfacet
facet normal -4.93080304437542e-012 1.31933301820423e-011 -1.0
  outer loop
    vertex -248.744779443046 323.191703183535 27.8296256578577
    vertex -248.969271608292 330.049229434292 27.8296256579745
    vertex -248.744779443032 327.769922229645 27.8296256579342
  endloop
endfacet
facet normal -4.93080304437542e-012 1.31933301820423e-011 -1.0
  outer loop
    vertex -248.744779443046 323.191703183535 27.8296256578577
    vertex -248.744779443032 327.769922229645 27.8296256579342
    vertex -248.66984175639 325.48081270659 27.8296256578952
  endloop
endfacet
facet normal -4.93080304437542e-012 1.31933301820423e-011 -1.0
  outer loop
    vertex -289.105041703118 305.196370354943 27.8296256580159
    vertex -291.169841756178 290.48081270656 27.8296256581776
    vertex -291.169841756178 306.051638540509 27.8296256580967
  endloop
endfacet
facet normal -4.93080304437542e-012 1.31933301820423e-011 -1.0
  outer loop
    vertex -291.169841756178 290.48081270656 27.8296256581776
    vertex -289.105041703118 305.196370354943 27.8296256580159
    vertex -283.6698417565 290.4808127067 27.8296256576454
  endloop
endfacet
facet normal -4.93080304437542e-012 1.31933301820423e-011 -1.0
  outer loop
    vertex -283.6698417565 290.4808127067 27.8296256576454
    vertex -289.105041703118 305.196370354943 27.8296256580159
    vertex -283.669841755965 304.480812707013 27.8296256580159
  endloop
endfacet
facet normal -4.93080304437542e-012 1.31933301820423e-011 -1.0
  outer loop
    vertex -283.6698417565 290.4808127067 27.8296256576454
    vertex -283.669841755965 304.480812707013 27.8296256580159
    vertex -281.380732233445 290.555750393341 27.8296256576247
  endloop
endfacet
facet normal -4.93080304437542e-012 1.31933301820423e-011 -1.0
  outer loop
    vertex -281.380732233445 290.555750393341 27.8296256576247
    vertex -283.669841755965 304.480812707013 27.8296256580159
    vertex -278.234641808812 305.196370354943 27.8296256580159
  endloop
endfacet
facet normal -4.93080304437542e-012 1.31933301820423e-011 -1.0
  outer loop
    vertex -281.380732233445 290.555750393341 27.8296256576247
    vertex -278.234641808812 305.196370354943 27.8296256580159
    vertex -279.101425028797 290.780242558602 27.8296256576066
  endloop
endfacet
facet normal -4.93080304437542e-012 1.31933301820423e-011 -1.0
  outer loop
    vertex -279.101425028797 290.780242558602 27.8296256576066
    vertex -278.234641808812 305.196370354943 27.8296256580159
    vertex -276.841680485934 291.153327892565 27.8296256575912
  endloop
endfacet
facet normal -4.93080304437542e-012 1.31933301820423e-011 -1.0
  outer loop
    vertex -276.841680485934 291.153327892565 27.8296256575912
    vertex -278.234641808812 305.196370354943 27.8296256580159
    vertex -273.169841755965 307.29427922754 27.8296256580159
  endloop
endfacet
facet normal -4.93080304437542e-012 1.31933301820423e-011 -1.0
  outer loop
    vertex -276.841680485934 291.153327892565 27.8296256575912
    vertex -273.169841755965 307.29427922754 27.8296256580159
    vertex -274.611175177908 291.673408786554 27.8296256575785
  endloop
endfacet
facet normal -4.93080304437542e-012 1.31933301820423e-011 -1.0
  outer loop
    vertex -274.611175177908 291.673408786554 27.8296256575785
    vertex -273.169841755965 307.29427922754 27.8296256580159
    vertex -272.419460470884 292.338258174336 27.8296256575686
  endloop
endfacet
facet normal -4.93080304437542e-012 1.31933301820423e-011 -1.0
  outer loop
    vertex -272.419460470884 292.338258174336 27.8296256575686
    vertex -273.169841755965 307.29427922754 27.8296256580159
    vertex -268.820599351047 310.631570302095 27.8296256580159
  endloop
endfacet
facet normal -4.93080304437542e-012 1.31933301820423e-011 -1.0
  outer loop
    vertex -272.419460470884 292.338258174336 27.8296256575686
    vertex -268.820599351047 310.631570302095 27.8296256580159
    vertex -270.275921623714 293.145029068762 27.8296256575616
  endloop
endfacet
facet normal -4.93080304437542e-012 1.31933301820423e-011 -1.0
  outer loop
    vertex -270.275921623714 293.145029068762 27.8296256575616
    vertex -268.820599351047 310.631570302095 27.8296256580159
    vertex -268.189737598824 294.090266753007 27.8296256575574
  endloop
endfacet
facet normal -4.93080304437542e-012 1.31933301820423e-011 -1.0
  outer loop
    vertex -268.189737598824 294.090266753007 27.8296256575574
    vertex -268.820599351047 310.631570302095 27.8296256580159
    vertex -265.483308276491 314.980812707013 27.8296256580159
  endloop
endfacet
facet normal -4.93080304437542e-012 1.31933301820423e-011 -1.0
  outer loop
    vertex -268.189737598824 294.090266753007 27.8296256575574
    vertex -265.483308276491 314.980812707013 27.8296256580159
    vertex -266.169841756485 295.169923574189 27.8296256575561
  endloop
endfacet
facet normal -4.93080304437542e-012 1.31933301820423e-011 -1.0
  outer loop
    vertex -266.169841756485 295.169923574189 27.8296256575561
    vertex -265.483308276491 314.980812707013 27.8296256580159
    vertex -264.224883600796 296.379376276049 27.8296256575576
  endloop
endfacet
facet normal -4.93080304437542e-012 1.31933301820423e-011 -1.0
  outer loop
    vertex -264.224883600796 296.379376276049 27.8296256575576
    vertex -265.483308276491 314.980812707013 27.8296256580159
    vertex -263.385399403894 320.04561275986 27.8296256580159
  endloop
endfacet
facet normal -4.93080304437542e-012 1.31933301820423e-011 -1.0
  outer loop
    vertex -264.224883600796 296.379376276049 27.8296256575576
    vertex -263.385399403894 320.04561275986 27.8296256580159
    vertex -262.363191741172 297.713445796439 27.8296256575621
  endloop
endfacet
facet normal -4.93080304437542e-012 1.31933301820423e-011 -1.0
  outer loop
    vertex -262.363191741172 297.713445796439 27.8296256575621
    vertex -263.385399403894 320.04561275986 27.8296256580159
    vertex -262.669841755965 325.480812707013 27.8296256580159
  endloop
endfacet
endsolid AuntFanny
