solid AuntFanny
facet normal 0.0 1.0 0.0
  outer loop
    vertex -509.011000172919 344.569483611161 48.8296256571062
    vertex -448.011000172883 344.569483611161 23.4296256571062
    vertex -509.011000172919 344.569483611161 23.4296256571062
  endloop
endfacet
facet normal 0.0 1.0 0.0
  outer loop
    vertex -448.011000172883 344.569483611161 23.4296256571062
    vertex -509.011000172919 344.569483611161 48.8296256571062
    vertex -448.011000172883 344.569483611161 48.8296256571062
  endloop
endfacet
facet normal 1.0 -3.55402545000498e-015 0.0
  outer loop
    vertex -448.011000172883 344.569483611161 23.4296256571062
    vertex -448.011000172883 266.569483611161 48.8296256571062
    vertex -448.011000172883 266.569483611161 23.4296256571062
  endloop
endfacet
facet normal 1.0 -3.55402545000498e-015 0.0
  outer loop
    vertex -448.011000172883 266.569483611161 48.8296256571062
    vertex -448.011000172883 344.569483611161 23.4296256571062
    vertex -448.011000172883 344.569483611161 48.8296256571062
  endloop
endfacet
facet normal -1.0 0.0 0.0
  outer loop
    vertex -509.011000172919 344.569483611161 48.8296256571062
    vertex -509.011000172919 266.569483611161 23.4296256571062
    vertex -509.011000172919 266.569483611161 48.8296256571062
  endloop
endfacet
facet normal -1.0 0.0 0.0
  outer loop
    vertex -509.011000172919 266.569483611161 23.4296256571062
    vertex -509.011000172919 344.569483611161 48.8296256571062
    vertex -509.011000172919 344.569483611161 23.4296256571062
  endloop
endfacet
facet normal 0.0 -1.0 0.0
  outer loop
    vertex -448.011000172883 266.569483611161 48.8296256571062
    vertex -509.011000172919 266.569483611161 23.4296256571062
    vertex -448.011000172883 266.569483611161 23.4296256571062
  endloop
endfacet
facet normal 0.0 -1.0 0.0
  outer loop
    vertex -509.011000172919 266.569483611161 23.4296256571062
    vertex -448.011000172883 266.569483611161 48.8296256571062
    vertex -509.011000172919 266.569483611161 48.8296256571062
  endloop
endfacet
facet normal 0.0 0.0 1.0
  outer loop
    vertex -448.011000172883 266.569483611161 48.8296256571062
    vertex -509.011000172919 344.569483611161 48.8296256571062
    vertex -509.011000172919 266.569483611161 48.8296256571062
  endloop
endfacet
facet normal 0.0 0.0 1.0
  outer loop
    vertex -509.011000172919 344.569483611161 48.8296256571062
    vertex -448.011000172883 266.569483611161 48.8296256571062
    vertex -448.011000172883 344.569483611161 48.8296256571062
  endloop
endfacet
facet normal 0.0 0.0 -1.0
  outer loop
    vertex -448.011000172883 344.569483611161 23.4296256571062
    vertex -509.011000172919 266.569483611161 23.4296256571062
    vertex -509.011000172919 344.569483611161 23.4296256571062
  endloop
endfacet
facet normal 0.0 0.0 -1.0
  outer loop
    vertex -509.011000172919 266.569483611161 23.4296256571062
    vertex -448.011000172883 344.569483611161 23.4296256571062
    vertex -448.011000172883 266.569483611161 23.4296256571062
  endloop
endfacet
endsolid AuntFanny
