solid AuntFanny
facet normal 0.0 0.0 1.0
  outer loop
    vertex -497.011000172919 312.569483611161 48.8296256571062
    vertex -509.011000172919 344.569483611161 48.8296256571062
    vertex -509.011000172919 312.569483611161 48.8296256571062
  endloop
endfacet
facet normal 0.0 0.0 1.0
  outer loop
    vertex -509.011000172919 344.569483611161 48.8296256571062
    vertex -497.011000172919 312.569483611161 48.8296256571062
    vertex -462.911000172919 344.569483611161 48.8296256571062
  endloop
endfacet
facet normal 0.0 0.0 1.0
  outer loop
    vertex -462.911000172919 344.569483611161 48.8296256571062
    vertex -497.011000172919 312.569483611161 48.8296256571062
    vertex -493.911000172919 312.569483611161 48.8296256571062
  endloop
endfacet
facet normal 0.0 0.0 1.0
  outer loop
    vertex -462.911000172919 344.569483611161 48.8296256571062
    vertex -493.911000172919 312.569483611161 48.8296256571062
    vertex -479.011000172919 327.226372266991 48.8296256571062
  endloop
endfacet
facet normal 0.0 0.0 1.0
  outer loop
    vertex -462.911000172919 344.569483611161 48.8296256571062
    vertex -479.011000172919 327.226372266991 48.8296256571062
    vertex -462.911000172919 327.226372266991 48.8296256571062
  endloop
endfacet
facet normal 0.0 1.0 0.0
  outer loop
    vertex -509.011000172919 344.569483611161 48.8296256571062
    vertex -462.911000172919 344.569483611161 23.4296256571062
    vertex -509.011000172919 344.569483611161 23.4296256571062
  endloop
endfacet
facet normal 0.0 1.0 0.0
  outer loop
    vertex -462.911000172919 344.569483611161 23.4296256571062
    vertex -509.011000172919 344.569483611161 48.8296256571062
    vertex -462.911000172919 344.569483611161 48.8296256571062
  endloop
endfacet
facet normal 1.0 0.0 0.0
  outer loop
    vertex -462.911000172919 344.569483611161 23.4296256571062
    vertex -462.911000172919 327.226372266991 48.8296256571062
    vertex -462.911000172919 327.226372266991 23.4296256571062
  endloop
endfacet
facet normal 1.0 0.0 0.0
  outer loop
    vertex -462.911000172919 327.226372266991 48.8296256571062
    vertex -462.911000172919 344.569483611161 23.4296256571062
    vertex -462.911000172919 344.569483611161 48.8296256571062
  endloop
endfacet
facet normal 0.0 -1.0 0.0
  outer loop
    vertex -493.911000172919 312.569483611161 48.8296256571062
    vertex -497.011000172919 312.569483611161 23.4296256571062
    vertex -493.911000172919 312.569483611161 23.4296256571062
  endloop
endfacet
facet normal 0.0 -1.0 0.0
  outer loop
    vertex -497.011000172919 312.569483611161 23.4296256571062
    vertex -493.911000172919 312.569483611161 48.8296256571062
    vertex -497.011000172919 312.569483611161 48.8296256571062
  endloop
endfacet
facet normal 0.701266964594174 -0.712898761654748 0.0
  outer loop
    vertex -479.011000172919 327.226372266991 48.8296256571062
    vertex -493.911000172919 312.569483611161 23.4296256571062
    vertex -479.011000172919 327.226372266991 23.4296256571062
  endloop
endfacet
facet normal 0.701266964594174 -0.712898761654748 0.0
  outer loop
    vertex -493.911000172919 312.569483611161 23.4296256571062
    vertex -479.011000172919 327.226372266991 48.8296256571062
    vertex -493.911000172919 312.569483611161 48.8296256571062
  endloop
endfacet
facet normal 0.0 -1.0 0.0
  outer loop
    vertex -462.911000172919 327.226372266991 48.8296256571062
    vertex -479.011000172919 327.226372266991 23.4296256571062
    vertex -462.911000172919 327.226372266991 23.4296256571062
  endloop
endfacet
facet normal 0.0 -1.0 0.0
  outer loop
    vertex -479.011000172919 327.226372266991 23.4296256571062
    vertex -462.911000172919 327.226372266991 48.8296256571062
    vertex -479.011000172919 327.226372266991 48.8296256571062
  endloop
endfacet
facet normal 0.0 0.0 1.0
  outer loop
    vertex -462.911000172919 266.569483611161 48.8296256571062
    vertex -509.011000172919 298.569483611161 48.8296256571062
    vertex -509.011000172919 266.569483611161 48.8296256571062
  endloop
endfacet
facet normal 0.0 0.0 1.0
  outer loop
    vertex -509.011000172919 298.569483611161 48.8296256571062
    vertex -462.911000172919 266.569483611161 48.8296256571062
    vertex -497.011000172919 298.569483611161 48.8296256571062
  endloop
endfacet
facet normal 0.0 0.0 1.0
  outer loop
    vertex -497.011000172919 298.569483611161 48.8296256571062
    vertex -462.911000172919 266.569483611161 48.8296256571062
    vertex -493.911000172919 298.569483611161 48.8296256571062
  endloop
endfacet
facet normal 0.0 0.0 1.0
  outer loop
    vertex -493.911000172919 298.569483611161 48.8296256571062
    vertex -462.911000172919 266.569483611161 48.8296256571062
    vertex -479.011000172919 283.91259495533 48.8296256571062
  endloop
endfacet
facet normal 0.0 0.0 1.0
  outer loop
    vertex -479.011000172919 283.91259495533 48.8296256571062
    vertex -462.911000172919 266.569483611161 48.8296256571062
    vertex -462.911000172919 283.91259495533 48.8296256571062
  endloop
endfacet
facet normal 1.0 0.0 0.0
  outer loop
    vertex -462.911000172919 283.91259495533 23.4296256571062
    vertex -462.911000172919 266.569483611161 48.8296256571062
    vertex -462.911000172919 266.569483611161 23.4296256571062
  endloop
endfacet
facet normal 1.0 0.0 0.0
  outer loop
    vertex -462.911000172919 266.569483611161 48.8296256571062
    vertex -462.911000172919 283.91259495533 23.4296256571062
    vertex -462.911000172919 283.91259495533 48.8296256571062
  endloop
endfacet
facet normal 0.0 1.0 0.0
  outer loop
    vertex -497.011000172919 298.569483611161 48.8296256571062
    vertex -493.911000172919 298.569483611161 23.4296256571062
    vertex -497.011000172919 298.569483611161 23.4296256571062
  endloop
endfacet
facet normal 0.0 1.0 0.0
  outer loop
    vertex -493.911000172919 298.569483611161 23.4296256571062
    vertex -497.011000172919 298.569483611161 48.8296256571062
    vertex -493.911000172919 298.569483611161 48.8296256571062
  endloop
endfacet
facet normal -1.0 0.0 0.0
  outer loop
    vertex -509.011000172919 298.569483611161 48.8296256571062
    vertex -509.011000172919 266.569483611161 23.4296256571062
    vertex -509.011000172919 266.569483611161 48.8296256571062
  endloop
endfacet
facet normal -1.0 0.0 0.0
  outer loop
    vertex -509.011000172919 266.569483611161 23.4296256571062
    vertex -509.011000172919 298.569483611161 48.8296256571062
    vertex -509.011000172919 344.569483611161 23.4296256571062
  endloop
endfacet
facet normal -1.0 0.0 0.0
  outer loop
    vertex -509.011000172919 344.569483611161 23.4296256571062
    vertex -509.011000172919 298.569483611161 48.8296256571062
    vertex -509.011000172919 312.569483611161 48.8296256571062
  endloop
endfacet
facet normal -1.0 0.0 0.0
  outer loop
    vertex -509.011000172919 344.569483611161 23.4296256571062
    vertex -509.011000172919 312.569483611161 48.8296256571062
    vertex -509.011000172919 344.569483611161 48.8296256571062
  endloop
endfacet
facet normal 0.0 -1.0 0.0
  outer loop
    vertex -462.911000172919 266.569483611161 48.8296256571062
    vertex -509.011000172919 266.569483611161 23.4296256571062
    vertex -462.911000172919 266.569483611161 23.4296256571062
  endloop
endfacet
facet normal 0.0 -1.0 0.0
  outer loop
    vertex -509.011000172919 266.569483611161 23.4296256571062
    vertex -462.911000172919 266.569483611161 48.8296256571062
    vertex -509.011000172919 266.569483611161 48.8296256571062
  endloop
endfacet
facet normal 0.0 0.0 -1.0
  outer loop
    vertex -509.011000172919 344.569483611161 23.4296256571062
    vertex -497.011000172919 312.569483611161 23.4296256571062
    vertex -509.011000172919 266.569483611161 23.4296256571062
  endloop
endfacet
facet normal 0.0 0.0 -1.0
  outer loop
    vertex -497.011000172919 312.569483611161 23.4296256571062
    vertex -509.011000172919 344.569483611161 23.4296256571062
    vertex -462.911000172919 344.569483611161 23.4296256571062
  endloop
endfacet
facet normal 0.0 0.0 -1.0
  outer loop
    vertex -497.011000172919 312.569483611161 23.4296256571062
    vertex -462.911000172919 344.569483611161 23.4296256571062
    vertex -493.911000172919 312.569483611161 23.4296256571062
  endloop
endfacet
facet normal 0.0 0.0 -1.0
  outer loop
    vertex -493.911000172919 312.569483611161 23.4296256571062
    vertex -462.911000172919 344.569483611161 23.4296256571062
    vertex -479.011000172919 327.226372266991 23.4296256571062
  endloop
endfacet
facet normal 0.0 0.0 -1.0
  outer loop
    vertex -479.011000172919 327.226372266991 23.4296256571062
    vertex -462.911000172919 344.569483611161 23.4296256571062
    vertex -462.911000172919 327.226372266991 23.4296256571062
  endloop
endfacet
facet normal 0.0 0.0 -1.0
  outer loop
    vertex -509.011000172919 266.569483611161 23.4296256571062
    vertex -497.011000172919 298.569483611161 23.4296256571062
    vertex -462.911000172919 266.569483611161 23.4296256571062
  endloop
endfacet
facet normal 0.0 0.0 -1.0
  outer loop
    vertex -497.011000172919 298.569483611161 23.4296256571062
    vertex -509.011000172919 266.569483611161 23.4296256571062
    vertex -497.011000172919 312.569483611161 23.4296256571062
  endloop
endfacet
facet normal 0.0 0.0 -1.0
  outer loop
    vertex -462.911000172919 266.569483611161 23.4296256571062
    vertex -497.011000172919 298.569483611161 23.4296256571062
    vertex -493.911000172919 298.569483611161 23.4296256571062
  endloop
endfacet
facet normal 0.0 0.0 -1.0
  outer loop
    vertex -462.911000172919 266.569483611161 23.4296256571062
    vertex -493.911000172919 298.569483611161 23.4296256571062
    vertex -479.011000172919 283.91259495533 23.4296256571062
  endloop
endfacet
facet normal 0.0 0.0 -1.0
  outer loop
    vertex -462.911000172919 266.569483611161 23.4296256571062
    vertex -479.011000172919 283.91259495533 23.4296256571062
    vertex -462.911000172919 283.91259495533 23.4296256571062
  endloop
endfacet
facet normal 0.701266964594174 0.712898761654748 0.0
  outer loop
    vertex -493.911000172919 298.569483611161 48.8296256571062
    vertex -479.011000172919 283.91259495533 23.4296256571062
    vertex -493.911000172919 298.569483611161 23.4296256571062
  endloop
endfacet
facet normal 0.701266964594174 0.712898761654748 0.0
  outer loop
    vertex -479.011000172919 283.91259495533 23.4296256571062
    vertex -493.911000172919 298.569483611161 48.8296256571062
    vertex -479.011000172919 283.91259495533 48.8296256571062
  endloop
endfacet
facet normal 0.0 1.0 0.0
  outer loop
    vertex -479.011000172919 283.91259495533 48.8296256571062
    vertex -462.911000172919 283.91259495533 23.4296256571062
    vertex -479.011000172919 283.91259495533 23.4296256571062
  endloop
endfacet
facet normal 0.0 1.0 0.0
  outer loop
    vertex -462.911000172919 283.91259495533 23.4296256571062
    vertex -479.011000172919 283.91259495533 48.8296256571062
    vertex -462.911000172919 283.91259495533 48.8296256571062
  endloop
endfacet
facet normal 1.0 0.0 0.0
  outer loop
    vertex -497.011000172919 312.569483611161 23.4296256571062
    vertex -497.011000172919 298.569483611161 48.8296256571062
    vertex -497.011000172919 298.569483611161 23.4296256571062
  endloop
endfacet
facet normal 1.0 0.0 0.0
  outer loop
    vertex -497.011000172919 298.569483611161 48.8296256571062
    vertex -497.011000172919 312.569483611161 23.4296256571062
    vertex -497.011000172919 312.569483611161 48.8296256571062
  endloop
endfacet
facet normal 0.0 0.0 1.0
  outer loop
    vertex -497.011000172919 298.569483611161 48.8296256571062
    vertex -509.011000172919 312.569483611161 48.8296256571062
    vertex -509.011000172919 298.569483611161 48.8296256571062
  endloop
endfacet
facet normal 0.0 0.0 1.0
  outer loop
    vertex -509.011000172919 312.569483611161 48.8296256571062
    vertex -497.011000172919 298.569483611161 48.8296256571062
    vertex -497.011000172919 312.569483611161 48.8296256571062
  endloop
endfacet
endsolid AuntFanny
