solid AuntFanny
facet normal 0.836447719808065 4.28634856342621e-013 -0.548046724310882
  outer loop
    vertex -272.669841755661 285.280812707036 22.9788394688912
    vertex -272.004631582379 275.280812707036 23.9941060656046
    vertex -272.669841755656 275.280812707036 22.9788394688913
  endloop
endfacet
facet normal 0.836447719808065 4.28634856342621e-013 -0.548046724310882
  outer loop
    vertex -272.004631582379 275.280812707036 23.9941060656046
    vertex -272.669841755661 285.280812707036 22.9788394688912
    vertex -272.004631582384 285.280812707036 23.9941060656045
  endloop
endfacet
facet normal -5.11014702574733e-013 1.0 -2.05787743044518e-011
  outer loop
    vertex -252.669841755544 285.280812707041 28.8296256583528
    vertex -266.064613079473 285.280812707039 26.231842755928
    vertex -285.669841755666 285.280812707024 28.8296256583269
  endloop
endfacet
facet normal -5.11014702574733e-013 1.0 -2.05787743044518e-011
  outer loop
    vertex -266.064613079473 285.280812707039 26.231842755928
    vertex -252.669841755544 285.280812707041 28.8296256583528
    vertex -264.995152589901 285.280812707039 25.9356193491713
  endloop
endfacet
facet normal -5.11014702574733e-013 1.0 -2.05787743044518e-011
  outer loop
    vertex -264.995152589901 285.280812707039 25.9356193491713
    vertex -252.669841755544 285.280812707041 28.8296256583528
    vertex -263.996070918389 285.28081270704 25.4525770538011
  endloop
endfacet
facet normal -5.11014702574733e-013 1.0 -2.05787743044518e-011
  outer loop
    vertex -263.996070918389 285.28081270704 25.4525770538011
    vertex -252.669841755544 285.280812707041 28.8296256583528
    vertex -252.669841755537 285.280812707041 19.8296256583527
  endloop
endfacet
facet normal -5.11014702574733e-013 1.0 -2.05787743044518e-011
  outer loop
    vertex -285.669841755666 285.280812707024 28.8296256583269
    vertex -266.064613079473 285.280812707039 26.231842755928
    vertex -267.169841755664 285.280812707038 26.3316606841447
  endloop
endfacet
facet normal -5.11014702574733e-013 1.0 -2.05787743044518e-011
  outer loop
    vertex -263.996070918389 285.28081270704 25.4525770538011
    vertex -252.669841755537 285.280812707041 19.8296256583527
    vertex -263.099701047644 285.280812707041 24.7983484238194
  endloop
endfacet
facet normal -5.11014702574733e-013 1.0 -2.05787743044518e-011
  outer loop
    vertex -263.099701047644 285.280812707041 24.7983484238194
    vertex -252.669841755537 285.280812707041 19.8296256583527
    vertex -262.335051928941 285.280812707041 23.9941060656122
  endloop
endfacet
facet normal -5.11014702574733e-013 1.0 -2.05787743044518e-011
  outer loop
    vertex -262.335051928941 285.280812707041 23.9941060656122
    vertex -252.669841755537 285.280812707041 19.8296256583527
    vertex -261.669841755661 285.280812707041 22.9788394688997
  endloop
endfacet
facet normal -5.11014702574733e-013 1.0 -2.05787743044518e-011
  outer loop
    vertex -261.669841755661 285.280812707041 22.9788394688997
    vertex -252.669841755537 285.280812707041 19.8296256583527
    vertex -261.669841755659 285.280812707041 19.8296256583457
  endloop
endfacet
facet normal -5.11014702574733e-013 1.0 -2.05787743044518e-011
  outer loop
    vertex -285.669841755666 285.280812707024 28.8296256583269
    vertex -269.344530921427 285.280812707037 25.9356193491682
    vertex -285.669841755659 285.280812707024 19.8296256583269
  endloop
endfacet
facet normal -5.11014702574733e-013 1.0 -2.05787743044518e-011
  outer loop
    vertex -269.344530921427 285.280812707037 25.9356193491682
    vertex -285.669841755666 285.280812707024 28.8296256583269
    vertex -268.275070431855 285.280812707038 26.2318427559264
  endloop
endfacet
facet normal -5.11014702574733e-013 1.0 -2.05787743044518e-011
  outer loop
    vertex -268.275070431855 285.280812707038 26.2318427559264
    vertex -285.669841755666 285.280812707024 28.8296256583269
    vertex -267.169841755664 285.280812707038 26.3316606841447
  endloop
endfacet
facet normal -5.11014702574733e-013 1.0 -2.05787743044518e-011
  outer loop
    vertex -285.669841755659 285.280812707024 19.8296256583269
    vertex -269.344530921427 285.280812707037 25.9356193491682
    vertex -270.343612592937 285.280812707037 25.4525770537961
  endloop
endfacet
facet normal -5.11014702574733e-013 1.0 -2.05787743044518e-011
  outer loop
    vertex -285.669841755659 285.280812707024 19.8296256583269
    vertex -270.343612592937 285.280812707037 25.4525770537961
    vertex -271.239982463682 285.280812707036 24.7983484238129
  endloop
endfacet
facet normal -5.11014702574733e-013 1.0 -2.05787743044518e-011
  outer loop
    vertex -285.669841755659 285.280812707024 19.8296256583269
    vertex -271.239982463682 285.280812707036 24.7983484238129
    vertex -272.004631582384 285.280812707036 23.9941060656045
  endloop
endfacet
facet normal -5.11014702574733e-013 1.0 -2.05787743044518e-011
  outer loop
    vertex -285.669841755659 285.280812707024 19.8296256583269
    vertex -272.004631582384 285.280812707036 23.9941060656045
    vertex -272.669841755661 285.280812707036 22.9788394688912
  endloop
endfacet
facet normal -5.11014702574733e-013 1.0 -2.05787743044518e-011
  outer loop
    vertex -285.669841755659 285.280812707024 19.8296256583269
    vertex -272.669841755661 285.280812707036 22.9788394688912
    vertex -272.669841755659 285.280812707036 19.8296256583372
  endloop
endfacet
facet normal 1.0 5.17466105520732e-013 7.77566618959626e-013
  outer loop
    vertex -272.669841755659 285.280812707036 19.8296256583372
    vertex -272.669841755656 275.280812707036 22.9788394688913
    vertex -272.669841755653 275.280812707036 19.8296256583373
  endloop
endfacet
facet normal 1.0 5.17466105520732e-013 7.77566618959626e-013
  outer loop
    vertex -272.669841755656 275.280812707036 22.9788394688913
    vertex -272.669841755659 285.280812707036 19.8296256583372
    vertex -272.669841755661 285.280812707036 22.9788394688912
  endloop
endfacet
facet normal -2.15324924457076e-012 -1.0 1.05715661336293e-011
  outer loop
    vertex -285.669841755661 275.280812707024 28.829625658327
    vertex -268.275070431849 275.280812707038 26.2318427559265
    vertex -267.169841755659 275.280812707038 26.3316606841448
  endloop
endfacet
facet normal -2.15324924457076e-012 -1.0 1.05715661336293e-011
  outer loop
    vertex -268.275070431849 275.280812707038 26.2318427559265
    vertex -285.669841755661 275.280812707024 28.829625658327
    vertex -269.344530921421 275.280812707037 25.9356193491683
  endloop
endfacet
facet normal -2.15324924457076e-012 -1.0 1.05715661336293e-011
  outer loop
    vertex -269.344530921421 275.280812707037 25.9356193491683
    vertex -285.669841755661 275.280812707024 28.829625658327
    vertex -285.669841755654 275.280812707024 19.829625658327
  endloop
endfacet
facet normal -2.15324924457076e-012 -1.0 1.05715661336293e-011
  outer loop
    vertex -269.344530921421 275.280812707037 25.9356193491683
    vertex -285.669841755654 275.280812707024 19.829625658327
    vertex -270.343612592932 275.280812707037 25.4525770537961
  endloop
endfacet
facet normal -2.15324924457076e-012 -1.0 1.05715661336293e-011
  outer loop
    vertex -270.343612592932 275.280812707037 25.4525770537961
    vertex -285.669841755654 275.280812707024 19.829625658327
    vertex -271.239982463677 275.280812707036 24.7983484238129
  endloop
endfacet
facet normal -2.15324924457076e-012 -1.0 1.05715661336293e-011
  outer loop
    vertex -271.239982463677 275.280812707036 24.7983484238129
    vertex -285.669841755654 275.280812707024 19.829625658327
    vertex -272.004631582379 275.280812707036 23.9941060656046
  endloop
endfacet
facet normal -2.15324924457076e-012 -1.0 1.05715661336293e-011
  outer loop
    vertex -272.004631582379 275.280812707036 23.9941060656046
    vertex -285.669841755654 275.280812707024 19.829625658327
    vertex -272.669841755656 275.280812707036 22.9788394688913
  endloop
endfacet
facet normal -2.15324924457076e-012 -1.0 1.05715661336293e-011
  outer loop
    vertex -272.669841755656 275.280812707036 22.9788394688913
    vertex -285.669841755654 275.280812707024 19.829625658327
    vertex -272.669841755653 275.280812707036 19.8296256583373
  endloop
endfacet
facet normal -2.15324924457076e-012 -1.0 1.05715661336293e-011
  outer loop
    vertex -252.669841755539 275.280812707041 28.8296256583528
    vertex -263.996070918384 275.28081270704 25.4525770538012
    vertex -252.669841755532 275.280812707041 19.8296256583528
  endloop
endfacet
facet normal -2.15324924457076e-012 -1.0 1.05715661336293e-011
  outer loop
    vertex -263.996070918384 275.28081270704 25.4525770538012
    vertex -252.669841755539 275.280812707041 28.8296256583528
    vertex -264.995152589895 275.280812707039 25.9356193491714
  endloop
endfacet
facet normal -2.15324924457076e-012 -1.0 1.05715661336293e-011
  outer loop
    vertex -264.995152589895 275.280812707039 25.9356193491714
    vertex -252.669841755539 275.280812707041 28.8296256583528
    vertex -266.064613079468 275.280812707039 26.231842755928
  endloop
endfacet
facet normal -2.15324924457076e-012 -1.0 1.05715661336293e-011
  outer loop
    vertex -266.064613079468 275.280812707039 26.231842755928
    vertex -252.669841755539 275.280812707041 28.8296256583528
    vertex -285.669841755661 275.280812707024 28.829625658327
  endloop
endfacet
facet normal -2.15324924457076e-012 -1.0 1.05715661336293e-011
  outer loop
    vertex -266.064613079468 275.280812707039 26.231842755928
    vertex -285.669841755661 275.280812707024 28.829625658327
    vertex -267.169841755659 275.280812707038 26.3316606841448
  endloop
endfacet
facet normal -2.15324924457076e-012 -1.0 1.05715661336293e-011
  outer loop
    vertex -252.669841755532 275.280812707041 19.8296256583528
    vertex -263.996070918384 275.28081270704 25.4525770538012
    vertex -263.099701047639 275.280812707041 24.7983484238195
  endloop
endfacet
facet normal -2.15324924457076e-012 -1.0 1.05715661336293e-011
  outer loop
    vertex -252.669841755532 275.280812707041 19.8296256583528
    vertex -263.099701047639 275.280812707041 24.7983484238195
    vertex -262.335051928935 275.280812707041 23.9941060656123
  endloop
endfacet
facet normal -2.15324924457076e-012 -1.0 1.05715661336293e-011
  outer loop
    vertex -252.669841755532 275.280812707041 19.8296256583528
    vertex -262.335051928935 275.280812707041 23.9941060656123
    vertex -261.669841755656 275.280812707041 22.9788394688998
  endloop
endfacet
facet normal -2.15324924457076e-012 -1.0 1.05715661336293e-011
  outer loop
    vertex -252.669841755532 275.280812707041 19.8296256583528
    vertex -261.669841755656 275.280812707041 22.9788394688998
    vertex -261.669841755654 275.280812707041 19.8296256583457
  endloop
endfacet
facet normal -0.435280289028457 -2.32001698590949e-013 -0.900294990535493
  outer loop
    vertex -264.995152589895 275.280812707039 25.9356193491714
    vertex -263.996070918389 285.28081270704 25.4525770538011
    vertex -263.996070918384 275.28081270704 25.4525770538012
  endloop
endfacet
facet normal -0.435280289028457 -2.32001698590949e-013 -0.900294990535493
  outer loop
    vertex -263.996070918389 285.28081270704 25.4525770538011
    vertex -264.995152589895 275.280812707039 25.9356193491714
    vertex -264.995152589901 285.280812707039 25.9356193491713
  endloop
endfacet
facet normal 1.0 5.17466105520731e-013 7.85439624451097e-013
  outer loop
    vertex -252.669841755537 285.280812707041 19.8296256583527
    vertex -252.669841755539 275.280812707041 28.8296256583528
    vertex -252.669841755532 275.280812707041 19.8296256583528
  endloop
endfacet
facet normal 1.0 5.17466105520731e-013 7.85439624451097e-013
  outer loop
    vertex -252.669841755539 275.280812707041 28.8296256583528
    vertex -252.669841755537 285.280812707041 19.8296256583527
    vertex -252.669841755544 285.280812707041 28.8296256583528
  endloop
endfacet
facet normal 0.435280289030091 2.18482111245193e-013 -0.900294990534703
  outer loop
    vertex -270.343612592932 275.280812707037 25.4525770537961
    vertex -269.344530921427 285.280812707037 25.9356193491682
    vertex -269.344530921421 275.280812707037 25.9356193491683
  endloop
endfacet
facet normal 0.435280289030091 2.18482111245193e-013 -0.900294990534703
  outer loop
    vertex -269.344530921427 285.280812707037 25.9356193491682
    vertex -270.343612592932 275.280812707037 25.4525770537961
    vertex -270.343612592937 285.280812707037 25.4525770537961
  endloop
endfacet
facet normal 0.266933581896535 1.30615487654993e-013 -0.96371492821056
  outer loop
    vertex -269.344530921421 275.280812707037 25.9356193491683
    vertex -268.275070431855 285.280812707038 26.2318427559264
    vertex -268.275070431849 275.280812707038 26.2318427559265
  endloop
endfacet
facet normal 0.266933581896535 1.30615487654993e-013 -0.96371492821056
  outer loop
    vertex -268.275070431855 285.280812707038 26.2318427559264
    vertex -269.344530921421 275.280812707037 25.9356193491683
    vertex -269.344530921427 285.280812707037 25.9356193491682
  endloop
endfacet
facet normal -0.0899481827178126 -5.40231502742603e-014 -0.995946446565157
  outer loop
    vertex -267.169841755659 275.280812707038 26.3316606841448
    vertex -266.064613079473 285.280812707039 26.231842755928
    vertex -266.064613079468 275.280812707039 26.231842755928
  endloop
endfacet
facet normal -0.0899481827178126 -5.40231502742603e-014 -0.995946446565157
  outer loop
    vertex -266.064613079473 285.280812707039 26.231842755928
    vertex -267.169841755659 275.280812707038 26.3316606841448
    vertex -267.169841755664 285.280812707038 26.3316606841447
  endloop
endfacet
facet normal 0.589540149753217 2.98999555166891e-013 -0.807739074100637
  outer loop
    vertex -271.239982463677 275.280812707036 24.7983484238129
    vertex -270.343612592937 285.280812707037 25.4525770537961
    vertex -270.343612592932 275.280812707037 25.4525770537961
  endloop
endfacet
facet normal 0.589540149753217 2.98999555166891e-013 -0.807739074100637
  outer loop
    vertex -270.343612592937 285.280812707037 25.4525770537961
    vertex -271.239982463677 275.280812707036 24.7983484238129
    vertex -271.239982463682 285.280812707036 24.7983484238129
  endloop
endfacet
facet normal -0.589540149751819 -3.11134154939873e-013 -0.807739074101657
  outer loop
    vertex -263.996070918384 275.28081270704 25.4525770538012
    vertex -263.099701047644 285.280812707041 24.7983484238194
    vertex -263.099701047639 275.280812707041 24.7983484238195
  endloop
endfacet
facet normal -0.589540149751819 -3.11134154939873e-013 -0.807739074101657
  outer loop
    vertex -263.099701047644 285.280812707041 24.7983484238194
    vertex -263.996070918384 275.28081270704 25.4525770538012
    vertex -263.996070918389 285.28081270704 25.4525770538011
  endloop
endfacet
facet normal -1.0 -5.17466105520732e-013 -7.48224482395086e-013
  outer loop
    vertex -261.669841755656 275.280812707041 22.9788394688998
    vertex -261.669841755659 285.280812707041 19.8296256583457
    vertex -261.669841755654 275.280812707041 19.8296256583457
  endloop
endfacet
facet normal -1.0 -5.17466105520732e-013 -7.48224482395086e-013
  outer loop
    vertex -261.669841755659 285.280812707041 19.8296256583457
    vertex -261.669841755656 275.280812707041 22.9788394688998
    vertex -261.669841755661 285.280812707041 22.9788394688997
  endloop
endfacet
facet normal -0.266933581895021 -1.45364960560075e-013 -0.96371492821098
  outer loop
    vertex -266.064613079468 275.280812707039 26.231842755928
    vertex -264.995152589901 285.280812707039 25.9356193491713
    vertex -264.995152589895 275.280812707039 25.9356193491714
  endloop
endfacet
facet normal -0.266933581895021 -1.45364960560075e-013 -0.96371492821098
  outer loop
    vertex -264.995152589901 285.280812707039 25.9356193491713
    vertex -266.064613079468 275.280812707039 26.231842755928
    vertex -266.064613079473 285.280812707039 26.231842755928
  endloop
endfacet
facet normal -0.724720898116938 -3.80188918682341e-013 -0.68904253847827
  outer loop
    vertex -263.099701047644 285.280812707041 24.7983484238194
    vertex -262.335051928935 275.280812707041 23.9941060656123
    vertex -263.099701047639 275.280812707041 24.7983484238195
  endloop
endfacet
facet normal -0.724720898116938 -3.80188918682341e-013 -0.68904253847827
  outer loop
    vertex -262.335051928935 275.280812707041 23.9941060656123
    vertex -263.099701047644 285.280812707041 24.7983484238194
    vertex -262.335051928941 285.280812707041 23.9941060656122
  endloop
endfacet
facet normal -1.0 -5.17466105520731e-013 -7.85439624451099e-013
  outer loop
    vertex -285.669841755666 285.280812707024 28.8296256583269
    vertex -285.669841755654 275.280812707024 19.829625658327
    vertex -285.669841755661 275.280812707024 28.829625658327
  endloop
endfacet
facet normal -1.0 -5.17466105520731e-013 -7.85439624451099e-013
  outer loop
    vertex -285.669841755654 275.280812707024 19.829625658327
    vertex -285.669841755666 285.280812707024 28.8296256583269
    vertex -285.669841755659 285.280812707024 19.8296256583269
  endloop
endfacet
facet normal 0.0899481827192009 3.87795074527087e-014 -0.995946446565032
  outer loop
    vertex -268.275070431849 275.280812707038 26.2318427559265
    vertex -267.169841755664 285.280812707038 26.3316606841447
    vertex -267.169841755659 275.280812707038 26.3316606841448
  endloop
endfacet
facet normal 0.0899481827192009 3.87795074527087e-014 -0.995946446565032
  outer loop
    vertex -267.169841755664 285.280812707038 26.3316606841447
    vertex -268.275070431849 275.280812707038 26.2318427559265
    vertex -268.275070431855 285.280812707038 26.2318427559264
  endloop
endfacet
facet normal 0.724720898117909 3.69748084208451e-013 -0.68904253847725
  outer loop
    vertex -272.004631582384 285.280812707036 23.9941060656045
    vertex -271.239982463677 275.280812707036 24.7983484238129
    vertex -272.004631582379 275.280812707036 23.9941060656046
  endloop
endfacet
facet normal 0.724720898117909 3.69748084208451e-013 -0.68904253847725
  outer loop
    vertex -271.239982463677 275.280812707036 24.7983484238129
    vertex -272.004631582384 285.280812707036 23.9941060656045
    vertex -271.239982463682 285.280812707036 24.7983484238129
  endloop
endfacet
facet normal -0.836447719807123 -4.37026851267173e-013 -0.548046724312321
  outer loop
    vertex -262.335051928941 285.280812707041 23.9941060656122
    vertex -261.669841755656 275.280812707041 22.9788394688998
    vertex -262.335051928935 275.280812707041 23.9941060656123
  endloop
endfacet
facet normal -0.836447719807123 -4.37026851267173e-013 -0.548046724312321
  outer loop
    vertex -261.669841755656 275.280812707041 22.9788394688998
    vertex -262.335051928941 285.280812707041 23.9941060656122
    vertex -261.669841755661 285.280812707041 22.9788394688997
  endloop
endfacet
facet normal -7.09430101611401e-013 -1.51334952710119e-012 -1.0
  outer loop
    vertex -252.669841755532 275.280812707041 19.8296256583528
    vertex -254.703915929427 280.021993662153 19.8296256583053
    vertex -252.669841755537 285.280812707041 19.8296256583527
  endloop
endfacet
facet normal -7.09430101611401e-013 -1.51334952710119e-012 -1.0
  outer loop
    vertex -254.703915929427 280.021993662153 19.8296256583053
    vertex -252.669841755532 275.280812707041 19.8296256583528
    vertex -254.803816351931 279.780812707255 19.8296256583055
  endloop
endfacet
facet normal -7.09430101611401e-013 -1.51334952710119e-012 -1.0
  outer loop
    vertex -254.803816351931 279.780812707255 19.8296256583055
    vertex -252.669841755532 275.280812707041 19.8296256583528
    vertex -254.962734974529 279.573705926069 19.8296256583058
  endloop
endfacet
facet normal -7.09430101611401e-013 -1.51334952710119e-012 -1.0
  outer loop
    vertex -254.962734974529 279.573705926069 19.8296256583058
    vertex -252.669841755532 275.280812707041 19.8296256583528
    vertex -255.169841755715 279.414787303471 19.8296256583062
  endloop
endfacet
facet normal -7.09430101611401e-013 -1.51334952710119e-012 -1.0
  outer loop
    vertex -255.169841755715 279.414787303471 19.8296256583062
    vertex -252.669841755532 275.280812707041 19.8296256583528
    vertex -261.669841755654 275.280812707041 19.8296256583457
  endloop
endfacet
facet normal -7.09430101611401e-013 -1.51334952710119e-012 -1.0
  outer loop
    vertex -252.669841755537 285.280812707041 19.8296256583527
    vertex -254.703915929427 280.021993662153 19.8296256583053
    vertex -254.669841755716 280.280812707255 19.8296256583051
  endloop
endfacet
facet normal -7.09430101611401e-013 -1.51334952710119e-012 -1.0
  outer loop
    vertex -255.169841755715 279.414787303471 19.8296256583062
    vertex -261.669841755654 275.280812707041 19.8296256583457
    vertex -255.411022710613 279.314886880966 19.8296256583066
  endloop
endfacet
facet normal -7.09430101611401e-013 -1.51334952710119e-012 -1.0
  outer loop
    vertex -255.411022710613 279.314886880966 19.8296256583066
    vertex -261.669841755654 275.280812707041 19.8296256583457
    vertex -255.669841755715 279.280812707255 19.829625658307
  endloop
endfacet
facet normal -7.09430101611401e-013 -1.51334952710119e-012 -1.0
  outer loop
    vertex -255.669841755715 279.280812707255 19.829625658307
    vertex -261.669841755654 275.280812707041 19.8296256583457
    vertex -255.928660800818 279.314886880966 19.8296256583074
  endloop
endfacet
facet normal -7.09430101611401e-013 -1.51334952710119e-012 -1.0
  outer loop
    vertex -255.928660800818 279.314886880966 19.8296256583074
    vertex -261.669841755654 275.280812707041 19.8296256583457
    vertex -256.169841755715 279.41478730347 19.8296256583077
  endloop
endfacet
facet normal -7.09430101611401e-013 -1.51334952710119e-012 -1.0
  outer loop
    vertex -256.169841755715 279.41478730347 19.8296256583077
    vertex -261.669841755654 275.280812707041 19.8296256583457
    vertex -256.376948536902 279.573705926068 19.8296256583079
  endloop
endfacet
facet normal -7.09430101611401e-013 -1.51334952710119e-012 -1.0
  outer loop
    vertex -256.376948536902 279.573705926068 19.8296256583079
    vertex -261.669841755654 275.280812707041 19.8296256583457
    vertex -256.5358671595 279.780812707255 19.829625658308
  endloop
endfacet
facet normal -7.09430101611401e-013 -1.51334952710119e-012 -1.0
  outer loop
    vertex -256.5358671595 279.780812707255 19.829625658308
    vertex -261.669841755654 275.280812707041 19.8296256583457
    vertex -256.635767582005 280.021993662152 19.8296256583081
  endloop
endfacet
facet normal -7.09430101611401e-013 -1.51334952710119e-012 -1.0
  outer loop
    vertex -256.635767582005 280.021993662152 19.8296256583081
    vertex -261.669841755654 275.280812707041 19.8296256583457
    vertex -256.669841755716 280.280812707255 19.829625658308
  endloop
endfacet
facet normal -7.09430101611401e-013 -1.51334952710119e-012 -1.0
  outer loop
    vertex -252.669841755537 285.280812707041 19.8296256583527
    vertex -255.169841755716 281.14683811104 19.8296256583055
    vertex -261.669841755659 285.280812707041 19.8296256583457
  endloop
endfacet
facet normal -7.09430101611401e-013 -1.51334952710119e-012 -1.0
  outer loop
    vertex -255.169841755716 281.14683811104 19.8296256583055
    vertex -252.669841755537 285.280812707041 19.8296256583527
    vertex -254.96273497453 280.987919488442 19.8296256583053
  endloop
endfacet
facet normal -7.09430101611401e-013 -1.51334952710119e-012 -1.0
  outer loop
    vertex -254.96273497453 280.987919488442 19.8296256583053
    vertex -252.669841755537 285.280812707041 19.8296256583527
    vertex -254.803816351932 280.780812707255 19.8296256583051
  endloop
endfacet
facet normal -7.09430101611401e-013 -1.51334952710119e-012 -1.0
  outer loop
    vertex -254.803816351932 280.780812707255 19.8296256583051
    vertex -252.669841755537 285.280812707041 19.8296256583527
    vertex -254.703915929427 280.539631752358 19.8296256583051
  endloop
endfacet
facet normal -7.09430101611401e-013 -1.51334952710119e-012 -1.0
  outer loop
    vertex -254.703915929427 280.539631752358 19.8296256583051
    vertex -252.669841755537 285.280812707041 19.8296256583527
    vertex -254.669841755716 280.280812707255 19.8296256583051
  endloop
endfacet
facet normal -7.09430101611401e-013 -1.51334952710119e-012 -1.0
  outer loop
    vertex -261.669841755659 285.280812707041 19.8296256583457
    vertex -255.169841755716 281.14683811104 19.8296256583055
    vertex -255.411022710614 281.246738533544 19.8296256583058
  endloop
endfacet
facet normal -7.09430101611401e-013 -1.51334952710119e-012 -1.0
  outer loop
    vertex -261.669841755659 285.280812707041 19.8296256583457
    vertex -255.411022710614 281.246738533544 19.8296256583058
    vertex -255.669841755716 281.280812707255 19.8296256583062
  endloop
endfacet
facet normal -7.09430101611401e-013 -1.51334952710119e-012 -1.0
  outer loop
    vertex -261.669841755659 285.280812707041 19.8296256583457
    vertex -255.669841755716 281.280812707255 19.8296256583062
    vertex -255.928660800819 281.246738533544 19.8296256583066
  endloop
endfacet
facet normal -7.09430101611401e-013 -1.51334952710119e-012 -1.0
  outer loop
    vertex -261.669841755659 285.280812707041 19.8296256583457
    vertex -255.928660800819 281.246738533544 19.8296256583066
    vertex -256.169841755716 281.146838111039 19.829625658307
  endloop
endfacet
facet normal -7.09430101611401e-013 -1.51334952710119e-012 -1.0
  outer loop
    vertex -261.669841755659 285.280812707041 19.8296256583457
    vertex -256.169841755716 281.146838111039 19.829625658307
    vertex -256.376948536903 280.987919488441 19.8296256583073
  endloop
endfacet
facet normal -7.09430101611401e-013 -1.51334952710119e-012 -1.0
  outer loop
    vertex -261.669841755659 285.280812707041 19.8296256583457
    vertex -256.376948536903 280.987919488441 19.8296256583073
    vertex -256.5358671595 280.780812707255 19.8296256583076
  endloop
endfacet
facet normal -7.09430101611401e-013 -1.51334952710119e-012 -1.0
  outer loop
    vertex -261.669841755659 285.280812707041 19.8296256583457
    vertex -256.5358671595 280.780812707255 19.8296256583076
    vertex -256.635767582005 280.539631752357 19.8296256583079
  endloop
endfacet
facet normal -7.09430101611401e-013 -1.51334952710119e-012 -1.0
  outer loop
    vertex -261.669841755659 285.280812707041 19.8296256583457
    vertex -256.635767582005 280.539631752357 19.8296256583079
    vertex -256.669841755716 280.280812707255 19.829625658308
  endloop
endfacet
facet normal -7.09430101611401e-013 -1.51334952710119e-012 -1.0
  outer loop
    vertex -261.669841755659 285.280812707041 19.8296256583457
    vertex -256.669841755716 280.280812707255 19.829625658308
    vertex -261.669841755654 275.280812707041 19.8296256583457
  endloop
endfacet
facet normal 0.793353340290935 0.608761429009112 -1.39369835574294e-012
  outer loop
    vertex -256.5358671595 279.780812707255 19.829625658308
    vertex -256.376948536889 279.573705926072 28.8296256583148
    vertex -256.376948536902 279.573705926068 19.8296256583079
  endloop
endfacet
facet normal 0.793353340290935 0.608761429009112 -1.39369835574294e-012
  outer loop
    vertex -256.376948536889 279.573705926072 28.8296256583148
    vertex -256.5358671595 279.780812707255 19.829625658308
    vertex -256.535867159487 279.780812707258 28.8296256583149
  endloop
endfacet
facet normal -0.382683432365524 0.923879532511107 1.88971367383544e-013
  outer loop
    vertex -255.169841755702 279.414787303474 28.8296256583131
    vertex -255.411022710613 279.314886880966 19.8296256583066
    vertex -255.4110227106 279.31488688097 28.8296256583135
  endloop
endfacet
facet normal -0.382683432365524 0.923879532511107 1.88971367383544e-013
  outer loop
    vertex -255.411022710613 279.314886880966 19.8296256583066
    vertex -255.169841755702 279.414787303474 28.8296256583131
    vertex -255.169841755715 279.414787303471 19.8296256583062
  endloop
endfacet
facet normal 0.608761429009112 -0.793353340290935 -5.64086470152754e-013
  outer loop
    vertex -256.376948536903 280.987919488441 19.8296256583073
    vertex -256.169841755703 281.146838111043 28.8296256583138
    vertex -256.37694853689 280.987919488445 28.8296256583142
  endloop
endfacet
facet normal 0.608761429009112 -0.793353340290935 -5.64086470152754e-013
  outer loop
    vertex -256.169841755703 281.146838111043 28.8296256583138
    vertex -256.376948536903 280.987919488441 19.8296256583073
    vertex -256.169841755716 281.146838111039 19.829625658307
  endloop
endfacet
facet normal 0.923879532511107 0.382683432365524 -1.49250593357595e-012
  outer loop
    vertex -256.635767582005 280.021993662152 19.8296256583081
    vertex -256.535867159487 279.780812707258 28.8296256583149
    vertex -256.5358671595 279.780812707255 19.829625658308
  endloop
endfacet
facet normal 0.923879532511107 0.382683432365524 -1.49250593357595e-012
  outer loop
    vertex -256.535867159487 279.780812707258 28.8296256583149
    vertex -256.635767582005 280.021993662152 19.8296256583081
    vertex -256.635767581992 280.021993662156 28.829625658315
  endloop
endfacet
facet normal 0.991444861373879 -0.130526192219528 -1.38945245685766e-012
  outer loop
    vertex -256.635767582005 280.539631752357 19.8296256583079
    vertex -256.669841755703 280.280812707258 28.8296256583149
    vertex -256.669841755716 280.280812707255 19.829625658308
  endloop
endfacet
facet normal 0.991444861373879 -0.130526192219528 -1.38945245685766e-012
  outer loop
    vertex -256.669841755703 280.280812707258 28.8296256583149
    vertex -256.635767582005 280.539631752357 19.8296256583079
    vertex -256.635767581992 280.539631752361 28.8296256583148
  endloop
endfacet
facet normal 0.92387953251144 -0.382683432364719 -1.18955953756253e-012
  outer loop
    vertex -256.5358671595 280.780812707255 19.8296256583076
    vertex -256.635767581992 280.539631752361 28.8296256583148
    vertex -256.635767582005 280.539631752357 19.8296256583079
  endloop
endfacet
facet normal 0.92387953251144 -0.382683432364719 -1.18955953756253e-012
  outer loop
    vertex -256.635767581992 280.539631752361 28.8296256583148
    vertex -256.5358671595 280.780812707255 19.8296256583076
    vertex -256.535867159487 280.780812707258 28.8296256583145
  endloop
endfacet
facet normal -0.991444861373879 0.130526192219528 1.38677220337131e-012
  outer loop
    vertex -254.703915929413 280.021993662157 28.8296256583122
    vertex -254.669841755716 280.280812707255 19.8296256583051
    vertex -254.703915929427 280.021993662153 19.8296256583053
  endloop
endfacet
facet normal -0.991444861373879 0.130526192219528 1.38677220337131e-012
  outer loop
    vertex -254.669841755716 280.280812707255 19.8296256583051
    vertex -254.703915929413 280.021993662157 28.8296256583122
    vertex -254.669841755703 280.280812707259 28.829625658312
  endloop
endfacet
facet normal 0.382683432364719 0.92387953251144 -9.26480734527625e-013
  outer loop
    vertex -255.928660800805 279.314886880969 28.8296256583142
    vertex -256.169841755715 279.41478730347 19.8296256583077
    vertex -256.169841755702 279.414787303474 28.8296256583145
  endloop
endfacet
facet normal 0.382683432364719 0.92387953251144 -9.26480734527625e-013
  outer loop
    vertex -256.169841755715 279.41478730347 19.8296256583077
    vertex -255.928660800805 279.314886880969 28.8296256583142
    vertex -255.928660800818 279.314886880966 19.8296256583074
  endloop
endfacet
facet normal -0.923879532511107 -0.382683432365524 1.49839925289357e-012
  outer loop
    vertex -254.703915929414 280.539631752362 28.8296256583119
    vertex -254.803816351932 280.780812707255 19.8296256583051
    vertex -254.703915929427 280.539631752358 19.8296256583051
  endloop
endfacet
facet normal -0.923879532511107 -0.382683432365524 1.49839925289357e-012
  outer loop
    vertex -254.803816351932 280.780812707255 19.8296256583051
    vertex -254.703915929414 280.539631752362 28.8296256583119
    vertex -254.803816351919 280.780812707259 28.829625658312
  endloop
endfacet
facet normal 0.608761429008201 0.793353340291634 -1.20113990924915e-012
  outer loop
    vertex -256.169841755702 279.414787303474 28.8296256583145
    vertex -256.376948536902 279.573705926068 19.8296256583079
    vertex -256.376948536889 279.573705926072 28.8296256583148
  endloop
endfacet
facet normal 0.608761429008201 0.793353340291634 -1.20113990924915e-012
  outer loop
    vertex -256.376948536902 279.573705926068 19.8296256583079
    vertex -256.169841755702 279.414787303474 28.8296256583145
    vertex -256.169841755715 279.41478730347 19.8296256583077
  endloop
endfacet
facet normal -0.793353340291634 0.608761429008201 9.09775989787065e-013
  outer loop
    vertex -254.962734974516 279.573705926072 28.8296256583127
    vertex -254.803816351931 279.780812707255 19.8296256583055
    vertex -254.962734974529 279.573705926069 19.8296256583058
  endloop
endfacet
facet normal -0.793353340291634 0.608761429008201 9.09775989787065e-013
  outer loop
    vertex -254.803816351931 279.780812707255 19.8296256583055
    vertex -254.962734974516 279.573705926072 28.8296256583127
    vertex -254.803816351918 279.780812707259 28.8296256583124
  endloop
endfacet
facet normal -0.608761429009112 0.793353340290935 5.69389228116627e-013
  outer loop
    vertex -254.962734974516 279.573705926072 28.8296256583127
    vertex -255.169841755715 279.414787303471 19.8296256583062
    vertex -255.169841755702 279.414787303474 28.8296256583131
  endloop
endfacet
facet normal -0.608761429009112 0.793353340290935 5.69389228116627e-013
  outer loop
    vertex -255.169841755715 279.414787303471 19.8296256583062
    vertex -254.962734974516 279.573705926072 28.8296256583127
    vertex -254.962734974529 279.573705926069 19.8296256583058
  endloop
endfacet
facet normal -0.92387953251144 0.382683432364719 1.18840879538625e-012
  outer loop
    vertex -254.803816351918 279.780812707259 28.8296256583124
    vertex -254.703915929427 280.021993662153 19.8296256583053
    vertex -254.803816351931 279.780812707255 19.8296256583055
  endloop
endfacet
facet normal -0.92387953251144 0.382683432364719 1.18840879538625e-012
  outer loop
    vertex -254.703915929427 280.021993662153 19.8296256583053
    vertex -254.803816351918 279.780812707259 28.8296256583124
    vertex -254.703915929413 280.021993662157 28.8296256583122
  endloop
endfacet
facet normal -0.130526192220583 0.99144486137374 -2.06360025026916e-013
  outer loop
    vertex -255.4110227106 279.31488688097 28.8296256583135
    vertex -255.669841755715 279.280812707255 19.829625658307
    vertex -255.669841755702 279.280812707259 28.8296256583139
  endloop
endfacet
facet normal -0.130526192220583 0.99144486137374 -2.06360025026916e-013
  outer loop
    vertex -255.669841755715 279.280812707255 19.829625658307
    vertex -255.4110227106 279.31488688097 28.8296256583135
    vertex -255.411022710613 279.314886880966 19.8296256583066
  endloop
endfacet
facet normal -0.382683432364719 -0.92387953251144 9.25329299305031e-013
  outer loop
    vertex -255.411022710614 281.246738533544 19.8296256583058
    vertex -255.169841755703 281.146838111043 28.8296256583124
    vertex -255.411022710601 281.246738533548 28.8296256583127
  endloop
endfacet
facet normal -0.382683432364719 -0.92387953251144 9.25329299305031e-013
  outer loop
    vertex -255.169841755703 281.146838111043 28.8296256583124
    vertex -255.411022710614 281.246738533544 19.8296256583058
    vertex -255.169841755716 281.14683811104 19.8296256583055
  endloop
endfacet
facet normal 0.382683432365524 -0.923879532511107 -1.83078394589075e-013
  outer loop
    vertex -256.169841755716 281.146838111039 19.829625658307
    vertex -255.928660800806 281.246738533548 28.8296256583134
    vertex -256.169841755703 281.146838111043 28.8296256583138
  endloop
endfacet
facet normal 0.382683432365524 -0.923879532511107 -1.83078394589075e-013
  outer loop
    vertex -255.928660800806 281.246738533548 28.8296256583134
    vertex -256.169841755716 281.146838111039 19.829625658307
    vertex -255.928660800819 281.246738533544 19.8296256583066
  endloop
endfacet
facet normal 0.99144486137374 0.130526192220584 -1.49163775516036e-012
  outer loop
    vertex -256.669841755716 280.280812707255 19.829625658308
    vertex -256.635767581992 280.021993662156 28.829625658315
    vertex -256.635767582005 280.021993662152 19.8296256583081
  endloop
endfacet
facet normal 0.99144486137374 0.130526192220584 -1.49163775516036e-012
  outer loop
    vertex -256.635767581992 280.021993662156 28.829625658315
    vertex -256.669841755716 280.280812707255 19.829625658308
    vertex -256.669841755703 280.280812707258 28.8296256583149
  endloop
endfacet
facet normal 0.793353340291634 -0.608761429008201 -9.078812320355e-013
  outer loop
    vertex -256.376948536903 280.987919488441 19.8296256583073
    vertex -256.535867159487 280.780812707258 28.8296256583145
    vertex -256.5358671595 280.780812707255 19.8296256583076
  endloop
endfacet
facet normal 0.793353340291634 -0.608761429008201 -9.078812320355e-013
  outer loop
    vertex -256.535867159487 280.780812707258 28.8296256583145
    vertex -256.376948536903 280.987919488441 19.8296256583073
    vertex -256.37694853689 280.987919488445 28.8296256583142
  endloop
endfacet
facet normal 0.130526192220584 -0.99144486137374 2.08370244689844e-013
  outer loop
    vertex -255.928660800819 281.246738533544 19.8296256583066
    vertex -255.669841755703 281.280812707259 28.829625658313
    vertex -255.928660800806 281.246738533548 28.8296256583134
  endloop
endfacet
facet normal 0.130526192220584 -0.99144486137374 2.08370244689844e-013
  outer loop
    vertex -255.669841755703 281.280812707259 28.829625658313
    vertex -255.928660800819 281.246738533544 19.8296256583066
    vertex -255.669841755716 281.280812707255 19.8296256583062
  endloop
endfacet
facet normal -0.99144486137374 -0.130526192220583 1.49364808704353e-012
  outer loop
    vertex -254.669841755703 280.280812707259 28.829625658312
    vertex -254.703915929427 280.539631752358 19.8296256583051
    vertex -254.669841755716 280.280812707255 19.8296256583051
  endloop
endfacet
facet normal -0.99144486137374 -0.130526192220583 1.49364808704353e-012
  outer loop
    vertex -254.703915929427 280.539631752358 19.8296256583051
    vertex -254.669841755703 280.280812707259 28.829625658312
    vertex -254.703915929414 280.539631752362 28.8296256583119
  endloop
endfacet
facet normal -0.793353340290935 -0.608761429009112 1.39900128085638e-012
  outer loop
    vertex -254.803816351919 280.780812707259 28.829625658312
    vertex -254.96273497453 280.987919488442 19.8296256583053
    vertex -254.803816351932 280.780812707255 19.8296256583051
  endloop
endfacet
facet normal -0.793353340290935 -0.608761429009112 1.39900128085638e-012
  outer loop
    vertex -254.96273497453 280.987919488442 19.8296256583053
    vertex -254.803816351919 280.780812707259 28.829625658312
    vertex -254.962734974516 280.987919488446 28.8296256583121
  endloop
endfacet
facet normal -0.608761429008201 -0.793353340291634 1.20303449985114e-012
  outer loop
    vertex -255.169841755716 281.14683811104 19.8296256583055
    vertex -254.962734974516 280.987919488446 28.8296256583121
    vertex -255.169841755703 281.146838111043 28.8296256583124
  endloop
endfacet
facet normal -0.608761429008201 -0.793353340291634 1.20303449985114e-012
  outer loop
    vertex -254.962734974516 280.987919488446 28.8296256583121
    vertex -255.169841755716 281.14683811104 19.8296256583055
    vertex -254.96273497453 280.987919488442 19.8296256583053
  endloop
endfacet
facet normal -0.130526192219528 -0.991444861373879 5.8528361380232e-013
  outer loop
    vertex -255.669841755716 281.280812707255 19.8296256583062
    vertex -255.411022710601 281.246738533548 28.8296256583127
    vertex -255.669841755703 281.280812707259 28.829625658313
  endloop
endfacet
facet normal -0.130526192219528 -0.991444861373879 5.8528361380232e-013
  outer loop
    vertex -255.411022710601 281.246738533548 28.8296256583127
    vertex -255.669841755716 281.280812707255 19.8296256583062
    vertex -255.411022710614 281.246738533544 19.8296256583058
  endloop
endfacet
facet normal 0.130526192219528 0.991444861373879 -5.87963985481265e-013
  outer loop
    vertex -255.669841755702 279.280812707259 28.8296256583139
    vertex -255.928660800818 279.314886880966 19.8296256583074
    vertex -255.928660800805 279.314886880969 28.8296256583142
  endloop
endfacet
facet normal 0.130526192219528 0.991444861373879 -5.87963985481265e-013
  outer loop
    vertex -255.928660800818 279.314886880966 19.8296256583074
    vertex -255.669841755702 279.280812707259 28.8296256583139
    vertex -255.669841755715 279.280812707255 19.829625658307
  endloop
endfacet
facet normal 1.49749569908435e-012 -1.94971456951181e-013 -1.0
  outer loop
    vertex -272.669841755653 275.280812707036 19.8296256583373
    vertex -279.962734974471 279.573705926331 19.8296256583147
    vertex -272.669841755659 285.280812707036 19.8296256583372
  endloop
endfacet
facet normal 1.49749569908435e-012 -1.94971456951181e-013 -1.0
  outer loop
    vertex -279.962734974471 279.573705926331 19.8296256583147
    vertex -272.669841755653 275.280812707036 19.8296256583373
    vertex -280.169841755658 279.414787303733 19.8296256583144
  endloop
endfacet
facet normal 1.49749569908435e-012 -1.94971456951181e-013 -1.0
  outer loop
    vertex -280.169841755658 279.414787303733 19.8296256583144
    vertex -272.669841755653 275.280812707036 19.8296256583373
    vertex -285.669841755654 275.280812707024 19.829625658327
  endloop
endfacet
facet normal 1.49749569908435e-012 -1.94971456951181e-013 -1.0
  outer loop
    vertex -272.669841755659 285.280812707036 19.8296256583372
    vertex -279.962734974471 279.573705926331 19.8296256583147
    vertex -279.803816351873 279.780812707518 19.829625658315
  endloop
endfacet
facet normal 1.49749569908435e-012 -1.94971456951181e-013 -1.0
  outer loop
    vertex -272.669841755659 285.280812707036 19.8296256583372
    vertex -279.803816351873 279.780812707518 19.829625658315
    vertex -279.703915929369 280.021993662415 19.8296256583153
  endloop
endfacet
facet normal 1.49749569908435e-012 -1.94971456951181e-013 -1.0
  outer loop
    vertex -272.669841755659 285.280812707036 19.8296256583372
    vertex -279.703915929369 280.021993662415 19.8296256583153
    vertex -279.669841755658 280.280812707518 19.8296256583156
  endloop
endfacet
facet normal 1.49749569908435e-012 -1.94971456951181e-013 -1.0
  outer loop
    vertex -280.169841755658 279.414787303733 19.8296256583144
    vertex -285.669841755654 275.280812707024 19.829625658327
    vertex -280.411022710555 279.314886881228 19.8296256583141
  endloop
endfacet
facet normal 1.49749569908435e-012 -1.94971456951181e-013 -1.0
  outer loop
    vertex -280.411022710555 279.314886881228 19.8296256583141
    vertex -285.669841755654 275.280812707024 19.829625658327
    vertex -280.669841755658 279.280812707517 19.8296256583139
  endloop
endfacet
facet normal 1.49749569908435e-012 -1.94971456951181e-013 -1.0
  outer loop
    vertex -280.669841755658 279.280812707517 19.8296256583139
    vertex -285.669841755654 275.280812707024 19.829625658327
    vertex -280.92866080076 279.314886881228 19.8296256583138
  endloop
endfacet
facet normal 1.49749569908435e-012 -1.94971456951181e-013 -1.0
  outer loop
    vertex -280.92866080076 279.314886881228 19.8296256583138
    vertex -285.669841755654 275.280812707024 19.829625658327
    vertex -281.169841755658 279.414787303733 19.8296256583137
  endloop
endfacet
facet normal 1.49749569908435e-012 -1.94971456951181e-013 -1.0
  outer loop
    vertex -281.169841755658 279.414787303733 19.8296256583137
    vertex -285.669841755654 275.280812707024 19.829625658327
    vertex -281.376948536844 279.573705926331 19.8296256583138
  endloop
endfacet
facet normal 1.49749569908435e-012 -1.94971456951181e-013 -1.0
  outer loop
    vertex -281.376948536844 279.573705926331 19.8296256583138
    vertex -285.669841755654 275.280812707024 19.829625658327
    vertex -281.535867159442 279.780812707517 19.8296256583139
  endloop
endfacet
facet normal 1.49749569908435e-012 -1.94971456951181e-013 -1.0
  outer loop
    vertex -281.535867159442 279.780812707517 19.8296256583139
    vertex -285.669841755654 275.280812707024 19.829625658327
    vertex -281.635767581947 280.021993662414 19.8296256583141
  endloop
endfacet
facet normal 1.49749569908435e-012 -1.94971456951181e-013 -1.0
  outer loop
    vertex -281.635767581947 280.021993662414 19.8296256583141
    vertex -285.669841755654 275.280812707024 19.829625658327
    vertex -281.669841755658 280.280812707517 19.8296256583143
  endloop
endfacet
facet normal 1.49749569908435e-012 -1.94971456951181e-013 -1.0
  outer loop
    vertex -272.669841755659 285.280812707036 19.8296256583372
    vertex -280.169841755658 281.146838111302 19.8296256583162
    vertex -285.669841755659 285.280812707024 19.8296256583269
  endloop
endfacet
facet normal 1.49749569908435e-012 -1.94971456951181e-013 -1.0
  outer loop
    vertex -280.169841755658 281.146838111302 19.8296256583162
    vertex -272.669841755659 285.280812707036 19.8296256583372
    vertex -279.962734974472 280.987919488704 19.8296256583162
  endloop
endfacet
facet normal 1.49749569908435e-012 -1.94971456951181e-013 -1.0
  outer loop
    vertex -279.962734974472 280.987919488704 19.8296256583162
    vertex -272.669841755659 285.280812707036 19.8296256583372
    vertex -279.803816351874 280.780812707518 19.8296256583161
  endloop
endfacet
facet normal 1.49749569908435e-012 -1.94971456951181e-013 -1.0
  outer loop
    vertex -279.803816351874 280.780812707518 19.8296256583161
    vertex -272.669841755659 285.280812707036 19.8296256583372
    vertex -279.703915929369 280.53963175262 19.8296256583159
  endloop
endfacet
facet normal 1.49749569908435e-012 -1.94971456951181e-013 -1.0
  outer loop
    vertex -279.703915929369 280.53963175262 19.8296256583159
    vertex -272.669841755659 285.280812707036 19.8296256583372
    vertex -279.669841755658 280.280812707518 19.8296256583156
  endloop
endfacet
facet normal 1.49749569908435e-012 -1.94971456951181e-013 -1.0
  outer loop
    vertex -285.669841755659 285.280812707024 19.8296256583269
    vertex -280.169841755658 281.146838111302 19.8296256583162
    vertex -280.411022710556 281.246738533806 19.8296256583161
  endloop
endfacet
facet normal 1.49749569908435e-012 -1.94971456951181e-013 -1.0
  outer loop
    vertex -285.669841755659 285.280812707024 19.8296256583269
    vertex -280.411022710556 281.246738533806 19.8296256583161
    vertex -280.669841755659 281.280812707517 19.829625658316
  endloop
endfacet
facet normal 1.49749569908435e-012 -1.94971456951181e-013 -1.0
  outer loop
    vertex -285.669841755659 285.280812707024 19.8296256583269
    vertex -280.669841755659 281.280812707517 19.829625658316
    vertex -280.928660800761 281.246738533806 19.8296256583158
  endloop
endfacet
facet normal 1.49749569908435e-012 -1.94971456951181e-013 -1.0
  outer loop
    vertex -285.669841755659 285.280812707024 19.8296256583269
    vertex -280.928660800761 281.246738533806 19.8296256583158
    vertex -281.169841755658 281.146838111302 19.8296256583155
  endloop
endfacet
facet normal 1.49749569908435e-012 -1.94971456951181e-013 -1.0
  outer loop
    vertex -285.669841755659 285.280812707024 19.8296256583269
    vertex -281.169841755658 281.146838111302 19.8296256583155
    vertex -281.376948536845 280.987919488704 19.8296256583152
  endloop
endfacet
facet normal 1.49749569908435e-012 -1.94971456951181e-013 -1.0
  outer loop
    vertex -285.669841755659 285.280812707024 19.8296256583269
    vertex -281.376948536845 280.987919488704 19.8296256583152
    vertex -281.535867159443 280.780812707517 19.8296256583149
  endloop
endfacet
facet normal 1.49749569908435e-012 -1.94971456951181e-013 -1.0
  outer loop
    vertex -285.669841755659 285.280812707024 19.8296256583269
    vertex -281.535867159443 280.780812707517 19.8296256583149
    vertex -281.635767581947 280.539631752619 19.8296256583146
  endloop
endfacet
facet normal 1.49749569908435e-012 -1.94971456951181e-013 -1.0
  outer loop
    vertex -285.669841755659 285.280812707024 19.8296256583269
    vertex -281.635767581947 280.539631752619 19.8296256583146
    vertex -281.669841755658 280.280812707517 19.8296256583143
  endloop
endfacet
facet normal 1.49749569908435e-012 -1.94971456951181e-013 -1.0
  outer loop
    vertex -285.669841755659 285.280812707024 19.8296256583269
    vertex -281.669841755658 280.280812707517 19.8296256583143
    vertex -285.669841755654 275.280812707024 19.829625658327
  endloop
endfacet
facet normal -0.793353340291516 0.608761429008355 1.35298443036461e-013
  outer loop
    vertex -279.803816351879 279.780812707508 28.8296256583202
    vertex -279.962734974471 279.573705926331 19.8296256583147
    vertex -279.962734974477 279.573705926322 28.8296256583198
  endloop
endfacet
facet normal -0.793353340291516 0.608761429008355 1.35298443036461e-013
  outer loop
    vertex -279.962734974471 279.573705926331 19.8296256583147
    vertex -279.803816351879 279.780812707508 28.8296256583202
    vertex -279.803816351873 279.780812707518 19.829625658315
  endloop
endfacet
facet normal -0.382683432365631 0.923879532511063 7.36603324386337e-013
  outer loop
    vertex -280.169841755658 279.414787303733 19.8296256583144
    vertex -280.411022710561 279.314886881219 28.8296256583193
    vertex -280.169841755664 279.414787303724 28.8296256583195
  endloop
endfacet
facet normal -0.382683432365631 0.923879532511063 7.36603324386337e-013
  outer loop
    vertex -280.411022710561 279.314886881219 28.8296256583193
    vertex -280.169841755658 279.414787303733 19.8296256583144
    vertex -280.411022710555 279.314886881228 19.8296256583141
  endloop
endfacet
facet normal -0.923879532511459 0.382683432364675 -1.90935033117345e-013
  outer loop
    vertex -279.703915929375 280.021993662406 28.8296256583205
    vertex -279.803816351873 279.780812707518 19.829625658315
    vertex -279.803816351879 279.780812707508 28.8296256583202
  endloop
endfacet
facet normal -0.923879532511459 0.382683432364675 -1.90935033117345e-013
  outer loop
    vertex -279.803816351873 279.780812707518 19.829625658315
    vertex -279.703915929375 280.021993662406 28.8296256583205
    vertex -279.703915929369 280.021993662415 19.8296256583153
  endloop
endfacet
facet normal -0.13052619222041 0.991444861373763 9.73888595251178e-013
  outer loop
    vertex -280.411022710555 279.314886881228 19.8296256583141
    vertex -280.669841755664 279.280812707508 28.8296256583191
    vertex -280.411022710561 279.314886881219 28.8296256583193
  endloop
endfacet
facet normal -0.13052619222041 0.991444861373763 9.73888595251178e-013
  outer loop
    vertex -280.669841755664 279.280812707508 28.8296256583191
    vertex -280.411022710555 279.314886881228 19.8296256583141
    vertex -280.669841755658 279.280812707517 19.8296256583139
  endloop
endfacet
facet normal -0.382683432364675 -0.923879532511459 -1.23322545433463e-012
  outer loop
    vertex -280.411022710562 281.246738533797 28.8296256583213
    vertex -280.169841755658 281.146838111302 19.8296256583162
    vertex -280.169841755664 281.146838111292 28.8296256583213
  endloop
endfacet
facet normal -0.382683432364675 -0.923879532511459 -1.23322545433463e-012
  outer loop
    vertex -280.169841755658 281.146838111302 19.8296256583162
    vertex -280.411022710562 281.246738533797 28.8296256583213
    vertex -280.411022710556 281.246738533806 19.8296256583161
  endloop
endfacet
facet normal 0.923879532511459 -0.382683432364675 1.96491726145386e-013
  outer loop
    vertex -281.635767581947 280.539631752619 19.8296256583146
    vertex -281.535867159449 280.780812707507 28.8296256583201
    vertex -281.635767581953 280.53963175261 28.8296256583198
  endloop
endfacet
facet normal 0.923879532511459 -0.382683432364675 1.96491726145386e-013
  outer loop
    vertex -281.535867159449 280.780812707507 28.8296256583201
    vertex -281.635767581947 280.539631752619 19.8296256583146
    vertex -281.535867159443 280.780812707517 19.8296256583149
  endloop
endfacet
facet normal -0.923879532511063 -0.382683432365631 -1.01136972324281e-012
  outer loop
    vertex -279.80381635188 280.780812707508 28.8296256583212
    vertex -279.703915929369 280.53963175262 19.8296256583159
    vertex -279.703915929375 280.539631752611 28.829625658321
  endloop
endfacet
facet normal -0.923879532511063 -0.382683432365631 -1.01136972324281e-012
  outer loop
    vertex -279.703915929369 280.53963175262 19.8296256583159
    vertex -279.80381635188 280.780812707508 28.8296256583212
    vertex -279.803816351874 280.780812707518 19.8296256583161
  endloop
endfacet
facet normal -0.991444861373866 0.130526192219627 -5.04804502388067e-013
  outer loop
    vertex -279.669841755664 280.280812707508 28.8296256583208
    vertex -279.703915929369 280.021993662415 19.8296256583153
    vertex -279.703915929375 280.021993662406 28.8296256583205
  endloop
endfacet
facet normal -0.991444861373866 0.130526192219627 -5.04804502388067e-013
  outer loop
    vertex -279.703915929369 280.021993662415 19.8296256583153
    vertex -279.669841755664 280.280812707508 28.8296256583208
    vertex -279.669841755658 280.280812707518 19.8296256583156
  endloop
endfacet
facet normal 0.608761429008355 0.793353340291516 1.24653521491882e-012
  outer loop
    vertex -281.169841755664 279.414787303723 28.8296256583189
    vertex -281.376948536844 279.573705926331 19.8296256583138
    vertex -281.37694853685 279.573705926321 28.8296256583189
  endloop
endfacet
facet normal 0.608761429008355 0.793353340291516 1.24653521491882e-012
  outer loop
    vertex -281.376948536844 279.573705926331 19.8296256583138
    vertex -281.169841755664 279.414787303723 28.8296256583189
    vertex -281.169841755658 279.414787303733 19.8296256583137
  endloop
endfacet
facet normal 0.923879532511063 0.382683432365631 1.01055630040243e-012
  outer loop
    vertex -281.535867159442 279.780812707517 19.8296256583139
    vertex -281.635767581953 280.021993662405 28.8296256583192
    vertex -281.535867159448 279.780812707507 28.829625658319
  endloop
endfacet
facet normal 0.923879532511063 0.382683432365631 1.01055630040243e-012
  outer loop
    vertex -281.635767581953 280.021993662405 28.8296256583192
    vertex -281.535867159442 279.780812707517 19.8296256583139
    vertex -281.635767581947 280.021993662414 19.8296256583141
  endloop
endfacet
facet normal 0.382683432365631 -0.923879532511063 -7.37417093749877e-013
  outer loop
    vertex -281.169841755664 281.146838111292 28.8296256583207
    vertex -280.928660800761 281.246738533806 19.8296256583158
    vertex -280.928660800767 281.246738533797 28.829625658321
  endloop
endfacet
facet normal 0.382683432365631 -0.923879532511063 -7.37417093749877e-013
  outer loop
    vertex -280.928660800761 281.246738533806 19.8296256583158
    vertex -281.169841755664 281.146838111292 28.8296256583207
    vertex -281.169841755658 281.146838111302 19.8296256583155
  endloop
endfacet
facet normal -0.991444861373763 -0.13052619222041 -7.85427744508557e-013
  outer loop
    vertex -279.703915929375 280.539631752611 28.829625658321
    vertex -279.669841755658 280.280812707518 19.8296256583156
    vertex -279.669841755664 280.280812707508 28.8296256583208
  endloop
endfacet
facet normal -0.991444861373763 -0.13052619222041 -7.85427744508557e-013
  outer loop
    vertex -279.669841755658 280.280812707518 19.8296256583156
    vertex -279.703915929375 280.539631752611 28.829625658321
    vertex -279.703915929369 280.53963175262 19.8296256583159
  endloop
endfacet
facet normal 0.608761429008958 -0.793353340291053 -4.4915237960368e-013
  outer loop
    vertex -281.376948536851 280.987919488694 28.8296256583204
    vertex -281.169841755658 281.146838111302 19.8296256583155
    vertex -281.169841755664 281.146838111292 28.8296256583207
  endloop
endfacet
facet normal 0.608761429008958 -0.793353340291053 -4.4915237960368e-013
  outer loop
    vertex -281.169841755658 281.146838111302 19.8296256583155
    vertex -281.376948536851 280.987919488694 28.8296256583204
    vertex -281.376948536845 280.987919488704 19.8296256583152
  endloop
endfacet
facet normal 0.793353340291516 -0.608761429008355 -1.30277059171162e-013
  outer loop
    vertex -281.535867159443 280.780812707517 19.8296256583149
    vertex -281.376948536851 280.987919488694 28.8296256583204
    vertex -281.535867159449 280.780812707507 28.8296256583201
  endloop
endfacet
facet normal 0.793353340291516 -0.608761429008355 -1.30277059171162e-013
  outer loop
    vertex -281.376948536851 280.987919488694 28.8296256583204
    vertex -281.535867159443 280.780812707517 19.8296256583149
    vertex -281.376948536845 280.987919488704 19.8296256583152
  endloop
endfacet
facet normal -0.608761429008355 -0.793353340291516 -1.24151366390395e-012
  outer loop
    vertex -280.169841755658 281.146838111302 19.8296256583162
    vertex -279.962734974478 280.987919488695 28.8296256583213
    vertex -280.169841755664 281.146838111292 28.8296256583213
  endloop
endfacet
facet normal -0.608761429008355 -0.793353340291516 -1.24151366390395e-012
  outer loop
    vertex -279.962734974478 280.987919488695 28.8296256583213
    vertex -280.169841755658 281.146838111302 19.8296256583162
    vertex -279.962734974472 280.987919488704 19.8296256583162
  endloop
endfacet
facet normal -0.608761429008958 0.793353340291053 4.51329613931283e-013
  outer loop
    vertex -279.962734974471 279.573705926331 19.8296256583147
    vertex -280.169841755664 279.414787303724 28.8296256583195
    vertex -279.962734974477 279.573705926322 28.8296256583198
  endloop
endfacet
facet normal -0.608761429008958 0.793353340291053 4.51329613931283e-013
  outer loop
    vertex -280.169841755664 279.414787303724 28.8296256583195
    vertex -279.962734974471 279.573705926331 19.8296256583147
    vertex -280.169841755658 279.414787303733 19.8296256583144
  endloop
endfacet
facet normal -0.130526192219627 -0.991444861373866 -1.14154079892839e-012
  outer loop
    vertex -280.669841755664 281.280812707508 28.8296256583212
    vertex -280.411022710556 281.246738533806 19.8296256583161
    vertex -280.411022710562 281.246738533797 28.8296256583213
  endloop
endfacet
facet normal -0.130526192219627 -0.991444861373866 -1.14154079892839e-012
  outer loop
    vertex -280.411022710556 281.246738533806 19.8296256583161
    vertex -280.669841755664 281.280812707508 28.8296256583212
    vertex -280.669841755659 281.280812707517 19.829625658316
  endloop
endfacet
facet normal 0.991444861373866 -0.130526192219627 5.09224217395409e-013
  outer loop
    vertex -281.669841755658 280.280812707517 19.8296256583143
    vertex -281.635767581953 280.53963175261 28.8296256583198
    vertex -281.669841755664 280.280812707507 28.8296256583195
  endloop
endfacet
facet normal 0.991444861373866 -0.130526192219627 5.09224217395409e-013
  outer loop
    vertex -281.635767581953 280.53963175261 28.8296256583198
    vertex -281.669841755658 280.280812707517 19.8296256583143
    vertex -281.635767581947 280.539631752619 19.8296256583146
  endloop
endfacet
facet normal 0.13052619222041 -0.991444861373763 -9.7321844323514e-013
  outer loop
    vertex -280.928660800767 281.246738533797 28.829625658321
    vertex -280.669841755659 281.280812707517 19.829625658316
    vertex -280.669841755664 281.280812707508 28.8296256583212
  endloop
endfacet
facet normal 0.13052619222041 -0.991444861373763 -9.7321844323514e-013
  outer loop
    vertex -280.669841755659 281.280812707517 19.829625658316
    vertex -280.928660800767 281.246738533797 28.829625658321
    vertex -280.928660800761 281.246738533806 19.8296256583158
  endloop
endfacet
facet normal 0.130526192219627 0.991444861373866 1.14596062615597e-012
  outer loop
    vertex -280.669841755658 279.280812707517 19.8296256583139
    vertex -280.928660800766 279.314886881219 28.8296256583189
    vertex -280.669841755664 279.280812707508 28.8296256583191
  endloop
endfacet
facet normal 0.130526192219627 0.991444861373866 1.14596062615597e-012
  outer loop
    vertex -280.928660800766 279.314886881219 28.8296256583189
    vertex -280.669841755658 279.280812707517 19.8296256583139
    vertex -280.92866080076 279.314886881228 19.8296256583138
  endloop
endfacet
facet normal 0.382683432364675 0.923879532511459 1.23878180083951e-012
  outer loop
    vertex -280.92866080076 279.314886881228 19.8296256583138
    vertex -281.169841755664 279.414787303723 28.8296256583189
    vertex -280.928660800766 279.314886881219 28.8296256583189
  endloop
endfacet
facet normal 0.382683432364675 0.923879532511459 1.23878180083951e-012
  outer loop
    vertex -281.169841755664 279.414787303723 28.8296256583189
    vertex -280.92866080076 279.314886881228 19.8296256583138
    vertex -281.169841755658 279.414787303733 19.8296256583137
  endloop
endfacet
facet normal 0.793353340291053 0.608761429008958 1.16835585015233e-012
  outer loop
    vertex -281.376948536844 279.573705926331 19.8296256583138
    vertex -281.535867159448 279.780812707507 28.829625658319
    vertex -281.37694853685 279.573705926321 28.8296256583189
  endloop
endfacet
facet normal 0.793353340291053 0.608761429008958 1.16835585015233e-012
  outer loop
    vertex -281.535867159448 279.780812707507 28.829625658319
    vertex -281.376948536844 279.573705926331 19.8296256583138
    vertex -281.535867159442 279.780812707517 19.8296256583139
  endloop
endfacet
facet normal 0.991444861373763 0.13052619222041 7.86097778332e-013
  outer loop
    vertex -281.635767581947 280.021993662414 19.8296256583141
    vertex -281.669841755664 280.280812707507 28.8296256583195
    vertex -281.635767581953 280.021993662405 28.8296256583192
  endloop
endfacet
facet normal 0.991444861373763 0.13052619222041 7.86097778332e-013
  outer loop
    vertex -281.669841755664 280.280812707507 28.8296256583195
    vertex -281.635767581947 280.021993662414 19.8296256583141
    vertex -281.669841755658 280.280812707517 19.8296256583143
  endloop
endfacet
facet normal -0.793353340291053 -0.608761429008958 -1.16617861582473e-012
  outer loop
    vertex -279.962734974478 280.987919488695 28.8296256583213
    vertex -279.803816351874 280.780812707518 19.8296256583161
    vertex -279.80381635188 280.780812707508 28.8296256583212
  endloop
endfacet
facet normal -0.793353340291053 -0.608761429008958 -1.16617861582473e-012
  outer loop
    vertex -279.803816351874 280.780812707518 19.8296256583161
    vertex -279.962734974478 280.987919488695 28.8296256583213
    vertex -279.962734974472 280.987919488704 19.8296256583162
  endloop
endfacet
facet normal 1.50635724330289e-013 -1.23170916447231e-012 1.0
  outer loop
    vertex -252.669841755544 285.280812707041 28.8296256583528
    vertex -254.703915929414 280.539631752362 28.8296256583119
    vertex -254.669841755703 280.280812707259 28.829625658312
  endloop
endfacet
facet normal 1.50635724330289e-013 -1.23170916447231e-012 1.0
  outer loop
    vertex -254.703915929414 280.539631752362 28.8296256583119
    vertex -252.669841755544 285.280812707041 28.8296256583528
    vertex -254.803816351919 280.780812707259 28.829625658312
  endloop
endfacet
facet normal 1.50635724330289e-013 -1.23170916447231e-012 1.0
  outer loop
    vertex -254.803816351919 280.780812707259 28.829625658312
    vertex -252.669841755544 285.280812707041 28.8296256583528
    vertex -254.962734974516 280.987919488446 28.8296256583121
  endloop
endfacet
facet normal 1.50635724330289e-013 -1.23170916447231e-012 1.0
  outer loop
    vertex -254.962734974516 280.987919488446 28.8296256583121
    vertex -252.669841755544 285.280812707041 28.8296256583528
    vertex -255.169841755703 281.146838111043 28.8296256583124
  endloop
endfacet
facet normal 1.50635724330289e-013 -1.23170916447231e-012 1.0
  outer loop
    vertex -255.169841755703 281.146838111043 28.8296256583124
    vertex -252.669841755544 285.280812707041 28.8296256583528
    vertex -255.411022710601 281.246738533548 28.8296256583127
  endloop
endfacet
facet normal 1.50635724330289e-013 -1.23170916447231e-012 1.0
  outer loop
    vertex -255.411022710601 281.246738533548 28.8296256583127
    vertex -252.669841755544 285.280812707041 28.8296256583528
    vertex -285.669841755666 285.280812707024 28.8296256583269
  endloop
endfacet
facet normal 1.50635724330289e-013 -1.23170916447231e-012 1.0
  outer loop
    vertex -255.411022710601 281.246738533548 28.8296256583127
    vertex -285.669841755666 285.280812707024 28.8296256583269
    vertex -255.669841755703 281.280812707259 28.829625658313
  endloop
endfacet
facet normal 1.50635724330289e-013 -1.23170916447231e-012 1.0
  outer loop
    vertex -255.669841755703 281.280812707259 28.829625658313
    vertex -285.669841755666 285.280812707024 28.8296256583269
    vertex -255.928660800806 281.246738533548 28.8296256583134
  endloop
endfacet
facet normal 1.50635724330289e-013 -1.23170916447231e-012 1.0
  outer loop
    vertex -255.928660800806 281.246738533548 28.8296256583134
    vertex -285.669841755666 285.280812707024 28.8296256583269
    vertex -256.169841755703 281.146838111043 28.8296256583138
  endloop
endfacet
facet normal 1.50635724330289e-013 -1.23170916447231e-012 1.0
  outer loop
    vertex -256.169841755703 281.146838111043 28.8296256583138
    vertex -285.669841755666 285.280812707024 28.8296256583269
    vertex -256.37694853689 280.987919488445 28.8296256583142
  endloop
endfacet
facet normal 1.50635724330289e-013 -1.23170916447231e-012 1.0
  outer loop
    vertex -256.37694853689 280.987919488445 28.8296256583142
    vertex -285.669841755666 285.280812707024 28.8296256583269
    vertex -256.535867159487 280.780812707258 28.8296256583145
  endloop
endfacet
facet normal 1.50635724330289e-013 -1.23170916447231e-012 1.0
  outer loop
    vertex -256.535867159487 280.780812707258 28.8296256583145
    vertex -285.669841755666 285.280812707024 28.8296256583269
    vertex -256.635767581992 280.539631752361 28.8296256583148
  endloop
endfacet
facet normal 1.50635724330289e-013 -1.23170916447231e-012 1.0
  outer loop
    vertex -256.635767581992 280.539631752361 28.8296256583148
    vertex -285.669841755666 285.280812707024 28.8296256583269
    vertex -256.669841755703 280.280812707258 28.8296256583149
  endloop
endfacet
facet normal 1.50635724330289e-013 -1.23170916447231e-012 1.0
  outer loop
    vertex -256.669841755703 280.280812707258 28.8296256583149
    vertex -285.669841755666 285.280812707024 28.8296256583269
    vertex -280.169841755664 281.146838111292 28.8296256583213
  endloop
endfacet
facet normal 1.50635724330289e-013 -1.23170916447231e-012 1.0
  outer loop
    vertex -256.669841755703 280.280812707258 28.8296256583149
    vertex -280.169841755664 281.146838111292 28.8296256583213
    vertex -279.962734974478 280.987919488695 28.8296256583213
  endloop
endfacet
facet normal 1.50635724330289e-013 -1.23170916447231e-012 1.0
  outer loop
    vertex -256.669841755703 280.280812707258 28.8296256583149
    vertex -279.962734974478 280.987919488695 28.8296256583213
    vertex -279.80381635188 280.780812707508 28.8296256583212
  endloop
endfacet
facet normal 1.50635724330289e-013 -1.23170916447231e-012 1.0
  outer loop
    vertex -256.669841755703 280.280812707258 28.8296256583149
    vertex -279.80381635188 280.780812707508 28.8296256583212
    vertex -279.703915929375 280.539631752611 28.829625658321
  endloop
endfacet
facet normal 1.50635724330289e-013 -1.23170916447231e-012 1.0
  outer loop
    vertex -256.669841755703 280.280812707258 28.8296256583149
    vertex -279.703915929375 280.539631752611 28.829625658321
    vertex -279.669841755664 280.280812707508 28.8296256583208
  endloop
endfacet
facet normal 1.50635724330289e-013 -1.23170916447231e-012 1.0
  outer loop
    vertex -280.169841755664 281.146838111292 28.8296256583213
    vertex -285.669841755666 285.280812707024 28.8296256583269
    vertex -280.411022710562 281.246738533797 28.8296256583213
  endloop
endfacet
facet normal 1.50635724330289e-013 -1.23170916447231e-012 1.0
  outer loop
    vertex -280.411022710562 281.246738533797 28.8296256583213
    vertex -285.669841755666 285.280812707024 28.8296256583269
    vertex -280.669841755664 281.280812707508 28.8296256583212
  endloop
endfacet
facet normal 1.50635724330289e-013 -1.23170916447231e-012 1.0
  outer loop
    vertex -280.669841755664 281.280812707508 28.8296256583212
    vertex -285.669841755666 285.280812707024 28.8296256583269
    vertex -280.928660800767 281.246738533797 28.829625658321
  endloop
endfacet
facet normal 1.50635724330289e-013 -1.23170916447231e-012 1.0
  outer loop
    vertex -280.928660800767 281.246738533797 28.829625658321
    vertex -285.669841755666 285.280812707024 28.8296256583269
    vertex -281.169841755664 281.146838111292 28.8296256583207
  endloop
endfacet
facet normal 1.50635724330289e-013 -1.23170916447231e-012 1.0
  outer loop
    vertex -281.169841755664 281.146838111292 28.8296256583207
    vertex -285.669841755666 285.280812707024 28.8296256583269
    vertex -281.376948536851 280.987919488694 28.8296256583204
  endloop
endfacet
facet normal 1.50635724330289e-013 -1.23170916447231e-012 1.0
  outer loop
    vertex -281.376948536851 280.987919488694 28.8296256583204
    vertex -285.669841755666 285.280812707024 28.8296256583269
    vertex -281.535867159449 280.780812707507 28.8296256583201
  endloop
endfacet
facet normal 1.50635724330289e-013 -1.23170916447231e-012 1.0
  outer loop
    vertex -281.535867159449 280.780812707507 28.8296256583201
    vertex -285.669841755666 285.280812707024 28.8296256583269
    vertex -281.635767581953 280.53963175261 28.8296256583198
  endloop
endfacet
facet normal 1.50635724330289e-013 -1.23170916447231e-012 1.0
  outer loop
    vertex -281.635767581953 280.53963175261 28.8296256583198
    vertex -285.669841755666 285.280812707024 28.8296256583269
    vertex -281.669841755664 280.280812707507 28.8296256583195
  endloop
endfacet
facet normal 1.50635724330289e-013 -1.23170916447231e-012 1.0
  outer loop
    vertex -281.669841755664 280.280812707507 28.8296256583195
    vertex -285.669841755666 285.280812707024 28.8296256583269
    vertex -285.669841755661 275.280812707024 28.829625658327
  endloop
endfacet
facet normal 1.50635724330289e-013 -1.23170916447231e-012 1.0
  outer loop
    vertex -252.669841755539 275.280812707041 28.8296256583528
    vertex -255.4110227106 279.31488688097 28.8296256583135
    vertex -285.669841755661 275.280812707024 28.829625658327
  endloop
endfacet
facet normal 1.50635724330289e-013 -1.23170916447231e-012 1.0
  outer loop
    vertex -255.4110227106 279.31488688097 28.8296256583135
    vertex -252.669841755539 275.280812707041 28.8296256583528
    vertex -255.169841755702 279.414787303474 28.8296256583131
  endloop
endfacet
facet normal 1.50635724330289e-013 -1.23170916447231e-012 1.0
  outer loop
    vertex -255.169841755702 279.414787303474 28.8296256583131
    vertex -252.669841755539 275.280812707041 28.8296256583528
    vertex -254.962734974516 279.573705926072 28.8296256583127
  endloop
endfacet
facet normal 1.50635724330289e-013 -1.23170916447231e-012 1.0
  outer loop
    vertex -254.962734974516 279.573705926072 28.8296256583127
    vertex -252.669841755539 275.280812707041 28.8296256583528
    vertex -254.803816351918 279.780812707259 28.8296256583124
  endloop
endfacet
facet normal 1.50635724330289e-013 -1.23170916447231e-012 1.0
  outer loop
    vertex -254.803816351918 279.780812707259 28.8296256583124
    vertex -252.669841755539 275.280812707041 28.8296256583528
    vertex -254.703915929413 280.021993662157 28.8296256583122
  endloop
endfacet
facet normal 1.50635724330289e-013 -1.23170916447231e-012 1.0
  outer loop
    vertex -254.703915929413 280.021993662157 28.8296256583122
    vertex -252.669841755539 275.280812707041 28.8296256583528
    vertex -252.669841755544 285.280812707041 28.8296256583528
  endloop
endfacet
facet normal 1.50635724330289e-013 -1.23170916447231e-012 1.0
  outer loop
    vertex -254.703915929413 280.021993662157 28.8296256583122
    vertex -252.669841755544 285.280812707041 28.8296256583528
    vertex -254.669841755703 280.280812707259 28.829625658312
  endloop
endfacet
facet normal 1.50635724330289e-013 -1.23170916447231e-012 1.0
  outer loop
    vertex -285.669841755661 275.280812707024 28.829625658327
    vertex -255.4110227106 279.31488688097 28.8296256583135
    vertex -255.669841755702 279.280812707259 28.8296256583139
  endloop
endfacet
facet normal 1.50635724330289e-013 -1.23170916447231e-012 1.0
  outer loop
    vertex -285.669841755661 275.280812707024 28.829625658327
    vertex -255.669841755702 279.280812707259 28.8296256583139
    vertex -255.928660800805 279.314886880969 28.8296256583142
  endloop
endfacet
facet normal 1.50635724330289e-013 -1.23170916447231e-012 1.0
  outer loop
    vertex -285.669841755661 275.280812707024 28.829625658327
    vertex -255.928660800805 279.314886880969 28.8296256583142
    vertex -256.169841755702 279.414787303474 28.8296256583145
  endloop
endfacet
facet normal 1.50635724330289e-013 -1.23170916447231e-012 1.0
  outer loop
    vertex -285.669841755661 275.280812707024 28.829625658327
    vertex -256.169841755702 279.414787303474 28.8296256583145
    vertex -256.376948536889 279.573705926072 28.8296256583148
  endloop
endfacet
facet normal 1.50635724330289e-013 -1.23170916447231e-012 1.0
  outer loop
    vertex -285.669841755661 275.280812707024 28.829625658327
    vertex -256.376948536889 279.573705926072 28.8296256583148
    vertex -256.535867159487 279.780812707258 28.8296256583149
  endloop
endfacet
facet normal 1.50635724330289e-013 -1.23170916447231e-012 1.0
  outer loop
    vertex -285.669841755661 275.280812707024 28.829625658327
    vertex -256.535867159487 279.780812707258 28.8296256583149
    vertex -256.635767581992 280.021993662156 28.829625658315
  endloop
endfacet
facet normal 1.50635724330289e-013 -1.23170916447231e-012 1.0
  outer loop
    vertex -285.669841755661 275.280812707024 28.829625658327
    vertex -256.635767581992 280.021993662156 28.829625658315
    vertex -256.669841755703 280.280812707258 28.8296256583149
  endloop
endfacet
facet normal 1.50635724330289e-013 -1.23170916447231e-012 1.0
  outer loop
    vertex -285.669841755661 275.280812707024 28.829625658327
    vertex -256.669841755703 280.280812707258 28.8296256583149
    vertex -280.169841755664 279.414787303724 28.8296256583195
  endloop
endfacet
facet normal 1.50635724330289e-013 -1.23170916447231e-012 1.0
  outer loop
    vertex -280.169841755664 279.414787303724 28.8296256583195
    vertex -256.669841755703 280.280812707258 28.8296256583149
    vertex -279.962734974477 279.573705926322 28.8296256583198
  endloop
endfacet
facet normal 1.50635724330289e-013 -1.23170916447231e-012 1.0
  outer loop
    vertex -279.962734974477 279.573705926322 28.8296256583198
    vertex -256.669841755703 280.280812707258 28.8296256583149
    vertex -279.803816351879 279.780812707508 28.8296256583202
  endloop
endfacet
facet normal 1.50635724330289e-013 -1.23170916447231e-012 1.0
  outer loop
    vertex -279.803816351879 279.780812707508 28.8296256583202
    vertex -256.669841755703 280.280812707258 28.8296256583149
    vertex -279.703915929375 280.021993662406 28.8296256583205
  endloop
endfacet
facet normal 1.50635724330289e-013 -1.23170916447231e-012 1.0
  outer loop
    vertex -279.703915929375 280.021993662406 28.8296256583205
    vertex -256.669841755703 280.280812707258 28.8296256583149
    vertex -279.669841755664 280.280812707508 28.8296256583208
  endloop
endfacet
facet normal 1.50635724330289e-013 -1.23170916447231e-012 1.0
  outer loop
    vertex -285.669841755661 275.280812707024 28.829625658327
    vertex -280.169841755664 279.414787303724 28.8296256583195
    vertex -280.411022710561 279.314886881219 28.8296256583193
  endloop
endfacet
facet normal 1.50635724330289e-013 -1.23170916447231e-012 1.0
  outer loop
    vertex -285.669841755661 275.280812707024 28.829625658327
    vertex -280.411022710561 279.314886881219 28.8296256583193
    vertex -280.669841755664 279.280812707508 28.8296256583191
  endloop
endfacet
facet normal 1.50635724330289e-013 -1.23170916447231e-012 1.0
  outer loop
    vertex -285.669841755661 275.280812707024 28.829625658327
    vertex -280.669841755664 279.280812707508 28.8296256583191
    vertex -280.928660800766 279.314886881219 28.8296256583189
  endloop
endfacet
facet normal 1.50635724330289e-013 -1.23170916447231e-012 1.0
  outer loop
    vertex -285.669841755661 275.280812707024 28.829625658327
    vertex -280.928660800766 279.314886881219 28.8296256583189
    vertex -281.169841755664 279.414787303723 28.8296256583189
  endloop
endfacet
facet normal 1.50635724330289e-013 -1.23170916447231e-012 1.0
  outer loop
    vertex -285.669841755661 275.280812707024 28.829625658327
    vertex -281.169841755664 279.414787303723 28.8296256583189
    vertex -281.37694853685 279.573705926321 28.8296256583189
  endloop
endfacet
facet normal 1.50635724330289e-013 -1.23170916447231e-012 1.0
  outer loop
    vertex -285.669841755661 275.280812707024 28.829625658327
    vertex -281.37694853685 279.573705926321 28.8296256583189
    vertex -281.535867159448 279.780812707507 28.829625658319
  endloop
endfacet
facet normal 1.50635724330289e-013 -1.23170916447231e-012 1.0
  outer loop
    vertex -285.669841755661 275.280812707024 28.829625658327
    vertex -281.535867159448 279.780812707507 28.829625658319
    vertex -281.635767581953 280.021993662405 28.8296256583192
  endloop
endfacet
facet normal 1.50635724330289e-013 -1.23170916447231e-012 1.0
  outer loop
    vertex -285.669841755661 275.280812707024 28.829625658327
    vertex -281.635767581953 280.021993662405 28.8296256583192
    vertex -281.669841755664 280.280812707507 28.8296256583195
  endloop
endfacet
endsolid AuntFanny
