solid AuntFanny
facet normal -1.08607294433897e-011 0.59484300540686 0.803841899205642
  outer loop
    vertex -316.169841755231 412.480812706584 7.82962565927301
    vertex -311.169841755731 362.480812706383 44.829625659159
    vertex -311.169841755231 412.480812706584 7.82962565934057
  endloop
endfacet
facet normal -1.08607294433897e-011 0.59484300540686 0.803841899205642
  outer loop
    vertex -311.169841755731 362.480812706383 44.829625659159
    vertex -316.169841755231 412.480812706584 7.82962565927301
    vertex -316.169841755731 362.480812706383 44.8296256590915
  endloop
endfacet
facet normal 1.82474761443641e-011 1.17042751643695e-012 -1.0
  outer loop
    vertex -311.169841755231 352.480812706584 7.82962565928613
    vertex -316.169841755231 412.480812706584 7.82962565927301
    vertex -311.169841755231 412.480812706584 7.82962565934057
  endloop
endfacet
facet normal 1.82474761443641e-011 1.17042751643695e-012 -1.0
  outer loop
    vertex -316.169841755231 412.480812706584 7.82962565927301
    vertex -311.169841755231 352.480812706584 7.82962565928613
    vertex -313.186878841389 357.610222229825 7.82962565937964
  endloop
endfacet
facet normal 1.82474761443641e-011 1.17042751643695e-012 -1.0
  outer loop
    vertex -316.169841755231 412.480812706584 7.82962565927301
    vertex -313.186878841389 357.610222229825 7.82962565937964
    vertex -313.23682905264 357.730812707274 7.82962565938173
  endloop
endfacet
facet normal 1.82474761443641e-011 1.17042751643695e-012 -1.0
  outer loop
    vertex -316.169841755231 412.480812706584 7.82962565927301
    vertex -313.23682905264 357.730812707274 7.82962565938173
    vertex -313.316288363938 357.834366097868 7.82962565938194
  endloop
endfacet
facet normal 1.82474761443641e-011 1.17042751643695e-012 -1.0
  outer loop
    vertex -316.169841755231 412.480812706584 7.82962565927301
    vertex -313.316288363938 357.834366097868 7.82962565938194
    vertex -313.41984175453 357.913825409168 7.82962565938026
  endloop
endfacet
facet normal 1.82474761443641e-011 1.17042751643695e-012 -1.0
  outer loop
    vertex -316.169841755231 412.480812706584 7.82962565927301
    vertex -313.41984175453 357.913825409168 7.82962565938026
    vertex -313.540432231979 357.963775620421 7.82962565937679
  endloop
endfacet
facet normal 1.82474761443641e-011 1.17042751643695e-012 -1.0
  outer loop
    vertex -316.169841755231 412.480812706584 7.82962565927301
    vertex -313.540432231979 357.963775620421 7.82962565937679
    vertex -313.66984175453 357.980812707278 7.82962565937179
  endloop
endfacet
facet normal 1.82474761443641e-011 1.17042751643695e-012 -1.0
  outer loop
    vertex -313.186878841389 357.610222229825 7.82962565937964
    vertex -311.169841755231 352.480812706584 7.82962565928613
    vertex -313.169841754535 357.480812707273 7.82962565937582
  endloop
endfacet
facet normal 1.82474761443641e-011 1.17042751643695e-012 -1.0
  outer loop
    vertex -313.169841754535 357.480812707273 7.82962565937582
    vertex -311.169841755231 352.480812706584 7.82962565928613
    vertex -313.186878841391 357.351403184722 7.82962565937052
  endloop
endfacet
facet normal 1.82474761443641e-011 1.17042751643695e-012 -1.0
  outer loop
    vertex -313.186878841391 357.351403184722 7.82962565937052
    vertex -311.169841755231 352.480812706584 7.82962565928613
    vertex -313.236829052645 357.230812707274 7.8296256593641
  endloop
endfacet
facet normal 1.82474761443641e-011 1.17042751643695e-012 -1.0
  outer loop
    vertex -313.236829052645 357.230812707274 7.8296256593641
    vertex -311.169841755231 352.480812706584 7.82962565928613
    vertex -313.316288363945 357.127259316681 7.829625659357
  endloop
endfacet
facet normal 1.82474761443641e-011 1.17042751643695e-012 -1.0
  outer loop
    vertex -313.316288363945 357.127259316681 7.829625659357
    vertex -311.169841755231 352.480812706584 7.82962565928613
    vertex -313.419841754539 357.047800005383 7.8296256593497
  endloop
endfacet
facet normal 1.82474761443641e-011 1.17042751643695e-012 -1.0
  outer loop
    vertex -313.419841754539 357.047800005383 7.8296256593497
    vertex -311.169841755231 352.480812706584 7.82962565928613
    vertex -313.540432231988 356.997849794132 7.82962565934272
  endloop
endfacet
facet normal 1.82474761443641e-011 1.17042751643695e-012 -1.0
  outer loop
    vertex -313.540432231988 356.997849794132 7.82962565934272
    vertex -311.169841755231 352.480812706584 7.82962565928613
    vertex -313.669841754539 356.980812707278 7.82962565933651
  endloop
endfacet
facet normal 1.82474761443641e-011 1.17042751643695e-012 -1.0
  outer loop
    vertex -316.169841755231 412.480812706584 7.82962565927301
    vertex -314.152804667678 357.610222229834 7.82962565933778
    vertex -316.169841755231 352.480812706584 7.82962565921856
  endloop
endfacet
facet normal 1.82474761443641e-011 1.17042751643695e-012 -1.0
  outer loop
    vertex -314.152804667678 357.610222229834 7.82962565933778
    vertex -316.169841755231 412.480812706584 7.82962565927301
    vertex -314.102854456424 357.730812707282 7.82962565934419
  endloop
endfacet
facet normal 1.82474761443641e-011 1.17042751643695e-012 -1.0
  outer loop
    vertex -314.102854456424 357.730812707282 7.82962565934419
    vertex -316.169841755231 412.480812706584 7.82962565927301
    vertex -314.023395145124 357.834366097874 7.8296256593513
  endloop
endfacet
facet normal 1.82474761443641e-011 1.17042751643695e-012 -1.0
  outer loop
    vertex -314.023395145124 357.834366097874 7.8296256593513
    vertex -316.169841755231 412.480812706584 7.82962565927301
    vertex -313.91984175453 357.913825409172 7.82962565935859
  endloop
endfacet
facet normal 1.82474761443641e-011 1.17042751643695e-012 -1.0
  outer loop
    vertex -313.91984175453 357.913825409172 7.82962565935859
    vertex -316.169841755231 412.480812706584 7.82962565927301
    vertex -313.799251277081 357.963775620424 7.82962565936557
  endloop
endfacet
facet normal 1.82474761443641e-011 1.17042751643695e-012 -1.0
  outer loop
    vertex -313.799251277081 357.963775620424 7.82962565936557
    vertex -316.169841755231 412.480812706584 7.82962565927301
    vertex -313.66984175453 357.980812707278 7.82962565937179
  endloop
endfacet
facet normal 1.82474761443641e-011 1.17042751643695e-012 -1.0
  outer loop
    vertex -316.169841755231 352.480812706584 7.82962565921856
    vertex -314.152804667678 357.610222229834 7.82962565933778
    vertex -314.169841754535 357.480812707283 7.82962565933248
  endloop
endfacet
facet normal 1.82474761443641e-011 1.17042751643695e-012 -1.0
  outer loop
    vertex -316.169841755231 352.480812706584 7.82962565921856
    vertex -314.169841754535 357.480812707283 7.82962565933248
    vertex -314.15280466768 357.351403184731 7.82962565932866
  endloop
endfacet
facet normal 1.82474761443641e-011 1.17042751643695e-012 -1.0
  outer loop
    vertex -316.169841755231 352.480812706584 7.82962565921856
    vertex -314.15280466768 357.351403184731 7.82962565932866
    vertex -314.102854456429 357.230812707282 7.82962565932657
  endloop
endfacet
facet normal 1.82474761443641e-011 1.17042751643695e-012 -1.0
  outer loop
    vertex -316.169841755231 352.480812706584 7.82962565921856
    vertex -314.102854456429 357.230812707282 7.82962565932657
    vertex -314.023395145131 357.127259316688 7.82962565932636
  endloop
endfacet
facet normal 1.82474761443641e-011 1.17042751643695e-012 -1.0
  outer loop
    vertex -316.169841755231 352.480812706584 7.82962565921856
    vertex -314.023395145131 357.127259316688 7.82962565932636
    vertex -313.919841754539 357.047800005388 7.82962565932804
  endloop
endfacet
facet normal 1.82474761443641e-011 1.17042751643695e-012 -1.0
  outer loop
    vertex -316.169841755231 352.480812706584 7.82962565921856
    vertex -313.919841754539 357.047800005388 7.82962565932804
    vertex -313.79925127709 356.997849794135 7.8296256593315
  endloop
endfacet
facet normal 1.82474761443641e-011 1.17042751643695e-012 -1.0
  outer loop
    vertex -316.169841755231 352.480812706584 7.82962565921856
    vertex -313.79925127709 356.997849794135 7.8296256593315
    vertex -313.669841754539 356.980812707278 7.82962565933651
  endloop
endfacet
facet normal 1.82474761443641e-011 1.17042751643695e-012 -1.0
  outer loop
    vertex -316.169841755231 352.480812706584 7.82962565921856
    vertex -313.669841754539 356.980812707278 7.82962565933651
    vertex -311.169841755231 352.480812706584 7.82962565928613
  endloop
endfacet
facet normal -1.0 -5.54361269302091e-013 -1.41227156509332e-011
  outer loop
    vertex -316.169841755731 352.480812706473 44.829625659037
    vertex -316.169841755563 362.480812706448 32.8296256590914
    vertex -316.169841755563 352.480812706538 32.829625659037
  endloop
endfacet
facet normal -1.0 -5.54361269302091e-013 -1.41227156509332e-011
  outer loop
    vertex -316.169841755312 352.480812706519 19.8296256592186
    vertex -316.169841755231 412.480812706584 7.82962565927301
    vertex -316.169841755231 352.480812706584 7.82962565921856
  endloop
endfacet
facet normal -1.0 -5.54361269302091e-013 -1.41227156509332e-011
  outer loop
    vertex -316.169841755231 412.480812706584 7.82962565927301
    vertex -316.169841755312 352.480812706519 19.8296256592186
    vertex -316.169841755312 362.480812706519 19.829625659273
  endloop
endfacet
facet normal -1.0 -5.54361269302091e-013 -1.41227156509332e-011
  outer loop
    vertex -316.169841755231 412.480812706584 7.82962565927301
    vertex -316.169841755312 362.480812706519 19.829625659273
    vertex -316.169841755731 362.480812706383 44.8296256590915
  endloop
endfacet
facet normal -1.0 -5.54361269302091e-013 -1.41227156509332e-011
  outer loop
    vertex -316.169841755731 362.480812706383 44.8296256590915
    vertex -316.169841755312 362.480812706519 19.829625659273
    vertex -316.169841755563 362.480812706448 32.8296256590914
  endloop
endfacet
facet normal -1.0 -5.54361269302091e-013 -1.41227156509332e-011
  outer loop
    vertex -316.169841755731 362.480812706383 44.8296256590915
    vertex -316.169841755563 362.480812706448 32.8296256590914
    vertex -316.169841755731 352.480812706473 44.829625659037
  endloop
endfacet
facet normal 1.0 7.1402314164437e-013 1.45816027148544e-011
  outer loop
    vertex -311.169841755231 412.480812706584 7.82962565934057
    vertex -311.169841755312 352.480812706519 19.8296256592186
    vertex -311.169841755231 352.480812706584 7.82962565928613
  endloop
endfacet
facet normal 1.0 7.1402314164437e-013 1.45816027148544e-011
  outer loop
    vertex -311.169841755312 352.480812706519 19.8296256592186
    vertex -311.169841755231 412.480812706584 7.82962565934057
    vertex -311.169841755312 362.480812706519 19.829625659273
  endloop
endfacet
facet normal 1.0 7.1402314164437e-013 1.45816027148544e-011
  outer loop
    vertex -311.169841755312 362.480812706519 19.829625659273
    vertex -311.169841755231 412.480812706584 7.82962565934057
    vertex -311.169841755563 362.480812706448 32.8296256590914
  endloop
endfacet
facet normal 1.0 7.1402314164437e-013 1.45816027148544e-011
  outer loop
    vertex -311.169841755563 362.480812706448 32.8296256590914
    vertex -311.169841755231 412.480812706584 7.82962565934057
    vertex -311.169841755731 362.480812706383 44.829625659159
  endloop
endfacet
facet normal 1.0 7.1402314164437e-013 1.45816027148544e-011
  outer loop
    vertex -311.169841755563 362.480812706448 32.8296256590914
    vertex -311.169841755731 362.480812706383 44.829625659159
    vertex -311.169841755731 352.480812706473 44.8296256591046
  endloop
endfacet
facet normal 1.0 7.1402314164437e-013 1.45816027148544e-011
  outer loop
    vertex -311.169841755731 352.480812706473 44.8296256591046
    vertex -311.169841755563 352.480812706538 32.829625659037
    vertex -311.169841755563 362.480812706448 32.8296256590914
  endloop
endfacet
facet normal -1.38606992181983e-014 -1.0 -5.44994994320431e-012
  outer loop
    vertex -316.169841755231 352.480812706584 7.82962565921856
    vertex -311.169841755312 352.480812706519 19.8296256592186
    vertex -316.169841755312 352.480812706519 19.8296256592186
  endloop
endfacet
facet normal -1.38606992181983e-014 -1.0 -5.44994994320431e-012
  outer loop
    vertex -311.169841755312 352.480812706519 19.8296256592186
    vertex -316.169841755231 352.480812706584 7.82962565921856
    vertex -311.169841755231 352.480812706584 7.82962565928613
  endloop
endfacet
facet normal -4.62023308500693e-015 -1.0 -5.44298997675873e-012
  outer loop
    vertex -316.169841755312 362.480812706519 19.829625659273
    vertex -311.169841755563 362.480812706448 32.8296256590914
    vertex -316.169841755563 362.480812706448 32.8296256590914
  endloop
endfacet
facet normal -4.62023308500693e-015 -1.0 -5.44298997675873e-012
  outer loop
    vertex -311.169841755563 362.480812706448 32.8296256590914
    vertex -316.169841755312 362.480812706519 19.829625659273
    vertex -311.169841755312 362.480812706519 19.829625659273
  endloop
endfacet
facet normal -1.16573417585641e-015 -1.0 -5.43647426334231e-012
  outer loop
    vertex -316.169841755563 352.480812706538 32.829625659037
    vertex -311.169841755731 352.480812706473 44.8296256591046
    vertex -316.169841755731 352.480812706473 44.829625659037
  endloop
endfacet
facet normal -1.16573417585641e-015 -1.0 -5.43647426334231e-012
  outer loop
    vertex -311.169841755731 352.480812706473 44.8296256591046
    vertex -316.169841755563 352.480812706538 32.829625659037
    vertex -311.169841755563 352.480812706538 32.829625659037
  endloop
endfacet
facet normal 6.34466512982715e-027 5.44263457418669e-012 -1.0
  outer loop
    vertex -311.169841755563 362.480812706448 32.8296256590914
    vertex -313.236829053411 357.73081270687 32.8296256590865
    vertex -316.169841755563 362.480812706448 32.8296256590914
  endloop
endfacet
facet normal 6.34466512982715e-027 5.44263457418669e-012 -1.0
  outer loop
    vertex -313.236829053411 357.73081270687 32.8296256590865
    vertex -311.169841755563 362.480812706448 32.8296256590914
    vertex -313.18687884216 357.610222229421 32.8296256590844
  endloop
endfacet
facet normal 6.34466512982715e-027 5.44263457418669e-012 -1.0
  outer loop
    vertex -313.18687884216 357.610222229421 32.8296256590844
    vertex -311.169841755563 362.480812706448 32.8296256590914
    vertex -311.169841755563 352.480812706538 32.829625659037
  endloop
endfacet
facet normal 6.34466512982715e-027 5.44263457418669e-012 -1.0
  outer loop
    vertex -316.169841755563 362.480812706448 32.8296256590914
    vertex -313.236829053411 357.73081270687 32.8296256590865
    vertex -313.316288364709 357.834366097464 32.8296256590867
  endloop
endfacet
facet normal 6.34466512982715e-027 5.44263457418669e-012 -1.0
  outer loop
    vertex -316.169841755563 362.480812706448 32.8296256590914
    vertex -313.316288364709 357.834366097464 32.8296256590867
    vertex -313.419841755302 357.913825408764 32.829625659085
  endloop
endfacet
facet normal 6.34466512982715e-027 5.44263457418669e-012 -1.0
  outer loop
    vertex -316.169841755563 362.480812706448 32.8296256590914
    vertex -313.419841755302 357.913825408764 32.829625659085
    vertex -313.54043223275 357.963775620017 32.8296256590816
  endloop
endfacet
facet normal 6.34466512982715e-027 5.44263457418669e-012 -1.0
  outer loop
    vertex -316.169841755563 362.480812706448 32.8296256590914
    vertex -313.54043223275 357.963775620017 32.8296256590816
    vertex -313.669841755301 357.980812706874 32.8296256590766
  endloop
endfacet
facet normal 6.34466512982715e-027 5.44263457418669e-012 -1.0
  outer loop
    vertex -313.18687884216 357.610222229421 32.8296256590844
    vertex -311.169841755563 352.480812706538 32.829625659037
    vertex -313.169841755306 357.480812706869 32.8296256590806
  endloop
endfacet
facet normal 6.34466512982715e-027 5.44263457418669e-012 -1.0
  outer loop
    vertex -313.169841755306 357.480812706869 32.8296256590806
    vertex -311.169841755563 352.480812706538 32.829625659037
    vertex -313.186878842162 357.351403184318 32.8296256590753
  endloop
endfacet
facet normal 6.34466512982715e-027 5.44263457418669e-012 -1.0
  outer loop
    vertex -313.186878842162 357.351403184318 32.8296256590753
    vertex -311.169841755563 352.480812706538 32.829625659037
    vertex -313.236829053416 357.23081270687 32.8296256590689
  endloop
endfacet
facet normal 6.34466512982715e-027 5.44263457418669e-012 -1.0
  outer loop
    vertex -313.236829053416 357.23081270687 32.8296256590689
    vertex -311.169841755563 352.480812706538 32.829625659037
    vertex -313.316288364716 357.127259316278 32.8296256590618
  endloop
endfacet
facet normal 6.34466512982715e-027 5.44263457418669e-012 -1.0
  outer loop
    vertex -313.316288364716 357.127259316278 32.8296256590618
    vertex -311.169841755563 352.480812706538 32.829625659037
    vertex -313.41984175531 357.04780000498 32.8296256590545
  endloop
endfacet
facet normal 6.34466512982715e-027 5.44263457418669e-012 -1.0
  outer loop
    vertex -313.41984175531 357.04780000498 32.8296256590545
    vertex -311.169841755563 352.480812706538 32.829625659037
    vertex -313.540432232759 356.997849793728 32.8296256590475
  endloop
endfacet
facet normal 6.34466512982715e-027 5.44263457418669e-012 -1.0
  outer loop
    vertex -313.540432232759 356.997849793728 32.8296256590475
    vertex -311.169841755563 352.480812706538 32.829625659037
    vertex -313.66984175531 356.980812706874 32.8296256590413
  endloop
endfacet
facet normal 6.34466512982715e-027 5.44263457418669e-012 -1.0
  outer loop
    vertex -313.66984175531 356.980812706874 32.8296256590413
    vertex -311.169841755563 352.480812706538 32.829625659037
    vertex -316.169841755563 352.480812706538 32.829625659037
  endloop
endfacet
facet normal 6.34466512982715e-027 5.44263457418669e-012 -1.0
  outer loop
    vertex -316.169841755563 362.480812706448 32.8296256590914
    vertex -314.152804668449 357.61022222943 32.8296256590425
    vertex -316.169841755563 352.480812706538 32.829625659037
  endloop
endfacet
facet normal 6.34466512982715e-027 5.44263457418669e-012 -1.0
  outer loop
    vertex -314.152804668449 357.61022222943 32.8296256590425
    vertex -316.169841755563 362.480812706448 32.8296256590914
    vertex -314.102854457196 357.730812706878 32.829625659049
  endloop
endfacet
facet normal 6.34466512982715e-027 5.44263457418669e-012 -1.0
  outer loop
    vertex -314.102854457196 357.730812706878 32.829625659049
    vertex -316.169841755563 362.480812706448 32.8296256590914
    vertex -314.023395145896 357.834366097471 32.8296256590561
  endloop
endfacet
facet normal 6.34466512982715e-027 5.44263457418669e-012 -1.0
  outer loop
    vertex -314.023395145896 357.834366097471 32.8296256590561
    vertex -316.169841755563 362.480812706448 32.8296256590914
    vertex -313.919841755302 357.913825408769 32.8296256590634
  endloop
endfacet
facet normal 6.34466512982715e-027 5.44263457418669e-012 -1.0
  outer loop
    vertex -313.919841755302 357.913825408769 32.8296256590634
    vertex -316.169841755563 362.480812706448 32.8296256590914
    vertex -313.799251277852 357.96377562002 32.8296256590703
  endloop
endfacet
facet normal 6.34466512982715e-027 5.44263457418669e-012 -1.0
  outer loop
    vertex -313.799251277852 357.96377562002 32.8296256590703
    vertex -316.169841755563 362.480812706448 32.8296256590914
    vertex -313.669841755301 357.980812706874 32.8296256590766
  endloop
endfacet
facet normal 6.34466512982715e-027 5.44263457418669e-012 -1.0
  outer loop
    vertex -316.169841755563 352.480812706538 32.829625659037
    vertex -314.152804668449 357.61022222943 32.8296256590425
    vertex -314.169841755306 357.480812706879 32.8296256590372
  endloop
endfacet
facet normal 6.34466512982715e-027 5.44263457418669e-012 -1.0
  outer loop
    vertex -316.169841755563 352.480812706538 32.829625659037
    vertex -314.169841755306 357.480812706879 32.8296256590372
    vertex -314.152804668451 357.351403184327 32.8296256590334
  endloop
endfacet
facet normal 6.34466512982715e-027 5.44263457418669e-012 -1.0
  outer loop
    vertex -316.169841755563 352.480812706538 32.829625659037
    vertex -314.152804668451 357.351403184327 32.8296256590334
    vertex -314.1028544572 357.230812706878 32.8296256590313
  endloop
endfacet
facet normal 6.34466512982715e-027 5.44263457418669e-012 -1.0
  outer loop
    vertex -316.169841755563 352.480812706538 32.829625659037
    vertex -314.1028544572 357.230812706878 32.8296256590313
    vertex -314.023395145902 357.127259316284 32.8296256590311
  endloop
endfacet
facet normal 6.34466512982715e-027 5.44263457418669e-012 -1.0
  outer loop
    vertex -316.169841755563 352.480812706538 32.829625659037
    vertex -314.023395145902 357.127259316284 32.8296256590311
    vertex -313.91984175531 357.047800004984 32.8296256590328
  endloop
endfacet
facet normal 6.34466512982715e-027 5.44263457418669e-012 -1.0
  outer loop
    vertex -316.169841755563 352.480812706538 32.829625659037
    vertex -313.91984175531 357.047800004984 32.8296256590328
    vertex -313.799251277862 356.997849793731 32.8296256590363
  endloop
endfacet
facet normal 6.34466512982715e-027 5.44263457418669e-012 -1.0
  outer loop
    vertex -316.169841755563 352.480812706538 32.829625659037
    vertex -313.799251277862 356.997849793731 32.8296256590363
    vertex -313.66984175531 356.980812706874 32.8296256590413
  endloop
endfacet
facet normal -3.80033126142743e-011 -6.31149396093399e-012 1.0
  outer loop
    vertex -316.169841755731 362.480812706383 44.8296256590915
    vertex -314.102854457716 357.730812706455 44.8296256589389
    vertex -311.169841755731 362.480812706383 44.829625659159
  endloop
endfacet
facet normal -3.80033126142743e-011 -6.31149396093399e-012 1.0
  outer loop
    vertex -314.102854457716 357.730812706455 44.8296256589389
    vertex -316.169841755731 362.480812706383 44.8296256590915
    vertex -314.152804668969 357.610222229007 44.8296256589325
  endloop
endfacet
facet normal -3.80033126142743e-011 -6.31149396093399e-012 1.0
  outer loop
    vertex -314.152804668969 357.610222229007 44.8296256589325
    vertex -316.169841755731 362.480812706383 44.8296256590915
    vertex -316.169841755731 352.480812706473 44.829625659037
  endloop
endfacet
facet normal -3.80033126142743e-011 -6.31149396093399e-012 1.0
  outer loop
    vertex -311.169841755731 362.480812706383 44.829625659159
    vertex -314.102854457716 357.730812706455 44.8296256589389
    vertex -314.023395146416 357.834366097048 44.829625658946
  endloop
endfacet
facet normal -3.80033126142743e-011 -6.31149396093399e-012 1.0
  outer loop
    vertex -311.169841755731 362.480812706383 44.829625659159
    vertex -314.023395146416 357.834366097048 44.829625658946
    vertex -313.919841755822 357.913825408346 44.8296256589533
  endloop
endfacet
facet normal -3.80033126142743e-011 -6.31149396093399e-012 1.0
  outer loop
    vertex -311.169841755731 362.480812706383 44.829625659159
    vertex -313.919841755822 357.913825408346 44.8296256589533
    vertex -313.799251278372 357.963775619597 44.8296256589603
  endloop
endfacet
facet normal -3.80033126142743e-011 -6.31149396093399e-012 1.0
  outer loop
    vertex -311.169841755731 362.480812706383 44.829625659159
    vertex -313.799251278372 357.963775619597 44.8296256589603
    vertex -313.669841755821 357.980812706451 44.8296256589665
  endloop
endfacet
facet normal -3.80033126142743e-011 -6.31149396093399e-012 1.0
  outer loop
    vertex -314.152804668969 357.610222229007 44.8296256589325
    vertex -316.169841755731 352.480812706473 44.829625659037
    vertex -314.169841755826 357.480812706456 44.8296256589272
  endloop
endfacet
facet normal -3.80033126142743e-011 -6.31149396093399e-012 1.0
  outer loop
    vertex -314.169841755826 357.480812706456 44.8296256589272
    vertex -316.169841755731 352.480812706473 44.829625659037
    vertex -314.152804668972 357.351403183904 44.8296256589234
  endloop
endfacet
facet normal -3.80033126142743e-011 -6.31149396093399e-012 1.0
  outer loop
    vertex -314.152804668972 357.351403183904 44.8296256589234
    vertex -316.169841755731 352.480812706473 44.829625659037
    vertex -314.10285445772 357.230812706455 44.8296256589213
  endloop
endfacet
facet normal -3.80033126142743e-011 -6.31149396093399e-012 1.0
  outer loop
    vertex -314.10285445772 357.230812706455 44.8296256589213
    vertex -316.169841755731 352.480812706473 44.829625659037
    vertex -314.023395146422 357.127259315861 44.8296256589211
  endloop
endfacet
facet normal -3.80033126142743e-011 -6.31149396093399e-012 1.0
  outer loop
    vertex -314.023395146422 357.127259315861 44.8296256589211
    vertex -316.169841755731 352.480812706473 44.829625659037
    vertex -313.91984175583 357.047800004561 44.8296256589228
  endloop
endfacet
facet normal -3.80033126142743e-011 -6.31149396093399e-012 1.0
  outer loop
    vertex -313.91984175583 357.047800004561 44.8296256589228
    vertex -316.169841755731 352.480812706473 44.829625659037
    vertex -313.799251278382 356.997849793308 44.8296256589262
  endloop
endfacet
facet normal -3.80033126142743e-011 -6.31149396093399e-012 1.0
  outer loop
    vertex -313.799251278382 356.997849793308 44.8296256589262
    vertex -316.169841755731 352.480812706473 44.829625659037
    vertex -313.66984175583 356.980812706451 44.8296256589312
  endloop
endfacet
facet normal -3.80033126142743e-011 -6.31149396093399e-012 1.0
  outer loop
    vertex -311.169841755731 362.480812706383 44.829625659159
    vertex -313.18687884268 357.610222228998 44.8296256589744
    vertex -311.169841755731 352.480812706473 44.8296256591046
  endloop
endfacet
facet normal -3.80033126142743e-011 -6.31149396093399e-012 1.0
  outer loop
    vertex -313.18687884268 357.610222228998 44.8296256589744
    vertex -311.169841755731 362.480812706383 44.829625659159
    vertex -313.236829053931 357.730812706447 44.8296256589765
  endloop
endfacet
facet normal -3.80033126142743e-011 -6.31149396093399e-012 1.0
  outer loop
    vertex -313.236829053931 357.730812706447 44.8296256589765
    vertex -311.169841755731 362.480812706383 44.829625659159
    vertex -313.316288365229 357.834366097041 44.8296256589767
  endloop
endfacet
facet normal -3.80033126142743e-011 -6.31149396093399e-012 1.0
  outer loop
    vertex -313.316288365229 357.834366097041 44.8296256589767
    vertex -311.169841755731 362.480812706383 44.829625659159
    vertex -313.419841755822 357.913825408341 44.829625658975
  endloop
endfacet
facet normal -3.80033126142743e-011 -6.31149396093399e-012 1.0
  outer loop
    vertex -313.419841755822 357.913825408341 44.829625658975
    vertex -311.169841755731 362.480812706383 44.829625659159
    vertex -313.54043223327 357.963775619594 44.8296256589715
  endloop
endfacet
facet normal -3.80033126142743e-011 -6.31149396093399e-012 1.0
  outer loop
    vertex -313.54043223327 357.963775619594 44.8296256589715
    vertex -311.169841755731 362.480812706383 44.829625659159
    vertex -313.669841755821 357.980812706451 44.8296256589665
  endloop
endfacet
facet normal -3.80033126142743e-011 -6.31149396093399e-012 1.0
  outer loop
    vertex -311.169841755731 352.480812706473 44.8296256591046
    vertex -313.18687884268 357.610222228998 44.8296256589744
    vertex -313.169841755826 357.480812706446 44.8296256589705
  endloop
endfacet
facet normal -3.80033126142743e-011 -6.31149396093399e-012 1.0
  outer loop
    vertex -311.169841755731 352.480812706473 44.8296256591046
    vertex -313.169841755826 357.480812706446 44.8296256589705
    vertex -313.186878842682 357.351403183895 44.8296256589652
  endloop
endfacet
facet normal -3.80033126142743e-011 -6.31149396093399e-012 1.0
  outer loop
    vertex -311.169841755731 352.480812706473 44.8296256591046
    vertex -313.186878842682 357.351403183895 44.8296256589652
    vertex -313.236829053936 357.230812706447 44.8296256589588
  endloop
endfacet
facet normal -3.80033126142743e-011 -6.31149396093399e-012 1.0
  outer loop
    vertex -311.169841755731 352.480812706473 44.8296256591046
    vertex -313.236829053936 357.230812706447 44.8296256589588
    vertex -313.316288365236 357.127259315854 44.8296256589517
  endloop
endfacet
facet normal -3.80033126142743e-011 -6.31149396093399e-012 1.0
  outer loop
    vertex -311.169841755731 352.480812706473 44.8296256591046
    vertex -313.316288365236 357.127259315854 44.8296256589517
    vertex -313.41984175583 357.047800004556 44.8296256589444
  endloop
endfacet
facet normal -3.80033126142743e-011 -6.31149396093399e-012 1.0
  outer loop
    vertex -311.169841755731 352.480812706473 44.8296256591046
    vertex -313.41984175583 357.047800004556 44.8296256589444
    vertex -313.540432233279 356.997849793305 44.8296256589374
  endloop
endfacet
facet normal -3.80033126142743e-011 -6.31149396093399e-012 1.0
  outer loop
    vertex -311.169841755731 352.480812706473 44.8296256591046
    vertex -313.540432233279 356.997849793305 44.8296256589374
    vertex -313.66984175583 356.980812706451 44.8296256589312
  endloop
endfacet
facet normal -3.80033126142743e-011 -6.31149396093399e-012 1.0
  outer loop
    vertex -311.169841755731 352.480812706473 44.8296256591046
    vertex -313.66984175583 356.980812706451 44.8296256589312
    vertex -316.169841755731 352.480812706473 44.829625659037
  endloop
endfacet
facet normal 0.991444861372576 -0.130526192229431 3.83626550581348e-011
  outer loop
    vertex -314.152804668449 357.61022222943 32.8296256590425
    vertex -314.169841755826 357.480812706456 44.8296256589272
    vertex -314.169841755306 357.480812706879 32.8296256590372
  endloop
endfacet
facet normal 0.991444861372576 -0.130526192229431 3.83626550581348e-011
  outer loop
    vertex -314.169841755826 357.480812706456 44.8296256589272
    vertex -314.152804668449 357.61022222943 32.8296256590425
    vertex -314.152804668969 357.610222229007 44.8296256589325
  endloop
endfacet
facet normal 0.991444861375046 0.130526192210669 4.75708794292964e-011
  outer loop
    vertex -314.169841755306 357.480812706879 32.8296256590372
    vertex -314.152804668972 357.351403183904 44.8296256589234
    vertex -314.152804668451 357.351403184327 32.8296256590334
  endloop
endfacet
facet normal 0.991444861375046 0.130526192210669 4.75708794292964e-011
  outer loop
    vertex -314.152804668972 357.351403183904 44.8296256589234
    vertex -314.169841755306 357.480812706879 32.8296256590372
    vertex -314.169841755826 357.480812706456 44.8296256589272
  endloop
endfacet
facet normal 0.923879532514892 0.382683432356386 5.35372269819476e-011
  outer loop
    vertex -314.152804668451 357.351403184327 32.8296256590334
    vertex -314.10285445772 357.230812706455 44.8296256589213
    vertex -314.1028544572 357.230812706878 32.8296256590313
  endloop
endfacet
facet normal 0.923879532514892 0.382683432356386 5.35372269819476e-011
  outer loop
    vertex -314.10285445772 357.230812706455 44.8296256589213
    vertex -314.152804668451 357.351403184327 32.8296256590334
    vertex -314.152804668972 357.351403183904 44.8296256589234
  endloop
endfacet
facet normal 0.793353340296916 0.608761429001318 5.58551009902287e-011
  outer loop
    vertex -314.1028544572 357.230812706878 32.8296256590313
    vertex -314.023395146422 357.127259315861 44.8296256589211
    vertex -314.023395145902 357.127259316284 32.8296256590311
  endloop
endfacet
facet normal 0.793353340296916 0.608761429001318 5.58551009902287e-011
  outer loop
    vertex -314.023395146422 357.127259315861 44.8296256589211
    vertex -314.1028544572 357.230812706878 32.8296256590313
    vertex -314.10285445772 357.230812706455 44.8296256589213
  endloop
endfacet
facet normal 0.608761429016316 0.793353340285407 5.43665421709461e-011
  outer loop
    vertex -313.91984175583 357.047800004561 44.8296256589228
    vertex -314.023395145902 357.127259316284 32.8296256590311
    vertex -314.023395146422 357.127259315861 44.8296256589211
  endloop
endfacet
facet normal 0.608761429016316 0.793353340285407 5.43665421709461e-011
  outer loop
    vertex -314.023395145902 357.127259316284 32.8296256590311
    vertex -313.91984175583 357.047800004561 44.8296256589228
    vertex -313.91984175531 357.047800004984 32.8296256590328
  endloop
endfacet
facet normal 0.382683432373693 0.923879532507723 4.9172993347666e-011
  outer loop
    vertex -313.799251278382 356.997849793308 44.8296256589262
    vertex -313.91984175531 357.047800004984 32.8296256590328
    vertex -313.91984175583 357.047800004561 44.8296256589228
  endloop
endfacet
facet normal 0.382683432373693 0.923879532507723 4.9172993347666e-011
  outer loop
    vertex -313.91984175531 357.047800004984 32.8296256590328
    vertex -313.799251278382 356.997849793308 44.8296256589262
    vertex -313.799251277862 356.997849793731 32.8296256590363
  endloop
endfacet
facet normal 0.130526192229431 0.991444861372576 4.06283862899652e-011
  outer loop
    vertex -313.66984175583 356.980812706451 44.8296256589312
    vertex -313.799251277862 356.997849793731 32.8296256590363
    vertex -313.799251278382 356.997849793308 44.8296256589262
  endloop
endfacet
facet normal 0.130526192229431 0.991444861372576 4.06283862899652e-011
  outer loop
    vertex -313.799251277862 356.997849793731 32.8296256590363
    vertex -313.66984175583 356.980812706451 44.8296256589312
    vertex -313.66984175531 356.980812706874 32.8296256590413
  endloop
endfacet
facet normal -0.130526192210669 0.991444861375046 2.93150218481824e-011
  outer loop
    vertex -313.540432233279 356.997849793305 44.8296256589374
    vertex -313.66984175531 356.980812706874 32.8296256590413
    vertex -313.66984175583 356.980812706451 44.8296256589312
  endloop
endfacet
facet normal -0.130526192210669 0.991444861375046 2.93150218481824e-011
  outer loop
    vertex -313.66984175531 356.980812706874 32.8296256590413
    vertex -313.540432233279 356.997849793305 44.8296256589374
    vertex -313.540432232759 356.997849793728 32.8296256590475
  endloop
endfacet
facet normal -0.382683432356386 0.923879532514892 1.60038871128077e-011
  outer loop
    vertex -313.41984175583 357.047800004556 44.8296256589444
    vertex -313.540432232759 356.997849793728 32.8296256590475
    vertex -313.540432233279 356.997849793305 44.8296256589374
  endloop
endfacet
facet normal -0.382683432356386 0.923879532514892 1.60038871128077e-011
  outer loop
    vertex -313.540432232759 356.997849793728 32.8296256590475
    vertex -313.41984175583 357.047800004556 44.8296256589444
    vertex -313.41984175531 357.04780000498 32.8296256590545
  endloop
endfacet
facet normal -0.608761429001318 0.793353340296916 1.60211391836619e-012
  outer loop
    vertex -313.316288365236 357.127259315854 44.8296256589517
    vertex -313.41984175531 357.04780000498 32.8296256590545
    vertex -313.41984175583 357.047800004556 44.8296256589444
  endloop
endfacet
facet normal -0.608761429001318 0.793353340296916 1.60211391836619e-012
  outer loop
    vertex -313.41984175531 357.04780000498 32.8296256590545
    vertex -313.316288365236 357.127259315854 44.8296256589517
    vertex -313.316288364716 357.127259316278 32.8296256590618
  endloop
endfacet
facet normal -0.793353340285407 0.608761429016316 -1.29088406919756e-011
  outer loop
    vertex -313.316288365236 357.127259315854 44.8296256589517
    vertex -313.236829053416 357.23081270687 32.8296256590689
    vertex -313.316288364716 357.127259316278 32.8296256590618
  endloop
endfacet
facet normal -0.793353340285407 0.608761429016316 -1.29088406919756e-011
  outer loop
    vertex -313.236829053416 357.23081270687 32.8296256590689
    vertex -313.316288365236 357.127259315854 44.8296256589517
    vertex -313.236829053936 357.230812706447 44.8296256589588
  endloop
endfacet
facet normal -0.923879532507723 0.382683432373693 -2.65400791420535e-011
  outer loop
    vertex -313.236829053936 357.230812706447 44.8296256589588
    vertex -313.186878842162 357.351403184318 32.8296256590753
    vertex -313.236829053416 357.23081270687 32.8296256590689
  endloop
endfacet
facet normal -0.923879532507723 0.382683432373693 -2.65400791420535e-011
  outer loop
    vertex -313.186878842162 357.351403184318 32.8296256590753
    vertex -313.236829053936 357.230812706447 44.8296256589588
    vertex -313.186878842682 357.351403183895 44.8296256589652
  endloop
endfacet
facet normal -0.991444861372576 0.130526192229431 -3.83626550581348e-011
  outer loop
    vertex -313.186878842682 357.351403183895 44.8296256589652
    vertex -313.169841755306 357.480812706869 32.8296256590806
    vertex -313.186878842162 357.351403184318 32.8296256590753
  endloop
endfacet
facet normal -0.991444861372576 0.130526192229431 -3.83626550581348e-011
  outer loop
    vertex -313.169841755306 357.480812706869 32.8296256590806
    vertex -313.186878842682 357.351403183895 44.8296256589652
    vertex -313.169841755826 357.480812706446 44.8296256589705
  endloop
endfacet
facet normal -0.991444861375046 -0.130526192210669 -4.75708794292964e-011
  outer loop
    vertex -313.169841755826 357.480812706446 44.8296256589705
    vertex -313.18687884216 357.610222229421 32.8296256590844
    vertex -313.169841755306 357.480812706869 32.8296256590806
  endloop
endfacet
facet normal -0.991444861375046 -0.130526192210669 -4.75708794292964e-011
  outer loop
    vertex -313.18687884216 357.610222229421 32.8296256590844
    vertex -313.169841755826 357.480812706446 44.8296256589705
    vertex -313.18687884268 357.610222228998 44.8296256589744
  endloop
endfacet
facet normal -0.923879532514892 -0.382683432356386 -5.35372269819476e-011
  outer loop
    vertex -313.18687884268 357.610222228998 44.8296256589744
    vertex -313.236829053411 357.73081270687 32.8296256590865
    vertex -313.18687884216 357.610222229421 32.8296256590844
  endloop
endfacet
facet normal -0.923879532514892 -0.382683432356386 -5.35372269819476e-011
  outer loop
    vertex -313.236829053411 357.73081270687 32.8296256590865
    vertex -313.18687884268 357.610222228998 44.8296256589744
    vertex -313.236829053931 357.730812706447 44.8296256589765
  endloop
endfacet
facet normal -0.793353340296916 -0.608761429001318 -5.58551009902287e-011
  outer loop
    vertex -313.236829053931 357.730812706447 44.8296256589765
    vertex -313.316288364709 357.834366097464 32.8296256590867
    vertex -313.236829053411 357.73081270687 32.8296256590865
  endloop
endfacet
facet normal -0.793353340296916 -0.608761429001318 -5.58551009902287e-011
  outer loop
    vertex -313.316288364709 357.834366097464 32.8296256590867
    vertex -313.236829053931 357.730812706447 44.8296256589765
    vertex -313.316288365229 357.834366097041 44.8296256589767
  endloop
endfacet
facet normal -0.608761429016316 -0.793353340285407 -5.43665421709461e-011
  outer loop
    vertex -313.419841755302 357.913825408764 32.829625659085
    vertex -313.316288365229 357.834366097041 44.8296256589767
    vertex -313.419841755822 357.913825408341 44.829625658975
  endloop
endfacet
facet normal -0.608761429016316 -0.793353340285407 -5.43665421709461e-011
  outer loop
    vertex -313.316288365229 357.834366097041 44.8296256589767
    vertex -313.419841755302 357.913825408764 32.829625659085
    vertex -313.316288364709 357.834366097464 32.8296256590867
  endloop
endfacet
facet normal -0.382683432373693 -0.923879532507723 -4.9172993347666e-011
  outer loop
    vertex -313.54043223275 357.963775620017 32.8296256590816
    vertex -313.419841755822 357.913825408341 44.829625658975
    vertex -313.54043223327 357.963775619594 44.8296256589715
  endloop
endfacet
facet normal -0.382683432373693 -0.923879532507723 -4.9172993347666e-011
  outer loop
    vertex -313.419841755822 357.913825408341 44.829625658975
    vertex -313.54043223275 357.963775620017 32.8296256590816
    vertex -313.419841755302 357.913825408764 32.829625659085
  endloop
endfacet
facet normal -0.130526192229431 -0.991444861372576 -4.06283862899652e-011
  outer loop
    vertex -313.669841755301 357.980812706874 32.8296256590766
    vertex -313.54043223327 357.963775619594 44.8296256589715
    vertex -313.669841755821 357.980812706451 44.8296256589665
  endloop
endfacet
facet normal -0.130526192229431 -0.991444861372576 -4.06283862899652e-011
  outer loop
    vertex -313.54043223327 357.963775619594 44.8296256589715
    vertex -313.669841755301 357.980812706874 32.8296256590766
    vertex -313.54043223275 357.963775620017 32.8296256590816
  endloop
endfacet
facet normal 0.130526192210669 -0.991444861375046 -2.93150218481824e-011
  outer loop
    vertex -313.799251277852 357.96377562002 32.8296256590703
    vertex -313.669841755821 357.980812706451 44.8296256589665
    vertex -313.799251278372 357.963775619597 44.8296256589603
  endloop
endfacet
facet normal 0.130526192210669 -0.991444861375046 -2.93150218481824e-011
  outer loop
    vertex -313.669841755821 357.980812706451 44.8296256589665
    vertex -313.799251277852 357.96377562002 32.8296256590703
    vertex -313.669841755301 357.980812706874 32.8296256590766
  endloop
endfacet
facet normal 0.382683432356386 -0.923879532514892 -1.60038871128077e-011
  outer loop
    vertex -313.919841755302 357.913825408769 32.8296256590634
    vertex -313.799251278372 357.963775619597 44.8296256589603
    vertex -313.919841755822 357.913825408346 44.8296256589533
  endloop
endfacet
facet normal 0.382683432356386 -0.923879532514892 -1.60038871128077e-011
  outer loop
    vertex -313.799251278372 357.963775619597 44.8296256589603
    vertex -313.919841755302 357.913825408769 32.8296256590634
    vertex -313.799251277852 357.96377562002 32.8296256590703
  endloop
endfacet
facet normal 0.608761429001318 -0.793353340296916 -1.60211391836619e-012
  outer loop
    vertex -314.023395145896 357.834366097471 32.8296256590561
    vertex -313.919841755822 357.913825408346 44.8296256589533
    vertex -314.023395146416 357.834366097048 44.829625658946
  endloop
endfacet
facet normal 0.608761429001318 -0.793353340296916 -1.60211391836619e-012
  outer loop
    vertex -313.919841755822 357.913825408346 44.8296256589533
    vertex -314.023395145896 357.834366097471 32.8296256590561
    vertex -313.919841755302 357.913825408769 32.8296256590634
  endloop
endfacet
facet normal 0.793353340285407 -0.608761429016316 1.29088406919756e-011
  outer loop
    vertex -314.023395145896 357.834366097471 32.8296256590561
    vertex -314.102854457716 357.730812706455 44.8296256589389
    vertex -314.102854457196 357.730812706878 32.829625659049
  endloop
endfacet
facet normal 0.793353340285407 -0.608761429016316 1.29088406919756e-011
  outer loop
    vertex -314.102854457716 357.730812706455 44.8296256589389
    vertex -314.023395145896 357.834366097471 32.8296256590561
    vertex -314.023395146416 357.834366097048 44.829625658946
  endloop
endfacet
facet normal 0.923879532507723 -0.382683432373693 2.65400791420535e-011
  outer loop
    vertex -314.102854457196 357.730812706878 32.829625659049
    vertex -314.152804668969 357.610222229007 44.8296256589325
    vertex -314.152804668449 357.61022222943 32.8296256590425
  endloop
endfacet
facet normal 0.923879532507723 -0.382683432373693 2.65400791420535e-011
  outer loop
    vertex -314.152804668969 357.610222229007 44.8296256589325
    vertex -314.102854457196 357.730812706878 32.829625659049
    vertex -314.102854457716 357.730812706455 44.8296256589389
  endloop
endfacet
facet normal -1.50987508220815e-025 -5.44378963240886e-012 1.0
  outer loop
    vertex -316.169841755312 362.480812706519 19.829625659273
    vertex -314.102854456944 357.730812706859 19.8296256592305
    vertex -311.169841755312 362.480812706519 19.829625659273
  endloop
endfacet
facet normal -1.50987508220815e-025 -5.44378963240886e-012 1.0
  outer loop
    vertex -314.102854456944 357.730812706859 19.8296256592305
    vertex -316.169841755312 362.480812706519 19.829625659273
    vertex -314.152804668198 357.61022222941 19.8296256592241
  endloop
endfacet
facet normal -1.50987508220815e-025 -5.44378963240886e-012 1.0
  outer loop
    vertex -314.152804668198 357.61022222941 19.8296256592241
    vertex -316.169841755312 362.480812706519 19.829625659273
    vertex -316.169841755312 352.480812706519 19.8296256592186
  endloop
endfacet
facet normal -1.50987508220815e-025 -5.44378963240886e-012 1.0
  outer loop
    vertex -311.169841755312 362.480812706519 19.829625659273
    vertex -314.102854456944 357.730812706859 19.8296256592305
    vertex -314.023395145644 357.834366097451 19.8296256592376
  endloop
endfacet
facet normal -1.50987508220815e-025 -5.44378963240886e-012 1.0
  outer loop
    vertex -311.169841755312 362.480812706519 19.829625659273
    vertex -314.023395145644 357.834366097451 19.8296256592376
    vertex -313.91984175505 357.913825408749 19.8296256592449
  endloop
endfacet
facet normal -1.50987508220815e-025 -5.44378963240886e-012 1.0
  outer loop
    vertex -311.169841755312 362.480812706519 19.829625659273
    vertex -313.91984175505 357.913825408749 19.8296256592449
    vertex -313.799251277601 357.96377562 19.8296256592519
  endloop
endfacet
facet normal -1.50987508220815e-025 -5.44378963240886e-012 1.0
  outer loop
    vertex -311.169841755312 362.480812706519 19.829625659273
    vertex -313.799251277601 357.96377562 19.8296256592519
    vertex -313.66984175505 357.980812706855 19.8296256592581
  endloop
endfacet
facet normal -1.50987508220815e-025 -5.44378963240886e-012 1.0
  outer loop
    vertex -314.152804668198 357.61022222941 19.8296256592241
    vertex -316.169841755312 352.480812706519 19.8296256592186
    vertex -314.169841755055 357.480812706859 19.8296256592188
  endloop
endfacet
facet normal -1.50987508220815e-025 -5.44378963240886e-012 1.0
  outer loop
    vertex -314.169841755055 357.480812706859 19.8296256592188
    vertex -316.169841755312 352.480812706519 19.8296256592186
    vertex -314.1528046682 357.351403184308 19.829625659215
  endloop
endfacet
facet normal -1.50987508220815e-025 -5.44378963240886e-012 1.0
  outer loop
    vertex -314.1528046682 357.351403184308 19.829625659215
    vertex -316.169841755312 352.480812706519 19.8296256592186
    vertex -314.102854456949 357.230812706859 19.8296256592129
  endloop
endfacet
facet normal -1.50987508220815e-025 -5.44378963240886e-012 1.0
  outer loop
    vertex -314.102854456949 357.230812706859 19.8296256592129
    vertex -316.169841755312 352.480812706519 19.8296256592186
    vertex -314.023395145651 357.127259316265 19.8296256592127
  endloop
endfacet
facet normal -1.50987508220815e-025 -5.44378963240886e-012 1.0
  outer loop
    vertex -314.023395145651 357.127259316265 19.8296256592127
    vertex -316.169841755312 352.480812706519 19.8296256592186
    vertex -313.919841755059 357.047800004965 19.8296256592143
  endloop
endfacet
facet normal -1.50987508220815e-025 -5.44378963240886e-012 1.0
  outer loop
    vertex -313.919841755059 357.047800004965 19.8296256592143
    vertex -316.169841755312 352.480812706519 19.8296256592186
    vertex -313.79925127761 356.997849793711 19.8296256592178
  endloop
endfacet
facet normal -1.50987508220815e-025 -5.44378963240886e-012 1.0
  outer loop
    vertex -313.79925127761 356.997849793711 19.8296256592178
    vertex -316.169841755312 352.480812706519 19.8296256592186
    vertex -313.669841755059 356.980812706855 19.8296256592228
  endloop
endfacet
facet normal -1.50987508220815e-025 -5.44378963240886e-012 1.0
  outer loop
    vertex -311.169841755312 362.480812706519 19.829625659273
    vertex -313.186878841909 357.610222229401 19.829625659266
    vertex -311.169841755312 352.480812706519 19.8296256592186
  endloop
endfacet
facet normal -1.50987508220815e-025 -5.44378963240886e-012 1.0
  outer loop
    vertex -313.186878841909 357.610222229401 19.829625659266
    vertex -311.169841755312 362.480812706519 19.829625659273
    vertex -313.23682905316 357.730812706851 19.829625659268
  endloop
endfacet
facet normal -1.50987508220815e-025 -5.44378963240886e-012 1.0
  outer loop
    vertex -313.23682905316 357.730812706851 19.829625659268
    vertex -311.169841755312 362.480812706519 19.829625659273
    vertex -313.316288364458 357.834366097445 19.8296256592682
  endloop
endfacet
facet normal -1.50987508220815e-025 -5.44378963240886e-012 1.0
  outer loop
    vertex -313.316288364458 357.834366097445 19.8296256592682
    vertex -311.169841755312 362.480812706519 19.829625659273
    vertex -313.41984175505 357.913825408745 19.8296256592666
  endloop
endfacet
facet normal -1.50987508220815e-025 -5.44378963240886e-012 1.0
  outer loop
    vertex -313.41984175505 357.913825408745 19.8296256592666
    vertex -311.169841755312 362.480812706519 19.829625659273
    vertex -313.540432232499 357.963775619998 19.8296256592631
  endloop
endfacet
facet normal -1.50987508220815e-025 -5.44378963240886e-012 1.0
  outer loop
    vertex -313.540432232499 357.963775619998 19.8296256592631
    vertex -311.169841755312 362.480812706519 19.829625659273
    vertex -313.66984175505 357.980812706855 19.8296256592581
  endloop
endfacet
facet normal -1.50987508220815e-025 -5.44378963240886e-012 1.0
  outer loop
    vertex -311.169841755312 352.480812706519 19.8296256592186
    vertex -313.186878841909 357.610222229401 19.829625659266
    vertex -313.169841755055 357.48081270685 19.8296256592621
  endloop
endfacet
facet normal -1.50987508220815e-025 -5.44378963240886e-012 1.0
  outer loop
    vertex -311.169841755312 352.480812706519 19.8296256592186
    vertex -313.169841755055 357.48081270685 19.8296256592621
    vertex -313.186878841911 357.351403184299 19.8296256592568
  endloop
endfacet
facet normal -1.50987508220815e-025 -5.44378963240886e-012 1.0
  outer loop
    vertex -311.169841755312 352.480812706519 19.8296256592186
    vertex -313.186878841911 357.351403184299 19.8296256592568
    vertex -313.236829053165 357.230812706851 19.8296256592504
  endloop
endfacet
facet normal -1.50987508220815e-025 -5.44378963240886e-012 1.0
  outer loop
    vertex -311.169841755312 352.480812706519 19.8296256592186
    vertex -313.236829053165 357.230812706851 19.8296256592504
    vertex -313.316288364465 357.127259316258 19.8296256592433
  endloop
endfacet
facet normal -1.50987508220815e-025 -5.44378963240886e-012 1.0
  outer loop
    vertex -311.169841755312 352.480812706519 19.8296256592186
    vertex -313.316288364465 357.127259316258 19.8296256592433
    vertex -313.419841755059 357.04780000496 19.829625659236
  endloop
endfacet
facet normal -1.50987508220815e-025 -5.44378963240886e-012 1.0
  outer loop
    vertex -311.169841755312 352.480812706519 19.8296256592186
    vertex -313.419841755059 357.04780000496 19.829625659236
    vertex -313.540432232508 356.997849793709 19.829625659229
  endloop
endfacet
facet normal -1.50987508220815e-025 -5.44378963240886e-012 1.0
  outer loop
    vertex -311.169841755312 352.480812706519 19.8296256592186
    vertex -313.540432232508 356.997849793709 19.829625659229
    vertex -313.669841755059 356.980812706855 19.8296256592228
  endloop
endfacet
facet normal -1.50987508220815e-025 -5.44378963240886e-012 1.0
  outer loop
    vertex -311.169841755312 352.480812706519 19.8296256592186
    vertex -313.669841755059 356.980812706855 19.8296256592228
    vertex -316.169841755312 352.480812706519 19.8296256592186
  endloop
endfacet
facet normal 0.793353340296916 0.608761429001318 5.58551009902287e-011
  outer loop
    vertex -314.102854456429 357.230812707282 7.82962565932657
    vertex -314.023395145651 357.127259316265 19.8296256592127
    vertex -314.023395145131 357.127259316688 7.82962565932636
  endloop
endfacet
facet normal 0.793353340296916 0.608761429001318 5.58551009902287e-011
  outer loop
    vertex -314.023395145651 357.127259316265 19.8296256592127
    vertex -314.102854456429 357.230812707282 7.82962565932657
    vertex -314.102854456949 357.230812706859 19.8296256592129
  endloop
endfacet
facet normal 0.608761429016316 0.793353340285407 5.43665421709462e-011
  outer loop
    vertex -313.919841755059 357.047800004965 19.8296256592143
    vertex -314.023395145131 357.127259316688 7.82962565932636
    vertex -314.023395145651 357.127259316265 19.8296256592127
  endloop
endfacet
facet normal 0.608761429016316 0.793353340285407 5.43665421709462e-011
  outer loop
    vertex -314.023395145131 357.127259316688 7.82962565932636
    vertex -313.919841755059 357.047800004965 19.8296256592143
    vertex -313.919841754539 357.047800005388 7.82962565932804
  endloop
endfacet
facet normal 0.382683432373693 0.923879532507723 4.9172993347666e-011
  outer loop
    vertex -313.79925127761 356.997849793711 19.8296256592178
    vertex -313.919841754539 357.047800005388 7.82962565932804
    vertex -313.919841755059 357.047800004965 19.8296256592143
  endloop
endfacet
facet normal 0.382683432373693 0.923879532507723 4.9172993347666e-011
  outer loop
    vertex -313.919841754539 357.047800005388 7.82962565932804
    vertex -313.79925127761 356.997849793711 19.8296256592178
    vertex -313.79925127709 356.997849794135 7.8296256593315
  endloop
endfacet
facet normal 0.130526192229431 0.991444861372576 4.06283862899652e-011
  outer loop
    vertex -313.669841755059 356.980812706855 19.8296256592228
    vertex -313.79925127709 356.997849794135 7.8296256593315
    vertex -313.79925127761 356.997849793711 19.8296256592178
  endloop
endfacet
facet normal 0.130526192229431 0.991444861372576 4.06283862899652e-011
  outer loop
    vertex -313.79925127709 356.997849794135 7.8296256593315
    vertex -313.669841755059 356.980812706855 19.8296256592228
    vertex -313.669841754539 356.980812707278 7.82962565933651
  endloop
endfacet
facet normal -0.130526192210669 0.991444861375046 2.93150218481824e-011
  outer loop
    vertex -313.540432232508 356.997849793709 19.829625659229
    vertex -313.669841754539 356.980812707278 7.82962565933651
    vertex -313.669841755059 356.980812706855 19.8296256592228
  endloop
endfacet
facet normal -0.130526192210669 0.991444861375046 2.93150218481824e-011
  outer loop
    vertex -313.669841754539 356.980812707278 7.82962565933651
    vertex -313.540432232508 356.997849793709 19.829625659229
    vertex -313.540432231988 356.997849794132 7.82962565934272
  endloop
endfacet
facet normal -0.382683432356386 0.923879532514892 1.60038871128077e-011
  outer loop
    vertex -313.419841755059 357.04780000496 19.829625659236
    vertex -313.540432231988 356.997849794132 7.82962565934272
    vertex -313.540432232508 356.997849793709 19.829625659229
  endloop
endfacet
facet normal -0.382683432356386 0.923879532514892 1.60038871128077e-011
  outer loop
    vertex -313.540432231988 356.997849794132 7.82962565934272
    vertex -313.419841755059 357.04780000496 19.829625659236
    vertex -313.419841754539 357.047800005383 7.8296256593497
  endloop
endfacet
facet normal -0.608761429001318 0.793353340296916 1.6021139183662e-012
  outer loop
    vertex -313.316288364465 357.127259316258 19.8296256592433
    vertex -313.419841754539 357.047800005383 7.8296256593497
    vertex -313.419841755059 357.04780000496 19.829625659236
  endloop
endfacet
facet normal -0.608761429001318 0.793353340296916 1.6021139183662e-012
  outer loop
    vertex -313.419841754539 357.047800005383 7.8296256593497
    vertex -313.316288364465 357.127259316258 19.8296256592433
    vertex -313.316288363945 357.127259316681 7.829625659357
  endloop
endfacet
facet normal -0.793353340285407 0.608761429016316 -1.29088406919756e-011
  outer loop
    vertex -313.316288364465 357.127259316258 19.8296256592433
    vertex -313.236829052645 357.230812707274 7.8296256593641
    vertex -313.316288363945 357.127259316681 7.829625659357
  endloop
endfacet
facet normal -0.793353340285407 0.608761429016316 -1.29088406919756e-011
  outer loop
    vertex -313.236829052645 357.230812707274 7.8296256593641
    vertex -313.316288364465 357.127259316258 19.8296256592433
    vertex -313.236829053165 357.230812706851 19.8296256592504
  endloop
endfacet
facet normal -0.923879532507723 0.382683432373693 -2.65400791420535e-011
  outer loop
    vertex -313.236829053165 357.230812706851 19.8296256592504
    vertex -313.186878841391 357.351403184722 7.82962565937052
    vertex -313.236829052645 357.230812707274 7.8296256593641
  endloop
endfacet
facet normal -0.923879532507723 0.382683432373693 -2.65400791420535e-011
  outer loop
    vertex -313.186878841391 357.351403184722 7.82962565937052
    vertex -313.236829053165 357.230812706851 19.8296256592504
    vertex -313.186878841911 357.351403184299 19.8296256592568
  endloop
endfacet
facet normal -0.991444861372576 0.130526192229431 -3.83626550581348e-011
  outer loop
    vertex -313.186878841911 357.351403184299 19.8296256592568
    vertex -313.169841754535 357.480812707273 7.82962565937582
    vertex -313.186878841391 357.351403184722 7.82962565937052
  endloop
endfacet
facet normal -0.991444861372576 0.130526192229431 -3.83626550581348e-011
  outer loop
    vertex -313.169841754535 357.480812707273 7.82962565937582
    vertex -313.186878841911 357.351403184299 19.8296256592568
    vertex -313.169841755055 357.48081270685 19.8296256592621
  endloop
endfacet
facet normal -0.991444861375046 -0.130526192210669 -4.75708794292964e-011
  outer loop
    vertex -313.169841755055 357.48081270685 19.8296256592621
    vertex -313.186878841389 357.610222229825 7.82962565937964
    vertex -313.169841754535 357.480812707273 7.82962565937582
  endloop
endfacet
facet normal -0.991444861375046 -0.130526192210669 -4.75708794292964e-011
  outer loop
    vertex -313.186878841389 357.610222229825 7.82962565937964
    vertex -313.169841755055 357.48081270685 19.8296256592621
    vertex -313.186878841909 357.610222229401 19.829625659266
  endloop
endfacet
facet normal -0.923879532514892 -0.382683432356386 -5.35372269819476e-011
  outer loop
    vertex -313.186878841909 357.610222229401 19.829625659266
    vertex -313.23682905264 357.730812707274 7.82962565938173
    vertex -313.186878841389 357.610222229825 7.82962565937964
  endloop
endfacet
facet normal -0.923879532514892 -0.382683432356386 -5.35372269819476e-011
  outer loop
    vertex -313.23682905264 357.730812707274 7.82962565938173
    vertex -313.186878841909 357.610222229401 19.829625659266
    vertex -313.23682905316 357.730812706851 19.829625659268
  endloop
endfacet
facet normal -0.793353340296916 -0.608761429001318 -5.58551009902287e-011
  outer loop
    vertex -313.23682905316 357.730812706851 19.829625659268
    vertex -313.316288363938 357.834366097868 7.82962565938194
    vertex -313.23682905264 357.730812707274 7.82962565938173
  endloop
endfacet
facet normal -0.793353340296916 -0.608761429001318 -5.58551009902287e-011
  outer loop
    vertex -313.316288363938 357.834366097868 7.82962565938194
    vertex -313.23682905316 357.730812706851 19.829625659268
    vertex -313.316288364458 357.834366097445 19.8296256592682
  endloop
endfacet
facet normal -0.608761429016316 -0.793353340285407 -5.43665421709462e-011
  outer loop
    vertex -313.41984175453 357.913825409168 7.82962565938026
    vertex -313.316288364458 357.834366097445 19.8296256592682
    vertex -313.41984175505 357.913825408745 19.8296256592666
  endloop
endfacet
facet normal -0.608761429016316 -0.793353340285407 -5.43665421709462e-011
  outer loop
    vertex -313.316288364458 357.834366097445 19.8296256592682
    vertex -313.41984175453 357.913825409168 7.82962565938026
    vertex -313.316288363938 357.834366097868 7.82962565938194
  endloop
endfacet
facet normal -0.382683432373693 -0.923879532507723 -4.9172993347666e-011
  outer loop
    vertex -313.540432231979 357.963775620421 7.82962565937679
    vertex -313.41984175505 357.913825408745 19.8296256592666
    vertex -313.540432232499 357.963775619998 19.8296256592631
  endloop
endfacet
facet normal -0.382683432373693 -0.923879532507723 -4.9172993347666e-011
  outer loop
    vertex -313.41984175505 357.913825408745 19.8296256592666
    vertex -313.540432231979 357.963775620421 7.82962565937679
    vertex -313.41984175453 357.913825409168 7.82962565938026
  endloop
endfacet
facet normal -0.130526192229431 -0.991444861372576 -4.06283862899652e-011
  outer loop
    vertex -313.66984175453 357.980812707278 7.82962565937179
    vertex -313.540432232499 357.963775619998 19.8296256592631
    vertex -313.66984175505 357.980812706855 19.8296256592581
  endloop
endfacet
facet normal -0.130526192229431 -0.991444861372576 -4.06283862899652e-011
  outer loop
    vertex -313.540432232499 357.963775619998 19.8296256592631
    vertex -313.66984175453 357.980812707278 7.82962565937179
    vertex -313.540432231979 357.963775620421 7.82962565937679
  endloop
endfacet
facet normal 0.130526192210669 -0.991444861375046 -2.93150218481824e-011
  outer loop
    vertex -313.799251277081 357.963775620424 7.82962565936557
    vertex -313.66984175505 357.980812706855 19.8296256592581
    vertex -313.799251277601 357.96377562 19.8296256592519
  endloop
endfacet
facet normal 0.130526192210669 -0.991444861375046 -2.93150218481824e-011
  outer loop
    vertex -313.66984175505 357.980812706855 19.8296256592581
    vertex -313.799251277081 357.963775620424 7.82962565936557
    vertex -313.66984175453 357.980812707278 7.82962565937179
  endloop
endfacet
facet normal 0.382683432356386 -0.923879532514892 -1.60038871128077e-011
  outer loop
    vertex -313.91984175453 357.913825409172 7.82962565935859
    vertex -313.799251277601 357.96377562 19.8296256592519
    vertex -313.91984175505 357.913825408749 19.8296256592449
  endloop
endfacet
facet normal 0.382683432356386 -0.923879532514892 -1.60038871128077e-011
  outer loop
    vertex -313.799251277601 357.96377562 19.8296256592519
    vertex -313.91984175453 357.913825409172 7.82962565935859
    vertex -313.799251277081 357.963775620424 7.82962565936557
  endloop
endfacet
facet normal 0.608761429001318 -0.793353340296916 -1.6021139183662e-012
  outer loop
    vertex -314.023395145124 357.834366097874 7.8296256593513
    vertex -313.91984175505 357.913825408749 19.8296256592449
    vertex -314.023395145644 357.834366097451 19.8296256592376
  endloop
endfacet
facet normal 0.608761429001318 -0.793353340296916 -1.6021139183662e-012
  outer loop
    vertex -313.91984175505 357.913825408749 19.8296256592449
    vertex -314.023395145124 357.834366097874 7.8296256593513
    vertex -313.91984175453 357.913825409172 7.82962565935859
  endloop
endfacet
facet normal 0.793353340285407 -0.608761429016316 1.29088406919756e-011
  outer loop
    vertex -314.023395145124 357.834366097874 7.8296256593513
    vertex -314.102854456944 357.730812706859 19.8296256592305
    vertex -314.102854456424 357.730812707282 7.82962565934419
  endloop
endfacet
facet normal 0.793353340285407 -0.608761429016316 1.29088406919756e-011
  outer loop
    vertex -314.102854456944 357.730812706859 19.8296256592305
    vertex -314.023395145124 357.834366097874 7.8296256593513
    vertex -314.023395145644 357.834366097451 19.8296256592376
  endloop
endfacet
facet normal 0.923879532507723 -0.382683432373693 2.65400791420535e-011
  outer loop
    vertex -314.102854456424 357.730812707282 7.82962565934419
    vertex -314.152804668198 357.61022222941 19.8296256592241
    vertex -314.152804667678 357.610222229834 7.82962565933778
  endloop
endfacet
facet normal 0.923879532507723 -0.382683432373693 2.65400791420535e-011
  outer loop
    vertex -314.152804668198 357.61022222941 19.8296256592241
    vertex -314.102854456424 357.730812707282 7.82962565934419
    vertex -314.102854456944 357.730812706859 19.8296256592305
  endloop
endfacet
facet normal 0.991444861372576 -0.130526192229431 3.83626550581348e-011
  outer loop
    vertex -314.152804667678 357.610222229834 7.82962565933778
    vertex -314.169841755055 357.480812706859 19.8296256592188
    vertex -314.169841754535 357.480812707283 7.82962565933248
  endloop
endfacet
facet normal 0.991444861372576 -0.130526192229431 3.83626550581348e-011
  outer loop
    vertex -314.169841755055 357.480812706859 19.8296256592188
    vertex -314.152804667678 357.610222229834 7.82962565933778
    vertex -314.152804668198 357.61022222941 19.8296256592241
  endloop
endfacet
facet normal 0.991444861375046 0.130526192210669 4.75708794292964e-011
  outer loop
    vertex -314.169841754535 357.480812707283 7.82962565933248
    vertex -314.1528046682 357.351403184308 19.829625659215
    vertex -314.15280466768 357.351403184731 7.82962565932866
  endloop
endfacet
facet normal 0.991444861375046 0.130526192210669 4.75708794292964e-011
  outer loop
    vertex -314.1528046682 357.351403184308 19.829625659215
    vertex -314.169841754535 357.480812707283 7.82962565933248
    vertex -314.169841755055 357.480812706859 19.8296256592188
  endloop
endfacet
facet normal 0.923879532514892 0.382683432356386 5.35372269819476e-011
  outer loop
    vertex -314.15280466768 357.351403184731 7.82962565932866
    vertex -314.102854456949 357.230812706859 19.8296256592129
    vertex -314.102854456429 357.230812707282 7.82962565932657
  endloop
endfacet
facet normal 0.923879532514892 0.382683432356386 5.35372269819476e-011
  outer loop
    vertex -314.102854456949 357.230812706859 19.8296256592129
    vertex -314.15280466768 357.351403184731 7.82962565932866
    vertex -314.1528046682 357.351403184308 19.829625659215
  endloop
endfacet
endsolid AuntFanny
