solid AuntFanny
facet normal -0.59484300540686 -1.08614228722104e-011 0.803841899205642
  outer loop
    vertex -396.169841755885 337.480812706883 7.82962565929209
    vertex -346.169841755683 342.480812706383 44.8296256591781
    vertex -396.169841755885 342.480812706883 7.82962565935965
  endloop
endfacet
facet normal -0.59484300540686 -1.08614228722104e-011 0.803841899205642
  outer loop
    vertex -346.169841755683 342.480812706383 44.8296256591781
    vertex -396.169841755885 337.480812706883 7.82962565929209
    vertex -346.169841755683 337.480812706384 44.8296256591105
  endloop
endfacet
facet normal -1.17042751643697e-012 1.82474761443641e-011 -1.0
  outer loop
    vertex -336.169841755885 342.480812706883 7.82962565930521
    vertex -396.169841755885 337.480812706883 7.82962565929209
    vertex -396.169841755885 342.480812706883 7.82962565935965
  endloop
endfacet
facet normal -1.17042751643697e-012 1.82474761443641e-011 -1.0
  outer loop
    vertex -396.169841755885 337.480812706883 7.82962565929209
    vertex -336.169841755885 342.480812706883 7.82962565930521
    vertex -346.169841756064 337.480812706883 7.82962565917043
  endloop
endfacet
facet normal -1.17042751643697e-012 1.82474761443641e-011 -1.0
  outer loop
    vertex -346.169841756064 337.480812706883 7.82962565917043
    vertex -336.169841755885 342.480812706883 7.82962565930521
    vertex -336.169841755885 337.480812706883 7.82962565923765
  endloop
endfacet
facet normal 5.50059997550534e-013 -1.0 -1.43166871439072e-011
  outer loop
    vertex -346.16984175582 337.480812706802 19.8296256592921
    vertex -396.169841755885 337.480812706883 7.82962565929209
    vertex -346.169841756064 337.480812706883 7.82962565917043
  endloop
endfacet
facet normal 5.50059997550534e-013 -1.0 -1.43166871439072e-011
  outer loop
    vertex -396.169841755885 337.480812706883 7.82962565929209
    vertex -346.16984175582 337.480812706802 19.8296256592921
    vertex -346.169841755683 337.480812706384 44.8296256591105
  endloop
endfacet
facet normal 5.50059997550534e-013 -1.0 -1.43166871439072e-011
  outer loop
    vertex -346.169841755683 337.480812706384 44.8296256591105
    vertex -346.16984175582 337.480812706802 19.8296256592921
    vertex -346.169841755749 337.480812706551 32.8296256591105
  endloop
endfacet
facet normal 0.0 1.0 1.35123087062434e-011
  outer loop
    vertex -396.169841755885 342.480812706883 7.82962565935965
    vertex -341.299251278534 342.480812706878 13.3466627460231
    vertex -341.169841755982 342.480812706877 13.3296256591674
  endloop
endfacet
facet normal 0.0 1.0 1.35123087062434e-011
  outer loop
    vertex -341.299251278534 342.480812706878 13.3466627460231
    vertex -396.169841755885 342.480812706883 7.82962565935965
    vertex -341.419841755982 342.480812706878 13.3966129572757
  endloop
endfacet
facet normal 0.0 1.0 1.35123087062434e-011
  outer loop
    vertex -341.419841755982 342.480812706878 13.3966129572757
    vertex -396.169841755885 342.480812706883 7.82962565935965
    vertex -341.523395146575 342.480812706879 13.4760722685748
  endloop
endfacet
facet normal 0.0 1.0 1.35123087062434e-011
  outer loop
    vertex -341.523395146575 342.480812706879 13.4760722685748
    vertex -396.169841755885 342.480812706883 7.82962565935965
    vertex -341.602854457874 342.480812706879 13.5796256591683
  endloop
endfacet
facet normal 0.0 1.0 1.35123087062434e-011
  outer loop
    vertex -341.602854457874 342.480812706879 13.5796256591683
    vertex -396.169841755885 342.480812706883 7.82962565935965
    vertex -346.169841755819 342.480812706802 19.8296256592921
  endloop
endfacet
facet normal 0.0 1.0 1.35123087062434e-011
  outer loop
    vertex -346.169841755819 342.480812706802 19.8296256592921
    vertex -396.169841755885 342.480812706883 7.82962565935965
    vertex -346.169841755749 342.480812706551 32.8296256591105
  endloop
endfacet
facet normal 0.0 1.0 1.35123087062434e-011
  outer loop
    vertex -346.169841755749 342.480812706551 32.8296256591105
    vertex -396.169841755885 342.480812706883 7.82962565935965
    vertex -346.169841755683 342.480812706383 44.8296256591781
  endloop
endfacet
facet normal 0.0 1.0 1.35123087062434e-011
  outer loop
    vertex -341.602854457874 342.480812706879 13.5796256591683
    vertex -346.169841755819 342.480812706802 19.8296256592921
    vertex -341.652804669126 342.480812706879 13.7002161366171
  endloop
endfacet
facet normal 0.0 1.0 1.35123087062434e-011
  outer loop
    vertex -341.652804669126 342.480812706879 13.7002161366171
    vertex -346.169841755819 342.480812706802 19.8296256592921
    vertex -341.669841755981 342.480812706879 13.8296256591684
  endloop
endfacet
facet normal 0.0 1.0 1.35123087062434e-011
  outer loop
    vertex -341.669841755981 342.480812706879 13.8296256591684
    vertex -346.169841755819 342.480812706802 19.8296256592921
    vertex -341.652804669126 342.480812706878 13.9590351817196
  endloop
endfacet
facet normal 0.0 1.0 1.35123087062434e-011
  outer loop
    vertex -341.652804669126 342.480812706878 13.9590351817196
    vertex -346.169841755819 342.480812706802 19.8296256592921
    vertex -341.602854457873 342.480812706878 14.0796256591682
  endloop
endfacet
facet normal 0.0 1.0 1.35123087062434e-011
  outer loop
    vertex -341.602854457873 342.480812706878 14.0796256591682
    vertex -346.169841755819 342.480812706802 19.8296256592921
    vertex -341.523395146574 342.480812706877 14.1831790497614
  endloop
endfacet
facet normal 0.0 1.0 1.35123087062434e-011
  outer loop
    vertex -341.523395146574 342.480812706877 14.1831790497614
    vertex -346.169841755819 342.480812706802 19.8296256592921
    vertex -341.41984175598 342.480812706876 14.2626383610601
  endloop
endfacet
facet normal 0.0 1.0 1.35123087062434e-011
  outer loop
    vertex -341.41984175598 342.480812706876 14.2626383610601
    vertex -346.169841755819 342.480812706802 19.8296256592921
    vertex -341.299251278532 342.480812706875 14.3125885723122
  endloop
endfacet
facet normal 0.0 1.0 1.35123087062434e-011
  outer loop
    vertex -341.299251278532 342.480812706875 14.3125885723122
    vertex -346.169841755819 342.480812706802 19.8296256592921
    vertex -341.16984175598 342.480812706874 14.3296256591674
  endloop
endfacet
facet normal 0.0 1.0 1.35123087062434e-011
  outer loop
    vertex -341.16984175598 342.480812706874 14.3296256591674
    vertex -346.169841755819 342.480812706802 19.8296256592921
    vertex -336.169841755819 342.480812706802 19.8296256592376
  endloop
endfacet
facet normal 0.0 1.0 1.35123087062434e-011
  outer loop
    vertex -346.169841755749 342.480812706551 32.8296256591105
    vertex -346.169841755683 342.480812706383 44.8296256591781
    vertex -341.602854457827 342.480812706567 38.5796256589867
  endloop
endfacet
facet normal 0.0 1.0 1.35123087062434e-011
  outer loop
    vertex -346.169841755749 342.480812706551 32.8296256591105
    vertex -341.602854457827 342.480812706567 38.5796256589867
    vertex -341.523395146529 342.480812706567 38.4760722683933
  endloop
endfacet
facet normal 0.0 1.0 1.35123087062434e-011
  outer loop
    vertex -346.169841755749 342.480812706551 32.8296256591105
    vertex -341.523395146529 342.480812706567 38.4760722683933
    vertex -341.419841755936 342.480812706567 38.3966129570941
  endloop
endfacet
facet normal 0.0 1.0 1.35123087062434e-011
  outer loop
    vertex -346.169841755749 342.480812706551 32.8296256591105
    vertex -341.419841755936 342.480812706567 38.3966129570941
    vertex -341.299251278487 342.480812706566 38.3466627458416
  endloop
endfacet
facet normal 0.0 1.0 1.35123087062434e-011
  outer loop
    vertex -346.169841755749 342.480812706551 32.8296256591105
    vertex -341.299251278487 342.480812706566 38.3466627458416
    vertex -341.169841755936 342.480812706565 38.3296256589859
  endloop
endfacet
facet normal 0.0 1.0 1.35123087062434e-011
  outer loop
    vertex -341.602854457827 342.480812706567 38.5796256589867
    vertex -346.169841755683 342.480812706383 44.8296256591781
    vertex -341.65280466908 342.480812706567 38.7002161364355
  endloop
endfacet
facet normal 0.0 1.0 1.35123087062434e-011
  outer loop
    vertex -341.65280466908 342.480812706567 38.7002161364355
    vertex -346.169841755683 342.480812706383 44.8296256591781
    vertex -341.669841755935 342.480812706567 38.8296256589868
  endloop
endfacet
facet normal 0.0 1.0 1.35123087062434e-011
  outer loop
    vertex -341.669841755935 342.480812706567 38.8296256589868
    vertex -346.169841755683 342.480812706383 44.8296256591781
    vertex -341.652804669079 342.480812706566 38.9590351815381
  endloop
endfacet
facet normal 0.0 1.0 1.35123087062434e-011
  outer loop
    vertex -341.652804669079 342.480812706566 38.9590351815381
    vertex -346.169841755683 342.480812706383 44.8296256591781
    vertex -341.602854457826 342.480812706566 39.0796256589867
  endloop
endfacet
facet normal 0.0 1.0 1.35123087062434e-011
  outer loop
    vertex -341.602854457826 342.480812706566 39.0796256589867
    vertex -346.169841755683 342.480812706383 44.8296256591781
    vertex -341.523395146528 342.480812706565 39.1831790495798
  endloop
endfacet
facet normal 0.0 1.0 1.35123087062434e-011
  outer loop
    vertex -341.523395146528 342.480812706565 39.1831790495798
    vertex -346.169841755683 342.480812706383 44.8296256591781
    vertex -341.419841755934 342.480812706564 39.2626383608786
  endloop
endfacet
facet normal 0.0 1.0 1.35123087062434e-011
  outer loop
    vertex -341.419841755934 342.480812706564 39.2626383608786
    vertex -346.169841755683 342.480812706383 44.8296256591781
    vertex -341.299251278485 342.480812706563 39.3125885721307
  endloop
endfacet
facet normal 0.0 1.0 1.35123087062434e-011
  outer loop
    vertex -341.299251278485 342.480812706563 39.3125885721307
    vertex -346.169841755683 342.480812706383 44.8296256591781
    vertex -341.169841755934 342.480812706563 39.3296256589859
  endloop
endfacet
facet normal 0.0 1.0 1.35123087062434e-011
  outer loop
    vertex -341.169841755934 342.480812706563 39.3296256589859
    vertex -346.169841755683 342.480812706383 44.8296256591781
    vertex -336.169841755774 342.480812706383 44.8296256591237
  endloop
endfacet
facet normal 0.0 1.0 1.35123087062434e-011
  outer loop
    vertex -336.169841755839 342.480812706551 32.8296256590561
    vertex -340.736829054043 342.480812706562 38.579625658985
    vertex -336.169841755774 342.480812706383 44.8296256591237
  endloop
endfacet
facet normal 0.0 1.0 1.35123087062434e-011
  outer loop
    vertex -340.736829054043 342.480812706562 38.579625658985
    vertex -336.169841755839 342.480812706551 32.8296256590561
    vertex -340.816288365342 342.480812706563 38.4760722683919
  endloop
endfacet
facet normal 0.0 1.0 1.35123087062434e-011
  outer loop
    vertex -340.816288365342 342.480812706563 38.4760722683919
    vertex -336.169841755839 342.480812706551 32.8296256590561
    vertex -346.169841755749 342.480812706551 32.8296256591105
  endloop
endfacet
facet normal 0.0 1.0 1.35123087062434e-011
  outer loop
    vertex -340.816288365342 342.480812706563 38.4760722683919
    vertex -346.169841755749 342.480812706551 32.8296256591105
    vertex -340.919841755936 342.480812706564 38.3966129570932
  endloop
endfacet
facet normal 0.0 1.0 1.35123087062434e-011
  outer loop
    vertex -340.919841755936 342.480812706564 38.3966129570932
    vertex -346.169841755749 342.480812706551 32.8296256591105
    vertex -341.040432233385 342.480812706565 38.3466627458411
  endloop
endfacet
facet normal 0.0 1.0 1.35123087062434e-011
  outer loop
    vertex -341.040432233385 342.480812706565 38.3466627458411
    vertex -346.169841755749 342.480812706551 32.8296256591105
    vertex -341.169841755936 342.480812706565 38.3296256589859
  endloop
endfacet
facet normal 0.0 1.0 1.35123087062434e-011
  outer loop
    vertex -336.169841755774 342.480812706383 44.8296256591237
    vertex -340.736829054043 342.480812706562 38.579625658985
    vertex -340.68687884279 342.480812706561 38.7002161364337
  endloop
endfacet
facet normal 0.0 1.0 1.35123087062434e-011
  outer loop
    vertex -336.169841755774 342.480812706383 44.8296256591237
    vertex -340.68687884279 342.480812706561 38.7002161364337
    vertex -340.669841755935 342.480812706561 38.8296256589849
  endloop
endfacet
facet normal 0.0 1.0 1.35123087062434e-011
  outer loop
    vertex -336.169841755774 342.480812706383 44.8296256591237
    vertex -340.669841755935 342.480812706561 38.8296256589849
    vertex -340.68687884279 342.480812706561 38.9590351815362
  endloop
endfacet
facet normal 0.0 1.0 1.35123087062434e-011
  outer loop
    vertex -336.169841755774 342.480812706383 44.8296256591237
    vertex -340.68687884279 342.480812706561 38.9590351815362
    vertex -340.736829054042 342.480812706561 39.079625658985
  endloop
endfacet
facet normal 0.0 1.0 1.35123087062434e-011
  outer loop
    vertex -336.169841755774 342.480812706383 44.8296256591237
    vertex -340.736829054042 342.480812706561 39.079625658985
    vertex -340.816288365341 342.480812706561 39.1831790495785
  endloop
endfacet
facet normal 0.0 1.0 1.35123087062434e-011
  outer loop
    vertex -336.169841755774 342.480812706383 44.8296256591237
    vertex -340.816288365341 342.480812706561 39.1831790495785
    vertex -340.919841755934 342.480812706561 39.2626383608776
  endloop
endfacet
facet normal 0.0 1.0 1.35123087062434e-011
  outer loop
    vertex -336.169841755774 342.480812706383 44.8296256591237
    vertex -340.919841755934 342.480812706561 39.2626383608776
    vertex -341.040432233383 342.480812706562 39.3125885721302
  endloop
endfacet
facet normal 0.0 1.0 1.35123087062434e-011
  outer loop
    vertex -336.169841755774 342.480812706383 44.8296256591237
    vertex -341.040432233383 342.480812706562 39.3125885721302
    vertex -341.169841755934 342.480812706563 39.3296256589859
  endloop
endfacet
facet normal 0.0 1.0 1.35123087062434e-011
  outer loop
    vertex -336.169841755885 342.480812706883 7.82962565930521
    vertex -340.736829054089 342.480812706874 13.5796256591666
    vertex -336.169841755819 342.480812706802 19.8296256592376
  endloop
endfacet
facet normal 0.0 1.0 1.35123087062434e-011
  outer loop
    vertex -340.736829054089 342.480812706874 13.5796256591666
    vertex -336.169841755885 342.480812706883 7.82962565930521
    vertex -340.816288365388 342.480812706875 13.4760722685735
  endloop
endfacet
facet normal 0.0 1.0 1.35123087062434e-011
  outer loop
    vertex -340.816288365388 342.480812706875 13.4760722685735
    vertex -336.169841755885 342.480812706883 7.82962565930521
    vertex -340.919841755982 342.480812706876 13.3966129572747
  endloop
endfacet
facet normal 0.0 1.0 1.35123087062434e-011
  outer loop
    vertex -340.919841755982 342.480812706876 13.3966129572747
    vertex -336.169841755885 342.480812706883 7.82962565930521
    vertex -341.040432233431 342.480812706877 13.3466627460226
  endloop
endfacet
facet normal 0.0 1.0 1.35123087062434e-011
  outer loop
    vertex -341.040432233431 342.480812706877 13.3466627460226
    vertex -336.169841755885 342.480812706883 7.82962565930521
    vertex -341.169841755982 342.480812706877 13.3296256591674
  endloop
endfacet
facet normal 0.0 1.0 1.35123087062434e-011
  outer loop
    vertex -341.169841755982 342.480812706877 13.3296256591674
    vertex -336.169841755885 342.480812706883 7.82962565930521
    vertex -396.169841755885 342.480812706883 7.82962565935965
  endloop
endfacet
facet normal 0.0 1.0 1.35123087062434e-011
  outer loop
    vertex -336.169841755819 342.480812706802 19.8296256592376
    vertex -340.736829054089 342.480812706874 13.5796256591666
    vertex -340.686878842837 342.480812706873 13.7002161366152
  endloop
endfacet
facet normal 0.0 1.0 1.35123087062434e-011
  outer loop
    vertex -336.169841755819 342.480812706802 19.8296256592376
    vertex -340.686878842837 342.480812706873 13.7002161366152
    vertex -340.669841755981 342.480812706873 13.8296256591664
  endloop
endfacet
facet normal 0.0 1.0 1.35123087062434e-011
  outer loop
    vertex -336.169841755819 342.480812706802 19.8296256592376
    vertex -340.669841755981 342.480812706873 13.8296256591664
    vertex -340.686878842837 342.480812706873 13.9590351817177
  endloop
endfacet
facet normal 0.0 1.0 1.35123087062434e-011
  outer loop
    vertex -336.169841755819 342.480812706802 19.8296256592376
    vertex -340.686878842837 342.480812706873 13.9590351817177
    vertex -340.736829054089 342.480812706873 14.0796256591666
  endloop
endfacet
facet normal 0.0 1.0 1.35123087062434e-011
  outer loop
    vertex -336.169841755819 342.480812706802 19.8296256592376
    vertex -340.736829054089 342.480812706873 14.0796256591666
    vertex -340.816288365388 342.480812706873 14.18317904976
  endloop
endfacet
facet normal 0.0 1.0 1.35123087062434e-011
  outer loop
    vertex -336.169841755819 342.480812706802 19.8296256592376
    vertex -340.816288365388 342.480812706873 14.18317904976
    vertex -340.91984175598 342.480812706873 14.2626383610591
  endloop
endfacet
facet normal 0.0 1.0 1.35123087062434e-011
  outer loop
    vertex -336.169841755819 342.480812706802 19.8296256592376
    vertex -340.91984175598 342.480812706873 14.2626383610591
    vertex -341.040432233429 342.480812706874 14.3125885723117
  endloop
endfacet
facet normal 0.0 1.0 1.35123087062434e-011
  outer loop
    vertex -336.169841755819 342.480812706802 19.8296256592376
    vertex -341.040432233429 342.480812706874 14.3125885723117
    vertex -341.16984175598 342.480812706874 14.3296256591674
  endloop
endfacet
facet normal 1.0 -9.2148511043888e-015 -5.44802484608552e-012
  outer loop
    vertex -336.169841755885 337.480812706883 7.82962565923765
    vertex -336.169841755819 342.480812706802 19.8296256592376
    vertex -336.16984175582 337.480812706802 19.8296256592376
  endloop
endfacet
facet normal 1.0 -9.2148511043888e-015 -5.44802484608552e-012
  outer loop
    vertex -336.169841755819 342.480812706802 19.8296256592376
    vertex -336.169841755885 337.480812706883 7.82962565923765
    vertex -336.169841755885 342.480812706883 7.82962565930521
  endloop
endfacet
facet normal 5.44407839697667e-012 -1.00570299084816e-025 1.0
  outer loop
    vertex -336.16984175582 337.480812706802 19.8296256592376
    vertex -346.169841755819 342.480812706802 19.8296256592921
    vertex -346.16984175582 337.480812706802 19.8296256592921
  endloop
endfacet
facet normal 5.44407839697667e-012 -1.00570299084816e-025 1.0
  outer loop
    vertex -346.169841755819 342.480812706802 19.8296256592921
    vertex -336.16984175582 337.480812706802 19.8296256592376
    vertex -336.169841755819 342.480812706802 19.8296256592376
  endloop
endfacet
facet normal 1.0 -9.2148511043888e-015 -5.44121296403379e-012
  outer loop
    vertex -346.16984175582 337.480812706802 19.8296256592921
    vertex -346.169841755749 342.480812706551 32.8296256591105
    vertex -346.169841755749 337.480812706551 32.8296256591105
  endloop
endfacet
facet normal 1.0 -9.2148511043888e-015 -5.44121296403379e-012
  outer loop
    vertex -346.169841755749 342.480812706551 32.8296256591105
    vertex -346.16984175582 337.480812706802 19.8296256592921
    vertex -346.169841755819 342.480812706802 19.8296256592921
  endloop
endfacet
facet normal 1.0 0.0 -5.43647426334231e-012
  outer loop
    vertex -336.169841755839 337.480812706551 32.8296256590561
    vertex -336.169841755774 342.480812706383 44.8296256591237
    vertex -336.169841755774 337.480812706384 44.8296256590561
  endloop
endfacet
facet normal 1.0 0.0 -5.43647426334231e-012
  outer loop
    vertex -336.169841755774 342.480812706383 44.8296256591237
    vertex -336.169841755839 337.480812706551 32.8296256590561
    vertex -336.169841755839 342.480812706551 32.8296256590561
  endloop
endfacet
facet normal -5.44263457418669e-012 0.0 -1.0
  outer loop
    vertex -336.169841755839 342.480812706551 32.8296256590561
    vertex -346.169841755749 337.480812706551 32.8296256591105
    vertex -346.169841755749 342.480812706551 32.8296256591105
  endloop
endfacet
facet normal -5.44263457418669e-012 0.0 -1.0
  outer loop
    vertex -346.169841755749 337.480812706551 32.8296256591105
    vertex -336.169841755839 342.480812706551 32.8296256590561
    vertex -336.169841755839 337.480812706551 32.8296256590561
  endloop
endfacet
facet normal 5.44263457418675e-012 -1.35118716571014e-011 1.0
  outer loop
    vertex -336.169841755774 337.480812706384 44.8296256590561
    vertex -346.169841755683 342.480812706383 44.8296256591781
    vertex -346.169841755683 337.480812706384 44.8296256591105
  endloop
endfacet
facet normal 5.44263457418675e-012 -1.35118716571014e-011 1.0
  outer loop
    vertex -346.169841755683 342.480812706383 44.8296256591781
    vertex -336.169841755774 337.480812706384 44.8296256590561
    vertex -336.169841755774 342.480812706383 44.8296256591237
  endloop
endfacet
facet normal 4.55191440096314e-015 -1.0 -6.74361520695652e-012
  outer loop
    vertex -336.169841755885 337.480812706883 7.82962565923765
    vertex -341.04043223346 337.480812706841 13.346662746009
    vertex -341.169841756011 337.480812706842 13.3296256591538
  endloop
endfacet
facet normal 4.55191440096314e-015 -1.0 -6.74361520695652e-012
  outer loop
    vertex -341.04043223346 337.480812706841 13.346662746009
    vertex -336.169841755885 337.480812706883 7.82962565923765
    vertex -340.919841756011 337.48081270684 13.3966129572611
  endloop
endfacet
facet normal 4.55191440096314e-015 -1.0 -6.74361520695652e-012
  outer loop
    vertex -340.919841756011 337.48081270684 13.3966129572611
    vertex -336.169841755885 337.480812706883 7.82962565923765
    vertex -340.816288365417 337.480812706839 13.4760722685599
  endloop
endfacet
facet normal 4.55191440096314e-015 -1.0 -6.74361520695652e-012
  outer loop
    vertex -340.816288365417 337.480812706839 13.4760722685599
    vertex -336.169841755885 337.480812706883 7.82962565923765
    vertex -340.736829054118 337.480812706838 13.579625659153
  endloop
endfacet
facet normal 4.55191440096314e-015 -1.0 -6.74361520695652e-012
  outer loop
    vertex -340.736829054118 337.480812706838 13.579625659153
    vertex -336.169841755885 337.480812706883 7.82962565923765
    vertex -336.16984175582 337.480812706802 19.8296256592376
  endloop
endfacet
facet normal 4.55191440096314e-015 -1.0 -6.74361520695652e-012
  outer loop
    vertex -340.736829054118 337.480812706838 13.579625659153
    vertex -336.16984175582 337.480812706802 19.8296256592376
    vertex -340.686878842866 337.480812706838 13.7002161366016
  endloop
endfacet
facet normal 4.55191440096314e-015 -1.0 -6.74361520695652e-012
  outer loop
    vertex -340.686878842866 337.480812706838 13.7002161366016
    vertex -336.16984175582 337.480812706802 19.8296256592376
    vertex -340.66984175601 337.480812706837 13.8296256591528
  endloop
endfacet
facet normal 4.55191440096314e-015 -1.0 -6.74361520695652e-012
  outer loop
    vertex -340.66984175601 337.480812706837 13.8296256591528
    vertex -336.16984175582 337.480812706802 19.8296256592376
    vertex -340.686878842865 337.480812706837 13.9590351817041
  endloop
endfacet
facet normal 4.55191440096314e-015 -1.0 -6.74361520695652e-012
  outer loop
    vertex -340.686878842865 337.480812706837 13.9590351817041
    vertex -336.16984175582 337.480812706802 19.8296256592376
    vertex -340.736829054117 337.480812706837 14.079625659153
  endloop
endfacet
facet normal 4.55191440096314e-015 -1.0 -6.74361520695652e-012
  outer loop
    vertex -340.736829054117 337.480812706837 14.079625659153
    vertex -336.16984175582 337.480812706802 19.8296256592376
    vertex -340.816288365416 337.480812706837 14.1831790497464
  endloop
endfacet
facet normal 4.55191440096314e-015 -1.0 -6.74361520695652e-012
  outer loop
    vertex -340.816288365416 337.480812706837 14.1831790497464
    vertex -336.16984175582 337.480812706802 19.8296256592376
    vertex -340.919841756009 337.480812706838 14.2626383610455
  endloop
endfacet
facet normal 4.55191440096314e-015 -1.0 -6.74361520695652e-012
  outer loop
    vertex -340.919841756009 337.480812706838 14.2626383610455
    vertex -336.16984175582 337.480812706802 19.8296256592376
    vertex -341.040432233458 337.480812706838 14.3125885722981
  endloop
endfacet
facet normal 4.55191440096314e-015 -1.0 -6.74361520695652e-012
  outer loop
    vertex -341.040432233458 337.480812706838 14.3125885722981
    vertex -336.16984175582 337.480812706802 19.8296256592376
    vertex -341.169841756009 337.480812706839 14.3296256591538
  endloop
endfacet
facet normal 4.55191440096314e-015 -1.0 -6.74361520695652e-012
  outer loop
    vertex -346.169841756064 337.480812706883 7.82962565917043
    vertex -341.602854457903 337.480812706843 13.5796256591546
    vertex -346.16984175582 337.480812706802 19.8296256592921
  endloop
endfacet
facet normal 4.55191440096314e-015 -1.0 -6.74361520695652e-012
  outer loop
    vertex -341.602854457903 337.480812706843 13.5796256591546
    vertex -346.169841756064 337.480812706883 7.82962565917043
    vertex -341.523395146604 337.480812706843 13.4760722685612
  endloop
endfacet
facet normal 4.55191440096314e-015 -1.0 -6.74361520695652e-012
  outer loop
    vertex -341.523395146604 337.480812706843 13.4760722685612
    vertex -346.169841756064 337.480812706883 7.82962565917043
    vertex -336.169841755885 337.480812706883 7.82962565923765
  endloop
endfacet
facet normal 4.55191440096314e-015 -1.0 -6.74361520695652e-012
  outer loop
    vertex -341.523395146604 337.480812706843 13.4760722685612
    vertex -336.169841755885 337.480812706883 7.82962565923765
    vertex -341.419841756011 337.480812706843 13.3966129572621
  endloop
endfacet
facet normal 4.55191440096314e-015 -1.0 -6.74361520695652e-012
  outer loop
    vertex -341.419841756011 337.480812706843 13.3966129572621
    vertex -336.169841755885 337.480812706883 7.82962565923765
    vertex -341.299251278562 337.480812706842 13.3466627460095
  endloop
endfacet
facet normal 4.55191440096314e-015 -1.0 -6.74361520695652e-012
  outer loop
    vertex -341.299251278562 337.480812706842 13.3466627460095
    vertex -336.169841755885 337.480812706883 7.82962565923765
    vertex -341.169841756011 337.480812706842 13.3296256591538
  endloop
endfacet
facet normal 4.55191440096314e-015 -1.0 -6.74361520695652e-012
  outer loop
    vertex -346.16984175582 337.480812706802 19.8296256592921
    vertex -341.602854457903 337.480812706843 13.5796256591546
    vertex -341.652804669155 337.480812706844 13.7002161366035
  endloop
endfacet
facet normal 4.55191440096314e-015 -1.0 -6.74361520695652e-012
  outer loop
    vertex -346.16984175582 337.480812706802 19.8296256592921
    vertex -341.652804669155 337.480812706844 13.7002161366035
    vertex -341.66984175601 337.480812706843 13.8296256591548
  endloop
endfacet
facet normal 4.55191440096314e-015 -1.0 -6.74361520695652e-012
  outer loop
    vertex -346.16984175582 337.480812706802 19.8296256592921
    vertex -341.66984175601 337.480812706843 13.8296256591548
    vertex -341.652804669154 337.480812706843 13.959035181706
  endloop
endfacet
facet normal 4.55191440096314e-015 -1.0 -6.74361520695652e-012
  outer loop
    vertex -346.16984175582 337.480812706802 19.8296256592921
    vertex -341.652804669154 337.480812706843 13.959035181706
    vertex -341.602854457902 337.480812706842 14.0796256591546
  endloop
endfacet
facet normal 4.55191440096314e-015 -1.0 -6.74361520695652e-012
  outer loop
    vertex -346.16984175582 337.480812706802 19.8296256592921
    vertex -341.602854457902 337.480812706842 14.0796256591546
    vertex -341.523395146603 337.480812706841 14.1831790497478
  endloop
endfacet
facet normal 4.55191440096314e-015 -1.0 -6.74361520695652e-012
  outer loop
    vertex -346.16984175582 337.480812706802 19.8296256592921
    vertex -341.523395146603 337.480812706841 14.1831790497478
    vertex -341.419841756009 337.48081270684 14.2626383610465
  endloop
endfacet
facet normal 4.55191440096314e-015 -1.0 -6.74361520695652e-012
  outer loop
    vertex -346.16984175582 337.480812706802 19.8296256592921
    vertex -341.419841756009 337.48081270684 14.2626383610465
    vertex -341.29925127856 337.48081270684 14.3125885722986
  endloop
endfacet
facet normal 4.55191440096314e-015 -1.0 -6.74361520695652e-012
  outer loop
    vertex -346.16984175582 337.480812706802 19.8296256592921
    vertex -341.29925127856 337.48081270684 14.3125885722986
    vertex -341.169841756009 337.480812706839 14.3296256591538
  endloop
endfacet
facet normal 4.55191440096314e-015 -1.0 -6.74361520695652e-012
  outer loop
    vertex -346.16984175582 337.480812706802 19.8296256592921
    vertex -341.169841756009 337.480812706839 14.3296256591538
    vertex -336.16984175582 337.480812706802 19.8296256592376
  endloop
endfacet
facet normal 0.0 -1.0 -1.39627294023133e-011
  outer loop
    vertex -336.169841755839 337.480812706551 32.8296256590561
    vertex -340.816288365371 337.480812706507 38.4760722683783
    vertex -346.169841755749 337.480812706551 32.8296256591105
  endloop
endfacet
facet normal 0.0 -1.0 -1.39627294023133e-011
  outer loop
    vertex -340.816288365371 337.480812706507 38.4760722683783
    vertex -336.169841755839 337.480812706551 32.8296256590561
    vertex -340.736829054072 337.480812706506 38.5796256589714
  endloop
endfacet
facet normal 0.0 -1.0 -1.39627294023133e-011
  outer loop
    vertex -340.736829054072 337.480812706506 38.5796256589714
    vertex -336.169841755839 337.480812706551 32.8296256590561
    vertex -336.169841755774 337.480812706384 44.8296256590561
  endloop
endfacet
facet normal 0.0 -1.0 -1.39627294023133e-011
  outer loop
    vertex -346.169841755749 337.480812706551 32.8296256591105
    vertex -340.816288365371 337.480812706507 38.4760722683783
    vertex -340.919841755965 337.480812706508 38.3966129570796
  endloop
endfacet
facet normal 0.0 -1.0 -1.39627294023133e-011
  outer loop
    vertex -346.169841755749 337.480812706551 32.8296256591105
    vertex -340.919841755965 337.480812706508 38.3966129570796
    vertex -341.040432233414 337.480812706509 38.3466627458275
  endloop
endfacet
facet normal 0.0 -1.0 -1.39627294023133e-011
  outer loop
    vertex -346.169841755749 337.480812706551 32.8296256591105
    vertex -341.040432233414 337.480812706509 38.3466627458275
    vertex -341.169841755965 337.480812706509 38.3296256589723
  endloop
endfacet
facet normal 0.0 -1.0 -1.39627294023133e-011
  outer loop
    vertex -340.736829054072 337.480812706506 38.5796256589714
    vertex -336.169841755774 337.480812706384 44.8296256590561
    vertex -340.68687884282 337.480812706505 38.7002161364201
  endloop
endfacet
facet normal 0.0 -1.0 -1.39627294023133e-011
  outer loop
    vertex -340.68687884282 337.480812706505 38.7002161364201
    vertex -336.169841755774 337.480812706384 44.8296256590561
    vertex -340.669841755964 337.480812706505 38.8296256589713
  endloop
endfacet
facet normal 0.0 -1.0 -1.39627294023133e-011
  outer loop
    vertex -340.669841755964 337.480812706505 38.8296256589713
    vertex -336.169841755774 337.480812706384 44.8296256590561
    vertex -340.68687884282 337.480812706505 38.9590351815226
  endloop
endfacet
facet normal 0.0 -1.0 -1.39627294023133e-011
  outer loop
    vertex -340.68687884282 337.480812706505 38.9590351815226
    vertex -336.169841755774 337.480812706384 44.8296256590561
    vertex -340.736829054071 337.480812706505 39.0796256589714
  endloop
endfacet
facet normal 0.0 -1.0 -1.39627294023133e-011
  outer loop
    vertex -340.736829054071 337.480812706505 39.0796256589714
    vertex -336.169841755774 337.480812706384 44.8296256590561
    vertex -340.81628836537 337.480812706505 39.1831790495649
  endloop
endfacet
facet normal 0.0 -1.0 -1.39627294023133e-011
  outer loop
    vertex -340.81628836537 337.480812706505 39.1831790495649
    vertex -336.169841755774 337.480812706384 44.8296256590561
    vertex -340.919841755963 337.480812706505 39.262638360864
  endloop
endfacet
facet normal 0.0 -1.0 -1.39627294023133e-011
  outer loop
    vertex -340.919841755963 337.480812706505 39.262638360864
    vertex -336.169841755774 337.480812706384 44.8296256590561
    vertex -341.040432233412 337.480812706506 39.3125885721166
  endloop
endfacet
facet normal 0.0 -1.0 -1.39627294023133e-011
  outer loop
    vertex -341.040432233412 337.480812706506 39.3125885721166
    vertex -336.169841755774 337.480812706384 44.8296256590561
    vertex -341.169841755963 337.480812706507 39.3296256589723
  endloop
endfacet
facet normal 0.0 -1.0 -1.39627294023133e-011
  outer loop
    vertex -346.169841755749 337.480812706551 32.8296256591105
    vertex -341.602854457857 337.480812706511 38.5796256589731
    vertex -346.169841755683 337.480812706384 44.8296256591105
  endloop
endfacet
facet normal 0.0 -1.0 -1.39627294023133e-011
  outer loop
    vertex -341.602854457857 337.480812706511 38.5796256589731
    vertex -346.169841755749 337.480812706551 32.8296256591105
    vertex -341.523395146558 337.480812706511 38.4760722683797
  endloop
endfacet
facet normal 0.0 -1.0 -1.39627294023133e-011
  outer loop
    vertex -341.523395146558 337.480812706511 38.4760722683797
    vertex -346.169841755749 337.480812706551 32.8296256591105
    vertex -341.419841755965 337.480812706511 38.3966129570805
  endloop
endfacet
facet normal 0.0 -1.0 -1.39627294023133e-011
  outer loop
    vertex -341.419841755965 337.480812706511 38.3966129570805
    vertex -346.169841755749 337.480812706551 32.8296256591105
    vertex -341.299251278516 337.48081270651 38.346662745828
  endloop
endfacet
facet normal 0.0 -1.0 -1.39627294023133e-011
  outer loop
    vertex -341.299251278516 337.48081270651 38.346662745828
    vertex -346.169841755749 337.480812706551 32.8296256591105
    vertex -341.169841755965 337.480812706509 38.3296256589723
  endloop
endfacet
facet normal 0.0 -1.0 -1.39627294023133e-011
  outer loop
    vertex -346.169841755683 337.480812706384 44.8296256591105
    vertex -341.602854457857 337.480812706511 38.5796256589731
    vertex -341.652804669109 337.480812706511 38.7002161364219
  endloop
endfacet
facet normal 0.0 -1.0 -1.39627294023133e-011
  outer loop
    vertex -346.169841755683 337.480812706384 44.8296256591105
    vertex -341.652804669109 337.480812706511 38.7002161364219
    vertex -341.669841755964 337.480812706511 38.8296256589732
  endloop
endfacet
facet normal 0.0 -1.0 -1.39627294023133e-011
  outer loop
    vertex -346.169841755683 337.480812706384 44.8296256591105
    vertex -341.669841755964 337.480812706511 38.8296256589732
    vertex -341.652804669109 337.480812706511 38.9590351815245
  endloop
endfacet
facet normal 0.0 -1.0 -1.39627294023133e-011
  outer loop
    vertex -346.169841755683 337.480812706384 44.8296256591105
    vertex -341.652804669109 337.480812706511 38.9590351815245
    vertex -341.602854457856 337.48081270651 39.0796256589731
  endloop
endfacet
facet normal 0.0 -1.0 -1.39627294023133e-011
  outer loop
    vertex -346.169841755683 337.480812706384 44.8296256591105
    vertex -341.602854457856 337.48081270651 39.0796256589731
    vertex -341.523395146557 337.480812706509 39.1831790495662
  endloop
endfacet
facet normal 0.0 -1.0 -1.39627294023133e-011
  outer loop
    vertex -346.169841755683 337.480812706384 44.8296256591105
    vertex -341.523395146557 337.480812706509 39.1831790495662
    vertex -341.419841755963 337.480812706508 39.262638360865
  endloop
endfacet
facet normal 0.0 -1.0 -1.39627294023133e-011
  outer loop
    vertex -346.169841755683 337.480812706384 44.8296256591105
    vertex -341.419841755963 337.480812706508 39.262638360865
    vertex -341.299251278514 337.480812706507 39.3125885721171
  endloop
endfacet
facet normal 0.0 -1.0 -1.39627294023133e-011
  outer loop
    vertex -346.169841755683 337.480812706384 44.8296256591105
    vertex -341.299251278514 337.480812706507 39.3125885721171
    vertex -341.169841755963 337.480812706507 39.3296256589723
  endloop
endfacet
facet normal 0.0 -1.0 -1.39627294023133e-011
  outer loop
    vertex -346.169841755683 337.480812706384 44.8296256591105
    vertex -341.169841755963 337.480812706507 39.3296256589723
    vertex -336.169841755774 337.480812706384 44.8296256590561
  endloop
endfacet
facet normal -0.793353340291278 6.28996854601382e-012 -0.608761429008664
  outer loop
    vertex -340.816288365416 337.480812706837 14.1831790497464
    vertex -340.736829054089 342.480812706873 14.0796256591666
    vertex -340.736829054117 337.480812706837 14.079625659153
  endloop
endfacet
facet normal -0.793353340291278 6.28996854601382e-012 -0.608761429008664
  outer loop
    vertex -340.736829054089 342.480812706873 14.0796256591666
    vertex -340.816288365416 337.480812706837 14.1831790497464
    vertex -340.816288365388 342.480812706873 14.18317904976
  endloop
endfacet
facet normal -0.608761429011674 5.71487301925799e-012 -0.793353340288969
  outer loop
    vertex -340.91984175598 342.480812706873 14.2626383610591
    vertex -340.816288365416 337.480812706837 14.1831790497464
    vertex -340.919841756009 337.480812706838 14.2626383610455
  endloop
endfacet
facet normal -0.608761429011674 5.71487301925799e-012 -0.793353340288969
  outer loop
    vertex -340.816288365416 337.480812706837 14.1831790497464
    vertex -340.91984175598 342.480812706873 14.2626383610591
    vertex -340.816288365388 342.480812706873 14.18317904976
  endloop
endfacet
facet normal -0.382683432366125 4.75047778891735e-012 -0.923879532510858
  outer loop
    vertex -341.040432233429 342.480812706874 14.3125885723117
    vertex -340.919841756009 337.480812706838 14.2626383610455
    vertex -341.040432233458 337.480812706838 14.3125885722981
  endloop
endfacet
facet normal -0.382683432366125 4.75047778891735e-012 -0.923879532510858
  outer loop
    vertex -340.919841756009 337.480812706838 14.2626383610455
    vertex -341.040432233429 342.480812706874 14.3125885723117
    vertex -340.91984175598 342.480812706873 14.2626383610591
  endloop
endfacet
facet normal -0.130526192221989 3.46223050229355e-012 -0.991444861373555
  outer loop
    vertex -341.16984175598 342.480812706874 14.3296256591674
    vertex -341.040432233458 337.480812706838 14.3125885722981
    vertex -341.169841756009 337.480812706839 14.3296256591538
  endloop
endfacet
facet normal -0.130526192221989 3.46223050229355e-012 -0.991444861373555
  outer loop
    vertex -341.040432233458 337.480812706838 14.3125885722981
    vertex -341.16984175598 342.480812706874 14.3296256591674
    vertex -341.040432233429 342.480812706874 14.3125885723117
  endloop
endfacet
facet normal 0.130526192218249 1.9380608229369e-012 -0.991444861374048
  outer loop
    vertex -341.299251278532 342.480812706875 14.3125885723122
    vertex -341.169841756009 337.480812706839 14.3296256591538
    vertex -341.29925127856 337.48081270684 14.3125885722986
  endloop
endfacet
facet normal 0.130526192218249 1.9380608229369e-012 -0.991444861374048
  outer loop
    vertex -341.169841756009 337.480812706839 14.3296256591538
    vertex -341.299251278532 342.480812706875 14.3125885723122
    vertex -341.16984175598 342.480812706874 14.3296256591674
  endloop
endfacet
facet normal 0.382683432363567 2.81830114801096e-013 -0.923879532511918
  outer loop
    vertex -341.41984175598 342.480812706876 14.2626383610601
    vertex -341.29925127856 337.48081270684 14.3125885722986
    vertex -341.419841756009 337.48081270684 14.2626383610465
  endloop
endfacet
facet normal 0.382683432363567 2.81830114801096e-013 -0.923879532511918
  outer loop
    vertex -341.29925127856 337.48081270684 14.3125885722986
    vertex -341.41984175598 342.480812706876 14.2626383610601
    vertex -341.299251278532 342.480812706875 14.3125885723122
  endloop
endfacet
facet normal 0.608761429005964 -1.39366296281196e-012 -0.79335334029335
  outer loop
    vertex -341.523395146574 342.480812706877 14.1831790497614
    vertex -341.419841756009 337.48081270684 14.2626383610465
    vertex -341.523395146603 337.480812706841 14.1831790497478
  endloop
endfacet
facet normal 0.608761429005964 -1.39366296281196e-012 -0.79335334029335
  outer loop
    vertex -341.419841756009 337.48081270684 14.2626383610465
    vertex -341.523395146574 342.480812706877 14.1831790497614
    vertex -341.41984175598 342.480812706876 14.2626383610601
  endloop
endfacet
facet normal 0.793353340291419 -2.97406543836587e-012 -0.608761429008482
  outer loop
    vertex -341.602854457902 337.480812706842 14.0796256591546
    vertex -341.523395146574 342.480812706877 14.1831790497614
    vertex -341.523395146603 337.480812706841 14.1831790497478
  endloop
endfacet
facet normal 0.793353340291419 -2.97406543836587e-012 -0.608761429008482
  outer loop
    vertex -341.523395146574 342.480812706877 14.1831790497614
    vertex -341.602854457902 337.480812706842 14.0796256591546
    vertex -341.602854457873 342.480812706878 14.0796256591682
  endloop
endfacet
facet normal 0.92387953250964 -4.35185221192569e-012 -0.382683432369066
  outer loop
    vertex -341.652804669154 337.480812706843 13.959035181706
    vertex -341.602854457873 342.480812706878 14.0796256591682
    vertex -341.602854457902 337.480812706842 14.0796256591546
  endloop
endfacet
facet normal 0.92387953250964 -4.35185221192569e-012 -0.382683432369066
  outer loop
    vertex -341.602854457873 342.480812706878 14.0796256591682
    vertex -341.652804669154 337.480812706843 13.959035181706
    vertex -341.652804669126 342.480812706878 13.9590351817196
  endloop
endfacet
facet normal 0.991444861373737 -5.43315392675936e-012 -0.130526192220612
  outer loop
    vertex -341.66984175601 337.480812706843 13.8296256591548
    vertex -341.652804669126 342.480812706878 13.9590351817196
    vertex -341.652804669154 337.480812706843 13.959035181706
  endloop
endfacet
facet normal 0.991444861373737 -5.43315392675936e-012 -0.130526192220612
  outer loop
    vertex -341.652804669126 342.480812706878 13.9590351817196
    vertex -341.66984175601 337.480812706843 13.8296256591548
    vertex -341.669841755981 342.480812706879 13.8296256591684
  endloop
endfacet
facet normal 0.991444861374204 -6.14402972942685e-012 0.130526192217064
  outer loop
    vertex -341.652804669155 337.480812706844 13.7002161366035
    vertex -341.669841755981 342.480812706879 13.8296256591684
    vertex -341.66984175601 337.480812706843 13.8296256591548
  endloop
endfacet
facet normal 0.991444861374204 -6.14402972942685e-012 0.130526192217064
  outer loop
    vertex -341.669841755981 342.480812706879 13.8296256591684
    vertex -341.652804669155 337.480812706844 13.7002161366035
    vertex -341.652804669126 342.480812706879 13.7002161366171
  endloop
endfacet
facet normal 0.923879532511355 -6.43624042950819e-012 0.382683432364925
  outer loop
    vertex -341.602854457874 342.480812706879 13.5796256591683
    vertex -341.652804669155 337.480812706844 13.7002161366035
    vertex -341.602854457903 337.480812706843 13.5796256591546
  endloop
endfacet
facet normal 0.923879532511355 -6.43624042950819e-012 0.382683432364925
  outer loop
    vertex -341.652804669155 337.480812706844 13.7002161366035
    vertex -341.602854457874 342.480812706879 13.5796256591683
    vertex -341.652804669126 342.480812706879 13.7002161366171
  endloop
endfacet
facet normal 0.793353340292288 -6.28996854601382e-012 0.608761429007349
  outer loop
    vertex -341.523395146575 342.480812706879 13.4760722685748
    vertex -341.602854457903 337.480812706843 13.5796256591546
    vertex -341.523395146604 337.480812706843 13.4760722685612
  endloop
endfacet
facet normal 0.793353340292288 -6.28996854601382e-012 0.608761429007349
  outer loop
    vertex -341.602854457903 337.480812706843 13.5796256591546
    vertex -341.523395146575 342.480812706879 13.4760722685748
    vertex -341.602854457874 342.480812706879 13.5796256591683
  endloop
endfacet
facet normal 0.608761429010649 -5.71487301925799e-012 0.793353340289756
  outer loop
    vertex -341.419841756011 337.480812706843 13.3966129572621
    vertex -341.523395146575 342.480812706879 13.4760722685748
    vertex -341.523395146604 337.480812706843 13.4760722685612
  endloop
endfacet
facet normal 0.608761429010649 -5.71487301925799e-012 0.793353340289756
  outer loop
    vertex -341.523395146575 342.480812706879 13.4760722685748
    vertex -341.419841756011 337.480812706843 13.3966129572621
    vertex -341.419841755982 342.480812706878 13.3966129572757
  endloop
endfacet
facet normal 0.382683432367126 -4.75047778891735e-012 0.923879532510443
  outer loop
    vertex -341.299251278562 337.480812706842 13.3466627460095
    vertex -341.419841755982 342.480812706878 13.3966129572757
    vertex -341.419841756011 337.480812706843 13.3966129572621
  endloop
endfacet
facet normal 0.382683432367126 -4.75047778891735e-012 0.923879532510443
  outer loop
    vertex -341.419841755982 342.480812706878 13.3966129572757
    vertex -341.299251278562 337.480812706842 13.3466627460095
    vertex -341.299251278534 342.480812706878 13.3466627460231
  endloop
endfacet
facet normal 0.130526192222081 -3.46223050229355e-012 0.991444861373543
  outer loop
    vertex -341.169841756011 337.480812706842 13.3296256591538
    vertex -341.299251278534 342.480812706878 13.3466627460231
    vertex -341.299251278562 337.480812706842 13.3466627460095
  endloop
endfacet
facet normal 0.130526192222081 -3.46223050229355e-012 0.991444861373543
  outer loop
    vertex -341.299251278534 342.480812706878 13.3466627460231
    vertex -341.169841756011 337.480812706842 13.3296256591538
    vertex -341.169841755982 342.480812706877 13.3296256591674
  endloop
endfacet
facet normal -0.130526192218022 -1.9380608229369e-012 0.991444861374078
  outer loop
    vertex -341.04043223346 337.480812706841 13.346662746009
    vertex -341.169841755982 342.480812706877 13.3296256591674
    vertex -341.169841756011 337.480812706842 13.3296256591538
  endloop
endfacet
facet normal -0.130526192218022 -1.9380608229369e-012 0.991444861374078
  outer loop
    vertex -341.169841755982 342.480812706877 13.3296256591674
    vertex -341.04043223346 337.480812706841 13.346662746009
    vertex -341.040432233431 342.480812706877 13.3466627460226
  endloop
endfacet
facet normal -0.382683432363316 -2.8180235922548e-013 0.923879532512021
  outer loop
    vertex -340.919841756011 337.48081270684 13.3966129572611
    vertex -341.040432233431 342.480812706877 13.3466627460226
    vertex -341.04043223346 337.480812706841 13.346662746009
  endloop
endfacet
facet normal -0.382683432363316 -2.8180235922548e-013 0.923879532512021
  outer loop
    vertex -341.040432233431 342.480812706877 13.3466627460226
    vertex -340.919841756011 337.48081270684 13.3966129572611
    vertex -340.919841755982 342.480812706876 13.3966129572747
  endloop
endfacet
facet normal -0.608761429005992 1.39366296281196e-012 0.793353340293329
  outer loop
    vertex -340.816288365417 337.480812706839 13.4760722685599
    vertex -340.919841755982 342.480812706876 13.3966129572747
    vertex -340.919841756011 337.48081270684 13.3966129572611
  endloop
endfacet
facet normal -0.608761429005992 1.39366296281196e-012 0.793353340293329
  outer loop
    vertex -340.919841755982 342.480812706876 13.3966129572747
    vertex -340.816288365417 337.480812706839 13.4760722685599
    vertex -340.816288365388 342.480812706875 13.4760722685735
  endloop
endfacet
facet normal -0.793353340290051 2.9741209495171e-012 0.608761429010264
  outer loop
    vertex -340.736829054089 342.480812706874 13.5796256591666
    vertex -340.816288365417 337.480812706839 13.4760722685599
    vertex -340.736829054118 337.480812706838 13.579625659153
  endloop
endfacet
facet normal -0.793353340290051 2.9741209495171e-012 0.608761429010264
  outer loop
    vertex -340.816288365417 337.480812706839 13.4760722685599
    vertex -340.736829054089 342.480812706874 13.5796256591666
    vertex -340.816288365388 342.480812706875 13.4760722685735
  endloop
endfacet
facet normal -0.923879532510641 4.35185221192569e-012 0.382683432366649
  outer loop
    vertex -340.686878842837 342.480812706873 13.7002161366152
    vertex -340.736829054118 337.480812706838 13.579625659153
    vertex -340.686878842866 337.480812706838 13.7002161366016
  endloop
endfacet
facet normal -0.923879532510641 4.35185221192569e-012 0.382683432366649
  outer loop
    vertex -340.736829054118 337.480812706838 13.579625659153
    vertex -340.686878842837 342.480812706873 13.7002161366152
    vertex -340.736829054089 342.480812706874 13.5796256591666
  endloop
endfacet
facet normal -0.991444861373645 5.43315392675936e-012 0.130526192221308
  outer loop
    vertex -340.669841755981 342.480812706873 13.8296256591664
    vertex -340.686878842866 337.480812706838 13.7002161366016
    vertex -340.66984175601 337.480812706837 13.8296256591528
  endloop
endfacet
facet normal -0.991444861373645 5.43315392675936e-012 0.130526192221308
  outer loop
    vertex -340.686878842866 337.480812706838 13.7002161366016
    vertex -340.669841755981 342.480812706873 13.8296256591664
    vertex -340.686878842837 342.480812706873 13.7002161366152
  endloop
endfacet
facet normal -0.991444861373745 6.14402972942685e-012 -0.130526192220549
  outer loop
    vertex -340.686878842837 342.480812706873 13.9590351817177
    vertex -340.66984175601 337.480812706837 13.8296256591528
    vertex -340.686878842865 337.480812706837 13.9590351817041
  endloop
endfacet
facet normal -0.991444861373745 6.14402972942685e-012 -0.130526192220549
  outer loop
    vertex -340.66984175601 337.480812706837 13.8296256591528
    vertex -340.686878842837 342.480812706873 13.9590351817177
    vertex -340.669841755981 342.480812706873 13.8296256591664
  endloop
endfacet
facet normal -0.923879532512857 6.43624042950819e-012 -0.382683432361299
  outer loop
    vertex -340.736829054089 342.480812706873 14.0796256591666
    vertex -340.686878842865 337.480812706837 13.9590351817041
    vertex -340.736829054117 337.480812706837 14.079625659153
  endloop
endfacet
facet normal -0.923879532512857 6.43624042950819e-012 -0.382683432361299
  outer loop
    vertex -340.686878842865 337.480812706837 13.9590351817041
    vertex -340.736829054089 342.480812706873 14.0796256591666
    vertex -340.686878842837 342.480812706873 13.9590351817177
  endloop
endfacet
facet normal -0.793353340291278 6.28996854601382e-012 -0.608761429008664
  outer loop
    vertex -340.81628836537 337.480812706505 39.1831790495649
    vertex -340.736829054042 342.480812706561 39.079625658985
    vertex -340.736829054071 337.480812706505 39.0796256589714
  endloop
endfacet
facet normal -0.793353340291278 6.28996854601382e-012 -0.608761429008664
  outer loop
    vertex -340.736829054042 342.480812706561 39.079625658985
    vertex -340.81628836537 337.480812706505 39.1831790495649
    vertex -340.816288365341 342.480812706561 39.1831790495785
  endloop
endfacet
facet normal -0.608761429011674 5.71487301925799e-012 -0.793353340288969
  outer loop
    vertex -340.919841755934 342.480812706561 39.2626383608776
    vertex -340.81628836537 337.480812706505 39.1831790495649
    vertex -340.919841755963 337.480812706505 39.262638360864
  endloop
endfacet
facet normal -0.608761429011674 5.71487301925799e-012 -0.793353340288969
  outer loop
    vertex -340.81628836537 337.480812706505 39.1831790495649
    vertex -340.919841755934 342.480812706561 39.2626383608776
    vertex -340.816288365341 342.480812706561 39.1831790495785
  endloop
endfacet
facet normal -0.382683432366125 4.75047778891735e-012 -0.923879532510858
  outer loop
    vertex -341.040432233383 342.480812706562 39.3125885721302
    vertex -340.919841755963 337.480812706505 39.262638360864
    vertex -341.040432233412 337.480812706506 39.3125885721166
  endloop
endfacet
facet normal -0.382683432366125 4.75047778891735e-012 -0.923879532510858
  outer loop
    vertex -340.919841755963 337.480812706505 39.262638360864
    vertex -341.040432233383 342.480812706562 39.3125885721302
    vertex -340.919841755934 342.480812706561 39.2626383608776
  endloop
endfacet
facet normal -0.130526192221946 3.46223050229355e-012 -0.991444861373561
  outer loop
    vertex -341.169841755934 342.480812706563 39.3296256589859
    vertex -341.040432233412 337.480812706506 39.3125885721166
    vertex -341.169841755963 337.480812706507 39.3296256589723
  endloop
endfacet
facet normal -0.130526192221946 3.46223050229355e-012 -0.991444861373561
  outer loop
    vertex -341.040432233412 337.480812706506 39.3125885721166
    vertex -341.169841755934 342.480812706563 39.3296256589859
    vertex -341.040432233383 342.480812706562 39.3125885721302
  endloop
endfacet
facet normal 0.130526192218205 1.9380608229369e-012 -0.991444861374054
  outer loop
    vertex -341.299251278485 342.480812706563 39.3125885721307
    vertex -341.169841755963 337.480812706507 39.3296256589723
    vertex -341.299251278514 337.480812706507 39.3125885721171
  endloop
endfacet
facet normal 0.130526192218205 1.9380608229369e-012 -0.991444861374054
  outer loop
    vertex -341.169841755963 337.480812706507 39.3296256589723
    vertex -341.299251278485 342.480812706563 39.3125885721307
    vertex -341.169841755934 342.480812706563 39.3296256589859
  endloop
endfacet
facet normal 0.382683432363604 2.8180235922548e-013 -0.923879532511902
  outer loop
    vertex -341.419841755934 342.480812706564 39.2626383608786
    vertex -341.299251278514 337.480812706507 39.3125885721171
    vertex -341.419841755963 337.480812706508 39.262638360865
  endloop
endfacet
facet normal 0.382683432363604 2.8180235922548e-013 -0.923879532511902
  outer loop
    vertex -341.299251278514 337.480812706507 39.3125885721171
    vertex -341.419841755934 342.480812706564 39.2626383608786
    vertex -341.299251278485 342.480812706563 39.3125885721307
  endloop
endfacet
facet normal 0.608761429005964 -1.39366296281196e-012 -0.79335334029335
  outer loop
    vertex -341.523395146528 342.480812706565 39.1831790495798
    vertex -341.419841755963 337.480812706508 39.262638360865
    vertex -341.523395146557 337.480812706509 39.1831790495662
  endloop
endfacet
facet normal 0.608761429005964 -1.39366296281196e-012 -0.79335334029335
  outer loop
    vertex -341.419841755963 337.480812706508 39.262638360865
    vertex -341.523395146528 342.480812706565 39.1831790495798
    vertex -341.419841755934 342.480812706564 39.2626383608786
  endloop
endfacet
facet normal 0.793353340291419 -2.97406543836587e-012 -0.608761429008482
  outer loop
    vertex -341.602854457856 337.48081270651 39.0796256589731
    vertex -341.523395146528 342.480812706565 39.1831790495798
    vertex -341.523395146557 337.480812706509 39.1831790495662
  endloop
endfacet
facet normal 0.793353340291419 -2.97406543836587e-012 -0.608761429008482
  outer loop
    vertex -341.523395146528 342.480812706565 39.1831790495798
    vertex -341.602854457856 337.48081270651 39.0796256589731
    vertex -341.602854457826 342.480812706566 39.0796256589867
  endloop
endfacet
facet normal 0.92387953250964 -4.35185221192569e-012 -0.382683432369066
  outer loop
    vertex -341.652804669109 337.480812706511 38.9590351815245
    vertex -341.602854457826 342.480812706566 39.0796256589867
    vertex -341.602854457856 337.48081270651 39.0796256589731
  endloop
endfacet
facet normal 0.92387953250964 -4.35185221192569e-012 -0.382683432369066
  outer loop
    vertex -341.602854457826 342.480812706566 39.0796256589867
    vertex -341.652804669109 337.480812706511 38.9590351815245
    vertex -341.652804669079 342.480812706566 38.9590351815381
  endloop
endfacet
facet normal 0.991444861373736 -5.43315392675936e-012 -0.130526192220618
  outer loop
    vertex -341.669841755964 337.480812706511 38.8296256589732
    vertex -341.652804669079 342.480812706566 38.9590351815381
    vertex -341.652804669109 337.480812706511 38.9590351815245
  endloop
endfacet
facet normal 0.991444861373736 -5.43315392675936e-012 -0.130526192220618
  outer loop
    vertex -341.652804669079 342.480812706566 38.9590351815381
    vertex -341.669841755964 337.480812706511 38.8296256589732
    vertex -341.669841755935 342.480812706567 38.8296256589868
  endloop
endfacet
facet normal 0.991444861374205 -6.14402972942685e-012 0.130526192217058
  outer loop
    vertex -341.652804669109 337.480812706511 38.7002161364219
    vertex -341.669841755935 342.480812706567 38.8296256589868
    vertex -341.669841755964 337.480812706511 38.8296256589732
  endloop
endfacet
facet normal 0.991444861374205 -6.14402972942685e-012 0.130526192217058
  outer loop
    vertex -341.669841755935 342.480812706567 38.8296256589868
    vertex -341.652804669109 337.480812706511 38.7002161364219
    vertex -341.65280466908 342.480812706567 38.7002161364355
  endloop
endfacet
facet normal 0.923879532511349 -6.43624042950819e-012 0.38268343236494
  outer loop
    vertex -341.602854457827 342.480812706567 38.5796256589867
    vertex -341.652804669109 337.480812706511 38.7002161364219
    vertex -341.602854457857 337.480812706511 38.5796256589731
  endloop
endfacet
facet normal 0.923879532511349 -6.43624042950819e-012 0.38268343236494
  outer loop
    vertex -341.652804669109 337.480812706511 38.7002161364219
    vertex -341.602854457827 342.480812706567 38.5796256589867
    vertex -341.65280466908 342.480812706567 38.7002161364355
  endloop
endfacet
facet normal 0.793353340292304 -6.28985752371136e-012 0.608761429007328
  outer loop
    vertex -341.523395146529 342.480812706567 38.4760722683933
    vertex -341.602854457857 337.480812706511 38.5796256589731
    vertex -341.523395146558 337.480812706511 38.4760722683797
  endloop
endfacet
facet normal 0.793353340292304 -6.28985752371136e-012 0.608761429007328
  outer loop
    vertex -341.602854457857 337.480812706511 38.5796256589731
    vertex -341.523395146529 342.480812706567 38.4760722683933
    vertex -341.602854457827 342.480812706567 38.5796256589867
  endloop
endfacet
facet normal 0.608761429010649 -5.71487301925799e-012 0.793353340289756
  outer loop
    vertex -341.419841755965 337.480812706511 38.3966129570805
    vertex -341.523395146529 342.480812706567 38.4760722683933
    vertex -341.523395146558 337.480812706511 38.4760722683797
  endloop
endfacet
facet normal 0.608761429010649 -5.71487301925799e-012 0.793353340289756
  outer loop
    vertex -341.523395146529 342.480812706567 38.4760722683933
    vertex -341.419841755965 337.480812706511 38.3966129570805
    vertex -341.419841755936 342.480812706567 38.3966129570941
  endloop
endfacet
facet normal 0.382683432367126 -4.75047778891735e-012 0.923879532510443
  outer loop
    vertex -341.299251278516 337.48081270651 38.346662745828
    vertex -341.419841755936 342.480812706567 38.3966129570941
    vertex -341.419841755965 337.480812706511 38.3966129570805
  endloop
endfacet
facet normal 0.382683432367126 -4.75047778891735e-012 0.923879532510443
  outer loop
    vertex -341.419841755936 342.480812706567 38.3966129570941
    vertex -341.299251278516 337.48081270651 38.346662745828
    vertex -341.299251278487 342.480812706566 38.3466627458416
  endloop
endfacet
facet normal 0.130526192222037 -3.46223050229355e-012 0.991444861373549
  outer loop
    vertex -341.169841755965 337.480812706509 38.3296256589723
    vertex -341.299251278487 342.480812706566 38.3466627458416
    vertex -341.299251278516 337.48081270651 38.346662745828
  endloop
endfacet
facet normal 0.130526192222037 -3.46223050229355e-012 0.991444861373549
  outer loop
    vertex -341.299251278487 342.480812706566 38.3466627458416
    vertex -341.169841755965 337.480812706509 38.3296256589723
    vertex -341.169841755936 342.480812706565 38.3296256589859
  endloop
endfacet
facet normal -0.130526192218022 -1.9380608229369e-012 0.991444861374078
  outer loop
    vertex -341.040432233414 337.480812706509 38.3466627458275
    vertex -341.169841755936 342.480812706565 38.3296256589859
    vertex -341.169841755965 337.480812706509 38.3296256589723
  endloop
endfacet
facet normal -0.130526192218022 -1.9380608229369e-012 0.991444861374078
  outer loop
    vertex -341.169841755936 342.480812706565 38.3296256589859
    vertex -341.040432233414 337.480812706509 38.3466627458275
    vertex -341.040432233385 342.480812706565 38.3466627458411
  endloop
endfacet
facet normal -0.382683432363279 -2.81857870376712e-013 0.923879532512037
  outer loop
    vertex -340.919841755965 337.480812706508 38.3966129570796
    vertex -341.040432233385 342.480812706565 38.3466627458411
    vertex -341.040432233414 337.480812706509 38.3466627458275
  endloop
endfacet
facet normal -0.382683432363279 -2.81857870376712e-013 0.923879532512037
  outer loop
    vertex -341.040432233385 342.480812706565 38.3466627458411
    vertex -340.919841755965 337.480812706508 38.3966129570796
    vertex -340.919841755936 342.480812706564 38.3966129570932
  endloop
endfacet
facet normal -0.60876142900602 1.39366296281196e-012 0.793353340293308
  outer loop
    vertex -340.816288365371 337.480812706507 38.4760722683783
    vertex -340.919841755936 342.480812706564 38.3966129570932
    vertex -340.919841755965 337.480812706508 38.3966129570796
  endloop
endfacet
facet normal -0.60876142900602 1.39366296281196e-012 0.793353340293308
  outer loop
    vertex -340.919841755936 342.480812706564 38.3966129570932
    vertex -340.816288365371 337.480812706507 38.4760722683783
    vertex -340.816288365342 342.480812706563 38.4760722683919
  endloop
endfacet
facet normal -0.793353340290051 2.9741209495171e-012 0.608761429010264
  outer loop
    vertex -340.736829054043 342.480812706562 38.579625658985
    vertex -340.816288365371 337.480812706507 38.4760722683783
    vertex -340.736829054072 337.480812706506 38.5796256589714
  endloop
endfacet
facet normal -0.793353340290051 2.9741209495171e-012 0.608761429010264
  outer loop
    vertex -340.816288365371 337.480812706507 38.4760722683783
    vertex -340.736829054043 342.480812706562 38.579625658985
    vertex -340.816288365342 342.480812706563 38.4760722683919
  endloop
endfacet
facet normal -0.923879532510641 4.35185221192569e-012 0.382683432366649
  outer loop
    vertex -340.68687884279 342.480812706561 38.7002161364337
    vertex -340.736829054072 337.480812706506 38.5796256589714
    vertex -340.68687884282 337.480812706505 38.7002161364201
  endloop
endfacet
facet normal -0.923879532510641 4.35185221192569e-012 0.382683432366649
  outer loop
    vertex -340.736829054072 337.480812706506 38.5796256589714
    vertex -340.68687884279 342.480812706561 38.7002161364337
    vertex -340.736829054043 342.480812706562 38.579625658985
  endloop
endfacet
facet normal -0.991444861373644 5.43315392675936e-012 0.130526192221314
  outer loop
    vertex -340.669841755935 342.480812706561 38.8296256589849
    vertex -340.68687884282 337.480812706505 38.7002161364201
    vertex -340.669841755964 337.480812706505 38.8296256589713
  endloop
endfacet
facet normal -0.991444861373644 5.43315392675936e-012 0.130526192221314
  outer loop
    vertex -340.68687884282 337.480812706505 38.7002161364201
    vertex -340.669841755935 342.480812706561 38.8296256589849
    vertex -340.68687884279 342.480812706561 38.7002161364337
  endloop
endfacet
facet normal -0.991444861373745 6.14402972942685e-012 -0.130526192220549
  outer loop
    vertex -340.68687884279 342.480812706561 38.9590351815362
    vertex -340.669841755964 337.480812706505 38.8296256589713
    vertex -340.68687884282 337.480812706505 38.9590351815226
  endloop
endfacet
facet normal -0.991444861373745 6.14402972942685e-012 -0.130526192220549
  outer loop
    vertex -340.669841755964 337.480812706505 38.8296256589713
    vertex -340.68687884279 342.480812706561 38.9590351815362
    vertex -340.669841755935 342.480812706561 38.8296256589849
  endloop
endfacet
facet normal -0.923879532512863 6.43624042950819e-012 -0.382683432361283
  outer loop
    vertex -340.736829054042 342.480812706561 39.079625658985
    vertex -340.68687884282 337.480812706505 38.9590351815226
    vertex -340.736829054071 337.480812706505 39.0796256589714
  endloop
endfacet
facet normal -0.923879532512863 6.43624042950819e-012 -0.382683432361283
  outer loop
    vertex -340.68687884282 337.480812706505 38.9590351815226
    vertex -340.736829054042 342.480812706561 39.079625658985
    vertex -340.68687884279 342.480812706561 38.9590351815362
  endloop
endfacet
endsolid AuntFanny
