M48
; DRILL file {KiCad 7.0.8} date Thu Feb 22 16:09:57 2024
; FORMAT={-:-/ absolute / inch / decimal}
; #@! TF.CreationDate,2024-02-22T16:09:57-05:00
; #@! TF.GenerationSoftware,Kicad,Pcbnew,7.0.8
; #@! TF.FileFunction,Plated,1,2,PTH
FMAT,2
INCH
; #@! TA.AperFunction,Plated,PTH,ComponentDrill
T1C0.0236
; #@! TA.AperFunction,Plated,PTH,ComponentDrill
T2C0.0300
; #@! TA.AperFunction,Plated,PTH,ComponentDrill
T3C0.0315
; #@! TA.AperFunction,Plated,PTH,ComponentDrill
T4C0.0354
; #@! TA.AperFunction,Plated,PTH,ViaDrill
T5C0.0394
; #@! TA.AperFunction,Plated,PTH,ComponentDrill
T6C0.0394
; #@! TA.AperFunction,Plated,PTH,ComponentDrill
T7C0.0402
; #@! TA.AperFunction,Plated,PTH,ComponentDrill
T8C0.0433
%
G90
G05
T1
X0.11Y-0.0744
X0.11Y-0.1531
X0.11Y-0.2319
X0.11Y-0.3106
X0.11Y-0.3894
X0.11Y-0.4681
X0.11Y-0.5469
X0.11Y-0.6256
X0.79Y-0.0744
X0.79Y-0.1531
X0.79Y-0.2319
X0.79Y-0.3106
X0.79Y-0.3894
X0.79Y-0.4681
X0.79Y-0.5469
X0.79Y-0.6256
T2
X0.35Y-1.8
X0.35Y-2.5
X1.95Y-1.8
X1.95Y-2.5
X2.075Y-1.82
X2.075Y-2.18
X2.675Y-1.82
X2.675Y-2.18
T3
X0.075Y-1.8
X0.075Y-2.1
X1.4Y-0.6
X1.7Y-0.6
T4
X1.9Y-0.125
X1.9Y-0.225
X1.9Y-0.325
X1.9Y-0.425
X1.9Y-0.525
X1.9Y-0.625
X2.1Y-0.925
X2.1Y-1.525
X2.2Y-0.925
X2.2Y-1.525
X2.3Y-0.925
X2.3Y-1.525
X2.4Y-0.925
X2.4Y-1.525
X2.5Y-0.125
X2.5Y-0.225
X2.5Y-0.325
X2.5Y-0.425
X2.5Y-0.525
X2.5Y-0.625
X2.5Y-0.925
X2.5Y-1.525
X2.6Y-0.925
X2.6Y-1.525
T5
X1.3Y-0.66
T6
X0.4252Y-2.65
X0.5252Y-2.65
X0.7748Y-2.65
X0.8748Y-2.65
X1.175Y-2.65
X1.275Y-2.65
X1.575Y-2.65
X1.675Y-2.65
X2.0998Y-1.675
X2.1Y-2.325
X2.1Y-2.425
X2.1Y-2.525
X2.1998Y-0.775
X2.1998Y-1.675
X2.25Y-2.3256
X2.25Y-2.4256
X2.25Y-2.5256
X2.2998Y-0.775
X2.4Y-2.3256
X2.4Y-2.4256
X2.4Y-2.5256
X2.65Y-0.2
X2.65Y-0.3
X2.65Y-0.4498
X2.65Y-0.5498
T7
X0.5Y-0.775
X0.5Y-1.675
X0.6Y-0.775
X0.6Y-1.675
X0.7Y-0.775
X0.7Y-1.675
X0.8Y-0.775
X0.8Y-1.675
X0.9Y-0.775
X0.9Y-1.675
X1.0Y-0.775
X1.0Y-1.675
X1.1Y-0.775
X1.1Y-1.675
X1.2Y-0.775
X1.2Y-1.675
X1.3Y-0.775
X1.3Y-1.675
X1.4Y-0.775
X1.4Y-1.675
X1.5Y-0.775
X1.5Y-1.675
X1.6Y-0.775
X1.6Y-1.675
X1.7Y-0.775
X1.7Y-1.675
T8
X0.225Y-1.8
X0.225Y-2.1
T0
M30
