M48
; DRILL file {KiCad 7.0.8} date Thu Feb 22 15:26:05 2024
; FORMAT={-:-/ absolute / metric / decimal}
; #@! TF.CreationDate,2024-02-22T15:26:05-05:00
; #@! TF.GenerationSoftware,Kicad,Pcbnew,7.0.8
; #@! TF.FileFunction,Plated,1,2,PTH
FMAT,2
METRIC
; #@! TA.AperFunction,Plated,PTH,ComponentDrill
T1C0.600
; #@! TA.AperFunction,Plated,PTH,ComponentDrill
T2C0.762
; #@! TA.AperFunction,Plated,PTH,ComponentDrill
T3C0.800
; #@! TA.AperFunction,Plated,PTH,ComponentDrill
T4C0.900
; #@! TA.AperFunction,Plated,PTH,ViaDrill
T5C1.000
; #@! TA.AperFunction,Plated,PTH,ComponentDrill
T6C1.000
; #@! TA.AperFunction,Plated,PTH,ComponentDrill
T7C1.020
; #@! TA.AperFunction,Plated,PTH,ComponentDrill
T8C1.100
%
G90
G05
T1
X-67.206Y68.11
X-67.206Y66.11
X-67.206Y64.11
X-67.206Y62.11
X-67.206Y60.11
X-67.206Y58.11
X-67.206Y56.11
X-67.206Y54.11
X-49.934Y68.11
X-49.934Y66.11
X-49.934Y64.11
X-49.934Y62.11
X-49.934Y60.11
X-49.934Y58.11
X-49.934Y56.11
X-49.934Y54.11
T2
X-61.11Y24.28
X-61.11Y6.5
X-20.47Y24.28
X-20.47Y6.5
X-17.295Y23.772
X-17.295Y14.628
X-2.055Y23.772
X-2.055Y14.628
T3
X-68.095Y24.28
X-68.095Y16.66
X-34.44Y54.76
X-26.82Y54.76
T4
X-21.74Y66.825
X-21.74Y64.285
X-21.74Y61.745
X-21.74Y59.205
X-21.74Y56.665
X-21.74Y54.125
X-16.66Y46.505
X-16.66Y31.265
X-14.12Y46.505
X-14.12Y31.265
X-11.58Y46.505
X-11.58Y31.265
X-9.04Y46.505
X-9.04Y31.265
X-6.5Y66.825
X-6.5Y64.285
X-6.5Y61.745
X-6.5Y59.205
X-6.5Y56.665
X-6.5Y54.125
X-6.5Y46.505
X-6.5Y31.265
X-3.96Y46.505
X-3.96Y31.265
T5
X-36.98Y53.236
T6
X-59.2Y2.69
X-56.66Y2.69
X-50.32Y2.69
X-47.78Y2.69
X-40.155Y2.69
X-37.615Y2.69
X-29.995Y2.69
X-27.455Y2.69
X-16.665Y27.455
X-16.66Y10.945
X-16.66Y8.405
X-16.66Y5.865
X-14.125Y50.315
X-14.125Y27.455
X-12.85Y10.93
X-12.85Y8.39
X-12.85Y5.85
X-11.585Y50.315
X-9.04Y10.93
X-9.04Y8.39
X-9.04Y5.85
X-2.69Y64.92
X-2.69Y62.38
X-2.69Y58.575
X-2.69Y56.035
T7
X-57.3Y50.315
X-57.3Y27.455
X-54.76Y50.315
X-54.76Y27.455
X-52.22Y50.315
X-52.22Y27.455
X-49.68Y50.315
X-49.68Y27.455
X-47.14Y50.315
X-47.14Y27.455
X-44.6Y50.315
X-44.6Y27.455
X-42.06Y50.315
X-42.06Y27.455
X-39.52Y50.315
X-39.52Y27.455
X-36.98Y50.315
X-36.98Y27.455
X-34.44Y50.315
X-34.44Y27.455
X-31.9Y50.315
X-31.9Y27.455
X-29.36Y50.315
X-29.36Y27.455
X-26.82Y50.315
X-26.82Y27.455
T8
X-64.285Y24.28
X-64.285Y16.66
T0
M30
