%TF.GenerationSoftware,KiCad,Pcbnew,7.0.8*%
%TF.CreationDate,2024-02-22T15:26:03-05:00*%
%TF.ProjectId,Mainboard,4d61696e-626f-4617-9264-2e6b69636164,rev?*%
%TF.SameCoordinates,PXbd15c30PY8ca36b0*%
%TF.FileFunction,Copper,L2,Bot*%
%TF.FilePolarity,Positive*%
%FSLAX46Y46*%
G04 Gerber Fmt 4.6, Leading zero omitted, Abs format (unit mm)*
G04 Created by KiCad (PCBNEW 7.0.8) date 2024-02-22 15:26:03*
%MOMM*%
%LPD*%
G01*
G04 APERTURE LIST*
%TA.AperFunction,ComponentPad*%
%ADD10R,2.500000X1.000000*%
%TD*%
%TA.AperFunction,ComponentPad*%
%ADD11R,1.700000X1.700000*%
%TD*%
%TA.AperFunction,ComponentPad*%
%ADD12O,1.700000X1.700000*%
%TD*%
%TA.AperFunction,ComponentPad*%
%ADD13R,2.200000X2.200000*%
%TD*%
%TA.AperFunction,ComponentPad*%
%ADD14O,2.200000X2.200000*%
%TD*%
%TA.AperFunction,ComponentPad*%
%ADD15C,1.600000*%
%TD*%
%TA.AperFunction,ComponentPad*%
%ADD16O,1.600000X1.600000*%
%TD*%
%TA.AperFunction,ComponentPad*%
%ADD17C,1.524000*%
%TD*%
%TA.AperFunction,ComponentPad*%
%ADD18O,1.500000X2.000000*%
%TD*%
%TA.AperFunction,ViaPad*%
%ADD19C,2.000000*%
%TD*%
%TA.AperFunction,Conductor*%
%ADD20C,1.000000*%
%TD*%
%TA.AperFunction,Conductor*%
%ADD21C,0.750000*%
%TD*%
%TA.AperFunction,Conductor*%
%ADD22C,2.000000*%
%TD*%
%TA.AperFunction,Conductor*%
%ADD23C,1.500000*%
%TD*%
G04 APERTURE END LIST*
D10*
%TO.P,U4,1,RESET*%
%TO.N,/RESET*%
X-67714000Y68110000D03*
%TO.P,U4,2,DIO0*%
%TO.N,/INTER*%
X-67714000Y66110000D03*
%TO.P,U4,3,DIO1*%
%TO.N,unconnected-(U4-DIO1-Pad3)*%
X-67714000Y64110000D03*
%TO.P,U4,4,DIO2*%
%TO.N,unconnected-(U4-DIO2-Pad4)*%
X-67714000Y62110000D03*
%TO.P,U4,5,DIO3*%
%TO.N,unconnected-(U4-DIO3-Pad5)*%
X-67714000Y60110000D03*
%TO.P,U4,6,DIO4*%
%TO.N,unconnected-(U4-DIO4-Pad6)*%
X-67714000Y58110000D03*
%TO.P,U4,7,DIO5*%
%TO.N,unconnected-(U4-DIO5-Pad7)*%
X-67714000Y56110000D03*
%TO.P,U4,8,3.3V*%
%TO.N,+3V3*%
X-67714000Y54110000D03*
%TO.P,U4,9,GND*%
%TO.N,GND*%
X-49426000Y54110000D03*
%TO.P,U4,10,ANA*%
%TO.N,unconnected-(U4-ANA-Pad10)*%
X-49426000Y56110000D03*
%TO.P,U4,11,GND*%
%TO.N,GND*%
X-49426000Y58110000D03*
%TO.P,U4,12,SCK*%
%TO.N,/SCK*%
X-49426000Y60110000D03*
%TO.P,U4,13,MISO*%
%TO.N,/MISO*%
X-49426000Y62110000D03*
%TO.P,U4,14,MOSI*%
%TO.N,/MOSI*%
X-49426000Y64110000D03*
%TO.P,U4,15,NSS*%
%TO.N,/NSS*%
X-49426000Y66110000D03*
%TO.P,U4,16,NC*%
%TO.N,unconnected-(U4-NC-Pad16)*%
X-49426000Y68110000D03*
%TD*%
D11*
%TO.P,J5,1,Pin_1*%
%TO.N,/SERVO 1*%
X-16660000Y10945000D03*
D12*
%TO.P,J5,2,Pin_2*%
%TO.N,/+BATT SW*%
X-16660000Y8405000D03*
%TO.P,J5,3,Pin_3*%
%TO.N,GND*%
X-16660000Y5865000D03*
%TD*%
D11*
%TO.P,F2,1*%
%TO.N,Net-(U5-OUT)*%
X-16665000Y27455000D03*
D12*
%TO.P,F2,2*%
%TO.N,+10V*%
X-14125000Y27455000D03*
%TD*%
D11*
%TO.P,J6,1,Pin_1*%
%TO.N,/SERVO 2*%
X-12850000Y10930000D03*
D12*
%TO.P,J6,2,Pin_2*%
%TO.N,/+BATT SW*%
X-12850000Y8390000D03*
%TO.P,J6,3,Pin_3*%
%TO.N,GND*%
X-12850000Y5850000D03*
%TD*%
D13*
%TO.P,D1,1,K*%
%TO.N,Net-(D1-K)*%
X-64285000Y24280000D03*
D14*
%TO.P,D1,2,A*%
%TO.N,/+BATT SW*%
X-64285000Y16660000D03*
%TD*%
D11*
%TO.P,SW1,1*%
%TO.N,+BATT*%
X-50320000Y2690000D03*
D12*
%TO.P,SW1,2*%
%TO.N,Net-(F1-Pad1)*%
X-47780000Y2690000D03*
%TD*%
D15*
%TO.P,R2,1*%
%TO.N,GND*%
X-26820000Y54760000D03*
D16*
%TO.P,R2,2*%
%TO.N,/BAT READ*%
X-34440000Y54760000D03*
%TD*%
D11*
%TO.P,J3,1,Pin_1*%
%TO.N,Net-(J3-Pin_1)*%
X-14125000Y50315000D03*
D12*
%TO.P,J3,2,Pin_2*%
%TO.N,Net-(J3-Pin_2)*%
X-11585000Y50315000D03*
%TD*%
D15*
%TO.P,R1,1*%
%TO.N,/BAT READ*%
X-68095000Y24280000D03*
D16*
%TO.P,R1,2*%
%TO.N,/+BATT SW*%
X-68095000Y16660000D03*
%TD*%
D17*
%TO.P,U5,1,GND*%
%TO.N,GND*%
X-61110000Y6500000D03*
%TO.P,U5,2,IN*%
%TO.N,Net-(D1-K)*%
X-61110000Y24280000D03*
%TO.P,U5,3,GND*%
%TO.N,GND*%
X-20470000Y6500000D03*
%TO.P,U5,4,OUT*%
%TO.N,Net-(U5-OUT)*%
X-20470000Y24280000D03*
%TD*%
D11*
%TO.P,J2,1,Pin_1*%
%TO.N,Net-(J2-Pin_1)*%
X-2690000Y64920000D03*
D12*
%TO.P,J2,2,Pin_2*%
%TO.N,Net-(J2-Pin_2)*%
X-2690000Y62380000D03*
%TD*%
D11*
%TO.P,J1,1,Pin_1*%
%TO.N,Net-(J1-Pin_1)*%
X-2690000Y58575000D03*
D12*
%TO.P,J1,2,Pin_2*%
%TO.N,Net-(J1-Pin_2)*%
X-2690000Y56035000D03*
%TD*%
D17*
%TO.P,U2,1,SLEEP*%
%TO.N,/SLEEP*%
X-3960000Y46505000D03*
%TO.P,U2,2,OUT1*%
%TO.N,unconnected-(U2-OUT1-Pad2)*%
X-6500000Y46505000D03*
%TO.P,U2,3,OUT2*%
%TO.N,unconnected-(U2-OUT2-Pad3)*%
X-9040000Y46505000D03*
%TO.P,U2,4,OUT3*%
%TO.N,Net-(J3-Pin_2)*%
X-11580000Y46505000D03*
%TO.P,U2,5,OUT4*%
%TO.N,Net-(J3-Pin_1)*%
X-14120000Y46505000D03*
%TO.P,U2,6,FAULT*%
%TO.N,unconnected-(U2-FAULT-Pad6)*%
X-16660000Y46505000D03*
%TO.P,U2,7,IN1*%
%TO.N,unconnected-(U2-IN1-Pad7)*%
X-16660000Y31265000D03*
%TO.P,U2,8,IN2*%
%TO.N,unconnected-(U2-IN2-Pad8)*%
X-14120000Y31265000D03*
%TO.P,U2,9,VMOT*%
%TO.N,+10V*%
X-11580000Y31265000D03*
%TO.P,U2,10,GND*%
%TO.N,GND*%
X-9040000Y31265000D03*
%TO.P,U2,11,IN3*%
%TO.N,/M C1*%
X-6500000Y31265000D03*
%TO.P,U2,12,IN4*%
%TO.N,/M C2*%
X-3960000Y31265000D03*
%TD*%
D11*
%TO.P,J7,1,Pin_1*%
%TO.N,/ESC*%
X-9040000Y10930000D03*
D12*
%TO.P,J7,2,Pin_2*%
%TO.N,unconnected-(J7-Pin_2-Pad2)*%
X-9040000Y8390000D03*
%TO.P,J7,3,Pin_3*%
%TO.N,GND*%
X-9040000Y5850000D03*
%TD*%
D17*
%TO.P,U3,1,SLEEP*%
%TO.N,/SLEEP*%
X-6500000Y54125000D03*
%TO.P,U3,2,OUT1*%
%TO.N,Net-(J1-Pin_2)*%
X-6500000Y56665000D03*
%TO.P,U3,3,OUT2*%
%TO.N,Net-(J1-Pin_1)*%
X-6500000Y59205000D03*
%TO.P,U3,4,OUT3*%
%TO.N,Net-(J2-Pin_2)*%
X-6500000Y61745000D03*
%TO.P,U3,5,OUT4*%
%TO.N,Net-(J2-Pin_1)*%
X-6500000Y64285000D03*
%TO.P,U3,6,FAULT*%
%TO.N,unconnected-(U3-FAULT-Pad6)*%
X-6500000Y66825000D03*
%TO.P,U3,7,IN1*%
%TO.N,/M A1*%
X-21740000Y66825000D03*
%TO.P,U3,8,IN2*%
%TO.N,/M A2*%
X-21740000Y64285000D03*
%TO.P,U3,9,VMOT*%
%TO.N,+10V*%
X-21740000Y61745000D03*
%TO.P,U3,10,GND*%
%TO.N,GND*%
X-21740000Y59205000D03*
%TO.P,U3,11,IN3*%
%TO.N,/M B1*%
X-21740000Y56665000D03*
%TO.P,U3,12,IN4*%
%TO.N,/M B2*%
X-21740000Y54125000D03*
%TD*%
D11*
%TO.P,J8,1,Pin_1*%
%TO.N,/+BATT SW*%
X-29995000Y2690000D03*
D12*
%TO.P,J8,2,Pin_2*%
%TO.N,GND*%
X-27455000Y2690000D03*
%TD*%
D11*
%TO.P,F1,1*%
%TO.N,Net-(F1-Pad1)*%
X-40155000Y2690000D03*
D12*
%TO.P,F1,2*%
%TO.N,/+BATT SW*%
X-37615000Y2690000D03*
%TD*%
D18*
%TO.P,U1,5,VP*%
%TO.N,unconnected-(U1-VP-Pad5)*%
X-26820000Y50315000D03*
%TO.P,U1,8,VN*%
%TO.N,unconnected-(U1-VN-Pad8)*%
X-29360000Y50315000D03*
%TO.P,U1,9,EN*%
%TO.N,unconnected-(U1-EN-Pad9)*%
X-31900000Y50315000D03*
%TO.P,U1,10,D34*%
%TO.N,/BAT READ*%
X-34440000Y50315000D03*
%TO.P,U1,11,D35*%
%TO.N,/INTER*%
X-36980000Y50315000D03*
%TO.P,U1,12,D32*%
%TO.N,/NSS*%
X-39520000Y50315000D03*
%TO.P,U1,13,D33*%
%TO.N,/MOSI*%
X-42060000Y50315000D03*
%TO.P,U1,14,D25*%
%TO.N,/MISO*%
X-44600000Y50315000D03*
%TO.P,U1,15,D26*%
%TO.N,/SCK*%
X-47140000Y50315000D03*
%TO.P,U1,16,D27*%
%TO.N,/RESET*%
X-49680000Y50315000D03*
%TO.P,U1,17,D14*%
%TO.N,/TMS*%
X-52220000Y50315000D03*
%TO.P,U1,18,D12*%
%TO.N,/TDI*%
X-54760000Y50315000D03*
%TO.P,U1,19,GND*%
%TO.N,GND*%
X-57300000Y50315000D03*
%TO.P,U1,20,D13*%
%TO.N,/TCK*%
X-57300000Y27455000D03*
%TO.P,U1,21,D15*%
%TO.N,/TDO*%
X-54760000Y27455000D03*
%TO.P,U1,22,D2*%
%TO.N,/SERVO 1*%
X-52220000Y27455000D03*
%TO.P,U1,23,D0*%
%TO.N,/SERVO 2*%
X-49680000Y27455000D03*
%TO.P,U1,24,D4*%
%TO.N,/ESC*%
X-47140000Y27455000D03*
%TO.P,U1,25,RX2/D16*%
%TO.N,/M A1*%
X-44600000Y27455000D03*
%TO.P,U1,27,TX2/D17*%
%TO.N,/M A2*%
X-42060000Y27455000D03*
%TO.P,U1,34,D5*%
%TO.N,/M B2*%
X-39520000Y27455000D03*
%TO.P,U1,35,D18*%
%TO.N,/M B1*%
X-36980000Y27455000D03*
%TO.P,U1,36,D23*%
%TO.N,/SLEEP*%
X-34440000Y27455000D03*
%TO.P,U1,38,D19*%
%TO.N,/M C2*%
X-31900000Y27455000D03*
%TO.P,U1,39,D22*%
%TO.N,/M C1*%
X-29360000Y27455000D03*
%TO.P,U1,40,3V3*%
%TO.N,+3V3*%
X-26820000Y27455000D03*
%TD*%
D11*
%TO.P,J4,1,Pin_1*%
%TO.N,+BATT*%
X-56660000Y2690000D03*
D12*
%TO.P,J4,2,Pin_2*%
%TO.N,GND*%
X-59200000Y2690000D03*
%TD*%
D17*
%TO.P,U6,1,GND*%
%TO.N,GND*%
X-17295000Y23772000D03*
%TO.P,U6,2,IN*%
%TO.N,/+BATT SW*%
X-17295000Y14628000D03*
%TO.P,U6,3,GND*%
%TO.N,GND*%
X-2055000Y23772000D03*
%TO.P,U6,4,OUT*%
%TO.N,+3V3*%
X-2055000Y14628000D03*
%TD*%
D19*
%TO.N,GND*%
X-36980000Y53236000D03*
%TD*%
D20*
%TO.N,Net-(J3-Pin_1)*%
X-14120000Y50310000D02*
X-14120000Y46505000D01*
D21*
X-14125000Y50315000D02*
X-14120000Y50310000D01*
D20*
%TO.N,Net-(J3-Pin_2)*%
X-11580000Y46505000D02*
X-11580000Y50310000D01*
D21*
X-11580000Y50310000D02*
X-11585000Y50315000D01*
%TO.N,/SERVO 1*%
X-52220000Y23010000D02*
X-52220000Y27455000D01*
X-15390000Y12215000D02*
X-15390000Y15390000D01*
X-16660000Y10945000D02*
X-15390000Y12215000D01*
X-16660000Y16660000D02*
X-45870000Y16660000D01*
X-45870000Y16660000D02*
X-52220000Y23010000D01*
X-15390000Y15390000D02*
X-16660000Y16660000D01*
D20*
%TO.N,/+BATT SW*%
X-12850000Y8390000D02*
X-16645000Y8390000D01*
X-68095000Y16660000D02*
X-64285000Y16660000D01*
X-50739656Y16660000D02*
X-37615000Y3535344D01*
X-19962000Y14628000D02*
X-26185000Y8405000D01*
X-64285000Y16660000D02*
X-50739656Y16660000D01*
X-37615000Y3535344D02*
X-37615000Y2690000D01*
X-16660000Y8405000D02*
X-26185000Y8405000D01*
X-16645000Y8390000D02*
X-16660000Y8405000D01*
D22*
X-37615000Y2690000D02*
X-29995000Y2690000D01*
D20*
X-26185000Y8405000D02*
X-29995000Y4595000D01*
X-12865000Y8405000D02*
X-12850000Y8390000D01*
X-29995000Y4595000D02*
X-29995000Y2690000D01*
X-17295000Y14628000D02*
X-19962000Y14628000D01*
%TO.N,GND*%
X-61110000Y6500000D02*
X-61110000Y4600000D01*
D21*
X-49470000Y54110000D02*
X-51570000Y54110000D01*
D20*
X-12850000Y5850000D02*
X-16645000Y5850000D01*
X-16660000Y5865000D02*
X-21105000Y5865000D01*
X-9040000Y5850000D02*
X-12850000Y5850000D01*
X-21105000Y5865000D02*
X-20470000Y6500000D01*
X-16645000Y5850000D02*
X-16660000Y5865000D01*
X-27455000Y2690000D02*
X-24280000Y2690000D01*
D21*
X-52855000Y56665000D02*
X-51410000Y58110000D01*
X-51570000Y54110000D02*
X-52855000Y55395000D01*
X-51410000Y58110000D02*
X-49470000Y58110000D01*
X-52855000Y55395000D02*
X-52855000Y56665000D01*
X-2055000Y23772000D02*
X-9040000Y23772000D01*
D20*
X-24280000Y2690000D02*
X-20470000Y6500000D01*
X-61110000Y4600000D02*
X-59200000Y2690000D01*
D21*
X-9040000Y23772000D02*
X-17295000Y23772000D01*
%TO.N,/SERVO 2*%
X-12850000Y10930000D02*
X-12850000Y15390000D01*
X-15390000Y17930000D02*
X-45235000Y17930000D01*
X-45235000Y17930000D02*
X-49680000Y22375000D01*
X-49680000Y22375000D02*
X-49680000Y27455000D01*
X-12850000Y15390000D02*
X-15390000Y17930000D01*
%TO.N,/ESC*%
X-47140000Y21740000D02*
X-47140000Y27455000D01*
X-44600000Y19200000D02*
X-47140000Y21740000D01*
X-9040000Y14120000D02*
X-14120000Y19200000D01*
X-14120000Y19200000D02*
X-44600000Y19200000D01*
X-9040000Y10930000D02*
X-9040000Y14120000D01*
D22*
%TO.N,+BATT*%
X-56660000Y2690000D02*
X-50320000Y2690000D01*
D21*
%TO.N,+3V3*%
X-2055000Y14628000D02*
X-2055000Y19200000D01*
X-3325000Y20470000D02*
X-23010000Y20470000D01*
X-2055000Y19200000D02*
X-3325000Y20470000D01*
X-23010000Y20470000D02*
X-26820000Y24280000D01*
X-26820000Y24280000D02*
X-26820000Y27455000D01*
%TO.N,/M B1*%
X-19835000Y47775000D02*
X-19835000Y54760000D01*
X-36980000Y27455000D02*
X-36980000Y30630000D01*
X-36980000Y30630000D02*
X-19835000Y47775000D01*
X-19835000Y54760000D02*
X-21740000Y56665000D01*
%TO.N,/M B2*%
X-39520000Y30153750D02*
X-21740000Y47933750D01*
X-21740000Y47933750D02*
X-21740000Y54125000D01*
X-39520000Y27455000D02*
X-39520000Y30153750D01*
%TO.N,/M C1*%
X-6500000Y31265000D02*
X-8405000Y33170000D01*
X-8405000Y33170000D02*
X-26820000Y33170000D01*
X-29360000Y30630000D02*
X-29360000Y27455000D01*
X-26820000Y33170000D02*
X-29360000Y30630000D01*
%TO.N,/M C2*%
X-7770000Y35075000D02*
X-3960000Y31265000D01*
X-31900000Y30630000D02*
X-27455000Y35075000D01*
X-31900000Y27455000D02*
X-31900000Y30630000D01*
X-27455000Y35075000D02*
X-7770000Y35075000D01*
%TO.N,/NSS*%
X-42822000Y63142000D02*
X-42822000Y59967000D01*
X-49470000Y66110000D02*
X-45790000Y66110000D01*
X-42822000Y59967000D02*
X-39520000Y56665000D01*
X-45790000Y66110000D02*
X-42822000Y63142000D01*
X-39520000Y56665000D02*
X-39520000Y50315000D01*
%TO.N,/SCK*%
X-48220000Y60110000D02*
X-49470000Y60110000D01*
X-47140000Y59030000D02*
X-48220000Y60110000D01*
X-47140000Y50315000D02*
X-47140000Y59030000D01*
%TO.N,/MISO*%
X-45616000Y60221000D02*
X-45616000Y57046000D01*
X-47505000Y62110000D02*
X-45616000Y60221000D01*
X-49470000Y62110000D02*
X-47505000Y62110000D01*
X-45616000Y57046000D02*
X-44600000Y56030000D01*
X-44600000Y56030000D02*
X-44600000Y50315000D01*
%TO.N,/MOSI*%
X-44346000Y58951000D02*
X-42060000Y56665000D01*
X-42060000Y56665000D02*
X-42060000Y50315000D01*
X-44346000Y62126000D02*
X-44346000Y58951000D01*
X-49470000Y64110000D02*
X-46330000Y64110000D01*
X-46330000Y64110000D02*
X-44346000Y62126000D01*
%TO.N,/INTER*%
X-66183502Y66110000D02*
X-67670000Y66110000D01*
X-36980000Y50315000D02*
X-36980000Y48410000D01*
X-64920000Y49680000D02*
X-64920000Y64846498D01*
X-36980000Y48410000D02*
X-40155000Y45235000D01*
X-40155000Y45235000D02*
X-60475000Y45235000D01*
X-64920000Y64846498D02*
X-66183502Y66110000D01*
X-60475000Y45235000D02*
X-64920000Y49680000D01*
%TO.N,/RESET*%
X-56030000Y59205000D02*
X-56030000Y56665000D01*
X-64935000Y68110000D02*
X-56030000Y59205000D01*
X-67670000Y68110000D02*
X-64935000Y68110000D01*
X-56030000Y56665000D02*
X-52220000Y52855000D01*
X-49680000Y51585000D02*
X-49680000Y50315000D01*
X-52220000Y52855000D02*
X-50950000Y52855000D01*
X-50950000Y52855000D02*
X-49680000Y51585000D01*
%TO.N,/M A1*%
X-24915000Y65555000D02*
X-23645000Y66825000D01*
X-44600000Y29360000D02*
X-24915000Y49045000D01*
X-24915000Y49045000D02*
X-24915000Y65555000D01*
X-23645000Y66825000D02*
X-21740000Y66825000D01*
X-44600000Y27455000D02*
X-44600000Y29360000D01*
%TO.N,/M A2*%
X-42060000Y27455000D02*
X-42060000Y29677500D01*
X-23645000Y63015000D02*
X-22375000Y64285000D01*
X-22375000Y64285000D02*
X-21740000Y64285000D01*
X-42060000Y29677500D02*
X-23645000Y48092500D01*
X-23645000Y48092500D02*
X-23645000Y63015000D01*
D20*
%TO.N,+10V*%
X-14125000Y27455000D02*
X-12723000Y27455000D01*
X-11580000Y28598000D02*
X-11580000Y31265000D01*
X-12723000Y27455000D02*
X-11580000Y28598000D01*
D23*
%TO.N,Net-(D1-K)*%
X-64285000Y24280000D02*
X-61110000Y24280000D01*
D22*
%TO.N,Net-(F1-Pad1)*%
X-40155000Y2690000D02*
X-47780000Y2690000D01*
D20*
%TO.N,Net-(U5-OUT)*%
X-18565000Y27455000D02*
X-16665000Y27455000D01*
X-20470000Y25550000D02*
X-18565000Y27455000D01*
X-20470000Y24280000D02*
X-20470000Y25550000D01*
D21*
%TO.N,/SLEEP*%
X-7135000Y43330000D02*
X-21898750Y43330000D01*
X-3960000Y46505000D02*
X-7135000Y43330000D01*
X-3960000Y51585000D02*
X-3960000Y46505000D01*
X-21898750Y43330000D02*
X-34440000Y30788750D01*
X-34440000Y30788750D02*
X-34440000Y27455000D01*
X-6500000Y54125000D02*
X-3960000Y51585000D01*
D20*
%TO.N,Net-(J1-Pin_1)*%
X-5870000Y58575000D02*
X-6500000Y59205000D01*
X-2690000Y58575000D02*
X-5870000Y58575000D01*
%TO.N,Net-(J1-Pin_2)*%
X-5870000Y56035000D02*
X-6500000Y56665000D01*
X-2690000Y56035000D02*
X-5870000Y56035000D01*
%TO.N,Net-(J2-Pin_1)*%
X-5865000Y64920000D02*
X-6500000Y64285000D01*
X-2690000Y64920000D02*
X-5865000Y64920000D01*
%TO.N,Net-(J2-Pin_2)*%
X-5865000Y62380000D02*
X-6500000Y61745000D01*
X-2690000Y62380000D02*
X-5865000Y62380000D01*
D21*
%TO.N,/BAT READ*%
X-38885000Y40790000D02*
X-34440000Y45235000D01*
X-34440000Y45235000D02*
X-34440000Y50315000D01*
X-34440000Y50315000D02*
X-34440000Y54760000D01*
X-68095000Y24280000D02*
X-68095000Y26693000D01*
X-68095000Y26693000D02*
X-53998000Y40790000D01*
X-53998000Y40790000D02*
X-38885000Y40790000D01*
%TD*%
%TA.AperFunction,Conductor*%
%TO.N,GND*%
G36*
X-65281967Y67214815D02*
G01*
X-65261325Y67198181D01*
X-56941819Y58878675D01*
X-56908334Y58817352D01*
X-56905500Y58790994D01*
X-56905500Y56703103D01*
X-56905705Y56698069D01*
X-56910340Y56641157D01*
X-56899086Y56558559D01*
X-56890073Y56475684D01*
X-56890071Y56475673D01*
X-56890010Y56475494D01*
X-56884660Y56452669D01*
X-56884634Y56452475D01*
X-56884632Y56452465D01*
X-56884631Y56452463D01*
X-56870256Y56413335D01*
X-56855881Y56374206D01*
X-56829270Y56295226D01*
X-56829266Y56295218D01*
X-56829168Y56295055D01*
X-56819031Y56273901D01*
X-56818964Y56273717D01*
X-56818962Y56273714D01*
X-56818961Y56273712D01*
X-56774060Y56203464D01*
X-56731089Y56132046D01*
X-56730958Y56131908D01*
X-56716505Y56113421D01*
X-56716398Y56113253D01*
X-56657448Y56054304D01*
X-56603103Y55996932D01*
X-56600129Y55993793D01*
X-56599972Y55993686D01*
X-56581879Y55978735D01*
X-52866008Y52262864D01*
X-52862604Y52259171D01*
X-52825638Y52215650D01*
X-52825637Y52215649D01*
X-52825635Y52215648D01*
X-52825631Y52215643D01*
X-52759263Y52165192D01*
X-52694301Y52112973D01*
X-52694299Y52112971D01*
X-52694128Y52112886D01*
X-52674186Y52100517D01*
X-52674029Y52100398D01*
X-52598360Y52065390D01*
X-52523693Y52028359D01*
X-52523519Y52028316D01*
X-52501374Y52020520D01*
X-52501197Y52020438D01*
X-52501194Y52020438D01*
X-52495090Y52017613D01*
X-52496189Y52015240D01*
X-52448620Y51981972D01*
X-52422102Y51917330D01*
X-52434742Y51848613D01*
X-52482526Y51797639D01*
X-52507117Y51786564D01*
X-52713467Y51719516D01*
X-52911679Y51612854D01*
X-52911682Y51612852D01*
X-53087664Y51472511D01*
X-53158814Y51391073D01*
X-53235765Y51302996D01*
X-53270450Y51244942D01*
X-53351213Y51109768D01*
X-53351218Y51109759D01*
X-53373309Y51050898D01*
X-53415295Y50995050D01*
X-53480809Y50970768D01*
X-53549051Y50985760D01*
X-53598355Y51035267D01*
X-53601101Y51040627D01*
X-53682171Y51208973D01*
X-53782690Y51347326D01*
X-53814474Y51391073D01*
X-53814475Y51391075D01*
X-53977177Y51546634D01*
X-54165034Y51670637D01*
X-54372005Y51759101D01*
X-54372018Y51759105D01*
X-54591458Y51809190D01*
X-54591462Y51809191D01*
X-54591463Y51809191D01*
X-54591464Y51809192D01*
X-54591469Y51809192D01*
X-54816326Y51819290D01*
X-54816327Y51819290D01*
X-54816330Y51819290D01*
X-55039387Y51789075D01*
X-55039390Y51789075D01*
X-55039391Y51789074D01*
X-55253466Y51719517D01*
X-55451679Y51612854D01*
X-55451682Y51612852D01*
X-55627664Y51472511D01*
X-55698814Y51391073D01*
X-55775765Y51302996D01*
X-55810450Y51244942D01*
X-55891213Y51109768D01*
X-55891214Y51109766D01*
X-55970308Y50899024D01*
X-56010500Y50677550D01*
X-56010500Y50008849D01*
X-55995378Y49840814D01*
X-55995377Y49840808D01*
X-55935497Y49623840D01*
X-55935492Y49623827D01*
X-55837833Y49421034D01*
X-55837829Y49421026D01*
X-55705527Y49238928D01*
X-55705526Y49238926D01*
X-55705523Y49238923D01*
X-55705522Y49238922D01*
X-55580067Y49118975D01*
X-55542824Y49083367D01*
X-55354967Y48959364D01*
X-55147996Y48870900D01*
X-55147993Y48870899D01*
X-55147988Y48870897D01*
X-54928537Y48820809D01*
X-54703670Y48810710D01*
X-54480613Y48840925D01*
X-54266536Y48910483D01*
X-54068319Y49017148D01*
X-53892334Y49157492D01*
X-53744235Y49327004D01*
X-53628785Y49520236D01*
X-53606693Y49579103D01*
X-53564708Y49634949D01*
X-53499194Y49659233D01*
X-53430952Y49644242D01*
X-53381647Y49594736D01*
X-53378880Y49589332D01*
X-53297833Y49421034D01*
X-53297829Y49421026D01*
X-53165527Y49238928D01*
X-53165526Y49238926D01*
X-53165523Y49238923D01*
X-53165522Y49238922D01*
X-53040067Y49118975D01*
X-53002824Y49083367D01*
X-52814967Y48959364D01*
X-52607996Y48870900D01*
X-52607993Y48870899D01*
X-52607988Y48870897D01*
X-52388537Y48820809D01*
X-52163670Y48810710D01*
X-51940613Y48840925D01*
X-51726536Y48910483D01*
X-51528319Y49017148D01*
X-51352334Y49157492D01*
X-51204235Y49327004D01*
X-51088785Y49520236D01*
X-51066693Y49579103D01*
X-51024708Y49634949D01*
X-50959194Y49659233D01*
X-50890952Y49644242D01*
X-50841647Y49594736D01*
X-50838880Y49589332D01*
X-50757833Y49421034D01*
X-50757829Y49421026D01*
X-50625527Y49238928D01*
X-50625526Y49238926D01*
X-50625523Y49238923D01*
X-50625522Y49238922D01*
X-50500067Y49118975D01*
X-50462824Y49083367D01*
X-50274967Y48959364D01*
X-50067996Y48870900D01*
X-50067993Y48870899D01*
X-50067988Y48870897D01*
X-49848537Y48820809D01*
X-49623670Y48810710D01*
X-49400613Y48840925D01*
X-49186536Y48910483D01*
X-48988319Y49017148D01*
X-48812334Y49157492D01*
X-48664235Y49327004D01*
X-48548785Y49520236D01*
X-48526693Y49579103D01*
X-48484708Y49634949D01*
X-48419194Y49659233D01*
X-48350952Y49644242D01*
X-48301647Y49594736D01*
X-48298880Y49589332D01*
X-48217833Y49421034D01*
X-48217829Y49421026D01*
X-48085527Y49238928D01*
X-48085526Y49238926D01*
X-48085523Y49238923D01*
X-48085522Y49238922D01*
X-47960067Y49118975D01*
X-47922824Y49083367D01*
X-47734967Y48959364D01*
X-47527996Y48870900D01*
X-47527993Y48870899D01*
X-47527988Y48870897D01*
X-47308537Y48820809D01*
X-47083670Y48810710D01*
X-46860613Y48840925D01*
X-46646536Y48910483D01*
X-46448319Y49017148D01*
X-46272334Y49157492D01*
X-46124235Y49327004D01*
X-46008785Y49520236D01*
X-45986693Y49579103D01*
X-45944708Y49634949D01*
X-45879194Y49659233D01*
X-45810952Y49644242D01*
X-45761647Y49594736D01*
X-45758880Y49589332D01*
X-45677833Y49421034D01*
X-45677829Y49421026D01*
X-45545527Y49238928D01*
X-45545526Y49238926D01*
X-45545523Y49238923D01*
X-45545522Y49238922D01*
X-45420067Y49118975D01*
X-45382824Y49083367D01*
X-45194967Y48959364D01*
X-44987996Y48870900D01*
X-44987993Y48870899D01*
X-44987988Y48870897D01*
X-44768537Y48820809D01*
X-44543670Y48810710D01*
X-44320613Y48840925D01*
X-44106536Y48910483D01*
X-43908319Y49017148D01*
X-43732334Y49157492D01*
X-43584235Y49327004D01*
X-43468785Y49520236D01*
X-43446693Y49579103D01*
X-43404708Y49634949D01*
X-43339194Y49659233D01*
X-43270952Y49644242D01*
X-43221647Y49594736D01*
X-43218880Y49589332D01*
X-43137833Y49421034D01*
X-43137829Y49421026D01*
X-43005527Y49238928D01*
X-43005526Y49238926D01*
X-43005523Y49238923D01*
X-43005522Y49238922D01*
X-42880067Y49118975D01*
X-42842824Y49083367D01*
X-42654967Y48959364D01*
X-42447996Y48870900D01*
X-42447993Y48870899D01*
X-42447988Y48870897D01*
X-42228537Y48820809D01*
X-42003670Y48810710D01*
X-41780613Y48840925D01*
X-41566536Y48910483D01*
X-41368319Y49017148D01*
X-41192334Y49157492D01*
X-41044235Y49327004D01*
X-40928785Y49520236D01*
X-40906693Y49579103D01*
X-40864708Y49634949D01*
X-40799194Y49659233D01*
X-40730952Y49644242D01*
X-40681647Y49594736D01*
X-40678880Y49589332D01*
X-40597833Y49421034D01*
X-40597829Y49421026D01*
X-40465527Y49238928D01*
X-40465526Y49238926D01*
X-40465523Y49238923D01*
X-40465522Y49238922D01*
X-40340067Y49118975D01*
X-40302824Y49083367D01*
X-40114967Y48959364D01*
X-39907996Y48870900D01*
X-39907993Y48870899D01*
X-39907988Y48870897D01*
X-39688537Y48820809D01*
X-39463670Y48810710D01*
X-39240613Y48840925D01*
X-39026536Y48910483D01*
X-38828319Y49017148D01*
X-38652334Y49157492D01*
X-38504235Y49327004D01*
X-38388785Y49520236D01*
X-38366693Y49579103D01*
X-38324708Y49634949D01*
X-38259194Y49659233D01*
X-38190952Y49644242D01*
X-38141647Y49594736D01*
X-38138880Y49589332D01*
X-38057833Y49421034D01*
X-38057829Y49421026D01*
X-37925525Y49238924D01*
X-37893810Y49208603D01*
X-37858956Y49148047D01*
X-37855500Y49118975D01*
X-37855500Y48824006D01*
X-37875185Y48756967D01*
X-37891819Y48736325D01*
X-40481325Y46146819D01*
X-40542648Y46113334D01*
X-40569006Y46110500D01*
X-60060994Y46110500D01*
X-60128033Y46130185D01*
X-60148675Y46146819D01*
X-64008181Y50006325D01*
X-64041666Y50067648D01*
X-64044500Y50094006D01*
X-64044500Y64808388D01*
X-64044295Y64813423D01*
X-64042385Y64836883D01*
X-64039660Y64870346D01*
X-64050917Y64952961D01*
X-64059927Y65035814D01*
X-64059986Y65035989D01*
X-64065344Y65058849D01*
X-64065369Y65059035D01*
X-64094120Y65137292D01*
X-64120733Y65216278D01*
X-64120734Y65216280D01*
X-64120828Y65216437D01*
X-64130975Y65237611D01*
X-64131039Y65237786D01*
X-64175941Y65308035D01*
X-64218911Y65379452D01*
X-64219045Y65379594D01*
X-64233496Y65398079D01*
X-64233600Y65398242D01*
X-64292553Y65457195D01*
X-64349871Y65517705D01*
X-64350030Y65517813D01*
X-64368123Y65532765D01*
X-64950982Y66115624D01*
X-65537503Y66702145D01*
X-65540894Y66705824D01*
X-65577871Y66749357D01*
X-65644240Y66799809D01*
X-65709205Y66852030D01*
X-65709208Y66852032D01*
X-65709382Y66852118D01*
X-65729320Y66864486D01*
X-65729473Y66864603D01*
X-65729475Y66864604D01*
X-65805143Y66899611D01*
X-65879809Y66936641D01*
X-65879813Y66936642D01*
X-65879822Y66936645D01*
X-65880014Y66936693D01*
X-65902117Y66944475D01*
X-65902304Y66944562D01*
X-65902308Y66944563D01*
X-65983731Y66962486D01*
X-66064617Y66982601D01*
X-66064813Y66982606D01*
X-66088089Y66985457D01*
X-66088280Y66985499D01*
X-66088283Y66985500D01*
X-66088286Y66985500D01*
X-66088290Y66985500D01*
X-66089165Y66985500D01*
X-66089680Y66985652D01*
X-66094967Y66986226D01*
X-66094864Y66987174D01*
X-66156204Y67005185D01*
X-66163399Y67010175D01*
X-66163495Y67010247D01*
X-66164070Y67010678D01*
X-66205982Y67066577D01*
X-66211021Y67136264D01*
X-66177583Y67197613D01*
X-66164078Y67209318D01*
X-66163399Y67209826D01*
X-66097915Y67234191D01*
X-66089165Y67234500D01*
X-65349006Y67234500D01*
X-65281967Y67214815D01*
G37*
%TD.AperFunction*%
%TA.AperFunction,Conductor*%
G36*
X-49232961Y54340315D02*
G01*
X-49187206Y54287511D01*
X-49176000Y54236000D01*
X-49176000Y53110000D01*
X-48139500Y53110000D01*
X-48072461Y53090315D01*
X-48026706Y53037511D01*
X-48015500Y52986000D01*
X-48015500Y51510080D01*
X-48035185Y51443041D01*
X-48046115Y51428501D01*
X-48111645Y51353495D01*
X-48155767Y51302994D01*
X-48271213Y51109768D01*
X-48271218Y51109759D01*
X-48293309Y51050898D01*
X-48335295Y50995050D01*
X-48400809Y50970768D01*
X-48469051Y50985760D01*
X-48518355Y51035267D01*
X-48521101Y51040627D01*
X-48602171Y51208973D01*
X-48702690Y51347326D01*
X-48734474Y51391073D01*
X-48734475Y51391075D01*
X-48734478Y51391078D01*
X-48766193Y51421401D01*
X-48801044Y51481956D01*
X-48804500Y51511026D01*
X-48804500Y51546902D01*
X-48804295Y51551937D01*
X-48802795Y51570370D01*
X-48799661Y51608848D01*
X-48810915Y51691442D01*
X-48819927Y51774316D01*
X-48819986Y51774491D01*
X-48825344Y51797351D01*
X-48825369Y51797537D01*
X-48854120Y51875794D01*
X-48880733Y51954780D01*
X-48880735Y51954783D01*
X-48880828Y51954939D01*
X-48890975Y51976113D01*
X-48890978Y51976121D01*
X-48891039Y51976288D01*
X-48935941Y52046537D01*
X-48968419Y52100516D01*
X-48978910Y52117953D01*
X-48979043Y52118093D01*
X-48993496Y52136581D01*
X-48993600Y52136744D01*
X-49052553Y52195697D01*
X-49109871Y52256207D01*
X-49110030Y52256315D01*
X-49128123Y52271267D01*
X-49755175Y52898319D01*
X-49788660Y52959642D01*
X-49783676Y53029334D01*
X-49741804Y53085267D01*
X-49676340Y53109684D01*
X-49676316Y53109685D01*
X-49676000Y53110000D01*
X-49676000Y53860000D01*
X-49767889Y53860000D01*
X-49728390Y53884457D01*
X-49660799Y53973962D01*
X-49630105Y54081840D01*
X-49640454Y54193521D01*
X-49690448Y54293922D01*
X-49762931Y54360000D01*
X-49300000Y54360000D01*
X-49232961Y54340315D01*
G37*
%TD.AperFunction*%
%TA.AperFunction,Conductor*%
G36*
X-49232961Y58340315D02*
G01*
X-49187206Y58287511D01*
X-49176000Y58236000D01*
X-49176000Y57984000D01*
X-49195685Y57916961D01*
X-49248489Y57871206D01*
X-49300000Y57860000D01*
X-49767889Y57860000D01*
X-49728390Y57884457D01*
X-49660799Y57973962D01*
X-49630105Y58081840D01*
X-49640454Y58193521D01*
X-49690448Y58293922D01*
X-49762931Y58360000D01*
X-49300000Y58360000D01*
X-49232961Y58340315D01*
G37*
%TD.AperFunction*%
%TA.AperFunction,Conductor*%
G36*
X-39957961Y69979815D02*
G01*
X-39912206Y69927011D01*
X-39901000Y69875500D01*
X-39901000Y60094000D01*
X-29995000Y60094000D01*
X-29995000Y69875500D01*
X-29975315Y69942539D01*
X-29922511Y69988294D01*
X-29871000Y69999500D01*
X-124500Y69999500D01*
X-57461Y69979815D01*
X-11706Y69927011D01*
X-500Y69875500D01*
X-500Y9926000D01*
X-20185Y9858961D01*
X-72989Y9813206D01*
X-124500Y9802000D01*
X-6119000Y9802000D01*
X-6119000Y124500D01*
X-6138685Y57461D01*
X-6191489Y11706D01*
X-6243000Y500D01*
X-63781403Y500D01*
X-63848442Y20185D01*
X-63894197Y72989D01*
X-63905403Y124518D01*
X-63904895Y3725761D01*
X-63904000Y10056000D01*
X-63904001Y10056000D01*
X-69875500Y10056000D01*
X-69942539Y10075685D01*
X-69988294Y10128489D01*
X-69999500Y10180000D01*
X-69999500Y53562130D01*
X-69464500Y53562130D01*
X-69464499Y53562124D01*
X-69458092Y53502517D01*
X-69407798Y53367672D01*
X-69407794Y53367665D01*
X-69321548Y53252456D01*
X-69321545Y53252453D01*
X-69206336Y53166207D01*
X-69206329Y53166203D01*
X-69071483Y53115909D01*
X-69071484Y53115909D01*
X-69064556Y53115165D01*
X-69011873Y53109500D01*
X-66416128Y53109501D01*
X-66356517Y53115909D01*
X-66221669Y53166204D01*
X-66106454Y53252454D01*
X-66020204Y53367669D01*
X-66020204Y53367670D01*
X-66018767Y53369589D01*
X-65962833Y53411460D01*
X-65893141Y53416444D01*
X-65831818Y53382959D01*
X-65798334Y53321635D01*
X-65795500Y53295278D01*
X-65795500Y49718103D01*
X-65795705Y49713069D01*
X-65800340Y49656157D01*
X-65789086Y49573559D01*
X-65780073Y49490684D01*
X-65780071Y49490673D01*
X-65780010Y49490494D01*
X-65774660Y49467669D01*
X-65774634Y49467475D01*
X-65774631Y49467464D01*
X-65745881Y49389206D01*
X-65719270Y49310226D01*
X-65719266Y49310218D01*
X-65719168Y49310055D01*
X-65709031Y49288901D01*
X-65708964Y49288717D01*
X-65708962Y49288714D01*
X-65708961Y49288712D01*
X-65689408Y49258122D01*
X-65666746Y49222665D01*
X-65664060Y49218464D01*
X-65621089Y49147046D01*
X-65620958Y49146908D01*
X-65606505Y49128421D01*
X-65606398Y49128253D01*
X-65547448Y49069304D01*
X-65498043Y49017147D01*
X-65490129Y49008793D01*
X-65489972Y49008686D01*
X-65471879Y48993735D01*
X-61121008Y44642864D01*
X-61117604Y44639171D01*
X-61080638Y44595650D01*
X-61080637Y44595649D01*
X-61080635Y44595648D01*
X-61080631Y44595643D01*
X-61014263Y44545192D01*
X-60949301Y44492973D01*
X-60949299Y44492971D01*
X-60949128Y44492886D01*
X-60929186Y44480517D01*
X-60929029Y44480398D01*
X-60853360Y44445390D01*
X-60778693Y44408359D01*
X-60778517Y44408316D01*
X-60756375Y44400521D01*
X-60756197Y44400438D01*
X-60715487Y44391477D01*
X-60674777Y44382516D01*
X-60659641Y44378752D01*
X-60593890Y44362400D01*
X-60593717Y44362396D01*
X-60570398Y44359540D01*
X-60570216Y44359500D01*
X-60570213Y44359500D01*
X-60486841Y44359500D01*
X-60403527Y44357243D01*
X-60403345Y44357279D01*
X-60379977Y44359500D01*
X-40193102Y44359500D01*
X-40188068Y44359295D01*
X-40131156Y44354661D01*
X-40131155Y44354662D01*
X-40131152Y44354661D01*
X-40048559Y44365915D01*
X-39965684Y44374927D01*
X-39965519Y44374983D01*
X-39942643Y44380345D01*
X-39942463Y44380369D01*
X-39864207Y44409120D01*
X-39785220Y44435733D01*
X-39785072Y44435822D01*
X-39763884Y44445976D01*
X-39763712Y44446039D01*
X-39693464Y44490941D01*
X-39622046Y44533911D01*
X-39621917Y44534034D01*
X-39603403Y44548506D01*
X-39603393Y44548513D01*
X-39603256Y44548600D01*
X-39573781Y44578077D01*
X-39544304Y44607552D01*
X-39507013Y44642876D01*
X-39483793Y44664871D01*
X-39483694Y44665017D01*
X-39468736Y44683122D01*
X-36387858Y47764000D01*
X-36384190Y47767382D01*
X-36340643Y47804369D01*
X-36290192Y47870738D01*
X-36237970Y47935703D01*
X-36237891Y47935862D01*
X-36225511Y47955823D01*
X-36225398Y47955971D01*
X-36190390Y48031641D01*
X-36153359Y48106307D01*
X-36153315Y48106486D01*
X-36145516Y48128637D01*
X-36145438Y48128803D01*
X-36137696Y48163973D01*
X-36127515Y48210229D01*
X-36124175Y48223663D01*
X-36107400Y48291111D01*
X-36107396Y48291285D01*
X-36104539Y48314609D01*
X-36104500Y48314784D01*
X-36104500Y48398160D01*
X-36102243Y48481473D01*
X-36102280Y48481666D01*
X-36104500Y48505025D01*
X-36104500Y49119921D01*
X-36084815Y49186960D01*
X-36073880Y49201506D01*
X-35964241Y49326997D01*
X-35964241Y49326998D01*
X-35964235Y49327004D01*
X-35848785Y49520236D01*
X-35826693Y49579103D01*
X-35784708Y49634949D01*
X-35719194Y49659233D01*
X-35650952Y49644242D01*
X-35601647Y49594736D01*
X-35598880Y49589332D01*
X-35517833Y49421034D01*
X-35517829Y49421026D01*
X-35385525Y49238924D01*
X-35353810Y49208603D01*
X-35318956Y49148047D01*
X-35315500Y49118975D01*
X-35315500Y45649006D01*
X-35335185Y45581967D01*
X-35351819Y45561325D01*
X-39211325Y41701819D01*
X-39272648Y41668334D01*
X-39299006Y41665500D01*
X-53959888Y41665500D01*
X-53964923Y41665705D01*
X-54021845Y41670340D01*
X-54021847Y41670340D01*
X-54021848Y41670340D01*
X-54104463Y41659084D01*
X-54187320Y41650073D01*
X-54187510Y41650008D01*
X-54210335Y41644659D01*
X-54210534Y41644632D01*
X-54288795Y41615881D01*
X-54367780Y41589268D01*
X-54367783Y41589266D01*
X-54367960Y41589159D01*
X-54389089Y41579035D01*
X-54389287Y41578963D01*
X-54459537Y41534060D01*
X-54530957Y41491088D01*
X-54530959Y41491086D01*
X-54531110Y41490942D01*
X-54549564Y41476515D01*
X-54549740Y41476403D01*
X-54549745Y41476399D01*
X-54608698Y41417448D01*
X-54669204Y41360133D01*
X-54669208Y41360129D01*
X-54669319Y41359964D01*
X-54684263Y41341883D01*
X-68687127Y27339018D01*
X-68690830Y27335604D01*
X-68734359Y27298630D01*
X-68784809Y27232263D01*
X-68837030Y27167299D01*
X-68837032Y27167296D01*
X-68837121Y27167115D01*
X-68849471Y27147204D01*
X-68849600Y27147036D01*
X-68849603Y27147030D01*
X-68870395Y27102087D01*
X-68884611Y27071360D01*
X-68903202Y27033876D01*
X-68921641Y26996695D01*
X-68921646Y26996681D01*
X-68921691Y26996497D01*
X-68929473Y26974391D01*
X-68929559Y26974206D01*
X-68929562Y26974197D01*
X-68947486Y26892771D01*
X-68967601Y26811887D01*
X-68967606Y26811690D01*
X-68970455Y26788425D01*
X-68970500Y26788222D01*
X-68970500Y26704840D01*
X-68972757Y26621527D01*
X-68972722Y26621345D01*
X-68970500Y26597977D01*
X-68970500Y25295049D01*
X-68990185Y25228010D01*
X-69006819Y25207368D01*
X-69095046Y25119142D01*
X-69225568Y24932735D01*
X-69225569Y24932733D01*
X-69321739Y24726498D01*
X-69321742Y24726489D01*
X-69380634Y24506698D01*
X-69380636Y24506687D01*
X-69400468Y24280002D01*
X-69400468Y24279999D01*
X-69380636Y24053314D01*
X-69380634Y24053303D01*
X-69321742Y23833512D01*
X-69321739Y23833503D01*
X-69225569Y23627268D01*
X-69225568Y23627266D01*
X-69095046Y23440859D01*
X-68934142Y23279955D01*
X-68934139Y23279953D01*
X-68747734Y23149432D01*
X-68541496Y23053261D01*
X-68321692Y22994365D01*
X-68159770Y22980199D01*
X-68095002Y22974532D01*
X-68095000Y22974532D01*
X-68094998Y22974532D01*
X-68038327Y22979491D01*
X-67868308Y22994365D01*
X-67648504Y23053261D01*
X-67479370Y23132130D01*
X-65885500Y23132130D01*
X-65885499Y23132124D01*
X-65879092Y23072517D01*
X-65828798Y22937672D01*
X-65828794Y22937665D01*
X-65742548Y22822456D01*
X-65742545Y22822453D01*
X-65627336Y22736207D01*
X-65627329Y22736203D01*
X-65492483Y22685909D01*
X-65492484Y22685909D01*
X-65485556Y22685165D01*
X-65432873Y22679500D01*
X-63137128Y22679501D01*
X-63077517Y22685909D01*
X-62942669Y22736204D01*
X-62827454Y22822454D01*
X-62741204Y22937669D01*
X-62737040Y22948835D01*
X-62695171Y23004766D01*
X-62629707Y23029184D01*
X-62620859Y23029500D01*
X-61304998Y23029500D01*
X-61299597Y23029265D01*
X-61195244Y23020135D01*
X-61110002Y23012677D01*
X-61110000Y23012677D01*
X-61109998Y23012677D01*
X-61054983Y23017491D01*
X-60889932Y23031930D01*
X-60676550Y23089106D01*
X-60476338Y23182466D01*
X-60295380Y23309174D01*
X-60139174Y23465380D01*
X-60012466Y23646338D01*
X-59919106Y23846550D01*
X-59861930Y24059932D01*
X-59842677Y24280000D01*
X-59846011Y24318103D01*
X-59861930Y24500063D01*
X-59861930Y24500068D01*
X-59919106Y24713450D01*
X-60012466Y24913661D01*
X-60139174Y25094620D01*
X-60295380Y25250826D01*
X-60295384Y25250829D01*
X-60295385Y25250830D01*
X-60476334Y25377532D01*
X-60476338Y25377534D01*
X-60584291Y25427873D01*
X-60676550Y25470894D01*
X-60676553Y25470895D01*
X-60676555Y25470896D01*
X-60889930Y25528070D01*
X-60889938Y25528071D01*
X-61109998Y25547323D01*
X-61110002Y25547323D01*
X-61195244Y25539866D01*
X-61299597Y25530736D01*
X-61304998Y25530500D01*
X-62620859Y25530500D01*
X-62687898Y25550185D01*
X-62733653Y25602989D01*
X-62737031Y25611141D01*
X-62741204Y25622331D01*
X-62741207Y25622335D01*
X-62741207Y25622336D01*
X-62827453Y25737545D01*
X-62827456Y25737548D01*
X-62942665Y25823794D01*
X-62942672Y25823798D01*
X-63077518Y25874092D01*
X-63077517Y25874092D01*
X-63137117Y25880499D01*
X-63137119Y25880500D01*
X-63137127Y25880500D01*
X-63137136Y25880500D01*
X-65432871Y25880500D01*
X-65432877Y25880499D01*
X-65492484Y25874092D01*
X-65627329Y25823798D01*
X-65627336Y25823794D01*
X-65742545Y25737548D01*
X-65742548Y25737545D01*
X-65828794Y25622336D01*
X-65828798Y25622329D01*
X-65879092Y25487483D01*
X-65885499Y25427884D01*
X-65885500Y25427865D01*
X-65885500Y23132130D01*
X-67479370Y23132130D01*
X-67442266Y23149432D01*
X-67255861Y23279953D01*
X-67094953Y23440861D01*
X-66964432Y23627266D01*
X-66868261Y23833504D01*
X-66809365Y24053308D01*
X-66789532Y24280000D01*
X-66809365Y24506692D01*
X-66868261Y24726496D01*
X-66964432Y24932734D01*
X-67094953Y25119139D01*
X-67094955Y25119142D01*
X-67183181Y25207368D01*
X-67216666Y25268691D01*
X-67219500Y25295049D01*
X-67219500Y26278994D01*
X-67199815Y26346033D01*
X-67183181Y26366675D01*
X-53671675Y39878181D01*
X-53610352Y39911666D01*
X-53583994Y39914500D01*
X-38923102Y39914500D01*
X-38918068Y39914295D01*
X-38861156Y39909661D01*
X-38861155Y39909662D01*
X-38861152Y39909661D01*
X-38778559Y39920915D01*
X-38695684Y39929927D01*
X-38695519Y39929983D01*
X-38672643Y39935345D01*
X-38672463Y39935369D01*
X-38594207Y39964120D01*
X-38515220Y39990733D01*
X-38515072Y39990822D01*
X-38493884Y40000976D01*
X-38493712Y40001039D01*
X-38423464Y40045941D01*
X-38352046Y40088911D01*
X-38351917Y40089034D01*
X-38333403Y40103506D01*
X-38333393Y40103513D01*
X-38333256Y40103600D01*
X-38303781Y40133077D01*
X-38274304Y40162552D01*
X-38243230Y40191989D01*
X-38213793Y40219871D01*
X-38213694Y40220017D01*
X-38198736Y40238122D01*
X-33847858Y44589000D01*
X-33844190Y44592382D01*
X-33800643Y44629369D01*
X-33750192Y44695738D01*
X-33697970Y44760703D01*
X-33697891Y44760862D01*
X-33685511Y44780823D01*
X-33685398Y44780971D01*
X-33650390Y44856641D01*
X-33613359Y44931307D01*
X-33613315Y44931486D01*
X-33605516Y44953637D01*
X-33605438Y44953803D01*
X-33587516Y45035225D01*
X-33567400Y45116110D01*
X-33567396Y45116286D01*
X-33564539Y45139609D01*
X-33564500Y45139784D01*
X-33564500Y45223160D01*
X-33562243Y45306473D01*
X-33562280Y45306666D01*
X-33564500Y45330025D01*
X-33564500Y49119921D01*
X-33544815Y49186960D01*
X-33533880Y49201506D01*
X-33424241Y49326997D01*
X-33424241Y49326998D01*
X-33424235Y49327004D01*
X-33308785Y49520236D01*
X-33286693Y49579103D01*
X-33244708Y49634949D01*
X-33179194Y49659233D01*
X-33110952Y49644242D01*
X-33061647Y49594736D01*
X-33058880Y49589332D01*
X-32977833Y49421034D01*
X-32977829Y49421026D01*
X-32845527Y49238928D01*
X-32845526Y49238926D01*
X-32845523Y49238923D01*
X-32845522Y49238922D01*
X-32720067Y49118975D01*
X-32682824Y49083367D01*
X-32494967Y48959364D01*
X-32287996Y48870900D01*
X-32287993Y48870899D01*
X-32287988Y48870897D01*
X-32068537Y48820809D01*
X-31843670Y48810710D01*
X-31620613Y48840925D01*
X-31406536Y48910483D01*
X-31208319Y49017148D01*
X-31032334Y49157492D01*
X-30884235Y49327004D01*
X-30768785Y49520236D01*
X-30746693Y49579103D01*
X-30704708Y49634949D01*
X-30639194Y49659233D01*
X-30570952Y49644242D01*
X-30521647Y49594736D01*
X-30518880Y49589332D01*
X-30437833Y49421034D01*
X-30437829Y49421026D01*
X-30305527Y49238928D01*
X-30305526Y49238926D01*
X-30305523Y49238923D01*
X-30305522Y49238922D01*
X-30180067Y49118975D01*
X-30142824Y49083367D01*
X-29954967Y48959364D01*
X-29747996Y48870900D01*
X-29747993Y48870899D01*
X-29747988Y48870897D01*
X-29528537Y48820809D01*
X-29303670Y48810710D01*
X-29080613Y48840925D01*
X-28866536Y48910483D01*
X-28668319Y49017148D01*
X-28492334Y49157492D01*
X-28344235Y49327004D01*
X-28228785Y49520236D01*
X-28206693Y49579103D01*
X-28164708Y49634949D01*
X-28099194Y49659233D01*
X-28030952Y49644242D01*
X-27981647Y49594736D01*
X-27978880Y49589332D01*
X-27897833Y49421034D01*
X-27897829Y49421026D01*
X-27765527Y49238928D01*
X-27765526Y49238926D01*
X-27765523Y49238923D01*
X-27765522Y49238922D01*
X-27640067Y49118975D01*
X-27602824Y49083367D01*
X-27414967Y48959364D01*
X-27207996Y48870900D01*
X-27207993Y48870899D01*
X-27207988Y48870897D01*
X-26988537Y48820809D01*
X-26763670Y48810710D01*
X-26692703Y48820324D01*
X-26623633Y48809817D01*
X-26571204Y48763633D01*
X-26552066Y48696435D01*
X-26572296Y48629559D01*
X-26588381Y48609765D01*
X-45192127Y30006018D01*
X-45195830Y30002604D01*
X-45239359Y29965630D01*
X-45289809Y29899263D01*
X-45342030Y29834299D01*
X-45342032Y29834296D01*
X-45342121Y29834115D01*
X-45354471Y29814204D01*
X-45354600Y29814036D01*
X-45354603Y29814030D01*
X-45368302Y29784418D01*
X-45389611Y29738360D01*
X-45408202Y29700876D01*
X-45426641Y29663695D01*
X-45426646Y29663681D01*
X-45426691Y29663497D01*
X-45434473Y29641391D01*
X-45434559Y29641206D01*
X-45434562Y29641197D01*
X-45452486Y29559771D01*
X-45472601Y29478887D01*
X-45472606Y29478690D01*
X-45475455Y29455425D01*
X-45475500Y29455222D01*
X-45475500Y29371840D01*
X-45477757Y29288527D01*
X-45477722Y29288345D01*
X-45475500Y29264977D01*
X-45475500Y28650080D01*
X-45495185Y28583041D01*
X-45506115Y28568501D01*
X-45574358Y28490390D01*
X-45615767Y28442994D01*
X-45731213Y28249768D01*
X-45731218Y28249759D01*
X-45753309Y28190898D01*
X-45795295Y28135050D01*
X-45860809Y28110768D01*
X-45929051Y28125760D01*
X-45978355Y28175267D01*
X-45981101Y28180627D01*
X-46062171Y28348973D01*
X-46164916Y28490390D01*
X-46194474Y28531073D01*
X-46194475Y28531075D01*
X-46357177Y28686634D01*
X-46545034Y28810637D01*
X-46752005Y28899101D01*
X-46752018Y28899105D01*
X-46971458Y28949190D01*
X-46971462Y28949191D01*
X-46971463Y28949191D01*
X-46971464Y28949192D01*
X-46971469Y28949192D01*
X-47196326Y28959290D01*
X-47196327Y28959290D01*
X-47196330Y28959290D01*
X-47419387Y28929075D01*
X-47419390Y28929075D01*
X-47419391Y28929074D01*
X-47633466Y28859517D01*
X-47831679Y28752854D01*
X-47831682Y28752852D01*
X-48007664Y28612511D01*
X-48078814Y28531073D01*
X-48155765Y28442996D01*
X-48193908Y28379155D01*
X-48271213Y28249768D01*
X-48271218Y28249759D01*
X-48293309Y28190898D01*
X-48335295Y28135050D01*
X-48400809Y28110768D01*
X-48469051Y28125760D01*
X-48518355Y28175267D01*
X-48521101Y28180627D01*
X-48602171Y28348973D01*
X-48704916Y28490390D01*
X-48734474Y28531073D01*
X-48734475Y28531075D01*
X-48897177Y28686634D01*
X-49085034Y28810637D01*
X-49292005Y28899101D01*
X-49292018Y28899105D01*
X-49511458Y28949190D01*
X-49511462Y28949191D01*
X-49511463Y28949191D01*
X-49511464Y28949192D01*
X-49511469Y28949192D01*
X-49736326Y28959290D01*
X-49736327Y28959290D01*
X-49736330Y28959290D01*
X-49959387Y28929075D01*
X-49959390Y28929075D01*
X-49959391Y28929074D01*
X-50173466Y28859517D01*
X-50371679Y28752854D01*
X-50371682Y28752852D01*
X-50547664Y28612511D01*
X-50618814Y28531073D01*
X-50695765Y28442996D01*
X-50733908Y28379155D01*
X-50811213Y28249768D01*
X-50811218Y28249759D01*
X-50833309Y28190898D01*
X-50875295Y28135050D01*
X-50940809Y28110768D01*
X-51009051Y28125760D01*
X-51058355Y28175267D01*
X-51061101Y28180627D01*
X-51142171Y28348973D01*
X-51244916Y28490390D01*
X-51274474Y28531073D01*
X-51274475Y28531075D01*
X-51437177Y28686634D01*
X-51625034Y28810637D01*
X-51832005Y28899101D01*
X-51832018Y28899105D01*
X-52051458Y28949190D01*
X-52051462Y28949191D01*
X-52051463Y28949191D01*
X-52051464Y28949192D01*
X-52051469Y28949192D01*
X-52276326Y28959290D01*
X-52276327Y28959290D01*
X-52276330Y28959290D01*
X-52499387Y28929075D01*
X-52499390Y28929075D01*
X-52499391Y28929074D01*
X-52713466Y28859517D01*
X-52911679Y28752854D01*
X-52911682Y28752852D01*
X-53087664Y28612511D01*
X-53158814Y28531073D01*
X-53235765Y28442996D01*
X-53273908Y28379155D01*
X-53351213Y28249768D01*
X-53351218Y28249759D01*
X-53373309Y28190898D01*
X-53415295Y28135050D01*
X-53480809Y28110768D01*
X-53549051Y28125760D01*
X-53598355Y28175267D01*
X-53601101Y28180627D01*
X-53682171Y28348973D01*
X-53784916Y28490390D01*
X-53814474Y28531073D01*
X-53814475Y28531075D01*
X-53977177Y28686634D01*
X-54165034Y28810637D01*
X-54372005Y28899101D01*
X-54372018Y28899105D01*
X-54591458Y28949190D01*
X-54591462Y28949191D01*
X-54591463Y28949191D01*
X-54591464Y28949192D01*
X-54591469Y28949192D01*
X-54816326Y28959290D01*
X-54816327Y28959290D01*
X-54816330Y28959290D01*
X-55039387Y28929075D01*
X-55039390Y28929075D01*
X-55039391Y28929074D01*
X-55253466Y28859517D01*
X-55451679Y28752854D01*
X-55451682Y28752852D01*
X-55627664Y28612511D01*
X-55698814Y28531073D01*
X-55775765Y28442996D01*
X-55813908Y28379155D01*
X-55891213Y28249768D01*
X-55891218Y28249759D01*
X-55913309Y28190898D01*
X-55955295Y28135050D01*
X-56020809Y28110768D01*
X-56089051Y28125760D01*
X-56138355Y28175267D01*
X-56141101Y28180627D01*
X-56222171Y28348973D01*
X-56324916Y28490390D01*
X-56354474Y28531073D01*
X-56354475Y28531075D01*
X-56517177Y28686634D01*
X-56705034Y28810637D01*
X-56912005Y28899101D01*
X-56912018Y28899105D01*
X-57131458Y28949190D01*
X-57131462Y28949191D01*
X-57131463Y28949191D01*
X-57131464Y28949192D01*
X-57131469Y28949192D01*
X-57356326Y28959290D01*
X-57356327Y28959290D01*
X-57356330Y28959290D01*
X-57579387Y28929075D01*
X-57579390Y28929075D01*
X-57579391Y28929074D01*
X-57793466Y28859517D01*
X-57991679Y28752854D01*
X-57991682Y28752852D01*
X-58167664Y28612511D01*
X-58238814Y28531073D01*
X-58315765Y28442996D01*
X-58353908Y28379155D01*
X-58429099Y28253305D01*
X-58431215Y28249764D01*
X-58440527Y28224951D01*
X-58510308Y28039024D01*
X-58550500Y27817550D01*
X-58550500Y27817547D01*
X-58550500Y27148845D01*
X-58545887Y27097584D01*
X-58535378Y26980814D01*
X-58535377Y26980808D01*
X-58475497Y26763840D01*
X-58475492Y26763827D01*
X-58377833Y26561034D01*
X-58377829Y26561026D01*
X-58245527Y26378928D01*
X-58245526Y26378926D01*
X-58245523Y26378923D01*
X-58245522Y26378922D01*
X-58120067Y26258975D01*
X-58082824Y26223367D01*
X-57894967Y26099364D01*
X-57687996Y26010900D01*
X-57687993Y26010899D01*
X-57687988Y26010897D01*
X-57468537Y25960809D01*
X-57243670Y25950710D01*
X-57020613Y25980925D01*
X-56806536Y26050483D01*
X-56608319Y26157148D01*
X-56432334Y26297492D01*
X-56284235Y26467004D01*
X-56168785Y26660236D01*
X-56146693Y26719103D01*
X-56104708Y26774949D01*
X-56039194Y26799233D01*
X-55970952Y26784242D01*
X-55921647Y26734736D01*
X-55918880Y26729332D01*
X-55837833Y26561034D01*
X-55837829Y26561026D01*
X-55705527Y26378928D01*
X-55705526Y26378926D01*
X-55705523Y26378923D01*
X-55705522Y26378922D01*
X-55580067Y26258975D01*
X-55542824Y26223367D01*
X-55354967Y26099364D01*
X-55147996Y26010900D01*
X-55147993Y26010899D01*
X-55147988Y26010897D01*
X-54928537Y25960809D01*
X-54703670Y25950710D01*
X-54480613Y25980925D01*
X-54266536Y26050483D01*
X-54068319Y26157148D01*
X-53892334Y26297492D01*
X-53744235Y26467004D01*
X-53628785Y26660236D01*
X-53606693Y26719103D01*
X-53564708Y26774949D01*
X-53499194Y26799233D01*
X-53430952Y26784242D01*
X-53381647Y26734736D01*
X-53378880Y26729332D01*
X-53297833Y26561034D01*
X-53297829Y26561026D01*
X-53165525Y26378924D01*
X-53133810Y26348603D01*
X-53098956Y26288047D01*
X-53095500Y26258975D01*
X-53095500Y23048103D01*
X-53095705Y23043069D01*
X-53100340Y22986157D01*
X-53089086Y22903559D01*
X-53080073Y22820684D01*
X-53080071Y22820673D01*
X-53080010Y22820494D01*
X-53074660Y22797669D01*
X-53074634Y22797475D01*
X-53074632Y22797465D01*
X-53074631Y22797463D01*
X-53060966Y22760268D01*
X-53045881Y22719206D01*
X-53019270Y22640226D01*
X-53019266Y22640218D01*
X-53019168Y22640055D01*
X-53009031Y22618901D01*
X-53008964Y22618717D01*
X-53008962Y22618714D01*
X-53008961Y22618712D01*
X-52964060Y22548464D01*
X-52921089Y22477046D01*
X-52920958Y22476908D01*
X-52906505Y22458421D01*
X-52906398Y22458253D01*
X-52847448Y22399304D01*
X-52790129Y22338793D01*
X-52789972Y22338686D01*
X-52771879Y22323735D01*
X-46516008Y16067864D01*
X-46512604Y16064171D01*
X-46475638Y16020650D01*
X-46475637Y16020649D01*
X-46475635Y16020648D01*
X-46475631Y16020643D01*
X-46409263Y15970192D01*
X-46344301Y15917973D01*
X-46344299Y15917971D01*
X-46344128Y15917886D01*
X-46324186Y15905517D01*
X-46324029Y15905398D01*
X-46248360Y15870390D01*
X-46173693Y15833359D01*
X-46173519Y15833316D01*
X-46151374Y15825520D01*
X-46151197Y15825438D01*
X-46151194Y15825438D01*
X-46151193Y15825437D01*
X-46151194Y15825437D01*
X-46069772Y15807515D01*
X-46053663Y15803510D01*
X-45988889Y15787400D01*
X-45988716Y15787396D01*
X-45965398Y15784540D01*
X-45965216Y15784500D01*
X-45965213Y15784500D01*
X-45881840Y15784500D01*
X-45798527Y15782243D01*
X-45798345Y15782279D01*
X-45774977Y15784500D01*
X-20418906Y15784500D01*
X-20351867Y15764815D01*
X-20306112Y15712011D01*
X-20296168Y15642853D01*
X-20325193Y15579297D01*
X-20358731Y15552080D01*
X-20388622Y15535490D01*
X-20395716Y15532121D01*
X-20427618Y15519377D01*
X-20427623Y15519375D01*
X-20478844Y15485619D01*
X-20482872Y15483178D01*
X-20536499Y15453412D01*
X-20562566Y15431035D01*
X-20568835Y15426308D01*
X-20597516Y15407405D01*
X-20597522Y15407400D01*
X-20640891Y15364032D01*
X-20644345Y15360831D01*
X-20690898Y15320864D01*
X-20711924Y15293702D01*
X-20717115Y15287808D01*
X-26820518Y9184402D01*
X-26863884Y9141037D01*
X-26867339Y9137836D01*
X-26913894Y9097868D01*
X-26913895Y9097867D01*
X-26934924Y9070700D01*
X-26940116Y9064806D01*
X-30693468Y5311454D01*
X-30758054Y5250058D01*
X-30793101Y5199706D01*
X-30795938Y5195944D01*
X-30834698Y5148408D01*
X-30834701Y5148403D01*
X-30850608Y5117953D01*
X-30854676Y5111239D01*
X-30874298Y5083046D01*
X-30898491Y5026670D01*
X-30900512Y5022416D01*
X-30928909Y4968049D01*
X-30928910Y4968048D01*
X-30938360Y4935025D01*
X-30940993Y4927629D01*
X-30954541Y4896057D01*
X-30966887Y4835981D01*
X-30968010Y4831405D01*
X-30984887Y4772423D01*
X-30984887Y4772421D01*
X-30987497Y4738159D01*
X-30988586Y4730392D01*
X-30994020Y4703948D01*
X-30995500Y4696742D01*
X-30995500Y4635403D01*
X-30995679Y4630694D01*
X-31000338Y4569526D01*
X-30998293Y4553473D01*
X-30995997Y4535440D01*
X-30995500Y4527612D01*
X-30995500Y4314500D01*
X-31015185Y4247461D01*
X-31067989Y4201706D01*
X-31119500Y4190500D01*
X-36801857Y4190500D01*
X-36868896Y4210185D01*
X-36895944Y4233731D01*
X-36907731Y4247461D01*
X-36922134Y4264239D01*
X-36949306Y4285272D01*
X-36955193Y4290457D01*
X-50023204Y17358468D01*
X-50084597Y17423053D01*
X-50112452Y17442441D01*
X-50134947Y17458098D01*
X-50138710Y17460936D01*
X-50186243Y17499695D01*
X-50186250Y17499700D01*
X-50216697Y17515603D01*
X-50223405Y17519666D01*
X-50251607Y17539295D01*
X-50251610Y17539297D01*
X-50251611Y17539297D01*
X-50251615Y17539299D01*
X-50307976Y17563486D01*
X-50312232Y17565507D01*
X-50366599Y17593906D01*
X-50366606Y17593909D01*
X-50366607Y17593909D01*
X-50372648Y17595638D01*
X-50399626Y17603358D01*
X-50407026Y17605992D01*
X-50438599Y17619541D01*
X-50438598Y17619541D01*
X-50498690Y17631891D01*
X-50503265Y17633014D01*
X-50562236Y17649887D01*
X-50562231Y17649887D01*
X-50596498Y17652497D01*
X-50604276Y17653588D01*
X-50637914Y17660500D01*
X-50637915Y17660500D01*
X-50699254Y17660500D01*
X-50703961Y17660679D01*
X-50709535Y17661104D01*
X-50765132Y17665338D01*
X-50785067Y17662799D01*
X-50799216Y17660997D01*
X-50807045Y17660500D01*
X-62977547Y17660500D01*
X-63044586Y17680185D01*
X-63071834Y17703966D01*
X-63149776Y17795224D01*
X-63256926Y17886739D01*
X-63341344Y17958839D01*
X-63341347Y17958840D01*
X-63556141Y18090467D01*
X-63788890Y18186874D01*
X-64033849Y18245683D01*
X-64285000Y18265449D01*
X-64536152Y18245683D01*
X-64781111Y18186874D01*
X-65013860Y18090467D01*
X-65228654Y17958840D01*
X-65228657Y17958839D01*
X-65420224Y17795225D01*
X-65424200Y17790569D01*
X-65498165Y17703968D01*
X-65556669Y17665775D01*
X-65592453Y17660500D01*
X-67217412Y17660500D01*
X-67284451Y17680185D01*
X-67288535Y17682925D01*
X-67442266Y17790568D01*
X-67442268Y17790569D01*
X-67648503Y17886739D01*
X-67648512Y17886742D01*
X-67868303Y17945634D01*
X-67868307Y17945635D01*
X-67868308Y17945635D01*
X-67868309Y17945636D01*
X-67868314Y17945636D01*
X-68094998Y17965468D01*
X-68095002Y17965468D01*
X-68321687Y17945636D01*
X-68321698Y17945634D01*
X-68541489Y17886742D01*
X-68541498Y17886739D01*
X-68747733Y17790569D01*
X-68747735Y17790568D01*
X-68934142Y17660046D01*
X-69095046Y17499142D01*
X-69225568Y17312735D01*
X-69225569Y17312733D01*
X-69321739Y17106498D01*
X-69321742Y17106489D01*
X-69380634Y16886698D01*
X-69380636Y16886687D01*
X-69400468Y16660002D01*
X-69400468Y16659999D01*
X-69380636Y16433314D01*
X-69380634Y16433303D01*
X-69321742Y16213512D01*
X-69321739Y16213503D01*
X-69225569Y16007268D01*
X-69225568Y16007266D01*
X-69095046Y15820859D01*
X-68934142Y15659955D01*
X-68905379Y15639815D01*
X-68747734Y15529432D01*
X-68541496Y15433261D01*
X-68541491Y15433260D01*
X-68541489Y15433259D01*
X-68523616Y15428470D01*
X-68321692Y15374365D01*
X-68166998Y15360831D01*
X-68095002Y15354532D01*
X-68095000Y15354532D01*
X-68094998Y15354532D01*
X-68038327Y15359491D01*
X-67868308Y15374365D01*
X-67648504Y15433261D01*
X-67442266Y15529432D01*
X-67288535Y15637076D01*
X-67222329Y15659402D01*
X-67217412Y15659500D01*
X-65592453Y15659500D01*
X-65525414Y15639815D01*
X-65498167Y15616035D01*
X-65427742Y15533579D01*
X-65420224Y15524776D01*
X-65228657Y15361162D01*
X-65228655Y15361162D01*
X-65221761Y15356937D01*
X-65013860Y15229534D01*
X-64781111Y15133127D01*
X-64536148Y15074317D01*
X-64285000Y15054551D01*
X-64033852Y15074317D01*
X-63788889Y15133127D01*
X-63556141Y15229534D01*
X-63341341Y15361164D01*
X-63149776Y15524776D01*
X-63071836Y15616033D01*
X-63013331Y15654225D01*
X-62977547Y15659500D01*
X-51205439Y15659500D01*
X-51138400Y15639815D01*
X-51117758Y15623181D01*
X-39887420Y4392843D01*
X-39853935Y4331520D01*
X-39858919Y4261828D01*
X-39900791Y4205895D01*
X-39966255Y4181478D01*
X-39985340Y4181585D01*
X-40061490Y4187895D01*
X-40092933Y4190500D01*
X-47842067Y4190500D01*
X-47861479Y4188892D01*
X-48027814Y4175110D01*
X-48027825Y4175108D01*
X-48268882Y4114064D01*
X-48496607Y4014174D01*
X-48704783Y3878167D01*
X-48836749Y3756683D01*
X-48899404Y3725761D01*
X-48968830Y3733621D01*
X-49020359Y3775628D01*
X-49020888Y3775231D01*
X-49022480Y3777357D01*
X-49022985Y3777769D01*
X-49023885Y3779234D01*
X-49112453Y3897545D01*
X-49112456Y3897548D01*
X-49227665Y3983794D01*
X-49227672Y3983798D01*
X-49362518Y4034092D01*
X-49362517Y4034092D01*
X-49422117Y4040499D01*
X-49422119Y4040500D01*
X-49422127Y4040500D01*
X-49422135Y4040500D01*
X-49637413Y4040500D01*
X-49687222Y4050944D01*
X-49831119Y4114063D01*
X-49831121Y4114064D01*
X-49831122Y4114064D01*
X-50072176Y4175108D01*
X-50072187Y4175110D01*
X-50237452Y4188803D01*
X-50257933Y4190500D01*
X-56722067Y4190500D01*
X-56741479Y4188892D01*
X-56907814Y4175110D01*
X-56907825Y4175108D01*
X-57148880Y4114064D01*
X-57148884Y4114062D01*
X-57292781Y4050944D01*
X-57342589Y4040500D01*
X-57557870Y4040500D01*
X-57557877Y4040499D01*
X-57617484Y4034092D01*
X-57752329Y3983798D01*
X-57752336Y3983794D01*
X-57867545Y3897548D01*
X-57867548Y3897545D01*
X-57953794Y3782336D01*
X-57953798Y3782329D01*
X-58004092Y3647483D01*
X-58008911Y3602654D01*
X-58010499Y3587877D01*
X-58010500Y3587865D01*
X-58010500Y3378558D01*
X-58025445Y3319542D01*
X-58038823Y3294823D01*
X-58038830Y3294806D01*
X-58119571Y3059617D01*
X-58160500Y2814335D01*
X-58160500Y2565666D01*
X-58119571Y2320384D01*
X-58048162Y2112377D01*
X-58038828Y2085190D01*
X-58025444Y2060458D01*
X-58010500Y2001445D01*
X-58010500Y1792131D01*
X-58010499Y1792124D01*
X-58004092Y1732517D01*
X-57953798Y1597672D01*
X-57953794Y1597665D01*
X-57867548Y1482456D01*
X-57867545Y1482453D01*
X-57752336Y1396207D01*
X-57752329Y1396203D01*
X-57707382Y1379439D01*
X-57617483Y1345909D01*
X-57557873Y1339500D01*
X-57342591Y1339501D01*
X-57292780Y1329057D01*
X-57148882Y1265937D01*
X-56907825Y1204893D01*
X-56907821Y1204892D01*
X-56907819Y1204892D01*
X-56907814Y1204891D01*
X-56774624Y1193855D01*
X-56722067Y1189500D01*
X-56722065Y1189500D01*
X-50257935Y1189500D01*
X-50257933Y1189500D01*
X-50196716Y1194573D01*
X-50072187Y1204891D01*
X-50072184Y1204892D01*
X-50072179Y1204892D01*
X-49831119Y1265937D01*
X-49687220Y1329058D01*
X-49637411Y1339501D01*
X-49422129Y1339501D01*
X-49422128Y1339501D01*
X-49362517Y1345909D01*
X-49227669Y1396204D01*
X-49112454Y1482454D01*
X-49080707Y1524864D01*
X-49020888Y1604769D01*
X-49018270Y1602809D01*
X-48980161Y1640919D01*
X-48911889Y1655772D01*
X-48846424Y1631357D01*
X-48836757Y1623325D01*
X-48808887Y1597669D01*
X-48704783Y1501834D01*
X-48496607Y1365827D01*
X-48268882Y1265937D01*
X-48027825Y1204893D01*
X-48027821Y1204892D01*
X-48027819Y1204892D01*
X-48027814Y1204891D01*
X-47894624Y1193855D01*
X-47842067Y1189500D01*
X-47842065Y1189500D01*
X-40092935Y1189500D01*
X-40092933Y1189500D01*
X-40031716Y1194573D01*
X-39907187Y1204891D01*
X-39907184Y1204892D01*
X-39907179Y1204892D01*
X-39666119Y1265937D01*
X-39522220Y1329058D01*
X-39472411Y1339501D01*
X-39257129Y1339501D01*
X-39257128Y1339501D01*
X-39197517Y1345909D01*
X-39062669Y1396204D01*
X-38947454Y1482454D01*
X-38915707Y1524864D01*
X-38855888Y1604769D01*
X-38853270Y1602809D01*
X-38815161Y1640919D01*
X-38746889Y1655772D01*
X-38681424Y1631357D01*
X-38671757Y1623325D01*
X-38643887Y1597669D01*
X-38539783Y1501834D01*
X-38331607Y1365827D01*
X-38103882Y1265937D01*
X-37862825Y1204893D01*
X-37862821Y1204892D01*
X-37862819Y1204892D01*
X-37862814Y1204891D01*
X-37729624Y1193855D01*
X-37677067Y1189500D01*
X-37677065Y1189500D01*
X-29932935Y1189500D01*
X-29932933Y1189500D01*
X-29871716Y1194573D01*
X-29747187Y1204891D01*
X-29747184Y1204892D01*
X-29747179Y1204892D01*
X-29506119Y1265937D01*
X-29362220Y1329058D01*
X-29312411Y1339501D01*
X-29097129Y1339501D01*
X-29097128Y1339501D01*
X-29037517Y1345909D01*
X-28902669Y1396204D01*
X-28787454Y1482454D01*
X-28701204Y1597669D01*
X-28650909Y1732517D01*
X-28644500Y1792127D01*
X-28644501Y2001443D01*
X-28629554Y2060464D01*
X-28616172Y2085190D01*
X-28535429Y2320386D01*
X-28494500Y2565665D01*
X-28494500Y2814335D01*
X-28535429Y3059614D01*
X-28616172Y3294810D01*
X-28629557Y3319544D01*
X-28644501Y3378560D01*
X-28644501Y3587871D01*
X-28644502Y3587877D01*
X-28644503Y3587884D01*
X-28650909Y3647483D01*
X-28680105Y3725761D01*
X-28701203Y3782329D01*
X-28701207Y3782336D01*
X-28787453Y3897545D01*
X-28787456Y3897548D01*
X-28902665Y3983794D01*
X-28902668Y3983795D01*
X-28902669Y3983796D01*
X-28913839Y3987962D01*
X-28969769Y4029834D01*
X-28994184Y4095299D01*
X-28994500Y4104142D01*
X-28994500Y4129217D01*
X-28974815Y4196256D01*
X-28958181Y4216898D01*
X-25806898Y7368181D01*
X-25745575Y7401666D01*
X-25719217Y7404500D01*
X-17620758Y7404500D01*
X-17553719Y7384815D01*
X-17533077Y7368181D01*
X-17531401Y7366505D01*
X-17434616Y7298735D01*
X-17337835Y7230968D01*
X-17337833Y7230967D01*
X-17337830Y7230965D01*
X-17123663Y7131097D01*
X-16895408Y7069937D01*
X-16723984Y7054939D01*
X-16660001Y7049341D01*
X-16660000Y7049341D01*
X-16659999Y7049341D01*
X-16620766Y7052774D01*
X-16424592Y7069937D01*
X-16196337Y7131097D01*
X-15982170Y7230965D01*
X-15810025Y7351502D01*
X-15787784Y7367075D01*
X-15721578Y7389402D01*
X-15716661Y7389500D01*
X-13810758Y7389500D01*
X-13743719Y7369815D01*
X-13723077Y7353181D01*
X-13721401Y7351505D01*
X-13624616Y7283735D01*
X-13527835Y7215968D01*
X-13527833Y7215967D01*
X-13527830Y7215965D01*
X-13313663Y7116097D01*
X-13085408Y7054937D01*
X-12897082Y7038461D01*
X-12850001Y7034341D01*
X-12850000Y7034341D01*
X-12849999Y7034341D01*
X-12810766Y7037774D01*
X-12614592Y7054937D01*
X-12386337Y7116097D01*
X-12172170Y7215965D01*
X-11978599Y7351505D01*
X-11811505Y7518599D01*
X-11675965Y7712170D01*
X-11576097Y7926337D01*
X-11514937Y8154592D01*
X-11494341Y8390000D01*
X-11514937Y8625408D01*
X-11576097Y8853663D01*
X-11675965Y9067829D01*
X-11696998Y9097867D01*
X-11811504Y9261400D01*
X-11811505Y9261401D01*
X-11933433Y9383329D01*
X-11966916Y9444649D01*
X-11961932Y9514341D01*
X-11920061Y9570275D01*
X-11889085Y9587190D01*
X-11757669Y9636204D01*
X-11642454Y9722454D01*
X-11556204Y9837669D01*
X-11505909Y9972517D01*
X-11499500Y10032127D01*
X-11499501Y11827872D01*
X-11505909Y11887483D01*
X-11511504Y11902483D01*
X-11556203Y12022329D01*
X-11556207Y12022336D01*
X-11642453Y12137545D01*
X-11642456Y12137548D01*
X-11757665Y12223794D01*
X-11757670Y12223797D01*
X-11893834Y12274583D01*
X-11949767Y12316455D01*
X-11974184Y12381919D01*
X-11974500Y12390765D01*
X-11974500Y15351902D01*
X-11974295Y15356937D01*
X-11972795Y15375370D01*
X-11969661Y15413848D01*
X-11979107Y15483178D01*
X-11980914Y15496443D01*
X-11982658Y15512469D01*
X-11970339Y15581244D01*
X-11922792Y15632441D01*
X-11855115Y15649805D01*
X-11788793Y15627824D01*
X-11771704Y15613560D01*
X-9951819Y13793675D01*
X-9918334Y13732352D01*
X-9915500Y13705994D01*
X-9915500Y12390765D01*
X-9935185Y12323726D01*
X-9987989Y12277971D01*
X-9996166Y12274583D01*
X-10132331Y12223797D01*
X-10132336Y12223794D01*
X-10247545Y12137548D01*
X-10247548Y12137545D01*
X-10333794Y12022336D01*
X-10333798Y12022329D01*
X-10384092Y11887483D01*
X-10390499Y11827884D01*
X-10390499Y11827877D01*
X-10390500Y11827865D01*
X-10390500Y10032130D01*
X-10390499Y10032124D01*
X-10384092Y9972517D01*
X-10333798Y9837672D01*
X-10333794Y9837665D01*
X-10247548Y9722456D01*
X-10247545Y9722453D01*
X-10132336Y9636207D01*
X-10132329Y9636203D01*
X-10000919Y9587190D01*
X-9944985Y9545319D01*
X-9920568Y9479855D01*
X-9935420Y9411582D01*
X-9956570Y9383327D01*
X-10078497Y9261400D01*
X-10214035Y9067831D01*
X-10214036Y9067829D01*
X-10313902Y8853665D01*
X-10313906Y8853656D01*
X-10375062Y8625414D01*
X-10375064Y8625404D01*
X-10395659Y8390001D01*
X-10395659Y8390000D01*
X-10375064Y8154597D01*
X-10375062Y8154587D01*
X-10313906Y7926345D01*
X-10313904Y7926341D01*
X-10313903Y7926337D01*
X-10214035Y7712170D01*
X-10214033Y7712166D01*
X-10105719Y7557479D01*
X-10078495Y7518599D01*
X-9911401Y7351505D01*
X-9814616Y7283735D01*
X-9717835Y7215968D01*
X-9717833Y7215967D01*
X-9717830Y7215965D01*
X-9503663Y7116097D01*
X-9275408Y7054937D01*
X-9087082Y7038461D01*
X-9040001Y7034341D01*
X-9040000Y7034341D01*
X-9039999Y7034341D01*
X-9000766Y7037774D01*
X-8804592Y7054937D01*
X-8576337Y7116097D01*
X-8362170Y7215965D01*
X-8168599Y7351505D01*
X-8001505Y7518599D01*
X-7865965Y7712170D01*
X-7766097Y7926337D01*
X-7704937Y8154592D01*
X-7684341Y8390000D01*
X-7704937Y8625408D01*
X-7766097Y8853663D01*
X-7865965Y9067829D01*
X-7886998Y9097867D01*
X-8001504Y9261400D01*
X-8001505Y9261401D01*
X-8123433Y9383329D01*
X-8156916Y9444649D01*
X-8151932Y9514341D01*
X-8110061Y9570275D01*
X-8079085Y9587190D01*
X-7947669Y9636204D01*
X-7832454Y9722454D01*
X-7746204Y9837669D01*
X-7695909Y9972517D01*
X-7689500Y10032127D01*
X-7689501Y11827872D01*
X-7695909Y11887483D01*
X-7701504Y11902483D01*
X-7746203Y12022329D01*
X-7746207Y12022336D01*
X-7832453Y12137545D01*
X-7832456Y12137548D01*
X-7947665Y12223794D01*
X-7947670Y12223797D01*
X-8083834Y12274583D01*
X-8139767Y12316455D01*
X-8164184Y12381919D01*
X-8164500Y12390765D01*
X-8164500Y14081890D01*
X-8164295Y14086925D01*
X-8162797Y14105328D01*
X-8159660Y14143848D01*
X-8170917Y14226463D01*
X-8179927Y14309316D01*
X-8179986Y14309491D01*
X-8185344Y14332351D01*
X-8185369Y14332537D01*
X-8214120Y14410794D01*
X-8240733Y14489780D01*
X-8240734Y14489782D01*
X-8240828Y14489939D01*
X-8250975Y14511113D01*
X-8251039Y14511288D01*
X-8295941Y14581537D01*
X-8338910Y14652953D01*
X-8339043Y14653093D01*
X-8353496Y14671581D01*
X-8353600Y14671744D01*
X-8412553Y14730697D01*
X-8469871Y14791207D01*
X-8470030Y14791315D01*
X-8488123Y14806267D01*
X-13064675Y19382819D01*
X-13098160Y19444142D01*
X-13093176Y19513834D01*
X-13051304Y19569767D01*
X-12985840Y19594184D01*
X-12976994Y19594500D01*
X-3739006Y19594500D01*
X-3671967Y19574815D01*
X-3651325Y19558181D01*
X-2966819Y18873675D01*
X-2933334Y18812352D01*
X-2930500Y18785994D01*
X-2930500Y15589309D01*
X-2950185Y15522270D01*
X-2966819Y15501628D01*
X-3025825Y15442623D01*
X-3152534Y15261662D01*
X-3152535Y15261660D01*
X-3245893Y15061452D01*
X-3245896Y15061446D01*
X-3303070Y14848071D01*
X-3303071Y14848063D01*
X-3322323Y14628003D01*
X-3322323Y14627998D01*
X-3303071Y14407938D01*
X-3303070Y14407930D01*
X-3245896Y14194555D01*
X-3245895Y14194553D01*
X-3245894Y14194550D01*
X-3222251Y14143848D01*
X-3152534Y13994338D01*
X-3152532Y13994334D01*
X-3025830Y13813385D01*
X-3025825Y13813379D01*
X-2869622Y13657176D01*
X-2869616Y13657171D01*
X-2688667Y13530469D01*
X-2688665Y13530468D01*
X-2688662Y13530466D01*
X-2488450Y13437106D01*
X-2275068Y13379930D01*
X-2117877Y13366178D01*
X-2055002Y13360677D01*
X-2055000Y13360677D01*
X-2054998Y13360677D01*
X-1999983Y13365491D01*
X-1834932Y13379930D01*
X-1621550Y13437106D01*
X-1421338Y13530466D01*
X-1240380Y13657174D01*
X-1084174Y13813380D01*
X-957466Y13994338D01*
X-864106Y14194550D01*
X-806930Y14407932D01*
X-787677Y14628000D01*
X-806930Y14848068D01*
X-864106Y15061450D01*
X-957466Y15261661D01*
X-1077621Y15433261D01*
X-1084176Y15442623D01*
X-1143181Y15501628D01*
X-1176666Y15562951D01*
X-1179500Y15589309D01*
X-1179500Y19161902D01*
X-1179295Y19166937D01*
X-1177795Y19185370D01*
X-1174661Y19223848D01*
X-1185915Y19306442D01*
X-1194927Y19389316D01*
X-1194986Y19389491D01*
X-1200344Y19412351D01*
X-1200369Y19412537D01*
X-1229120Y19490794D01*
X-1255733Y19569780D01*
X-1255734Y19569782D01*
X-1255828Y19569939D01*
X-1265975Y19591113D01*
X-1266039Y19591288D01*
X-1310941Y19661537D01*
X-1353911Y19732954D01*
X-1354045Y19733096D01*
X-1368496Y19751581D01*
X-1368600Y19751744D01*
X-1427553Y19810697D01*
X-1484871Y19871207D01*
X-1485030Y19871315D01*
X-1503123Y19886267D01*
X-1904037Y20287181D01*
X-2679001Y21062145D01*
X-2682392Y21065824D01*
X-2719369Y21109357D01*
X-2785738Y21159809D01*
X-2850703Y21212030D01*
X-2850706Y21212032D01*
X-2850880Y21212118D01*
X-2870818Y21224486D01*
X-2870971Y21224603D01*
X-2870973Y21224604D01*
X-2946641Y21259611D01*
X-3021307Y21296641D01*
X-3021311Y21296642D01*
X-3021320Y21296645D01*
X-3021512Y21296693D01*
X-3043615Y21304475D01*
X-3043802Y21304562D01*
X-3043806Y21304563D01*
X-3125229Y21322486D01*
X-3206115Y21342601D01*
X-3206311Y21342606D01*
X-3229587Y21345457D01*
X-3229778Y21345499D01*
X-3229781Y21345500D01*
X-3229784Y21345500D01*
X-3229788Y21345500D01*
X-3313160Y21345500D01*
X-3396473Y21347757D01*
X-3396474Y21347757D01*
X-3396655Y21347722D01*
X-3420023Y21345500D01*
X-22595994Y21345500D01*
X-22663033Y21365185D01*
X-22683675Y21381819D01*
X-25908181Y24606325D01*
X-25941666Y24667648D01*
X-25944500Y24694006D01*
X-25944500Y26259921D01*
X-25924815Y26326960D01*
X-25913880Y26341506D01*
X-25804241Y26466997D01*
X-25804241Y26466998D01*
X-25804235Y26467004D01*
X-25688785Y26660236D01*
X-25609693Y26870976D01*
X-25590959Y26974206D01*
X-25569500Y27092451D01*
X-25569500Y27761148D01*
X-25569500Y27761155D01*
X-25584623Y27929188D01*
X-25584624Y27929193D01*
X-25644504Y28146161D01*
X-25644509Y28146174D01*
X-25742168Y28348967D01*
X-25742172Y28348975D01*
X-25874474Y28531073D01*
X-25874475Y28531075D01*
X-26037177Y28686634D01*
X-26225034Y28810637D01*
X-26432005Y28899101D01*
X-26432018Y28899105D01*
X-26651458Y28949190D01*
X-26651462Y28949191D01*
X-26651463Y28949191D01*
X-26651464Y28949192D01*
X-26651469Y28949192D01*
X-26876326Y28959290D01*
X-26876327Y28959290D01*
X-26876330Y28959290D01*
X-27099387Y28929075D01*
X-27099390Y28929075D01*
X-27099391Y28929074D01*
X-27313466Y28859517D01*
X-27511679Y28752854D01*
X-27511682Y28752852D01*
X-27687664Y28612511D01*
X-27758814Y28531073D01*
X-27835765Y28442996D01*
X-27873908Y28379155D01*
X-27951213Y28249768D01*
X-27951218Y28249759D01*
X-27973309Y28190898D01*
X-28015295Y28135050D01*
X-28080809Y28110768D01*
X-28149051Y28125760D01*
X-28198355Y28175267D01*
X-28201101Y28180627D01*
X-28282171Y28348973D01*
X-28384916Y28490390D01*
X-28414474Y28531073D01*
X-28414475Y28531075D01*
X-28419803Y28536169D01*
X-28446193Y28561401D01*
X-28481044Y28621956D01*
X-28484500Y28651026D01*
X-28484500Y30215995D01*
X-28464815Y30283034D01*
X-28448181Y30303676D01*
X-26493676Y32258181D01*
X-26432353Y32291666D01*
X-26405995Y32294500D01*
X-17715309Y32294500D01*
X-17648270Y32274815D01*
X-17602515Y32222011D01*
X-17592571Y32152853D01*
X-17621596Y32089297D01*
X-17627628Y32082819D01*
X-17630825Y32079623D01*
X-17757534Y31898662D01*
X-17757535Y31898660D01*
X-17850893Y31698452D01*
X-17850896Y31698446D01*
X-17908070Y31485071D01*
X-17908071Y31485063D01*
X-17927323Y31265003D01*
X-17927323Y31264998D01*
X-17908071Y31044938D01*
X-17908070Y31044930D01*
X-17850896Y30831555D01*
X-17850895Y30831553D01*
X-17850894Y30831550D01*
X-17801310Y30725216D01*
X-17757534Y30631338D01*
X-17757532Y30631334D01*
X-17630830Y30450385D01*
X-17630825Y30450379D01*
X-17474622Y30294176D01*
X-17474616Y30294171D01*
X-17293667Y30167469D01*
X-17293665Y30167468D01*
X-17293662Y30167466D01*
X-17093450Y30074106D01*
X-16880068Y30016930D01*
X-16734937Y30004233D01*
X-16660002Y29997677D01*
X-16660000Y29997677D01*
X-16659998Y29997677D01*
X-16603683Y30002604D01*
X-16439932Y30016930D01*
X-16226550Y30074106D01*
X-16026338Y30167466D01*
X-15845380Y30294174D01*
X-15689174Y30450380D01*
X-15562466Y30631338D01*
X-15502382Y30760189D01*
X-15456210Y30812629D01*
X-15389017Y30831781D01*
X-15322135Y30811565D01*
X-15277618Y30760189D01*
X-15217536Y30631342D01*
X-15217532Y30631334D01*
X-15090830Y30450385D01*
X-15090825Y30450379D01*
X-14934622Y30294176D01*
X-14934616Y30294171D01*
X-14753667Y30167469D01*
X-14753665Y30167468D01*
X-14753662Y30167466D01*
X-14553450Y30074106D01*
X-14340068Y30016930D01*
X-14194937Y30004233D01*
X-14120002Y29997677D01*
X-14120000Y29997677D01*
X-14119998Y29997677D01*
X-14063683Y30002604D01*
X-13899932Y30016930D01*
X-13686550Y30074106D01*
X-13486338Y30167466D01*
X-13305380Y30294174D01*
X-13149174Y30450380D01*
X-13022466Y30631338D01*
X-12962382Y30760189D01*
X-12916210Y30812629D01*
X-12849017Y30831781D01*
X-12782135Y30811565D01*
X-12737618Y30760189D01*
X-12677534Y30631338D01*
X-12602924Y30524784D01*
X-12580598Y30458581D01*
X-12580500Y30453663D01*
X-12580500Y29063783D01*
X-12600185Y28996744D01*
X-12616819Y28976102D01*
X-13089423Y28503498D01*
X-13150746Y28470013D01*
X-13220438Y28474997D01*
X-13248497Y28491344D01*
X-13249164Y28490390D01*
X-13447166Y28629033D01*
X-13447170Y28629035D01*
X-13516699Y28661457D01*
X-13661337Y28728903D01*
X-13661341Y28728904D01*
X-13661345Y28728906D01*
X-13889587Y28790062D01*
X-13889597Y28790064D01*
X-14124999Y28810659D01*
X-14125001Y28810659D01*
X-14360404Y28790064D01*
X-14360414Y28790062D01*
X-14588656Y28728906D01*
X-14588665Y28728902D01*
X-14802829Y28629036D01*
X-14802831Y28629035D01*
X-14996400Y28493497D01*
X-15118327Y28371570D01*
X-15179650Y28338086D01*
X-15249342Y28343070D01*
X-15305275Y28384942D01*
X-15322190Y28415919D01*
X-15371203Y28547329D01*
X-15371207Y28547336D01*
X-15457453Y28662545D01*
X-15457456Y28662548D01*
X-15572665Y28748794D01*
X-15572672Y28748798D01*
X-15707518Y28799092D01*
X-15707517Y28799092D01*
X-15767117Y28805499D01*
X-15767119Y28805500D01*
X-15767127Y28805500D01*
X-15767136Y28805500D01*
X-17562871Y28805500D01*
X-17562877Y28805499D01*
X-17622484Y28799092D01*
X-17757329Y28748798D01*
X-17757336Y28748794D01*
X-17872545Y28662548D01*
X-17872548Y28662545D01*
X-17958794Y28547336D01*
X-17958796Y28547332D01*
X-17958796Y28547331D01*
X-17962961Y28536166D01*
X-18004829Y28480234D01*
X-18070293Y28455816D01*
X-18079141Y28455500D01*
X-18552283Y28455500D01*
X-18641363Y28457757D01*
X-18641372Y28457757D01*
X-18694364Y28448259D01*
X-18701746Y28446936D01*
X-18706405Y28446282D01*
X-18767436Y28440075D01*
X-18767438Y28440074D01*
X-18800220Y28429790D01*
X-18807844Y28427919D01*
X-18815692Y28426512D01*
X-18841651Y28421859D01*
X-18841659Y28421857D01*
X-18898618Y28399105D01*
X-18903054Y28397526D01*
X-18961585Y28379160D01*
X-18961588Y28379159D01*
X-18961590Y28379158D01*
X-18961597Y28379155D01*
X-18991616Y28362493D01*
X-18998710Y28359124D01*
X-19030610Y28346381D01*
X-19030612Y28346381D01*
X-19030617Y28346378D01*
X-19030623Y28346374D01*
X-19081846Y28312617D01*
X-19085874Y28310176D01*
X-19139498Y28280412D01*
X-19139501Y28280410D01*
X-19165573Y28258030D01*
X-19171840Y28253305D01*
X-19200518Y28234402D01*
X-19200525Y28234397D01*
X-19243884Y28191038D01*
X-19247339Y28187836D01*
X-19293894Y28147868D01*
X-19293895Y28147867D01*
X-19314924Y28120700D01*
X-19320116Y28114806D01*
X-21168468Y26266454D01*
X-21233054Y26205058D01*
X-21268101Y26154706D01*
X-21270938Y26150944D01*
X-21309698Y26103408D01*
X-21309701Y26103403D01*
X-21325608Y26072953D01*
X-21329676Y26066239D01*
X-21349298Y26038046D01*
X-21373491Y25981670D01*
X-21375512Y25977416D01*
X-21403909Y25923049D01*
X-21403910Y25923048D01*
X-21413360Y25890025D01*
X-21415993Y25882629D01*
X-21429541Y25851057D01*
X-21441887Y25790981D01*
X-21443010Y25786405D01*
X-21459887Y25727423D01*
X-21459887Y25727421D01*
X-21462497Y25693159D01*
X-21463586Y25685392D01*
X-21469020Y25658948D01*
X-21470500Y25651742D01*
X-21470500Y25590403D01*
X-21470679Y25585694D01*
X-21475338Y25524526D01*
X-21473293Y25508473D01*
X-21470997Y25490440D01*
X-21470500Y25482612D01*
X-21470500Y25091338D01*
X-21490185Y25024299D01*
X-21492925Y25020215D01*
X-21567534Y24913662D01*
X-21567535Y24913660D01*
X-21660893Y24713452D01*
X-21660896Y24713446D01*
X-21718070Y24500071D01*
X-21718071Y24500063D01*
X-21737323Y24280003D01*
X-21737323Y24279998D01*
X-21718071Y24059938D01*
X-21718070Y24059930D01*
X-21660896Y23846555D01*
X-21660895Y23846553D01*
X-21660894Y23846550D01*
X-21614430Y23746908D01*
X-21567534Y23646338D01*
X-21567532Y23646334D01*
X-21440830Y23465385D01*
X-21440825Y23465379D01*
X-21284622Y23309176D01*
X-21284616Y23309171D01*
X-21103667Y23182469D01*
X-21103665Y23182468D01*
X-21103662Y23182466D01*
X-20903450Y23089106D01*
X-20690068Y23031930D01*
X-20532877Y23018178D01*
X-20470002Y23012677D01*
X-20470000Y23012677D01*
X-20469998Y23012677D01*
X-20414983Y23017491D01*
X-20249932Y23031930D01*
X-20036550Y23089106D01*
X-19836338Y23182466D01*
X-19655380Y23309174D01*
X-19499174Y23465380D01*
X-19372466Y23646338D01*
X-19279106Y23846550D01*
X-19221930Y24059932D01*
X-19202677Y24280000D01*
X-19206011Y24318103D01*
X-19221930Y24500063D01*
X-19221930Y24500068D01*
X-19279106Y24713450D01*
X-19372466Y24913661D01*
X-19444144Y25016029D01*
X-19466471Y25082235D01*
X-19449459Y25150002D01*
X-19430253Y25174828D01*
X-18186899Y26418181D01*
X-18125576Y26451666D01*
X-18099218Y26454500D01*
X-18079141Y26454500D01*
X-18012102Y26434815D01*
X-17966347Y26382011D01*
X-17962970Y26373860D01*
X-17958796Y26362669D01*
X-17958795Y26362668D01*
X-17958794Y26362665D01*
X-17872548Y26247456D01*
X-17872545Y26247453D01*
X-17757336Y26161207D01*
X-17757329Y26161203D01*
X-17622483Y26110909D01*
X-17622484Y26110909D01*
X-17615556Y26110165D01*
X-17562873Y26104500D01*
X-15767128Y26104501D01*
X-15707517Y26110909D01*
X-15572669Y26161204D01*
X-15457454Y26247454D01*
X-15371204Y26362669D01*
X-15322190Y26494084D01*
X-15280319Y26550016D01*
X-15214855Y26574434D01*
X-15146582Y26559583D01*
X-15118327Y26538431D01*
X-14996401Y26416505D01*
X-14899616Y26348735D01*
X-14802835Y26280968D01*
X-14802833Y26280967D01*
X-14802830Y26280965D01*
X-14588663Y26181097D01*
X-14360408Y26119937D01*
X-14183966Y26104500D01*
X-14125001Y26099341D01*
X-14125000Y26099341D01*
X-14124999Y26099341D01*
X-14078572Y26103403D01*
X-13889592Y26119937D01*
X-13661337Y26181097D01*
X-13447170Y26280965D01*
X-13253599Y26416505D01*
X-13251923Y26418181D01*
X-13251005Y26418683D01*
X-13249456Y26419982D01*
X-13249195Y26419671D01*
X-13190600Y26451666D01*
X-13164242Y26454500D01*
X-12735716Y26454500D01*
X-12646642Y26452243D01*
X-12646642Y26452244D01*
X-12646637Y26452243D01*
X-12586247Y26463068D01*
X-12581588Y26463720D01*
X-12539393Y26468012D01*
X-12520562Y26469926D01*
X-12487773Y26480214D01*
X-12480160Y26482082D01*
X-12446347Y26488142D01*
X-12389379Y26510899D01*
X-12384947Y26512476D01*
X-12326412Y26530841D01*
X-12296373Y26547516D01*
X-12289292Y26550878D01*
X-12257383Y26563623D01*
X-12206146Y26597392D01*
X-12202149Y26599813D01*
X-12148498Y26629591D01*
X-12122432Y26651970D01*
X-12116157Y26656700D01*
X-12110793Y26660235D01*
X-12087481Y26675598D01*
X-12044108Y26718973D01*
X-12040650Y26722177D01*
X-12032315Y26729332D01*
X-11994105Y26762134D01*
X-11973072Y26789309D01*
X-11967902Y26795179D01*
X-10881532Y27881549D01*
X-10816947Y27942941D01*
X-10781901Y27993294D01*
X-10779062Y27997059D01*
X-10775388Y28001565D01*
X-10740302Y28044593D01*
X-10724399Y28075040D01*
X-10720326Y28081761D01*
X-10707866Y28099663D01*
X-10700705Y28109951D01*
X-10676508Y28166340D01*
X-10674502Y28170565D01*
X-10646091Y28224951D01*
X-10636643Y28257978D01*
X-10634012Y28265367D01*
X-10620460Y28296942D01*
X-10608105Y28357070D01*
X-10607001Y28361571D01*
X-10590114Y28420582D01*
X-10587506Y28454843D01*
X-10586415Y28462611D01*
X-10579500Y28496257D01*
X-10579500Y28557602D01*
X-10579321Y28562312D01*
X-10578850Y28568495D01*
X-10574663Y28623476D01*
X-10578051Y28650080D01*
X-10579003Y28657558D01*
X-10579500Y28665397D01*
X-10579500Y30453663D01*
X-10559815Y30520702D01*
X-10557104Y30524746D01*
X-10482466Y30631338D01*
X-10389106Y30831550D01*
X-10331930Y31044932D01*
X-10312677Y31265000D01*
X-10312902Y31267568D01*
X-10331930Y31485063D01*
X-10331930Y31485068D01*
X-10389106Y31698450D01*
X-10482466Y31898661D01*
X-10609174Y32079620D01*
X-10609176Y32079623D01*
X-10612372Y32082819D01*
X-10645857Y32144142D01*
X-10640873Y32213834D01*
X-10599001Y32269767D01*
X-10533537Y32294184D01*
X-10524691Y32294500D01*
X-8819006Y32294500D01*
X-8751967Y32274815D01*
X-8731325Y32258181D01*
X-7802035Y31328891D01*
X-7768550Y31267568D01*
X-7766188Y31252018D01*
X-7748071Y31044937D01*
X-7748070Y31044930D01*
X-7690896Y30831555D01*
X-7690895Y30831553D01*
X-7690894Y30831550D01*
X-7641310Y30725216D01*
X-7597534Y30631338D01*
X-7597532Y30631334D01*
X-7470830Y30450385D01*
X-7470825Y30450379D01*
X-7314622Y30294176D01*
X-7314616Y30294171D01*
X-7133667Y30167469D01*
X-7133665Y30167468D01*
X-7133662Y30167466D01*
X-6933450Y30074106D01*
X-6720068Y30016930D01*
X-6574937Y30004233D01*
X-6500002Y29997677D01*
X-6500000Y29997677D01*
X-6499998Y29997677D01*
X-6443683Y30002604D01*
X-6279932Y30016930D01*
X-6066550Y30074106D01*
X-5866338Y30167466D01*
X-5685380Y30294174D01*
X-5529174Y30450380D01*
X-5402466Y30631338D01*
X-5342382Y30760189D01*
X-5296210Y30812629D01*
X-5229017Y30831781D01*
X-5162135Y30811565D01*
X-5117618Y30760189D01*
X-5057536Y30631342D01*
X-5057532Y30631334D01*
X-4930830Y30450385D01*
X-4930825Y30450379D01*
X-4774622Y30294176D01*
X-4774616Y30294171D01*
X-4593667Y30167469D01*
X-4593665Y30167468D01*
X-4593662Y30167466D01*
X-4393450Y30074106D01*
X-4180068Y30016930D01*
X-4034937Y30004233D01*
X-3960002Y29997677D01*
X-3960000Y29997677D01*
X-3959998Y29997677D01*
X-3903683Y30002604D01*
X-3739932Y30016930D01*
X-3526550Y30074106D01*
X-3326338Y30167466D01*
X-3145380Y30294174D01*
X-2989174Y30450380D01*
X-2862466Y30631338D01*
X-2769106Y30831550D01*
X-2711930Y31044932D01*
X-2692677Y31265000D01*
X-2692902Y31267568D01*
X-2711930Y31485063D01*
X-2711930Y31485068D01*
X-2769106Y31698450D01*
X-2862466Y31898661D01*
X-2989174Y32079620D01*
X-3145380Y32235826D01*
X-3145384Y32235829D01*
X-3145385Y32235830D01*
X-3326334Y32362532D01*
X-3326338Y32362534D01*
X-3526550Y32455894D01*
X-3526553Y32455895D01*
X-3526555Y32455896D01*
X-3739930Y32513070D01*
X-3739937Y32513071D01*
X-3947018Y32531188D01*
X-4012086Y32556641D01*
X-4023891Y32567035D01*
X-5507195Y34050339D01*
X-7124001Y35667145D01*
X-7127392Y35670824D01*
X-7164369Y35714357D01*
X-7226254Y35761400D01*
X-7230738Y35764809D01*
X-7295703Y35817030D01*
X-7295706Y35817032D01*
X-7295880Y35817118D01*
X-7315818Y35829486D01*
X-7315971Y35829603D01*
X-7315973Y35829604D01*
X-7391641Y35864611D01*
X-7411111Y35874267D01*
X-7466307Y35901641D01*
X-7466311Y35901642D01*
X-7466320Y35901645D01*
X-7466512Y35901693D01*
X-7488615Y35909475D01*
X-7488802Y35909562D01*
X-7488806Y35909563D01*
X-7570229Y35927486D01*
X-7651115Y35947601D01*
X-7651311Y35947606D01*
X-7674587Y35950457D01*
X-7674778Y35950499D01*
X-7674781Y35950500D01*
X-7674784Y35950500D01*
X-7674788Y35950500D01*
X-7758160Y35950500D01*
X-7841473Y35952757D01*
X-7841474Y35952757D01*
X-7841655Y35952722D01*
X-7865023Y35950500D01*
X-27416901Y35950500D01*
X-27421936Y35950705D01*
X-27478846Y35955340D01*
X-27478852Y35955339D01*
X-27561441Y35944087D01*
X-27644320Y35935073D01*
X-27644510Y35935008D01*
X-27667335Y35929659D01*
X-27667534Y35929632D01*
X-27667537Y35929632D01*
X-27667537Y35929631D01*
X-27706666Y35915256D01*
X-27745797Y35900880D01*
X-27763092Y35895054D01*
X-27832907Y35892304D01*
X-27893126Y35927737D01*
X-27924629Y35990101D01*
X-27917415Y36059597D01*
X-27890364Y36100243D01*
X-21572425Y42418181D01*
X-21511102Y42451666D01*
X-21484744Y42454500D01*
X-7173102Y42454500D01*
X-7168068Y42454295D01*
X-7111156Y42449661D01*
X-7111155Y42449662D01*
X-7111152Y42449661D01*
X-7028559Y42460915D01*
X-6945684Y42469927D01*
X-6945519Y42469983D01*
X-6922643Y42475345D01*
X-6922463Y42475369D01*
X-6844207Y42504120D01*
X-6765220Y42530733D01*
X-6765072Y42530822D01*
X-6743884Y42540976D01*
X-6743712Y42541039D01*
X-6673464Y42585941D01*
X-6602046Y42628911D01*
X-6601917Y42629034D01*
X-6583403Y42643506D01*
X-6583393Y42643513D01*
X-6583256Y42643600D01*
X-6553781Y42673077D01*
X-6524304Y42702552D01*
X-6493230Y42731989D01*
X-6463793Y42759871D01*
X-6463694Y42760017D01*
X-6448736Y42778122D01*
X-4023890Y45202968D01*
X-3962569Y45236451D01*
X-3947022Y45238813D01*
X-3739932Y45256930D01*
X-3526550Y45314106D01*
X-3326338Y45407466D01*
X-3145380Y45534174D01*
X-2989174Y45690380D01*
X-2862466Y45871338D01*
X-2769106Y46071550D01*
X-2711930Y46284932D01*
X-2692677Y46505000D01*
X-2711930Y46725068D01*
X-2769106Y46938450D01*
X-2862466Y47138661D01*
X-2989174Y47319620D01*
X-2989176Y47319623D01*
X-3048181Y47378628D01*
X-3081666Y47439951D01*
X-3084500Y47466309D01*
X-3084500Y51546902D01*
X-3084295Y51551937D01*
X-3082795Y51570370D01*
X-3079661Y51608848D01*
X-3090915Y51691444D01*
X-3099927Y51774316D01*
X-3099985Y51774488D01*
X-3105345Y51797359D01*
X-3105369Y51797538D01*
X-3134117Y51875787D01*
X-3160733Y51954780D01*
X-3160775Y51954850D01*
X-3160832Y51954945D01*
X-3170978Y51976121D01*
X-3171039Y51976285D01*
X-3171040Y51976288D01*
X-3215932Y52046522D01*
X-3248419Y52100516D01*
X-3258910Y52117953D01*
X-3259043Y52118093D01*
X-3273496Y52136581D01*
X-3273600Y52136744D01*
X-3332553Y52195697D01*
X-3389871Y52256207D01*
X-3390030Y52256315D01*
X-3408123Y52271267D01*
X-5197966Y54061110D01*
X-5231451Y54122433D01*
X-5233813Y54137984D01*
X-5246895Y54287511D01*
X-5251930Y54345068D01*
X-5309106Y54558450D01*
X-5402466Y54758661D01*
X-5458985Y54839379D01*
X-5481311Y54905583D01*
X-5464301Y54973350D01*
X-5413353Y55021163D01*
X-5357409Y55034500D01*
X-3650758Y55034500D01*
X-3583719Y55014815D01*
X-3563077Y54998181D01*
X-3561401Y54996505D01*
X-3494252Y54949487D01*
X-3367835Y54860968D01*
X-3367833Y54860967D01*
X-3367830Y54860965D01*
X-3153663Y54761097D01*
X-3153657Y54761096D01*
X-3153656Y54761095D01*
X-3144572Y54758661D01*
X-2925408Y54699937D01*
X-2737082Y54683461D01*
X-2690001Y54679341D01*
X-2690000Y54679341D01*
X-2689999Y54679341D01*
X-2650766Y54682774D01*
X-2454592Y54699937D01*
X-2226337Y54761097D01*
X-2012170Y54860965D01*
X-1818599Y54996505D01*
X-1651505Y55163599D01*
X-1515965Y55357170D01*
X-1416097Y55571337D01*
X-1354937Y55799592D01*
X-1334341Y56035000D01*
X-1335272Y56045636D01*
X-1351537Y56231549D01*
X-1354937Y56270408D01*
X-1416097Y56498663D01*
X-1515965Y56712829D01*
X-1519224Y56717483D01*
X-1651504Y56906400D01*
X-1700898Y56955794D01*
X-1773433Y57028329D01*
X-1806916Y57089649D01*
X-1801932Y57159341D01*
X-1760061Y57215275D01*
X-1729085Y57232190D01*
X-1597669Y57281204D01*
X-1482454Y57367454D01*
X-1396204Y57482669D01*
X-1345909Y57617517D01*
X-1339500Y57677127D01*
X-1339501Y59472872D01*
X-1345909Y59532483D01*
X-1356967Y59562130D01*
X-1396203Y59667329D01*
X-1396207Y59667336D01*
X-1482453Y59782545D01*
X-1482456Y59782548D01*
X-1597665Y59868794D01*
X-1597672Y59868798D01*
X-1732518Y59919092D01*
X-1732517Y59919092D01*
X-1792117Y59925499D01*
X-1792119Y59925500D01*
X-1792127Y59925500D01*
X-1792136Y59925500D01*
X-3587871Y59925500D01*
X-3587877Y59925499D01*
X-3647484Y59919092D01*
X-3782329Y59868798D01*
X-3782336Y59868794D01*
X-3897545Y59782548D01*
X-3897548Y59782545D01*
X-3983794Y59667336D01*
X-3983796Y59667332D01*
X-3983796Y59667331D01*
X-3987961Y59656166D01*
X-4029829Y59600234D01*
X-4095293Y59575816D01*
X-4104141Y59575500D01*
X-5200755Y59575500D01*
X-5267794Y59595185D01*
X-5313137Y59647095D01*
X-5359561Y59746650D01*
X-5402466Y59838661D01*
X-5529174Y60019620D01*
X-5685380Y60175826D01*
X-5685384Y60175829D01*
X-5685385Y60175830D01*
X-5866334Y60302532D01*
X-5866342Y60302536D01*
X-5995189Y60362618D01*
X-6047629Y60408790D01*
X-6066781Y60475983D01*
X-6046565Y60542865D01*
X-5995189Y60587382D01*
X-5989198Y60590176D01*
X-5866338Y60647466D01*
X-5685380Y60774174D01*
X-5529174Y60930380D01*
X-5402466Y61111338D01*
X-5310806Y61307904D01*
X-5264634Y61360344D01*
X-5198424Y61379500D01*
X-3650758Y61379500D01*
X-3583719Y61359815D01*
X-3563077Y61343181D01*
X-3561401Y61341505D01*
X-3497794Y61296967D01*
X-3367835Y61205968D01*
X-3367833Y61205967D01*
X-3367830Y61205965D01*
X-3153663Y61106097D01*
X-3153657Y61106096D01*
X-3153656Y61106095D01*
X-3098715Y61091374D01*
X-2925408Y61044937D01*
X-2737082Y61028461D01*
X-2690001Y61024341D01*
X-2690000Y61024341D01*
X-2689999Y61024341D01*
X-2650766Y61027774D01*
X-2454592Y61044937D01*
X-2226337Y61106097D01*
X-2012170Y61205965D01*
X-1818599Y61341505D01*
X-1651505Y61508599D01*
X-1515965Y61702170D01*
X-1416097Y61916337D01*
X-1354937Y62144592D01*
X-1334341Y62380000D01*
X-1354937Y62615408D01*
X-1416097Y62843663D01*
X-1515965Y63057829D01*
X-1548358Y63104091D01*
X-1651504Y63251400D01*
X-1695382Y63295278D01*
X-1773433Y63373329D01*
X-1806916Y63434649D01*
X-1801932Y63504341D01*
X-1760061Y63560275D01*
X-1729085Y63577190D01*
X-1597669Y63626204D01*
X-1482454Y63712454D01*
X-1396204Y63827669D01*
X-1345909Y63962517D01*
X-1339500Y64022127D01*
X-1339501Y65817872D01*
X-1345909Y65877483D01*
X-1365428Y65929815D01*
X-1396203Y66012329D01*
X-1396207Y66012336D01*
X-1482453Y66127545D01*
X-1482456Y66127548D01*
X-1597665Y66213794D01*
X-1597672Y66213798D01*
X-1732518Y66264092D01*
X-1732517Y66264092D01*
X-1792117Y66270499D01*
X-1792119Y66270500D01*
X-1792127Y66270500D01*
X-1792136Y66270500D01*
X-3587871Y66270500D01*
X-3587877Y66270499D01*
X-3647484Y66264092D01*
X-3782329Y66213798D01*
X-3782336Y66213794D01*
X-3897545Y66127548D01*
X-3897548Y66127545D01*
X-3983794Y66012336D01*
X-3983796Y66012332D01*
X-3983796Y66012331D01*
X-3987961Y66001166D01*
X-4029829Y65945234D01*
X-4095293Y65920816D01*
X-4104141Y65920500D01*
X-5353907Y65920500D01*
X-5420946Y65940185D01*
X-5466701Y65992989D01*
X-5476645Y66062147D01*
X-5455483Y66115623D01*
X-5402466Y66191338D01*
X-5309106Y66391550D01*
X-5251930Y66604932D01*
X-5232677Y66825000D01*
X-5235069Y66852336D01*
X-5242444Y66936641D01*
X-5251930Y67045068D01*
X-5309106Y67258450D01*
X-5402466Y67458661D01*
X-5529174Y67639620D01*
X-5685380Y67795826D01*
X-5685384Y67795829D01*
X-5685385Y67795830D01*
X-5866334Y67922532D01*
X-5866338Y67922534D01*
X-5866340Y67922535D01*
X-6066550Y68015894D01*
X-6066553Y68015895D01*
X-6066555Y68015896D01*
X-6279930Y68073070D01*
X-6279938Y68073071D01*
X-6499998Y68092323D01*
X-6500002Y68092323D01*
X-6720063Y68073071D01*
X-6720071Y68073070D01*
X-6933446Y68015896D01*
X-6933452Y68015893D01*
X-7133660Y67922535D01*
X-7133662Y67922534D01*
X-7314623Y67795825D01*
X-7470825Y67639623D01*
X-7597534Y67458662D01*
X-7597535Y67458660D01*
X-7690893Y67258452D01*
X-7690896Y67258446D01*
X-7748070Y67045071D01*
X-7748071Y67045063D01*
X-7767323Y66825003D01*
X-7767323Y66824998D01*
X-7748071Y66604938D01*
X-7748070Y66604930D01*
X-7690896Y66391555D01*
X-7690895Y66391553D01*
X-7690894Y66391550D01*
X-7631459Y66264091D01*
X-7597534Y66191338D01*
X-7597532Y66191334D01*
X-7470830Y66010385D01*
X-7470825Y66010379D01*
X-7314622Y65854176D01*
X-7314616Y65854171D01*
X-7133667Y65727469D01*
X-7133665Y65727468D01*
X-7133662Y65727466D01*
X-7014252Y65671785D01*
X-7004811Y65667382D01*
X-6952372Y65621210D01*
X-6933220Y65554016D01*
X-6953436Y65487135D01*
X-7004811Y65442618D01*
X-7133660Y65382535D01*
X-7133662Y65382534D01*
X-7314623Y65255825D01*
X-7470825Y65099623D01*
X-7597534Y64918662D01*
X-7597535Y64918660D01*
X-7690893Y64718452D01*
X-7690896Y64718446D01*
X-7748070Y64505071D01*
X-7748071Y64505063D01*
X-7767323Y64285003D01*
X-7767323Y64284998D01*
X-7748071Y64064938D01*
X-7748070Y64064930D01*
X-7690896Y63851555D01*
X-7690895Y63851553D01*
X-7690894Y63851550D01*
X-7673014Y63813207D01*
X-7597534Y63651338D01*
X-7597532Y63651334D01*
X-7470830Y63470385D01*
X-7470825Y63470379D01*
X-7314622Y63314176D01*
X-7314616Y63314171D01*
X-7133667Y63187469D01*
X-7133665Y63187468D01*
X-7133662Y63187466D01*
X-7087295Y63165845D01*
X-7004811Y63127382D01*
X-6952372Y63081210D01*
X-6933220Y63014016D01*
X-6953436Y62947135D01*
X-7004811Y62902618D01*
X-7133660Y62842535D01*
X-7133662Y62842534D01*
X-7314623Y62715825D01*
X-7470825Y62559623D01*
X-7597534Y62378662D01*
X-7597535Y62378660D01*
X-7690893Y62178452D01*
X-7690896Y62178446D01*
X-7748070Y61965071D01*
X-7748071Y61965063D01*
X-7767323Y61745003D01*
X-7767323Y61744998D01*
X-7748071Y61524938D01*
X-7748070Y61524930D01*
X-7690896Y61311555D01*
X-7690895Y61311553D01*
X-7690894Y61311550D01*
X-7623118Y61166204D01*
X-7597534Y61111338D01*
X-7597532Y61111334D01*
X-7470830Y60930385D01*
X-7470825Y60930379D01*
X-7314622Y60774176D01*
X-7314616Y60774171D01*
X-7133667Y60647469D01*
X-7133665Y60647468D01*
X-7133662Y60647466D01*
X-7014252Y60591785D01*
X-7004811Y60587382D01*
X-6952372Y60541210D01*
X-6933220Y60474016D01*
X-6953436Y60407135D01*
X-7004811Y60362618D01*
X-7133660Y60302535D01*
X-7133662Y60302534D01*
X-7314623Y60175825D01*
X-7470825Y60019623D01*
X-7597534Y59838662D01*
X-7597535Y59838660D01*
X-7690893Y59638452D01*
X-7690896Y59638446D01*
X-7748070Y59425071D01*
X-7748071Y59425063D01*
X-7767323Y59205003D01*
X-7767323Y59204998D01*
X-7748071Y58984938D01*
X-7748070Y58984930D01*
X-7690896Y58771555D01*
X-7690895Y58771553D01*
X-7690894Y58771550D01*
X-7597534Y58571338D01*
X-7597532Y58571334D01*
X-7470830Y58390385D01*
X-7470825Y58390379D01*
X-7314622Y58234176D01*
X-7314616Y58234171D01*
X-7133667Y58107469D01*
X-7133665Y58107468D01*
X-7133662Y58107466D01*
X-7014252Y58051785D01*
X-7004811Y58047382D01*
X-6952372Y58001210D01*
X-6933220Y57934016D01*
X-6953436Y57867135D01*
X-7004811Y57822618D01*
X-7133660Y57762535D01*
X-7133662Y57762534D01*
X-7314623Y57635825D01*
X-7470825Y57479623D01*
X-7597534Y57298662D01*
X-7597535Y57298660D01*
X-7690893Y57098452D01*
X-7690896Y57098446D01*
X-7748070Y56885071D01*
X-7748071Y56885063D01*
X-7767323Y56665003D01*
X-7767323Y56664998D01*
X-7748071Y56444938D01*
X-7748070Y56444930D01*
X-7690896Y56231555D01*
X-7690895Y56231553D01*
X-7690894Y56231550D01*
X-7608029Y56053845D01*
X-7597534Y56031338D01*
X-7597532Y56031334D01*
X-7470830Y55850385D01*
X-7470825Y55850379D01*
X-7314622Y55694176D01*
X-7314616Y55694171D01*
X-7133667Y55567469D01*
X-7133665Y55567468D01*
X-7133662Y55567466D01*
X-7014252Y55511785D01*
X-7004811Y55507382D01*
X-6952372Y55461210D01*
X-6933220Y55394016D01*
X-6953436Y55327135D01*
X-7004811Y55282618D01*
X-7133660Y55222535D01*
X-7133662Y55222534D01*
X-7314623Y55095825D01*
X-7470825Y54939623D01*
X-7597534Y54758662D01*
X-7597535Y54758660D01*
X-7690893Y54558452D01*
X-7690896Y54558446D01*
X-7748070Y54345071D01*
X-7748071Y54345063D01*
X-7767323Y54125003D01*
X-7767323Y54124998D01*
X-7748071Y53904938D01*
X-7748070Y53904930D01*
X-7690896Y53691555D01*
X-7690895Y53691553D01*
X-7690894Y53691550D01*
X-7687621Y53684532D01*
X-7597534Y53491338D01*
X-7597532Y53491334D01*
X-7470830Y53310385D01*
X-7470825Y53310379D01*
X-7314622Y53154176D01*
X-7314616Y53154171D01*
X-7133667Y53027469D01*
X-7133665Y53027468D01*
X-7133662Y53027466D01*
X-6933450Y52934106D01*
X-6720068Y52876930D01*
X-6512984Y52858813D01*
X-6447915Y52833361D01*
X-6436110Y52822966D01*
X-4871819Y51258676D01*
X-4838334Y51197353D01*
X-4835500Y51170995D01*
X-4835500Y47466309D01*
X-4855185Y47399270D01*
X-4871819Y47378628D01*
X-4930825Y47319623D01*
X-5057534Y47138662D01*
X-5057535Y47138660D01*
X-5117618Y47009811D01*
X-5163791Y46957372D01*
X-5230984Y46938220D01*
X-5297865Y46958436D01*
X-5342382Y47009811D01*
X-5397955Y47128987D01*
X-5402466Y47138661D01*
X-5516037Y47300859D01*
X-5529173Y47319619D01*
X-5606203Y47396649D01*
X-5685380Y47475826D01*
X-5685384Y47475829D01*
X-5685385Y47475830D01*
X-5866334Y47602532D01*
X-5866338Y47602534D01*
X-5981235Y47656111D01*
X-6066550Y47695894D01*
X-6066553Y47695895D01*
X-6066555Y47695896D01*
X-6279930Y47753070D01*
X-6279938Y47753071D01*
X-6499998Y47772323D01*
X-6500002Y47772323D01*
X-6720063Y47753071D01*
X-6720071Y47753070D01*
X-6933446Y47695896D01*
X-6933452Y47695893D01*
X-7133660Y47602535D01*
X-7133662Y47602534D01*
X-7314623Y47475825D01*
X-7470825Y47319623D01*
X-7597534Y47138662D01*
X-7597535Y47138660D01*
X-7657618Y47009811D01*
X-7703791Y46957372D01*
X-7770984Y46938220D01*
X-7837865Y46958436D01*
X-7882382Y47009811D01*
X-7937955Y47128987D01*
X-7942466Y47138661D01*
X-8056037Y47300859D01*
X-8069173Y47319619D01*
X-8146203Y47396649D01*
X-8225380Y47475826D01*
X-8225384Y47475829D01*
X-8225385Y47475830D01*
X-8406334Y47602532D01*
X-8406338Y47602534D01*
X-8521235Y47656111D01*
X-8606550Y47695894D01*
X-8606553Y47695895D01*
X-8606555Y47695896D01*
X-8819930Y47753070D01*
X-8819938Y47753071D01*
X-9039998Y47772323D01*
X-9040002Y47772323D01*
X-9260063Y47753071D01*
X-9260071Y47753070D01*
X-9473446Y47695896D01*
X-9473452Y47695893D01*
X-9673660Y47602535D01*
X-9673662Y47602534D01*
X-9854623Y47475825D01*
X-10010825Y47319623D01*
X-10137534Y47138662D01*
X-10137535Y47138660D01*
X-10197618Y47009811D01*
X-10243791Y46957372D01*
X-10310984Y46938220D01*
X-10377865Y46958436D01*
X-10422382Y47009811D01*
X-10477955Y47128987D01*
X-10482466Y47138661D01*
X-10557075Y47245215D01*
X-10579402Y47311422D01*
X-10579500Y47316338D01*
X-10579500Y49359242D01*
X-10559815Y49426281D01*
X-10549515Y49439064D01*
X-10549982Y49439456D01*
X-10546518Y49443587D01*
X-10546505Y49443599D01*
X-10410965Y49637170D01*
X-10311097Y49851337D01*
X-10249937Y50079592D01*
X-10229341Y50315000D01*
X-10249937Y50550408D01*
X-10311097Y50778663D01*
X-10410965Y50992829D01*
X-10444462Y51040669D01*
X-10546506Y51186403D01*
X-10713598Y51353494D01*
X-10713605Y51353499D01*
X-10907166Y51489033D01*
X-10907170Y51489035D01*
X-10954330Y51511026D01*
X-11121337Y51588903D01*
X-11121341Y51588904D01*
X-11121345Y51588906D01*
X-11349587Y51650062D01*
X-11349597Y51650064D01*
X-11584999Y51670659D01*
X-11585001Y51670659D01*
X-11820404Y51650064D01*
X-11820414Y51650062D01*
X-12048656Y51588906D01*
X-12048665Y51588902D01*
X-12262829Y51489036D01*
X-12262831Y51489035D01*
X-12456400Y51353497D01*
X-12578327Y51231570D01*
X-12639650Y51198086D01*
X-12709342Y51203070D01*
X-12765275Y51244942D01*
X-12782190Y51275919D01*
X-12831203Y51407329D01*
X-12831207Y51407336D01*
X-12917453Y51522545D01*
X-12917456Y51522548D01*
X-13032665Y51608794D01*
X-13032672Y51608798D01*
X-13167518Y51659092D01*
X-13167517Y51659092D01*
X-13227117Y51665499D01*
X-13227119Y51665500D01*
X-13227127Y51665500D01*
X-13227136Y51665500D01*
X-15022871Y51665500D01*
X-15022877Y51665499D01*
X-15082484Y51659092D01*
X-15217329Y51608798D01*
X-15217336Y51608794D01*
X-15332545Y51522548D01*
X-15332548Y51522545D01*
X-15418794Y51407336D01*
X-15418798Y51407329D01*
X-15469092Y51272483D01*
X-15475499Y51212884D01*
X-15475500Y51212865D01*
X-15475500Y49417130D01*
X-15475499Y49417124D01*
X-15469092Y49357517D01*
X-15418798Y49222672D01*
X-15418794Y49222665D01*
X-15332548Y49107456D01*
X-15332545Y49107453D01*
X-15217335Y49021207D01*
X-15217331Y49021204D01*
X-15201169Y49015176D01*
X-15145235Y48973308D01*
X-15120816Y48907844D01*
X-15120500Y48898994D01*
X-15120500Y47316338D01*
X-15140185Y47249299D01*
X-15142925Y47245215D01*
X-15217534Y47138662D01*
X-15217535Y47138660D01*
X-15277618Y47009811D01*
X-15323791Y46957372D01*
X-15390984Y46938220D01*
X-15457865Y46958436D01*
X-15502382Y47009811D01*
X-15557955Y47128987D01*
X-15562466Y47138661D01*
X-15676037Y47300859D01*
X-15689173Y47319619D01*
X-15766203Y47396649D01*
X-15845380Y47475826D01*
X-15845384Y47475829D01*
X-15845385Y47475830D01*
X-16026334Y47602532D01*
X-16026338Y47602534D01*
X-16141235Y47656111D01*
X-16226550Y47695894D01*
X-16226553Y47695895D01*
X-16226555Y47695896D01*
X-16439930Y47753070D01*
X-16439938Y47753071D01*
X-16659998Y47772323D01*
X-16660002Y47772323D01*
X-16880063Y47753071D01*
X-16880071Y47753070D01*
X-17093446Y47695896D01*
X-17093452Y47695893D01*
X-17293660Y47602535D01*
X-17293662Y47602534D01*
X-17474623Y47475825D01*
X-17630825Y47319623D01*
X-17757534Y47138662D01*
X-17757535Y47138660D01*
X-17850893Y46938452D01*
X-17850896Y46938446D01*
X-17908070Y46725071D01*
X-17908071Y46725063D01*
X-17927323Y46505003D01*
X-17927323Y46504998D01*
X-17908071Y46284938D01*
X-17908070Y46284930D01*
X-17850896Y46071555D01*
X-17850895Y46071553D01*
X-17850894Y46071550D01*
X-17817618Y46000189D01*
X-17757534Y45871338D01*
X-17757532Y45871334D01*
X-17630830Y45690385D01*
X-17630825Y45690379D01*
X-17474622Y45534176D01*
X-17474616Y45534171D01*
X-17293667Y45407469D01*
X-17293665Y45407468D01*
X-17293662Y45407466D01*
X-17093450Y45314106D01*
X-16880068Y45256930D01*
X-16722877Y45243178D01*
X-16660002Y45237677D01*
X-16660000Y45237677D01*
X-16659998Y45237677D01*
X-16604983Y45242491D01*
X-16439932Y45256930D01*
X-16226550Y45314106D01*
X-16026338Y45407466D01*
X-15845380Y45534174D01*
X-15689174Y45690380D01*
X-15562466Y45871338D01*
X-15502382Y46000189D01*
X-15456210Y46052629D01*
X-15389017Y46071781D01*
X-15322135Y46051565D01*
X-15277618Y46000189D01*
X-15217536Y45871342D01*
X-15217532Y45871334D01*
X-15090830Y45690385D01*
X-15090825Y45690379D01*
X-14934622Y45534176D01*
X-14934616Y45534171D01*
X-14753667Y45407469D01*
X-14753665Y45407468D01*
X-14753662Y45407466D01*
X-14553450Y45314106D01*
X-14340068Y45256930D01*
X-14182877Y45243178D01*
X-14120002Y45237677D01*
X-14120000Y45237677D01*
X-14119998Y45237677D01*
X-14064983Y45242491D01*
X-13899932Y45256930D01*
X-13686550Y45314106D01*
X-13486338Y45407466D01*
X-13305380Y45534174D01*
X-13149174Y45690380D01*
X-13022466Y45871338D01*
X-12962382Y46000189D01*
X-12916210Y46052629D01*
X-12849017Y46071781D01*
X-12782135Y46051565D01*
X-12737618Y46000189D01*
X-12677536Y45871342D01*
X-12677532Y45871334D01*
X-12550830Y45690385D01*
X-12550825Y45690379D01*
X-12394622Y45534176D01*
X-12394616Y45534171D01*
X-12213667Y45407469D01*
X-12213665Y45407468D01*
X-12213662Y45407466D01*
X-12013450Y45314106D01*
X-11800068Y45256930D01*
X-11642877Y45243178D01*
X-11580002Y45237677D01*
X-11580000Y45237677D01*
X-11579998Y45237677D01*
X-11524983Y45242491D01*
X-11359932Y45256930D01*
X-11146550Y45314106D01*
X-10946338Y45407466D01*
X-10765380Y45534174D01*
X-10609174Y45690380D01*
X-10482466Y45871338D01*
X-10422382Y46000189D01*
X-10376210Y46052629D01*
X-10309017Y46071781D01*
X-10242135Y46051565D01*
X-10197618Y46000189D01*
X-10137536Y45871342D01*
X-10137532Y45871334D01*
X-10010830Y45690385D01*
X-10010825Y45690379D01*
X-9854622Y45534176D01*
X-9854616Y45534171D01*
X-9673667Y45407469D01*
X-9673665Y45407468D01*
X-9673662Y45407466D01*
X-9473450Y45314106D01*
X-9260068Y45256930D01*
X-9102877Y45243178D01*
X-9040002Y45237677D01*
X-9040000Y45237677D01*
X-9039998Y45237677D01*
X-8984983Y45242491D01*
X-8819932Y45256930D01*
X-8606550Y45314106D01*
X-8406338Y45407466D01*
X-8225380Y45534174D01*
X-8069174Y45690380D01*
X-7942466Y45871338D01*
X-7882382Y46000189D01*
X-7836210Y46052629D01*
X-7769017Y46071781D01*
X-7702135Y46051565D01*
X-7657618Y46000189D01*
X-7597536Y45871342D01*
X-7597532Y45871334D01*
X-7470830Y45690385D01*
X-7470825Y45690379D01*
X-7314622Y45534176D01*
X-7314616Y45534171D01*
X-7133667Y45407469D01*
X-7133665Y45407468D01*
X-7133662Y45407466D01*
X-6933450Y45314106D01*
X-6720068Y45256930D01*
X-6720066Y45256930D01*
X-6714838Y45255529D01*
X-6715255Y45253975D01*
X-6659253Y45226225D01*
X-6623357Y45166281D01*
X-6625568Y45096446D01*
X-6655699Y45047447D01*
X-7461325Y44241819D01*
X-7522648Y44208334D01*
X-7549006Y44205500D01*
X-21860640Y44205500D01*
X-21865678Y44205705D01*
X-21866146Y44205744D01*
X-21876400Y44206579D01*
X-21941619Y44231644D01*
X-21982933Y44287991D01*
X-21987226Y44357729D01*
X-21954010Y44417848D01*
X-19242859Y47128999D01*
X-19239190Y47132382D01*
X-19195643Y47169369D01*
X-19145186Y47235745D01*
X-19092970Y47300704D01*
X-19092890Y47300866D01*
X-19080513Y47320821D01*
X-19080398Y47320971D01*
X-19045387Y47396648D01*
X-19023910Y47439951D01*
X-19008362Y47471300D01*
X-19008362Y47471302D01*
X-19008359Y47471307D01*
X-19008315Y47471486D01*
X-19000514Y47493640D01*
X-19000438Y47493803D01*
X-18982519Y47575210D01*
X-18962399Y47656111D01*
X-18962395Y47656290D01*
X-18959537Y47679621D01*
X-18959500Y47679784D01*
X-18959500Y47763144D01*
X-18957243Y47846473D01*
X-18957280Y47846666D01*
X-18959500Y47870025D01*
X-18959500Y54721890D01*
X-18959295Y54726925D01*
X-18956513Y54761097D01*
X-18954660Y54783848D01*
X-18965917Y54866463D01*
X-18974927Y54949316D01*
X-18974986Y54949491D01*
X-18980344Y54972351D01*
X-18980369Y54972537D01*
X-19009120Y55050794D01*
X-19035733Y55129780D01*
X-19035734Y55129782D01*
X-19035828Y55129939D01*
X-19045975Y55151113D01*
X-19046039Y55151288D01*
X-19090941Y55221537D01*
X-19109543Y55252454D01*
X-19133910Y55292953D01*
X-19134043Y55293093D01*
X-19148496Y55311581D01*
X-19148600Y55311744D01*
X-19207553Y55370697D01*
X-19264871Y55431207D01*
X-19265030Y55431315D01*
X-19283123Y55446267D01*
X-20437966Y56601110D01*
X-20471451Y56662433D01*
X-20473813Y56677984D01*
X-20476433Y56707929D01*
X-20491930Y56885068D01*
X-20549106Y57098450D01*
X-20642466Y57298661D01*
X-20705820Y57389141D01*
X-20769173Y57479619D01*
X-20844369Y57554815D01*
X-20925380Y57635826D01*
X-20925384Y57635829D01*
X-20925385Y57635830D01*
X-21106334Y57762532D01*
X-21106338Y57762534D01*
X-21208130Y57810000D01*
X-21306550Y57855894D01*
X-21306553Y57855895D01*
X-21306555Y57855896D01*
X-21519930Y57913070D01*
X-21519938Y57913071D01*
X-21739998Y57932323D01*
X-21740002Y57932323D01*
X-21960063Y57913071D01*
X-21960071Y57913070D01*
X-22173446Y57855896D01*
X-22173452Y57855893D01*
X-22373660Y57762535D01*
X-22373662Y57762534D01*
X-22554623Y57635825D01*
X-22557819Y57632628D01*
X-22619142Y57599143D01*
X-22688834Y57604127D01*
X-22744767Y57645999D01*
X-22769184Y57711463D01*
X-22769500Y57720309D01*
X-22769500Y60689692D01*
X-22749815Y60756731D01*
X-22697011Y60802486D01*
X-22627853Y60812430D01*
X-22564297Y60783405D01*
X-22557819Y60777373D01*
X-22554622Y60774176D01*
X-22554616Y60774171D01*
X-22373667Y60647469D01*
X-22373665Y60647468D01*
X-22373662Y60647466D01*
X-22173450Y60554106D01*
X-21960068Y60496930D01*
X-21802877Y60483178D01*
X-21740002Y60477677D01*
X-21740000Y60477677D01*
X-21739998Y60477677D01*
X-21684983Y60482491D01*
X-21519932Y60496930D01*
X-21306550Y60554106D01*
X-21106338Y60647466D01*
X-20925380Y60774174D01*
X-20769174Y60930380D01*
X-20642466Y61111338D01*
X-20549106Y61311550D01*
X-20491930Y61524932D01*
X-20475565Y61711994D01*
X-20472677Y61744998D01*
X-20472677Y61745003D01*
X-20487667Y61916337D01*
X-20491930Y61965068D01*
X-20549106Y62178450D01*
X-20642466Y62378661D01*
X-20705820Y62469141D01*
X-20769173Y62559619D01*
X-20824968Y62615414D01*
X-20925380Y62715826D01*
X-20925384Y62715829D01*
X-20925385Y62715830D01*
X-21106334Y62842532D01*
X-21106342Y62842536D01*
X-21235189Y62902618D01*
X-21287629Y62948790D01*
X-21306781Y63015983D01*
X-21286565Y63082865D01*
X-21235189Y63127382D01*
X-21201319Y63143176D01*
X-21106338Y63187466D01*
X-20925380Y63314174D01*
X-20769174Y63470380D01*
X-20642466Y63651338D01*
X-20549106Y63851550D01*
X-20491930Y64064932D01*
X-20472677Y64285000D01*
X-20491930Y64505068D01*
X-20549106Y64718450D01*
X-20642466Y64918661D01*
X-20724617Y65035985D01*
X-20769173Y65099619D01*
X-20835758Y65166204D01*
X-20925380Y65255826D01*
X-20925384Y65255829D01*
X-20925385Y65255830D01*
X-21106334Y65382532D01*
X-21106342Y65382536D01*
X-21235189Y65442618D01*
X-21287629Y65488790D01*
X-21306781Y65555983D01*
X-21286565Y65622865D01*
X-21235189Y65667382D01*
X-21229198Y65670176D01*
X-21106338Y65727466D01*
X-20925380Y65854174D01*
X-20769174Y66010380D01*
X-20642466Y66191338D01*
X-20549106Y66391550D01*
X-20491930Y66604932D01*
X-20472677Y66825000D01*
X-20475069Y66852336D01*
X-20482444Y66936641D01*
X-20491930Y67045068D01*
X-20549106Y67258450D01*
X-20642466Y67458661D01*
X-20769174Y67639620D01*
X-20925380Y67795826D01*
X-20925384Y67795829D01*
X-20925385Y67795830D01*
X-21106334Y67922532D01*
X-21106338Y67922534D01*
X-21106340Y67922535D01*
X-21306550Y68015894D01*
X-21306553Y68015895D01*
X-21306555Y68015896D01*
X-21519930Y68073070D01*
X-21519938Y68073071D01*
X-21739998Y68092323D01*
X-21740002Y68092323D01*
X-21960063Y68073071D01*
X-21960071Y68073070D01*
X-22173446Y68015896D01*
X-22173452Y68015893D01*
X-22373660Y67922535D01*
X-22373662Y67922534D01*
X-22554619Y67795828D01*
X-22584123Y67766324D01*
X-22613629Y67736818D01*
X-22674949Y67703334D01*
X-22701308Y67700500D01*
X-23606901Y67700500D01*
X-23611936Y67700705D01*
X-23668846Y67705340D01*
X-23668852Y67705339D01*
X-23751441Y67694087D01*
X-23834320Y67685073D01*
X-23834510Y67685008D01*
X-23857335Y67679659D01*
X-23857534Y67679632D01*
X-23935795Y67650881D01*
X-24014780Y67624268D01*
X-24014783Y67624266D01*
X-24014960Y67624159D01*
X-24036089Y67614035D01*
X-24036287Y67613963D01*
X-24106537Y67569060D01*
X-24177957Y67526088D01*
X-24177959Y67526086D01*
X-24178110Y67525942D01*
X-24196564Y67511515D01*
X-24196740Y67511403D01*
X-24196745Y67511399D01*
X-24255698Y67452448D01*
X-24316204Y67395133D01*
X-24316208Y67395129D01*
X-24316319Y67394964D01*
X-24331263Y67376883D01*
X-25507127Y66201018D01*
X-25510830Y66197604D01*
X-25554359Y66160630D01*
X-25604809Y66094263D01*
X-25657030Y66029299D01*
X-25657032Y66029296D01*
X-25657121Y66029115D01*
X-25669471Y66009204D01*
X-25669600Y66009036D01*
X-25669603Y66009030D01*
X-25690395Y65964087D01*
X-25704611Y65933360D01*
X-25714618Y65913181D01*
X-25741641Y65858695D01*
X-25741646Y65858681D01*
X-25741691Y65858497D01*
X-25749473Y65836391D01*
X-25749559Y65836206D01*
X-25749562Y65836197D01*
X-25767486Y65754771D01*
X-25787601Y65673887D01*
X-25787606Y65673690D01*
X-25790455Y65650425D01*
X-25790500Y65650222D01*
X-25790500Y65566840D01*
X-25792757Y65483527D01*
X-25792722Y65483345D01*
X-25790500Y65459977D01*
X-25790500Y51600900D01*
X-25810185Y51533861D01*
X-25862989Y51488106D01*
X-25932147Y51478162D01*
X-25995703Y51507187D01*
X-26000191Y51511273D01*
X-26037173Y51546631D01*
X-26225034Y51670637D01*
X-26432005Y51759101D01*
X-26432018Y51759105D01*
X-26651458Y51809190D01*
X-26651462Y51809191D01*
X-26651463Y51809191D01*
X-26651464Y51809192D01*
X-26651469Y51809192D01*
X-26876326Y51819290D01*
X-26876327Y51819290D01*
X-26876330Y51819290D01*
X-27099387Y51789075D01*
X-27099390Y51789075D01*
X-27099391Y51789074D01*
X-27313466Y51719517D01*
X-27511679Y51612854D01*
X-27511682Y51612852D01*
X-27687664Y51472511D01*
X-27758814Y51391073D01*
X-27835765Y51302996D01*
X-27870450Y51244942D01*
X-27951213Y51109768D01*
X-27951218Y51109759D01*
X-27973309Y51050898D01*
X-28015295Y50995050D01*
X-28080809Y50970768D01*
X-28149051Y50985760D01*
X-28198355Y51035267D01*
X-28201101Y51040627D01*
X-28282171Y51208973D01*
X-28382690Y51347326D01*
X-28414474Y51391073D01*
X-28414475Y51391075D01*
X-28577177Y51546634D01*
X-28765034Y51670637D01*
X-28972005Y51759101D01*
X-28972018Y51759105D01*
X-29191458Y51809190D01*
X-29191462Y51809191D01*
X-29191463Y51809191D01*
X-29191464Y51809192D01*
X-29191469Y51809192D01*
X-29416326Y51819290D01*
X-29416327Y51819290D01*
X-29416330Y51819290D01*
X-29639387Y51789075D01*
X-29639390Y51789075D01*
X-29639391Y51789074D01*
X-29853466Y51719517D01*
X-30051679Y51612854D01*
X-30051682Y51612852D01*
X-30227664Y51472511D01*
X-30298814Y51391073D01*
X-30375765Y51302996D01*
X-30410450Y51244942D01*
X-30491213Y51109768D01*
X-30491218Y51109759D01*
X-30513309Y51050898D01*
X-30555295Y50995050D01*
X-30620809Y50970768D01*
X-30689051Y50985760D01*
X-30738355Y51035267D01*
X-30741101Y51040627D01*
X-30822171Y51208973D01*
X-30922690Y51347326D01*
X-30954474Y51391073D01*
X-30954475Y51391075D01*
X-31117177Y51546634D01*
X-31305034Y51670637D01*
X-31512005Y51759101D01*
X-31512018Y51759105D01*
X-31731458Y51809190D01*
X-31731462Y51809191D01*
X-31731463Y51809191D01*
X-31731464Y51809192D01*
X-31731469Y51809192D01*
X-31956326Y51819290D01*
X-31956327Y51819290D01*
X-31956330Y51819290D01*
X-32179387Y51789075D01*
X-32179390Y51789075D01*
X-32179391Y51789074D01*
X-32393466Y51719517D01*
X-32591679Y51612854D01*
X-32591682Y51612852D01*
X-32767664Y51472511D01*
X-32838814Y51391073D01*
X-32915765Y51302996D01*
X-32950450Y51244942D01*
X-33031213Y51109768D01*
X-33031218Y51109759D01*
X-33053309Y51050898D01*
X-33095295Y50995050D01*
X-33160809Y50970768D01*
X-33229051Y50985760D01*
X-33278355Y51035267D01*
X-33281101Y51040627D01*
X-33362171Y51208973D01*
X-33462690Y51347326D01*
X-33494474Y51391073D01*
X-33494475Y51391075D01*
X-33494478Y51391078D01*
X-33526193Y51421401D01*
X-33561044Y51481956D01*
X-33564500Y51511026D01*
X-33564500Y53744952D01*
X-33544815Y53811991D01*
X-33528186Y53832629D01*
X-33439953Y53920861D01*
X-33309432Y54107266D01*
X-33213261Y54313504D01*
X-33154365Y54533308D01*
X-33134532Y54760000D01*
X-33154365Y54986692D01*
X-33213261Y55206496D01*
X-33309432Y55412734D01*
X-33414039Y55562130D01*
X-33439955Y55599142D01*
X-33600859Y55760046D01*
X-33787266Y55890568D01*
X-33787268Y55890569D01*
X-33993503Y55986739D01*
X-33993512Y55986742D01*
X-34213303Y56045634D01*
X-34213307Y56045635D01*
X-34213308Y56045635D01*
X-34213309Y56045636D01*
X-34213314Y56045636D01*
X-34439998Y56065468D01*
X-34440002Y56065468D01*
X-34666687Y56045636D01*
X-34666698Y56045634D01*
X-34886489Y55986742D01*
X-34886498Y55986739D01*
X-35092733Y55890569D01*
X-35092735Y55890568D01*
X-35279142Y55760046D01*
X-35440046Y55599142D01*
X-35570568Y55412735D01*
X-35570569Y55412733D01*
X-35666739Y55206498D01*
X-35666742Y55206489D01*
X-35725634Y54986698D01*
X-35725636Y54986687D01*
X-35745468Y54760002D01*
X-35745468Y54759999D01*
X-35725636Y54533314D01*
X-35725634Y54533303D01*
X-35666742Y54313512D01*
X-35666739Y54313503D01*
X-35570569Y54107268D01*
X-35570568Y54107266D01*
X-35440049Y53920863D01*
X-35440048Y53920862D01*
X-35440047Y53920861D01*
X-35351818Y53832632D01*
X-35318334Y53771311D01*
X-35315500Y53744952D01*
X-35315500Y51510080D01*
X-35335185Y51443041D01*
X-35346115Y51428501D01*
X-35411645Y51353495D01*
X-35455767Y51302994D01*
X-35571213Y51109768D01*
X-35571218Y51109759D01*
X-35593309Y51050898D01*
X-35635295Y50995050D01*
X-35700809Y50970768D01*
X-35769051Y50985760D01*
X-35818355Y51035267D01*
X-35821101Y51040627D01*
X-35902171Y51208973D01*
X-36002690Y51347326D01*
X-36034474Y51391073D01*
X-36034475Y51391075D01*
X-36197177Y51546634D01*
X-36385034Y51670637D01*
X-36592005Y51759101D01*
X-36592018Y51759105D01*
X-36811458Y51809190D01*
X-36811462Y51809191D01*
X-36811463Y51809191D01*
X-36811464Y51809192D01*
X-36811469Y51809192D01*
X-37036326Y51819290D01*
X-37036327Y51819290D01*
X-37036330Y51819290D01*
X-37259387Y51789075D01*
X-37259390Y51789075D01*
X-37259391Y51789074D01*
X-37473466Y51719517D01*
X-37671679Y51612854D01*
X-37671682Y51612852D01*
X-37847664Y51472511D01*
X-37918814Y51391073D01*
X-37995765Y51302996D01*
X-38030450Y51244942D01*
X-38111213Y51109768D01*
X-38111218Y51109759D01*
X-38133309Y51050898D01*
X-38175295Y50995050D01*
X-38240809Y50970768D01*
X-38309051Y50985760D01*
X-38358355Y51035267D01*
X-38361101Y51040627D01*
X-38442171Y51208973D01*
X-38542690Y51347326D01*
X-38574474Y51391073D01*
X-38574475Y51391075D01*
X-38574478Y51391078D01*
X-38606193Y51421401D01*
X-38641044Y51481956D01*
X-38644500Y51511026D01*
X-38644500Y56626902D01*
X-38644295Y56631937D01*
X-38642184Y56657865D01*
X-38639661Y56688848D01*
X-38650915Y56771442D01*
X-38659927Y56854316D01*
X-38659986Y56854491D01*
X-38665344Y56877351D01*
X-38665369Y56877537D01*
X-38694120Y56955794D01*
X-38720733Y57034780D01*
X-38720734Y57034782D01*
X-38720828Y57034939D01*
X-38730975Y57056113D01*
X-38731039Y57056288D01*
X-38775941Y57126537D01*
X-38799808Y57166204D01*
X-38818910Y57197953D01*
X-38819043Y57198093D01*
X-38833496Y57216581D01*
X-38833600Y57216744D01*
X-38892553Y57275697D01*
X-38949871Y57336207D01*
X-38950030Y57336315D01*
X-38968123Y57351267D01*
X-41910181Y60293325D01*
X-41943666Y60354648D01*
X-41946500Y60381006D01*
X-41946500Y63103890D01*
X-41946295Y63108925D01*
X-41944069Y63136264D01*
X-41941660Y63165848D01*
X-41952917Y63248463D01*
X-41961927Y63331316D01*
X-41961986Y63331491D01*
X-41967344Y63354351D01*
X-41967369Y63354537D01*
X-41996120Y63432794D01*
X-42022733Y63511780D01*
X-42022734Y63511782D01*
X-42022828Y63511939D01*
X-42032975Y63533113D01*
X-42033039Y63533288D01*
X-42077941Y63603537D01*
X-42088257Y63620682D01*
X-42120910Y63674953D01*
X-42121043Y63675093D01*
X-42135496Y63693581D01*
X-42135600Y63693744D01*
X-42194553Y63752697D01*
X-42251871Y63813207D01*
X-42252030Y63813315D01*
X-42270123Y63828267D01*
X-43697686Y65255830D01*
X-45144001Y66702145D01*
X-45147392Y66705824D01*
X-45184369Y66749357D01*
X-45250738Y66799809D01*
X-45315703Y66852030D01*
X-45315706Y66852032D01*
X-45315880Y66852118D01*
X-45335818Y66864486D01*
X-45335971Y66864603D01*
X-45335973Y66864604D01*
X-45411641Y66899611D01*
X-45486307Y66936641D01*
X-45486311Y66936642D01*
X-45486320Y66936645D01*
X-45486512Y66936693D01*
X-45508615Y66944475D01*
X-45508802Y66944562D01*
X-45508806Y66944563D01*
X-45590229Y66962486D01*
X-45671115Y66982601D01*
X-45671311Y66982606D01*
X-45694587Y66985457D01*
X-45694778Y66985499D01*
X-45694781Y66985500D01*
X-45694784Y66985500D01*
X-45694788Y66985500D01*
X-45778160Y66985500D01*
X-45861473Y66987757D01*
X-45861474Y66987757D01*
X-45861655Y66987722D01*
X-45885023Y66985500D01*
X-47801165Y66985500D01*
X-47868204Y67005185D01*
X-47875494Y67010247D01*
X-47876163Y67010748D01*
X-47918024Y67066689D01*
X-47922995Y67136381D01*
X-47889499Y67197698D01*
X-47876146Y67209266D01*
X-47818454Y67252454D01*
X-47732204Y67367669D01*
X-47681909Y67502517D01*
X-47675500Y67562127D01*
X-47675501Y68657872D01*
X-47681909Y68717483D01*
X-47693798Y68749358D01*
X-47732203Y68852329D01*
X-47732207Y68852336D01*
X-47818453Y68967545D01*
X-47818456Y68967548D01*
X-47933665Y69053794D01*
X-47933672Y69053798D01*
X-48068518Y69104092D01*
X-48068517Y69104092D01*
X-48128117Y69110499D01*
X-48128119Y69110500D01*
X-48128127Y69110500D01*
X-48128136Y69110500D01*
X-50723871Y69110500D01*
X-50723877Y69110499D01*
X-50783484Y69104092D01*
X-50918329Y69053798D01*
X-50918336Y69053794D01*
X-51033545Y68967548D01*
X-51033548Y68967545D01*
X-51119794Y68852336D01*
X-51119798Y68852329D01*
X-51170092Y68717483D01*
X-51176499Y68657884D01*
X-51176499Y68657877D01*
X-51176500Y68657865D01*
X-51176500Y67562130D01*
X-51176499Y67562124D01*
X-51170092Y67502517D01*
X-51119798Y67367672D01*
X-51119794Y67367665D01*
X-51033548Y67252456D01*
X-51033547Y67252456D01*
X-51033546Y67252454D01*
X-51009150Y67234191D01*
X-50975855Y67209266D01*
X-50933985Y67153332D01*
X-50929001Y67083640D01*
X-50962487Y67022317D01*
X-50975855Y67010734D01*
X-51033548Y66967545D01*
X-51119794Y66852336D01*
X-51119798Y66852329D01*
X-51170092Y66717483D01*
X-51176499Y66657884D01*
X-51176500Y66657865D01*
X-51176500Y65562130D01*
X-51176499Y65562124D01*
X-51170092Y65502517D01*
X-51119798Y65367672D01*
X-51119794Y65367665D01*
X-51033548Y65252456D01*
X-51033547Y65252456D01*
X-51033546Y65252454D01*
X-51009150Y65234191D01*
X-50975855Y65209266D01*
X-50933985Y65153332D01*
X-50929001Y65083640D01*
X-50962487Y65022317D01*
X-50975855Y65010734D01*
X-51033548Y64967545D01*
X-51119794Y64852336D01*
X-51119798Y64852329D01*
X-51170092Y64717483D01*
X-51176499Y64657884D01*
X-51176500Y64657865D01*
X-51176500Y63562130D01*
X-51176499Y63562124D01*
X-51170092Y63502517D01*
X-51119798Y63367672D01*
X-51119794Y63367665D01*
X-51033548Y63252456D01*
X-51033547Y63252456D01*
X-51033546Y63252454D01*
X-51009150Y63234191D01*
X-50975855Y63209266D01*
X-50933985Y63153332D01*
X-50929001Y63083640D01*
X-50962487Y63022317D01*
X-50975855Y63010734D01*
X-51033548Y62967545D01*
X-51119794Y62852336D01*
X-51119798Y62852329D01*
X-51170092Y62717483D01*
X-51176499Y62657884D01*
X-51176500Y62657865D01*
X-51176500Y61562130D01*
X-51176499Y61562124D01*
X-51170092Y61502517D01*
X-51119798Y61367672D01*
X-51119794Y61367665D01*
X-51033548Y61252456D01*
X-51033547Y61252456D01*
X-51033546Y61252454D01*
X-51018603Y61241268D01*
X-50975855Y61209266D01*
X-50933985Y61153332D01*
X-50929001Y61083640D01*
X-50962487Y61022317D01*
X-50975855Y61010734D01*
X-51033548Y60967545D01*
X-51119794Y60852336D01*
X-51119798Y60852329D01*
X-51170092Y60717483D01*
X-51176499Y60657884D01*
X-51176500Y60657865D01*
X-51176500Y59562130D01*
X-51176499Y59562124D01*
X-51170092Y59502517D01*
X-51119798Y59367672D01*
X-51119794Y59367665D01*
X-51033548Y59252456D01*
X-51033547Y59252456D01*
X-51033546Y59252454D01*
X-51002012Y59228848D01*
X-50975438Y59208954D01*
X-50933568Y59153020D01*
X-50928584Y59083328D01*
X-50962070Y59022006D01*
X-50975438Y59010422D01*
X-51033191Y58967188D01*
X-51119351Y58852094D01*
X-51119355Y58852087D01*
X-51169597Y58717380D01*
X-51169599Y58717373D01*
X-51176000Y58657845D01*
X-51176000Y58360000D01*
X-50100111Y58360000D01*
X-50139610Y58335543D01*
X-50207201Y58246038D01*
X-50237895Y58138160D01*
X-50227546Y58026479D01*
X-50177552Y57926078D01*
X-50105069Y57860000D01*
X-51176000Y57860000D01*
X-51176000Y57562156D01*
X-51169599Y57502628D01*
X-51169597Y57502621D01*
X-51119355Y57367914D01*
X-51119351Y57367907D01*
X-51033191Y57252814D01*
X-50975439Y57209580D01*
X-50933568Y57153646D01*
X-50928584Y57083954D01*
X-50962069Y57022631D01*
X-50975437Y57011048D01*
X-51033546Y56967547D01*
X-51033548Y56967545D01*
X-51119794Y56852336D01*
X-51119798Y56852329D01*
X-51170092Y56717483D01*
X-51176499Y56657884D01*
X-51176500Y56657865D01*
X-51176500Y55562130D01*
X-51176499Y55562124D01*
X-51170092Y55502517D01*
X-51119798Y55367672D01*
X-51119794Y55367665D01*
X-51033548Y55252456D01*
X-51033547Y55252456D01*
X-51033546Y55252454D01*
X-50998273Y55226049D01*
X-50975438Y55208954D01*
X-50933568Y55153020D01*
X-50928584Y55083328D01*
X-50962070Y55022006D01*
X-50975438Y55010422D01*
X-51033191Y54967188D01*
X-51119351Y54852094D01*
X-51119355Y54852087D01*
X-51169597Y54717380D01*
X-51169599Y54717373D01*
X-51176000Y54657845D01*
X-51176000Y54360000D01*
X-50100111Y54360000D01*
X-50139610Y54335543D01*
X-50207201Y54246038D01*
X-50237895Y54138160D01*
X-50227546Y54026479D01*
X-50177552Y53926078D01*
X-50105069Y53860000D01*
X-51176000Y53860000D01*
X-51176000Y53854500D01*
X-51195685Y53787461D01*
X-51248489Y53741706D01*
X-51300000Y53730500D01*
X-51805994Y53730500D01*
X-51873033Y53750185D01*
X-51893675Y53766819D01*
X-55118181Y56991325D01*
X-55151666Y57052648D01*
X-55154500Y57079006D01*
X-55154500Y59166890D01*
X-55154295Y59171925D01*
X-55151255Y59209267D01*
X-55149660Y59228848D01*
X-55160917Y59311463D01*
X-55169927Y59394316D01*
X-55169986Y59394491D01*
X-55175344Y59417351D01*
X-55175369Y59417537D01*
X-55204120Y59495794D01*
X-55230733Y59574780D01*
X-55230734Y59574782D01*
X-55230828Y59574939D01*
X-55240975Y59596113D01*
X-55241039Y59596288D01*
X-55285941Y59666537D01*
X-55306801Y59701207D01*
X-55328910Y59737953D01*
X-55329043Y59738093D01*
X-55343496Y59756581D01*
X-55343600Y59756744D01*
X-55402553Y59815697D01*
X-55459871Y59876207D01*
X-55460030Y59876315D01*
X-55478123Y59891267D01*
X-59871859Y64285003D01*
X-64289001Y68702145D01*
X-64292392Y68705824D01*
X-64329369Y68749357D01*
X-64395738Y68799809D01*
X-64460703Y68852030D01*
X-64460706Y68852032D01*
X-64460880Y68852118D01*
X-64480818Y68864486D01*
X-64480971Y68864603D01*
X-64480973Y68864604D01*
X-64556641Y68899611D01*
X-64631307Y68936641D01*
X-64631311Y68936642D01*
X-64631320Y68936645D01*
X-64631512Y68936693D01*
X-64653615Y68944475D01*
X-64653802Y68944562D01*
X-64653806Y68944563D01*
X-64735229Y68962486D01*
X-64816115Y68982601D01*
X-64816311Y68982606D01*
X-64839587Y68985457D01*
X-64839778Y68985499D01*
X-64839781Y68985500D01*
X-64839784Y68985500D01*
X-64839788Y68985500D01*
X-64923160Y68985500D01*
X-65006473Y68987757D01*
X-65006474Y68987757D01*
X-65006655Y68987722D01*
X-65030023Y68985500D01*
X-66089165Y68985500D01*
X-66156204Y69005185D01*
X-66163476Y69010233D01*
X-66221669Y69053796D01*
X-66221672Y69053798D01*
X-66356518Y69104092D01*
X-66356517Y69104092D01*
X-66416117Y69110499D01*
X-66416119Y69110500D01*
X-66416127Y69110500D01*
X-66416136Y69110500D01*
X-69011871Y69110500D01*
X-69011877Y69110499D01*
X-69071484Y69104092D01*
X-69206329Y69053798D01*
X-69206336Y69053794D01*
X-69321545Y68967548D01*
X-69321548Y68967545D01*
X-69407794Y68852336D01*
X-69407798Y68852329D01*
X-69458092Y68717483D01*
X-69464499Y68657884D01*
X-69464499Y68657877D01*
X-69464500Y68657865D01*
X-69464500Y67562130D01*
X-69464499Y67562124D01*
X-69458092Y67502517D01*
X-69407798Y67367672D01*
X-69407794Y67367665D01*
X-69321548Y67252456D01*
X-69321547Y67252456D01*
X-69321546Y67252454D01*
X-69297150Y67234191D01*
X-69263855Y67209266D01*
X-69221985Y67153332D01*
X-69217001Y67083640D01*
X-69250487Y67022317D01*
X-69263855Y67010734D01*
X-69321548Y66967545D01*
X-69407794Y66852336D01*
X-69407798Y66852329D01*
X-69458092Y66717483D01*
X-69464499Y66657884D01*
X-69464500Y66657865D01*
X-69464500Y65562130D01*
X-69464499Y65562124D01*
X-69458092Y65502517D01*
X-69407798Y65367672D01*
X-69407794Y65367665D01*
X-69321548Y65252456D01*
X-69321547Y65252456D01*
X-69321546Y65252454D01*
X-69297150Y65234191D01*
X-69263855Y65209266D01*
X-69221985Y65153332D01*
X-69217001Y65083640D01*
X-69250487Y65022317D01*
X-69263855Y65010734D01*
X-69321548Y64967545D01*
X-69407794Y64852336D01*
X-69407798Y64852329D01*
X-69458092Y64717483D01*
X-69464499Y64657884D01*
X-69464500Y64657865D01*
X-69464500Y63562130D01*
X-69464499Y63562124D01*
X-69458092Y63502517D01*
X-69407798Y63367672D01*
X-69407794Y63367665D01*
X-69321548Y63252456D01*
X-69321547Y63252456D01*
X-69321546Y63252454D01*
X-69297150Y63234191D01*
X-69263855Y63209266D01*
X-69221985Y63153332D01*
X-69217001Y63083640D01*
X-69250487Y63022317D01*
X-69263855Y63010734D01*
X-69321548Y62967545D01*
X-69407794Y62852336D01*
X-69407798Y62852329D01*
X-69458092Y62717483D01*
X-69464499Y62657884D01*
X-69464500Y62657865D01*
X-69464500Y61562130D01*
X-69464499Y61562124D01*
X-69458092Y61502517D01*
X-69407798Y61367672D01*
X-69407794Y61367665D01*
X-69321548Y61252456D01*
X-69321547Y61252456D01*
X-69321546Y61252454D01*
X-69306603Y61241268D01*
X-69263855Y61209266D01*
X-69221985Y61153332D01*
X-69217001Y61083640D01*
X-69250487Y61022317D01*
X-69263855Y61010734D01*
X-69321548Y60967545D01*
X-69407794Y60852336D01*
X-69407798Y60852329D01*
X-69458092Y60717483D01*
X-69464499Y60657884D01*
X-69464500Y60657865D01*
X-69464500Y59562130D01*
X-69464499Y59562124D01*
X-69458092Y59502517D01*
X-69407798Y59367672D01*
X-69407794Y59367665D01*
X-69321548Y59252456D01*
X-69321547Y59252456D01*
X-69321546Y59252454D01*
X-69292385Y59230624D01*
X-69263855Y59209266D01*
X-69221985Y59153332D01*
X-69217001Y59083640D01*
X-69250487Y59022317D01*
X-69263855Y59010734D01*
X-69321548Y58967545D01*
X-69407794Y58852336D01*
X-69407798Y58852329D01*
X-69458092Y58717483D01*
X-69464499Y58657884D01*
X-69464500Y58657865D01*
X-69464500Y57562130D01*
X-69464499Y57562124D01*
X-69458092Y57502517D01*
X-69407798Y57367672D01*
X-69407794Y57367665D01*
X-69321548Y57252456D01*
X-69321547Y57252456D01*
X-69321546Y57252454D01*
X-69296642Y57233811D01*
X-69263855Y57209266D01*
X-69221985Y57153332D01*
X-69217001Y57083640D01*
X-69250487Y57022317D01*
X-69263855Y57010734D01*
X-69321548Y56967545D01*
X-69407794Y56852336D01*
X-69407798Y56852329D01*
X-69458092Y56717483D01*
X-69464499Y56657884D01*
X-69464500Y56657865D01*
X-69464500Y55562130D01*
X-69464499Y55562124D01*
X-69458092Y55502517D01*
X-69407798Y55367672D01*
X-69407794Y55367665D01*
X-69321548Y55252456D01*
X-69321547Y55252456D01*
X-69321546Y55252454D01*
X-69292385Y55230624D01*
X-69263855Y55209266D01*
X-69221985Y55153332D01*
X-69217001Y55083640D01*
X-69250487Y55022317D01*
X-69263855Y55010734D01*
X-69321548Y54967545D01*
X-69407794Y54852336D01*
X-69407798Y54852329D01*
X-69458092Y54717483D01*
X-69464499Y54657884D01*
X-69464500Y54657865D01*
X-69464500Y53562130D01*
X-69999500Y53562130D01*
X-69999500Y69875500D01*
X-69979815Y69942539D01*
X-69927011Y69988294D01*
X-69875500Y69999500D01*
X-40025000Y69999500D01*
X-39957961Y69979815D01*
G37*
%TD.AperFunction*%
%TD*%
M02*
